G04 #@! TF.GenerationSoftware,KiCad,Pcbnew,(5.1.0-0)*
G04 #@! TF.CreationDate,2019-12-01T11:51:17+01:00*
G04 #@! TF.ProjectId,esp32,65737033-322e-46b6-9963-61645f706362,rev?*
G04 #@! TF.SameCoordinates,Original*
G04 #@! TF.FileFunction,Paste,Top*
G04 #@! TF.FilePolarity,Positive*
%FSLAX46Y46*%
G04 Gerber Fmt 4.6, Leading zero omitted, Abs format (unit mm)*
G04 Created by KiCad (PCBNEW (5.1.0-0)) date 2019-12-01 11:51:17*
%MOMM*%
%LPD*%
G04 APERTURE LIST*
%ADD10R,5.000000X5.000000*%
%ADD11R,2.000000X0.900000*%
%ADD12R,0.900000X2.000000*%
%ADD13R,0.900000X1.200000*%
%ADD14R,1.100000X0.400000*%
%ADD15R,0.800000X0.900000*%
%ADD16C,0.100000*%
%ADD17C,0.300000*%
%ADD18C,1.150000*%
%ADD19R,1.200000X0.900000*%
%ADD20R,1.560000X0.650000*%
%ADD21R,1.550000X1.300000*%
%ADD22C,0.600000*%
%ADD23C,0.400000*%
%ADD24R,0.640000X0.640000*%
G04 APERTURE END LIST*
D10*
X140500000Y-79095000D03*
D11*
X133000000Y-71595000D03*
X133000000Y-72865000D03*
X133000000Y-74135000D03*
X133000000Y-75405000D03*
X133000000Y-76675000D03*
X133000000Y-77945000D03*
X133000000Y-79215000D03*
X133000000Y-80485000D03*
X133000000Y-81755000D03*
X133000000Y-83025000D03*
X133000000Y-84295000D03*
X133000000Y-85565000D03*
X133000000Y-86835000D03*
X133000000Y-88105000D03*
D12*
X135785000Y-89105000D03*
X137055000Y-89105000D03*
X138325000Y-89105000D03*
X139595000Y-89105000D03*
X140865000Y-89105000D03*
X142135000Y-89105000D03*
X143405000Y-89105000D03*
X144675000Y-89105000D03*
X145945000Y-89105000D03*
X147215000Y-89105000D03*
D11*
X150000000Y-88105000D03*
X150000000Y-86835000D03*
X150000000Y-85565000D03*
X150000000Y-84295000D03*
X150000000Y-83025000D03*
X150000000Y-81755000D03*
X150000000Y-80485000D03*
X150000000Y-79215000D03*
X150000000Y-77945000D03*
X150000000Y-76675000D03*
X150000000Y-75405000D03*
X150000000Y-74135000D03*
X150000000Y-72865000D03*
X150000000Y-71595000D03*
D13*
X80414000Y-80358000D03*
X83714000Y-80358000D03*
X98194000Y-85184000D03*
X101494000Y-85184000D03*
D14*
X126570000Y-85785000D03*
X126570000Y-86435000D03*
X126570000Y-87085000D03*
X126570000Y-87735000D03*
X126570000Y-88385000D03*
X126570000Y-89035000D03*
X126570000Y-89685000D03*
X126570000Y-90335000D03*
X126570000Y-90985000D03*
X126570000Y-91635000D03*
X126570000Y-92285000D03*
X126570000Y-92935000D03*
X126570000Y-93585000D03*
X126570000Y-94235000D03*
X120870000Y-94235000D03*
X120870000Y-93585000D03*
X120870000Y-92935000D03*
X120870000Y-92285000D03*
X120870000Y-91635000D03*
X120870000Y-90985000D03*
X120870000Y-90335000D03*
X120870000Y-89685000D03*
X120870000Y-89035000D03*
X120870000Y-88385000D03*
X120870000Y-87735000D03*
X120870000Y-87085000D03*
X120870000Y-86435000D03*
X120870000Y-85785000D03*
D15*
X159280000Y-97900000D03*
X160230000Y-99900000D03*
X158330000Y-99900000D03*
X155470000Y-97900000D03*
X156420000Y-99900000D03*
X154520000Y-99900000D03*
X151660000Y-97900000D03*
X152610000Y-99900000D03*
X150710000Y-99900000D03*
X147850000Y-97900000D03*
X148800000Y-99900000D03*
X146900000Y-99900000D03*
X140230000Y-97900000D03*
X141180000Y-99900000D03*
X139280000Y-99900000D03*
X136420000Y-97900000D03*
X137370000Y-99900000D03*
X135470000Y-99900000D03*
X132610000Y-97900000D03*
X133560000Y-99900000D03*
X131660000Y-99900000D03*
X128800000Y-97900000D03*
X129750000Y-99900000D03*
X127850000Y-99900000D03*
X121180000Y-97900000D03*
X122130000Y-99900000D03*
X120230000Y-99900000D03*
X117370000Y-97900000D03*
X118320000Y-99900000D03*
X116420000Y-99900000D03*
X113560000Y-97900000D03*
X114510000Y-99900000D03*
X112610000Y-99900000D03*
X109750000Y-97900000D03*
X110700000Y-99900000D03*
X108800000Y-99900000D03*
X102130000Y-97900000D03*
X103080000Y-99900000D03*
X101180000Y-99900000D03*
X98320000Y-97900000D03*
X99270000Y-99900000D03*
X97370000Y-99900000D03*
X94510000Y-97900000D03*
X95460000Y-99900000D03*
X93560000Y-99900000D03*
X90700000Y-97900000D03*
X91650000Y-99900000D03*
X89750000Y-99900000D03*
D16*
G36*
X93229851Y-74384361D02*
G01*
X93237132Y-74385441D01*
X93244271Y-74387229D01*
X93251201Y-74389709D01*
X93257855Y-74392856D01*
X93264168Y-74396640D01*
X93270079Y-74401024D01*
X93275533Y-74405967D01*
X93280476Y-74411421D01*
X93284860Y-74417332D01*
X93288644Y-74423645D01*
X93291791Y-74430299D01*
X93294271Y-74437229D01*
X93296059Y-74444368D01*
X93297139Y-74451649D01*
X93297500Y-74459000D01*
X93297500Y-74609000D01*
X93297139Y-74616351D01*
X93296059Y-74623632D01*
X93294271Y-74630771D01*
X93291791Y-74637701D01*
X93288644Y-74644355D01*
X93284860Y-74650668D01*
X93280476Y-74656579D01*
X93275533Y-74662033D01*
X93270079Y-74666976D01*
X93264168Y-74671360D01*
X93257855Y-74675144D01*
X93251201Y-74678291D01*
X93244271Y-74680771D01*
X93237132Y-74682559D01*
X93229851Y-74683639D01*
X93222500Y-74684000D01*
X92197500Y-74684000D01*
X92190149Y-74683639D01*
X92182868Y-74682559D01*
X92175729Y-74680771D01*
X92168799Y-74678291D01*
X92162145Y-74675144D01*
X92155832Y-74671360D01*
X92149921Y-74666976D01*
X92144467Y-74662033D01*
X92139524Y-74656579D01*
X92135140Y-74650668D01*
X92131356Y-74644355D01*
X92128209Y-74637701D01*
X92125729Y-74630771D01*
X92123941Y-74623632D01*
X92122861Y-74616351D01*
X92122500Y-74609000D01*
X92122500Y-74459000D01*
X92122861Y-74451649D01*
X92123941Y-74444368D01*
X92125729Y-74437229D01*
X92128209Y-74430299D01*
X92131356Y-74423645D01*
X92135140Y-74417332D01*
X92139524Y-74411421D01*
X92144467Y-74405967D01*
X92149921Y-74401024D01*
X92155832Y-74396640D01*
X92162145Y-74392856D01*
X92168799Y-74389709D01*
X92175729Y-74387229D01*
X92182868Y-74385441D01*
X92190149Y-74384361D01*
X92197500Y-74384000D01*
X93222500Y-74384000D01*
X93229851Y-74384361D01*
X93229851Y-74384361D01*
G37*
D17*
X92710000Y-74534000D03*
D16*
G36*
X93229851Y-75034361D02*
G01*
X93237132Y-75035441D01*
X93244271Y-75037229D01*
X93251201Y-75039709D01*
X93257855Y-75042856D01*
X93264168Y-75046640D01*
X93270079Y-75051024D01*
X93275533Y-75055967D01*
X93280476Y-75061421D01*
X93284860Y-75067332D01*
X93288644Y-75073645D01*
X93291791Y-75080299D01*
X93294271Y-75087229D01*
X93296059Y-75094368D01*
X93297139Y-75101649D01*
X93297500Y-75109000D01*
X93297500Y-75259000D01*
X93297139Y-75266351D01*
X93296059Y-75273632D01*
X93294271Y-75280771D01*
X93291791Y-75287701D01*
X93288644Y-75294355D01*
X93284860Y-75300668D01*
X93280476Y-75306579D01*
X93275533Y-75312033D01*
X93270079Y-75316976D01*
X93264168Y-75321360D01*
X93257855Y-75325144D01*
X93251201Y-75328291D01*
X93244271Y-75330771D01*
X93237132Y-75332559D01*
X93229851Y-75333639D01*
X93222500Y-75334000D01*
X92197500Y-75334000D01*
X92190149Y-75333639D01*
X92182868Y-75332559D01*
X92175729Y-75330771D01*
X92168799Y-75328291D01*
X92162145Y-75325144D01*
X92155832Y-75321360D01*
X92149921Y-75316976D01*
X92144467Y-75312033D01*
X92139524Y-75306579D01*
X92135140Y-75300668D01*
X92131356Y-75294355D01*
X92128209Y-75287701D01*
X92125729Y-75280771D01*
X92123941Y-75273632D01*
X92122861Y-75266351D01*
X92122500Y-75259000D01*
X92122500Y-75109000D01*
X92122861Y-75101649D01*
X92123941Y-75094368D01*
X92125729Y-75087229D01*
X92128209Y-75080299D01*
X92131356Y-75073645D01*
X92135140Y-75067332D01*
X92139524Y-75061421D01*
X92144467Y-75055967D01*
X92149921Y-75051024D01*
X92155832Y-75046640D01*
X92162145Y-75042856D01*
X92168799Y-75039709D01*
X92175729Y-75037229D01*
X92182868Y-75035441D01*
X92190149Y-75034361D01*
X92197500Y-75034000D01*
X93222500Y-75034000D01*
X93229851Y-75034361D01*
X93229851Y-75034361D01*
G37*
D17*
X92710000Y-75184000D03*
D16*
G36*
X93229851Y-75684361D02*
G01*
X93237132Y-75685441D01*
X93244271Y-75687229D01*
X93251201Y-75689709D01*
X93257855Y-75692856D01*
X93264168Y-75696640D01*
X93270079Y-75701024D01*
X93275533Y-75705967D01*
X93280476Y-75711421D01*
X93284860Y-75717332D01*
X93288644Y-75723645D01*
X93291791Y-75730299D01*
X93294271Y-75737229D01*
X93296059Y-75744368D01*
X93297139Y-75751649D01*
X93297500Y-75759000D01*
X93297500Y-75909000D01*
X93297139Y-75916351D01*
X93296059Y-75923632D01*
X93294271Y-75930771D01*
X93291791Y-75937701D01*
X93288644Y-75944355D01*
X93284860Y-75950668D01*
X93280476Y-75956579D01*
X93275533Y-75962033D01*
X93270079Y-75966976D01*
X93264168Y-75971360D01*
X93257855Y-75975144D01*
X93251201Y-75978291D01*
X93244271Y-75980771D01*
X93237132Y-75982559D01*
X93229851Y-75983639D01*
X93222500Y-75984000D01*
X92197500Y-75984000D01*
X92190149Y-75983639D01*
X92182868Y-75982559D01*
X92175729Y-75980771D01*
X92168799Y-75978291D01*
X92162145Y-75975144D01*
X92155832Y-75971360D01*
X92149921Y-75966976D01*
X92144467Y-75962033D01*
X92139524Y-75956579D01*
X92135140Y-75950668D01*
X92131356Y-75944355D01*
X92128209Y-75937701D01*
X92125729Y-75930771D01*
X92123941Y-75923632D01*
X92122861Y-75916351D01*
X92122500Y-75909000D01*
X92122500Y-75759000D01*
X92122861Y-75751649D01*
X92123941Y-75744368D01*
X92125729Y-75737229D01*
X92128209Y-75730299D01*
X92131356Y-75723645D01*
X92135140Y-75717332D01*
X92139524Y-75711421D01*
X92144467Y-75705967D01*
X92149921Y-75701024D01*
X92155832Y-75696640D01*
X92162145Y-75692856D01*
X92168799Y-75689709D01*
X92175729Y-75687229D01*
X92182868Y-75685441D01*
X92190149Y-75684361D01*
X92197500Y-75684000D01*
X93222500Y-75684000D01*
X93229851Y-75684361D01*
X93229851Y-75684361D01*
G37*
D17*
X92710000Y-75834000D03*
D16*
G36*
X91654851Y-75684361D02*
G01*
X91662132Y-75685441D01*
X91669271Y-75687229D01*
X91676201Y-75689709D01*
X91682855Y-75692856D01*
X91689168Y-75696640D01*
X91695079Y-75701024D01*
X91700533Y-75705967D01*
X91705476Y-75711421D01*
X91709860Y-75717332D01*
X91713644Y-75723645D01*
X91716791Y-75730299D01*
X91719271Y-75737229D01*
X91721059Y-75744368D01*
X91722139Y-75751649D01*
X91722500Y-75759000D01*
X91722500Y-75909000D01*
X91722139Y-75916351D01*
X91721059Y-75923632D01*
X91719271Y-75930771D01*
X91716791Y-75937701D01*
X91713644Y-75944355D01*
X91709860Y-75950668D01*
X91705476Y-75956579D01*
X91700533Y-75962033D01*
X91695079Y-75966976D01*
X91689168Y-75971360D01*
X91682855Y-75975144D01*
X91676201Y-75978291D01*
X91669271Y-75980771D01*
X91662132Y-75982559D01*
X91654851Y-75983639D01*
X91647500Y-75984000D01*
X90622500Y-75984000D01*
X90615149Y-75983639D01*
X90607868Y-75982559D01*
X90600729Y-75980771D01*
X90593799Y-75978291D01*
X90587145Y-75975144D01*
X90580832Y-75971360D01*
X90574921Y-75966976D01*
X90569467Y-75962033D01*
X90564524Y-75956579D01*
X90560140Y-75950668D01*
X90556356Y-75944355D01*
X90553209Y-75937701D01*
X90550729Y-75930771D01*
X90548941Y-75923632D01*
X90547861Y-75916351D01*
X90547500Y-75909000D01*
X90547500Y-75759000D01*
X90547861Y-75751649D01*
X90548941Y-75744368D01*
X90550729Y-75737229D01*
X90553209Y-75730299D01*
X90556356Y-75723645D01*
X90560140Y-75717332D01*
X90564524Y-75711421D01*
X90569467Y-75705967D01*
X90574921Y-75701024D01*
X90580832Y-75696640D01*
X90587145Y-75692856D01*
X90593799Y-75689709D01*
X90600729Y-75687229D01*
X90607868Y-75685441D01*
X90615149Y-75684361D01*
X90622500Y-75684000D01*
X91647500Y-75684000D01*
X91654851Y-75684361D01*
X91654851Y-75684361D01*
G37*
D17*
X91135000Y-75834000D03*
D16*
G36*
X91654851Y-75034361D02*
G01*
X91662132Y-75035441D01*
X91669271Y-75037229D01*
X91676201Y-75039709D01*
X91682855Y-75042856D01*
X91689168Y-75046640D01*
X91695079Y-75051024D01*
X91700533Y-75055967D01*
X91705476Y-75061421D01*
X91709860Y-75067332D01*
X91713644Y-75073645D01*
X91716791Y-75080299D01*
X91719271Y-75087229D01*
X91721059Y-75094368D01*
X91722139Y-75101649D01*
X91722500Y-75109000D01*
X91722500Y-75259000D01*
X91722139Y-75266351D01*
X91721059Y-75273632D01*
X91719271Y-75280771D01*
X91716791Y-75287701D01*
X91713644Y-75294355D01*
X91709860Y-75300668D01*
X91705476Y-75306579D01*
X91700533Y-75312033D01*
X91695079Y-75316976D01*
X91689168Y-75321360D01*
X91682855Y-75325144D01*
X91676201Y-75328291D01*
X91669271Y-75330771D01*
X91662132Y-75332559D01*
X91654851Y-75333639D01*
X91647500Y-75334000D01*
X90622500Y-75334000D01*
X90615149Y-75333639D01*
X90607868Y-75332559D01*
X90600729Y-75330771D01*
X90593799Y-75328291D01*
X90587145Y-75325144D01*
X90580832Y-75321360D01*
X90574921Y-75316976D01*
X90569467Y-75312033D01*
X90564524Y-75306579D01*
X90560140Y-75300668D01*
X90556356Y-75294355D01*
X90553209Y-75287701D01*
X90550729Y-75280771D01*
X90548941Y-75273632D01*
X90547861Y-75266351D01*
X90547500Y-75259000D01*
X90547500Y-75109000D01*
X90547861Y-75101649D01*
X90548941Y-75094368D01*
X90550729Y-75087229D01*
X90553209Y-75080299D01*
X90556356Y-75073645D01*
X90560140Y-75067332D01*
X90564524Y-75061421D01*
X90569467Y-75055967D01*
X90574921Y-75051024D01*
X90580832Y-75046640D01*
X90587145Y-75042856D01*
X90593799Y-75039709D01*
X90600729Y-75037229D01*
X90607868Y-75035441D01*
X90615149Y-75034361D01*
X90622500Y-75034000D01*
X91647500Y-75034000D01*
X91654851Y-75034361D01*
X91654851Y-75034361D01*
G37*
D17*
X91135000Y-75184000D03*
D16*
G36*
X91654851Y-74384361D02*
G01*
X91662132Y-74385441D01*
X91669271Y-74387229D01*
X91676201Y-74389709D01*
X91682855Y-74392856D01*
X91689168Y-74396640D01*
X91695079Y-74401024D01*
X91700533Y-74405967D01*
X91705476Y-74411421D01*
X91709860Y-74417332D01*
X91713644Y-74423645D01*
X91716791Y-74430299D01*
X91719271Y-74437229D01*
X91721059Y-74444368D01*
X91722139Y-74451649D01*
X91722500Y-74459000D01*
X91722500Y-74609000D01*
X91722139Y-74616351D01*
X91721059Y-74623632D01*
X91719271Y-74630771D01*
X91716791Y-74637701D01*
X91713644Y-74644355D01*
X91709860Y-74650668D01*
X91705476Y-74656579D01*
X91700533Y-74662033D01*
X91695079Y-74666976D01*
X91689168Y-74671360D01*
X91682855Y-74675144D01*
X91676201Y-74678291D01*
X91669271Y-74680771D01*
X91662132Y-74682559D01*
X91654851Y-74683639D01*
X91647500Y-74684000D01*
X90622500Y-74684000D01*
X90615149Y-74683639D01*
X90607868Y-74682559D01*
X90600729Y-74680771D01*
X90593799Y-74678291D01*
X90587145Y-74675144D01*
X90580832Y-74671360D01*
X90574921Y-74666976D01*
X90569467Y-74662033D01*
X90564524Y-74656579D01*
X90560140Y-74650668D01*
X90556356Y-74644355D01*
X90553209Y-74637701D01*
X90550729Y-74630771D01*
X90548941Y-74623632D01*
X90547861Y-74616351D01*
X90547500Y-74609000D01*
X90547500Y-74459000D01*
X90547861Y-74451649D01*
X90548941Y-74444368D01*
X90550729Y-74437229D01*
X90553209Y-74430299D01*
X90556356Y-74423645D01*
X90560140Y-74417332D01*
X90564524Y-74411421D01*
X90569467Y-74405967D01*
X90574921Y-74401024D01*
X90580832Y-74396640D01*
X90587145Y-74392856D01*
X90593799Y-74389709D01*
X90600729Y-74387229D01*
X90607868Y-74385441D01*
X90615149Y-74384361D01*
X90622500Y-74384000D01*
X91647500Y-74384000D01*
X91654851Y-74384361D01*
X91654851Y-74384361D01*
G37*
D17*
X91135000Y-74534000D03*
D16*
G36*
X86348505Y-73951204D02*
G01*
X86372773Y-73954804D01*
X86396572Y-73960765D01*
X86419671Y-73969030D01*
X86441850Y-73979520D01*
X86462893Y-73992132D01*
X86482599Y-74006747D01*
X86500777Y-74023223D01*
X86517253Y-74041401D01*
X86531868Y-74061107D01*
X86544480Y-74082150D01*
X86554970Y-74104329D01*
X86563235Y-74127428D01*
X86569196Y-74151227D01*
X86572796Y-74175495D01*
X86574000Y-74199999D01*
X86574000Y-74850001D01*
X86572796Y-74874505D01*
X86569196Y-74898773D01*
X86563235Y-74922572D01*
X86554970Y-74945671D01*
X86544480Y-74967850D01*
X86531868Y-74988893D01*
X86517253Y-75008599D01*
X86500777Y-75026777D01*
X86482599Y-75043253D01*
X86462893Y-75057868D01*
X86441850Y-75070480D01*
X86419671Y-75080970D01*
X86396572Y-75089235D01*
X86372773Y-75095196D01*
X86348505Y-75098796D01*
X86324001Y-75100000D01*
X85423999Y-75100000D01*
X85399495Y-75098796D01*
X85375227Y-75095196D01*
X85351428Y-75089235D01*
X85328329Y-75080970D01*
X85306150Y-75070480D01*
X85285107Y-75057868D01*
X85265401Y-75043253D01*
X85247223Y-75026777D01*
X85230747Y-75008599D01*
X85216132Y-74988893D01*
X85203520Y-74967850D01*
X85193030Y-74945671D01*
X85184765Y-74922572D01*
X85178804Y-74898773D01*
X85175204Y-74874505D01*
X85174000Y-74850001D01*
X85174000Y-74199999D01*
X85175204Y-74175495D01*
X85178804Y-74151227D01*
X85184765Y-74127428D01*
X85193030Y-74104329D01*
X85203520Y-74082150D01*
X85216132Y-74061107D01*
X85230747Y-74041401D01*
X85247223Y-74023223D01*
X85265401Y-74006747D01*
X85285107Y-73992132D01*
X85306150Y-73979520D01*
X85328329Y-73969030D01*
X85351428Y-73960765D01*
X85375227Y-73954804D01*
X85399495Y-73951204D01*
X85423999Y-73950000D01*
X86324001Y-73950000D01*
X86348505Y-73951204D01*
X86348505Y-73951204D01*
G37*
D18*
X85874000Y-74525000D03*
D16*
G36*
X86348505Y-71901204D02*
G01*
X86372773Y-71904804D01*
X86396572Y-71910765D01*
X86419671Y-71919030D01*
X86441850Y-71929520D01*
X86462893Y-71942132D01*
X86482599Y-71956747D01*
X86500777Y-71973223D01*
X86517253Y-71991401D01*
X86531868Y-72011107D01*
X86544480Y-72032150D01*
X86554970Y-72054329D01*
X86563235Y-72077428D01*
X86569196Y-72101227D01*
X86572796Y-72125495D01*
X86574000Y-72149999D01*
X86574000Y-72800001D01*
X86572796Y-72824505D01*
X86569196Y-72848773D01*
X86563235Y-72872572D01*
X86554970Y-72895671D01*
X86544480Y-72917850D01*
X86531868Y-72938893D01*
X86517253Y-72958599D01*
X86500777Y-72976777D01*
X86482599Y-72993253D01*
X86462893Y-73007868D01*
X86441850Y-73020480D01*
X86419671Y-73030970D01*
X86396572Y-73039235D01*
X86372773Y-73045196D01*
X86348505Y-73048796D01*
X86324001Y-73050000D01*
X85423999Y-73050000D01*
X85399495Y-73048796D01*
X85375227Y-73045196D01*
X85351428Y-73039235D01*
X85328329Y-73030970D01*
X85306150Y-73020480D01*
X85285107Y-73007868D01*
X85265401Y-72993253D01*
X85247223Y-72976777D01*
X85230747Y-72958599D01*
X85216132Y-72938893D01*
X85203520Y-72917850D01*
X85193030Y-72895671D01*
X85184765Y-72872572D01*
X85178804Y-72848773D01*
X85175204Y-72824505D01*
X85174000Y-72800001D01*
X85174000Y-72149999D01*
X85175204Y-72125495D01*
X85178804Y-72101227D01*
X85184765Y-72077428D01*
X85193030Y-72054329D01*
X85203520Y-72032150D01*
X85216132Y-72011107D01*
X85230747Y-71991401D01*
X85247223Y-71973223D01*
X85265401Y-71956747D01*
X85285107Y-71942132D01*
X85306150Y-71929520D01*
X85328329Y-71919030D01*
X85351428Y-71910765D01*
X85375227Y-71904804D01*
X85399495Y-71901204D01*
X85423999Y-71900000D01*
X86324001Y-71900000D01*
X86348505Y-71901204D01*
X86348505Y-71901204D01*
G37*
D18*
X85874000Y-72475000D03*
D16*
G36*
X129666505Y-74071204D02*
G01*
X129690773Y-74074804D01*
X129714572Y-74080765D01*
X129737671Y-74089030D01*
X129759850Y-74099520D01*
X129780893Y-74112132D01*
X129800599Y-74126747D01*
X129818777Y-74143223D01*
X129835253Y-74161401D01*
X129849868Y-74181107D01*
X129862480Y-74202150D01*
X129872970Y-74224329D01*
X129881235Y-74247428D01*
X129887196Y-74271227D01*
X129890796Y-74295495D01*
X129892000Y-74319999D01*
X129892000Y-75220001D01*
X129890796Y-75244505D01*
X129887196Y-75268773D01*
X129881235Y-75292572D01*
X129872970Y-75315671D01*
X129862480Y-75337850D01*
X129849868Y-75358893D01*
X129835253Y-75378599D01*
X129818777Y-75396777D01*
X129800599Y-75413253D01*
X129780893Y-75427868D01*
X129759850Y-75440480D01*
X129737671Y-75450970D01*
X129714572Y-75459235D01*
X129690773Y-75465196D01*
X129666505Y-75468796D01*
X129642001Y-75470000D01*
X128991999Y-75470000D01*
X128967495Y-75468796D01*
X128943227Y-75465196D01*
X128919428Y-75459235D01*
X128896329Y-75450970D01*
X128874150Y-75440480D01*
X128853107Y-75427868D01*
X128833401Y-75413253D01*
X128815223Y-75396777D01*
X128798747Y-75378599D01*
X128784132Y-75358893D01*
X128771520Y-75337850D01*
X128761030Y-75315671D01*
X128752765Y-75292572D01*
X128746804Y-75268773D01*
X128743204Y-75244505D01*
X128742000Y-75220001D01*
X128742000Y-74319999D01*
X128743204Y-74295495D01*
X128746804Y-74271227D01*
X128752765Y-74247428D01*
X128761030Y-74224329D01*
X128771520Y-74202150D01*
X128784132Y-74181107D01*
X128798747Y-74161401D01*
X128815223Y-74143223D01*
X128833401Y-74126747D01*
X128853107Y-74112132D01*
X128874150Y-74099520D01*
X128896329Y-74089030D01*
X128919428Y-74080765D01*
X128943227Y-74074804D01*
X128967495Y-74071204D01*
X128991999Y-74070000D01*
X129642001Y-74070000D01*
X129666505Y-74071204D01*
X129666505Y-74071204D01*
G37*
D18*
X129317000Y-74770000D03*
D16*
G36*
X127616505Y-74071204D02*
G01*
X127640773Y-74074804D01*
X127664572Y-74080765D01*
X127687671Y-74089030D01*
X127709850Y-74099520D01*
X127730893Y-74112132D01*
X127750599Y-74126747D01*
X127768777Y-74143223D01*
X127785253Y-74161401D01*
X127799868Y-74181107D01*
X127812480Y-74202150D01*
X127822970Y-74224329D01*
X127831235Y-74247428D01*
X127837196Y-74271227D01*
X127840796Y-74295495D01*
X127842000Y-74319999D01*
X127842000Y-75220001D01*
X127840796Y-75244505D01*
X127837196Y-75268773D01*
X127831235Y-75292572D01*
X127822970Y-75315671D01*
X127812480Y-75337850D01*
X127799868Y-75358893D01*
X127785253Y-75378599D01*
X127768777Y-75396777D01*
X127750599Y-75413253D01*
X127730893Y-75427868D01*
X127709850Y-75440480D01*
X127687671Y-75450970D01*
X127664572Y-75459235D01*
X127640773Y-75465196D01*
X127616505Y-75468796D01*
X127592001Y-75470000D01*
X126941999Y-75470000D01*
X126917495Y-75468796D01*
X126893227Y-75465196D01*
X126869428Y-75459235D01*
X126846329Y-75450970D01*
X126824150Y-75440480D01*
X126803107Y-75427868D01*
X126783401Y-75413253D01*
X126765223Y-75396777D01*
X126748747Y-75378599D01*
X126734132Y-75358893D01*
X126721520Y-75337850D01*
X126711030Y-75315671D01*
X126702765Y-75292572D01*
X126696804Y-75268773D01*
X126693204Y-75244505D01*
X126692000Y-75220001D01*
X126692000Y-74319999D01*
X126693204Y-74295495D01*
X126696804Y-74271227D01*
X126702765Y-74247428D01*
X126711030Y-74224329D01*
X126721520Y-74202150D01*
X126734132Y-74181107D01*
X126748747Y-74161401D01*
X126765223Y-74143223D01*
X126783401Y-74126747D01*
X126803107Y-74112132D01*
X126824150Y-74099520D01*
X126846329Y-74089030D01*
X126869428Y-74080765D01*
X126893227Y-74074804D01*
X126917495Y-74071204D01*
X126941999Y-74070000D01*
X127592001Y-74070000D01*
X127616505Y-74071204D01*
X127616505Y-74071204D01*
G37*
D18*
X127267000Y-74770000D03*
D19*
X111020000Y-68419000D03*
X111020000Y-65119000D03*
D20*
X116815000Y-71849000D03*
X116815000Y-70899000D03*
X116815000Y-72799000D03*
X114115000Y-72799000D03*
X114115000Y-71849000D03*
X114115000Y-70899000D03*
D16*
G36*
X120504505Y-70515204D02*
G01*
X120528773Y-70518804D01*
X120552572Y-70524765D01*
X120575671Y-70533030D01*
X120597850Y-70543520D01*
X120618893Y-70556132D01*
X120638599Y-70570747D01*
X120656777Y-70587223D01*
X120673253Y-70605401D01*
X120687868Y-70625107D01*
X120700480Y-70646150D01*
X120710970Y-70668329D01*
X120719235Y-70691428D01*
X120725196Y-70715227D01*
X120728796Y-70739495D01*
X120730000Y-70763999D01*
X120730000Y-71664001D01*
X120728796Y-71688505D01*
X120725196Y-71712773D01*
X120719235Y-71736572D01*
X120710970Y-71759671D01*
X120700480Y-71781850D01*
X120687868Y-71802893D01*
X120673253Y-71822599D01*
X120656777Y-71840777D01*
X120638599Y-71857253D01*
X120618893Y-71871868D01*
X120597850Y-71884480D01*
X120575671Y-71894970D01*
X120552572Y-71903235D01*
X120528773Y-71909196D01*
X120504505Y-71912796D01*
X120480001Y-71914000D01*
X119829999Y-71914000D01*
X119805495Y-71912796D01*
X119781227Y-71909196D01*
X119757428Y-71903235D01*
X119734329Y-71894970D01*
X119712150Y-71884480D01*
X119691107Y-71871868D01*
X119671401Y-71857253D01*
X119653223Y-71840777D01*
X119636747Y-71822599D01*
X119622132Y-71802893D01*
X119609520Y-71781850D01*
X119599030Y-71759671D01*
X119590765Y-71736572D01*
X119584804Y-71712773D01*
X119581204Y-71688505D01*
X119580000Y-71664001D01*
X119580000Y-70763999D01*
X119581204Y-70739495D01*
X119584804Y-70715227D01*
X119590765Y-70691428D01*
X119599030Y-70668329D01*
X119609520Y-70646150D01*
X119622132Y-70625107D01*
X119636747Y-70605401D01*
X119653223Y-70587223D01*
X119671401Y-70570747D01*
X119691107Y-70556132D01*
X119712150Y-70543520D01*
X119734329Y-70533030D01*
X119757428Y-70524765D01*
X119781227Y-70518804D01*
X119805495Y-70515204D01*
X119829999Y-70514000D01*
X120480001Y-70514000D01*
X120504505Y-70515204D01*
X120504505Y-70515204D01*
G37*
D18*
X120155000Y-71214000D03*
D16*
G36*
X122554505Y-70515204D02*
G01*
X122578773Y-70518804D01*
X122602572Y-70524765D01*
X122625671Y-70533030D01*
X122647850Y-70543520D01*
X122668893Y-70556132D01*
X122688599Y-70570747D01*
X122706777Y-70587223D01*
X122723253Y-70605401D01*
X122737868Y-70625107D01*
X122750480Y-70646150D01*
X122760970Y-70668329D01*
X122769235Y-70691428D01*
X122775196Y-70715227D01*
X122778796Y-70739495D01*
X122780000Y-70763999D01*
X122780000Y-71664001D01*
X122778796Y-71688505D01*
X122775196Y-71712773D01*
X122769235Y-71736572D01*
X122760970Y-71759671D01*
X122750480Y-71781850D01*
X122737868Y-71802893D01*
X122723253Y-71822599D01*
X122706777Y-71840777D01*
X122688599Y-71857253D01*
X122668893Y-71871868D01*
X122647850Y-71884480D01*
X122625671Y-71894970D01*
X122602572Y-71903235D01*
X122578773Y-71909196D01*
X122554505Y-71912796D01*
X122530001Y-71914000D01*
X121879999Y-71914000D01*
X121855495Y-71912796D01*
X121831227Y-71909196D01*
X121807428Y-71903235D01*
X121784329Y-71894970D01*
X121762150Y-71884480D01*
X121741107Y-71871868D01*
X121721401Y-71857253D01*
X121703223Y-71840777D01*
X121686747Y-71822599D01*
X121672132Y-71802893D01*
X121659520Y-71781850D01*
X121649030Y-71759671D01*
X121640765Y-71736572D01*
X121634804Y-71712773D01*
X121631204Y-71688505D01*
X121630000Y-71664001D01*
X121630000Y-70763999D01*
X121631204Y-70739495D01*
X121634804Y-70715227D01*
X121640765Y-70691428D01*
X121649030Y-70668329D01*
X121659520Y-70646150D01*
X121672132Y-70625107D01*
X121686747Y-70605401D01*
X121703223Y-70587223D01*
X121721401Y-70570747D01*
X121741107Y-70556132D01*
X121762150Y-70543520D01*
X121784329Y-70533030D01*
X121807428Y-70524765D01*
X121831227Y-70518804D01*
X121855495Y-70515204D01*
X121879999Y-70514000D01*
X122530001Y-70514000D01*
X122554505Y-70515204D01*
X122554505Y-70515204D01*
G37*
D18*
X122205000Y-71214000D03*
D16*
G36*
X120504505Y-73055204D02*
G01*
X120528773Y-73058804D01*
X120552572Y-73064765D01*
X120575671Y-73073030D01*
X120597850Y-73083520D01*
X120618893Y-73096132D01*
X120638599Y-73110747D01*
X120656777Y-73127223D01*
X120673253Y-73145401D01*
X120687868Y-73165107D01*
X120700480Y-73186150D01*
X120710970Y-73208329D01*
X120719235Y-73231428D01*
X120725196Y-73255227D01*
X120728796Y-73279495D01*
X120730000Y-73303999D01*
X120730000Y-74204001D01*
X120728796Y-74228505D01*
X120725196Y-74252773D01*
X120719235Y-74276572D01*
X120710970Y-74299671D01*
X120700480Y-74321850D01*
X120687868Y-74342893D01*
X120673253Y-74362599D01*
X120656777Y-74380777D01*
X120638599Y-74397253D01*
X120618893Y-74411868D01*
X120597850Y-74424480D01*
X120575671Y-74434970D01*
X120552572Y-74443235D01*
X120528773Y-74449196D01*
X120504505Y-74452796D01*
X120480001Y-74454000D01*
X119829999Y-74454000D01*
X119805495Y-74452796D01*
X119781227Y-74449196D01*
X119757428Y-74443235D01*
X119734329Y-74434970D01*
X119712150Y-74424480D01*
X119691107Y-74411868D01*
X119671401Y-74397253D01*
X119653223Y-74380777D01*
X119636747Y-74362599D01*
X119622132Y-74342893D01*
X119609520Y-74321850D01*
X119599030Y-74299671D01*
X119590765Y-74276572D01*
X119584804Y-74252773D01*
X119581204Y-74228505D01*
X119580000Y-74204001D01*
X119580000Y-73303999D01*
X119581204Y-73279495D01*
X119584804Y-73255227D01*
X119590765Y-73231428D01*
X119599030Y-73208329D01*
X119609520Y-73186150D01*
X119622132Y-73165107D01*
X119636747Y-73145401D01*
X119653223Y-73127223D01*
X119671401Y-73110747D01*
X119691107Y-73096132D01*
X119712150Y-73083520D01*
X119734329Y-73073030D01*
X119757428Y-73064765D01*
X119781227Y-73058804D01*
X119805495Y-73055204D01*
X119829999Y-73054000D01*
X120480001Y-73054000D01*
X120504505Y-73055204D01*
X120504505Y-73055204D01*
G37*
D18*
X120155000Y-73754000D03*
D16*
G36*
X122554505Y-73055204D02*
G01*
X122578773Y-73058804D01*
X122602572Y-73064765D01*
X122625671Y-73073030D01*
X122647850Y-73083520D01*
X122668893Y-73096132D01*
X122688599Y-73110747D01*
X122706777Y-73127223D01*
X122723253Y-73145401D01*
X122737868Y-73165107D01*
X122750480Y-73186150D01*
X122760970Y-73208329D01*
X122769235Y-73231428D01*
X122775196Y-73255227D01*
X122778796Y-73279495D01*
X122780000Y-73303999D01*
X122780000Y-74204001D01*
X122778796Y-74228505D01*
X122775196Y-74252773D01*
X122769235Y-74276572D01*
X122760970Y-74299671D01*
X122750480Y-74321850D01*
X122737868Y-74342893D01*
X122723253Y-74362599D01*
X122706777Y-74380777D01*
X122688599Y-74397253D01*
X122668893Y-74411868D01*
X122647850Y-74424480D01*
X122625671Y-74434970D01*
X122602572Y-74443235D01*
X122578773Y-74449196D01*
X122554505Y-74452796D01*
X122530001Y-74454000D01*
X121879999Y-74454000D01*
X121855495Y-74452796D01*
X121831227Y-74449196D01*
X121807428Y-74443235D01*
X121784329Y-74434970D01*
X121762150Y-74424480D01*
X121741107Y-74411868D01*
X121721401Y-74397253D01*
X121703223Y-74380777D01*
X121686747Y-74362599D01*
X121672132Y-74342893D01*
X121659520Y-74321850D01*
X121649030Y-74299671D01*
X121640765Y-74276572D01*
X121634804Y-74252773D01*
X121631204Y-74228505D01*
X121630000Y-74204001D01*
X121630000Y-73303999D01*
X121631204Y-73279495D01*
X121634804Y-73255227D01*
X121640765Y-73231428D01*
X121649030Y-73208329D01*
X121659520Y-73186150D01*
X121672132Y-73165107D01*
X121686747Y-73145401D01*
X121703223Y-73127223D01*
X121721401Y-73110747D01*
X121741107Y-73096132D01*
X121762150Y-73083520D01*
X121784329Y-73073030D01*
X121807428Y-73064765D01*
X121831227Y-73058804D01*
X121855495Y-73055204D01*
X121879999Y-73054000D01*
X122530001Y-73054000D01*
X122554505Y-73055204D01*
X122554505Y-73055204D01*
G37*
D18*
X122205000Y-73754000D03*
D16*
G36*
X116839505Y-64800204D02*
G01*
X116863773Y-64803804D01*
X116887572Y-64809765D01*
X116910671Y-64818030D01*
X116932850Y-64828520D01*
X116953893Y-64841132D01*
X116973599Y-64855747D01*
X116991777Y-64872223D01*
X117008253Y-64890401D01*
X117022868Y-64910107D01*
X117035480Y-64931150D01*
X117045970Y-64953329D01*
X117054235Y-64976428D01*
X117060196Y-65000227D01*
X117063796Y-65024495D01*
X117065000Y-65048999D01*
X117065000Y-65949001D01*
X117063796Y-65973505D01*
X117060196Y-65997773D01*
X117054235Y-66021572D01*
X117045970Y-66044671D01*
X117035480Y-66066850D01*
X117022868Y-66087893D01*
X117008253Y-66107599D01*
X116991777Y-66125777D01*
X116973599Y-66142253D01*
X116953893Y-66156868D01*
X116932850Y-66169480D01*
X116910671Y-66179970D01*
X116887572Y-66188235D01*
X116863773Y-66194196D01*
X116839505Y-66197796D01*
X116815001Y-66199000D01*
X116164999Y-66199000D01*
X116140495Y-66197796D01*
X116116227Y-66194196D01*
X116092428Y-66188235D01*
X116069329Y-66179970D01*
X116047150Y-66169480D01*
X116026107Y-66156868D01*
X116006401Y-66142253D01*
X115988223Y-66125777D01*
X115971747Y-66107599D01*
X115957132Y-66087893D01*
X115944520Y-66066850D01*
X115934030Y-66044671D01*
X115925765Y-66021572D01*
X115919804Y-65997773D01*
X115916204Y-65973505D01*
X115915000Y-65949001D01*
X115915000Y-65048999D01*
X115916204Y-65024495D01*
X115919804Y-65000227D01*
X115925765Y-64976428D01*
X115934030Y-64953329D01*
X115944520Y-64931150D01*
X115957132Y-64910107D01*
X115971747Y-64890401D01*
X115988223Y-64872223D01*
X116006401Y-64855747D01*
X116026107Y-64841132D01*
X116047150Y-64828520D01*
X116069329Y-64818030D01*
X116092428Y-64809765D01*
X116116227Y-64803804D01*
X116140495Y-64800204D01*
X116164999Y-64799000D01*
X116815001Y-64799000D01*
X116839505Y-64800204D01*
X116839505Y-64800204D01*
G37*
D18*
X116490000Y-65499000D03*
D16*
G36*
X114789505Y-64800204D02*
G01*
X114813773Y-64803804D01*
X114837572Y-64809765D01*
X114860671Y-64818030D01*
X114882850Y-64828520D01*
X114903893Y-64841132D01*
X114923599Y-64855747D01*
X114941777Y-64872223D01*
X114958253Y-64890401D01*
X114972868Y-64910107D01*
X114985480Y-64931150D01*
X114995970Y-64953329D01*
X115004235Y-64976428D01*
X115010196Y-65000227D01*
X115013796Y-65024495D01*
X115015000Y-65048999D01*
X115015000Y-65949001D01*
X115013796Y-65973505D01*
X115010196Y-65997773D01*
X115004235Y-66021572D01*
X114995970Y-66044671D01*
X114985480Y-66066850D01*
X114972868Y-66087893D01*
X114958253Y-66107599D01*
X114941777Y-66125777D01*
X114923599Y-66142253D01*
X114903893Y-66156868D01*
X114882850Y-66169480D01*
X114860671Y-66179970D01*
X114837572Y-66188235D01*
X114813773Y-66194196D01*
X114789505Y-66197796D01*
X114765001Y-66199000D01*
X114114999Y-66199000D01*
X114090495Y-66197796D01*
X114066227Y-66194196D01*
X114042428Y-66188235D01*
X114019329Y-66179970D01*
X113997150Y-66169480D01*
X113976107Y-66156868D01*
X113956401Y-66142253D01*
X113938223Y-66125777D01*
X113921747Y-66107599D01*
X113907132Y-66087893D01*
X113894520Y-66066850D01*
X113884030Y-66044671D01*
X113875765Y-66021572D01*
X113869804Y-65997773D01*
X113866204Y-65973505D01*
X113865000Y-65949001D01*
X113865000Y-65048999D01*
X113866204Y-65024495D01*
X113869804Y-65000227D01*
X113875765Y-64976428D01*
X113884030Y-64953329D01*
X113894520Y-64931150D01*
X113907132Y-64910107D01*
X113921747Y-64890401D01*
X113938223Y-64872223D01*
X113956401Y-64855747D01*
X113976107Y-64841132D01*
X113997150Y-64828520D01*
X114019329Y-64818030D01*
X114042428Y-64809765D01*
X114066227Y-64803804D01*
X114090495Y-64800204D01*
X114114999Y-64799000D01*
X114765001Y-64799000D01*
X114789505Y-64800204D01*
X114789505Y-64800204D01*
G37*
D18*
X114440000Y-65499000D03*
D16*
G36*
X120504505Y-66705204D02*
G01*
X120528773Y-66708804D01*
X120552572Y-66714765D01*
X120575671Y-66723030D01*
X120597850Y-66733520D01*
X120618893Y-66746132D01*
X120638599Y-66760747D01*
X120656777Y-66777223D01*
X120673253Y-66795401D01*
X120687868Y-66815107D01*
X120700480Y-66836150D01*
X120710970Y-66858329D01*
X120719235Y-66881428D01*
X120725196Y-66905227D01*
X120728796Y-66929495D01*
X120730000Y-66953999D01*
X120730000Y-67854001D01*
X120728796Y-67878505D01*
X120725196Y-67902773D01*
X120719235Y-67926572D01*
X120710970Y-67949671D01*
X120700480Y-67971850D01*
X120687868Y-67992893D01*
X120673253Y-68012599D01*
X120656777Y-68030777D01*
X120638599Y-68047253D01*
X120618893Y-68061868D01*
X120597850Y-68074480D01*
X120575671Y-68084970D01*
X120552572Y-68093235D01*
X120528773Y-68099196D01*
X120504505Y-68102796D01*
X120480001Y-68104000D01*
X119829999Y-68104000D01*
X119805495Y-68102796D01*
X119781227Y-68099196D01*
X119757428Y-68093235D01*
X119734329Y-68084970D01*
X119712150Y-68074480D01*
X119691107Y-68061868D01*
X119671401Y-68047253D01*
X119653223Y-68030777D01*
X119636747Y-68012599D01*
X119622132Y-67992893D01*
X119609520Y-67971850D01*
X119599030Y-67949671D01*
X119590765Y-67926572D01*
X119584804Y-67902773D01*
X119581204Y-67878505D01*
X119580000Y-67854001D01*
X119580000Y-66953999D01*
X119581204Y-66929495D01*
X119584804Y-66905227D01*
X119590765Y-66881428D01*
X119599030Y-66858329D01*
X119609520Y-66836150D01*
X119622132Y-66815107D01*
X119636747Y-66795401D01*
X119653223Y-66777223D01*
X119671401Y-66760747D01*
X119691107Y-66746132D01*
X119712150Y-66733520D01*
X119734329Y-66723030D01*
X119757428Y-66714765D01*
X119781227Y-66708804D01*
X119805495Y-66705204D01*
X119829999Y-66704000D01*
X120480001Y-66704000D01*
X120504505Y-66705204D01*
X120504505Y-66705204D01*
G37*
D18*
X120155000Y-67404000D03*
D16*
G36*
X122554505Y-66705204D02*
G01*
X122578773Y-66708804D01*
X122602572Y-66714765D01*
X122625671Y-66723030D01*
X122647850Y-66733520D01*
X122668893Y-66746132D01*
X122688599Y-66760747D01*
X122706777Y-66777223D01*
X122723253Y-66795401D01*
X122737868Y-66815107D01*
X122750480Y-66836150D01*
X122760970Y-66858329D01*
X122769235Y-66881428D01*
X122775196Y-66905227D01*
X122778796Y-66929495D01*
X122780000Y-66953999D01*
X122780000Y-67854001D01*
X122778796Y-67878505D01*
X122775196Y-67902773D01*
X122769235Y-67926572D01*
X122760970Y-67949671D01*
X122750480Y-67971850D01*
X122737868Y-67992893D01*
X122723253Y-68012599D01*
X122706777Y-68030777D01*
X122688599Y-68047253D01*
X122668893Y-68061868D01*
X122647850Y-68074480D01*
X122625671Y-68084970D01*
X122602572Y-68093235D01*
X122578773Y-68099196D01*
X122554505Y-68102796D01*
X122530001Y-68104000D01*
X121879999Y-68104000D01*
X121855495Y-68102796D01*
X121831227Y-68099196D01*
X121807428Y-68093235D01*
X121784329Y-68084970D01*
X121762150Y-68074480D01*
X121741107Y-68061868D01*
X121721401Y-68047253D01*
X121703223Y-68030777D01*
X121686747Y-68012599D01*
X121672132Y-67992893D01*
X121659520Y-67971850D01*
X121649030Y-67949671D01*
X121640765Y-67926572D01*
X121634804Y-67902773D01*
X121631204Y-67878505D01*
X121630000Y-67854001D01*
X121630000Y-66953999D01*
X121631204Y-66929495D01*
X121634804Y-66905227D01*
X121640765Y-66881428D01*
X121649030Y-66858329D01*
X121659520Y-66836150D01*
X121672132Y-66815107D01*
X121686747Y-66795401D01*
X121703223Y-66777223D01*
X121721401Y-66760747D01*
X121741107Y-66746132D01*
X121762150Y-66733520D01*
X121784329Y-66723030D01*
X121807428Y-66714765D01*
X121831227Y-66708804D01*
X121855495Y-66705204D01*
X121879999Y-66704000D01*
X122530001Y-66704000D01*
X122554505Y-66705204D01*
X122554505Y-66705204D01*
G37*
D18*
X122205000Y-67404000D03*
D16*
G36*
X114789505Y-67340204D02*
G01*
X114813773Y-67343804D01*
X114837572Y-67349765D01*
X114860671Y-67358030D01*
X114882850Y-67368520D01*
X114903893Y-67381132D01*
X114923599Y-67395747D01*
X114941777Y-67412223D01*
X114958253Y-67430401D01*
X114972868Y-67450107D01*
X114985480Y-67471150D01*
X114995970Y-67493329D01*
X115004235Y-67516428D01*
X115010196Y-67540227D01*
X115013796Y-67564495D01*
X115015000Y-67588999D01*
X115015000Y-68489001D01*
X115013796Y-68513505D01*
X115010196Y-68537773D01*
X115004235Y-68561572D01*
X114995970Y-68584671D01*
X114985480Y-68606850D01*
X114972868Y-68627893D01*
X114958253Y-68647599D01*
X114941777Y-68665777D01*
X114923599Y-68682253D01*
X114903893Y-68696868D01*
X114882850Y-68709480D01*
X114860671Y-68719970D01*
X114837572Y-68728235D01*
X114813773Y-68734196D01*
X114789505Y-68737796D01*
X114765001Y-68739000D01*
X114114999Y-68739000D01*
X114090495Y-68737796D01*
X114066227Y-68734196D01*
X114042428Y-68728235D01*
X114019329Y-68719970D01*
X113997150Y-68709480D01*
X113976107Y-68696868D01*
X113956401Y-68682253D01*
X113938223Y-68665777D01*
X113921747Y-68647599D01*
X113907132Y-68627893D01*
X113894520Y-68606850D01*
X113884030Y-68584671D01*
X113875765Y-68561572D01*
X113869804Y-68537773D01*
X113866204Y-68513505D01*
X113865000Y-68489001D01*
X113865000Y-67588999D01*
X113866204Y-67564495D01*
X113869804Y-67540227D01*
X113875765Y-67516428D01*
X113884030Y-67493329D01*
X113894520Y-67471150D01*
X113907132Y-67450107D01*
X113921747Y-67430401D01*
X113938223Y-67412223D01*
X113956401Y-67395747D01*
X113976107Y-67381132D01*
X113997150Y-67368520D01*
X114019329Y-67358030D01*
X114042428Y-67349765D01*
X114066227Y-67343804D01*
X114090495Y-67340204D01*
X114114999Y-67339000D01*
X114765001Y-67339000D01*
X114789505Y-67340204D01*
X114789505Y-67340204D01*
G37*
D18*
X114440000Y-68039000D03*
D16*
G36*
X116839505Y-67340204D02*
G01*
X116863773Y-67343804D01*
X116887572Y-67349765D01*
X116910671Y-67358030D01*
X116932850Y-67368520D01*
X116953893Y-67381132D01*
X116973599Y-67395747D01*
X116991777Y-67412223D01*
X117008253Y-67430401D01*
X117022868Y-67450107D01*
X117035480Y-67471150D01*
X117045970Y-67493329D01*
X117054235Y-67516428D01*
X117060196Y-67540227D01*
X117063796Y-67564495D01*
X117065000Y-67588999D01*
X117065000Y-68489001D01*
X117063796Y-68513505D01*
X117060196Y-68537773D01*
X117054235Y-68561572D01*
X117045970Y-68584671D01*
X117035480Y-68606850D01*
X117022868Y-68627893D01*
X117008253Y-68647599D01*
X116991777Y-68665777D01*
X116973599Y-68682253D01*
X116953893Y-68696868D01*
X116932850Y-68709480D01*
X116910671Y-68719970D01*
X116887572Y-68728235D01*
X116863773Y-68734196D01*
X116839505Y-68737796D01*
X116815001Y-68739000D01*
X116164999Y-68739000D01*
X116140495Y-68737796D01*
X116116227Y-68734196D01*
X116092428Y-68728235D01*
X116069329Y-68719970D01*
X116047150Y-68709480D01*
X116026107Y-68696868D01*
X116006401Y-68682253D01*
X115988223Y-68665777D01*
X115971747Y-68647599D01*
X115957132Y-68627893D01*
X115944520Y-68606850D01*
X115934030Y-68584671D01*
X115925765Y-68561572D01*
X115919804Y-68537773D01*
X115916204Y-68513505D01*
X115915000Y-68489001D01*
X115915000Y-67588999D01*
X115916204Y-67564495D01*
X115919804Y-67540227D01*
X115925765Y-67516428D01*
X115934030Y-67493329D01*
X115944520Y-67471150D01*
X115957132Y-67450107D01*
X115971747Y-67430401D01*
X115988223Y-67412223D01*
X116006401Y-67395747D01*
X116026107Y-67381132D01*
X116047150Y-67368520D01*
X116069329Y-67358030D01*
X116092428Y-67349765D01*
X116116227Y-67343804D01*
X116140495Y-67340204D01*
X116164999Y-67339000D01*
X116815001Y-67339000D01*
X116839505Y-67340204D01*
X116839505Y-67340204D01*
G37*
D18*
X116490000Y-68039000D03*
D16*
G36*
X111494505Y-70640204D02*
G01*
X111518773Y-70643804D01*
X111542572Y-70649765D01*
X111565671Y-70658030D01*
X111587850Y-70668520D01*
X111608893Y-70681132D01*
X111628599Y-70695747D01*
X111646777Y-70712223D01*
X111663253Y-70730401D01*
X111677868Y-70750107D01*
X111690480Y-70771150D01*
X111700970Y-70793329D01*
X111709235Y-70816428D01*
X111715196Y-70840227D01*
X111718796Y-70864495D01*
X111720000Y-70888999D01*
X111720000Y-71539001D01*
X111718796Y-71563505D01*
X111715196Y-71587773D01*
X111709235Y-71611572D01*
X111700970Y-71634671D01*
X111690480Y-71656850D01*
X111677868Y-71677893D01*
X111663253Y-71697599D01*
X111646777Y-71715777D01*
X111628599Y-71732253D01*
X111608893Y-71746868D01*
X111587850Y-71759480D01*
X111565671Y-71769970D01*
X111542572Y-71778235D01*
X111518773Y-71784196D01*
X111494505Y-71787796D01*
X111470001Y-71789000D01*
X110569999Y-71789000D01*
X110545495Y-71787796D01*
X110521227Y-71784196D01*
X110497428Y-71778235D01*
X110474329Y-71769970D01*
X110452150Y-71759480D01*
X110431107Y-71746868D01*
X110411401Y-71732253D01*
X110393223Y-71715777D01*
X110376747Y-71697599D01*
X110362132Y-71677893D01*
X110349520Y-71656850D01*
X110339030Y-71634671D01*
X110330765Y-71611572D01*
X110324804Y-71587773D01*
X110321204Y-71563505D01*
X110320000Y-71539001D01*
X110320000Y-70888999D01*
X110321204Y-70864495D01*
X110324804Y-70840227D01*
X110330765Y-70816428D01*
X110339030Y-70793329D01*
X110349520Y-70771150D01*
X110362132Y-70750107D01*
X110376747Y-70730401D01*
X110393223Y-70712223D01*
X110411401Y-70695747D01*
X110431107Y-70681132D01*
X110452150Y-70668520D01*
X110474329Y-70658030D01*
X110497428Y-70649765D01*
X110521227Y-70643804D01*
X110545495Y-70640204D01*
X110569999Y-70639000D01*
X111470001Y-70639000D01*
X111494505Y-70640204D01*
X111494505Y-70640204D01*
G37*
D18*
X111020000Y-71214000D03*
D16*
G36*
X111494505Y-72690204D02*
G01*
X111518773Y-72693804D01*
X111542572Y-72699765D01*
X111565671Y-72708030D01*
X111587850Y-72718520D01*
X111608893Y-72731132D01*
X111628599Y-72745747D01*
X111646777Y-72762223D01*
X111663253Y-72780401D01*
X111677868Y-72800107D01*
X111690480Y-72821150D01*
X111700970Y-72843329D01*
X111709235Y-72866428D01*
X111715196Y-72890227D01*
X111718796Y-72914495D01*
X111720000Y-72938999D01*
X111720000Y-73589001D01*
X111718796Y-73613505D01*
X111715196Y-73637773D01*
X111709235Y-73661572D01*
X111700970Y-73684671D01*
X111690480Y-73706850D01*
X111677868Y-73727893D01*
X111663253Y-73747599D01*
X111646777Y-73765777D01*
X111628599Y-73782253D01*
X111608893Y-73796868D01*
X111587850Y-73809480D01*
X111565671Y-73819970D01*
X111542572Y-73828235D01*
X111518773Y-73834196D01*
X111494505Y-73837796D01*
X111470001Y-73839000D01*
X110569999Y-73839000D01*
X110545495Y-73837796D01*
X110521227Y-73834196D01*
X110497428Y-73828235D01*
X110474329Y-73819970D01*
X110452150Y-73809480D01*
X110431107Y-73796868D01*
X110411401Y-73782253D01*
X110393223Y-73765777D01*
X110376747Y-73747599D01*
X110362132Y-73727893D01*
X110349520Y-73706850D01*
X110339030Y-73684671D01*
X110330765Y-73661572D01*
X110324804Y-73637773D01*
X110321204Y-73613505D01*
X110320000Y-73589001D01*
X110320000Y-72938999D01*
X110321204Y-72914495D01*
X110324804Y-72890227D01*
X110330765Y-72866428D01*
X110339030Y-72843329D01*
X110349520Y-72821150D01*
X110362132Y-72800107D01*
X110376747Y-72780401D01*
X110393223Y-72762223D01*
X110411401Y-72745747D01*
X110431107Y-72731132D01*
X110452150Y-72718520D01*
X110474329Y-72708030D01*
X110497428Y-72699765D01*
X110521227Y-72693804D01*
X110545495Y-72690204D01*
X110569999Y-72689000D01*
X111470001Y-72689000D01*
X111494505Y-72690204D01*
X111494505Y-72690204D01*
G37*
D18*
X111020000Y-73264000D03*
D16*
G36*
X159874505Y-81691204D02*
G01*
X159898773Y-81694804D01*
X159922572Y-81700765D01*
X159945671Y-81709030D01*
X159967850Y-81719520D01*
X159988893Y-81732132D01*
X160008599Y-81746747D01*
X160026777Y-81763223D01*
X160043253Y-81781401D01*
X160057868Y-81801107D01*
X160070480Y-81822150D01*
X160080970Y-81844329D01*
X160089235Y-81867428D01*
X160095196Y-81891227D01*
X160098796Y-81915495D01*
X160100000Y-81939999D01*
X160100000Y-82840001D01*
X160098796Y-82864505D01*
X160095196Y-82888773D01*
X160089235Y-82912572D01*
X160080970Y-82935671D01*
X160070480Y-82957850D01*
X160057868Y-82978893D01*
X160043253Y-82998599D01*
X160026777Y-83016777D01*
X160008599Y-83033253D01*
X159988893Y-83047868D01*
X159967850Y-83060480D01*
X159945671Y-83070970D01*
X159922572Y-83079235D01*
X159898773Y-83085196D01*
X159874505Y-83088796D01*
X159850001Y-83090000D01*
X159199999Y-83090000D01*
X159175495Y-83088796D01*
X159151227Y-83085196D01*
X159127428Y-83079235D01*
X159104329Y-83070970D01*
X159082150Y-83060480D01*
X159061107Y-83047868D01*
X159041401Y-83033253D01*
X159023223Y-83016777D01*
X159006747Y-82998599D01*
X158992132Y-82978893D01*
X158979520Y-82957850D01*
X158969030Y-82935671D01*
X158960765Y-82912572D01*
X158954804Y-82888773D01*
X158951204Y-82864505D01*
X158950000Y-82840001D01*
X158950000Y-81939999D01*
X158951204Y-81915495D01*
X158954804Y-81891227D01*
X158960765Y-81867428D01*
X158969030Y-81844329D01*
X158979520Y-81822150D01*
X158992132Y-81801107D01*
X159006747Y-81781401D01*
X159023223Y-81763223D01*
X159041401Y-81746747D01*
X159061107Y-81732132D01*
X159082150Y-81719520D01*
X159104329Y-81709030D01*
X159127428Y-81700765D01*
X159151227Y-81694804D01*
X159175495Y-81691204D01*
X159199999Y-81690000D01*
X159850001Y-81690000D01*
X159874505Y-81691204D01*
X159874505Y-81691204D01*
G37*
D18*
X159525000Y-82390000D03*
D16*
G36*
X161924505Y-81691204D02*
G01*
X161948773Y-81694804D01*
X161972572Y-81700765D01*
X161995671Y-81709030D01*
X162017850Y-81719520D01*
X162038893Y-81732132D01*
X162058599Y-81746747D01*
X162076777Y-81763223D01*
X162093253Y-81781401D01*
X162107868Y-81801107D01*
X162120480Y-81822150D01*
X162130970Y-81844329D01*
X162139235Y-81867428D01*
X162145196Y-81891227D01*
X162148796Y-81915495D01*
X162150000Y-81939999D01*
X162150000Y-82840001D01*
X162148796Y-82864505D01*
X162145196Y-82888773D01*
X162139235Y-82912572D01*
X162130970Y-82935671D01*
X162120480Y-82957850D01*
X162107868Y-82978893D01*
X162093253Y-82998599D01*
X162076777Y-83016777D01*
X162058599Y-83033253D01*
X162038893Y-83047868D01*
X162017850Y-83060480D01*
X161995671Y-83070970D01*
X161972572Y-83079235D01*
X161948773Y-83085196D01*
X161924505Y-83088796D01*
X161900001Y-83090000D01*
X161249999Y-83090000D01*
X161225495Y-83088796D01*
X161201227Y-83085196D01*
X161177428Y-83079235D01*
X161154329Y-83070970D01*
X161132150Y-83060480D01*
X161111107Y-83047868D01*
X161091401Y-83033253D01*
X161073223Y-83016777D01*
X161056747Y-82998599D01*
X161042132Y-82978893D01*
X161029520Y-82957850D01*
X161019030Y-82935671D01*
X161010765Y-82912572D01*
X161004804Y-82888773D01*
X161001204Y-82864505D01*
X161000000Y-82840001D01*
X161000000Y-81939999D01*
X161001204Y-81915495D01*
X161004804Y-81891227D01*
X161010765Y-81867428D01*
X161019030Y-81844329D01*
X161029520Y-81822150D01*
X161042132Y-81801107D01*
X161056747Y-81781401D01*
X161073223Y-81763223D01*
X161091401Y-81746747D01*
X161111107Y-81732132D01*
X161132150Y-81719520D01*
X161154329Y-81709030D01*
X161177428Y-81700765D01*
X161201227Y-81694804D01*
X161225495Y-81691204D01*
X161249999Y-81690000D01*
X161900001Y-81690000D01*
X161924505Y-81691204D01*
X161924505Y-81691204D01*
G37*
D18*
X161575000Y-82390000D03*
D16*
G36*
X113673505Y-78008204D02*
G01*
X113697773Y-78011804D01*
X113721572Y-78017765D01*
X113744671Y-78026030D01*
X113766850Y-78036520D01*
X113787893Y-78049132D01*
X113807599Y-78063747D01*
X113825777Y-78080223D01*
X113842253Y-78098401D01*
X113856868Y-78118107D01*
X113869480Y-78139150D01*
X113879970Y-78161329D01*
X113888235Y-78184428D01*
X113894196Y-78208227D01*
X113897796Y-78232495D01*
X113899000Y-78256999D01*
X113899000Y-79157001D01*
X113897796Y-79181505D01*
X113894196Y-79205773D01*
X113888235Y-79229572D01*
X113879970Y-79252671D01*
X113869480Y-79274850D01*
X113856868Y-79295893D01*
X113842253Y-79315599D01*
X113825777Y-79333777D01*
X113807599Y-79350253D01*
X113787893Y-79364868D01*
X113766850Y-79377480D01*
X113744671Y-79387970D01*
X113721572Y-79396235D01*
X113697773Y-79402196D01*
X113673505Y-79405796D01*
X113649001Y-79407000D01*
X112998999Y-79407000D01*
X112974495Y-79405796D01*
X112950227Y-79402196D01*
X112926428Y-79396235D01*
X112903329Y-79387970D01*
X112881150Y-79377480D01*
X112860107Y-79364868D01*
X112840401Y-79350253D01*
X112822223Y-79333777D01*
X112805747Y-79315599D01*
X112791132Y-79295893D01*
X112778520Y-79274850D01*
X112768030Y-79252671D01*
X112759765Y-79229572D01*
X112753804Y-79205773D01*
X112750204Y-79181505D01*
X112749000Y-79157001D01*
X112749000Y-78256999D01*
X112750204Y-78232495D01*
X112753804Y-78208227D01*
X112759765Y-78184428D01*
X112768030Y-78161329D01*
X112778520Y-78139150D01*
X112791132Y-78118107D01*
X112805747Y-78098401D01*
X112822223Y-78080223D01*
X112840401Y-78063747D01*
X112860107Y-78049132D01*
X112881150Y-78036520D01*
X112903329Y-78026030D01*
X112926428Y-78017765D01*
X112950227Y-78011804D01*
X112974495Y-78008204D01*
X112998999Y-78007000D01*
X113649001Y-78007000D01*
X113673505Y-78008204D01*
X113673505Y-78008204D01*
G37*
D18*
X113324000Y-78707000D03*
D16*
G36*
X111623505Y-78008204D02*
G01*
X111647773Y-78011804D01*
X111671572Y-78017765D01*
X111694671Y-78026030D01*
X111716850Y-78036520D01*
X111737893Y-78049132D01*
X111757599Y-78063747D01*
X111775777Y-78080223D01*
X111792253Y-78098401D01*
X111806868Y-78118107D01*
X111819480Y-78139150D01*
X111829970Y-78161329D01*
X111838235Y-78184428D01*
X111844196Y-78208227D01*
X111847796Y-78232495D01*
X111849000Y-78256999D01*
X111849000Y-79157001D01*
X111847796Y-79181505D01*
X111844196Y-79205773D01*
X111838235Y-79229572D01*
X111829970Y-79252671D01*
X111819480Y-79274850D01*
X111806868Y-79295893D01*
X111792253Y-79315599D01*
X111775777Y-79333777D01*
X111757599Y-79350253D01*
X111737893Y-79364868D01*
X111716850Y-79377480D01*
X111694671Y-79387970D01*
X111671572Y-79396235D01*
X111647773Y-79402196D01*
X111623505Y-79405796D01*
X111599001Y-79407000D01*
X110948999Y-79407000D01*
X110924495Y-79405796D01*
X110900227Y-79402196D01*
X110876428Y-79396235D01*
X110853329Y-79387970D01*
X110831150Y-79377480D01*
X110810107Y-79364868D01*
X110790401Y-79350253D01*
X110772223Y-79333777D01*
X110755747Y-79315599D01*
X110741132Y-79295893D01*
X110728520Y-79274850D01*
X110718030Y-79252671D01*
X110709765Y-79229572D01*
X110703804Y-79205773D01*
X110700204Y-79181505D01*
X110699000Y-79157001D01*
X110699000Y-78256999D01*
X110700204Y-78232495D01*
X110703804Y-78208227D01*
X110709765Y-78184428D01*
X110718030Y-78161329D01*
X110728520Y-78139150D01*
X110741132Y-78118107D01*
X110755747Y-78098401D01*
X110772223Y-78080223D01*
X110790401Y-78063747D01*
X110810107Y-78049132D01*
X110831150Y-78036520D01*
X110853329Y-78026030D01*
X110876428Y-78017765D01*
X110900227Y-78011804D01*
X110924495Y-78008204D01*
X110948999Y-78007000D01*
X111599001Y-78007000D01*
X111623505Y-78008204D01*
X111623505Y-78008204D01*
G37*
D18*
X111274000Y-78707000D03*
D16*
G36*
X154794505Y-81691204D02*
G01*
X154818773Y-81694804D01*
X154842572Y-81700765D01*
X154865671Y-81709030D01*
X154887850Y-81719520D01*
X154908893Y-81732132D01*
X154928599Y-81746747D01*
X154946777Y-81763223D01*
X154963253Y-81781401D01*
X154977868Y-81801107D01*
X154990480Y-81822150D01*
X155000970Y-81844329D01*
X155009235Y-81867428D01*
X155015196Y-81891227D01*
X155018796Y-81915495D01*
X155020000Y-81939999D01*
X155020000Y-82840001D01*
X155018796Y-82864505D01*
X155015196Y-82888773D01*
X155009235Y-82912572D01*
X155000970Y-82935671D01*
X154990480Y-82957850D01*
X154977868Y-82978893D01*
X154963253Y-82998599D01*
X154946777Y-83016777D01*
X154928599Y-83033253D01*
X154908893Y-83047868D01*
X154887850Y-83060480D01*
X154865671Y-83070970D01*
X154842572Y-83079235D01*
X154818773Y-83085196D01*
X154794505Y-83088796D01*
X154770001Y-83090000D01*
X154119999Y-83090000D01*
X154095495Y-83088796D01*
X154071227Y-83085196D01*
X154047428Y-83079235D01*
X154024329Y-83070970D01*
X154002150Y-83060480D01*
X153981107Y-83047868D01*
X153961401Y-83033253D01*
X153943223Y-83016777D01*
X153926747Y-82998599D01*
X153912132Y-82978893D01*
X153899520Y-82957850D01*
X153889030Y-82935671D01*
X153880765Y-82912572D01*
X153874804Y-82888773D01*
X153871204Y-82864505D01*
X153870000Y-82840001D01*
X153870000Y-81939999D01*
X153871204Y-81915495D01*
X153874804Y-81891227D01*
X153880765Y-81867428D01*
X153889030Y-81844329D01*
X153899520Y-81822150D01*
X153912132Y-81801107D01*
X153926747Y-81781401D01*
X153943223Y-81763223D01*
X153961401Y-81746747D01*
X153981107Y-81732132D01*
X154002150Y-81719520D01*
X154024329Y-81709030D01*
X154047428Y-81700765D01*
X154071227Y-81694804D01*
X154095495Y-81691204D01*
X154119999Y-81690000D01*
X154770001Y-81690000D01*
X154794505Y-81691204D01*
X154794505Y-81691204D01*
G37*
D18*
X154445000Y-82390000D03*
D16*
G36*
X156844505Y-81691204D02*
G01*
X156868773Y-81694804D01*
X156892572Y-81700765D01*
X156915671Y-81709030D01*
X156937850Y-81719520D01*
X156958893Y-81732132D01*
X156978599Y-81746747D01*
X156996777Y-81763223D01*
X157013253Y-81781401D01*
X157027868Y-81801107D01*
X157040480Y-81822150D01*
X157050970Y-81844329D01*
X157059235Y-81867428D01*
X157065196Y-81891227D01*
X157068796Y-81915495D01*
X157070000Y-81939999D01*
X157070000Y-82840001D01*
X157068796Y-82864505D01*
X157065196Y-82888773D01*
X157059235Y-82912572D01*
X157050970Y-82935671D01*
X157040480Y-82957850D01*
X157027868Y-82978893D01*
X157013253Y-82998599D01*
X156996777Y-83016777D01*
X156978599Y-83033253D01*
X156958893Y-83047868D01*
X156937850Y-83060480D01*
X156915671Y-83070970D01*
X156892572Y-83079235D01*
X156868773Y-83085196D01*
X156844505Y-83088796D01*
X156820001Y-83090000D01*
X156169999Y-83090000D01*
X156145495Y-83088796D01*
X156121227Y-83085196D01*
X156097428Y-83079235D01*
X156074329Y-83070970D01*
X156052150Y-83060480D01*
X156031107Y-83047868D01*
X156011401Y-83033253D01*
X155993223Y-83016777D01*
X155976747Y-82998599D01*
X155962132Y-82978893D01*
X155949520Y-82957850D01*
X155939030Y-82935671D01*
X155930765Y-82912572D01*
X155924804Y-82888773D01*
X155921204Y-82864505D01*
X155920000Y-82840001D01*
X155920000Y-81939999D01*
X155921204Y-81915495D01*
X155924804Y-81891227D01*
X155930765Y-81867428D01*
X155939030Y-81844329D01*
X155949520Y-81822150D01*
X155962132Y-81801107D01*
X155976747Y-81781401D01*
X155993223Y-81763223D01*
X156011401Y-81746747D01*
X156031107Y-81732132D01*
X156052150Y-81719520D01*
X156074329Y-81709030D01*
X156097428Y-81700765D01*
X156121227Y-81694804D01*
X156145495Y-81691204D01*
X156169999Y-81690000D01*
X156820001Y-81690000D01*
X156844505Y-81691204D01*
X156844505Y-81691204D01*
G37*
D18*
X156495000Y-82390000D03*
D16*
G36*
X118118505Y-78008204D02*
G01*
X118142773Y-78011804D01*
X118166572Y-78017765D01*
X118189671Y-78026030D01*
X118211850Y-78036520D01*
X118232893Y-78049132D01*
X118252599Y-78063747D01*
X118270777Y-78080223D01*
X118287253Y-78098401D01*
X118301868Y-78118107D01*
X118314480Y-78139150D01*
X118324970Y-78161329D01*
X118333235Y-78184428D01*
X118339196Y-78208227D01*
X118342796Y-78232495D01*
X118344000Y-78256999D01*
X118344000Y-79157001D01*
X118342796Y-79181505D01*
X118339196Y-79205773D01*
X118333235Y-79229572D01*
X118324970Y-79252671D01*
X118314480Y-79274850D01*
X118301868Y-79295893D01*
X118287253Y-79315599D01*
X118270777Y-79333777D01*
X118252599Y-79350253D01*
X118232893Y-79364868D01*
X118211850Y-79377480D01*
X118189671Y-79387970D01*
X118166572Y-79396235D01*
X118142773Y-79402196D01*
X118118505Y-79405796D01*
X118094001Y-79407000D01*
X117443999Y-79407000D01*
X117419495Y-79405796D01*
X117395227Y-79402196D01*
X117371428Y-79396235D01*
X117348329Y-79387970D01*
X117326150Y-79377480D01*
X117305107Y-79364868D01*
X117285401Y-79350253D01*
X117267223Y-79333777D01*
X117250747Y-79315599D01*
X117236132Y-79295893D01*
X117223520Y-79274850D01*
X117213030Y-79252671D01*
X117204765Y-79229572D01*
X117198804Y-79205773D01*
X117195204Y-79181505D01*
X117194000Y-79157001D01*
X117194000Y-78256999D01*
X117195204Y-78232495D01*
X117198804Y-78208227D01*
X117204765Y-78184428D01*
X117213030Y-78161329D01*
X117223520Y-78139150D01*
X117236132Y-78118107D01*
X117250747Y-78098401D01*
X117267223Y-78080223D01*
X117285401Y-78063747D01*
X117305107Y-78049132D01*
X117326150Y-78036520D01*
X117348329Y-78026030D01*
X117371428Y-78017765D01*
X117395227Y-78011804D01*
X117419495Y-78008204D01*
X117443999Y-78007000D01*
X118094001Y-78007000D01*
X118118505Y-78008204D01*
X118118505Y-78008204D01*
G37*
D18*
X117769000Y-78707000D03*
D16*
G36*
X116068505Y-78008204D02*
G01*
X116092773Y-78011804D01*
X116116572Y-78017765D01*
X116139671Y-78026030D01*
X116161850Y-78036520D01*
X116182893Y-78049132D01*
X116202599Y-78063747D01*
X116220777Y-78080223D01*
X116237253Y-78098401D01*
X116251868Y-78118107D01*
X116264480Y-78139150D01*
X116274970Y-78161329D01*
X116283235Y-78184428D01*
X116289196Y-78208227D01*
X116292796Y-78232495D01*
X116294000Y-78256999D01*
X116294000Y-79157001D01*
X116292796Y-79181505D01*
X116289196Y-79205773D01*
X116283235Y-79229572D01*
X116274970Y-79252671D01*
X116264480Y-79274850D01*
X116251868Y-79295893D01*
X116237253Y-79315599D01*
X116220777Y-79333777D01*
X116202599Y-79350253D01*
X116182893Y-79364868D01*
X116161850Y-79377480D01*
X116139671Y-79387970D01*
X116116572Y-79396235D01*
X116092773Y-79402196D01*
X116068505Y-79405796D01*
X116044001Y-79407000D01*
X115393999Y-79407000D01*
X115369495Y-79405796D01*
X115345227Y-79402196D01*
X115321428Y-79396235D01*
X115298329Y-79387970D01*
X115276150Y-79377480D01*
X115255107Y-79364868D01*
X115235401Y-79350253D01*
X115217223Y-79333777D01*
X115200747Y-79315599D01*
X115186132Y-79295893D01*
X115173520Y-79274850D01*
X115163030Y-79252671D01*
X115154765Y-79229572D01*
X115148804Y-79205773D01*
X115145204Y-79181505D01*
X115144000Y-79157001D01*
X115144000Y-78256999D01*
X115145204Y-78232495D01*
X115148804Y-78208227D01*
X115154765Y-78184428D01*
X115163030Y-78161329D01*
X115173520Y-78139150D01*
X115186132Y-78118107D01*
X115200747Y-78098401D01*
X115217223Y-78080223D01*
X115235401Y-78063747D01*
X115255107Y-78049132D01*
X115276150Y-78036520D01*
X115298329Y-78026030D01*
X115321428Y-78017765D01*
X115345227Y-78011804D01*
X115369495Y-78008204D01*
X115393999Y-78007000D01*
X116044001Y-78007000D01*
X116068505Y-78008204D01*
X116068505Y-78008204D01*
G37*
D18*
X115719000Y-78707000D03*
D16*
G36*
X159874505Y-77881204D02*
G01*
X159898773Y-77884804D01*
X159922572Y-77890765D01*
X159945671Y-77899030D01*
X159967850Y-77909520D01*
X159988893Y-77922132D01*
X160008599Y-77936747D01*
X160026777Y-77953223D01*
X160043253Y-77971401D01*
X160057868Y-77991107D01*
X160070480Y-78012150D01*
X160080970Y-78034329D01*
X160089235Y-78057428D01*
X160095196Y-78081227D01*
X160098796Y-78105495D01*
X160100000Y-78129999D01*
X160100000Y-79030001D01*
X160098796Y-79054505D01*
X160095196Y-79078773D01*
X160089235Y-79102572D01*
X160080970Y-79125671D01*
X160070480Y-79147850D01*
X160057868Y-79168893D01*
X160043253Y-79188599D01*
X160026777Y-79206777D01*
X160008599Y-79223253D01*
X159988893Y-79237868D01*
X159967850Y-79250480D01*
X159945671Y-79260970D01*
X159922572Y-79269235D01*
X159898773Y-79275196D01*
X159874505Y-79278796D01*
X159850001Y-79280000D01*
X159199999Y-79280000D01*
X159175495Y-79278796D01*
X159151227Y-79275196D01*
X159127428Y-79269235D01*
X159104329Y-79260970D01*
X159082150Y-79250480D01*
X159061107Y-79237868D01*
X159041401Y-79223253D01*
X159023223Y-79206777D01*
X159006747Y-79188599D01*
X158992132Y-79168893D01*
X158979520Y-79147850D01*
X158969030Y-79125671D01*
X158960765Y-79102572D01*
X158954804Y-79078773D01*
X158951204Y-79054505D01*
X158950000Y-79030001D01*
X158950000Y-78129999D01*
X158951204Y-78105495D01*
X158954804Y-78081227D01*
X158960765Y-78057428D01*
X158969030Y-78034329D01*
X158979520Y-78012150D01*
X158992132Y-77991107D01*
X159006747Y-77971401D01*
X159023223Y-77953223D01*
X159041401Y-77936747D01*
X159061107Y-77922132D01*
X159082150Y-77909520D01*
X159104329Y-77899030D01*
X159127428Y-77890765D01*
X159151227Y-77884804D01*
X159175495Y-77881204D01*
X159199999Y-77880000D01*
X159850001Y-77880000D01*
X159874505Y-77881204D01*
X159874505Y-77881204D01*
G37*
D18*
X159525000Y-78580000D03*
D16*
G36*
X161924505Y-77881204D02*
G01*
X161948773Y-77884804D01*
X161972572Y-77890765D01*
X161995671Y-77899030D01*
X162017850Y-77909520D01*
X162038893Y-77922132D01*
X162058599Y-77936747D01*
X162076777Y-77953223D01*
X162093253Y-77971401D01*
X162107868Y-77991107D01*
X162120480Y-78012150D01*
X162130970Y-78034329D01*
X162139235Y-78057428D01*
X162145196Y-78081227D01*
X162148796Y-78105495D01*
X162150000Y-78129999D01*
X162150000Y-79030001D01*
X162148796Y-79054505D01*
X162145196Y-79078773D01*
X162139235Y-79102572D01*
X162130970Y-79125671D01*
X162120480Y-79147850D01*
X162107868Y-79168893D01*
X162093253Y-79188599D01*
X162076777Y-79206777D01*
X162058599Y-79223253D01*
X162038893Y-79237868D01*
X162017850Y-79250480D01*
X161995671Y-79260970D01*
X161972572Y-79269235D01*
X161948773Y-79275196D01*
X161924505Y-79278796D01*
X161900001Y-79280000D01*
X161249999Y-79280000D01*
X161225495Y-79278796D01*
X161201227Y-79275196D01*
X161177428Y-79269235D01*
X161154329Y-79260970D01*
X161132150Y-79250480D01*
X161111107Y-79237868D01*
X161091401Y-79223253D01*
X161073223Y-79206777D01*
X161056747Y-79188599D01*
X161042132Y-79168893D01*
X161029520Y-79147850D01*
X161019030Y-79125671D01*
X161010765Y-79102572D01*
X161004804Y-79078773D01*
X161001204Y-79054505D01*
X161000000Y-79030001D01*
X161000000Y-78129999D01*
X161001204Y-78105495D01*
X161004804Y-78081227D01*
X161010765Y-78057428D01*
X161019030Y-78034329D01*
X161029520Y-78012150D01*
X161042132Y-77991107D01*
X161056747Y-77971401D01*
X161073223Y-77953223D01*
X161091401Y-77936747D01*
X161111107Y-77922132D01*
X161132150Y-77909520D01*
X161154329Y-77899030D01*
X161177428Y-77890765D01*
X161201227Y-77884804D01*
X161225495Y-77881204D01*
X161249999Y-77880000D01*
X161900001Y-77880000D01*
X161924505Y-77881204D01*
X161924505Y-77881204D01*
G37*
D18*
X161575000Y-78580000D03*
D16*
G36*
X163439505Y-93121204D02*
G01*
X163463773Y-93124804D01*
X163487572Y-93130765D01*
X163510671Y-93139030D01*
X163532850Y-93149520D01*
X163553893Y-93162132D01*
X163573599Y-93176747D01*
X163591777Y-93193223D01*
X163608253Y-93211401D01*
X163622868Y-93231107D01*
X163635480Y-93252150D01*
X163645970Y-93274329D01*
X163654235Y-93297428D01*
X163660196Y-93321227D01*
X163663796Y-93345495D01*
X163665000Y-93369999D01*
X163665000Y-94270001D01*
X163663796Y-94294505D01*
X163660196Y-94318773D01*
X163654235Y-94342572D01*
X163645970Y-94365671D01*
X163635480Y-94387850D01*
X163622868Y-94408893D01*
X163608253Y-94428599D01*
X163591777Y-94446777D01*
X163573599Y-94463253D01*
X163553893Y-94477868D01*
X163532850Y-94490480D01*
X163510671Y-94500970D01*
X163487572Y-94509235D01*
X163463773Y-94515196D01*
X163439505Y-94518796D01*
X163415001Y-94520000D01*
X162764999Y-94520000D01*
X162740495Y-94518796D01*
X162716227Y-94515196D01*
X162692428Y-94509235D01*
X162669329Y-94500970D01*
X162647150Y-94490480D01*
X162626107Y-94477868D01*
X162606401Y-94463253D01*
X162588223Y-94446777D01*
X162571747Y-94428599D01*
X162557132Y-94408893D01*
X162544520Y-94387850D01*
X162534030Y-94365671D01*
X162525765Y-94342572D01*
X162519804Y-94318773D01*
X162516204Y-94294505D01*
X162515000Y-94270001D01*
X162515000Y-93369999D01*
X162516204Y-93345495D01*
X162519804Y-93321227D01*
X162525765Y-93297428D01*
X162534030Y-93274329D01*
X162544520Y-93252150D01*
X162557132Y-93231107D01*
X162571747Y-93211401D01*
X162588223Y-93193223D01*
X162606401Y-93176747D01*
X162626107Y-93162132D01*
X162647150Y-93149520D01*
X162669329Y-93139030D01*
X162692428Y-93130765D01*
X162716227Y-93124804D01*
X162740495Y-93121204D01*
X162764999Y-93120000D01*
X163415001Y-93120000D01*
X163439505Y-93121204D01*
X163439505Y-93121204D01*
G37*
D18*
X163090000Y-93820000D03*
D16*
G36*
X165489505Y-93121204D02*
G01*
X165513773Y-93124804D01*
X165537572Y-93130765D01*
X165560671Y-93139030D01*
X165582850Y-93149520D01*
X165603893Y-93162132D01*
X165623599Y-93176747D01*
X165641777Y-93193223D01*
X165658253Y-93211401D01*
X165672868Y-93231107D01*
X165685480Y-93252150D01*
X165695970Y-93274329D01*
X165704235Y-93297428D01*
X165710196Y-93321227D01*
X165713796Y-93345495D01*
X165715000Y-93369999D01*
X165715000Y-94270001D01*
X165713796Y-94294505D01*
X165710196Y-94318773D01*
X165704235Y-94342572D01*
X165695970Y-94365671D01*
X165685480Y-94387850D01*
X165672868Y-94408893D01*
X165658253Y-94428599D01*
X165641777Y-94446777D01*
X165623599Y-94463253D01*
X165603893Y-94477868D01*
X165582850Y-94490480D01*
X165560671Y-94500970D01*
X165537572Y-94509235D01*
X165513773Y-94515196D01*
X165489505Y-94518796D01*
X165465001Y-94520000D01*
X164814999Y-94520000D01*
X164790495Y-94518796D01*
X164766227Y-94515196D01*
X164742428Y-94509235D01*
X164719329Y-94500970D01*
X164697150Y-94490480D01*
X164676107Y-94477868D01*
X164656401Y-94463253D01*
X164638223Y-94446777D01*
X164621747Y-94428599D01*
X164607132Y-94408893D01*
X164594520Y-94387850D01*
X164584030Y-94365671D01*
X164575765Y-94342572D01*
X164569804Y-94318773D01*
X164566204Y-94294505D01*
X164565000Y-94270001D01*
X164565000Y-93369999D01*
X164566204Y-93345495D01*
X164569804Y-93321227D01*
X164575765Y-93297428D01*
X164584030Y-93274329D01*
X164594520Y-93252150D01*
X164607132Y-93231107D01*
X164621747Y-93211401D01*
X164638223Y-93193223D01*
X164656401Y-93176747D01*
X164676107Y-93162132D01*
X164697150Y-93149520D01*
X164719329Y-93139030D01*
X164742428Y-93130765D01*
X164766227Y-93124804D01*
X164790495Y-93121204D01*
X164814999Y-93120000D01*
X165465001Y-93120000D01*
X165489505Y-93121204D01*
X165489505Y-93121204D01*
G37*
D18*
X165140000Y-93820000D03*
D16*
G36*
X127616505Y-76611204D02*
G01*
X127640773Y-76614804D01*
X127664572Y-76620765D01*
X127687671Y-76629030D01*
X127709850Y-76639520D01*
X127730893Y-76652132D01*
X127750599Y-76666747D01*
X127768777Y-76683223D01*
X127785253Y-76701401D01*
X127799868Y-76721107D01*
X127812480Y-76742150D01*
X127822970Y-76764329D01*
X127831235Y-76787428D01*
X127837196Y-76811227D01*
X127840796Y-76835495D01*
X127842000Y-76859999D01*
X127842000Y-77760001D01*
X127840796Y-77784505D01*
X127837196Y-77808773D01*
X127831235Y-77832572D01*
X127822970Y-77855671D01*
X127812480Y-77877850D01*
X127799868Y-77898893D01*
X127785253Y-77918599D01*
X127768777Y-77936777D01*
X127750599Y-77953253D01*
X127730893Y-77967868D01*
X127709850Y-77980480D01*
X127687671Y-77990970D01*
X127664572Y-77999235D01*
X127640773Y-78005196D01*
X127616505Y-78008796D01*
X127592001Y-78010000D01*
X126941999Y-78010000D01*
X126917495Y-78008796D01*
X126893227Y-78005196D01*
X126869428Y-77999235D01*
X126846329Y-77990970D01*
X126824150Y-77980480D01*
X126803107Y-77967868D01*
X126783401Y-77953253D01*
X126765223Y-77936777D01*
X126748747Y-77918599D01*
X126734132Y-77898893D01*
X126721520Y-77877850D01*
X126711030Y-77855671D01*
X126702765Y-77832572D01*
X126696804Y-77808773D01*
X126693204Y-77784505D01*
X126692000Y-77760001D01*
X126692000Y-76859999D01*
X126693204Y-76835495D01*
X126696804Y-76811227D01*
X126702765Y-76787428D01*
X126711030Y-76764329D01*
X126721520Y-76742150D01*
X126734132Y-76721107D01*
X126748747Y-76701401D01*
X126765223Y-76683223D01*
X126783401Y-76666747D01*
X126803107Y-76652132D01*
X126824150Y-76639520D01*
X126846329Y-76629030D01*
X126869428Y-76620765D01*
X126893227Y-76614804D01*
X126917495Y-76611204D01*
X126941999Y-76610000D01*
X127592001Y-76610000D01*
X127616505Y-76611204D01*
X127616505Y-76611204D01*
G37*
D18*
X127267000Y-77310000D03*
D16*
G36*
X129666505Y-76611204D02*
G01*
X129690773Y-76614804D01*
X129714572Y-76620765D01*
X129737671Y-76629030D01*
X129759850Y-76639520D01*
X129780893Y-76652132D01*
X129800599Y-76666747D01*
X129818777Y-76683223D01*
X129835253Y-76701401D01*
X129849868Y-76721107D01*
X129862480Y-76742150D01*
X129872970Y-76764329D01*
X129881235Y-76787428D01*
X129887196Y-76811227D01*
X129890796Y-76835495D01*
X129892000Y-76859999D01*
X129892000Y-77760001D01*
X129890796Y-77784505D01*
X129887196Y-77808773D01*
X129881235Y-77832572D01*
X129872970Y-77855671D01*
X129862480Y-77877850D01*
X129849868Y-77898893D01*
X129835253Y-77918599D01*
X129818777Y-77936777D01*
X129800599Y-77953253D01*
X129780893Y-77967868D01*
X129759850Y-77980480D01*
X129737671Y-77990970D01*
X129714572Y-77999235D01*
X129690773Y-78005196D01*
X129666505Y-78008796D01*
X129642001Y-78010000D01*
X128991999Y-78010000D01*
X128967495Y-78008796D01*
X128943227Y-78005196D01*
X128919428Y-77999235D01*
X128896329Y-77990970D01*
X128874150Y-77980480D01*
X128853107Y-77967868D01*
X128833401Y-77953253D01*
X128815223Y-77936777D01*
X128798747Y-77918599D01*
X128784132Y-77898893D01*
X128771520Y-77877850D01*
X128761030Y-77855671D01*
X128752765Y-77832572D01*
X128746804Y-77808773D01*
X128743204Y-77784505D01*
X128742000Y-77760001D01*
X128742000Y-76859999D01*
X128743204Y-76835495D01*
X128746804Y-76811227D01*
X128752765Y-76787428D01*
X128761030Y-76764329D01*
X128771520Y-76742150D01*
X128784132Y-76721107D01*
X128798747Y-76701401D01*
X128815223Y-76683223D01*
X128833401Y-76666747D01*
X128853107Y-76652132D01*
X128874150Y-76639520D01*
X128896329Y-76629030D01*
X128919428Y-76620765D01*
X128943227Y-76614804D01*
X128967495Y-76611204D01*
X128991999Y-76610000D01*
X129642001Y-76610000D01*
X129666505Y-76611204D01*
X129666505Y-76611204D01*
G37*
D18*
X129317000Y-77310000D03*
D21*
X154030000Y-71250000D03*
X154030000Y-75750000D03*
X161990000Y-75750000D03*
X161990000Y-71250000D03*
X161990000Y-85220000D03*
X161990000Y-89720000D03*
X154030000Y-89720000D03*
X154030000Y-85220000D03*
D16*
G36*
X95119505Y-67745204D02*
G01*
X95143773Y-67748804D01*
X95167572Y-67754765D01*
X95190671Y-67763030D01*
X95212850Y-67773520D01*
X95233893Y-67786132D01*
X95253599Y-67800747D01*
X95271777Y-67817223D01*
X95288253Y-67835401D01*
X95302868Y-67855107D01*
X95315480Y-67876150D01*
X95325970Y-67898329D01*
X95334235Y-67921428D01*
X95340196Y-67945227D01*
X95343796Y-67969495D01*
X95345000Y-67993999D01*
X95345000Y-68644001D01*
X95343796Y-68668505D01*
X95340196Y-68692773D01*
X95334235Y-68716572D01*
X95325970Y-68739671D01*
X95315480Y-68761850D01*
X95302868Y-68782893D01*
X95288253Y-68802599D01*
X95271777Y-68820777D01*
X95253599Y-68837253D01*
X95233893Y-68851868D01*
X95212850Y-68864480D01*
X95190671Y-68874970D01*
X95167572Y-68883235D01*
X95143773Y-68889196D01*
X95119505Y-68892796D01*
X95095001Y-68894000D01*
X94194999Y-68894000D01*
X94170495Y-68892796D01*
X94146227Y-68889196D01*
X94122428Y-68883235D01*
X94099329Y-68874970D01*
X94077150Y-68864480D01*
X94056107Y-68851868D01*
X94036401Y-68837253D01*
X94018223Y-68820777D01*
X94001747Y-68802599D01*
X93987132Y-68782893D01*
X93974520Y-68761850D01*
X93964030Y-68739671D01*
X93955765Y-68716572D01*
X93949804Y-68692773D01*
X93946204Y-68668505D01*
X93945000Y-68644001D01*
X93945000Y-67993999D01*
X93946204Y-67969495D01*
X93949804Y-67945227D01*
X93955765Y-67921428D01*
X93964030Y-67898329D01*
X93974520Y-67876150D01*
X93987132Y-67855107D01*
X94001747Y-67835401D01*
X94018223Y-67817223D01*
X94036401Y-67800747D01*
X94056107Y-67786132D01*
X94077150Y-67773520D01*
X94099329Y-67763030D01*
X94122428Y-67754765D01*
X94146227Y-67748804D01*
X94170495Y-67745204D01*
X94194999Y-67744000D01*
X95095001Y-67744000D01*
X95119505Y-67745204D01*
X95119505Y-67745204D01*
G37*
D18*
X94645000Y-68319000D03*
D16*
G36*
X95119505Y-69795204D02*
G01*
X95143773Y-69798804D01*
X95167572Y-69804765D01*
X95190671Y-69813030D01*
X95212850Y-69823520D01*
X95233893Y-69836132D01*
X95253599Y-69850747D01*
X95271777Y-69867223D01*
X95288253Y-69885401D01*
X95302868Y-69905107D01*
X95315480Y-69926150D01*
X95325970Y-69948329D01*
X95334235Y-69971428D01*
X95340196Y-69995227D01*
X95343796Y-70019495D01*
X95345000Y-70043999D01*
X95345000Y-70694001D01*
X95343796Y-70718505D01*
X95340196Y-70742773D01*
X95334235Y-70766572D01*
X95325970Y-70789671D01*
X95315480Y-70811850D01*
X95302868Y-70832893D01*
X95288253Y-70852599D01*
X95271777Y-70870777D01*
X95253599Y-70887253D01*
X95233893Y-70901868D01*
X95212850Y-70914480D01*
X95190671Y-70924970D01*
X95167572Y-70933235D01*
X95143773Y-70939196D01*
X95119505Y-70942796D01*
X95095001Y-70944000D01*
X94194999Y-70944000D01*
X94170495Y-70942796D01*
X94146227Y-70939196D01*
X94122428Y-70933235D01*
X94099329Y-70924970D01*
X94077150Y-70914480D01*
X94056107Y-70901868D01*
X94036401Y-70887253D01*
X94018223Y-70870777D01*
X94001747Y-70852599D01*
X93987132Y-70832893D01*
X93974520Y-70811850D01*
X93964030Y-70789671D01*
X93955765Y-70766572D01*
X93949804Y-70742773D01*
X93946204Y-70718505D01*
X93945000Y-70694001D01*
X93945000Y-70043999D01*
X93946204Y-70019495D01*
X93949804Y-69995227D01*
X93955765Y-69971428D01*
X93964030Y-69948329D01*
X93974520Y-69926150D01*
X93987132Y-69905107D01*
X94001747Y-69885401D01*
X94018223Y-69867223D01*
X94036401Y-69850747D01*
X94056107Y-69836132D01*
X94077150Y-69823520D01*
X94099329Y-69813030D01*
X94122428Y-69804765D01*
X94146227Y-69798804D01*
X94170495Y-69795204D01*
X94194999Y-69794000D01*
X95095001Y-69794000D01*
X95119505Y-69795204D01*
X95119505Y-69795204D01*
G37*
D18*
X94645000Y-70369000D03*
D16*
G36*
X127616505Y-70261204D02*
G01*
X127640773Y-70264804D01*
X127664572Y-70270765D01*
X127687671Y-70279030D01*
X127709850Y-70289520D01*
X127730893Y-70302132D01*
X127750599Y-70316747D01*
X127768777Y-70333223D01*
X127785253Y-70351401D01*
X127799868Y-70371107D01*
X127812480Y-70392150D01*
X127822970Y-70414329D01*
X127831235Y-70437428D01*
X127837196Y-70461227D01*
X127840796Y-70485495D01*
X127842000Y-70509999D01*
X127842000Y-71410001D01*
X127840796Y-71434505D01*
X127837196Y-71458773D01*
X127831235Y-71482572D01*
X127822970Y-71505671D01*
X127812480Y-71527850D01*
X127799868Y-71548893D01*
X127785253Y-71568599D01*
X127768777Y-71586777D01*
X127750599Y-71603253D01*
X127730893Y-71617868D01*
X127709850Y-71630480D01*
X127687671Y-71640970D01*
X127664572Y-71649235D01*
X127640773Y-71655196D01*
X127616505Y-71658796D01*
X127592001Y-71660000D01*
X126941999Y-71660000D01*
X126917495Y-71658796D01*
X126893227Y-71655196D01*
X126869428Y-71649235D01*
X126846329Y-71640970D01*
X126824150Y-71630480D01*
X126803107Y-71617868D01*
X126783401Y-71603253D01*
X126765223Y-71586777D01*
X126748747Y-71568599D01*
X126734132Y-71548893D01*
X126721520Y-71527850D01*
X126711030Y-71505671D01*
X126702765Y-71482572D01*
X126696804Y-71458773D01*
X126693204Y-71434505D01*
X126692000Y-71410001D01*
X126692000Y-70509999D01*
X126693204Y-70485495D01*
X126696804Y-70461227D01*
X126702765Y-70437428D01*
X126711030Y-70414329D01*
X126721520Y-70392150D01*
X126734132Y-70371107D01*
X126748747Y-70351401D01*
X126765223Y-70333223D01*
X126783401Y-70316747D01*
X126803107Y-70302132D01*
X126824150Y-70289520D01*
X126846329Y-70279030D01*
X126869428Y-70270765D01*
X126893227Y-70264804D01*
X126917495Y-70261204D01*
X126941999Y-70260000D01*
X127592001Y-70260000D01*
X127616505Y-70261204D01*
X127616505Y-70261204D01*
G37*
D18*
X127267000Y-70960000D03*
D16*
G36*
X129666505Y-70261204D02*
G01*
X129690773Y-70264804D01*
X129714572Y-70270765D01*
X129737671Y-70279030D01*
X129759850Y-70289520D01*
X129780893Y-70302132D01*
X129800599Y-70316747D01*
X129818777Y-70333223D01*
X129835253Y-70351401D01*
X129849868Y-70371107D01*
X129862480Y-70392150D01*
X129872970Y-70414329D01*
X129881235Y-70437428D01*
X129887196Y-70461227D01*
X129890796Y-70485495D01*
X129892000Y-70509999D01*
X129892000Y-71410001D01*
X129890796Y-71434505D01*
X129887196Y-71458773D01*
X129881235Y-71482572D01*
X129872970Y-71505671D01*
X129862480Y-71527850D01*
X129849868Y-71548893D01*
X129835253Y-71568599D01*
X129818777Y-71586777D01*
X129800599Y-71603253D01*
X129780893Y-71617868D01*
X129759850Y-71630480D01*
X129737671Y-71640970D01*
X129714572Y-71649235D01*
X129690773Y-71655196D01*
X129666505Y-71658796D01*
X129642001Y-71660000D01*
X128991999Y-71660000D01*
X128967495Y-71658796D01*
X128943227Y-71655196D01*
X128919428Y-71649235D01*
X128896329Y-71640970D01*
X128874150Y-71630480D01*
X128853107Y-71617868D01*
X128833401Y-71603253D01*
X128815223Y-71586777D01*
X128798747Y-71568599D01*
X128784132Y-71548893D01*
X128771520Y-71527850D01*
X128761030Y-71505671D01*
X128752765Y-71482572D01*
X128746804Y-71458773D01*
X128743204Y-71434505D01*
X128742000Y-71410001D01*
X128742000Y-70509999D01*
X128743204Y-70485495D01*
X128746804Y-70461227D01*
X128752765Y-70437428D01*
X128761030Y-70414329D01*
X128771520Y-70392150D01*
X128784132Y-70371107D01*
X128798747Y-70351401D01*
X128815223Y-70333223D01*
X128833401Y-70316747D01*
X128853107Y-70302132D01*
X128874150Y-70289520D01*
X128896329Y-70279030D01*
X128919428Y-70270765D01*
X128943227Y-70264804D01*
X128967495Y-70261204D01*
X128991999Y-70260000D01*
X129642001Y-70260000D01*
X129666505Y-70261204D01*
X129666505Y-70261204D01*
G37*
D18*
X129317000Y-70960000D03*
D16*
G36*
X97014703Y-74289722D02*
G01*
X97029264Y-74291882D01*
X97043543Y-74295459D01*
X97057403Y-74300418D01*
X97070710Y-74306712D01*
X97083336Y-74314280D01*
X97095159Y-74323048D01*
X97106066Y-74332934D01*
X97115952Y-74343841D01*
X97124720Y-74355664D01*
X97132288Y-74368290D01*
X97138582Y-74381597D01*
X97143541Y-74395457D01*
X97147118Y-74409736D01*
X97149278Y-74424297D01*
X97150000Y-74439000D01*
X97150000Y-75109000D01*
X97149278Y-75123703D01*
X97147118Y-75138264D01*
X97143541Y-75152543D01*
X97138582Y-75166403D01*
X97132288Y-75179710D01*
X97124720Y-75192336D01*
X97115952Y-75204159D01*
X97106066Y-75215066D01*
X97095159Y-75224952D01*
X97083336Y-75233720D01*
X97070710Y-75241288D01*
X97057403Y-75247582D01*
X97043543Y-75252541D01*
X97029264Y-75256118D01*
X97014703Y-75258278D01*
X97000000Y-75259000D01*
X96700000Y-75259000D01*
X96685297Y-75258278D01*
X96670736Y-75256118D01*
X96656457Y-75252541D01*
X96642597Y-75247582D01*
X96629290Y-75241288D01*
X96616664Y-75233720D01*
X96604841Y-75224952D01*
X96593934Y-75215066D01*
X96584048Y-75204159D01*
X96575280Y-75192336D01*
X96567712Y-75179710D01*
X96561418Y-75166403D01*
X96556459Y-75152543D01*
X96552882Y-75138264D01*
X96550722Y-75123703D01*
X96550000Y-75109000D01*
X96550000Y-74439000D01*
X96550722Y-74424297D01*
X96552882Y-74409736D01*
X96556459Y-74395457D01*
X96561418Y-74381597D01*
X96567712Y-74368290D01*
X96575280Y-74355664D01*
X96584048Y-74343841D01*
X96593934Y-74332934D01*
X96604841Y-74323048D01*
X96616664Y-74314280D01*
X96629290Y-74306712D01*
X96642597Y-74300418D01*
X96656457Y-74295459D01*
X96670736Y-74291882D01*
X96685297Y-74289722D01*
X96700000Y-74289000D01*
X97000000Y-74289000D01*
X97014703Y-74289722D01*
X97014703Y-74289722D01*
G37*
D22*
X96850000Y-74774000D03*
D16*
G36*
X97014703Y-75489722D02*
G01*
X97029264Y-75491882D01*
X97043543Y-75495459D01*
X97057403Y-75500418D01*
X97070710Y-75506712D01*
X97083336Y-75514280D01*
X97095159Y-75523048D01*
X97106066Y-75532934D01*
X97115952Y-75543841D01*
X97124720Y-75555664D01*
X97132288Y-75568290D01*
X97138582Y-75581597D01*
X97143541Y-75595457D01*
X97147118Y-75609736D01*
X97149278Y-75624297D01*
X97150000Y-75639000D01*
X97150000Y-76309000D01*
X97149278Y-76323703D01*
X97147118Y-76338264D01*
X97143541Y-76352543D01*
X97138582Y-76366403D01*
X97132288Y-76379710D01*
X97124720Y-76392336D01*
X97115952Y-76404159D01*
X97106066Y-76415066D01*
X97095159Y-76424952D01*
X97083336Y-76433720D01*
X97070710Y-76441288D01*
X97057403Y-76447582D01*
X97043543Y-76452541D01*
X97029264Y-76456118D01*
X97014703Y-76458278D01*
X97000000Y-76459000D01*
X96700000Y-76459000D01*
X96685297Y-76458278D01*
X96670736Y-76456118D01*
X96656457Y-76452541D01*
X96642597Y-76447582D01*
X96629290Y-76441288D01*
X96616664Y-76433720D01*
X96604841Y-76424952D01*
X96593934Y-76415066D01*
X96584048Y-76404159D01*
X96575280Y-76392336D01*
X96567712Y-76379710D01*
X96561418Y-76366403D01*
X96556459Y-76352543D01*
X96552882Y-76338264D01*
X96550722Y-76323703D01*
X96550000Y-76309000D01*
X96550000Y-75639000D01*
X96550722Y-75624297D01*
X96552882Y-75609736D01*
X96556459Y-75595457D01*
X96561418Y-75581597D01*
X96567712Y-75568290D01*
X96575280Y-75555664D01*
X96584048Y-75543841D01*
X96593934Y-75532934D01*
X96604841Y-75523048D01*
X96616664Y-75514280D01*
X96629290Y-75506712D01*
X96642597Y-75500418D01*
X96656457Y-75495459D01*
X96670736Y-75491882D01*
X96685297Y-75489722D01*
X96700000Y-75489000D01*
X97000000Y-75489000D01*
X97014703Y-75489722D01*
X97014703Y-75489722D01*
G37*
D22*
X96850000Y-75974000D03*
D16*
G36*
X97764703Y-74289722D02*
G01*
X97779264Y-74291882D01*
X97793543Y-74295459D01*
X97807403Y-74300418D01*
X97820710Y-74306712D01*
X97833336Y-74314280D01*
X97845159Y-74323048D01*
X97856066Y-74332934D01*
X97865952Y-74343841D01*
X97874720Y-74355664D01*
X97882288Y-74368290D01*
X97888582Y-74381597D01*
X97893541Y-74395457D01*
X97897118Y-74409736D01*
X97899278Y-74424297D01*
X97900000Y-74439000D01*
X97900000Y-75109000D01*
X97899278Y-75123703D01*
X97897118Y-75138264D01*
X97893541Y-75152543D01*
X97888582Y-75166403D01*
X97882288Y-75179710D01*
X97874720Y-75192336D01*
X97865952Y-75204159D01*
X97856066Y-75215066D01*
X97845159Y-75224952D01*
X97833336Y-75233720D01*
X97820710Y-75241288D01*
X97807403Y-75247582D01*
X97793543Y-75252541D01*
X97779264Y-75256118D01*
X97764703Y-75258278D01*
X97750000Y-75259000D01*
X97450000Y-75259000D01*
X97435297Y-75258278D01*
X97420736Y-75256118D01*
X97406457Y-75252541D01*
X97392597Y-75247582D01*
X97379290Y-75241288D01*
X97366664Y-75233720D01*
X97354841Y-75224952D01*
X97343934Y-75215066D01*
X97334048Y-75204159D01*
X97325280Y-75192336D01*
X97317712Y-75179710D01*
X97311418Y-75166403D01*
X97306459Y-75152543D01*
X97302882Y-75138264D01*
X97300722Y-75123703D01*
X97300000Y-75109000D01*
X97300000Y-74439000D01*
X97300722Y-74424297D01*
X97302882Y-74409736D01*
X97306459Y-74395457D01*
X97311418Y-74381597D01*
X97317712Y-74368290D01*
X97325280Y-74355664D01*
X97334048Y-74343841D01*
X97343934Y-74332934D01*
X97354841Y-74323048D01*
X97366664Y-74314280D01*
X97379290Y-74306712D01*
X97392597Y-74300418D01*
X97406457Y-74295459D01*
X97420736Y-74291882D01*
X97435297Y-74289722D01*
X97450000Y-74289000D01*
X97750000Y-74289000D01*
X97764703Y-74289722D01*
X97764703Y-74289722D01*
G37*
D22*
X97600000Y-74774000D03*
D16*
G36*
X97764703Y-75489722D02*
G01*
X97779264Y-75491882D01*
X97793543Y-75495459D01*
X97807403Y-75500418D01*
X97820710Y-75506712D01*
X97833336Y-75514280D01*
X97845159Y-75523048D01*
X97856066Y-75532934D01*
X97865952Y-75543841D01*
X97874720Y-75555664D01*
X97882288Y-75568290D01*
X97888582Y-75581597D01*
X97893541Y-75595457D01*
X97897118Y-75609736D01*
X97899278Y-75624297D01*
X97900000Y-75639000D01*
X97900000Y-76309000D01*
X97899278Y-76323703D01*
X97897118Y-76338264D01*
X97893541Y-76352543D01*
X97888582Y-76366403D01*
X97882288Y-76379710D01*
X97874720Y-76392336D01*
X97865952Y-76404159D01*
X97856066Y-76415066D01*
X97845159Y-76424952D01*
X97833336Y-76433720D01*
X97820710Y-76441288D01*
X97807403Y-76447582D01*
X97793543Y-76452541D01*
X97779264Y-76456118D01*
X97764703Y-76458278D01*
X97750000Y-76459000D01*
X97450000Y-76459000D01*
X97435297Y-76458278D01*
X97420736Y-76456118D01*
X97406457Y-76452541D01*
X97392597Y-76447582D01*
X97379290Y-76441288D01*
X97366664Y-76433720D01*
X97354841Y-76424952D01*
X97343934Y-76415066D01*
X97334048Y-76404159D01*
X97325280Y-76392336D01*
X97317712Y-76379710D01*
X97311418Y-76366403D01*
X97306459Y-76352543D01*
X97302882Y-76338264D01*
X97300722Y-76323703D01*
X97300000Y-76309000D01*
X97300000Y-75639000D01*
X97300722Y-75624297D01*
X97302882Y-75609736D01*
X97306459Y-75595457D01*
X97311418Y-75581597D01*
X97317712Y-75568290D01*
X97325280Y-75555664D01*
X97334048Y-75543841D01*
X97343934Y-75532934D01*
X97354841Y-75523048D01*
X97366664Y-75514280D01*
X97379290Y-75506712D01*
X97392597Y-75500418D01*
X97406457Y-75495459D01*
X97420736Y-75491882D01*
X97435297Y-75489722D01*
X97450000Y-75489000D01*
X97750000Y-75489000D01*
X97764703Y-75489722D01*
X97764703Y-75489722D01*
G37*
D22*
X97600000Y-75974000D03*
D16*
G36*
X96084802Y-74174482D02*
G01*
X96094509Y-74175921D01*
X96104028Y-74178306D01*
X96113268Y-74181612D01*
X96122140Y-74185808D01*
X96130557Y-74190853D01*
X96138439Y-74196699D01*
X96145711Y-74203289D01*
X96152301Y-74210561D01*
X96158147Y-74218443D01*
X96163192Y-74226860D01*
X96167388Y-74235732D01*
X96170694Y-74244972D01*
X96173079Y-74254491D01*
X96174518Y-74264198D01*
X96175000Y-74274000D01*
X96175000Y-74474000D01*
X96174518Y-74483802D01*
X96173079Y-74493509D01*
X96170694Y-74503028D01*
X96167388Y-74512268D01*
X96163192Y-74521140D01*
X96158147Y-74529557D01*
X96152301Y-74537439D01*
X96145711Y-74544711D01*
X96138439Y-74551301D01*
X96130557Y-74557147D01*
X96122140Y-74562192D01*
X96113268Y-74566388D01*
X96104028Y-74569694D01*
X96094509Y-74572079D01*
X96084802Y-74573518D01*
X96075000Y-74574000D01*
X95475000Y-74574000D01*
X95465198Y-74573518D01*
X95455491Y-74572079D01*
X95445972Y-74569694D01*
X95436732Y-74566388D01*
X95427860Y-74562192D01*
X95419443Y-74557147D01*
X95411561Y-74551301D01*
X95404289Y-74544711D01*
X95397699Y-74537439D01*
X95391853Y-74529557D01*
X95386808Y-74521140D01*
X95382612Y-74512268D01*
X95379306Y-74503028D01*
X95376921Y-74493509D01*
X95375482Y-74483802D01*
X95375000Y-74474000D01*
X95375000Y-74274000D01*
X95375482Y-74264198D01*
X95376921Y-74254491D01*
X95379306Y-74244972D01*
X95382612Y-74235732D01*
X95386808Y-74226860D01*
X95391853Y-74218443D01*
X95397699Y-74210561D01*
X95404289Y-74203289D01*
X95411561Y-74196699D01*
X95419443Y-74190853D01*
X95427860Y-74185808D01*
X95436732Y-74181612D01*
X95445972Y-74178306D01*
X95455491Y-74175921D01*
X95465198Y-74174482D01*
X95475000Y-74174000D01*
X96075000Y-74174000D01*
X96084802Y-74174482D01*
X96084802Y-74174482D01*
G37*
D23*
X95775000Y-74374000D03*
D16*
G36*
X96084802Y-75174482D02*
G01*
X96094509Y-75175921D01*
X96104028Y-75178306D01*
X96113268Y-75181612D01*
X96122140Y-75185808D01*
X96130557Y-75190853D01*
X96138439Y-75196699D01*
X96145711Y-75203289D01*
X96152301Y-75210561D01*
X96158147Y-75218443D01*
X96163192Y-75226860D01*
X96167388Y-75235732D01*
X96170694Y-75244972D01*
X96173079Y-75254491D01*
X96174518Y-75264198D01*
X96175000Y-75274000D01*
X96175000Y-75474000D01*
X96174518Y-75483802D01*
X96173079Y-75493509D01*
X96170694Y-75503028D01*
X96167388Y-75512268D01*
X96163192Y-75521140D01*
X96158147Y-75529557D01*
X96152301Y-75537439D01*
X96145711Y-75544711D01*
X96138439Y-75551301D01*
X96130557Y-75557147D01*
X96122140Y-75562192D01*
X96113268Y-75566388D01*
X96104028Y-75569694D01*
X96094509Y-75572079D01*
X96084802Y-75573518D01*
X96075000Y-75574000D01*
X95475000Y-75574000D01*
X95465198Y-75573518D01*
X95455491Y-75572079D01*
X95445972Y-75569694D01*
X95436732Y-75566388D01*
X95427860Y-75562192D01*
X95419443Y-75557147D01*
X95411561Y-75551301D01*
X95404289Y-75544711D01*
X95397699Y-75537439D01*
X95391853Y-75529557D01*
X95386808Y-75521140D01*
X95382612Y-75512268D01*
X95379306Y-75503028D01*
X95376921Y-75493509D01*
X95375482Y-75483802D01*
X95375000Y-75474000D01*
X95375000Y-75274000D01*
X95375482Y-75264198D01*
X95376921Y-75254491D01*
X95379306Y-75244972D01*
X95382612Y-75235732D01*
X95386808Y-75226860D01*
X95391853Y-75218443D01*
X95397699Y-75210561D01*
X95404289Y-75203289D01*
X95411561Y-75196699D01*
X95419443Y-75190853D01*
X95427860Y-75185808D01*
X95436732Y-75181612D01*
X95445972Y-75178306D01*
X95455491Y-75175921D01*
X95465198Y-75174482D01*
X95475000Y-75174000D01*
X96075000Y-75174000D01*
X96084802Y-75174482D01*
X96084802Y-75174482D01*
G37*
D23*
X95775000Y-75374000D03*
D16*
G36*
X96084802Y-76174482D02*
G01*
X96094509Y-76175921D01*
X96104028Y-76178306D01*
X96113268Y-76181612D01*
X96122140Y-76185808D01*
X96130557Y-76190853D01*
X96138439Y-76196699D01*
X96145711Y-76203289D01*
X96152301Y-76210561D01*
X96158147Y-76218443D01*
X96163192Y-76226860D01*
X96167388Y-76235732D01*
X96170694Y-76244972D01*
X96173079Y-76254491D01*
X96174518Y-76264198D01*
X96175000Y-76274000D01*
X96175000Y-76474000D01*
X96174518Y-76483802D01*
X96173079Y-76493509D01*
X96170694Y-76503028D01*
X96167388Y-76512268D01*
X96163192Y-76521140D01*
X96158147Y-76529557D01*
X96152301Y-76537439D01*
X96145711Y-76544711D01*
X96138439Y-76551301D01*
X96130557Y-76557147D01*
X96122140Y-76562192D01*
X96113268Y-76566388D01*
X96104028Y-76569694D01*
X96094509Y-76572079D01*
X96084802Y-76573518D01*
X96075000Y-76574000D01*
X95475000Y-76574000D01*
X95465198Y-76573518D01*
X95455491Y-76572079D01*
X95445972Y-76569694D01*
X95436732Y-76566388D01*
X95427860Y-76562192D01*
X95419443Y-76557147D01*
X95411561Y-76551301D01*
X95404289Y-76544711D01*
X95397699Y-76537439D01*
X95391853Y-76529557D01*
X95386808Y-76521140D01*
X95382612Y-76512268D01*
X95379306Y-76503028D01*
X95376921Y-76493509D01*
X95375482Y-76483802D01*
X95375000Y-76474000D01*
X95375000Y-76274000D01*
X95375482Y-76264198D01*
X95376921Y-76254491D01*
X95379306Y-76244972D01*
X95382612Y-76235732D01*
X95386808Y-76226860D01*
X95391853Y-76218443D01*
X95397699Y-76210561D01*
X95404289Y-76203289D01*
X95411561Y-76196699D01*
X95419443Y-76190853D01*
X95427860Y-76185808D01*
X95436732Y-76181612D01*
X95445972Y-76178306D01*
X95455491Y-76175921D01*
X95465198Y-76174482D01*
X95475000Y-76174000D01*
X96075000Y-76174000D01*
X96084802Y-76174482D01*
X96084802Y-76174482D01*
G37*
D23*
X95775000Y-76374000D03*
D16*
G36*
X98984802Y-76174482D02*
G01*
X98994509Y-76175921D01*
X99004028Y-76178306D01*
X99013268Y-76181612D01*
X99022140Y-76185808D01*
X99030557Y-76190853D01*
X99038439Y-76196699D01*
X99045711Y-76203289D01*
X99052301Y-76210561D01*
X99058147Y-76218443D01*
X99063192Y-76226860D01*
X99067388Y-76235732D01*
X99070694Y-76244972D01*
X99073079Y-76254491D01*
X99074518Y-76264198D01*
X99075000Y-76274000D01*
X99075000Y-76474000D01*
X99074518Y-76483802D01*
X99073079Y-76493509D01*
X99070694Y-76503028D01*
X99067388Y-76512268D01*
X99063192Y-76521140D01*
X99058147Y-76529557D01*
X99052301Y-76537439D01*
X99045711Y-76544711D01*
X99038439Y-76551301D01*
X99030557Y-76557147D01*
X99022140Y-76562192D01*
X99013268Y-76566388D01*
X99004028Y-76569694D01*
X98994509Y-76572079D01*
X98984802Y-76573518D01*
X98975000Y-76574000D01*
X98375000Y-76574000D01*
X98365198Y-76573518D01*
X98355491Y-76572079D01*
X98345972Y-76569694D01*
X98336732Y-76566388D01*
X98327860Y-76562192D01*
X98319443Y-76557147D01*
X98311561Y-76551301D01*
X98304289Y-76544711D01*
X98297699Y-76537439D01*
X98291853Y-76529557D01*
X98286808Y-76521140D01*
X98282612Y-76512268D01*
X98279306Y-76503028D01*
X98276921Y-76493509D01*
X98275482Y-76483802D01*
X98275000Y-76474000D01*
X98275000Y-76274000D01*
X98275482Y-76264198D01*
X98276921Y-76254491D01*
X98279306Y-76244972D01*
X98282612Y-76235732D01*
X98286808Y-76226860D01*
X98291853Y-76218443D01*
X98297699Y-76210561D01*
X98304289Y-76203289D01*
X98311561Y-76196699D01*
X98319443Y-76190853D01*
X98327860Y-76185808D01*
X98336732Y-76181612D01*
X98345972Y-76178306D01*
X98355491Y-76175921D01*
X98365198Y-76174482D01*
X98375000Y-76174000D01*
X98975000Y-76174000D01*
X98984802Y-76174482D01*
X98984802Y-76174482D01*
G37*
D23*
X98675000Y-76374000D03*
D16*
G36*
X98984802Y-75174482D02*
G01*
X98994509Y-75175921D01*
X99004028Y-75178306D01*
X99013268Y-75181612D01*
X99022140Y-75185808D01*
X99030557Y-75190853D01*
X99038439Y-75196699D01*
X99045711Y-75203289D01*
X99052301Y-75210561D01*
X99058147Y-75218443D01*
X99063192Y-75226860D01*
X99067388Y-75235732D01*
X99070694Y-75244972D01*
X99073079Y-75254491D01*
X99074518Y-75264198D01*
X99075000Y-75274000D01*
X99075000Y-75474000D01*
X99074518Y-75483802D01*
X99073079Y-75493509D01*
X99070694Y-75503028D01*
X99067388Y-75512268D01*
X99063192Y-75521140D01*
X99058147Y-75529557D01*
X99052301Y-75537439D01*
X99045711Y-75544711D01*
X99038439Y-75551301D01*
X99030557Y-75557147D01*
X99022140Y-75562192D01*
X99013268Y-75566388D01*
X99004028Y-75569694D01*
X98994509Y-75572079D01*
X98984802Y-75573518D01*
X98975000Y-75574000D01*
X98375000Y-75574000D01*
X98365198Y-75573518D01*
X98355491Y-75572079D01*
X98345972Y-75569694D01*
X98336732Y-75566388D01*
X98327860Y-75562192D01*
X98319443Y-75557147D01*
X98311561Y-75551301D01*
X98304289Y-75544711D01*
X98297699Y-75537439D01*
X98291853Y-75529557D01*
X98286808Y-75521140D01*
X98282612Y-75512268D01*
X98279306Y-75503028D01*
X98276921Y-75493509D01*
X98275482Y-75483802D01*
X98275000Y-75474000D01*
X98275000Y-75274000D01*
X98275482Y-75264198D01*
X98276921Y-75254491D01*
X98279306Y-75244972D01*
X98282612Y-75235732D01*
X98286808Y-75226860D01*
X98291853Y-75218443D01*
X98297699Y-75210561D01*
X98304289Y-75203289D01*
X98311561Y-75196699D01*
X98319443Y-75190853D01*
X98327860Y-75185808D01*
X98336732Y-75181612D01*
X98345972Y-75178306D01*
X98355491Y-75175921D01*
X98365198Y-75174482D01*
X98375000Y-75174000D01*
X98975000Y-75174000D01*
X98984802Y-75174482D01*
X98984802Y-75174482D01*
G37*
D23*
X98675000Y-75374000D03*
D16*
G36*
X98984802Y-74174482D02*
G01*
X98994509Y-74175921D01*
X99004028Y-74178306D01*
X99013268Y-74181612D01*
X99022140Y-74185808D01*
X99030557Y-74190853D01*
X99038439Y-74196699D01*
X99045711Y-74203289D01*
X99052301Y-74210561D01*
X99058147Y-74218443D01*
X99063192Y-74226860D01*
X99067388Y-74235732D01*
X99070694Y-74244972D01*
X99073079Y-74254491D01*
X99074518Y-74264198D01*
X99075000Y-74274000D01*
X99075000Y-74474000D01*
X99074518Y-74483802D01*
X99073079Y-74493509D01*
X99070694Y-74503028D01*
X99067388Y-74512268D01*
X99063192Y-74521140D01*
X99058147Y-74529557D01*
X99052301Y-74537439D01*
X99045711Y-74544711D01*
X99038439Y-74551301D01*
X99030557Y-74557147D01*
X99022140Y-74562192D01*
X99013268Y-74566388D01*
X99004028Y-74569694D01*
X98994509Y-74572079D01*
X98984802Y-74573518D01*
X98975000Y-74574000D01*
X98375000Y-74574000D01*
X98365198Y-74573518D01*
X98355491Y-74572079D01*
X98345972Y-74569694D01*
X98336732Y-74566388D01*
X98327860Y-74562192D01*
X98319443Y-74557147D01*
X98311561Y-74551301D01*
X98304289Y-74544711D01*
X98297699Y-74537439D01*
X98291853Y-74529557D01*
X98286808Y-74521140D01*
X98282612Y-74512268D01*
X98279306Y-74503028D01*
X98276921Y-74493509D01*
X98275482Y-74483802D01*
X98275000Y-74474000D01*
X98275000Y-74274000D01*
X98275482Y-74264198D01*
X98276921Y-74254491D01*
X98279306Y-74244972D01*
X98282612Y-74235732D01*
X98286808Y-74226860D01*
X98291853Y-74218443D01*
X98297699Y-74210561D01*
X98304289Y-74203289D01*
X98311561Y-74196699D01*
X98319443Y-74190853D01*
X98327860Y-74185808D01*
X98336732Y-74181612D01*
X98345972Y-74178306D01*
X98355491Y-74175921D01*
X98365198Y-74174482D01*
X98375000Y-74174000D01*
X98975000Y-74174000D01*
X98984802Y-74174482D01*
X98984802Y-74174482D01*
G37*
D23*
X98675000Y-74374000D03*
D24*
X91065000Y-68309000D03*
X91065000Y-70309000D03*
X89065000Y-70309000D03*
X89065000Y-68309000D03*
M02*
