G04 #@! TF.GenerationSoftware,KiCad,Pcbnew,(5.1.0-0)*
G04 #@! TF.CreationDate,2019-12-01T11:51:17+01:00*
G04 #@! TF.ProjectId,esp32,65737033-322e-46b6-9963-61645f706362,rev?*
G04 #@! TF.SameCoordinates,Original*
G04 #@! TF.FileFunction,Soldermask,Top*
G04 #@! TF.FilePolarity,Negative*
%FSLAX46Y46*%
G04 Gerber Fmt 4.6, Leading zero omitted, Abs format (unit mm)*
G04 Created by KiCad (PCBNEW (5.1.0-0)) date 2019-12-01 11:51:17*
%MOMM*%
%LPD*%
G04 APERTURE LIST*
%ADD10C,0.100000*%
G04 APERTURE END LIST*
D10*
G36*
X165461703Y-106886486D02*
G01*
X165752883Y-107007097D01*
X166014940Y-107182198D01*
X166237802Y-107405060D01*
X166412903Y-107667117D01*
X166533514Y-107958297D01*
X166595000Y-108267412D01*
X166595000Y-108582588D01*
X166533514Y-108891703D01*
X166412903Y-109182883D01*
X166237802Y-109444940D01*
X166014940Y-109667802D01*
X165752883Y-109842903D01*
X165461703Y-109963514D01*
X165152588Y-110025000D01*
X164837412Y-110025000D01*
X164528297Y-109963514D01*
X164237117Y-109842903D01*
X163975060Y-109667802D01*
X163752198Y-109444940D01*
X163577097Y-109182883D01*
X163456486Y-108891703D01*
X163395000Y-108582588D01*
X163395000Y-108267412D01*
X163456486Y-107958297D01*
X163577097Y-107667117D01*
X163752198Y-107405060D01*
X163975060Y-107182198D01*
X164237117Y-107007097D01*
X164528297Y-106886486D01*
X164837412Y-106825000D01*
X165152588Y-106825000D01*
X165461703Y-106886486D01*
X165461703Y-106886486D01*
G37*
G36*
X81641703Y-106886486D02*
G01*
X81932883Y-107007097D01*
X82194940Y-107182198D01*
X82417802Y-107405060D01*
X82592903Y-107667117D01*
X82713514Y-107958297D01*
X82775000Y-108267412D01*
X82775000Y-108582588D01*
X82713514Y-108891703D01*
X82592903Y-109182883D01*
X82417802Y-109444940D01*
X82194940Y-109667802D01*
X81932883Y-109842903D01*
X81641703Y-109963514D01*
X81332588Y-110025000D01*
X81017412Y-110025000D01*
X80708297Y-109963514D01*
X80417117Y-109842903D01*
X80155060Y-109667802D01*
X79932198Y-109444940D01*
X79757097Y-109182883D01*
X79636486Y-108891703D01*
X79575000Y-108582588D01*
X79575000Y-108267412D01*
X79636486Y-107958297D01*
X79757097Y-107667117D01*
X79932198Y-107405060D01*
X80155060Y-107182198D01*
X80417117Y-107007097D01*
X80708297Y-106886486D01*
X81017412Y-106825000D01*
X81332588Y-106825000D01*
X81641703Y-106886486D01*
X81641703Y-106886486D01*
G37*
G36*
X152024610Y-104048036D02*
G01*
X152252095Y-104142264D01*
X152252097Y-104142265D01*
X152456828Y-104279062D01*
X152630938Y-104453172D01*
X152767736Y-104657905D01*
X152861964Y-104885390D01*
X152910000Y-105126884D01*
X152910000Y-105373116D01*
X152861964Y-105614610D01*
X152767736Y-105842095D01*
X152767735Y-105842097D01*
X152630938Y-106046828D01*
X152456828Y-106220938D01*
X152252097Y-106357735D01*
X152252096Y-106357736D01*
X152252095Y-106357736D01*
X152024610Y-106451964D01*
X151783116Y-106500000D01*
X151536884Y-106500000D01*
X151295390Y-106451964D01*
X151067905Y-106357736D01*
X151067904Y-106357736D01*
X151067903Y-106357735D01*
X150863172Y-106220938D01*
X150689062Y-106046828D01*
X150552265Y-105842097D01*
X150552264Y-105842095D01*
X150458036Y-105614610D01*
X150410000Y-105373116D01*
X150410000Y-105126884D01*
X150458036Y-104885390D01*
X150552264Y-104657905D01*
X150689062Y-104453172D01*
X150863172Y-104279062D01*
X151067903Y-104142265D01*
X151067905Y-104142264D01*
X151295390Y-104048036D01*
X151536884Y-104000000D01*
X151783116Y-104000000D01*
X152024610Y-104048036D01*
X152024610Y-104048036D01*
G37*
G36*
X148214610Y-104048036D02*
G01*
X148442095Y-104142264D01*
X148442097Y-104142265D01*
X148646828Y-104279062D01*
X148820938Y-104453172D01*
X148957736Y-104657905D01*
X149051964Y-104885390D01*
X149100000Y-105126884D01*
X149100000Y-105373116D01*
X149051964Y-105614610D01*
X148957736Y-105842095D01*
X148957735Y-105842097D01*
X148820938Y-106046828D01*
X148646828Y-106220938D01*
X148442097Y-106357735D01*
X148442096Y-106357736D01*
X148442095Y-106357736D01*
X148214610Y-106451964D01*
X147973116Y-106500000D01*
X147726884Y-106500000D01*
X147485390Y-106451964D01*
X147257905Y-106357736D01*
X147257904Y-106357736D01*
X147257903Y-106357735D01*
X147053172Y-106220938D01*
X146879062Y-106046828D01*
X146742265Y-105842097D01*
X146742264Y-105842095D01*
X146648036Y-105614610D01*
X146600000Y-105373116D01*
X146600000Y-105126884D01*
X146648036Y-104885390D01*
X146742264Y-104657905D01*
X146879062Y-104453172D01*
X147053172Y-104279062D01*
X147257903Y-104142265D01*
X147257905Y-104142264D01*
X147485390Y-104048036D01*
X147726884Y-104000000D01*
X147973116Y-104000000D01*
X148214610Y-104048036D01*
X148214610Y-104048036D01*
G37*
G36*
X144404610Y-104048036D02*
G01*
X144632095Y-104142264D01*
X144632097Y-104142265D01*
X144836828Y-104279062D01*
X145010938Y-104453172D01*
X145147736Y-104657905D01*
X145241964Y-104885390D01*
X145290000Y-105126884D01*
X145290000Y-105373116D01*
X145241964Y-105614610D01*
X145147736Y-105842095D01*
X145147735Y-105842097D01*
X145010938Y-106046828D01*
X144836828Y-106220938D01*
X144632097Y-106357735D01*
X144632096Y-106357736D01*
X144632095Y-106357736D01*
X144404610Y-106451964D01*
X144163116Y-106500000D01*
X143916884Y-106500000D01*
X143675390Y-106451964D01*
X143447905Y-106357736D01*
X143447904Y-106357736D01*
X143447903Y-106357735D01*
X143243172Y-106220938D01*
X143069062Y-106046828D01*
X142932265Y-105842097D01*
X142932264Y-105842095D01*
X142838036Y-105614610D01*
X142790000Y-105373116D01*
X142790000Y-105126884D01*
X142838036Y-104885390D01*
X142932264Y-104657905D01*
X143069062Y-104453172D01*
X143243172Y-104279062D01*
X143447903Y-104142265D01*
X143447905Y-104142264D01*
X143675390Y-104048036D01*
X143916884Y-104000000D01*
X144163116Y-104000000D01*
X144404610Y-104048036D01*
X144404610Y-104048036D01*
G37*
G36*
X140594610Y-104048036D02*
G01*
X140822095Y-104142264D01*
X140822097Y-104142265D01*
X141026828Y-104279062D01*
X141200938Y-104453172D01*
X141337736Y-104657905D01*
X141431964Y-104885390D01*
X141480000Y-105126884D01*
X141480000Y-105373116D01*
X141431964Y-105614610D01*
X141337736Y-105842095D01*
X141337735Y-105842097D01*
X141200938Y-106046828D01*
X141026828Y-106220938D01*
X140822097Y-106357735D01*
X140822096Y-106357736D01*
X140822095Y-106357736D01*
X140594610Y-106451964D01*
X140353116Y-106500000D01*
X140106884Y-106500000D01*
X139865390Y-106451964D01*
X139637905Y-106357736D01*
X139637904Y-106357736D01*
X139637903Y-106357735D01*
X139433172Y-106220938D01*
X139259062Y-106046828D01*
X139122265Y-105842097D01*
X139122264Y-105842095D01*
X139028036Y-105614610D01*
X138980000Y-105373116D01*
X138980000Y-105126884D01*
X139028036Y-104885390D01*
X139122264Y-104657905D01*
X139259062Y-104453172D01*
X139433172Y-104279062D01*
X139637903Y-104142265D01*
X139637905Y-104142264D01*
X139865390Y-104048036D01*
X140106884Y-104000000D01*
X140353116Y-104000000D01*
X140594610Y-104048036D01*
X140594610Y-104048036D01*
G37*
G36*
X136784610Y-104048036D02*
G01*
X137012095Y-104142264D01*
X137012097Y-104142265D01*
X137216828Y-104279062D01*
X137390938Y-104453172D01*
X137527736Y-104657905D01*
X137621964Y-104885390D01*
X137670000Y-105126884D01*
X137670000Y-105373116D01*
X137621964Y-105614610D01*
X137527736Y-105842095D01*
X137527735Y-105842097D01*
X137390938Y-106046828D01*
X137216828Y-106220938D01*
X137012097Y-106357735D01*
X137012096Y-106357736D01*
X137012095Y-106357736D01*
X136784610Y-106451964D01*
X136543116Y-106500000D01*
X136296884Y-106500000D01*
X136055390Y-106451964D01*
X135827905Y-106357736D01*
X135827904Y-106357736D01*
X135827903Y-106357735D01*
X135623172Y-106220938D01*
X135449062Y-106046828D01*
X135312265Y-105842097D01*
X135312264Y-105842095D01*
X135218036Y-105614610D01*
X135170000Y-105373116D01*
X135170000Y-105126884D01*
X135218036Y-104885390D01*
X135312264Y-104657905D01*
X135449062Y-104453172D01*
X135623172Y-104279062D01*
X135827903Y-104142265D01*
X135827905Y-104142264D01*
X136055390Y-104048036D01*
X136296884Y-104000000D01*
X136543116Y-104000000D01*
X136784610Y-104048036D01*
X136784610Y-104048036D01*
G37*
G36*
X132974610Y-104048036D02*
G01*
X133202095Y-104142264D01*
X133202097Y-104142265D01*
X133406828Y-104279062D01*
X133580938Y-104453172D01*
X133717736Y-104657905D01*
X133811964Y-104885390D01*
X133860000Y-105126884D01*
X133860000Y-105373116D01*
X133811964Y-105614610D01*
X133717736Y-105842095D01*
X133717735Y-105842097D01*
X133580938Y-106046828D01*
X133406828Y-106220938D01*
X133202097Y-106357735D01*
X133202096Y-106357736D01*
X133202095Y-106357736D01*
X132974610Y-106451964D01*
X132733116Y-106500000D01*
X132486884Y-106500000D01*
X132245390Y-106451964D01*
X132017905Y-106357736D01*
X132017904Y-106357736D01*
X132017903Y-106357735D01*
X131813172Y-106220938D01*
X131639062Y-106046828D01*
X131502265Y-105842097D01*
X131502264Y-105842095D01*
X131408036Y-105614610D01*
X131360000Y-105373116D01*
X131360000Y-105126884D01*
X131408036Y-104885390D01*
X131502264Y-104657905D01*
X131639062Y-104453172D01*
X131813172Y-104279062D01*
X132017903Y-104142265D01*
X132017905Y-104142264D01*
X132245390Y-104048036D01*
X132486884Y-104000000D01*
X132733116Y-104000000D01*
X132974610Y-104048036D01*
X132974610Y-104048036D01*
G37*
G36*
X129164610Y-104048036D02*
G01*
X129392095Y-104142264D01*
X129392097Y-104142265D01*
X129596828Y-104279062D01*
X129770938Y-104453172D01*
X129907736Y-104657905D01*
X130001964Y-104885390D01*
X130050000Y-105126884D01*
X130050000Y-105373116D01*
X130001964Y-105614610D01*
X129907736Y-105842095D01*
X129907735Y-105842097D01*
X129770938Y-106046828D01*
X129596828Y-106220938D01*
X129392097Y-106357735D01*
X129392096Y-106357736D01*
X129392095Y-106357736D01*
X129164610Y-106451964D01*
X128923116Y-106500000D01*
X128676884Y-106500000D01*
X128435390Y-106451964D01*
X128207905Y-106357736D01*
X128207904Y-106357736D01*
X128207903Y-106357735D01*
X128003172Y-106220938D01*
X127829062Y-106046828D01*
X127692265Y-105842097D01*
X127692264Y-105842095D01*
X127598036Y-105614610D01*
X127550000Y-105373116D01*
X127550000Y-105126884D01*
X127598036Y-104885390D01*
X127692264Y-104657905D01*
X127829062Y-104453172D01*
X128003172Y-104279062D01*
X128207903Y-104142265D01*
X128207905Y-104142264D01*
X128435390Y-104048036D01*
X128676884Y-104000000D01*
X128923116Y-104000000D01*
X129164610Y-104048036D01*
X129164610Y-104048036D01*
G37*
G36*
X125354610Y-104048036D02*
G01*
X125582095Y-104142264D01*
X125582097Y-104142265D01*
X125786828Y-104279062D01*
X125960938Y-104453172D01*
X126097736Y-104657905D01*
X126191964Y-104885390D01*
X126240000Y-105126884D01*
X126240000Y-105373116D01*
X126191964Y-105614610D01*
X126097736Y-105842095D01*
X126097735Y-105842097D01*
X125960938Y-106046828D01*
X125786828Y-106220938D01*
X125582097Y-106357735D01*
X125582096Y-106357736D01*
X125582095Y-106357736D01*
X125354610Y-106451964D01*
X125113116Y-106500000D01*
X124866884Y-106500000D01*
X124625390Y-106451964D01*
X124397905Y-106357736D01*
X124397904Y-106357736D01*
X124397903Y-106357735D01*
X124193172Y-106220938D01*
X124019062Y-106046828D01*
X123882265Y-105842097D01*
X123882264Y-105842095D01*
X123788036Y-105614610D01*
X123740000Y-105373116D01*
X123740000Y-105126884D01*
X123788036Y-104885390D01*
X123882264Y-104657905D01*
X124019062Y-104453172D01*
X124193172Y-104279062D01*
X124397903Y-104142265D01*
X124397905Y-104142264D01*
X124625390Y-104048036D01*
X124866884Y-104000000D01*
X125113116Y-104000000D01*
X125354610Y-104048036D01*
X125354610Y-104048036D01*
G37*
G36*
X121544610Y-104048036D02*
G01*
X121772095Y-104142264D01*
X121772097Y-104142265D01*
X121976828Y-104279062D01*
X122150938Y-104453172D01*
X122287736Y-104657905D01*
X122381964Y-104885390D01*
X122430000Y-105126884D01*
X122430000Y-105373116D01*
X122381964Y-105614610D01*
X122287736Y-105842095D01*
X122287735Y-105842097D01*
X122150938Y-106046828D01*
X121976828Y-106220938D01*
X121772097Y-106357735D01*
X121772096Y-106357736D01*
X121772095Y-106357736D01*
X121544610Y-106451964D01*
X121303116Y-106500000D01*
X121056884Y-106500000D01*
X120815390Y-106451964D01*
X120587905Y-106357736D01*
X120587904Y-106357736D01*
X120587903Y-106357735D01*
X120383172Y-106220938D01*
X120209062Y-106046828D01*
X120072265Y-105842097D01*
X120072264Y-105842095D01*
X119978036Y-105614610D01*
X119930000Y-105373116D01*
X119930000Y-105126884D01*
X119978036Y-104885390D01*
X120072264Y-104657905D01*
X120209062Y-104453172D01*
X120383172Y-104279062D01*
X120587903Y-104142265D01*
X120587905Y-104142264D01*
X120815390Y-104048036D01*
X121056884Y-104000000D01*
X121303116Y-104000000D01*
X121544610Y-104048036D01*
X121544610Y-104048036D01*
G37*
G36*
X117734610Y-104048036D02*
G01*
X117962095Y-104142264D01*
X117962097Y-104142265D01*
X118166828Y-104279062D01*
X118340938Y-104453172D01*
X118477736Y-104657905D01*
X118571964Y-104885390D01*
X118620000Y-105126884D01*
X118620000Y-105373116D01*
X118571964Y-105614610D01*
X118477736Y-105842095D01*
X118477735Y-105842097D01*
X118340938Y-106046828D01*
X118166828Y-106220938D01*
X117962097Y-106357735D01*
X117962096Y-106357736D01*
X117962095Y-106357736D01*
X117734610Y-106451964D01*
X117493116Y-106500000D01*
X117246884Y-106500000D01*
X117005390Y-106451964D01*
X116777905Y-106357736D01*
X116777904Y-106357736D01*
X116777903Y-106357735D01*
X116573172Y-106220938D01*
X116399062Y-106046828D01*
X116262265Y-105842097D01*
X116262264Y-105842095D01*
X116168036Y-105614610D01*
X116120000Y-105373116D01*
X116120000Y-105126884D01*
X116168036Y-104885390D01*
X116262264Y-104657905D01*
X116399062Y-104453172D01*
X116573172Y-104279062D01*
X116777903Y-104142265D01*
X116777905Y-104142264D01*
X117005390Y-104048036D01*
X117246884Y-104000000D01*
X117493116Y-104000000D01*
X117734610Y-104048036D01*
X117734610Y-104048036D01*
G37*
G36*
X113924610Y-104048036D02*
G01*
X114152095Y-104142264D01*
X114152097Y-104142265D01*
X114356828Y-104279062D01*
X114530938Y-104453172D01*
X114667736Y-104657905D01*
X114761964Y-104885390D01*
X114810000Y-105126884D01*
X114810000Y-105373116D01*
X114761964Y-105614610D01*
X114667736Y-105842095D01*
X114667735Y-105842097D01*
X114530938Y-106046828D01*
X114356828Y-106220938D01*
X114152097Y-106357735D01*
X114152096Y-106357736D01*
X114152095Y-106357736D01*
X113924610Y-106451964D01*
X113683116Y-106500000D01*
X113436884Y-106500000D01*
X113195390Y-106451964D01*
X112967905Y-106357736D01*
X112967904Y-106357736D01*
X112967903Y-106357735D01*
X112763172Y-106220938D01*
X112589062Y-106046828D01*
X112452265Y-105842097D01*
X112452264Y-105842095D01*
X112358036Y-105614610D01*
X112310000Y-105373116D01*
X112310000Y-105126884D01*
X112358036Y-104885390D01*
X112452264Y-104657905D01*
X112589062Y-104453172D01*
X112763172Y-104279062D01*
X112967903Y-104142265D01*
X112967905Y-104142264D01*
X113195390Y-104048036D01*
X113436884Y-104000000D01*
X113683116Y-104000000D01*
X113924610Y-104048036D01*
X113924610Y-104048036D01*
G37*
G36*
X110114610Y-104048036D02*
G01*
X110342095Y-104142264D01*
X110342097Y-104142265D01*
X110546828Y-104279062D01*
X110720938Y-104453172D01*
X110857736Y-104657905D01*
X110951964Y-104885390D01*
X111000000Y-105126884D01*
X111000000Y-105373116D01*
X110951964Y-105614610D01*
X110857736Y-105842095D01*
X110857735Y-105842097D01*
X110720938Y-106046828D01*
X110546828Y-106220938D01*
X110342097Y-106357735D01*
X110342096Y-106357736D01*
X110342095Y-106357736D01*
X110114610Y-106451964D01*
X109873116Y-106500000D01*
X109626884Y-106500000D01*
X109385390Y-106451964D01*
X109157905Y-106357736D01*
X109157904Y-106357736D01*
X109157903Y-106357735D01*
X108953172Y-106220938D01*
X108779062Y-106046828D01*
X108642265Y-105842097D01*
X108642264Y-105842095D01*
X108548036Y-105614610D01*
X108500000Y-105373116D01*
X108500000Y-105126884D01*
X108548036Y-104885390D01*
X108642264Y-104657905D01*
X108779062Y-104453172D01*
X108953172Y-104279062D01*
X109157903Y-104142265D01*
X109157905Y-104142264D01*
X109385390Y-104048036D01*
X109626884Y-104000000D01*
X109873116Y-104000000D01*
X110114610Y-104048036D01*
X110114610Y-104048036D01*
G37*
G36*
X106304610Y-104048036D02*
G01*
X106532095Y-104142264D01*
X106532097Y-104142265D01*
X106736828Y-104279062D01*
X106910938Y-104453172D01*
X107047736Y-104657905D01*
X107141964Y-104885390D01*
X107190000Y-105126884D01*
X107190000Y-105373116D01*
X107141964Y-105614610D01*
X107047736Y-105842095D01*
X107047735Y-105842097D01*
X106910938Y-106046828D01*
X106736828Y-106220938D01*
X106532097Y-106357735D01*
X106532096Y-106357736D01*
X106532095Y-106357736D01*
X106304610Y-106451964D01*
X106063116Y-106500000D01*
X105816884Y-106500000D01*
X105575390Y-106451964D01*
X105347905Y-106357736D01*
X105347904Y-106357736D01*
X105347903Y-106357735D01*
X105143172Y-106220938D01*
X104969062Y-106046828D01*
X104832265Y-105842097D01*
X104832264Y-105842095D01*
X104738036Y-105614610D01*
X104690000Y-105373116D01*
X104690000Y-105126884D01*
X104738036Y-104885390D01*
X104832264Y-104657905D01*
X104969062Y-104453172D01*
X105143172Y-104279062D01*
X105347903Y-104142265D01*
X105347905Y-104142264D01*
X105575390Y-104048036D01*
X105816884Y-104000000D01*
X106063116Y-104000000D01*
X106304610Y-104048036D01*
X106304610Y-104048036D01*
G37*
G36*
X102494610Y-104048036D02*
G01*
X102722095Y-104142264D01*
X102722097Y-104142265D01*
X102926828Y-104279062D01*
X103100938Y-104453172D01*
X103237736Y-104657905D01*
X103331964Y-104885390D01*
X103380000Y-105126884D01*
X103380000Y-105373116D01*
X103331964Y-105614610D01*
X103237736Y-105842095D01*
X103237735Y-105842097D01*
X103100938Y-106046828D01*
X102926828Y-106220938D01*
X102722097Y-106357735D01*
X102722096Y-106357736D01*
X102722095Y-106357736D01*
X102494610Y-106451964D01*
X102253116Y-106500000D01*
X102006884Y-106500000D01*
X101765390Y-106451964D01*
X101537905Y-106357736D01*
X101537904Y-106357736D01*
X101537903Y-106357735D01*
X101333172Y-106220938D01*
X101159062Y-106046828D01*
X101022265Y-105842097D01*
X101022264Y-105842095D01*
X100928036Y-105614610D01*
X100880000Y-105373116D01*
X100880000Y-105126884D01*
X100928036Y-104885390D01*
X101022264Y-104657905D01*
X101159062Y-104453172D01*
X101333172Y-104279062D01*
X101537903Y-104142265D01*
X101537905Y-104142264D01*
X101765390Y-104048036D01*
X102006884Y-104000000D01*
X102253116Y-104000000D01*
X102494610Y-104048036D01*
X102494610Y-104048036D01*
G37*
G36*
X98684610Y-104048036D02*
G01*
X98912095Y-104142264D01*
X98912097Y-104142265D01*
X99116828Y-104279062D01*
X99290938Y-104453172D01*
X99427736Y-104657905D01*
X99521964Y-104885390D01*
X99570000Y-105126884D01*
X99570000Y-105373116D01*
X99521964Y-105614610D01*
X99427736Y-105842095D01*
X99427735Y-105842097D01*
X99290938Y-106046828D01*
X99116828Y-106220938D01*
X98912097Y-106357735D01*
X98912096Y-106357736D01*
X98912095Y-106357736D01*
X98684610Y-106451964D01*
X98443116Y-106500000D01*
X98196884Y-106500000D01*
X97955390Y-106451964D01*
X97727905Y-106357736D01*
X97727904Y-106357736D01*
X97727903Y-106357735D01*
X97523172Y-106220938D01*
X97349062Y-106046828D01*
X97212265Y-105842097D01*
X97212264Y-105842095D01*
X97118036Y-105614610D01*
X97070000Y-105373116D01*
X97070000Y-105126884D01*
X97118036Y-104885390D01*
X97212264Y-104657905D01*
X97349062Y-104453172D01*
X97523172Y-104279062D01*
X97727903Y-104142265D01*
X97727905Y-104142264D01*
X97955390Y-104048036D01*
X98196884Y-104000000D01*
X98443116Y-104000000D01*
X98684610Y-104048036D01*
X98684610Y-104048036D01*
G37*
G36*
X94874610Y-104048036D02*
G01*
X95102095Y-104142264D01*
X95102097Y-104142265D01*
X95306828Y-104279062D01*
X95480938Y-104453172D01*
X95617736Y-104657905D01*
X95711964Y-104885390D01*
X95760000Y-105126884D01*
X95760000Y-105373116D01*
X95711964Y-105614610D01*
X95617736Y-105842095D01*
X95617735Y-105842097D01*
X95480938Y-106046828D01*
X95306828Y-106220938D01*
X95102097Y-106357735D01*
X95102096Y-106357736D01*
X95102095Y-106357736D01*
X94874610Y-106451964D01*
X94633116Y-106500000D01*
X94386884Y-106500000D01*
X94145390Y-106451964D01*
X93917905Y-106357736D01*
X93917904Y-106357736D01*
X93917903Y-106357735D01*
X93713172Y-106220938D01*
X93539062Y-106046828D01*
X93402265Y-105842097D01*
X93402264Y-105842095D01*
X93308036Y-105614610D01*
X93260000Y-105373116D01*
X93260000Y-105126884D01*
X93308036Y-104885390D01*
X93402264Y-104657905D01*
X93539062Y-104453172D01*
X93713172Y-104279062D01*
X93917903Y-104142265D01*
X93917905Y-104142264D01*
X94145390Y-104048036D01*
X94386884Y-104000000D01*
X94633116Y-104000000D01*
X94874610Y-104048036D01*
X94874610Y-104048036D01*
G37*
G36*
X91064610Y-104048036D02*
G01*
X91292095Y-104142264D01*
X91292097Y-104142265D01*
X91496828Y-104279062D01*
X91670938Y-104453172D01*
X91807736Y-104657905D01*
X91901964Y-104885390D01*
X91950000Y-105126884D01*
X91950000Y-105373116D01*
X91901964Y-105614610D01*
X91807736Y-105842095D01*
X91807735Y-105842097D01*
X91670938Y-106046828D01*
X91496828Y-106220938D01*
X91292097Y-106357735D01*
X91292096Y-106357736D01*
X91292095Y-106357736D01*
X91064610Y-106451964D01*
X90823116Y-106500000D01*
X90576884Y-106500000D01*
X90335390Y-106451964D01*
X90107905Y-106357736D01*
X90107904Y-106357736D01*
X90107903Y-106357735D01*
X89903172Y-106220938D01*
X89729062Y-106046828D01*
X89592265Y-105842097D01*
X89592264Y-105842095D01*
X89498036Y-105614610D01*
X89450000Y-105373116D01*
X89450000Y-105126884D01*
X89498036Y-104885390D01*
X89592264Y-104657905D01*
X89729062Y-104453172D01*
X89903172Y-104279062D01*
X90107903Y-104142265D01*
X90107905Y-104142264D01*
X90335390Y-104048036D01*
X90576884Y-104000000D01*
X90823116Y-104000000D01*
X91064610Y-104048036D01*
X91064610Y-104048036D01*
G37*
G36*
X87254610Y-104048036D02*
G01*
X87482095Y-104142264D01*
X87482097Y-104142265D01*
X87686828Y-104279062D01*
X87860938Y-104453172D01*
X87997736Y-104657905D01*
X88091964Y-104885390D01*
X88140000Y-105126884D01*
X88140000Y-105373116D01*
X88091964Y-105614610D01*
X87997736Y-105842095D01*
X87997735Y-105842097D01*
X87860938Y-106046828D01*
X87686828Y-106220938D01*
X87482097Y-106357735D01*
X87482096Y-106357736D01*
X87482095Y-106357736D01*
X87254610Y-106451964D01*
X87013116Y-106500000D01*
X86766884Y-106500000D01*
X86525390Y-106451964D01*
X86297905Y-106357736D01*
X86297904Y-106357736D01*
X86297903Y-106357735D01*
X86093172Y-106220938D01*
X85919062Y-106046828D01*
X85782265Y-105842097D01*
X85782264Y-105842095D01*
X85688036Y-105614610D01*
X85640000Y-105373116D01*
X85640000Y-105126884D01*
X85688036Y-104885390D01*
X85782264Y-104657905D01*
X85919062Y-104453172D01*
X86093172Y-104279062D01*
X86297903Y-104142265D01*
X86297905Y-104142264D01*
X86525390Y-104048036D01*
X86766884Y-104000000D01*
X87013116Y-104000000D01*
X87254610Y-104048036D01*
X87254610Y-104048036D01*
G37*
G36*
X155834610Y-104048036D02*
G01*
X156062095Y-104142264D01*
X156062097Y-104142265D01*
X156266828Y-104279062D01*
X156440938Y-104453172D01*
X156577736Y-104657905D01*
X156671964Y-104885390D01*
X156720000Y-105126884D01*
X156720000Y-105373116D01*
X156671964Y-105614610D01*
X156577736Y-105842095D01*
X156577735Y-105842097D01*
X156440938Y-106046828D01*
X156266828Y-106220938D01*
X156062097Y-106357735D01*
X156062096Y-106357736D01*
X156062095Y-106357736D01*
X155834610Y-106451964D01*
X155593116Y-106500000D01*
X155346884Y-106500000D01*
X155105390Y-106451964D01*
X154877905Y-106357736D01*
X154877904Y-106357736D01*
X154877903Y-106357735D01*
X154673172Y-106220938D01*
X154499062Y-106046828D01*
X154362265Y-105842097D01*
X154362264Y-105842095D01*
X154268036Y-105614610D01*
X154220000Y-105373116D01*
X154220000Y-105126884D01*
X154268036Y-104885390D01*
X154362264Y-104657905D01*
X154499062Y-104453172D01*
X154673172Y-104279062D01*
X154877903Y-104142265D01*
X154877905Y-104142264D01*
X155105390Y-104048036D01*
X155346884Y-104000000D01*
X155593116Y-104000000D01*
X155834610Y-104048036D01*
X155834610Y-104048036D01*
G37*
G36*
X159644610Y-104048036D02*
G01*
X159872095Y-104142264D01*
X159872097Y-104142265D01*
X160076828Y-104279062D01*
X160250938Y-104453172D01*
X160387736Y-104657905D01*
X160481964Y-104885390D01*
X160530000Y-105126884D01*
X160530000Y-105373116D01*
X160481964Y-105614610D01*
X160387736Y-105842095D01*
X160387735Y-105842097D01*
X160250938Y-106046828D01*
X160076828Y-106220938D01*
X159872097Y-106357735D01*
X159872096Y-106357736D01*
X159872095Y-106357736D01*
X159644610Y-106451964D01*
X159403116Y-106500000D01*
X159156884Y-106500000D01*
X158915390Y-106451964D01*
X158687905Y-106357736D01*
X158687904Y-106357736D01*
X158687903Y-106357735D01*
X158483172Y-106220938D01*
X158309062Y-106046828D01*
X158172265Y-105842097D01*
X158172264Y-105842095D01*
X158078036Y-105614610D01*
X158030000Y-105373116D01*
X158030000Y-105126884D01*
X158078036Y-104885390D01*
X158172264Y-104657905D01*
X158309062Y-104453172D01*
X158483172Y-104279062D01*
X158687903Y-104142265D01*
X158687905Y-104142264D01*
X158915390Y-104048036D01*
X159156884Y-104000000D01*
X159403116Y-104000000D01*
X159644610Y-104048036D01*
X159644610Y-104048036D01*
G37*
G36*
X111100000Y-100350000D02*
G01*
X110300000Y-100350000D01*
X110300000Y-99450000D01*
X111100000Y-99450000D01*
X111100000Y-100350000D01*
X111100000Y-100350000D01*
G37*
G36*
X109200000Y-100350000D02*
G01*
X108400000Y-100350000D01*
X108400000Y-99450000D01*
X109200000Y-99450000D01*
X109200000Y-100350000D01*
X109200000Y-100350000D01*
G37*
G36*
X103480000Y-100350000D02*
G01*
X102680000Y-100350000D01*
X102680000Y-99450000D01*
X103480000Y-99450000D01*
X103480000Y-100350000D01*
X103480000Y-100350000D01*
G37*
G36*
X101580000Y-100350000D02*
G01*
X100780000Y-100350000D01*
X100780000Y-99450000D01*
X101580000Y-99450000D01*
X101580000Y-100350000D01*
X101580000Y-100350000D01*
G37*
G36*
X99670000Y-100350000D02*
G01*
X98870000Y-100350000D01*
X98870000Y-99450000D01*
X99670000Y-99450000D01*
X99670000Y-100350000D01*
X99670000Y-100350000D01*
G37*
G36*
X97770000Y-100350000D02*
G01*
X96970000Y-100350000D01*
X96970000Y-99450000D01*
X97770000Y-99450000D01*
X97770000Y-100350000D01*
X97770000Y-100350000D01*
G37*
G36*
X95860000Y-100350000D02*
G01*
X95060000Y-100350000D01*
X95060000Y-99450000D01*
X95860000Y-99450000D01*
X95860000Y-100350000D01*
X95860000Y-100350000D01*
G37*
G36*
X93960000Y-100350000D02*
G01*
X93160000Y-100350000D01*
X93160000Y-99450000D01*
X93960000Y-99450000D01*
X93960000Y-100350000D01*
X93960000Y-100350000D01*
G37*
G36*
X92050000Y-100350000D02*
G01*
X91250000Y-100350000D01*
X91250000Y-99450000D01*
X92050000Y-99450000D01*
X92050000Y-100350000D01*
X92050000Y-100350000D01*
G37*
G36*
X90150000Y-100350000D02*
G01*
X89350000Y-100350000D01*
X89350000Y-99450000D01*
X90150000Y-99450000D01*
X90150000Y-100350000D01*
X90150000Y-100350000D01*
G37*
G36*
X137770000Y-100350000D02*
G01*
X136970000Y-100350000D01*
X136970000Y-99450000D01*
X137770000Y-99450000D01*
X137770000Y-100350000D01*
X137770000Y-100350000D01*
G37*
G36*
X139680000Y-100350000D02*
G01*
X138880000Y-100350000D01*
X138880000Y-99450000D01*
X139680000Y-99450000D01*
X139680000Y-100350000D01*
X139680000Y-100350000D01*
G37*
G36*
X141580000Y-100350000D02*
G01*
X140780000Y-100350000D01*
X140780000Y-99450000D01*
X141580000Y-99450000D01*
X141580000Y-100350000D01*
X141580000Y-100350000D01*
G37*
G36*
X147300000Y-100350000D02*
G01*
X146500000Y-100350000D01*
X146500000Y-99450000D01*
X147300000Y-99450000D01*
X147300000Y-100350000D01*
X147300000Y-100350000D01*
G37*
G36*
X149200000Y-100350000D02*
G01*
X148400000Y-100350000D01*
X148400000Y-99450000D01*
X149200000Y-99450000D01*
X149200000Y-100350000D01*
X149200000Y-100350000D01*
G37*
G36*
X151110000Y-100350000D02*
G01*
X150310000Y-100350000D01*
X150310000Y-99450000D01*
X151110000Y-99450000D01*
X151110000Y-100350000D01*
X151110000Y-100350000D01*
G37*
G36*
X153010000Y-100350000D02*
G01*
X152210000Y-100350000D01*
X152210000Y-99450000D01*
X153010000Y-99450000D01*
X153010000Y-100350000D01*
X153010000Y-100350000D01*
G37*
G36*
X154920000Y-100350000D02*
G01*
X154120000Y-100350000D01*
X154120000Y-99450000D01*
X154920000Y-99450000D01*
X154920000Y-100350000D01*
X154920000Y-100350000D01*
G37*
G36*
X156820000Y-100350000D02*
G01*
X156020000Y-100350000D01*
X156020000Y-99450000D01*
X156820000Y-99450000D01*
X156820000Y-100350000D01*
X156820000Y-100350000D01*
G37*
G36*
X158730000Y-100350000D02*
G01*
X157930000Y-100350000D01*
X157930000Y-99450000D01*
X158730000Y-99450000D01*
X158730000Y-100350000D01*
X158730000Y-100350000D01*
G37*
G36*
X160630000Y-100350000D02*
G01*
X159830000Y-100350000D01*
X159830000Y-99450000D01*
X160630000Y-99450000D01*
X160630000Y-100350000D01*
X160630000Y-100350000D01*
G37*
G36*
X133960000Y-100350000D02*
G01*
X133160000Y-100350000D01*
X133160000Y-99450000D01*
X133960000Y-99450000D01*
X133960000Y-100350000D01*
X133960000Y-100350000D01*
G37*
G36*
X132060000Y-100350000D02*
G01*
X131260000Y-100350000D01*
X131260000Y-99450000D01*
X132060000Y-99450000D01*
X132060000Y-100350000D01*
X132060000Y-100350000D01*
G37*
G36*
X130150000Y-100350000D02*
G01*
X129350000Y-100350000D01*
X129350000Y-99450000D01*
X130150000Y-99450000D01*
X130150000Y-100350000D01*
X130150000Y-100350000D01*
G37*
G36*
X128250000Y-100350000D02*
G01*
X127450000Y-100350000D01*
X127450000Y-99450000D01*
X128250000Y-99450000D01*
X128250000Y-100350000D01*
X128250000Y-100350000D01*
G37*
G36*
X122530000Y-100350000D02*
G01*
X121730000Y-100350000D01*
X121730000Y-99450000D01*
X122530000Y-99450000D01*
X122530000Y-100350000D01*
X122530000Y-100350000D01*
G37*
G36*
X120630000Y-100350000D02*
G01*
X119830000Y-100350000D01*
X119830000Y-99450000D01*
X120630000Y-99450000D01*
X120630000Y-100350000D01*
X120630000Y-100350000D01*
G37*
G36*
X118720000Y-100350000D02*
G01*
X117920000Y-100350000D01*
X117920000Y-99450000D01*
X118720000Y-99450000D01*
X118720000Y-100350000D01*
X118720000Y-100350000D01*
G37*
G36*
X116820000Y-100350000D02*
G01*
X116020000Y-100350000D01*
X116020000Y-99450000D01*
X116820000Y-99450000D01*
X116820000Y-100350000D01*
X116820000Y-100350000D01*
G37*
G36*
X114910000Y-100350000D02*
G01*
X114110000Y-100350000D01*
X114110000Y-99450000D01*
X114910000Y-99450000D01*
X114910000Y-100350000D01*
X114910000Y-100350000D01*
G37*
G36*
X113010000Y-100350000D02*
G01*
X112210000Y-100350000D01*
X112210000Y-99450000D01*
X113010000Y-99450000D01*
X113010000Y-100350000D01*
X113010000Y-100350000D01*
G37*
G36*
X135870000Y-100350000D02*
G01*
X135070000Y-100350000D01*
X135070000Y-99450000D01*
X135870000Y-99450000D01*
X135870000Y-100350000D01*
X135870000Y-100350000D01*
G37*
G36*
X133010000Y-98350000D02*
G01*
X132210000Y-98350000D01*
X132210000Y-97450000D01*
X133010000Y-97450000D01*
X133010000Y-98350000D01*
X133010000Y-98350000D01*
G37*
G36*
X159680000Y-98350000D02*
G01*
X158880000Y-98350000D01*
X158880000Y-97450000D01*
X159680000Y-97450000D01*
X159680000Y-98350000D01*
X159680000Y-98350000D01*
G37*
G36*
X136820000Y-98350000D02*
G01*
X136020000Y-98350000D01*
X136020000Y-97450000D01*
X136820000Y-97450000D01*
X136820000Y-98350000D01*
X136820000Y-98350000D01*
G37*
G36*
X155870000Y-98350000D02*
G01*
X155070000Y-98350000D01*
X155070000Y-97450000D01*
X155870000Y-97450000D01*
X155870000Y-98350000D01*
X155870000Y-98350000D01*
G37*
G36*
X152060000Y-98350000D02*
G01*
X151260000Y-98350000D01*
X151260000Y-97450000D01*
X152060000Y-97450000D01*
X152060000Y-98350000D01*
X152060000Y-98350000D01*
G37*
G36*
X140630000Y-98350000D02*
G01*
X139830000Y-98350000D01*
X139830000Y-97450000D01*
X140630000Y-97450000D01*
X140630000Y-98350000D01*
X140630000Y-98350000D01*
G37*
G36*
X148250000Y-98350000D02*
G01*
X147450000Y-98350000D01*
X147450000Y-97450000D01*
X148250000Y-97450000D01*
X148250000Y-98350000D01*
X148250000Y-98350000D01*
G37*
G36*
X129200000Y-98350000D02*
G01*
X128400000Y-98350000D01*
X128400000Y-97450000D01*
X129200000Y-97450000D01*
X129200000Y-98350000D01*
X129200000Y-98350000D01*
G37*
G36*
X121580000Y-98350000D02*
G01*
X120780000Y-98350000D01*
X120780000Y-97450000D01*
X121580000Y-97450000D01*
X121580000Y-98350000D01*
X121580000Y-98350000D01*
G37*
G36*
X117770000Y-98350000D02*
G01*
X116970000Y-98350000D01*
X116970000Y-97450000D01*
X117770000Y-97450000D01*
X117770000Y-98350000D01*
X117770000Y-98350000D01*
G37*
G36*
X113960000Y-98350000D02*
G01*
X113160000Y-98350000D01*
X113160000Y-97450000D01*
X113960000Y-97450000D01*
X113960000Y-98350000D01*
X113960000Y-98350000D01*
G37*
G36*
X91100000Y-98350000D02*
G01*
X90300000Y-98350000D01*
X90300000Y-97450000D01*
X91100000Y-97450000D01*
X91100000Y-98350000D01*
X91100000Y-98350000D01*
G37*
G36*
X110150000Y-98350000D02*
G01*
X109350000Y-98350000D01*
X109350000Y-97450000D01*
X110150000Y-97450000D01*
X110150000Y-98350000D01*
X110150000Y-98350000D01*
G37*
G36*
X94910000Y-98350000D02*
G01*
X94110000Y-98350000D01*
X94110000Y-97450000D01*
X94910000Y-97450000D01*
X94910000Y-98350000D01*
X94910000Y-98350000D01*
G37*
G36*
X98720000Y-98350000D02*
G01*
X97920000Y-98350000D01*
X97920000Y-97450000D01*
X98720000Y-97450000D01*
X98720000Y-98350000D01*
X98720000Y-98350000D01*
G37*
G36*
X102530000Y-98350000D02*
G01*
X101730000Y-98350000D01*
X101730000Y-97450000D01*
X102530000Y-97450000D01*
X102530000Y-98350000D01*
X102530000Y-98350000D01*
G37*
G36*
X165570522Y-93124039D02*
G01*
X165604057Y-93134212D01*
X165634956Y-93150728D01*
X165662043Y-93172957D01*
X165684272Y-93200044D01*
X165700788Y-93230943D01*
X165710961Y-93264478D01*
X165715000Y-93305487D01*
X165715000Y-94334513D01*
X165710961Y-94375522D01*
X165700788Y-94409057D01*
X165684272Y-94439956D01*
X165662043Y-94467043D01*
X165634956Y-94489272D01*
X165604057Y-94505788D01*
X165570522Y-94515961D01*
X165529513Y-94520000D01*
X164750487Y-94520000D01*
X164709478Y-94515961D01*
X164675943Y-94505788D01*
X164645044Y-94489272D01*
X164617957Y-94467043D01*
X164595728Y-94439956D01*
X164579212Y-94409057D01*
X164569039Y-94375522D01*
X164565000Y-94334513D01*
X164565000Y-93305487D01*
X164569039Y-93264478D01*
X164579212Y-93230943D01*
X164595728Y-93200044D01*
X164617957Y-93172957D01*
X164645044Y-93150728D01*
X164675943Y-93134212D01*
X164709478Y-93124039D01*
X164750487Y-93120000D01*
X165529513Y-93120000D01*
X165570522Y-93124039D01*
X165570522Y-93124039D01*
G37*
G36*
X163520522Y-93124039D02*
G01*
X163554057Y-93134212D01*
X163584956Y-93150728D01*
X163612043Y-93172957D01*
X163634272Y-93200044D01*
X163650788Y-93230943D01*
X163660961Y-93264478D01*
X163665000Y-93305487D01*
X163665000Y-94334513D01*
X163660961Y-94375522D01*
X163650788Y-94409057D01*
X163634272Y-94439956D01*
X163612043Y-94467043D01*
X163584956Y-94489272D01*
X163554057Y-94505788D01*
X163520522Y-94515961D01*
X163479513Y-94520000D01*
X162700487Y-94520000D01*
X162659478Y-94515961D01*
X162625943Y-94505788D01*
X162595044Y-94489272D01*
X162567957Y-94467043D01*
X162545728Y-94439956D01*
X162529212Y-94409057D01*
X162519039Y-94375522D01*
X162515000Y-94334513D01*
X162515000Y-93305487D01*
X162519039Y-93264478D01*
X162529212Y-93230943D01*
X162545728Y-93200044D01*
X162567957Y-93172957D01*
X162595044Y-93150728D01*
X162625943Y-93134212D01*
X162659478Y-93124039D01*
X162700487Y-93120000D01*
X163479513Y-93120000D01*
X163520522Y-93124039D01*
X163520522Y-93124039D01*
G37*
G36*
X127120000Y-94435000D02*
G01*
X126020000Y-94435000D01*
X126020000Y-94035000D01*
X127120000Y-94035000D01*
X127120000Y-94435000D01*
X127120000Y-94435000D01*
G37*
G36*
X121420000Y-94435000D02*
G01*
X120320000Y-94435000D01*
X120320000Y-94035000D01*
X121420000Y-94035000D01*
X121420000Y-94435000D01*
X121420000Y-94435000D01*
G37*
G36*
X89080891Y-90436205D02*
G01*
X89233202Y-90482408D01*
X89373565Y-90557433D01*
X89496597Y-90658403D01*
X89597567Y-90781435D01*
X89672592Y-90921798D01*
X89718795Y-91074109D01*
X89735000Y-91238640D01*
X89735000Y-93101360D01*
X89718795Y-93265891D01*
X89672592Y-93418202D01*
X89597567Y-93558565D01*
X89496597Y-93681597D01*
X89373565Y-93782567D01*
X89233202Y-93857592D01*
X89080891Y-93903795D01*
X88916360Y-93920000D01*
X87053640Y-93920000D01*
X86889109Y-93903795D01*
X86736798Y-93857592D01*
X86596435Y-93782567D01*
X86473403Y-93681597D01*
X86372433Y-93558565D01*
X86297408Y-93418202D01*
X86251205Y-93265891D01*
X86235000Y-93101360D01*
X86235000Y-91238640D01*
X86251205Y-91074109D01*
X86297408Y-90921798D01*
X86372433Y-90781435D01*
X86473403Y-90658403D01*
X86596435Y-90557433D01*
X86736798Y-90482408D01*
X86889109Y-90436205D01*
X87053640Y-90420000D01*
X88916360Y-90420000D01*
X89080891Y-90436205D01*
X89080891Y-90436205D01*
G37*
G36*
X127120000Y-93785000D02*
G01*
X126020000Y-93785000D01*
X126020000Y-93385000D01*
X127120000Y-93385000D01*
X127120000Y-93785000D01*
X127120000Y-93785000D01*
G37*
G36*
X121420000Y-93785000D02*
G01*
X120320000Y-93785000D01*
X120320000Y-93385000D01*
X121420000Y-93385000D01*
X121420000Y-93785000D01*
X121420000Y-93785000D01*
G37*
G36*
X127120000Y-93135000D02*
G01*
X126020000Y-93135000D01*
X126020000Y-92735000D01*
X127120000Y-92735000D01*
X127120000Y-93135000D01*
X127120000Y-93135000D01*
G37*
G36*
X121420000Y-93135000D02*
G01*
X120320000Y-93135000D01*
X120320000Y-92735000D01*
X121420000Y-92735000D01*
X121420000Y-93135000D01*
X121420000Y-93135000D01*
G37*
G36*
X127120000Y-92485000D02*
G01*
X126020000Y-92485000D01*
X126020000Y-92085000D01*
X127120000Y-92085000D01*
X127120000Y-92485000D01*
X127120000Y-92485000D01*
G37*
G36*
X121420000Y-92485000D02*
G01*
X120320000Y-92485000D01*
X120320000Y-92085000D01*
X121420000Y-92085000D01*
X121420000Y-92485000D01*
X121420000Y-92485000D01*
G37*
G36*
X127120000Y-91835000D02*
G01*
X126020000Y-91835000D01*
X126020000Y-91435000D01*
X127120000Y-91435000D01*
X127120000Y-91835000D01*
X127120000Y-91835000D01*
G37*
G36*
X121420000Y-91835000D02*
G01*
X120320000Y-91835000D01*
X120320000Y-91435000D01*
X121420000Y-91435000D01*
X121420000Y-91835000D01*
X121420000Y-91835000D01*
G37*
G36*
X127120000Y-91185000D02*
G01*
X126020000Y-91185000D01*
X126020000Y-90785000D01*
X127120000Y-90785000D01*
X127120000Y-91185000D01*
X127120000Y-91185000D01*
G37*
G36*
X121420000Y-91185000D02*
G01*
X120320000Y-91185000D01*
X120320000Y-90785000D01*
X121420000Y-90785000D01*
X121420000Y-91185000D01*
X121420000Y-91185000D01*
G37*
G36*
X121420000Y-90535000D02*
G01*
X120320000Y-90535000D01*
X120320000Y-90135000D01*
X121420000Y-90135000D01*
X121420000Y-90535000D01*
X121420000Y-90535000D01*
G37*
G36*
X127120000Y-90535000D02*
G01*
X126020000Y-90535000D01*
X126020000Y-90135000D01*
X127120000Y-90135000D01*
X127120000Y-90535000D01*
X127120000Y-90535000D01*
G37*
G36*
X154805000Y-90370000D02*
G01*
X153255000Y-90370000D01*
X153255000Y-89070000D01*
X154805000Y-89070000D01*
X154805000Y-90370000D01*
X154805000Y-90370000D01*
G37*
G36*
X162765000Y-90370000D02*
G01*
X161215000Y-90370000D01*
X161215000Y-89070000D01*
X162765000Y-89070000D01*
X162765000Y-90370000D01*
X162765000Y-90370000D01*
G37*
G36*
X145125000Y-90105000D02*
G01*
X144225000Y-90105000D01*
X144225000Y-88105000D01*
X145125000Y-88105000D01*
X145125000Y-90105000D01*
X145125000Y-90105000D01*
G37*
G36*
X136235000Y-90105000D02*
G01*
X135335000Y-90105000D01*
X135335000Y-88105000D01*
X136235000Y-88105000D01*
X136235000Y-90105000D01*
X136235000Y-90105000D01*
G37*
G36*
X137505000Y-90105000D02*
G01*
X136605000Y-90105000D01*
X136605000Y-88105000D01*
X137505000Y-88105000D01*
X137505000Y-90105000D01*
X137505000Y-90105000D01*
G37*
G36*
X138775000Y-90105000D02*
G01*
X137875000Y-90105000D01*
X137875000Y-88105000D01*
X138775000Y-88105000D01*
X138775000Y-90105000D01*
X138775000Y-90105000D01*
G37*
G36*
X140045000Y-90105000D02*
G01*
X139145000Y-90105000D01*
X139145000Y-88105000D01*
X140045000Y-88105000D01*
X140045000Y-90105000D01*
X140045000Y-90105000D01*
G37*
G36*
X141315000Y-90105000D02*
G01*
X140415000Y-90105000D01*
X140415000Y-88105000D01*
X141315000Y-88105000D01*
X141315000Y-90105000D01*
X141315000Y-90105000D01*
G37*
G36*
X142585000Y-90105000D02*
G01*
X141685000Y-90105000D01*
X141685000Y-88105000D01*
X142585000Y-88105000D01*
X142585000Y-90105000D01*
X142585000Y-90105000D01*
G37*
G36*
X143855000Y-90105000D02*
G01*
X142955000Y-90105000D01*
X142955000Y-88105000D01*
X143855000Y-88105000D01*
X143855000Y-90105000D01*
X143855000Y-90105000D01*
G37*
G36*
X147665000Y-90105000D02*
G01*
X146765000Y-90105000D01*
X146765000Y-88105000D01*
X147665000Y-88105000D01*
X147665000Y-90105000D01*
X147665000Y-90105000D01*
G37*
G36*
X146395000Y-90105000D02*
G01*
X145495000Y-90105000D01*
X145495000Y-88105000D01*
X146395000Y-88105000D01*
X146395000Y-90105000D01*
X146395000Y-90105000D01*
G37*
G36*
X121420000Y-89885000D02*
G01*
X120320000Y-89885000D01*
X120320000Y-89485000D01*
X121420000Y-89485000D01*
X121420000Y-89885000D01*
X121420000Y-89885000D01*
G37*
G36*
X127120000Y-89885000D02*
G01*
X126020000Y-89885000D01*
X126020000Y-89485000D01*
X127120000Y-89485000D01*
X127120000Y-89885000D01*
X127120000Y-89885000D01*
G37*
G36*
X127120000Y-89235000D02*
G01*
X126020000Y-89235000D01*
X126020000Y-88835000D01*
X127120000Y-88835000D01*
X127120000Y-89235000D01*
X127120000Y-89235000D01*
G37*
G36*
X121420000Y-89235000D02*
G01*
X120320000Y-89235000D01*
X120320000Y-88835000D01*
X121420000Y-88835000D01*
X121420000Y-89235000D01*
X121420000Y-89235000D01*
G37*
G36*
X85931505Y-85733803D02*
G01*
X86060366Y-85772893D01*
X86179117Y-85836367D01*
X86283209Y-85921791D01*
X86368633Y-86025883D01*
X86432107Y-86144634D01*
X86471197Y-86273495D01*
X86485000Y-86413640D01*
X86485000Y-88526360D01*
X86471197Y-88666505D01*
X86432107Y-88795366D01*
X86368633Y-88914117D01*
X86283209Y-89018209D01*
X86179117Y-89103633D01*
X86060366Y-89167107D01*
X85931505Y-89206197D01*
X85791360Y-89220000D01*
X84178640Y-89220000D01*
X84038495Y-89206197D01*
X83909634Y-89167107D01*
X83790883Y-89103633D01*
X83686791Y-89018209D01*
X83601367Y-88914117D01*
X83537893Y-88795366D01*
X83498803Y-88666505D01*
X83485000Y-88526360D01*
X83485000Y-86413640D01*
X83498803Y-86273495D01*
X83537893Y-86144634D01*
X83601367Y-86025883D01*
X83686791Y-85921791D01*
X83790883Y-85836367D01*
X83909634Y-85772893D01*
X84038495Y-85733803D01*
X84178640Y-85720000D01*
X85791360Y-85720000D01*
X85931505Y-85733803D01*
X85931505Y-85733803D01*
G37*
G36*
X92735000Y-89220000D02*
G01*
X89235000Y-89220000D01*
X89235000Y-85720000D01*
X92735000Y-85720000D01*
X92735000Y-89220000D01*
X92735000Y-89220000D01*
G37*
G36*
X121420000Y-88585000D02*
G01*
X120320000Y-88585000D01*
X120320000Y-88185000D01*
X121420000Y-88185000D01*
X121420000Y-88585000D01*
X121420000Y-88585000D01*
G37*
G36*
X127120000Y-88585000D02*
G01*
X126020000Y-88585000D01*
X126020000Y-88185000D01*
X127120000Y-88185000D01*
X127120000Y-88585000D01*
X127120000Y-88585000D01*
G37*
G36*
X134000000Y-88555000D02*
G01*
X132000000Y-88555000D01*
X132000000Y-87655000D01*
X134000000Y-87655000D01*
X134000000Y-88555000D01*
X134000000Y-88555000D01*
G37*
G36*
X151000000Y-88555000D02*
G01*
X149000000Y-88555000D01*
X149000000Y-87655000D01*
X151000000Y-87655000D01*
X151000000Y-88555000D01*
X151000000Y-88555000D01*
G37*
G36*
X127120000Y-87935000D02*
G01*
X126020000Y-87935000D01*
X126020000Y-87535000D01*
X127120000Y-87535000D01*
X127120000Y-87935000D01*
X127120000Y-87935000D01*
G37*
G36*
X121420000Y-87935000D02*
G01*
X120320000Y-87935000D01*
X120320000Y-87535000D01*
X121420000Y-87535000D01*
X121420000Y-87935000D01*
X121420000Y-87935000D01*
G37*
G36*
X127120000Y-87285000D02*
G01*
X126020000Y-87285000D01*
X126020000Y-86885000D01*
X127120000Y-86885000D01*
X127120000Y-87285000D01*
X127120000Y-87285000D01*
G37*
G36*
X151000000Y-87285000D02*
G01*
X149000000Y-87285000D01*
X149000000Y-86385000D01*
X151000000Y-86385000D01*
X151000000Y-87285000D01*
X151000000Y-87285000D01*
G37*
G36*
X134000000Y-87285000D02*
G01*
X132000000Y-87285000D01*
X132000000Y-86385000D01*
X134000000Y-86385000D01*
X134000000Y-87285000D01*
X134000000Y-87285000D01*
G37*
G36*
X121420000Y-87285000D02*
G01*
X120320000Y-87285000D01*
X120320000Y-86885000D01*
X121420000Y-86885000D01*
X121420000Y-87285000D01*
X121420000Y-87285000D01*
G37*
G36*
X165796627Y-85362299D02*
G01*
X165876742Y-85386602D01*
X165956855Y-85410903D01*
X165956857Y-85410904D01*
X166104518Y-85489831D01*
X166233949Y-85596051D01*
X166340169Y-85725482D01*
X166419096Y-85873143D01*
X166467701Y-86033373D01*
X166484112Y-86200000D01*
X166467701Y-86366627D01*
X166419096Y-86526857D01*
X166340169Y-86674518D01*
X166233949Y-86803949D01*
X166104518Y-86910169D01*
X165956857Y-86989096D01*
X165956855Y-86989097D01*
X165876742Y-87013399D01*
X165796627Y-87037701D01*
X165671752Y-87050000D01*
X165588248Y-87050000D01*
X165463373Y-87037701D01*
X165383258Y-87013399D01*
X165303145Y-86989097D01*
X165303143Y-86989096D01*
X165155482Y-86910169D01*
X165026051Y-86803949D01*
X164919831Y-86674518D01*
X164840904Y-86526857D01*
X164792299Y-86366627D01*
X164775888Y-86200000D01*
X164792299Y-86033373D01*
X164840904Y-85873143D01*
X164919831Y-85725482D01*
X165026051Y-85596051D01*
X165155482Y-85489831D01*
X165303143Y-85410904D01*
X165303145Y-85410903D01*
X165383258Y-85386602D01*
X165463373Y-85362299D01*
X165588248Y-85350000D01*
X165671752Y-85350000D01*
X165796627Y-85362299D01*
X165796627Y-85362299D01*
G37*
G36*
X127120000Y-86635000D02*
G01*
X126020000Y-86635000D01*
X126020000Y-86235000D01*
X127120000Y-86235000D01*
X127120000Y-86635000D01*
X127120000Y-86635000D01*
G37*
G36*
X121420000Y-86635000D02*
G01*
X120320000Y-86635000D01*
X120320000Y-86235000D01*
X121420000Y-86235000D01*
X121420000Y-86635000D01*
X121420000Y-86635000D01*
G37*
G36*
X151000000Y-86015000D02*
G01*
X149000000Y-86015000D01*
X149000000Y-85115000D01*
X151000000Y-85115000D01*
X151000000Y-86015000D01*
X151000000Y-86015000D01*
G37*
G36*
X134000000Y-86015000D02*
G01*
X132000000Y-86015000D01*
X132000000Y-85115000D01*
X134000000Y-85115000D01*
X134000000Y-86015000D01*
X134000000Y-86015000D01*
G37*
G36*
X127120000Y-85985000D02*
G01*
X126020000Y-85985000D01*
X126020000Y-85585000D01*
X127120000Y-85585000D01*
X127120000Y-85985000D01*
X127120000Y-85985000D01*
G37*
G36*
X121420000Y-85985000D02*
G01*
X120320000Y-85985000D01*
X120320000Y-85585000D01*
X121420000Y-85585000D01*
X121420000Y-85985000D01*
X121420000Y-85985000D01*
G37*
G36*
X154805000Y-85870000D02*
G01*
X153255000Y-85870000D01*
X153255000Y-84570000D01*
X154805000Y-84570000D01*
X154805000Y-85870000D01*
X154805000Y-85870000D01*
G37*
G36*
X162765000Y-85870000D02*
G01*
X161215000Y-85870000D01*
X161215000Y-84570000D01*
X162765000Y-84570000D01*
X162765000Y-85870000D01*
X162765000Y-85870000D01*
G37*
G36*
X101944000Y-85784000D02*
G01*
X101044000Y-85784000D01*
X101044000Y-84584000D01*
X101944000Y-84584000D01*
X101944000Y-85784000D01*
X101944000Y-85784000D01*
G37*
G36*
X98644000Y-85784000D02*
G01*
X97744000Y-85784000D01*
X97744000Y-84584000D01*
X98644000Y-84584000D01*
X98644000Y-85784000D01*
X98644000Y-85784000D01*
G37*
G36*
X151000000Y-84745000D02*
G01*
X149000000Y-84745000D01*
X149000000Y-83845000D01*
X151000000Y-83845000D01*
X151000000Y-84745000D01*
X151000000Y-84745000D01*
G37*
G36*
X134000000Y-84745000D02*
G01*
X132000000Y-84745000D01*
X132000000Y-83845000D01*
X134000000Y-83845000D01*
X134000000Y-84745000D01*
X134000000Y-84745000D01*
G37*
G36*
X165796627Y-82822299D02*
G01*
X165854983Y-82840001D01*
X165956855Y-82870903D01*
X165956857Y-82870904D01*
X166104518Y-82949831D01*
X166233949Y-83056051D01*
X166340169Y-83185482D01*
X166419096Y-83333143D01*
X166467701Y-83493373D01*
X166484112Y-83660000D01*
X166467701Y-83826627D01*
X166419096Y-83986857D01*
X166340169Y-84134518D01*
X166233949Y-84263949D01*
X166104518Y-84370169D01*
X165956857Y-84449096D01*
X165956855Y-84449097D01*
X165876742Y-84473398D01*
X165796627Y-84497701D01*
X165671752Y-84510000D01*
X165588248Y-84510000D01*
X165463373Y-84497701D01*
X165383258Y-84473398D01*
X165303145Y-84449097D01*
X165303143Y-84449096D01*
X165155482Y-84370169D01*
X165026051Y-84263949D01*
X164919831Y-84134518D01*
X164840904Y-83986857D01*
X164792299Y-83826627D01*
X164775888Y-83660000D01*
X164792299Y-83493373D01*
X164840904Y-83333143D01*
X164919831Y-83185482D01*
X165026051Y-83056051D01*
X165155482Y-82949831D01*
X165303143Y-82870904D01*
X165303145Y-82870903D01*
X165405017Y-82840001D01*
X165463373Y-82822299D01*
X165588248Y-82810000D01*
X165671752Y-82810000D01*
X165796627Y-82822299D01*
X165796627Y-82822299D01*
G37*
G36*
X151000000Y-83475000D02*
G01*
X149000000Y-83475000D01*
X149000000Y-82575000D01*
X151000000Y-82575000D01*
X151000000Y-83475000D01*
X151000000Y-83475000D01*
G37*
G36*
X134000000Y-83475000D02*
G01*
X132000000Y-83475000D01*
X132000000Y-82575000D01*
X134000000Y-82575000D01*
X134000000Y-83475000D01*
X134000000Y-83475000D01*
G37*
G36*
X159955522Y-81694039D02*
G01*
X159989057Y-81704212D01*
X160019956Y-81720728D01*
X160047043Y-81742957D01*
X160069272Y-81770044D01*
X160085788Y-81800943D01*
X160095961Y-81834478D01*
X160100000Y-81875487D01*
X160100000Y-82904513D01*
X160095961Y-82945522D01*
X160085788Y-82979057D01*
X160069272Y-83009956D01*
X160047043Y-83037043D01*
X160019956Y-83059272D01*
X159989057Y-83075788D01*
X159955522Y-83085961D01*
X159914513Y-83090000D01*
X159135487Y-83090000D01*
X159094478Y-83085961D01*
X159060943Y-83075788D01*
X159030044Y-83059272D01*
X159002957Y-83037043D01*
X158980728Y-83009956D01*
X158964212Y-82979057D01*
X158954039Y-82945522D01*
X158950000Y-82904513D01*
X158950000Y-81875487D01*
X158954039Y-81834478D01*
X158964212Y-81800943D01*
X158980728Y-81770044D01*
X159002957Y-81742957D01*
X159030044Y-81720728D01*
X159060943Y-81704212D01*
X159094478Y-81694039D01*
X159135487Y-81690000D01*
X159914513Y-81690000D01*
X159955522Y-81694039D01*
X159955522Y-81694039D01*
G37*
G36*
X156925522Y-81694039D02*
G01*
X156959057Y-81704212D01*
X156989956Y-81720728D01*
X157017043Y-81742957D01*
X157039272Y-81770044D01*
X157055788Y-81800943D01*
X157065961Y-81834478D01*
X157070000Y-81875487D01*
X157070000Y-82904513D01*
X157065961Y-82945522D01*
X157055788Y-82979057D01*
X157039272Y-83009956D01*
X157017043Y-83037043D01*
X156989956Y-83059272D01*
X156959057Y-83075788D01*
X156925522Y-83085961D01*
X156884513Y-83090000D01*
X156105487Y-83090000D01*
X156064478Y-83085961D01*
X156030943Y-83075788D01*
X156000044Y-83059272D01*
X155972957Y-83037043D01*
X155950728Y-83009956D01*
X155934212Y-82979057D01*
X155924039Y-82945522D01*
X155920000Y-82904513D01*
X155920000Y-81875487D01*
X155924039Y-81834478D01*
X155934212Y-81800943D01*
X155950728Y-81770044D01*
X155972957Y-81742957D01*
X156000044Y-81720728D01*
X156030943Y-81704212D01*
X156064478Y-81694039D01*
X156105487Y-81690000D01*
X156884513Y-81690000D01*
X156925522Y-81694039D01*
X156925522Y-81694039D01*
G37*
G36*
X154875522Y-81694039D02*
G01*
X154909057Y-81704212D01*
X154939956Y-81720728D01*
X154967043Y-81742957D01*
X154989272Y-81770044D01*
X155005788Y-81800943D01*
X155015961Y-81834478D01*
X155020000Y-81875487D01*
X155020000Y-82904513D01*
X155015961Y-82945522D01*
X155005788Y-82979057D01*
X154989272Y-83009956D01*
X154967043Y-83037043D01*
X154939956Y-83059272D01*
X154909057Y-83075788D01*
X154875522Y-83085961D01*
X154834513Y-83090000D01*
X154055487Y-83090000D01*
X154014478Y-83085961D01*
X153980943Y-83075788D01*
X153950044Y-83059272D01*
X153922957Y-83037043D01*
X153900728Y-83009956D01*
X153884212Y-82979057D01*
X153874039Y-82945522D01*
X153870000Y-82904513D01*
X153870000Y-81875487D01*
X153874039Y-81834478D01*
X153884212Y-81800943D01*
X153900728Y-81770044D01*
X153922957Y-81742957D01*
X153950044Y-81720728D01*
X153980943Y-81704212D01*
X154014478Y-81694039D01*
X154055487Y-81690000D01*
X154834513Y-81690000D01*
X154875522Y-81694039D01*
X154875522Y-81694039D01*
G37*
G36*
X162005522Y-81694039D02*
G01*
X162039057Y-81704212D01*
X162069956Y-81720728D01*
X162097043Y-81742957D01*
X162119272Y-81770044D01*
X162135788Y-81800943D01*
X162145961Y-81834478D01*
X162150000Y-81875487D01*
X162150000Y-82904513D01*
X162145961Y-82945522D01*
X162135788Y-82979057D01*
X162119272Y-83009956D01*
X162097043Y-83037043D01*
X162069956Y-83059272D01*
X162039057Y-83075788D01*
X162005522Y-83085961D01*
X161964513Y-83090000D01*
X161185487Y-83090000D01*
X161144478Y-83085961D01*
X161110943Y-83075788D01*
X161080044Y-83059272D01*
X161052957Y-83037043D01*
X161030728Y-83009956D01*
X161014212Y-82979057D01*
X161004039Y-82945522D01*
X161000000Y-82904513D01*
X161000000Y-81875487D01*
X161004039Y-81834478D01*
X161014212Y-81800943D01*
X161030728Y-81770044D01*
X161052957Y-81742957D01*
X161080044Y-81720728D01*
X161110943Y-81704212D01*
X161144478Y-81694039D01*
X161185487Y-81690000D01*
X161964513Y-81690000D01*
X162005522Y-81694039D01*
X162005522Y-81694039D01*
G37*
G36*
X134000000Y-82205000D02*
G01*
X132000000Y-82205000D01*
X132000000Y-81305000D01*
X134000000Y-81305000D01*
X134000000Y-82205000D01*
X134000000Y-82205000D01*
G37*
G36*
X151000000Y-82205000D02*
G01*
X149000000Y-82205000D01*
X149000000Y-81305000D01*
X151000000Y-81305000D01*
X151000000Y-82205000D01*
X151000000Y-82205000D01*
G37*
G36*
X165796627Y-80282299D02*
G01*
X165876742Y-80306601D01*
X165956855Y-80330903D01*
X165956857Y-80330904D01*
X166104518Y-80409831D01*
X166233949Y-80516051D01*
X166340169Y-80645482D01*
X166419096Y-80793143D01*
X166467701Y-80953373D01*
X166484112Y-81120000D01*
X166467701Y-81286627D01*
X166419096Y-81446857D01*
X166340169Y-81594518D01*
X166233949Y-81723949D01*
X166104518Y-81830169D01*
X165990287Y-81891227D01*
X165956855Y-81909097D01*
X165876742Y-81933398D01*
X165796627Y-81957701D01*
X165671752Y-81970000D01*
X165588248Y-81970000D01*
X165463373Y-81957701D01*
X165383258Y-81933398D01*
X165303145Y-81909097D01*
X165269713Y-81891227D01*
X165155482Y-81830169D01*
X165026051Y-81723949D01*
X164919831Y-81594518D01*
X164840904Y-81446857D01*
X164792299Y-81286627D01*
X164775888Y-81120000D01*
X164792299Y-80953373D01*
X164840904Y-80793143D01*
X164919831Y-80645482D01*
X165026051Y-80516051D01*
X165155482Y-80409831D01*
X165303143Y-80330904D01*
X165303145Y-80330903D01*
X165383258Y-80306601D01*
X165463373Y-80282299D01*
X165588248Y-80270000D01*
X165671752Y-80270000D01*
X165796627Y-80282299D01*
X165796627Y-80282299D01*
G37*
G36*
X143000000Y-81595000D02*
G01*
X138000000Y-81595000D01*
X138000000Y-76595000D01*
X143000000Y-76595000D01*
X143000000Y-81595000D01*
X143000000Y-81595000D01*
G37*
G36*
X80864000Y-80958000D02*
G01*
X79964000Y-80958000D01*
X79964000Y-79758000D01*
X80864000Y-79758000D01*
X80864000Y-80958000D01*
X80864000Y-80958000D01*
G37*
G36*
X84164000Y-80958000D02*
G01*
X83264000Y-80958000D01*
X83264000Y-79758000D01*
X84164000Y-79758000D01*
X84164000Y-80958000D01*
X84164000Y-80958000D01*
G37*
G36*
X134000000Y-80935000D02*
G01*
X132000000Y-80935000D01*
X132000000Y-80035000D01*
X134000000Y-80035000D01*
X134000000Y-80935000D01*
X134000000Y-80935000D01*
G37*
G36*
X151000000Y-80935000D02*
G01*
X149000000Y-80935000D01*
X149000000Y-80035000D01*
X151000000Y-80035000D01*
X151000000Y-80935000D01*
X151000000Y-80935000D01*
G37*
G36*
X134000000Y-79665000D02*
G01*
X132000000Y-79665000D01*
X132000000Y-78765000D01*
X134000000Y-78765000D01*
X134000000Y-79665000D01*
X134000000Y-79665000D01*
G37*
G36*
X151000000Y-79665000D02*
G01*
X149000000Y-79665000D01*
X149000000Y-78765000D01*
X151000000Y-78765000D01*
X151000000Y-79665000D01*
X151000000Y-79665000D01*
G37*
G36*
X123670182Y-78287900D02*
G01*
X123797573Y-78340667D01*
X123797574Y-78340668D01*
X123912224Y-78417274D01*
X124009726Y-78514776D01*
X124009727Y-78514778D01*
X124086333Y-78629427D01*
X124139100Y-78756818D01*
X124166000Y-78892055D01*
X124166000Y-79029945D01*
X124139100Y-79165182D01*
X124086333Y-79292573D01*
X124084005Y-79296057D01*
X124009726Y-79407224D01*
X123912224Y-79504726D01*
X123854510Y-79543289D01*
X123797573Y-79581333D01*
X123670182Y-79634100D01*
X123534945Y-79661000D01*
X123397055Y-79661000D01*
X123261818Y-79634100D01*
X123134427Y-79581333D01*
X123077490Y-79543289D01*
X123019776Y-79504726D01*
X122922274Y-79407224D01*
X122847995Y-79296057D01*
X122845667Y-79292573D01*
X122792900Y-79165182D01*
X122766000Y-79029945D01*
X122766000Y-78892055D01*
X122792900Y-78756818D01*
X122845667Y-78629427D01*
X122922273Y-78514778D01*
X122922274Y-78514776D01*
X123019776Y-78417274D01*
X123134426Y-78340668D01*
X123134427Y-78340667D01*
X123261818Y-78287900D01*
X123397055Y-78261000D01*
X123534945Y-78261000D01*
X123670182Y-78287900D01*
X123670182Y-78287900D01*
G37*
G36*
X121130182Y-78287900D02*
G01*
X121257573Y-78340667D01*
X121257574Y-78340668D01*
X121372224Y-78417274D01*
X121469726Y-78514776D01*
X121469727Y-78514778D01*
X121546333Y-78629427D01*
X121599100Y-78756818D01*
X121626000Y-78892055D01*
X121626000Y-79029945D01*
X121599100Y-79165182D01*
X121546333Y-79292573D01*
X121544005Y-79296057D01*
X121469726Y-79407224D01*
X121372224Y-79504726D01*
X121314510Y-79543289D01*
X121257573Y-79581333D01*
X121130182Y-79634100D01*
X120994945Y-79661000D01*
X120857055Y-79661000D01*
X120721818Y-79634100D01*
X120594427Y-79581333D01*
X120537490Y-79543289D01*
X120479776Y-79504726D01*
X120382274Y-79407224D01*
X120307995Y-79296057D01*
X120305667Y-79292573D01*
X120252900Y-79165182D01*
X120226000Y-79029945D01*
X120226000Y-78892055D01*
X120252900Y-78756818D01*
X120305667Y-78629427D01*
X120382273Y-78514778D01*
X120382274Y-78514776D01*
X120479776Y-78417274D01*
X120594426Y-78340668D01*
X120594427Y-78340667D01*
X120721818Y-78287900D01*
X120857055Y-78261000D01*
X120994945Y-78261000D01*
X121130182Y-78287900D01*
X121130182Y-78287900D01*
G37*
G36*
X165796627Y-77742299D02*
G01*
X165854983Y-77760001D01*
X165956855Y-77790903D01*
X165956857Y-77790904D01*
X166104518Y-77869831D01*
X166233949Y-77976051D01*
X166340169Y-78105482D01*
X166370020Y-78161329D01*
X166419097Y-78253145D01*
X166429640Y-78287901D01*
X166467701Y-78413373D01*
X166484112Y-78580000D01*
X166467701Y-78746627D01*
X166419096Y-78906857D01*
X166340169Y-79054518D01*
X166233949Y-79183949D01*
X166104518Y-79290169D01*
X165985019Y-79354043D01*
X165956855Y-79369097D01*
X165878755Y-79392788D01*
X165796627Y-79417701D01*
X165671752Y-79430000D01*
X165588248Y-79430000D01*
X165463373Y-79417701D01*
X165381245Y-79392788D01*
X165303145Y-79369097D01*
X165274981Y-79354043D01*
X165155482Y-79290169D01*
X165026051Y-79183949D01*
X164919831Y-79054518D01*
X164840904Y-78906857D01*
X164792299Y-78746627D01*
X164775888Y-78580000D01*
X164792299Y-78413373D01*
X164830360Y-78287901D01*
X164840903Y-78253145D01*
X164889980Y-78161329D01*
X164919831Y-78105482D01*
X165026051Y-77976051D01*
X165155482Y-77869831D01*
X165303143Y-77790904D01*
X165303145Y-77790903D01*
X165405017Y-77760001D01*
X165463373Y-77742299D01*
X165588248Y-77730000D01*
X165671752Y-77730000D01*
X165796627Y-77742299D01*
X165796627Y-77742299D01*
G37*
G36*
X116149522Y-78011039D02*
G01*
X116183057Y-78021212D01*
X116213956Y-78037728D01*
X116241043Y-78059957D01*
X116263272Y-78087044D01*
X116279788Y-78117943D01*
X116289961Y-78151478D01*
X116294000Y-78192487D01*
X116294000Y-79221513D01*
X116289961Y-79262522D01*
X116279788Y-79296057D01*
X116263272Y-79326956D01*
X116241043Y-79354043D01*
X116213956Y-79376272D01*
X116183057Y-79392788D01*
X116149522Y-79402961D01*
X116108513Y-79407000D01*
X115329487Y-79407000D01*
X115288478Y-79402961D01*
X115254943Y-79392788D01*
X115224044Y-79376272D01*
X115196957Y-79354043D01*
X115174728Y-79326956D01*
X115158212Y-79296057D01*
X115148039Y-79262522D01*
X115144000Y-79221513D01*
X115144000Y-78192487D01*
X115148039Y-78151478D01*
X115158212Y-78117943D01*
X115174728Y-78087044D01*
X115196957Y-78059957D01*
X115224044Y-78037728D01*
X115254943Y-78021212D01*
X115288478Y-78011039D01*
X115329487Y-78007000D01*
X116108513Y-78007000D01*
X116149522Y-78011039D01*
X116149522Y-78011039D01*
G37*
G36*
X113754522Y-78011039D02*
G01*
X113788057Y-78021212D01*
X113818956Y-78037728D01*
X113846043Y-78059957D01*
X113868272Y-78087044D01*
X113884788Y-78117943D01*
X113894961Y-78151478D01*
X113899000Y-78192487D01*
X113899000Y-79221513D01*
X113894961Y-79262522D01*
X113884788Y-79296057D01*
X113868272Y-79326956D01*
X113846043Y-79354043D01*
X113818956Y-79376272D01*
X113788057Y-79392788D01*
X113754522Y-79402961D01*
X113713513Y-79407000D01*
X112934487Y-79407000D01*
X112893478Y-79402961D01*
X112859943Y-79392788D01*
X112829044Y-79376272D01*
X112801957Y-79354043D01*
X112779728Y-79326956D01*
X112763212Y-79296057D01*
X112753039Y-79262522D01*
X112749000Y-79221513D01*
X112749000Y-78192487D01*
X112753039Y-78151478D01*
X112763212Y-78117943D01*
X112779728Y-78087044D01*
X112801957Y-78059957D01*
X112829044Y-78037728D01*
X112859943Y-78021212D01*
X112893478Y-78011039D01*
X112934487Y-78007000D01*
X113713513Y-78007000D01*
X113754522Y-78011039D01*
X113754522Y-78011039D01*
G37*
G36*
X111704522Y-78011039D02*
G01*
X111738057Y-78021212D01*
X111768956Y-78037728D01*
X111796043Y-78059957D01*
X111818272Y-78087044D01*
X111834788Y-78117943D01*
X111844961Y-78151478D01*
X111849000Y-78192487D01*
X111849000Y-79221513D01*
X111844961Y-79262522D01*
X111834788Y-79296057D01*
X111818272Y-79326956D01*
X111796043Y-79354043D01*
X111768956Y-79376272D01*
X111738057Y-79392788D01*
X111704522Y-79402961D01*
X111663513Y-79407000D01*
X110884487Y-79407000D01*
X110843478Y-79402961D01*
X110809943Y-79392788D01*
X110779044Y-79376272D01*
X110751957Y-79354043D01*
X110729728Y-79326956D01*
X110713212Y-79296057D01*
X110703039Y-79262522D01*
X110699000Y-79221513D01*
X110699000Y-78192487D01*
X110703039Y-78151478D01*
X110713212Y-78117943D01*
X110729728Y-78087044D01*
X110751957Y-78059957D01*
X110779044Y-78037728D01*
X110809943Y-78021212D01*
X110843478Y-78011039D01*
X110884487Y-78007000D01*
X111663513Y-78007000D01*
X111704522Y-78011039D01*
X111704522Y-78011039D01*
G37*
G36*
X118199522Y-78011039D02*
G01*
X118233057Y-78021212D01*
X118263956Y-78037728D01*
X118291043Y-78059957D01*
X118313272Y-78087044D01*
X118329788Y-78117943D01*
X118339961Y-78151478D01*
X118344000Y-78192487D01*
X118344000Y-79221513D01*
X118339961Y-79262522D01*
X118329788Y-79296057D01*
X118313272Y-79326956D01*
X118291043Y-79354043D01*
X118263956Y-79376272D01*
X118233057Y-79392788D01*
X118199522Y-79402961D01*
X118158513Y-79407000D01*
X117379487Y-79407000D01*
X117338478Y-79402961D01*
X117304943Y-79392788D01*
X117274044Y-79376272D01*
X117246957Y-79354043D01*
X117224728Y-79326956D01*
X117208212Y-79296057D01*
X117198039Y-79262522D01*
X117194000Y-79221513D01*
X117194000Y-78192487D01*
X117198039Y-78151478D01*
X117208212Y-78117943D01*
X117224728Y-78087044D01*
X117246957Y-78059957D01*
X117274044Y-78037728D01*
X117304943Y-78021212D01*
X117338478Y-78011039D01*
X117379487Y-78007000D01*
X118158513Y-78007000D01*
X118199522Y-78011039D01*
X118199522Y-78011039D01*
G37*
G36*
X159955522Y-77884039D02*
G01*
X159989057Y-77894212D01*
X160019956Y-77910728D01*
X160047043Y-77932957D01*
X160069272Y-77960044D01*
X160085788Y-77990943D01*
X160095961Y-78024478D01*
X160100000Y-78065487D01*
X160100000Y-79094513D01*
X160095961Y-79135522D01*
X160085788Y-79169057D01*
X160069272Y-79199956D01*
X160047043Y-79227043D01*
X160019956Y-79249272D01*
X159989057Y-79265788D01*
X159955522Y-79275961D01*
X159914513Y-79280000D01*
X159135487Y-79280000D01*
X159094478Y-79275961D01*
X159060943Y-79265788D01*
X159030044Y-79249272D01*
X159002957Y-79227043D01*
X158980728Y-79199956D01*
X158964212Y-79169057D01*
X158954039Y-79135522D01*
X158950000Y-79094513D01*
X158950000Y-78065487D01*
X158954039Y-78024478D01*
X158964212Y-77990943D01*
X158980728Y-77960044D01*
X159002957Y-77932957D01*
X159030044Y-77910728D01*
X159060943Y-77894212D01*
X159094478Y-77884039D01*
X159135487Y-77880000D01*
X159914513Y-77880000D01*
X159955522Y-77884039D01*
X159955522Y-77884039D01*
G37*
G36*
X162005522Y-77884039D02*
G01*
X162039057Y-77894212D01*
X162069956Y-77910728D01*
X162097043Y-77932957D01*
X162119272Y-77960044D01*
X162135788Y-77990943D01*
X162145961Y-78024478D01*
X162150000Y-78065487D01*
X162150000Y-79094513D01*
X162145961Y-79135522D01*
X162135788Y-79169057D01*
X162119272Y-79199956D01*
X162097043Y-79227043D01*
X162069956Y-79249272D01*
X162039057Y-79265788D01*
X162005522Y-79275961D01*
X161964513Y-79280000D01*
X161185487Y-79280000D01*
X161144478Y-79275961D01*
X161110943Y-79265788D01*
X161080044Y-79249272D01*
X161052957Y-79227043D01*
X161030728Y-79199956D01*
X161014212Y-79169057D01*
X161004039Y-79135522D01*
X161000000Y-79094513D01*
X161000000Y-78065487D01*
X161004039Y-78024478D01*
X161014212Y-77990943D01*
X161030728Y-77960044D01*
X161052957Y-77932957D01*
X161080044Y-77910728D01*
X161110943Y-77894212D01*
X161144478Y-77884039D01*
X161185487Y-77880000D01*
X161964513Y-77880000D01*
X162005522Y-77884039D01*
X162005522Y-77884039D01*
G37*
G36*
X151000000Y-78395000D02*
G01*
X149000000Y-78395000D01*
X149000000Y-77495000D01*
X151000000Y-77495000D01*
X151000000Y-78395000D01*
X151000000Y-78395000D01*
G37*
G36*
X134000000Y-78395000D02*
G01*
X132000000Y-78395000D01*
X132000000Y-77495000D01*
X134000000Y-77495000D01*
X134000000Y-78395000D01*
X134000000Y-78395000D01*
G37*
G36*
X129747522Y-76614039D02*
G01*
X129781057Y-76624212D01*
X129811956Y-76640728D01*
X129839043Y-76662957D01*
X129861272Y-76690044D01*
X129877788Y-76720943D01*
X129887961Y-76754478D01*
X129892000Y-76795487D01*
X129892000Y-77824513D01*
X129887961Y-77865522D01*
X129877788Y-77899057D01*
X129861272Y-77929956D01*
X129839043Y-77957043D01*
X129811956Y-77979272D01*
X129781057Y-77995788D01*
X129747522Y-78005961D01*
X129706513Y-78010000D01*
X128927487Y-78010000D01*
X128886478Y-78005961D01*
X128852943Y-77995788D01*
X128822044Y-77979272D01*
X128794957Y-77957043D01*
X128772728Y-77929956D01*
X128756212Y-77899057D01*
X128746039Y-77865522D01*
X128742000Y-77824513D01*
X128742000Y-76795487D01*
X128746039Y-76754478D01*
X128756212Y-76720943D01*
X128772728Y-76690044D01*
X128794957Y-76662957D01*
X128822044Y-76640728D01*
X128852943Y-76624212D01*
X128886478Y-76614039D01*
X128927487Y-76610000D01*
X129706513Y-76610000D01*
X129747522Y-76614039D01*
X129747522Y-76614039D01*
G37*
G36*
X127697522Y-76614039D02*
G01*
X127731057Y-76624212D01*
X127761956Y-76640728D01*
X127789043Y-76662957D01*
X127811272Y-76690044D01*
X127827788Y-76720943D01*
X127837961Y-76754478D01*
X127842000Y-76795487D01*
X127842000Y-77824513D01*
X127837961Y-77865522D01*
X127827788Y-77899057D01*
X127811272Y-77929956D01*
X127789043Y-77957043D01*
X127761956Y-77979272D01*
X127731057Y-77995788D01*
X127697522Y-78005961D01*
X127656513Y-78010000D01*
X126877487Y-78010000D01*
X126836478Y-78005961D01*
X126802943Y-77995788D01*
X126772044Y-77979272D01*
X126744957Y-77957043D01*
X126722728Y-77929956D01*
X126706212Y-77899057D01*
X126696039Y-77865522D01*
X126692000Y-77824513D01*
X126692000Y-76795487D01*
X126696039Y-76754478D01*
X126706212Y-76720943D01*
X126722728Y-76690044D01*
X126744957Y-76662957D01*
X126772044Y-76640728D01*
X126802943Y-76624212D01*
X126836478Y-76614039D01*
X126877487Y-76610000D01*
X127656513Y-76610000D01*
X127697522Y-76614039D01*
X127697522Y-76614039D01*
G37*
G36*
X134000000Y-77125000D02*
G01*
X132000000Y-77125000D01*
X132000000Y-76225000D01*
X134000000Y-76225000D01*
X134000000Y-77125000D01*
X134000000Y-77125000D01*
G37*
G36*
X151000000Y-77125000D02*
G01*
X149000000Y-77125000D01*
X149000000Y-76225000D01*
X151000000Y-76225000D01*
X151000000Y-77125000D01*
X151000000Y-77125000D01*
G37*
G36*
X165796627Y-75202299D02*
G01*
X165854983Y-75220001D01*
X165956855Y-75250903D01*
X165956857Y-75250904D01*
X166104518Y-75329831D01*
X166233949Y-75436051D01*
X166340169Y-75565482D01*
X166419096Y-75713143D01*
X166467701Y-75873373D01*
X166484112Y-76040000D01*
X166467701Y-76206627D01*
X166458872Y-76235732D01*
X166432097Y-76324000D01*
X166419096Y-76366857D01*
X166340169Y-76514518D01*
X166233949Y-76643949D01*
X166104518Y-76750169D01*
X165990287Y-76811227D01*
X165956855Y-76829097D01*
X165876742Y-76853399D01*
X165796627Y-76877701D01*
X165671752Y-76890000D01*
X165588248Y-76890000D01*
X165463373Y-76877701D01*
X165383258Y-76853399D01*
X165303145Y-76829097D01*
X165269713Y-76811227D01*
X165155482Y-76750169D01*
X165026051Y-76643949D01*
X164919831Y-76514518D01*
X164840904Y-76366857D01*
X164827904Y-76324000D01*
X164801128Y-76235732D01*
X164792299Y-76206627D01*
X164775888Y-76040000D01*
X164792299Y-75873373D01*
X164840904Y-75713143D01*
X164919831Y-75565482D01*
X165026051Y-75436051D01*
X165155482Y-75329831D01*
X165303143Y-75250904D01*
X165303145Y-75250903D01*
X165405017Y-75220001D01*
X165463373Y-75202299D01*
X165588248Y-75190000D01*
X165671752Y-75190000D01*
X165796627Y-75202299D01*
X165796627Y-75202299D01*
G37*
G36*
X99044696Y-76175313D02*
G01*
X99051620Y-76177413D01*
X99057999Y-76180823D01*
X99063589Y-76185411D01*
X99068177Y-76191001D01*
X99071587Y-76197380D01*
X99073687Y-76204304D01*
X99075000Y-76217638D01*
X99075000Y-76530362D01*
X99073687Y-76543696D01*
X99071587Y-76550620D01*
X99068177Y-76556999D01*
X99063589Y-76562589D01*
X99057999Y-76567177D01*
X99051620Y-76570587D01*
X99044696Y-76572687D01*
X99031362Y-76574000D01*
X98318638Y-76574000D01*
X98305304Y-76572687D01*
X98298380Y-76570587D01*
X98292001Y-76567177D01*
X98286411Y-76562589D01*
X98281823Y-76556999D01*
X98278413Y-76550620D01*
X98276313Y-76543696D01*
X98275000Y-76530362D01*
X98275000Y-76217638D01*
X98276313Y-76204304D01*
X98278413Y-76197380D01*
X98281823Y-76191001D01*
X98286411Y-76185411D01*
X98292001Y-76180823D01*
X98298380Y-76177413D01*
X98305304Y-76175313D01*
X98318638Y-76174000D01*
X99031362Y-76174000D01*
X99044696Y-76175313D01*
X99044696Y-76175313D01*
G37*
G36*
X97840731Y-74177795D02*
G01*
X97871879Y-74187244D01*
X97900593Y-74202592D01*
X97925757Y-74223243D01*
X97946408Y-74248407D01*
X97961756Y-74277121D01*
X97971205Y-74308269D01*
X97975000Y-74346806D01*
X97975000Y-76401194D01*
X97971205Y-76439731D01*
X97961756Y-76470879D01*
X97946408Y-76499593D01*
X97925757Y-76524757D01*
X97900593Y-76545408D01*
X97871879Y-76560756D01*
X97840731Y-76570205D01*
X97802194Y-76574000D01*
X96647806Y-76574000D01*
X96609269Y-76570205D01*
X96578121Y-76560756D01*
X96549407Y-76545408D01*
X96524243Y-76524757D01*
X96503592Y-76499593D01*
X96488244Y-76470879D01*
X96478795Y-76439731D01*
X96475000Y-76401194D01*
X96475000Y-74346806D01*
X96478795Y-74308269D01*
X96488244Y-74277121D01*
X96503592Y-74248407D01*
X96524243Y-74223243D01*
X96549407Y-74202592D01*
X96578121Y-74187244D01*
X96609269Y-74177795D01*
X96647806Y-74174000D01*
X97802194Y-74174000D01*
X97840731Y-74177795D01*
X97840731Y-74177795D01*
G37*
G36*
X96144696Y-76175313D02*
G01*
X96151620Y-76177413D01*
X96157999Y-76180823D01*
X96163589Y-76185411D01*
X96168177Y-76191001D01*
X96171587Y-76197380D01*
X96173687Y-76204304D01*
X96175000Y-76217638D01*
X96175000Y-76530362D01*
X96173687Y-76543696D01*
X96171587Y-76550620D01*
X96168177Y-76556999D01*
X96163589Y-76562589D01*
X96157999Y-76567177D01*
X96151620Y-76570587D01*
X96144696Y-76572687D01*
X96131362Y-76574000D01*
X95418638Y-76574000D01*
X95405304Y-76572687D01*
X95398380Y-76570587D01*
X95392001Y-76567177D01*
X95386411Y-76562589D01*
X95381823Y-76556999D01*
X95378413Y-76550620D01*
X95376313Y-76543696D01*
X95375000Y-76530362D01*
X95375000Y-76217638D01*
X95376313Y-76204304D01*
X95378413Y-76197380D01*
X95381823Y-76191001D01*
X95386411Y-76185411D01*
X95392001Y-76180823D01*
X95398380Y-76177413D01*
X95405304Y-76175313D01*
X95418638Y-76174000D01*
X96131362Y-76174000D01*
X96144696Y-76175313D01*
X96144696Y-76175313D01*
G37*
G36*
X154805000Y-76400000D02*
G01*
X153255000Y-76400000D01*
X153255000Y-75100000D01*
X154805000Y-75100000D01*
X154805000Y-76400000D01*
X154805000Y-76400000D01*
G37*
G36*
X162765000Y-76400000D02*
G01*
X161215000Y-76400000D01*
X161215000Y-75100000D01*
X162765000Y-75100000D01*
X162765000Y-76400000D01*
X162765000Y-76400000D01*
G37*
G36*
X82899919Y-72728596D02*
G01*
X82998880Y-72758616D01*
X83018389Y-72769044D01*
X83090086Y-72807367D01*
X83110909Y-72824456D01*
X83170028Y-72872972D01*
X83218544Y-72932091D01*
X83235633Y-72952914D01*
X83235634Y-72952916D01*
X83284384Y-73044120D01*
X83314404Y-73143081D01*
X83324540Y-73246000D01*
X83314404Y-73348919D01*
X83284384Y-73447880D01*
X83284383Y-73447881D01*
X83235633Y-73539086D01*
X83218544Y-73559909D01*
X83170028Y-73619028D01*
X83128006Y-73653513D01*
X83090086Y-73684633D01*
X83090084Y-73684634D01*
X82998880Y-73733384D01*
X82906577Y-73761384D01*
X82883938Y-73770761D01*
X82863564Y-73784375D01*
X82846237Y-73801702D01*
X82832623Y-73822076D01*
X82823246Y-73844715D01*
X82818466Y-73868748D01*
X82818466Y-73893253D01*
X82823247Y-73917286D01*
X82832624Y-73939925D01*
X82846238Y-73960299D01*
X82863565Y-73977626D01*
X82883939Y-73991240D01*
X82906577Y-74000616D01*
X82998880Y-74028616D01*
X83059359Y-74060943D01*
X83090086Y-74077367D01*
X83104297Y-74089030D01*
X83170028Y-74142972D01*
X83209443Y-74191001D01*
X83235633Y-74222914D01*
X83235634Y-74222916D01*
X83284384Y-74314120D01*
X83314404Y-74413081D01*
X83324540Y-74516000D01*
X83314404Y-74618919D01*
X83284384Y-74717880D01*
X83284383Y-74717881D01*
X83235633Y-74809086D01*
X83218544Y-74829909D01*
X83170028Y-74889028D01*
X83110909Y-74937544D01*
X83090086Y-74954633D01*
X82998881Y-75003383D01*
X82956017Y-75016385D01*
X82933383Y-75025762D01*
X82913008Y-75039376D01*
X82895681Y-75056703D01*
X82882068Y-75077077D01*
X82872690Y-75099716D01*
X82867910Y-75123749D01*
X82867910Y-75148253D01*
X82872690Y-75172287D01*
X82882068Y-75194925D01*
X82895682Y-75215300D01*
X82913009Y-75232627D01*
X82933383Y-75246240D01*
X82956022Y-75255618D01*
X82992307Y-75261000D01*
X83322000Y-75261000D01*
X83322000Y-76311000D01*
X81822000Y-76311000D01*
X81822000Y-75261000D01*
X82151693Y-75261000D01*
X82176079Y-75258598D01*
X82199528Y-75251485D01*
X82221139Y-75239934D01*
X82240081Y-75224389D01*
X82255626Y-75205447D01*
X82267177Y-75183836D01*
X82274290Y-75160387D01*
X82276692Y-75136001D01*
X82274290Y-75111615D01*
X82267177Y-75088166D01*
X82255626Y-75066555D01*
X82240081Y-75047613D01*
X82221139Y-75032068D01*
X82187981Y-75016385D01*
X82145119Y-75003383D01*
X82053914Y-74954633D01*
X82033091Y-74937544D01*
X81973972Y-74889028D01*
X81925456Y-74829909D01*
X81908367Y-74809086D01*
X81859617Y-74717881D01*
X81859616Y-74717880D01*
X81829596Y-74618919D01*
X81819460Y-74516000D01*
X81829596Y-74413081D01*
X81859616Y-74314120D01*
X81908366Y-74222916D01*
X81908367Y-74222914D01*
X81934557Y-74191001D01*
X81973972Y-74142972D01*
X82039703Y-74089030D01*
X82053914Y-74077367D01*
X82084641Y-74060943D01*
X82145120Y-74028616D01*
X82237423Y-74000616D01*
X82260062Y-73991239D01*
X82280436Y-73977625D01*
X82297763Y-73960298D01*
X82311377Y-73939924D01*
X82320754Y-73917285D01*
X82325534Y-73893252D01*
X82325534Y-73868747D01*
X82320753Y-73844714D01*
X82311376Y-73822075D01*
X82297762Y-73801701D01*
X82280435Y-73784374D01*
X82260061Y-73770760D01*
X82237423Y-73761384D01*
X82145120Y-73733384D01*
X82053916Y-73684634D01*
X82053914Y-73684633D01*
X82015994Y-73653513D01*
X81973972Y-73619028D01*
X81925456Y-73559909D01*
X81908367Y-73539086D01*
X81859617Y-73447881D01*
X81859616Y-73447880D01*
X81829596Y-73348919D01*
X81819460Y-73246000D01*
X81829596Y-73143081D01*
X81859616Y-73044120D01*
X81908366Y-72952916D01*
X81908367Y-72952914D01*
X81925456Y-72932091D01*
X81973972Y-72872972D01*
X82033091Y-72824456D01*
X82053914Y-72807367D01*
X82125611Y-72769044D01*
X82145120Y-72758616D01*
X82244081Y-72728596D01*
X82321208Y-72721000D01*
X82822792Y-72721000D01*
X82899919Y-72728596D01*
X82899919Y-72728596D01*
G37*
G36*
X91712323Y-75684833D02*
G01*
X91714551Y-75685509D01*
X91716606Y-75686608D01*
X91718411Y-75688089D01*
X91719892Y-75689894D01*
X91720991Y-75691949D01*
X91721667Y-75694177D01*
X91722500Y-75702640D01*
X91722500Y-75965360D01*
X91721667Y-75973823D01*
X91720991Y-75976051D01*
X91719892Y-75978106D01*
X91718411Y-75979911D01*
X91716606Y-75981392D01*
X91714551Y-75982491D01*
X91712323Y-75983167D01*
X91703860Y-75984000D01*
X90566140Y-75984000D01*
X90557677Y-75983167D01*
X90555449Y-75982491D01*
X90553394Y-75981392D01*
X90551589Y-75979911D01*
X90550108Y-75978106D01*
X90549009Y-75976051D01*
X90548333Y-75973823D01*
X90547500Y-75965360D01*
X90547500Y-75702640D01*
X90548333Y-75694177D01*
X90549009Y-75691949D01*
X90550108Y-75689894D01*
X90551589Y-75688089D01*
X90553394Y-75686608D01*
X90555449Y-75685509D01*
X90557677Y-75684833D01*
X90566140Y-75684000D01*
X91703860Y-75684000D01*
X91712323Y-75684833D01*
X91712323Y-75684833D01*
G37*
G36*
X93287323Y-75684833D02*
G01*
X93289551Y-75685509D01*
X93291606Y-75686608D01*
X93293411Y-75688089D01*
X93294892Y-75689894D01*
X93295991Y-75691949D01*
X93296667Y-75694177D01*
X93297500Y-75702640D01*
X93297500Y-75965360D01*
X93296667Y-75973823D01*
X93295991Y-75976051D01*
X93294892Y-75978106D01*
X93293411Y-75979911D01*
X93291606Y-75981392D01*
X93289551Y-75982491D01*
X93287323Y-75983167D01*
X93278860Y-75984000D01*
X92141140Y-75984000D01*
X92132677Y-75983167D01*
X92130449Y-75982491D01*
X92128394Y-75981392D01*
X92126589Y-75979911D01*
X92125108Y-75978106D01*
X92124009Y-75976051D01*
X92123333Y-75973823D01*
X92122500Y-75965360D01*
X92122500Y-75702640D01*
X92123333Y-75694177D01*
X92124009Y-75691949D01*
X92125108Y-75689894D01*
X92126589Y-75688089D01*
X92128394Y-75686608D01*
X92130449Y-75685509D01*
X92132677Y-75684833D01*
X92141140Y-75684000D01*
X93278860Y-75684000D01*
X93287323Y-75684833D01*
X93287323Y-75684833D01*
G37*
G36*
X134000000Y-75855000D02*
G01*
X132000000Y-75855000D01*
X132000000Y-74955000D01*
X134000000Y-74955000D01*
X134000000Y-75855000D01*
X134000000Y-75855000D01*
G37*
G36*
X151000000Y-75855000D02*
G01*
X149000000Y-75855000D01*
X149000000Y-74955000D01*
X151000000Y-74955000D01*
X151000000Y-75855000D01*
X151000000Y-75855000D01*
G37*
G36*
X99044696Y-75175313D02*
G01*
X99051620Y-75177413D01*
X99057999Y-75180823D01*
X99063589Y-75185411D01*
X99068177Y-75191001D01*
X99071587Y-75197380D01*
X99073687Y-75204304D01*
X99075000Y-75217638D01*
X99075000Y-75530362D01*
X99073687Y-75543696D01*
X99071587Y-75550620D01*
X99068177Y-75556999D01*
X99063589Y-75562589D01*
X99057999Y-75567177D01*
X99051620Y-75570587D01*
X99044696Y-75572687D01*
X99031362Y-75574000D01*
X98318638Y-75574000D01*
X98305304Y-75572687D01*
X98298380Y-75570587D01*
X98292001Y-75567177D01*
X98286411Y-75562589D01*
X98281823Y-75556999D01*
X98278413Y-75550620D01*
X98276313Y-75543696D01*
X98275000Y-75530362D01*
X98275000Y-75217638D01*
X98276313Y-75204304D01*
X98278413Y-75197380D01*
X98281823Y-75191001D01*
X98286411Y-75185411D01*
X98292001Y-75180823D01*
X98298380Y-75177413D01*
X98305304Y-75175313D01*
X98318638Y-75174000D01*
X99031362Y-75174000D01*
X99044696Y-75175313D01*
X99044696Y-75175313D01*
G37*
G36*
X96144696Y-75175313D02*
G01*
X96151620Y-75177413D01*
X96157999Y-75180823D01*
X96163589Y-75185411D01*
X96168177Y-75191001D01*
X96171587Y-75197380D01*
X96173687Y-75204304D01*
X96175000Y-75217638D01*
X96175000Y-75530362D01*
X96173687Y-75543696D01*
X96171587Y-75550620D01*
X96168177Y-75556999D01*
X96163589Y-75562589D01*
X96157999Y-75567177D01*
X96151620Y-75570587D01*
X96144696Y-75572687D01*
X96131362Y-75574000D01*
X95418638Y-75574000D01*
X95405304Y-75572687D01*
X95398380Y-75570587D01*
X95392001Y-75567177D01*
X95386411Y-75562589D01*
X95381823Y-75556999D01*
X95378413Y-75550620D01*
X95376313Y-75543696D01*
X95375000Y-75530362D01*
X95375000Y-75217638D01*
X95376313Y-75204304D01*
X95378413Y-75197380D01*
X95381823Y-75191001D01*
X95386411Y-75185411D01*
X95392001Y-75180823D01*
X95398380Y-75177413D01*
X95405304Y-75175313D01*
X95418638Y-75174000D01*
X96131362Y-75174000D01*
X96144696Y-75175313D01*
X96144696Y-75175313D01*
G37*
G36*
X129747522Y-74074039D02*
G01*
X129781057Y-74084212D01*
X129811956Y-74100728D01*
X129839043Y-74122957D01*
X129861272Y-74150044D01*
X129877788Y-74180943D01*
X129887961Y-74214478D01*
X129892000Y-74255487D01*
X129892000Y-75284513D01*
X129887961Y-75325522D01*
X129877788Y-75359057D01*
X129861272Y-75389956D01*
X129839043Y-75417043D01*
X129811956Y-75439272D01*
X129781057Y-75455788D01*
X129747522Y-75465961D01*
X129706513Y-75470000D01*
X128927487Y-75470000D01*
X128886478Y-75465961D01*
X128852943Y-75455788D01*
X128822044Y-75439272D01*
X128794957Y-75417043D01*
X128772728Y-75389956D01*
X128756212Y-75359057D01*
X128746039Y-75325522D01*
X128742000Y-75284513D01*
X128742000Y-74255487D01*
X128746039Y-74214478D01*
X128756212Y-74180943D01*
X128772728Y-74150044D01*
X128794957Y-74122957D01*
X128822044Y-74100728D01*
X128852943Y-74084212D01*
X128886478Y-74074039D01*
X128927487Y-74070000D01*
X129706513Y-74070000D01*
X129747522Y-74074039D01*
X129747522Y-74074039D01*
G37*
G36*
X127697522Y-74074039D02*
G01*
X127731057Y-74084212D01*
X127761956Y-74100728D01*
X127789043Y-74122957D01*
X127811272Y-74150044D01*
X127827788Y-74180943D01*
X127837961Y-74214478D01*
X127842000Y-74255487D01*
X127842000Y-75284513D01*
X127837961Y-75325522D01*
X127827788Y-75359057D01*
X127811272Y-75389956D01*
X127789043Y-75417043D01*
X127761956Y-75439272D01*
X127731057Y-75455788D01*
X127697522Y-75465961D01*
X127656513Y-75470000D01*
X126877487Y-75470000D01*
X126836478Y-75465961D01*
X126802943Y-75455788D01*
X126772044Y-75439272D01*
X126744957Y-75417043D01*
X126722728Y-75389956D01*
X126706212Y-75359057D01*
X126696039Y-75325522D01*
X126692000Y-75284513D01*
X126692000Y-74255487D01*
X126696039Y-74214478D01*
X126706212Y-74180943D01*
X126722728Y-74150044D01*
X126744957Y-74122957D01*
X126772044Y-74100728D01*
X126802943Y-74084212D01*
X126836478Y-74074039D01*
X126877487Y-74070000D01*
X127656513Y-74070000D01*
X127697522Y-74074039D01*
X127697522Y-74074039D01*
G37*
G36*
X93287323Y-75034833D02*
G01*
X93289551Y-75035509D01*
X93291606Y-75036608D01*
X93293411Y-75038089D01*
X93294892Y-75039894D01*
X93295991Y-75041949D01*
X93296667Y-75044177D01*
X93297500Y-75052640D01*
X93297500Y-75315360D01*
X93296667Y-75323823D01*
X93295991Y-75326051D01*
X93294892Y-75328106D01*
X93293411Y-75329911D01*
X93291606Y-75331392D01*
X93289551Y-75332491D01*
X93287323Y-75333167D01*
X93278860Y-75334000D01*
X92141140Y-75334000D01*
X92132677Y-75333167D01*
X92130449Y-75332491D01*
X92128394Y-75331392D01*
X92126589Y-75329911D01*
X92125108Y-75328106D01*
X92124009Y-75326051D01*
X92123333Y-75323823D01*
X92122500Y-75315360D01*
X92122500Y-75052640D01*
X92123333Y-75044177D01*
X92124009Y-75041949D01*
X92125108Y-75039894D01*
X92126589Y-75038089D01*
X92128394Y-75036608D01*
X92130449Y-75035509D01*
X92132677Y-75034833D01*
X92141140Y-75034000D01*
X93278860Y-75034000D01*
X93287323Y-75034833D01*
X93287323Y-75034833D01*
G37*
G36*
X91712323Y-75034833D02*
G01*
X91714551Y-75035509D01*
X91716606Y-75036608D01*
X91718411Y-75038089D01*
X91719892Y-75039894D01*
X91720991Y-75041949D01*
X91721667Y-75044177D01*
X91722500Y-75052640D01*
X91722500Y-75315360D01*
X91721667Y-75323823D01*
X91720991Y-75326051D01*
X91719892Y-75328106D01*
X91718411Y-75329911D01*
X91716606Y-75331392D01*
X91714551Y-75332491D01*
X91712323Y-75333167D01*
X91703860Y-75334000D01*
X90566140Y-75334000D01*
X90557677Y-75333167D01*
X90555449Y-75332491D01*
X90553394Y-75331392D01*
X90551589Y-75329911D01*
X90550108Y-75328106D01*
X90549009Y-75326051D01*
X90548333Y-75323823D01*
X90547500Y-75315360D01*
X90547500Y-75052640D01*
X90548333Y-75044177D01*
X90549009Y-75041949D01*
X90550108Y-75039894D01*
X90551589Y-75038089D01*
X90553394Y-75036608D01*
X90555449Y-75035509D01*
X90557677Y-75034833D01*
X90566140Y-75034000D01*
X91703860Y-75034000D01*
X91712323Y-75034833D01*
X91712323Y-75034833D01*
G37*
G36*
X86429522Y-73954039D02*
G01*
X86463057Y-73964212D01*
X86493956Y-73980728D01*
X86521043Y-74002957D01*
X86543272Y-74030044D01*
X86559788Y-74060943D01*
X86569961Y-74094478D01*
X86574000Y-74135487D01*
X86574000Y-74914513D01*
X86569961Y-74955522D01*
X86559788Y-74989057D01*
X86543272Y-75019956D01*
X86521043Y-75047043D01*
X86493956Y-75069272D01*
X86463057Y-75085788D01*
X86429522Y-75095961D01*
X86388513Y-75100000D01*
X85359487Y-75100000D01*
X85318478Y-75095961D01*
X85284943Y-75085788D01*
X85254044Y-75069272D01*
X85226957Y-75047043D01*
X85204728Y-75019956D01*
X85188212Y-74989057D01*
X85178039Y-74955522D01*
X85174000Y-74914513D01*
X85174000Y-74135487D01*
X85178039Y-74094478D01*
X85188212Y-74060943D01*
X85204728Y-74030044D01*
X85226957Y-74002957D01*
X85254044Y-73980728D01*
X85284943Y-73964212D01*
X85318478Y-73954039D01*
X85359487Y-73950000D01*
X86388513Y-73950000D01*
X86429522Y-73954039D01*
X86429522Y-73954039D01*
G37*
G36*
X91712323Y-74384833D02*
G01*
X91714551Y-74385509D01*
X91716606Y-74386608D01*
X91718411Y-74388089D01*
X91719892Y-74389894D01*
X91720991Y-74391949D01*
X91721667Y-74394177D01*
X91722500Y-74402640D01*
X91722500Y-74665360D01*
X91721667Y-74673823D01*
X91720991Y-74676051D01*
X91719892Y-74678106D01*
X91718411Y-74679911D01*
X91716606Y-74681392D01*
X91714551Y-74682491D01*
X91712323Y-74683167D01*
X91703860Y-74684000D01*
X90566140Y-74684000D01*
X90557677Y-74683167D01*
X90555449Y-74682491D01*
X90553394Y-74681392D01*
X90551589Y-74679911D01*
X90550108Y-74678106D01*
X90549009Y-74676051D01*
X90548333Y-74673823D01*
X90547500Y-74665360D01*
X90547500Y-74402640D01*
X90548333Y-74394177D01*
X90549009Y-74391949D01*
X90550108Y-74389894D01*
X90551589Y-74388089D01*
X90553394Y-74386608D01*
X90555449Y-74385509D01*
X90557677Y-74384833D01*
X90566140Y-74384000D01*
X91703860Y-74384000D01*
X91712323Y-74384833D01*
X91712323Y-74384833D01*
G37*
G36*
X93287323Y-74384833D02*
G01*
X93289551Y-74385509D01*
X93291606Y-74386608D01*
X93293411Y-74388089D01*
X93294892Y-74389894D01*
X93295991Y-74391949D01*
X93296667Y-74394177D01*
X93297500Y-74402640D01*
X93297500Y-74665360D01*
X93296667Y-74673823D01*
X93295991Y-74676051D01*
X93294892Y-74678106D01*
X93293411Y-74679911D01*
X93291606Y-74681392D01*
X93289551Y-74682491D01*
X93287323Y-74683167D01*
X93278860Y-74684000D01*
X92141140Y-74684000D01*
X92132677Y-74683167D01*
X92130449Y-74682491D01*
X92128394Y-74681392D01*
X92126589Y-74679911D01*
X92125108Y-74678106D01*
X92124009Y-74676051D01*
X92123333Y-74673823D01*
X92122500Y-74665360D01*
X92122500Y-74402640D01*
X92123333Y-74394177D01*
X92124009Y-74391949D01*
X92125108Y-74389894D01*
X92126589Y-74388089D01*
X92128394Y-74386608D01*
X92130449Y-74385509D01*
X92132677Y-74384833D01*
X92141140Y-74384000D01*
X93278860Y-74384000D01*
X93287323Y-74384833D01*
X93287323Y-74384833D01*
G37*
G36*
X151000000Y-74585000D02*
G01*
X149000000Y-74585000D01*
X149000000Y-73685000D01*
X151000000Y-73685000D01*
X151000000Y-74585000D01*
X151000000Y-74585000D01*
G37*
G36*
X134000000Y-74585000D02*
G01*
X132000000Y-74585000D01*
X132000000Y-73685000D01*
X134000000Y-73685000D01*
X134000000Y-74585000D01*
X134000000Y-74585000D01*
G37*
G36*
X99044696Y-74175313D02*
G01*
X99051620Y-74177413D01*
X99057999Y-74180823D01*
X99063589Y-74185411D01*
X99068177Y-74191001D01*
X99071587Y-74197380D01*
X99073687Y-74204304D01*
X99075000Y-74217638D01*
X99075000Y-74530362D01*
X99073687Y-74543696D01*
X99071587Y-74550620D01*
X99068177Y-74556999D01*
X99063589Y-74562589D01*
X99057999Y-74567177D01*
X99051620Y-74570587D01*
X99044696Y-74572687D01*
X99031362Y-74574000D01*
X98318638Y-74574000D01*
X98305304Y-74572687D01*
X98298380Y-74570587D01*
X98292001Y-74567177D01*
X98286411Y-74562589D01*
X98281823Y-74556999D01*
X98278413Y-74550620D01*
X98276313Y-74543696D01*
X98275000Y-74530362D01*
X98275000Y-74217638D01*
X98276313Y-74204304D01*
X98278413Y-74197380D01*
X98281823Y-74191001D01*
X98286411Y-74185411D01*
X98292001Y-74180823D01*
X98298380Y-74177413D01*
X98305304Y-74175313D01*
X98318638Y-74174000D01*
X99031362Y-74174000D01*
X99044696Y-74175313D01*
X99044696Y-74175313D01*
G37*
G36*
X96144696Y-74175313D02*
G01*
X96151620Y-74177413D01*
X96157999Y-74180823D01*
X96163589Y-74185411D01*
X96168177Y-74191001D01*
X96171587Y-74197380D01*
X96173687Y-74204304D01*
X96175000Y-74217638D01*
X96175000Y-74530362D01*
X96173687Y-74543696D01*
X96171587Y-74550620D01*
X96168177Y-74556999D01*
X96163589Y-74562589D01*
X96157999Y-74567177D01*
X96151620Y-74570587D01*
X96144696Y-74572687D01*
X96131362Y-74574000D01*
X95418638Y-74574000D01*
X95405304Y-74572687D01*
X95398380Y-74570587D01*
X95392001Y-74567177D01*
X95386411Y-74562589D01*
X95381823Y-74556999D01*
X95378413Y-74550620D01*
X95376313Y-74543696D01*
X95375000Y-74530362D01*
X95375000Y-74217638D01*
X95376313Y-74204304D01*
X95378413Y-74197380D01*
X95381823Y-74191001D01*
X95386411Y-74185411D01*
X95392001Y-74180823D01*
X95398380Y-74177413D01*
X95405304Y-74175313D01*
X95418638Y-74174000D01*
X96131362Y-74174000D01*
X96144696Y-74175313D01*
X96144696Y-74175313D01*
G37*
G36*
X122635522Y-73058039D02*
G01*
X122669057Y-73068212D01*
X122699956Y-73084728D01*
X122727043Y-73106957D01*
X122749272Y-73134044D01*
X122765788Y-73164943D01*
X122775961Y-73198478D01*
X122780000Y-73239487D01*
X122780000Y-74268513D01*
X122775961Y-74309522D01*
X122765788Y-74343057D01*
X122749272Y-74373956D01*
X122727043Y-74401043D01*
X122699956Y-74423272D01*
X122669057Y-74439788D01*
X122635522Y-74449961D01*
X122594513Y-74454000D01*
X121815487Y-74454000D01*
X121774478Y-74449961D01*
X121740943Y-74439788D01*
X121710044Y-74423272D01*
X121682957Y-74401043D01*
X121660728Y-74373956D01*
X121644212Y-74343057D01*
X121634039Y-74309522D01*
X121630000Y-74268513D01*
X121630000Y-73239487D01*
X121634039Y-73198478D01*
X121644212Y-73164943D01*
X121660728Y-73134044D01*
X121682957Y-73106957D01*
X121710044Y-73084728D01*
X121740943Y-73068212D01*
X121774478Y-73058039D01*
X121815487Y-73054000D01*
X122594513Y-73054000D01*
X122635522Y-73058039D01*
X122635522Y-73058039D01*
G37*
G36*
X120585522Y-73058039D02*
G01*
X120619057Y-73068212D01*
X120649956Y-73084728D01*
X120677043Y-73106957D01*
X120699272Y-73134044D01*
X120715788Y-73164943D01*
X120725961Y-73198478D01*
X120730000Y-73239487D01*
X120730000Y-74268513D01*
X120725961Y-74309522D01*
X120715788Y-74343057D01*
X120699272Y-74373956D01*
X120677043Y-74401043D01*
X120649956Y-74423272D01*
X120619057Y-74439788D01*
X120585522Y-74449961D01*
X120544513Y-74454000D01*
X119765487Y-74454000D01*
X119724478Y-74449961D01*
X119690943Y-74439788D01*
X119660044Y-74423272D01*
X119632957Y-74401043D01*
X119610728Y-74373956D01*
X119594212Y-74343057D01*
X119584039Y-74309522D01*
X119580000Y-74268513D01*
X119580000Y-73239487D01*
X119584039Y-73198478D01*
X119594212Y-73164943D01*
X119610728Y-73134044D01*
X119632957Y-73106957D01*
X119660044Y-73084728D01*
X119690943Y-73068212D01*
X119724478Y-73058039D01*
X119765487Y-73054000D01*
X120544513Y-73054000D01*
X120585522Y-73058039D01*
X120585522Y-73058039D01*
G37*
G36*
X166480000Y-74350000D02*
G01*
X164780000Y-74350000D01*
X164780000Y-72650000D01*
X166480000Y-72650000D01*
X166480000Y-74350000D01*
X166480000Y-74350000D01*
G37*
G36*
X111575522Y-72693039D02*
G01*
X111609057Y-72703212D01*
X111639956Y-72719728D01*
X111667043Y-72741957D01*
X111689272Y-72769044D01*
X111705788Y-72799943D01*
X111715961Y-72833478D01*
X111720000Y-72874487D01*
X111720000Y-73653513D01*
X111715961Y-73694522D01*
X111705788Y-73728057D01*
X111689272Y-73758956D01*
X111667043Y-73786043D01*
X111639956Y-73808272D01*
X111609057Y-73824788D01*
X111575522Y-73834961D01*
X111534513Y-73839000D01*
X110505487Y-73839000D01*
X110464478Y-73834961D01*
X110430943Y-73824788D01*
X110400044Y-73808272D01*
X110372957Y-73786043D01*
X110350728Y-73758956D01*
X110334212Y-73728057D01*
X110324039Y-73694522D01*
X110320000Y-73653513D01*
X110320000Y-72874487D01*
X110324039Y-72833478D01*
X110334212Y-72799943D01*
X110350728Y-72769044D01*
X110372957Y-72741957D01*
X110400044Y-72719728D01*
X110430943Y-72703212D01*
X110464478Y-72693039D01*
X110505487Y-72689000D01*
X111534513Y-72689000D01*
X111575522Y-72693039D01*
X111575522Y-72693039D01*
G37*
G36*
X151000000Y-73315000D02*
G01*
X149000000Y-73315000D01*
X149000000Y-72415000D01*
X151000000Y-72415000D01*
X151000000Y-73315000D01*
X151000000Y-73315000D01*
G37*
G36*
X134000000Y-73315000D02*
G01*
X132000000Y-73315000D01*
X132000000Y-72415000D01*
X134000000Y-72415000D01*
X134000000Y-73315000D01*
X134000000Y-73315000D01*
G37*
G36*
X117595000Y-73124000D02*
G01*
X116035000Y-73124000D01*
X116035000Y-72474000D01*
X117595000Y-72474000D01*
X117595000Y-73124000D01*
X117595000Y-73124000D01*
G37*
G36*
X114895000Y-73124000D02*
G01*
X113335000Y-73124000D01*
X113335000Y-72474000D01*
X114895000Y-72474000D01*
X114895000Y-73124000D01*
X114895000Y-73124000D01*
G37*
G36*
X86429522Y-71904039D02*
G01*
X86463057Y-71914212D01*
X86493956Y-71930728D01*
X86521043Y-71952957D01*
X86543272Y-71980044D01*
X86559788Y-72010943D01*
X86569961Y-72044478D01*
X86574000Y-72085487D01*
X86574000Y-72864513D01*
X86569961Y-72905522D01*
X86559788Y-72939057D01*
X86543272Y-72969956D01*
X86521043Y-72997043D01*
X86493956Y-73019272D01*
X86463057Y-73035788D01*
X86429522Y-73045961D01*
X86388513Y-73050000D01*
X85359487Y-73050000D01*
X85318478Y-73045961D01*
X85284943Y-73035788D01*
X85254044Y-73019272D01*
X85226957Y-72997043D01*
X85204728Y-72969956D01*
X85188212Y-72939057D01*
X85178039Y-72905522D01*
X85174000Y-72864513D01*
X85174000Y-72085487D01*
X85178039Y-72044478D01*
X85188212Y-72010943D01*
X85204728Y-71980044D01*
X85226957Y-71952957D01*
X85254044Y-71930728D01*
X85284943Y-71914212D01*
X85318478Y-71904039D01*
X85359487Y-71900000D01*
X86388513Y-71900000D01*
X86429522Y-71904039D01*
X86429522Y-71904039D01*
G37*
G36*
X117595000Y-72174000D02*
G01*
X116035000Y-72174000D01*
X116035000Y-71524000D01*
X117595000Y-71524000D01*
X117595000Y-72174000D01*
X117595000Y-72174000D01*
G37*
G36*
X114895000Y-72174000D02*
G01*
X113335000Y-72174000D01*
X113335000Y-71524000D01*
X114895000Y-71524000D01*
X114895000Y-72174000D01*
X114895000Y-72174000D01*
G37*
G36*
X134000000Y-72045000D02*
G01*
X132000000Y-72045000D01*
X132000000Y-71145000D01*
X134000000Y-71145000D01*
X134000000Y-72045000D01*
X134000000Y-72045000D01*
G37*
G36*
X151000000Y-72045000D02*
G01*
X149000000Y-72045000D01*
X149000000Y-71145000D01*
X151000000Y-71145000D01*
X151000000Y-72045000D01*
X151000000Y-72045000D01*
G37*
G36*
X122635522Y-70518039D02*
G01*
X122669057Y-70528212D01*
X122699956Y-70544728D01*
X122727043Y-70566957D01*
X122749272Y-70594044D01*
X122765788Y-70624943D01*
X122775961Y-70658478D01*
X122780000Y-70699487D01*
X122780000Y-71728513D01*
X122775961Y-71769522D01*
X122765788Y-71803057D01*
X122749272Y-71833956D01*
X122727043Y-71861043D01*
X122699956Y-71883272D01*
X122669057Y-71899788D01*
X122635522Y-71909961D01*
X122594513Y-71914000D01*
X121815487Y-71914000D01*
X121774478Y-71909961D01*
X121740943Y-71899788D01*
X121710044Y-71883272D01*
X121682957Y-71861043D01*
X121660728Y-71833956D01*
X121644212Y-71803057D01*
X121634039Y-71769522D01*
X121630000Y-71728513D01*
X121630000Y-70699487D01*
X121634039Y-70658478D01*
X121644212Y-70624943D01*
X121660728Y-70594044D01*
X121682957Y-70566957D01*
X121710044Y-70544728D01*
X121740943Y-70528212D01*
X121774478Y-70518039D01*
X121815487Y-70514000D01*
X122594513Y-70514000D01*
X122635522Y-70518039D01*
X122635522Y-70518039D01*
G37*
G36*
X120585522Y-70518039D02*
G01*
X120619057Y-70528212D01*
X120649956Y-70544728D01*
X120677043Y-70566957D01*
X120699272Y-70594044D01*
X120715788Y-70624943D01*
X120725961Y-70658478D01*
X120730000Y-70699487D01*
X120730000Y-71728513D01*
X120725961Y-71769522D01*
X120715788Y-71803057D01*
X120699272Y-71833956D01*
X120677043Y-71861043D01*
X120649956Y-71883272D01*
X120619057Y-71899788D01*
X120585522Y-71909961D01*
X120544513Y-71914000D01*
X119765487Y-71914000D01*
X119724478Y-71909961D01*
X119690943Y-71899788D01*
X119660044Y-71883272D01*
X119632957Y-71861043D01*
X119610728Y-71833956D01*
X119594212Y-71803057D01*
X119584039Y-71769522D01*
X119580000Y-71728513D01*
X119580000Y-70699487D01*
X119584039Y-70658478D01*
X119594212Y-70624943D01*
X119610728Y-70594044D01*
X119632957Y-70566957D01*
X119660044Y-70544728D01*
X119690943Y-70528212D01*
X119724478Y-70518039D01*
X119765487Y-70514000D01*
X120544513Y-70514000D01*
X120585522Y-70518039D01*
X120585522Y-70518039D01*
G37*
G36*
X154805000Y-71900000D02*
G01*
X153255000Y-71900000D01*
X153255000Y-70600000D01*
X154805000Y-70600000D01*
X154805000Y-71900000D01*
X154805000Y-71900000D01*
G37*
G36*
X162765000Y-71900000D02*
G01*
X161215000Y-71900000D01*
X161215000Y-70600000D01*
X162765000Y-70600000D01*
X162765000Y-71900000D01*
X162765000Y-71900000D01*
G37*
G36*
X111575522Y-70643039D02*
G01*
X111609057Y-70653212D01*
X111639956Y-70669728D01*
X111667043Y-70691957D01*
X111689272Y-70719044D01*
X111705788Y-70749943D01*
X111715961Y-70783478D01*
X111720000Y-70824487D01*
X111720000Y-71603513D01*
X111715961Y-71644522D01*
X111705788Y-71678057D01*
X111689272Y-71708956D01*
X111667043Y-71736043D01*
X111639956Y-71758272D01*
X111609057Y-71774788D01*
X111575522Y-71784961D01*
X111534513Y-71789000D01*
X110505487Y-71789000D01*
X110464478Y-71784961D01*
X110430943Y-71774788D01*
X110400044Y-71758272D01*
X110372957Y-71736043D01*
X110350728Y-71708956D01*
X110334212Y-71678057D01*
X110324039Y-71644522D01*
X110320000Y-71603513D01*
X110320000Y-70824487D01*
X110324039Y-70783478D01*
X110334212Y-70749943D01*
X110350728Y-70719044D01*
X110372957Y-70691957D01*
X110400044Y-70669728D01*
X110430943Y-70653212D01*
X110464478Y-70643039D01*
X110505487Y-70639000D01*
X111534513Y-70639000D01*
X111575522Y-70643039D01*
X111575522Y-70643039D01*
G37*
G36*
X129747522Y-70264039D02*
G01*
X129781057Y-70274212D01*
X129811956Y-70290728D01*
X129839043Y-70312957D01*
X129861272Y-70340044D01*
X129877788Y-70370943D01*
X129887961Y-70404478D01*
X129892000Y-70445487D01*
X129892000Y-71474513D01*
X129887961Y-71515522D01*
X129877788Y-71549057D01*
X129861272Y-71579956D01*
X129839043Y-71607043D01*
X129811956Y-71629272D01*
X129781057Y-71645788D01*
X129747522Y-71655961D01*
X129706513Y-71660000D01*
X128927487Y-71660000D01*
X128886478Y-71655961D01*
X128852943Y-71645788D01*
X128822044Y-71629272D01*
X128794957Y-71607043D01*
X128772728Y-71579956D01*
X128756212Y-71549057D01*
X128746039Y-71515522D01*
X128742000Y-71474513D01*
X128742000Y-70445487D01*
X128746039Y-70404478D01*
X128756212Y-70370943D01*
X128772728Y-70340044D01*
X128794957Y-70312957D01*
X128822044Y-70290728D01*
X128852943Y-70274212D01*
X128886478Y-70264039D01*
X128927487Y-70260000D01*
X129706513Y-70260000D01*
X129747522Y-70264039D01*
X129747522Y-70264039D01*
G37*
G36*
X127697522Y-70264039D02*
G01*
X127731057Y-70274212D01*
X127761956Y-70290728D01*
X127789043Y-70312957D01*
X127811272Y-70340044D01*
X127827788Y-70370943D01*
X127837961Y-70404478D01*
X127842000Y-70445487D01*
X127842000Y-71474513D01*
X127837961Y-71515522D01*
X127827788Y-71549057D01*
X127811272Y-71579956D01*
X127789043Y-71607043D01*
X127761956Y-71629272D01*
X127731057Y-71645788D01*
X127697522Y-71655961D01*
X127656513Y-71660000D01*
X126877487Y-71660000D01*
X126836478Y-71655961D01*
X126802943Y-71645788D01*
X126772044Y-71629272D01*
X126744957Y-71607043D01*
X126722728Y-71579956D01*
X126706212Y-71549057D01*
X126696039Y-71515522D01*
X126692000Y-71474513D01*
X126692000Y-70445487D01*
X126696039Y-70404478D01*
X126706212Y-70370943D01*
X126722728Y-70340044D01*
X126744957Y-70312957D01*
X126772044Y-70290728D01*
X126802943Y-70274212D01*
X126836478Y-70264039D01*
X126877487Y-70260000D01*
X127656513Y-70260000D01*
X127697522Y-70264039D01*
X127697522Y-70264039D01*
G37*
G36*
X114895000Y-71224000D02*
G01*
X113335000Y-71224000D01*
X113335000Y-70574000D01*
X114895000Y-70574000D01*
X114895000Y-71224000D01*
X114895000Y-71224000D01*
G37*
G36*
X117595000Y-71224000D02*
G01*
X116035000Y-71224000D01*
X116035000Y-70574000D01*
X117595000Y-70574000D01*
X117595000Y-71224000D01*
X117595000Y-71224000D01*
G37*
G36*
X95200522Y-69798039D02*
G01*
X95234057Y-69808212D01*
X95264956Y-69824728D01*
X95292043Y-69846957D01*
X95314272Y-69874044D01*
X95330788Y-69904943D01*
X95340961Y-69938478D01*
X95345000Y-69979487D01*
X95345000Y-70758513D01*
X95340961Y-70799522D01*
X95330788Y-70833057D01*
X95314272Y-70863956D01*
X95292043Y-70891043D01*
X95264956Y-70913272D01*
X95234057Y-70929788D01*
X95200522Y-70939961D01*
X95159513Y-70944000D01*
X94130487Y-70944000D01*
X94089478Y-70939961D01*
X94055943Y-70929788D01*
X94025044Y-70913272D01*
X93997957Y-70891043D01*
X93975728Y-70863956D01*
X93959212Y-70833057D01*
X93949039Y-70799522D01*
X93945000Y-70758513D01*
X93945000Y-69979487D01*
X93949039Y-69938478D01*
X93959212Y-69904943D01*
X93975728Y-69874044D01*
X93997957Y-69846957D01*
X94025044Y-69824728D01*
X94055943Y-69808212D01*
X94089478Y-69798039D01*
X94130487Y-69794000D01*
X95159513Y-69794000D01*
X95200522Y-69798039D01*
X95200522Y-69798039D01*
G37*
G36*
X89465000Y-70709000D02*
G01*
X88665000Y-70709000D01*
X88665000Y-69909000D01*
X89465000Y-69909000D01*
X89465000Y-70709000D01*
X89465000Y-70709000D01*
G37*
G36*
X91465000Y-70709000D02*
G01*
X90665000Y-70709000D01*
X90665000Y-69909000D01*
X91465000Y-69909000D01*
X91465000Y-70709000D01*
X91465000Y-70709000D01*
G37*
G36*
X95200522Y-67748039D02*
G01*
X95234057Y-67758212D01*
X95264956Y-67774728D01*
X95292043Y-67796957D01*
X95314272Y-67824044D01*
X95330788Y-67854943D01*
X95340961Y-67888478D01*
X95345000Y-67929487D01*
X95345000Y-68708513D01*
X95340961Y-68749522D01*
X95330788Y-68783057D01*
X95314272Y-68813956D01*
X95292043Y-68841043D01*
X95264956Y-68863272D01*
X95234057Y-68879788D01*
X95200522Y-68889961D01*
X95159513Y-68894000D01*
X94130487Y-68894000D01*
X94089478Y-68889961D01*
X94055943Y-68879788D01*
X94025044Y-68863272D01*
X93997957Y-68841043D01*
X93975728Y-68813956D01*
X93959212Y-68783057D01*
X93949039Y-68749522D01*
X93945000Y-68708513D01*
X93945000Y-67929487D01*
X93949039Y-67888478D01*
X93959212Y-67854943D01*
X93975728Y-67824044D01*
X93997957Y-67796957D01*
X94025044Y-67774728D01*
X94055943Y-67758212D01*
X94089478Y-67748039D01*
X94130487Y-67744000D01*
X95159513Y-67744000D01*
X95200522Y-67748039D01*
X95200522Y-67748039D01*
G37*
G36*
X111620000Y-68869000D02*
G01*
X110420000Y-68869000D01*
X110420000Y-67969000D01*
X111620000Y-67969000D01*
X111620000Y-68869000D01*
X111620000Y-68869000D01*
G37*
G36*
X114870522Y-67343039D02*
G01*
X114904057Y-67353212D01*
X114934956Y-67369728D01*
X114962043Y-67391957D01*
X114984272Y-67419044D01*
X115000788Y-67449943D01*
X115010961Y-67483478D01*
X115015000Y-67524487D01*
X115015000Y-68553513D01*
X115010961Y-68594522D01*
X115000788Y-68628057D01*
X114984272Y-68658956D01*
X114962043Y-68686043D01*
X114934956Y-68708272D01*
X114904057Y-68724788D01*
X114870522Y-68734961D01*
X114829513Y-68739000D01*
X114050487Y-68739000D01*
X114009478Y-68734961D01*
X113975943Y-68724788D01*
X113945044Y-68708272D01*
X113917957Y-68686043D01*
X113895728Y-68658956D01*
X113879212Y-68628057D01*
X113869039Y-68594522D01*
X113865000Y-68553513D01*
X113865000Y-67524487D01*
X113869039Y-67483478D01*
X113879212Y-67449943D01*
X113895728Y-67419044D01*
X113917957Y-67391957D01*
X113945044Y-67369728D01*
X113975943Y-67353212D01*
X114009478Y-67343039D01*
X114050487Y-67339000D01*
X114829513Y-67339000D01*
X114870522Y-67343039D01*
X114870522Y-67343039D01*
G37*
G36*
X116920522Y-67343039D02*
G01*
X116954057Y-67353212D01*
X116984956Y-67369728D01*
X117012043Y-67391957D01*
X117034272Y-67419044D01*
X117050788Y-67449943D01*
X117060961Y-67483478D01*
X117065000Y-67524487D01*
X117065000Y-68553513D01*
X117060961Y-68594522D01*
X117050788Y-68628057D01*
X117034272Y-68658956D01*
X117012043Y-68686043D01*
X116984956Y-68708272D01*
X116954057Y-68724788D01*
X116920522Y-68734961D01*
X116879513Y-68739000D01*
X116100487Y-68739000D01*
X116059478Y-68734961D01*
X116025943Y-68724788D01*
X115995044Y-68708272D01*
X115967957Y-68686043D01*
X115945728Y-68658956D01*
X115929212Y-68628057D01*
X115919039Y-68594522D01*
X115915000Y-68553513D01*
X115915000Y-67524487D01*
X115919039Y-67483478D01*
X115929212Y-67449943D01*
X115945728Y-67419044D01*
X115967957Y-67391957D01*
X115995044Y-67369728D01*
X116025943Y-67353212D01*
X116059478Y-67343039D01*
X116100487Y-67339000D01*
X116879513Y-67339000D01*
X116920522Y-67343039D01*
X116920522Y-67343039D01*
G37*
G36*
X89465000Y-68709000D02*
G01*
X88665000Y-68709000D01*
X88665000Y-67909000D01*
X89465000Y-67909000D01*
X89465000Y-68709000D01*
X89465000Y-68709000D01*
G37*
G36*
X91465000Y-68709000D02*
G01*
X90665000Y-68709000D01*
X90665000Y-67909000D01*
X91465000Y-67909000D01*
X91465000Y-68709000D01*
X91465000Y-68709000D01*
G37*
G36*
X122635522Y-66708039D02*
G01*
X122669057Y-66718212D01*
X122699956Y-66734728D01*
X122727043Y-66756957D01*
X122749272Y-66784044D01*
X122765788Y-66814943D01*
X122775961Y-66848478D01*
X122780000Y-66889487D01*
X122780000Y-67918513D01*
X122775961Y-67959522D01*
X122765788Y-67993057D01*
X122749272Y-68023956D01*
X122727043Y-68051043D01*
X122699956Y-68073272D01*
X122669057Y-68089788D01*
X122635522Y-68099961D01*
X122594513Y-68104000D01*
X121815487Y-68104000D01*
X121774478Y-68099961D01*
X121740943Y-68089788D01*
X121710044Y-68073272D01*
X121682957Y-68051043D01*
X121660728Y-68023956D01*
X121644212Y-67993057D01*
X121634039Y-67959522D01*
X121630000Y-67918513D01*
X121630000Y-66889487D01*
X121634039Y-66848478D01*
X121644212Y-66814943D01*
X121660728Y-66784044D01*
X121682957Y-66756957D01*
X121710044Y-66734728D01*
X121740943Y-66718212D01*
X121774478Y-66708039D01*
X121815487Y-66704000D01*
X122594513Y-66704000D01*
X122635522Y-66708039D01*
X122635522Y-66708039D01*
G37*
G36*
X120585522Y-66708039D02*
G01*
X120619057Y-66718212D01*
X120649956Y-66734728D01*
X120677043Y-66756957D01*
X120699272Y-66784044D01*
X120715788Y-66814943D01*
X120725961Y-66848478D01*
X120730000Y-66889487D01*
X120730000Y-67918513D01*
X120725961Y-67959522D01*
X120715788Y-67993057D01*
X120699272Y-68023956D01*
X120677043Y-68051043D01*
X120649956Y-68073272D01*
X120619057Y-68089788D01*
X120585522Y-68099961D01*
X120544513Y-68104000D01*
X119765487Y-68104000D01*
X119724478Y-68099961D01*
X119690943Y-68089788D01*
X119660044Y-68073272D01*
X119632957Y-68051043D01*
X119610728Y-68023956D01*
X119594212Y-67993057D01*
X119584039Y-67959522D01*
X119580000Y-67918513D01*
X119580000Y-66889487D01*
X119584039Y-66848478D01*
X119594212Y-66814943D01*
X119610728Y-66784044D01*
X119632957Y-66756957D01*
X119660044Y-66734728D01*
X119690943Y-66718212D01*
X119724478Y-66708039D01*
X119765487Y-66704000D01*
X120544513Y-66704000D01*
X120585522Y-66708039D01*
X120585522Y-66708039D01*
G37*
G36*
X81641703Y-63706486D02*
G01*
X81932883Y-63827097D01*
X82194940Y-64002198D01*
X82417802Y-64225060D01*
X82592903Y-64487117D01*
X82713514Y-64778297D01*
X82775000Y-65087412D01*
X82775000Y-65402588D01*
X82713514Y-65711703D01*
X82592903Y-66002883D01*
X82417802Y-66264940D01*
X82194940Y-66487802D01*
X81932883Y-66662903D01*
X81641703Y-66783514D01*
X81332588Y-66845000D01*
X81017412Y-66845000D01*
X80708297Y-66783514D01*
X80417117Y-66662903D01*
X80155060Y-66487802D01*
X79932198Y-66264940D01*
X79757097Y-66002883D01*
X79636486Y-65711703D01*
X79575000Y-65402588D01*
X79575000Y-65087412D01*
X79636486Y-64778297D01*
X79757097Y-64487117D01*
X79932198Y-64225060D01*
X80155060Y-64002198D01*
X80417117Y-63827097D01*
X80708297Y-63706486D01*
X81017412Y-63645000D01*
X81332588Y-63645000D01*
X81641703Y-63706486D01*
X81641703Y-63706486D01*
G37*
G36*
X165461703Y-63706486D02*
G01*
X165752883Y-63827097D01*
X166014940Y-64002198D01*
X166237802Y-64225060D01*
X166412903Y-64487117D01*
X166533514Y-64778297D01*
X166595000Y-65087412D01*
X166595000Y-65402588D01*
X166533514Y-65711703D01*
X166412903Y-66002883D01*
X166237802Y-66264940D01*
X166014940Y-66487802D01*
X165752883Y-66662903D01*
X165461703Y-66783514D01*
X165152588Y-66845000D01*
X164837412Y-66845000D01*
X164528297Y-66783514D01*
X164237117Y-66662903D01*
X163975060Y-66487802D01*
X163752198Y-66264940D01*
X163577097Y-66002883D01*
X163456486Y-65711703D01*
X163395000Y-65402588D01*
X163395000Y-65087412D01*
X163456486Y-64778297D01*
X163577097Y-64487117D01*
X163752198Y-64225060D01*
X163975060Y-64002198D01*
X164237117Y-63827097D01*
X164528297Y-63706486D01*
X164837412Y-63645000D01*
X165152588Y-63645000D01*
X165461703Y-63706486D01*
X165461703Y-63706486D01*
G37*
G36*
X116920522Y-64803039D02*
G01*
X116954057Y-64813212D01*
X116984956Y-64829728D01*
X117012043Y-64851957D01*
X117034272Y-64879044D01*
X117050788Y-64909943D01*
X117060961Y-64943478D01*
X117065000Y-64984487D01*
X117065000Y-66013513D01*
X117060961Y-66054522D01*
X117050788Y-66088057D01*
X117034272Y-66118956D01*
X117012043Y-66146043D01*
X116984956Y-66168272D01*
X116954057Y-66184788D01*
X116920522Y-66194961D01*
X116879513Y-66199000D01*
X116100487Y-66199000D01*
X116059478Y-66194961D01*
X116025943Y-66184788D01*
X115995044Y-66168272D01*
X115967957Y-66146043D01*
X115945728Y-66118956D01*
X115929212Y-66088057D01*
X115919039Y-66054522D01*
X115915000Y-66013513D01*
X115915000Y-64984487D01*
X115919039Y-64943478D01*
X115929212Y-64909943D01*
X115945728Y-64879044D01*
X115967957Y-64851957D01*
X115995044Y-64829728D01*
X116025943Y-64813212D01*
X116059478Y-64803039D01*
X116100487Y-64799000D01*
X116879513Y-64799000D01*
X116920522Y-64803039D01*
X116920522Y-64803039D01*
G37*
G36*
X114870522Y-64803039D02*
G01*
X114904057Y-64813212D01*
X114934956Y-64829728D01*
X114962043Y-64851957D01*
X114984272Y-64879044D01*
X115000788Y-64909943D01*
X115010961Y-64943478D01*
X115015000Y-64984487D01*
X115015000Y-66013513D01*
X115010961Y-66054522D01*
X115000788Y-66088057D01*
X114984272Y-66118956D01*
X114962043Y-66146043D01*
X114934956Y-66168272D01*
X114904057Y-66184788D01*
X114870522Y-66194961D01*
X114829513Y-66199000D01*
X114050487Y-66199000D01*
X114009478Y-66194961D01*
X113975943Y-66184788D01*
X113945044Y-66168272D01*
X113917957Y-66146043D01*
X113895728Y-66118956D01*
X113879212Y-66088057D01*
X113869039Y-66054522D01*
X113865000Y-66013513D01*
X113865000Y-64984487D01*
X113869039Y-64943478D01*
X113879212Y-64909943D01*
X113895728Y-64879044D01*
X113917957Y-64851957D01*
X113945044Y-64829728D01*
X113975943Y-64813212D01*
X114009478Y-64803039D01*
X114050487Y-64799000D01*
X114829513Y-64799000D01*
X114870522Y-64803039D01*
X114870522Y-64803039D01*
G37*
G36*
X111620000Y-65569000D02*
G01*
X110420000Y-65569000D01*
X110420000Y-64669000D01*
X111620000Y-64669000D01*
X111620000Y-65569000D01*
X111620000Y-65569000D01*
G37*
M02*
