M48
; DRILL file {KiCad (5.1.0-0)} date 2019 December 01, Sunday 12:31:51
; FORMAT={-:-/ absolute / inch / decimal}
; #@! TF.CreationDate,2019-12-01T12:31:51+01:00
; #@! TF.GenerationSoftware,Kicad,Pcbnew,(5.1.0-0)
; #@! TF.FileFunction,Plated,1,2,PTH
FMAT,2
INCH
T1C0.0157
T2C0.0295
T3C0.0315
T4C0.0394
T5C0.0472
%
G90
G05
T1
X3.5076Y-2.8402
X3.5859Y-3.0287
X3.5909Y-2.6437
X3.6009Y-2.8087
X3.648Y-2.8672
X3.6759Y-2.8387
X3.7259Y-2.6387
X3.7259Y-2.9687
X5.1309Y-3.3737
X5.3709Y-3.3437
X5.3786Y-2.8515
X5.4259Y-2.8988
X5.7009Y-3.0837
X5.7529Y-3.1957
T2
X3.2509Y-2.8837
X3.2509Y-2.9337
X3.2509Y-2.9837
T3
X4.0995Y-3.0723
X4.1496Y-3.0222
X4.183Y-3.1558
X4.2331Y-3.1057
X4.3309Y-3.0487
X4.3959Y-2.7537
X4.6709Y-2.7537
X4.6809Y-3.4237
X4.8709Y-3.6637
X4.8809Y-3.4737
X5.0009Y-2.6937
X5.0009Y-3.1437
X5.3209Y-2.8637
X5.3809Y-3.4137
X4.7609Y-3.1087
X4.8609Y-3.1087
T4
X6.5209Y-2.8937
X6.5209Y-2.9937
X6.5209Y-3.0937
X6.5209Y-3.1937
X6.5209Y-3.2937
X6.5209Y-3.3937
T5
X3.4209Y-3.7937
X3.4309Y-2.5237
X3.7209Y-3.7894
X3.8709Y-3.7894
X4.0209Y-3.7894
X4.3209Y-3.7894
X4.4709Y-3.7894
X4.6209Y-3.7894
X4.7709Y-3.7894
X5.0709Y-3.7894
X5.2209Y-3.7894
X5.3709Y-3.7894
X5.5209Y-3.7894
X5.7709Y-2.8937
X5.8209Y-3.7937
X5.9709Y-3.7937
X6.1209Y-3.7937
X6.2209Y-2.8937
X6.2209Y-3.4437
X6.2709Y-3.7937
X6.5209Y-3.5937
X4.6209Y-4.1437
X4.9209Y-4.1437
X4.4709Y-4.1437
X4.7709Y-4.1437
X4.3209Y-4.1437
X5.6709Y-4.1437
X4.0209Y-4.1437
X5.2209Y-4.1437
X3.8709Y-4.1437
X4.1709Y-4.1437
X5.3709Y-4.1437
X5.0709Y-4.1437
X5.8209Y-4.1437
X6.1209Y-4.1437
X3.4209Y-4.1437
X5.9709Y-4.1437
X3.7209Y-4.1437
X6.2709Y-4.1437
X3.5709Y-4.1437
X5.5209Y-4.1437
T4
G00X3.3459Y-3.4043
M15
G01X3.3459Y-3.4831
M16
G05
G00X3.4246Y-3.6287
M15
G01X3.5033Y-3.6287
M16
G05
G00X3.5821Y-3.4043
M15
G01X3.5821Y-3.4831
M16
G05
T0
M30
