G04 #@! TF.GenerationSoftware,KiCad,Pcbnew,(5.1.0-0)*
G04 #@! TF.CreationDate,2019-12-01T12:31:49+01:00*
G04 #@! TF.ProjectId,esp32,65737033-322e-46b6-9963-61645f706362,rev?*
G04 #@! TF.SameCoordinates,Original*
G04 #@! TF.FileFunction,Copper,L2,Bot*
G04 #@! TF.FilePolarity,Positive*
%FSLAX46Y46*%
G04 Gerber Fmt 4.6, Leading zero omitted, Abs format (unit mm)*
G04 Created by KiCad (PCBNEW (5.1.0-0)) date 2019-12-01 12:31:49*
%MOMM*%
%LPD*%
G04 APERTURE LIST*
%ADD10C,0.100000*%
%ADD11C,2.500000*%
%ADD12R,1.500000X1.050000*%
%ADD13O,1.500000X1.050000*%
%ADD14C,1.400000*%
%ADD15R,3.500000X3.500000*%
%ADD16C,3.000000*%
%ADD17C,3.500000*%
%ADD18O,1.700000X1.700000*%
%ADD19R,1.700000X1.700000*%
%ADD20C,1.600000*%
%ADD21C,0.800000*%
%ADD22C,2.400000*%
%ADD23C,1.000000*%
%ADD24C,2.500000*%
%ADD25C,0.500000*%
%ADD26C,0.400000*%
%ADD27C,0.250000*%
%ADD28C,0.254000*%
G04 APERTURE END LIST*
D10*
G36*
X93240000Y-101440000D02*
G01*
X93240000Y-109060000D01*
X95780000Y-109060000D01*
X95780000Y-101440000D01*
X93240000Y-101440000D01*
G37*
X93240000Y-101440000D02*
X93240000Y-109060000D01*
X95780000Y-109060000D01*
X95780000Y-101440000D01*
X93240000Y-101440000D01*
G36*
X89430000Y-101440000D02*
G01*
X89430000Y-109060000D01*
X91970000Y-109060000D01*
X91970000Y-101440000D01*
X89430000Y-101440000D01*
G37*
X89430000Y-101440000D02*
X89430000Y-109060000D01*
X91970000Y-109060000D01*
X91970000Y-101440000D01*
X89430000Y-101440000D01*
G36*
X85620000Y-101440000D02*
G01*
X85620000Y-109060000D01*
X88160000Y-109060000D01*
X88160000Y-101440000D01*
X85620000Y-101440000D01*
G37*
X85620000Y-101440000D02*
X85620000Y-109060000D01*
X88160000Y-109060000D01*
X88160000Y-101440000D01*
X85620000Y-101440000D01*
G36*
X158010000Y-101440000D02*
G01*
X158010000Y-109060000D01*
X160550000Y-109060000D01*
X160550000Y-101440000D01*
X158010000Y-101440000D01*
G37*
X158010000Y-101440000D02*
X158010000Y-109060000D01*
X160550000Y-109060000D01*
X160550000Y-101440000D01*
X158010000Y-101440000D01*
G36*
X154200000Y-101440000D02*
G01*
X154200000Y-109060000D01*
X156740000Y-109060000D01*
X156740000Y-101440000D01*
X154200000Y-101440000D01*
G37*
X154200000Y-101440000D02*
X154200000Y-109060000D01*
X156740000Y-109060000D01*
X156740000Y-101440000D01*
X154200000Y-101440000D01*
G36*
X150390000Y-101440000D02*
G01*
X150390000Y-109060000D01*
X152930000Y-109060000D01*
X152930000Y-101440000D01*
X150390000Y-101440000D01*
G37*
X150390000Y-101440000D02*
X150390000Y-109060000D01*
X152930000Y-109060000D01*
X152930000Y-101440000D01*
X150390000Y-101440000D01*
G36*
X146580000Y-101440000D02*
G01*
X146580000Y-109060000D01*
X149120000Y-109060000D01*
X149120000Y-101440000D01*
X146580000Y-101440000D01*
G37*
X146580000Y-101440000D02*
X146580000Y-109060000D01*
X149120000Y-109060000D01*
X149120000Y-101440000D01*
X146580000Y-101440000D01*
G36*
X104670000Y-101440000D02*
G01*
X104670000Y-109060000D01*
X107210000Y-109060000D01*
X107210000Y-101440000D01*
X104670000Y-101440000D01*
G37*
X104670000Y-101440000D02*
X104670000Y-109060000D01*
X107210000Y-109060000D01*
X107210000Y-101440000D01*
X104670000Y-101440000D01*
G36*
X138960000Y-101440000D02*
G01*
X138960000Y-109060000D01*
X141500000Y-109060000D01*
X141500000Y-101440000D01*
X138960000Y-101440000D01*
G37*
X138960000Y-101440000D02*
X138960000Y-109060000D01*
X141500000Y-109060000D01*
X141500000Y-101440000D01*
X138960000Y-101440000D01*
G36*
X135150000Y-101440000D02*
G01*
X135150000Y-109060000D01*
X137690000Y-109060000D01*
X137690000Y-101440000D01*
X135150000Y-101440000D01*
G37*
X135150000Y-101440000D02*
X135150000Y-109060000D01*
X137690000Y-109060000D01*
X137690000Y-101440000D01*
X135150000Y-101440000D01*
G36*
X131340000Y-101440000D02*
G01*
X131340000Y-109060000D01*
X133880000Y-109060000D01*
X133880000Y-101440000D01*
X131340000Y-101440000D01*
G37*
X131340000Y-101440000D02*
X131340000Y-109060000D01*
X133880000Y-109060000D01*
X133880000Y-101440000D01*
X131340000Y-101440000D01*
G36*
X127530000Y-101440000D02*
G01*
X127530000Y-109060000D01*
X130070000Y-109060000D01*
X130070000Y-101440000D01*
X127530000Y-101440000D01*
G37*
X127530000Y-101440000D02*
X127530000Y-109060000D01*
X130070000Y-109060000D01*
X130070000Y-101440000D01*
X127530000Y-101440000D01*
G36*
X123720000Y-101440000D02*
G01*
X123720000Y-109060000D01*
X126260000Y-109060000D01*
X126260000Y-101440000D01*
X123720000Y-101440000D01*
G37*
X123720000Y-101440000D02*
X123720000Y-109060000D01*
X126260000Y-109060000D01*
X126260000Y-101440000D01*
X123720000Y-101440000D01*
G36*
X119910000Y-101440000D02*
G01*
X119910000Y-109060000D01*
X122450000Y-109060000D01*
X122450000Y-101440000D01*
X119910000Y-101440000D01*
G37*
X119910000Y-101440000D02*
X119910000Y-109060000D01*
X122450000Y-109060000D01*
X122450000Y-101440000D01*
X119910000Y-101440000D01*
G36*
X116100000Y-101440000D02*
G01*
X116100000Y-109060000D01*
X118640000Y-109060000D01*
X118640000Y-101440000D01*
X116100000Y-101440000D01*
G37*
X116100000Y-101440000D02*
X116100000Y-109060000D01*
X118640000Y-109060000D01*
X118640000Y-101440000D01*
X116100000Y-101440000D01*
G36*
X112290000Y-101440000D02*
G01*
X112290000Y-109060000D01*
X114830000Y-109060000D01*
X114830000Y-101440000D01*
X112290000Y-101440000D01*
G37*
X112290000Y-101440000D02*
X112290000Y-109060000D01*
X114830000Y-109060000D01*
X114830000Y-101440000D01*
X112290000Y-101440000D01*
G36*
X108480000Y-101440000D02*
G01*
X108480000Y-109060000D01*
X111020000Y-109060000D01*
X111020000Y-101440000D01*
X108480000Y-101440000D01*
G37*
X108480000Y-101440000D02*
X108480000Y-109060000D01*
X111020000Y-109060000D01*
X111020000Y-101440000D01*
X108480000Y-101440000D01*
G36*
X142770000Y-101440000D02*
G01*
X142770000Y-109060000D01*
X145310000Y-109060000D01*
X145310000Y-101440000D01*
X142770000Y-101440000D01*
G37*
X142770000Y-101440000D02*
X142770000Y-109060000D01*
X145310000Y-109060000D01*
X145310000Y-101440000D01*
X142770000Y-101440000D01*
G36*
X100860000Y-101440000D02*
G01*
X100860000Y-109060000D01*
X103400000Y-109060000D01*
X103400000Y-101440000D01*
X100860000Y-101440000D01*
G37*
X100860000Y-101440000D02*
X100860000Y-109060000D01*
X103400000Y-109060000D01*
X103400000Y-101440000D01*
X100860000Y-101440000D01*
G36*
X97050000Y-101440000D02*
G01*
X97050000Y-109060000D01*
X99590000Y-109060000D01*
X99590000Y-101440000D01*
X97050000Y-101440000D01*
G37*
X97050000Y-101440000D02*
X97050000Y-109060000D01*
X99590000Y-109060000D01*
X99590000Y-101440000D01*
X97050000Y-101440000D01*
D11*
X94510000Y-105250000D03*
X90700000Y-105250000D03*
X86890000Y-105250000D03*
X159280000Y-105250000D03*
X155470000Y-105250000D03*
X151660000Y-105250000D03*
X147850000Y-105250000D03*
X105940000Y-105250000D03*
X140230000Y-105250000D03*
X136420000Y-105250000D03*
X132610000Y-105250000D03*
X128800000Y-105250000D03*
X124990000Y-105250000D03*
X121180000Y-105250000D03*
X117370000Y-105250000D03*
X113560000Y-105250000D03*
X109750000Y-105250000D03*
X144040000Y-105250000D03*
X102130000Y-105250000D03*
X98320000Y-105250000D03*
D12*
X82572000Y-75786000D03*
D13*
X82572000Y-73246000D03*
X82572000Y-74516000D03*
D14*
X123466000Y-78961000D03*
X120926000Y-78961000D03*
D15*
X90985000Y-87470000D03*
D10*
G36*
X85808513Y-85723611D02*
G01*
X85881318Y-85734411D01*
X85952714Y-85752295D01*
X86022013Y-85777090D01*
X86088548Y-85808559D01*
X86151678Y-85846398D01*
X86210795Y-85890242D01*
X86265330Y-85939670D01*
X86314758Y-85994205D01*
X86358602Y-86053322D01*
X86396441Y-86116452D01*
X86427910Y-86182987D01*
X86452705Y-86252286D01*
X86470589Y-86323682D01*
X86481389Y-86396487D01*
X86485000Y-86470000D01*
X86485000Y-88470000D01*
X86481389Y-88543513D01*
X86470589Y-88616318D01*
X86452705Y-88687714D01*
X86427910Y-88757013D01*
X86396441Y-88823548D01*
X86358602Y-88886678D01*
X86314758Y-88945795D01*
X86265330Y-89000330D01*
X86210795Y-89049758D01*
X86151678Y-89093602D01*
X86088548Y-89131441D01*
X86022013Y-89162910D01*
X85952714Y-89187705D01*
X85881318Y-89205589D01*
X85808513Y-89216389D01*
X85735000Y-89220000D01*
X84235000Y-89220000D01*
X84161487Y-89216389D01*
X84088682Y-89205589D01*
X84017286Y-89187705D01*
X83947987Y-89162910D01*
X83881452Y-89131441D01*
X83818322Y-89093602D01*
X83759205Y-89049758D01*
X83704670Y-89000330D01*
X83655242Y-88945795D01*
X83611398Y-88886678D01*
X83573559Y-88823548D01*
X83542090Y-88757013D01*
X83517295Y-88687714D01*
X83499411Y-88616318D01*
X83488611Y-88543513D01*
X83485000Y-88470000D01*
X83485000Y-86470000D01*
X83488611Y-86396487D01*
X83499411Y-86323682D01*
X83517295Y-86252286D01*
X83542090Y-86182987D01*
X83573559Y-86116452D01*
X83611398Y-86053322D01*
X83655242Y-85994205D01*
X83704670Y-85939670D01*
X83759205Y-85890242D01*
X83818322Y-85846398D01*
X83881452Y-85808559D01*
X83947987Y-85777090D01*
X84017286Y-85752295D01*
X84088682Y-85734411D01*
X84161487Y-85723611D01*
X84235000Y-85720000D01*
X85735000Y-85720000D01*
X85808513Y-85723611D01*
X85808513Y-85723611D01*
G37*
D16*
X84985000Y-87470000D03*
D10*
G36*
X88945765Y-90424213D02*
G01*
X89030704Y-90436813D01*
X89113999Y-90457677D01*
X89194848Y-90486605D01*
X89272472Y-90523319D01*
X89346124Y-90567464D01*
X89415094Y-90618616D01*
X89478718Y-90676282D01*
X89536384Y-90739906D01*
X89587536Y-90808876D01*
X89631681Y-90882528D01*
X89668395Y-90960152D01*
X89697323Y-91041001D01*
X89718187Y-91124296D01*
X89730787Y-91209235D01*
X89735000Y-91295000D01*
X89735000Y-93045000D01*
X89730787Y-93130765D01*
X89718187Y-93215704D01*
X89697323Y-93298999D01*
X89668395Y-93379848D01*
X89631681Y-93457472D01*
X89587536Y-93531124D01*
X89536384Y-93600094D01*
X89478718Y-93663718D01*
X89415094Y-93721384D01*
X89346124Y-93772536D01*
X89272472Y-93816681D01*
X89194848Y-93853395D01*
X89113999Y-93882323D01*
X89030704Y-93903187D01*
X88945765Y-93915787D01*
X88860000Y-93920000D01*
X87110000Y-93920000D01*
X87024235Y-93915787D01*
X86939296Y-93903187D01*
X86856001Y-93882323D01*
X86775152Y-93853395D01*
X86697528Y-93816681D01*
X86623876Y-93772536D01*
X86554906Y-93721384D01*
X86491282Y-93663718D01*
X86433616Y-93600094D01*
X86382464Y-93531124D01*
X86338319Y-93457472D01*
X86301605Y-93379848D01*
X86272677Y-93298999D01*
X86251813Y-93215704D01*
X86239213Y-93130765D01*
X86235000Y-93045000D01*
X86235000Y-91295000D01*
X86239213Y-91209235D01*
X86251813Y-91124296D01*
X86272677Y-91041001D01*
X86301605Y-90960152D01*
X86338319Y-90882528D01*
X86382464Y-90808876D01*
X86433616Y-90739906D01*
X86491282Y-90676282D01*
X86554906Y-90618616D01*
X86623876Y-90567464D01*
X86697528Y-90523319D01*
X86775152Y-90486605D01*
X86856001Y-90457677D01*
X86939296Y-90436813D01*
X87024235Y-90424213D01*
X87110000Y-90420000D01*
X88860000Y-90420000D01*
X88945765Y-90424213D01*
X88945765Y-90424213D01*
G37*
D17*
X87985000Y-92170000D03*
D18*
X165630000Y-86200000D03*
X165630000Y-83660000D03*
X165630000Y-81120000D03*
X165630000Y-78580000D03*
X165630000Y-76040000D03*
D19*
X165630000Y-73500000D03*
D20*
X136674000Y-86708000D03*
X111655000Y-69944000D03*
X110004000Y-77437000D03*
X118640000Y-69944000D03*
D21*
X91081000Y-76929000D03*
X94637000Y-75405000D03*
X91208000Y-67150000D03*
X94637000Y-67023000D03*
D20*
X127022000Y-68420000D03*
X127022000Y-79850000D03*
D22*
X94510000Y-96250000D03*
X86890000Y-96360000D03*
X98320000Y-96250000D03*
X102130000Y-96250000D03*
X109750000Y-96250000D03*
X113560000Y-96250000D03*
X117370000Y-96250000D03*
X121180000Y-96250000D03*
X128800000Y-96250000D03*
X132610000Y-96250000D03*
X136420000Y-96250000D03*
X140230000Y-96250000D03*
X147850000Y-96360000D03*
X151660000Y-96360000D03*
X155470000Y-96360000D03*
X159280000Y-96360000D03*
X146580000Y-73500000D03*
X158010000Y-73500000D03*
X158010000Y-87470000D03*
X165630000Y-91280000D03*
D20*
X135150000Y-72738000D03*
X118894000Y-86962000D03*
X123974000Y-88232000D03*
X123720000Y-93058000D03*
D22*
X87144000Y-64102000D03*
D21*
X144802000Y-78326000D03*
X146123458Y-81171458D03*
X136616960Y-72426960D03*
X137819042Y-73629042D03*
D20*
X107520454Y-78884868D03*
X105399132Y-76763546D03*
D21*
X92659892Y-72828000D03*
X89093560Y-72140515D03*
X136420000Y-84930000D03*
X130324000Y-85692000D03*
X93367000Y-72103000D03*
X91462000Y-71341000D03*
D20*
X106247661Y-80157661D03*
X104126339Y-78036339D03*
D23*
X167408000Y-72317998D02*
X167408000Y-78004081D01*
X165940012Y-70850010D02*
X167408000Y-72317998D01*
X130753336Y-70850010D02*
X165940012Y-70850010D01*
X130313990Y-65361990D02*
X130313990Y-70410664D01*
X166832081Y-78580000D02*
X165630000Y-78580000D01*
X167408000Y-78004081D02*
X166832081Y-78580000D01*
X87144000Y-64102000D02*
X87906000Y-63340000D01*
X130313990Y-70410664D02*
X130753336Y-70850010D01*
X87906000Y-63340000D02*
X128292000Y-63340000D01*
X128292000Y-63340000D02*
X130313990Y-65361990D01*
D24*
X90985000Y-87470000D02*
X91970000Y-88455000D01*
X91970000Y-88455000D02*
X91970000Y-95090000D01*
X86890000Y-100170000D02*
X86890000Y-105250000D01*
X91970000Y-95090000D02*
X88160000Y-98900000D01*
X88160000Y-98900000D02*
X86890000Y-100170000D01*
X142770000Y-98900000D02*
X144040000Y-100170000D01*
X144040000Y-100170000D02*
X144040000Y-105250000D01*
X124990000Y-105250000D02*
X124990000Y-98900000D01*
X124990000Y-98900000D02*
X142770000Y-98900000D01*
X105940000Y-100170000D02*
X107210000Y-98900000D01*
X105940000Y-105250000D02*
X105940000Y-100170000D01*
X107210000Y-98900000D02*
X124990000Y-98900000D01*
X88160000Y-98900000D02*
X107210000Y-98900000D01*
D25*
X146123458Y-81171458D02*
X146123458Y-79647458D01*
X146123458Y-79647458D02*
X144802000Y-78326000D01*
X136616960Y-72426960D02*
X137819042Y-73629042D01*
D26*
X107520454Y-78884868D02*
X105399132Y-76763546D01*
X89781045Y-72828000D02*
X89093560Y-72140515D01*
X92659892Y-72828000D02*
X89781045Y-72828000D01*
X135658000Y-85692000D02*
X130324000Y-85692000D01*
X136420000Y-84930000D02*
X135658000Y-85692000D01*
D27*
X92224000Y-72103000D02*
X91462000Y-71341000D01*
X93367000Y-72103000D02*
X92224000Y-72103000D01*
D26*
X106247661Y-80157661D02*
X104126339Y-78036339D01*
D28*
G36*
X85718662Y-62932256D02*
G01*
X85517844Y-63232801D01*
X85379518Y-63566750D01*
X85309000Y-63921268D01*
X85309000Y-64282732D01*
X85379518Y-64637250D01*
X85517844Y-64971199D01*
X85718662Y-65271744D01*
X85974256Y-65527338D01*
X86274801Y-65728156D01*
X86608750Y-65866482D01*
X86963268Y-65937000D01*
X87324732Y-65937000D01*
X87679250Y-65866482D01*
X88013199Y-65728156D01*
X88313744Y-65527338D01*
X88569338Y-65271744D01*
X88770156Y-64971199D01*
X88908482Y-64637250D01*
X88940756Y-64475000D01*
X127821869Y-64475000D01*
X129178990Y-65832123D01*
X129178991Y-70354903D01*
X129173499Y-70410664D01*
X129195413Y-70633162D01*
X129260314Y-70847110D01*
X129297524Y-70916724D01*
X129365707Y-71044287D01*
X129507542Y-71217113D01*
X129550850Y-71252655D01*
X129911340Y-71613145D01*
X129946887Y-71656459D01*
X130119713Y-71798294D01*
X130275479Y-71881552D01*
X130316889Y-71903686D01*
X130530837Y-71968587D01*
X130753335Y-71990501D01*
X130809087Y-71985010D01*
X135679746Y-71985010D01*
X135621734Y-72125062D01*
X135581960Y-72325021D01*
X135581960Y-72528899D01*
X135621734Y-72728858D01*
X135699755Y-72917216D01*
X135813023Y-73086734D01*
X135957186Y-73230897D01*
X136126704Y-73344165D01*
X136315062Y-73422186D01*
X136371917Y-73433495D01*
X136812507Y-73874086D01*
X136823816Y-73930940D01*
X136901837Y-74119298D01*
X137015105Y-74288816D01*
X137159268Y-74432979D01*
X137328786Y-74546247D01*
X137517144Y-74624268D01*
X137717103Y-74664042D01*
X137920981Y-74664042D01*
X138120940Y-74624268D01*
X138309298Y-74546247D01*
X138478816Y-74432979D01*
X138622979Y-74288816D01*
X138736247Y-74119298D01*
X138814268Y-73930940D01*
X138854042Y-73730981D01*
X138854042Y-73527103D01*
X138814268Y-73327144D01*
X138736247Y-73138786D01*
X138622979Y-72969268D01*
X138478816Y-72825105D01*
X138309298Y-72711837D01*
X138120940Y-72633816D01*
X138064086Y-72622507D01*
X137623495Y-72181917D01*
X137612186Y-72125062D01*
X137554174Y-71985010D01*
X165469881Y-71985010D01*
X165502998Y-72018127D01*
X165502998Y-72173748D01*
X165344250Y-72015000D01*
X164780000Y-72011928D01*
X164655518Y-72024188D01*
X164535820Y-72060498D01*
X164425506Y-72119463D01*
X164328815Y-72198815D01*
X164249463Y-72295506D01*
X164190498Y-72405820D01*
X164154188Y-72525518D01*
X164141928Y-72650000D01*
X164145000Y-73214250D01*
X164303750Y-73373000D01*
X165503000Y-73373000D01*
X165503000Y-73353000D01*
X165757000Y-73353000D01*
X165757000Y-73373000D01*
X165777000Y-73373000D01*
X165777000Y-73627000D01*
X165757000Y-73627000D01*
X165757000Y-73647000D01*
X165503000Y-73647000D01*
X165503000Y-73627000D01*
X164303750Y-73627000D01*
X164145000Y-73785750D01*
X164141928Y-74350000D01*
X164154188Y-74474482D01*
X164190498Y-74594180D01*
X164249463Y-74704494D01*
X164328815Y-74801185D01*
X164425506Y-74880537D01*
X164535820Y-74939502D01*
X164604687Y-74960393D01*
X164574866Y-74984866D01*
X164389294Y-75210986D01*
X164251401Y-75468966D01*
X164166487Y-75748889D01*
X164137815Y-76040000D01*
X164166487Y-76331111D01*
X164251401Y-76611034D01*
X164389294Y-76869014D01*
X164574866Y-77095134D01*
X164800986Y-77280706D01*
X164855791Y-77310000D01*
X164800986Y-77339294D01*
X164574866Y-77524866D01*
X164389294Y-77750986D01*
X164251401Y-78008966D01*
X164166487Y-78288889D01*
X164137815Y-78580000D01*
X164166487Y-78871111D01*
X164251401Y-79151034D01*
X164389294Y-79409014D01*
X164574866Y-79635134D01*
X164800986Y-79820706D01*
X164855791Y-79850000D01*
X164800986Y-79879294D01*
X164574866Y-80064866D01*
X164389294Y-80290986D01*
X164251401Y-80548966D01*
X164166487Y-80828889D01*
X164137815Y-81120000D01*
X164166487Y-81411111D01*
X164251401Y-81691034D01*
X164389294Y-81949014D01*
X164574866Y-82175134D01*
X164800986Y-82360706D01*
X164855791Y-82390000D01*
X164800986Y-82419294D01*
X164574866Y-82604866D01*
X164389294Y-82830986D01*
X164251401Y-83088966D01*
X164166487Y-83368889D01*
X164137815Y-83660000D01*
X164166487Y-83951111D01*
X164251401Y-84231034D01*
X164389294Y-84489014D01*
X164574866Y-84715134D01*
X164800986Y-84900706D01*
X164855791Y-84930000D01*
X164800986Y-84959294D01*
X164574866Y-85144866D01*
X164389294Y-85370986D01*
X164251401Y-85628966D01*
X164166487Y-85908889D01*
X164137815Y-86200000D01*
X164166487Y-86491111D01*
X164251401Y-86771034D01*
X164389294Y-87029014D01*
X164574866Y-87255134D01*
X164800986Y-87440706D01*
X165058966Y-87578599D01*
X165338889Y-87663513D01*
X165557050Y-87685000D01*
X165702950Y-87685000D01*
X165921111Y-87663513D01*
X166201034Y-87578599D01*
X166459014Y-87440706D01*
X166685134Y-87255134D01*
X166870706Y-87029014D01*
X167008599Y-86771034D01*
X167093513Y-86491111D01*
X167122185Y-86200000D01*
X167093513Y-85908889D01*
X167008599Y-85628966D01*
X166870706Y-85370986D01*
X166685134Y-85144866D01*
X166459014Y-84959294D01*
X166404209Y-84930000D01*
X166459014Y-84900706D01*
X166685134Y-84715134D01*
X166870706Y-84489014D01*
X167008599Y-84231034D01*
X167093513Y-83951111D01*
X167122185Y-83660000D01*
X167093513Y-83368889D01*
X167008599Y-83088966D01*
X166870706Y-82830986D01*
X166685134Y-82604866D01*
X166459014Y-82419294D01*
X166404209Y-82390000D01*
X166459014Y-82360706D01*
X166685134Y-82175134D01*
X166870706Y-81949014D01*
X167008599Y-81691034D01*
X167093513Y-81411111D01*
X167122185Y-81120000D01*
X167093513Y-80828889D01*
X167008599Y-80548966D01*
X166870706Y-80290986D01*
X166685134Y-80064866D01*
X166459014Y-79879294D01*
X166404209Y-79850000D01*
X166459014Y-79820706D01*
X166587817Y-79715000D01*
X166776330Y-79715000D01*
X166832081Y-79720491D01*
X166887832Y-79715000D01*
X166887833Y-79715000D01*
X167054580Y-79698577D01*
X167268528Y-79633676D01*
X167465704Y-79528284D01*
X167485000Y-79512448D01*
X167485001Y-110915000D01*
X78685000Y-110915000D01*
X78685000Y-108204872D01*
X78940000Y-108204872D01*
X78940000Y-108645128D01*
X79025890Y-109076925D01*
X79194369Y-109483669D01*
X79438962Y-109849729D01*
X79750271Y-110161038D01*
X80116331Y-110405631D01*
X80523075Y-110574110D01*
X80954872Y-110660000D01*
X81395128Y-110660000D01*
X81826925Y-110574110D01*
X82233669Y-110405631D01*
X82599729Y-110161038D01*
X82911038Y-109849729D01*
X83155631Y-109483669D01*
X83324110Y-109076925D01*
X83410000Y-108645128D01*
X83410000Y-108204872D01*
X83324110Y-107773075D01*
X83155631Y-107366331D01*
X82911038Y-107000271D01*
X82599729Y-106688962D01*
X82233669Y-106444369D01*
X81826925Y-106275890D01*
X81395128Y-106190000D01*
X80954872Y-106190000D01*
X80523075Y-106275890D01*
X80116331Y-106444369D01*
X79750271Y-106688962D01*
X79438962Y-107000271D01*
X79194369Y-107366331D01*
X79025890Y-107773075D01*
X78940000Y-108204872D01*
X78685000Y-108204872D01*
X78685000Y-101440000D01*
X84935000Y-101440000D01*
X84935000Y-109060000D01*
X84941290Y-109124145D01*
X84947133Y-109188356D01*
X84947812Y-109190662D01*
X84948046Y-109193051D01*
X84966666Y-109254723D01*
X84984879Y-109316606D01*
X84985992Y-109318736D01*
X84986686Y-109321033D01*
X85016916Y-109377886D01*
X85046816Y-109435081D01*
X85048323Y-109436955D01*
X85049449Y-109439073D01*
X85090157Y-109488986D01*
X85130586Y-109539269D01*
X85132427Y-109540813D01*
X85133944Y-109542674D01*
X85183616Y-109583766D01*
X85232998Y-109625203D01*
X85235102Y-109626360D01*
X85236953Y-109627891D01*
X85293639Y-109658541D01*
X85350150Y-109689608D01*
X85352442Y-109690335D01*
X85354552Y-109691476D01*
X85416084Y-109710524D01*
X85477580Y-109730031D01*
X85479968Y-109730299D01*
X85482262Y-109731009D01*
X85546366Y-109737746D01*
X85610436Y-109744933D01*
X85615050Y-109744965D01*
X85615218Y-109744983D01*
X85615386Y-109744968D01*
X85620000Y-109745000D01*
X88160000Y-109745000D01*
X88224145Y-109738710D01*
X88288356Y-109732867D01*
X88290662Y-109732188D01*
X88293051Y-109731954D01*
X88354723Y-109713334D01*
X88416606Y-109695121D01*
X88418736Y-109694008D01*
X88421033Y-109693314D01*
X88477886Y-109663084D01*
X88535081Y-109633184D01*
X88536955Y-109631677D01*
X88539073Y-109630551D01*
X88588986Y-109589843D01*
X88639269Y-109549414D01*
X88640813Y-109547573D01*
X88642674Y-109546056D01*
X88683766Y-109496384D01*
X88725203Y-109447002D01*
X88726360Y-109444898D01*
X88727891Y-109443047D01*
X88758541Y-109386361D01*
X88789608Y-109329850D01*
X88790335Y-109327558D01*
X88791476Y-109325448D01*
X88794554Y-109315503D01*
X88794879Y-109316606D01*
X88795992Y-109318736D01*
X88796686Y-109321033D01*
X88826916Y-109377886D01*
X88856816Y-109435081D01*
X88858323Y-109436955D01*
X88859449Y-109439073D01*
X88900157Y-109488986D01*
X88940586Y-109539269D01*
X88942427Y-109540813D01*
X88943944Y-109542674D01*
X88993616Y-109583766D01*
X89042998Y-109625203D01*
X89045102Y-109626360D01*
X89046953Y-109627891D01*
X89103639Y-109658541D01*
X89160150Y-109689608D01*
X89162442Y-109690335D01*
X89164552Y-109691476D01*
X89226084Y-109710524D01*
X89287580Y-109730031D01*
X89289968Y-109730299D01*
X89292262Y-109731009D01*
X89356366Y-109737746D01*
X89420436Y-109744933D01*
X89425050Y-109744965D01*
X89425218Y-109744983D01*
X89425386Y-109744968D01*
X89430000Y-109745000D01*
X91970000Y-109745000D01*
X92034145Y-109738710D01*
X92098356Y-109732867D01*
X92100662Y-109732188D01*
X92103051Y-109731954D01*
X92164723Y-109713334D01*
X92226606Y-109695121D01*
X92228736Y-109694008D01*
X92231033Y-109693314D01*
X92287886Y-109663084D01*
X92345081Y-109633184D01*
X92346955Y-109631677D01*
X92349073Y-109630551D01*
X92398986Y-109589843D01*
X92449269Y-109549414D01*
X92450813Y-109547573D01*
X92452674Y-109546056D01*
X92493766Y-109496384D01*
X92535203Y-109447002D01*
X92536360Y-109444898D01*
X92537891Y-109443047D01*
X92568541Y-109386361D01*
X92599608Y-109329850D01*
X92600335Y-109327558D01*
X92601476Y-109325448D01*
X92604554Y-109315503D01*
X92604879Y-109316606D01*
X92605992Y-109318736D01*
X92606686Y-109321033D01*
X92636916Y-109377886D01*
X92666816Y-109435081D01*
X92668323Y-109436955D01*
X92669449Y-109439073D01*
X92710157Y-109488986D01*
X92750586Y-109539269D01*
X92752427Y-109540813D01*
X92753944Y-109542674D01*
X92803616Y-109583766D01*
X92852998Y-109625203D01*
X92855102Y-109626360D01*
X92856953Y-109627891D01*
X92913639Y-109658541D01*
X92970150Y-109689608D01*
X92972442Y-109690335D01*
X92974552Y-109691476D01*
X93036084Y-109710524D01*
X93097580Y-109730031D01*
X93099968Y-109730299D01*
X93102262Y-109731009D01*
X93166366Y-109737746D01*
X93230436Y-109744933D01*
X93235050Y-109744965D01*
X93235218Y-109744983D01*
X93235386Y-109744968D01*
X93240000Y-109745000D01*
X95780000Y-109745000D01*
X95844145Y-109738710D01*
X95908356Y-109732867D01*
X95910662Y-109732188D01*
X95913051Y-109731954D01*
X95974723Y-109713334D01*
X96036606Y-109695121D01*
X96038736Y-109694008D01*
X96041033Y-109693314D01*
X96097886Y-109663084D01*
X96155081Y-109633184D01*
X96156955Y-109631677D01*
X96159073Y-109630551D01*
X96208986Y-109589843D01*
X96259269Y-109549414D01*
X96260813Y-109547573D01*
X96262674Y-109546056D01*
X96303766Y-109496384D01*
X96345203Y-109447002D01*
X96346360Y-109444898D01*
X96347891Y-109443047D01*
X96378541Y-109386361D01*
X96409608Y-109329850D01*
X96410335Y-109327558D01*
X96411476Y-109325448D01*
X96414554Y-109315503D01*
X96414879Y-109316606D01*
X96415992Y-109318736D01*
X96416686Y-109321033D01*
X96446916Y-109377886D01*
X96476816Y-109435081D01*
X96478323Y-109436955D01*
X96479449Y-109439073D01*
X96520157Y-109488986D01*
X96560586Y-109539269D01*
X96562427Y-109540813D01*
X96563944Y-109542674D01*
X96613616Y-109583766D01*
X96662998Y-109625203D01*
X96665102Y-109626360D01*
X96666953Y-109627891D01*
X96723639Y-109658541D01*
X96780150Y-109689608D01*
X96782442Y-109690335D01*
X96784552Y-109691476D01*
X96846084Y-109710524D01*
X96907580Y-109730031D01*
X96909968Y-109730299D01*
X96912262Y-109731009D01*
X96976366Y-109737746D01*
X97040436Y-109744933D01*
X97045050Y-109744965D01*
X97045218Y-109744983D01*
X97045386Y-109744968D01*
X97050000Y-109745000D01*
X99590000Y-109745000D01*
X99654145Y-109738710D01*
X99718356Y-109732867D01*
X99720662Y-109732188D01*
X99723051Y-109731954D01*
X99784723Y-109713334D01*
X99846606Y-109695121D01*
X99848736Y-109694008D01*
X99851033Y-109693314D01*
X99907886Y-109663084D01*
X99965081Y-109633184D01*
X99966955Y-109631677D01*
X99969073Y-109630551D01*
X100018986Y-109589843D01*
X100069269Y-109549414D01*
X100070813Y-109547573D01*
X100072674Y-109546056D01*
X100113766Y-109496384D01*
X100155203Y-109447002D01*
X100156360Y-109444898D01*
X100157891Y-109443047D01*
X100188541Y-109386361D01*
X100219608Y-109329850D01*
X100220335Y-109327558D01*
X100221476Y-109325448D01*
X100224554Y-109315503D01*
X100224879Y-109316606D01*
X100225992Y-109318736D01*
X100226686Y-109321033D01*
X100256916Y-109377886D01*
X100286816Y-109435081D01*
X100288323Y-109436955D01*
X100289449Y-109439073D01*
X100330157Y-109488986D01*
X100370586Y-109539269D01*
X100372427Y-109540813D01*
X100373944Y-109542674D01*
X100423616Y-109583766D01*
X100472998Y-109625203D01*
X100475102Y-109626360D01*
X100476953Y-109627891D01*
X100533639Y-109658541D01*
X100590150Y-109689608D01*
X100592442Y-109690335D01*
X100594552Y-109691476D01*
X100656084Y-109710524D01*
X100717580Y-109730031D01*
X100719968Y-109730299D01*
X100722262Y-109731009D01*
X100786366Y-109737746D01*
X100850436Y-109744933D01*
X100855050Y-109744965D01*
X100855218Y-109744983D01*
X100855386Y-109744968D01*
X100860000Y-109745000D01*
X103400000Y-109745000D01*
X103464145Y-109738710D01*
X103528356Y-109732867D01*
X103530662Y-109732188D01*
X103533051Y-109731954D01*
X103594723Y-109713334D01*
X103656606Y-109695121D01*
X103658736Y-109694008D01*
X103661033Y-109693314D01*
X103717886Y-109663084D01*
X103775081Y-109633184D01*
X103776955Y-109631677D01*
X103779073Y-109630551D01*
X103828986Y-109589843D01*
X103879269Y-109549414D01*
X103880813Y-109547573D01*
X103882674Y-109546056D01*
X103923766Y-109496384D01*
X103965203Y-109447002D01*
X103966360Y-109444898D01*
X103967891Y-109443047D01*
X103998541Y-109386361D01*
X104029608Y-109329850D01*
X104030335Y-109327558D01*
X104031476Y-109325448D01*
X104034554Y-109315503D01*
X104034879Y-109316606D01*
X104035992Y-109318736D01*
X104036686Y-109321033D01*
X104066916Y-109377886D01*
X104096816Y-109435081D01*
X104098323Y-109436955D01*
X104099449Y-109439073D01*
X104140157Y-109488986D01*
X104180586Y-109539269D01*
X104182427Y-109540813D01*
X104183944Y-109542674D01*
X104233616Y-109583766D01*
X104282998Y-109625203D01*
X104285102Y-109626360D01*
X104286953Y-109627891D01*
X104343639Y-109658541D01*
X104400150Y-109689608D01*
X104402442Y-109690335D01*
X104404552Y-109691476D01*
X104466084Y-109710524D01*
X104527580Y-109730031D01*
X104529968Y-109730299D01*
X104532262Y-109731009D01*
X104596366Y-109737746D01*
X104660436Y-109744933D01*
X104665050Y-109744965D01*
X104665218Y-109744983D01*
X104665386Y-109744968D01*
X104670000Y-109745000D01*
X107210000Y-109745000D01*
X107274145Y-109738710D01*
X107338356Y-109732867D01*
X107340662Y-109732188D01*
X107343051Y-109731954D01*
X107404723Y-109713334D01*
X107466606Y-109695121D01*
X107468736Y-109694008D01*
X107471033Y-109693314D01*
X107527886Y-109663084D01*
X107585081Y-109633184D01*
X107586955Y-109631677D01*
X107589073Y-109630551D01*
X107638986Y-109589843D01*
X107689269Y-109549414D01*
X107690813Y-109547573D01*
X107692674Y-109546056D01*
X107733766Y-109496384D01*
X107775203Y-109447002D01*
X107776360Y-109444898D01*
X107777891Y-109443047D01*
X107808541Y-109386361D01*
X107839608Y-109329850D01*
X107840335Y-109327558D01*
X107841476Y-109325448D01*
X107844554Y-109315503D01*
X107844879Y-109316606D01*
X107845992Y-109318736D01*
X107846686Y-109321033D01*
X107876916Y-109377886D01*
X107906816Y-109435081D01*
X107908323Y-109436955D01*
X107909449Y-109439073D01*
X107950157Y-109488986D01*
X107990586Y-109539269D01*
X107992427Y-109540813D01*
X107993944Y-109542674D01*
X108043616Y-109583766D01*
X108092998Y-109625203D01*
X108095102Y-109626360D01*
X108096953Y-109627891D01*
X108153639Y-109658541D01*
X108210150Y-109689608D01*
X108212442Y-109690335D01*
X108214552Y-109691476D01*
X108276084Y-109710524D01*
X108337580Y-109730031D01*
X108339968Y-109730299D01*
X108342262Y-109731009D01*
X108406366Y-109737746D01*
X108470436Y-109744933D01*
X108475050Y-109744965D01*
X108475218Y-109744983D01*
X108475386Y-109744968D01*
X108480000Y-109745000D01*
X111020000Y-109745000D01*
X111084145Y-109738710D01*
X111148356Y-109732867D01*
X111150662Y-109732188D01*
X111153051Y-109731954D01*
X111214723Y-109713334D01*
X111276606Y-109695121D01*
X111278736Y-109694008D01*
X111281033Y-109693314D01*
X111337886Y-109663084D01*
X111395081Y-109633184D01*
X111396955Y-109631677D01*
X111399073Y-109630551D01*
X111448986Y-109589843D01*
X111499269Y-109549414D01*
X111500813Y-109547573D01*
X111502674Y-109546056D01*
X111543766Y-109496384D01*
X111585203Y-109447002D01*
X111586360Y-109444898D01*
X111587891Y-109443047D01*
X111618541Y-109386361D01*
X111649608Y-109329850D01*
X111650335Y-109327558D01*
X111651476Y-109325448D01*
X111654554Y-109315503D01*
X111654879Y-109316606D01*
X111655992Y-109318736D01*
X111656686Y-109321033D01*
X111686916Y-109377886D01*
X111716816Y-109435081D01*
X111718323Y-109436955D01*
X111719449Y-109439073D01*
X111760157Y-109488986D01*
X111800586Y-109539269D01*
X111802427Y-109540813D01*
X111803944Y-109542674D01*
X111853616Y-109583766D01*
X111902998Y-109625203D01*
X111905102Y-109626360D01*
X111906953Y-109627891D01*
X111963639Y-109658541D01*
X112020150Y-109689608D01*
X112022442Y-109690335D01*
X112024552Y-109691476D01*
X112086084Y-109710524D01*
X112147580Y-109730031D01*
X112149968Y-109730299D01*
X112152262Y-109731009D01*
X112216366Y-109737746D01*
X112280436Y-109744933D01*
X112285050Y-109744965D01*
X112285218Y-109744983D01*
X112285386Y-109744968D01*
X112290000Y-109745000D01*
X114830000Y-109745000D01*
X114894145Y-109738710D01*
X114958356Y-109732867D01*
X114960662Y-109732188D01*
X114963051Y-109731954D01*
X115024723Y-109713334D01*
X115086606Y-109695121D01*
X115088736Y-109694008D01*
X115091033Y-109693314D01*
X115147886Y-109663084D01*
X115205081Y-109633184D01*
X115206955Y-109631677D01*
X115209073Y-109630551D01*
X115258986Y-109589843D01*
X115309269Y-109549414D01*
X115310813Y-109547573D01*
X115312674Y-109546056D01*
X115353766Y-109496384D01*
X115395203Y-109447002D01*
X115396360Y-109444898D01*
X115397891Y-109443047D01*
X115428541Y-109386361D01*
X115459608Y-109329850D01*
X115460335Y-109327558D01*
X115461476Y-109325448D01*
X115464554Y-109315503D01*
X115464879Y-109316606D01*
X115465992Y-109318736D01*
X115466686Y-109321033D01*
X115496916Y-109377886D01*
X115526816Y-109435081D01*
X115528323Y-109436955D01*
X115529449Y-109439073D01*
X115570157Y-109488986D01*
X115610586Y-109539269D01*
X115612427Y-109540813D01*
X115613944Y-109542674D01*
X115663616Y-109583766D01*
X115712998Y-109625203D01*
X115715102Y-109626360D01*
X115716953Y-109627891D01*
X115773639Y-109658541D01*
X115830150Y-109689608D01*
X115832442Y-109690335D01*
X115834552Y-109691476D01*
X115896084Y-109710524D01*
X115957580Y-109730031D01*
X115959968Y-109730299D01*
X115962262Y-109731009D01*
X116026366Y-109737746D01*
X116090436Y-109744933D01*
X116095050Y-109744965D01*
X116095218Y-109744983D01*
X116095386Y-109744968D01*
X116100000Y-109745000D01*
X118640000Y-109745000D01*
X118704145Y-109738710D01*
X118768356Y-109732867D01*
X118770662Y-109732188D01*
X118773051Y-109731954D01*
X118834723Y-109713334D01*
X118896606Y-109695121D01*
X118898736Y-109694008D01*
X118901033Y-109693314D01*
X118957886Y-109663084D01*
X119015081Y-109633184D01*
X119016955Y-109631677D01*
X119019073Y-109630551D01*
X119068986Y-109589843D01*
X119119269Y-109549414D01*
X119120813Y-109547573D01*
X119122674Y-109546056D01*
X119163766Y-109496384D01*
X119205203Y-109447002D01*
X119206360Y-109444898D01*
X119207891Y-109443047D01*
X119238541Y-109386361D01*
X119269608Y-109329850D01*
X119270335Y-109327558D01*
X119271476Y-109325448D01*
X119274554Y-109315503D01*
X119274879Y-109316606D01*
X119275992Y-109318736D01*
X119276686Y-109321033D01*
X119306916Y-109377886D01*
X119336816Y-109435081D01*
X119338323Y-109436955D01*
X119339449Y-109439073D01*
X119380157Y-109488986D01*
X119420586Y-109539269D01*
X119422427Y-109540813D01*
X119423944Y-109542674D01*
X119473616Y-109583766D01*
X119522998Y-109625203D01*
X119525102Y-109626360D01*
X119526953Y-109627891D01*
X119583639Y-109658541D01*
X119640150Y-109689608D01*
X119642442Y-109690335D01*
X119644552Y-109691476D01*
X119706084Y-109710524D01*
X119767580Y-109730031D01*
X119769968Y-109730299D01*
X119772262Y-109731009D01*
X119836366Y-109737746D01*
X119900436Y-109744933D01*
X119905050Y-109744965D01*
X119905218Y-109744983D01*
X119905386Y-109744968D01*
X119910000Y-109745000D01*
X122450000Y-109745000D01*
X122514145Y-109738710D01*
X122578356Y-109732867D01*
X122580662Y-109732188D01*
X122583051Y-109731954D01*
X122644723Y-109713334D01*
X122706606Y-109695121D01*
X122708736Y-109694008D01*
X122711033Y-109693314D01*
X122767886Y-109663084D01*
X122825081Y-109633184D01*
X122826955Y-109631677D01*
X122829073Y-109630551D01*
X122878986Y-109589843D01*
X122929269Y-109549414D01*
X122930813Y-109547573D01*
X122932674Y-109546056D01*
X122973766Y-109496384D01*
X123015203Y-109447002D01*
X123016360Y-109444898D01*
X123017891Y-109443047D01*
X123048541Y-109386361D01*
X123079608Y-109329850D01*
X123080335Y-109327558D01*
X123081476Y-109325448D01*
X123084554Y-109315503D01*
X123084879Y-109316606D01*
X123085992Y-109318736D01*
X123086686Y-109321033D01*
X123116916Y-109377886D01*
X123146816Y-109435081D01*
X123148323Y-109436955D01*
X123149449Y-109439073D01*
X123190157Y-109488986D01*
X123230586Y-109539269D01*
X123232427Y-109540813D01*
X123233944Y-109542674D01*
X123283616Y-109583766D01*
X123332998Y-109625203D01*
X123335102Y-109626360D01*
X123336953Y-109627891D01*
X123393639Y-109658541D01*
X123450150Y-109689608D01*
X123452442Y-109690335D01*
X123454552Y-109691476D01*
X123516084Y-109710524D01*
X123577580Y-109730031D01*
X123579968Y-109730299D01*
X123582262Y-109731009D01*
X123646366Y-109737746D01*
X123710436Y-109744933D01*
X123715050Y-109744965D01*
X123715218Y-109744983D01*
X123715386Y-109744968D01*
X123720000Y-109745000D01*
X126260000Y-109745000D01*
X126324145Y-109738710D01*
X126388356Y-109732867D01*
X126390662Y-109732188D01*
X126393051Y-109731954D01*
X126454723Y-109713334D01*
X126516606Y-109695121D01*
X126518736Y-109694008D01*
X126521033Y-109693314D01*
X126577886Y-109663084D01*
X126635081Y-109633184D01*
X126636955Y-109631677D01*
X126639073Y-109630551D01*
X126688986Y-109589843D01*
X126739269Y-109549414D01*
X126740813Y-109547573D01*
X126742674Y-109546056D01*
X126783766Y-109496384D01*
X126825203Y-109447002D01*
X126826360Y-109444898D01*
X126827891Y-109443047D01*
X126858541Y-109386361D01*
X126889608Y-109329850D01*
X126890335Y-109327558D01*
X126891476Y-109325448D01*
X126894554Y-109315503D01*
X126894879Y-109316606D01*
X126895992Y-109318736D01*
X126896686Y-109321033D01*
X126926916Y-109377886D01*
X126956816Y-109435081D01*
X126958323Y-109436955D01*
X126959449Y-109439073D01*
X127000157Y-109488986D01*
X127040586Y-109539269D01*
X127042427Y-109540813D01*
X127043944Y-109542674D01*
X127093616Y-109583766D01*
X127142998Y-109625203D01*
X127145102Y-109626360D01*
X127146953Y-109627891D01*
X127203639Y-109658541D01*
X127260150Y-109689608D01*
X127262442Y-109690335D01*
X127264552Y-109691476D01*
X127326084Y-109710524D01*
X127387580Y-109730031D01*
X127389968Y-109730299D01*
X127392262Y-109731009D01*
X127456366Y-109737746D01*
X127520436Y-109744933D01*
X127525050Y-109744965D01*
X127525218Y-109744983D01*
X127525386Y-109744968D01*
X127530000Y-109745000D01*
X130070000Y-109745000D01*
X130134145Y-109738710D01*
X130198356Y-109732867D01*
X130200662Y-109732188D01*
X130203051Y-109731954D01*
X130264723Y-109713334D01*
X130326606Y-109695121D01*
X130328736Y-109694008D01*
X130331033Y-109693314D01*
X130387886Y-109663084D01*
X130445081Y-109633184D01*
X130446955Y-109631677D01*
X130449073Y-109630551D01*
X130498986Y-109589843D01*
X130549269Y-109549414D01*
X130550813Y-109547573D01*
X130552674Y-109546056D01*
X130593766Y-109496384D01*
X130635203Y-109447002D01*
X130636360Y-109444898D01*
X130637891Y-109443047D01*
X130668541Y-109386361D01*
X130699608Y-109329850D01*
X130700335Y-109327558D01*
X130701476Y-109325448D01*
X130704554Y-109315503D01*
X130704879Y-109316606D01*
X130705992Y-109318736D01*
X130706686Y-109321033D01*
X130736916Y-109377886D01*
X130766816Y-109435081D01*
X130768323Y-109436955D01*
X130769449Y-109439073D01*
X130810157Y-109488986D01*
X130850586Y-109539269D01*
X130852427Y-109540813D01*
X130853944Y-109542674D01*
X130903616Y-109583766D01*
X130952998Y-109625203D01*
X130955102Y-109626360D01*
X130956953Y-109627891D01*
X131013639Y-109658541D01*
X131070150Y-109689608D01*
X131072442Y-109690335D01*
X131074552Y-109691476D01*
X131136084Y-109710524D01*
X131197580Y-109730031D01*
X131199968Y-109730299D01*
X131202262Y-109731009D01*
X131266366Y-109737746D01*
X131330436Y-109744933D01*
X131335050Y-109744965D01*
X131335218Y-109744983D01*
X131335386Y-109744968D01*
X131340000Y-109745000D01*
X133880000Y-109745000D01*
X133944145Y-109738710D01*
X134008356Y-109732867D01*
X134010662Y-109732188D01*
X134013051Y-109731954D01*
X134074723Y-109713334D01*
X134136606Y-109695121D01*
X134138736Y-109694008D01*
X134141033Y-109693314D01*
X134197886Y-109663084D01*
X134255081Y-109633184D01*
X134256955Y-109631677D01*
X134259073Y-109630551D01*
X134308986Y-109589843D01*
X134359269Y-109549414D01*
X134360813Y-109547573D01*
X134362674Y-109546056D01*
X134403766Y-109496384D01*
X134445203Y-109447002D01*
X134446360Y-109444898D01*
X134447891Y-109443047D01*
X134478541Y-109386361D01*
X134509608Y-109329850D01*
X134510335Y-109327558D01*
X134511476Y-109325448D01*
X134514554Y-109315503D01*
X134514879Y-109316606D01*
X134515992Y-109318736D01*
X134516686Y-109321033D01*
X134546916Y-109377886D01*
X134576816Y-109435081D01*
X134578323Y-109436955D01*
X134579449Y-109439073D01*
X134620157Y-109488986D01*
X134660586Y-109539269D01*
X134662427Y-109540813D01*
X134663944Y-109542674D01*
X134713616Y-109583766D01*
X134762998Y-109625203D01*
X134765102Y-109626360D01*
X134766953Y-109627891D01*
X134823639Y-109658541D01*
X134880150Y-109689608D01*
X134882442Y-109690335D01*
X134884552Y-109691476D01*
X134946084Y-109710524D01*
X135007580Y-109730031D01*
X135009968Y-109730299D01*
X135012262Y-109731009D01*
X135076366Y-109737746D01*
X135140436Y-109744933D01*
X135145050Y-109744965D01*
X135145218Y-109744983D01*
X135145386Y-109744968D01*
X135150000Y-109745000D01*
X137690000Y-109745000D01*
X137754145Y-109738710D01*
X137818356Y-109732867D01*
X137820662Y-109732188D01*
X137823051Y-109731954D01*
X137884723Y-109713334D01*
X137946606Y-109695121D01*
X137948736Y-109694008D01*
X137951033Y-109693314D01*
X138007886Y-109663084D01*
X138065081Y-109633184D01*
X138066955Y-109631677D01*
X138069073Y-109630551D01*
X138118986Y-109589843D01*
X138169269Y-109549414D01*
X138170813Y-109547573D01*
X138172674Y-109546056D01*
X138213766Y-109496384D01*
X138255203Y-109447002D01*
X138256360Y-109444898D01*
X138257891Y-109443047D01*
X138288541Y-109386361D01*
X138319608Y-109329850D01*
X138320335Y-109327558D01*
X138321476Y-109325448D01*
X138324554Y-109315503D01*
X138324879Y-109316606D01*
X138325992Y-109318736D01*
X138326686Y-109321033D01*
X138356916Y-109377886D01*
X138386816Y-109435081D01*
X138388323Y-109436955D01*
X138389449Y-109439073D01*
X138430157Y-109488986D01*
X138470586Y-109539269D01*
X138472427Y-109540813D01*
X138473944Y-109542674D01*
X138523616Y-109583766D01*
X138572998Y-109625203D01*
X138575102Y-109626360D01*
X138576953Y-109627891D01*
X138633639Y-109658541D01*
X138690150Y-109689608D01*
X138692442Y-109690335D01*
X138694552Y-109691476D01*
X138756084Y-109710524D01*
X138817580Y-109730031D01*
X138819968Y-109730299D01*
X138822262Y-109731009D01*
X138886366Y-109737746D01*
X138950436Y-109744933D01*
X138955050Y-109744965D01*
X138955218Y-109744983D01*
X138955386Y-109744968D01*
X138960000Y-109745000D01*
X141500000Y-109745000D01*
X141564145Y-109738710D01*
X141628356Y-109732867D01*
X141630662Y-109732188D01*
X141633051Y-109731954D01*
X141694723Y-109713334D01*
X141756606Y-109695121D01*
X141758736Y-109694008D01*
X141761033Y-109693314D01*
X141817886Y-109663084D01*
X141875081Y-109633184D01*
X141876955Y-109631677D01*
X141879073Y-109630551D01*
X141928986Y-109589843D01*
X141979269Y-109549414D01*
X141980813Y-109547573D01*
X141982674Y-109546056D01*
X142023766Y-109496384D01*
X142065203Y-109447002D01*
X142066360Y-109444898D01*
X142067891Y-109443047D01*
X142098541Y-109386361D01*
X142129608Y-109329850D01*
X142130335Y-109327558D01*
X142131476Y-109325448D01*
X142134554Y-109315503D01*
X142134879Y-109316606D01*
X142135992Y-109318736D01*
X142136686Y-109321033D01*
X142166916Y-109377886D01*
X142196816Y-109435081D01*
X142198323Y-109436955D01*
X142199449Y-109439073D01*
X142240157Y-109488986D01*
X142280586Y-109539269D01*
X142282427Y-109540813D01*
X142283944Y-109542674D01*
X142333616Y-109583766D01*
X142382998Y-109625203D01*
X142385102Y-109626360D01*
X142386953Y-109627891D01*
X142443639Y-109658541D01*
X142500150Y-109689608D01*
X142502442Y-109690335D01*
X142504552Y-109691476D01*
X142566084Y-109710524D01*
X142627580Y-109730031D01*
X142629968Y-109730299D01*
X142632262Y-109731009D01*
X142696366Y-109737746D01*
X142760436Y-109744933D01*
X142765050Y-109744965D01*
X142765218Y-109744983D01*
X142765386Y-109744968D01*
X142770000Y-109745000D01*
X145310000Y-109745000D01*
X145374145Y-109738710D01*
X145438356Y-109732867D01*
X145440662Y-109732188D01*
X145443051Y-109731954D01*
X145504723Y-109713334D01*
X145566606Y-109695121D01*
X145568736Y-109694008D01*
X145571033Y-109693314D01*
X145627886Y-109663084D01*
X145685081Y-109633184D01*
X145686955Y-109631677D01*
X145689073Y-109630551D01*
X145738986Y-109589843D01*
X145789269Y-109549414D01*
X145790813Y-109547573D01*
X145792674Y-109546056D01*
X145833766Y-109496384D01*
X145875203Y-109447002D01*
X145876360Y-109444898D01*
X145877891Y-109443047D01*
X145908541Y-109386361D01*
X145939608Y-109329850D01*
X145940335Y-109327558D01*
X145941476Y-109325448D01*
X145944554Y-109315503D01*
X145944879Y-109316606D01*
X145945992Y-109318736D01*
X145946686Y-109321033D01*
X145976916Y-109377886D01*
X146006816Y-109435081D01*
X146008323Y-109436955D01*
X146009449Y-109439073D01*
X146050157Y-109488986D01*
X146090586Y-109539269D01*
X146092427Y-109540813D01*
X146093944Y-109542674D01*
X146143616Y-109583766D01*
X146192998Y-109625203D01*
X146195102Y-109626360D01*
X146196953Y-109627891D01*
X146253639Y-109658541D01*
X146310150Y-109689608D01*
X146312442Y-109690335D01*
X146314552Y-109691476D01*
X146376084Y-109710524D01*
X146437580Y-109730031D01*
X146439968Y-109730299D01*
X146442262Y-109731009D01*
X146506366Y-109737746D01*
X146570436Y-109744933D01*
X146575050Y-109744965D01*
X146575218Y-109744983D01*
X146575386Y-109744968D01*
X146580000Y-109745000D01*
X149120000Y-109745000D01*
X149184145Y-109738710D01*
X149248356Y-109732867D01*
X149250662Y-109732188D01*
X149253051Y-109731954D01*
X149314723Y-109713334D01*
X149376606Y-109695121D01*
X149378736Y-109694008D01*
X149381033Y-109693314D01*
X149437886Y-109663084D01*
X149495081Y-109633184D01*
X149496955Y-109631677D01*
X149499073Y-109630551D01*
X149548986Y-109589843D01*
X149599269Y-109549414D01*
X149600813Y-109547573D01*
X149602674Y-109546056D01*
X149643766Y-109496384D01*
X149685203Y-109447002D01*
X149686360Y-109444898D01*
X149687891Y-109443047D01*
X149718541Y-109386361D01*
X149749608Y-109329850D01*
X149750335Y-109327558D01*
X149751476Y-109325448D01*
X149754554Y-109315503D01*
X149754879Y-109316606D01*
X149755992Y-109318736D01*
X149756686Y-109321033D01*
X149786916Y-109377886D01*
X149816816Y-109435081D01*
X149818323Y-109436955D01*
X149819449Y-109439073D01*
X149860157Y-109488986D01*
X149900586Y-109539269D01*
X149902427Y-109540813D01*
X149903944Y-109542674D01*
X149953616Y-109583766D01*
X150002998Y-109625203D01*
X150005102Y-109626360D01*
X150006953Y-109627891D01*
X150063639Y-109658541D01*
X150120150Y-109689608D01*
X150122442Y-109690335D01*
X150124552Y-109691476D01*
X150186084Y-109710524D01*
X150247580Y-109730031D01*
X150249968Y-109730299D01*
X150252262Y-109731009D01*
X150316366Y-109737746D01*
X150380436Y-109744933D01*
X150385050Y-109744965D01*
X150385218Y-109744983D01*
X150385386Y-109744968D01*
X150390000Y-109745000D01*
X152930000Y-109745000D01*
X152994145Y-109738710D01*
X153058356Y-109732867D01*
X153060662Y-109732188D01*
X153063051Y-109731954D01*
X153124723Y-109713334D01*
X153186606Y-109695121D01*
X153188736Y-109694008D01*
X153191033Y-109693314D01*
X153247886Y-109663084D01*
X153305081Y-109633184D01*
X153306955Y-109631677D01*
X153309073Y-109630551D01*
X153358986Y-109589843D01*
X153409269Y-109549414D01*
X153410813Y-109547573D01*
X153412674Y-109546056D01*
X153453766Y-109496384D01*
X153495203Y-109447002D01*
X153496360Y-109444898D01*
X153497891Y-109443047D01*
X153528541Y-109386361D01*
X153559608Y-109329850D01*
X153560335Y-109327558D01*
X153561476Y-109325448D01*
X153564554Y-109315503D01*
X153564879Y-109316606D01*
X153565992Y-109318736D01*
X153566686Y-109321033D01*
X153596916Y-109377886D01*
X153626816Y-109435081D01*
X153628323Y-109436955D01*
X153629449Y-109439073D01*
X153670157Y-109488986D01*
X153710586Y-109539269D01*
X153712427Y-109540813D01*
X153713944Y-109542674D01*
X153763616Y-109583766D01*
X153812998Y-109625203D01*
X153815102Y-109626360D01*
X153816953Y-109627891D01*
X153873639Y-109658541D01*
X153930150Y-109689608D01*
X153932442Y-109690335D01*
X153934552Y-109691476D01*
X153996084Y-109710524D01*
X154057580Y-109730031D01*
X154059968Y-109730299D01*
X154062262Y-109731009D01*
X154126366Y-109737746D01*
X154190436Y-109744933D01*
X154195050Y-109744965D01*
X154195218Y-109744983D01*
X154195386Y-109744968D01*
X154200000Y-109745000D01*
X156740000Y-109745000D01*
X156804145Y-109738710D01*
X156868356Y-109732867D01*
X156870662Y-109732188D01*
X156873051Y-109731954D01*
X156934723Y-109713334D01*
X156996606Y-109695121D01*
X156998736Y-109694008D01*
X157001033Y-109693314D01*
X157057886Y-109663084D01*
X157115081Y-109633184D01*
X157116955Y-109631677D01*
X157119073Y-109630551D01*
X157168986Y-109589843D01*
X157219269Y-109549414D01*
X157220813Y-109547573D01*
X157222674Y-109546056D01*
X157263766Y-109496384D01*
X157305203Y-109447002D01*
X157306360Y-109444898D01*
X157307891Y-109443047D01*
X157338541Y-109386361D01*
X157369608Y-109329850D01*
X157370335Y-109327558D01*
X157371476Y-109325448D01*
X157374554Y-109315503D01*
X157374879Y-109316606D01*
X157375992Y-109318736D01*
X157376686Y-109321033D01*
X157406916Y-109377886D01*
X157436816Y-109435081D01*
X157438323Y-109436955D01*
X157439449Y-109439073D01*
X157480157Y-109488986D01*
X157520586Y-109539269D01*
X157522427Y-109540813D01*
X157523944Y-109542674D01*
X157573616Y-109583766D01*
X157622998Y-109625203D01*
X157625102Y-109626360D01*
X157626953Y-109627891D01*
X157683639Y-109658541D01*
X157740150Y-109689608D01*
X157742442Y-109690335D01*
X157744552Y-109691476D01*
X157806084Y-109710524D01*
X157867580Y-109730031D01*
X157869968Y-109730299D01*
X157872262Y-109731009D01*
X157936366Y-109737746D01*
X158000436Y-109744933D01*
X158005050Y-109744965D01*
X158005218Y-109744983D01*
X158005386Y-109744968D01*
X158010000Y-109745000D01*
X160550000Y-109745000D01*
X160614145Y-109738710D01*
X160678356Y-109732867D01*
X160680662Y-109732188D01*
X160683051Y-109731954D01*
X160744723Y-109713334D01*
X160806606Y-109695121D01*
X160808736Y-109694008D01*
X160811033Y-109693314D01*
X160867886Y-109663084D01*
X160925081Y-109633184D01*
X160926955Y-109631677D01*
X160929073Y-109630551D01*
X160978986Y-109589843D01*
X161029269Y-109549414D01*
X161030813Y-109547573D01*
X161032674Y-109546056D01*
X161073766Y-109496384D01*
X161115203Y-109447002D01*
X161116360Y-109444898D01*
X161117891Y-109443047D01*
X161148541Y-109386361D01*
X161179608Y-109329850D01*
X161180335Y-109327558D01*
X161181476Y-109325448D01*
X161200524Y-109263916D01*
X161220031Y-109202420D01*
X161220299Y-109200032D01*
X161221009Y-109197738D01*
X161227746Y-109133634D01*
X161234933Y-109069564D01*
X161234965Y-109064950D01*
X161234983Y-109064782D01*
X161234968Y-109064614D01*
X161235000Y-109060000D01*
X161235000Y-108204872D01*
X162760000Y-108204872D01*
X162760000Y-108645128D01*
X162845890Y-109076925D01*
X163014369Y-109483669D01*
X163258962Y-109849729D01*
X163570271Y-110161038D01*
X163936331Y-110405631D01*
X164343075Y-110574110D01*
X164774872Y-110660000D01*
X165215128Y-110660000D01*
X165646925Y-110574110D01*
X166053669Y-110405631D01*
X166419729Y-110161038D01*
X166731038Y-109849729D01*
X166975631Y-109483669D01*
X167144110Y-109076925D01*
X167230000Y-108645128D01*
X167230000Y-108204872D01*
X167144110Y-107773075D01*
X166975631Y-107366331D01*
X166731038Y-107000271D01*
X166419729Y-106688962D01*
X166053669Y-106444369D01*
X165646925Y-106275890D01*
X165215128Y-106190000D01*
X164774872Y-106190000D01*
X164343075Y-106275890D01*
X163936331Y-106444369D01*
X163570271Y-106688962D01*
X163258962Y-107000271D01*
X163014369Y-107366331D01*
X162845890Y-107773075D01*
X162760000Y-108204872D01*
X161235000Y-108204872D01*
X161235000Y-101440000D01*
X161228710Y-101375855D01*
X161222867Y-101311644D01*
X161222188Y-101309338D01*
X161221954Y-101306949D01*
X161203334Y-101245277D01*
X161185121Y-101183394D01*
X161184008Y-101181264D01*
X161183314Y-101178967D01*
X161153084Y-101122114D01*
X161123184Y-101064919D01*
X161121677Y-101063045D01*
X161120551Y-101060927D01*
X161079843Y-101011014D01*
X161039414Y-100960731D01*
X161037573Y-100959187D01*
X161036056Y-100957326D01*
X160986384Y-100916234D01*
X160937002Y-100874797D01*
X160934898Y-100873640D01*
X160933047Y-100872109D01*
X160876361Y-100841459D01*
X160819850Y-100810392D01*
X160817558Y-100809665D01*
X160815448Y-100808524D01*
X160753916Y-100789476D01*
X160692420Y-100769969D01*
X160690032Y-100769701D01*
X160687738Y-100768991D01*
X160623634Y-100762254D01*
X160559564Y-100755067D01*
X160554950Y-100755035D01*
X160554782Y-100755017D01*
X160554614Y-100755032D01*
X160550000Y-100755000D01*
X158010000Y-100755000D01*
X157945855Y-100761290D01*
X157881644Y-100767133D01*
X157879338Y-100767812D01*
X157876949Y-100768046D01*
X157815277Y-100786666D01*
X157753394Y-100804879D01*
X157751264Y-100805992D01*
X157748967Y-100806686D01*
X157692114Y-100836916D01*
X157634919Y-100866816D01*
X157633045Y-100868323D01*
X157630927Y-100869449D01*
X157581014Y-100910157D01*
X157530731Y-100950586D01*
X157529187Y-100952427D01*
X157527326Y-100953944D01*
X157486234Y-101003616D01*
X157444797Y-101052998D01*
X157443640Y-101055102D01*
X157442109Y-101056953D01*
X157411459Y-101113639D01*
X157380392Y-101170150D01*
X157379665Y-101172442D01*
X157378524Y-101174552D01*
X157375446Y-101184497D01*
X157375121Y-101183394D01*
X157374008Y-101181264D01*
X157373314Y-101178967D01*
X157343084Y-101122114D01*
X157313184Y-101064919D01*
X157311677Y-101063045D01*
X157310551Y-101060927D01*
X157269843Y-101011014D01*
X157229414Y-100960731D01*
X157227573Y-100959187D01*
X157226056Y-100957326D01*
X157176384Y-100916234D01*
X157127002Y-100874797D01*
X157124898Y-100873640D01*
X157123047Y-100872109D01*
X157066361Y-100841459D01*
X157009850Y-100810392D01*
X157007558Y-100809665D01*
X157005448Y-100808524D01*
X156943916Y-100789476D01*
X156882420Y-100769969D01*
X156880032Y-100769701D01*
X156877738Y-100768991D01*
X156813634Y-100762254D01*
X156749564Y-100755067D01*
X156744950Y-100755035D01*
X156744782Y-100755017D01*
X156744614Y-100755032D01*
X156740000Y-100755000D01*
X154200000Y-100755000D01*
X154135855Y-100761290D01*
X154071644Y-100767133D01*
X154069338Y-100767812D01*
X154066949Y-100768046D01*
X154005277Y-100786666D01*
X153943394Y-100804879D01*
X153941264Y-100805992D01*
X153938967Y-100806686D01*
X153882114Y-100836916D01*
X153824919Y-100866816D01*
X153823045Y-100868323D01*
X153820927Y-100869449D01*
X153771014Y-100910157D01*
X153720731Y-100950586D01*
X153719187Y-100952427D01*
X153717326Y-100953944D01*
X153676234Y-101003616D01*
X153634797Y-101052998D01*
X153633640Y-101055102D01*
X153632109Y-101056953D01*
X153601459Y-101113639D01*
X153570392Y-101170150D01*
X153569665Y-101172442D01*
X153568524Y-101174552D01*
X153565446Y-101184497D01*
X153565121Y-101183394D01*
X153564008Y-101181264D01*
X153563314Y-101178967D01*
X153533084Y-101122114D01*
X153503184Y-101064919D01*
X153501677Y-101063045D01*
X153500551Y-101060927D01*
X153459843Y-101011014D01*
X153419414Y-100960731D01*
X153417573Y-100959187D01*
X153416056Y-100957326D01*
X153366384Y-100916234D01*
X153317002Y-100874797D01*
X153314898Y-100873640D01*
X153313047Y-100872109D01*
X153256361Y-100841459D01*
X153199850Y-100810392D01*
X153197558Y-100809665D01*
X153195448Y-100808524D01*
X153133916Y-100789476D01*
X153072420Y-100769969D01*
X153070032Y-100769701D01*
X153067738Y-100768991D01*
X153003634Y-100762254D01*
X152939564Y-100755067D01*
X152934950Y-100755035D01*
X152934782Y-100755017D01*
X152934614Y-100755032D01*
X152930000Y-100755000D01*
X150390000Y-100755000D01*
X150325855Y-100761290D01*
X150261644Y-100767133D01*
X150259338Y-100767812D01*
X150256949Y-100768046D01*
X150195277Y-100786666D01*
X150133394Y-100804879D01*
X150131264Y-100805992D01*
X150128967Y-100806686D01*
X150072114Y-100836916D01*
X150014919Y-100866816D01*
X150013045Y-100868323D01*
X150010927Y-100869449D01*
X149961014Y-100910157D01*
X149910731Y-100950586D01*
X149909187Y-100952427D01*
X149907326Y-100953944D01*
X149866234Y-101003616D01*
X149824797Y-101052998D01*
X149823640Y-101055102D01*
X149822109Y-101056953D01*
X149791459Y-101113639D01*
X149760392Y-101170150D01*
X149759665Y-101172442D01*
X149758524Y-101174552D01*
X149755446Y-101184497D01*
X149755121Y-101183394D01*
X149754008Y-101181264D01*
X149753314Y-101178967D01*
X149723084Y-101122114D01*
X149693184Y-101064919D01*
X149691677Y-101063045D01*
X149690551Y-101060927D01*
X149649843Y-101011014D01*
X149609414Y-100960731D01*
X149607573Y-100959187D01*
X149606056Y-100957326D01*
X149556384Y-100916234D01*
X149507002Y-100874797D01*
X149504898Y-100873640D01*
X149503047Y-100872109D01*
X149446361Y-100841459D01*
X149389850Y-100810392D01*
X149387558Y-100809665D01*
X149385448Y-100808524D01*
X149323916Y-100789476D01*
X149262420Y-100769969D01*
X149260032Y-100769701D01*
X149257738Y-100768991D01*
X149193634Y-100762254D01*
X149129564Y-100755067D01*
X149124950Y-100755035D01*
X149124782Y-100755017D01*
X149124614Y-100755032D01*
X149120000Y-100755000D01*
X146580000Y-100755000D01*
X146515855Y-100761290D01*
X146451644Y-100767133D01*
X146449338Y-100767812D01*
X146446949Y-100768046D01*
X146385277Y-100786666D01*
X146323394Y-100804879D01*
X146321264Y-100805992D01*
X146318967Y-100806686D01*
X146262114Y-100836916D01*
X146204919Y-100866816D01*
X146203045Y-100868323D01*
X146200927Y-100869449D01*
X146151014Y-100910157D01*
X146100731Y-100950586D01*
X146099187Y-100952427D01*
X146097326Y-100953944D01*
X146056234Y-101003616D01*
X146014797Y-101052998D01*
X146013640Y-101055102D01*
X146012109Y-101056953D01*
X145981459Y-101113639D01*
X145950392Y-101170150D01*
X145949665Y-101172442D01*
X145948524Y-101174552D01*
X145945446Y-101184497D01*
X145945121Y-101183394D01*
X145944008Y-101181264D01*
X145943314Y-101178967D01*
X145925000Y-101144523D01*
X145925000Y-100262586D01*
X145934119Y-100169999D01*
X145925000Y-100077412D01*
X145925000Y-100077403D01*
X145897725Y-99800476D01*
X145789939Y-99445152D01*
X145614903Y-99117683D01*
X145564321Y-99056049D01*
X145438372Y-98902579D01*
X145438370Y-98902577D01*
X145379345Y-98830655D01*
X145307423Y-98771630D01*
X144168372Y-97632580D01*
X144109345Y-97560655D01*
X143822317Y-97325097D01*
X143494848Y-97150061D01*
X143139524Y-97042275D01*
X142862597Y-97015000D01*
X142862589Y-97015000D01*
X142770000Y-97005881D01*
X142677411Y-97015000D01*
X125082597Y-97015000D01*
X124990000Y-97005880D01*
X124897403Y-97015000D01*
X107302586Y-97015000D01*
X107209999Y-97005881D01*
X107117412Y-97015000D01*
X92710793Y-97015000D01*
X93237423Y-96488370D01*
X93309345Y-96429345D01*
X93544903Y-96142317D01*
X93719939Y-95814848D01*
X93827725Y-95459524D01*
X93855000Y-95182597D01*
X93864120Y-95090000D01*
X93855000Y-94997403D01*
X93855000Y-88547586D01*
X93864119Y-88454999D01*
X93855000Y-88362412D01*
X93855000Y-88362403D01*
X93827725Y-88085476D01*
X93719939Y-87730152D01*
X93544903Y-87402683D01*
X93373072Y-87193307D01*
X93373072Y-85720000D01*
X93360812Y-85595518D01*
X93359157Y-85590061D01*
X129289000Y-85590061D01*
X129289000Y-85793939D01*
X129328774Y-85993898D01*
X129406795Y-86182256D01*
X129520063Y-86351774D01*
X129664226Y-86495937D01*
X129833744Y-86609205D01*
X130022102Y-86687226D01*
X130222061Y-86727000D01*
X130425939Y-86727000D01*
X130625898Y-86687226D01*
X130814256Y-86609205D01*
X130937285Y-86527000D01*
X135616982Y-86527000D01*
X135658000Y-86531040D01*
X135699018Y-86527000D01*
X135699019Y-86527000D01*
X135821689Y-86514918D01*
X135979087Y-86467172D01*
X136124146Y-86389636D01*
X136251291Y-86285291D01*
X136277445Y-86253422D01*
X136576775Y-85954092D01*
X136721898Y-85925226D01*
X136910256Y-85847205D01*
X137079774Y-85733937D01*
X137223937Y-85589774D01*
X137337205Y-85420256D01*
X137415226Y-85231898D01*
X137455000Y-85031939D01*
X137455000Y-84828061D01*
X137415226Y-84628102D01*
X137337205Y-84439744D01*
X137223937Y-84270226D01*
X137079774Y-84126063D01*
X136910256Y-84012795D01*
X136721898Y-83934774D01*
X136521939Y-83895000D01*
X136318061Y-83895000D01*
X136118102Y-83934774D01*
X135929744Y-84012795D01*
X135760226Y-84126063D01*
X135616063Y-84270226D01*
X135502795Y-84439744D01*
X135424774Y-84628102D01*
X135395908Y-84773225D01*
X135312132Y-84857000D01*
X130937285Y-84857000D01*
X130814256Y-84774795D01*
X130625898Y-84696774D01*
X130425939Y-84657000D01*
X130222061Y-84657000D01*
X130022102Y-84696774D01*
X129833744Y-84774795D01*
X129664226Y-84888063D01*
X129520063Y-85032226D01*
X129406795Y-85201744D01*
X129328774Y-85390102D01*
X129289000Y-85590061D01*
X93359157Y-85590061D01*
X93324502Y-85475820D01*
X93265537Y-85365506D01*
X93186185Y-85268815D01*
X93089494Y-85189463D01*
X92979180Y-85130498D01*
X92859482Y-85094188D01*
X92735000Y-85081928D01*
X89235000Y-85081928D01*
X89110518Y-85094188D01*
X88990820Y-85130498D01*
X88880506Y-85189463D01*
X88783815Y-85268815D01*
X88704463Y-85365506D01*
X88645498Y-85475820D01*
X88609188Y-85595518D01*
X88596928Y-85720000D01*
X88596928Y-89220000D01*
X88609188Y-89344482D01*
X88645498Y-89464180D01*
X88704463Y-89574494D01*
X88783815Y-89671185D01*
X88880506Y-89750537D01*
X88957131Y-89791494D01*
X88860000Y-89781928D01*
X87110000Y-89781928D01*
X86814814Y-89811001D01*
X86530972Y-89897104D01*
X86269382Y-90036927D01*
X86040097Y-90225097D01*
X85851927Y-90454382D01*
X85712104Y-90715972D01*
X85626001Y-90999814D01*
X85596928Y-91295000D01*
X85596928Y-93045000D01*
X85626001Y-93340186D01*
X85712104Y-93624028D01*
X85851927Y-93885618D01*
X86040097Y-94114903D01*
X86269382Y-94303073D01*
X86530972Y-94442896D01*
X86814814Y-94528999D01*
X87110000Y-94558072D01*
X88860000Y-94558072D01*
X89155186Y-94528999D01*
X89439028Y-94442896D01*
X89700618Y-94303073D01*
X89929903Y-94114903D01*
X90085001Y-93925916D01*
X90085001Y-94309206D01*
X86892584Y-97501624D01*
X86892579Y-97501628D01*
X86892577Y-97501630D01*
X86820655Y-97560655D01*
X86761630Y-97632577D01*
X85622582Y-98771626D01*
X85550655Y-98830655D01*
X85315097Y-99117683D01*
X85140061Y-99445153D01*
X85085551Y-99624848D01*
X85032276Y-99800475D01*
X85032275Y-99800477D01*
X85005000Y-100077404D01*
X85005000Y-100077411D01*
X84995881Y-100170000D01*
X85005000Y-100262590D01*
X85005000Y-101143578D01*
X84990392Y-101170150D01*
X84989665Y-101172442D01*
X84988524Y-101174552D01*
X84969476Y-101236084D01*
X84949969Y-101297580D01*
X84949701Y-101299968D01*
X84948991Y-101302262D01*
X84942254Y-101366366D01*
X84935067Y-101430436D01*
X84935035Y-101435050D01*
X84935017Y-101435218D01*
X84935032Y-101435386D01*
X84935000Y-101440000D01*
X78685000Y-101440000D01*
X78685000Y-89220000D01*
X82846928Y-89220000D01*
X82859188Y-89344482D01*
X82895498Y-89464180D01*
X82954463Y-89574494D01*
X83033815Y-89671185D01*
X83130506Y-89750537D01*
X83240820Y-89809502D01*
X83360518Y-89845812D01*
X83485000Y-89858072D01*
X84699250Y-89855000D01*
X84858000Y-89696250D01*
X84858000Y-87597000D01*
X85112000Y-87597000D01*
X85112000Y-89696250D01*
X85270750Y-89855000D01*
X86485000Y-89858072D01*
X86609482Y-89845812D01*
X86729180Y-89809502D01*
X86839494Y-89750537D01*
X86936185Y-89671185D01*
X87015537Y-89574494D01*
X87074502Y-89464180D01*
X87110812Y-89344482D01*
X87123072Y-89220000D01*
X87120000Y-87755750D01*
X86961250Y-87597000D01*
X85112000Y-87597000D01*
X84858000Y-87597000D01*
X83008750Y-87597000D01*
X82850000Y-87755750D01*
X82846928Y-89220000D01*
X78685000Y-89220000D01*
X78685000Y-85720000D01*
X82846928Y-85720000D01*
X82850000Y-87184250D01*
X83008750Y-87343000D01*
X84858000Y-87343000D01*
X84858000Y-85243750D01*
X85112000Y-85243750D01*
X85112000Y-87343000D01*
X86961250Y-87343000D01*
X87120000Y-87184250D01*
X87123072Y-85720000D01*
X87110812Y-85595518D01*
X87074502Y-85475820D01*
X87015537Y-85365506D01*
X86936185Y-85268815D01*
X86839494Y-85189463D01*
X86729180Y-85130498D01*
X86609482Y-85094188D01*
X86485000Y-85081928D01*
X85270750Y-85085000D01*
X85112000Y-85243750D01*
X84858000Y-85243750D01*
X84699250Y-85085000D01*
X83485000Y-85081928D01*
X83360518Y-85094188D01*
X83240820Y-85130498D01*
X83130506Y-85189463D01*
X83033815Y-85268815D01*
X82954463Y-85365506D01*
X82895498Y-85475820D01*
X82859188Y-85595518D01*
X82846928Y-85720000D01*
X78685000Y-85720000D01*
X78685000Y-77895004D01*
X102691339Y-77895004D01*
X102691339Y-78177674D01*
X102746486Y-78454913D01*
X102854659Y-78716066D01*
X103011702Y-78951098D01*
X103211580Y-79150976D01*
X103446612Y-79308019D01*
X103707765Y-79416192D01*
X103985004Y-79471339D01*
X104267674Y-79471339D01*
X104361757Y-79452624D01*
X104831375Y-79922243D01*
X104812661Y-80016326D01*
X104812661Y-80298996D01*
X104867808Y-80576235D01*
X104975981Y-80837388D01*
X105133024Y-81072420D01*
X105332902Y-81272298D01*
X105567934Y-81429341D01*
X105829087Y-81537514D01*
X106106326Y-81592661D01*
X106388996Y-81592661D01*
X106666235Y-81537514D01*
X106927388Y-81429341D01*
X107162420Y-81272298D01*
X107362298Y-81072420D01*
X107519341Y-80837388D01*
X107627514Y-80576235D01*
X107679198Y-80316405D01*
X107939028Y-80264721D01*
X108200181Y-80156548D01*
X108435213Y-79999505D01*
X108635091Y-79799627D01*
X108792134Y-79564595D01*
X108900307Y-79303442D01*
X108955454Y-79026203D01*
X108955454Y-78829514D01*
X119591000Y-78829514D01*
X119591000Y-79092486D01*
X119642304Y-79350405D01*
X119742939Y-79593359D01*
X119889038Y-79812013D01*
X120074987Y-79997962D01*
X120293641Y-80144061D01*
X120536595Y-80244696D01*
X120794514Y-80296000D01*
X121057486Y-80296000D01*
X121315405Y-80244696D01*
X121558359Y-80144061D01*
X121777013Y-79997962D01*
X121892706Y-79882269D01*
X122724336Y-79882269D01*
X122783797Y-80116037D01*
X123022242Y-80226934D01*
X123277740Y-80289183D01*
X123540473Y-80300390D01*
X123800344Y-80260125D01*
X124047366Y-80169935D01*
X124148203Y-80116037D01*
X124207664Y-79882269D01*
X123466000Y-79140605D01*
X122724336Y-79882269D01*
X121892706Y-79882269D01*
X121962962Y-79812013D01*
X122109061Y-79593359D01*
X122197621Y-79379556D01*
X122257065Y-79542366D01*
X122310963Y-79643203D01*
X122544731Y-79702664D01*
X123286395Y-78961000D01*
X123645605Y-78961000D01*
X124387269Y-79702664D01*
X124621037Y-79643203D01*
X124731934Y-79404758D01*
X124794183Y-79149260D01*
X124805390Y-78886527D01*
X124765125Y-78626656D01*
X124674935Y-78379634D01*
X124621037Y-78278797D01*
X124405846Y-78224061D01*
X143767000Y-78224061D01*
X143767000Y-78427939D01*
X143806774Y-78627898D01*
X143884795Y-78816256D01*
X143998063Y-78985774D01*
X144142226Y-79129937D01*
X144311744Y-79243205D01*
X144500102Y-79321226D01*
X144556957Y-79332535D01*
X145238459Y-80014038D01*
X145238458Y-80633003D01*
X145206253Y-80681202D01*
X145128232Y-80869560D01*
X145088458Y-81069519D01*
X145088458Y-81273397D01*
X145128232Y-81473356D01*
X145206253Y-81661714D01*
X145319521Y-81831232D01*
X145463684Y-81975395D01*
X145633202Y-82088663D01*
X145821560Y-82166684D01*
X146021519Y-82206458D01*
X146225397Y-82206458D01*
X146425356Y-82166684D01*
X146613714Y-82088663D01*
X146783232Y-81975395D01*
X146927395Y-81831232D01*
X147040663Y-81661714D01*
X147118684Y-81473356D01*
X147158458Y-81273397D01*
X147158458Y-81069519D01*
X147118684Y-80869560D01*
X147040663Y-80681202D01*
X147008458Y-80633004D01*
X147008458Y-79690927D01*
X147012739Y-79647458D01*
X147008458Y-79603989D01*
X147008458Y-79603981D01*
X146995653Y-79473968D01*
X146945047Y-79307145D01*
X146862869Y-79153399D01*
X146752275Y-79018641D01*
X146718507Y-78990928D01*
X145808535Y-78080957D01*
X145797226Y-78024102D01*
X145719205Y-77835744D01*
X145605937Y-77666226D01*
X145461774Y-77522063D01*
X145292256Y-77408795D01*
X145103898Y-77330774D01*
X144903939Y-77291000D01*
X144700061Y-77291000D01*
X144500102Y-77330774D01*
X144311744Y-77408795D01*
X144142226Y-77522063D01*
X143998063Y-77666226D01*
X143884795Y-77835744D01*
X143806774Y-78024102D01*
X143767000Y-78224061D01*
X124405846Y-78224061D01*
X124387269Y-78219336D01*
X123645605Y-78961000D01*
X123286395Y-78961000D01*
X122544731Y-78219336D01*
X122310963Y-78278797D01*
X122200066Y-78517242D01*
X122195294Y-78536827D01*
X122109061Y-78328641D01*
X121962962Y-78109987D01*
X121892706Y-78039731D01*
X122724336Y-78039731D01*
X123466000Y-78781395D01*
X124207664Y-78039731D01*
X124148203Y-77805963D01*
X123909758Y-77695066D01*
X123654260Y-77632817D01*
X123391527Y-77621610D01*
X123131656Y-77661875D01*
X122884634Y-77752065D01*
X122783797Y-77805963D01*
X122724336Y-78039731D01*
X121892706Y-78039731D01*
X121777013Y-77924038D01*
X121558359Y-77777939D01*
X121315405Y-77677304D01*
X121057486Y-77626000D01*
X120794514Y-77626000D01*
X120536595Y-77677304D01*
X120293641Y-77777939D01*
X120074987Y-77924038D01*
X119889038Y-78109987D01*
X119742939Y-78328641D01*
X119642304Y-78571595D01*
X119591000Y-78829514D01*
X108955454Y-78829514D01*
X108955454Y-78743533D01*
X108900307Y-78466294D01*
X108792134Y-78205141D01*
X108635091Y-77970109D01*
X108435213Y-77770231D01*
X108200181Y-77613188D01*
X107939028Y-77505015D01*
X107661789Y-77449868D01*
X107379119Y-77449868D01*
X107285036Y-77468582D01*
X106815417Y-76998964D01*
X106834132Y-76904881D01*
X106834132Y-76622211D01*
X106778985Y-76344972D01*
X106670812Y-76083819D01*
X106513769Y-75848787D01*
X106313891Y-75648909D01*
X106078859Y-75491866D01*
X105817706Y-75383693D01*
X105540467Y-75328546D01*
X105257797Y-75328546D01*
X104980558Y-75383693D01*
X104719405Y-75491866D01*
X104484373Y-75648909D01*
X104284495Y-75848787D01*
X104127452Y-76083819D01*
X104019279Y-76344972D01*
X103967595Y-76604802D01*
X103707765Y-76656486D01*
X103446612Y-76764659D01*
X103211580Y-76921702D01*
X103011702Y-77121580D01*
X102854659Y-77356612D01*
X102746486Y-77617765D01*
X102691339Y-77895004D01*
X78685000Y-77895004D01*
X78685000Y-76311000D01*
X81183928Y-76311000D01*
X81196188Y-76435482D01*
X81232498Y-76555180D01*
X81291463Y-76665494D01*
X81370815Y-76762185D01*
X81467506Y-76841537D01*
X81577820Y-76900502D01*
X81697518Y-76936812D01*
X81822000Y-76949072D01*
X82286250Y-76946000D01*
X82445000Y-76787250D01*
X82445000Y-75913000D01*
X82699000Y-75913000D01*
X82699000Y-76787250D01*
X82857750Y-76946000D01*
X83322000Y-76949072D01*
X83446482Y-76936812D01*
X83566180Y-76900502D01*
X83676494Y-76841537D01*
X83773185Y-76762185D01*
X83852537Y-76665494D01*
X83911502Y-76555180D01*
X83947812Y-76435482D01*
X83960072Y-76311000D01*
X83957000Y-76071750D01*
X83798250Y-75913000D01*
X82699000Y-75913000D01*
X82445000Y-75913000D01*
X81345750Y-75913000D01*
X81187000Y-76071750D01*
X81183928Y-76311000D01*
X78685000Y-76311000D01*
X78685000Y-73246000D01*
X81181388Y-73246000D01*
X81203785Y-73473400D01*
X81270115Y-73692060D01*
X81371105Y-73881000D01*
X81270115Y-74069940D01*
X81203785Y-74288600D01*
X81181388Y-74516000D01*
X81203785Y-74743400D01*
X81267093Y-74952098D01*
X81232498Y-75016820D01*
X81196188Y-75136518D01*
X81183928Y-75261000D01*
X81187000Y-75500250D01*
X81345750Y-75659000D01*
X82118891Y-75659000D01*
X82119600Y-75659215D01*
X82290021Y-75676000D01*
X82853979Y-75676000D01*
X83024400Y-75659215D01*
X83025109Y-75659000D01*
X83798250Y-75659000D01*
X83957000Y-75500250D01*
X83960072Y-75261000D01*
X83947812Y-75136518D01*
X83911502Y-75016820D01*
X83876907Y-74952098D01*
X83940215Y-74743400D01*
X83962612Y-74516000D01*
X83940215Y-74288600D01*
X83873885Y-74069940D01*
X83772895Y-73881000D01*
X83873885Y-73692060D01*
X83940215Y-73473400D01*
X83962612Y-73246000D01*
X83940215Y-73018600D01*
X83873885Y-72799940D01*
X83766171Y-72598421D01*
X83621212Y-72421788D01*
X83444579Y-72276829D01*
X83243060Y-72169115D01*
X83024400Y-72102785D01*
X82853979Y-72086000D01*
X82290021Y-72086000D01*
X82119600Y-72102785D01*
X81900940Y-72169115D01*
X81699421Y-72276829D01*
X81522788Y-72421788D01*
X81377829Y-72598421D01*
X81270115Y-72799940D01*
X81203785Y-73018600D01*
X81181388Y-73246000D01*
X78685000Y-73246000D01*
X78685000Y-72038576D01*
X88058560Y-72038576D01*
X88058560Y-72242454D01*
X88098334Y-72442413D01*
X88176355Y-72630771D01*
X88289623Y-72800289D01*
X88433786Y-72944452D01*
X88603304Y-73057720D01*
X88791662Y-73135741D01*
X88936784Y-73164607D01*
X89161608Y-73389431D01*
X89187754Y-73421291D01*
X89314899Y-73525636D01*
X89459958Y-73603172D01*
X89617356Y-73650918D01*
X89740026Y-73663000D01*
X89740027Y-73663000D01*
X89781045Y-73667040D01*
X89822063Y-73663000D01*
X92046607Y-73663000D01*
X92169636Y-73745205D01*
X92357994Y-73823226D01*
X92557953Y-73863000D01*
X92761831Y-73863000D01*
X92961790Y-73823226D01*
X93150148Y-73745205D01*
X93319666Y-73631937D01*
X93463829Y-73487774D01*
X93577097Y-73318256D01*
X93655118Y-73129898D01*
X93661110Y-73099775D01*
X93668898Y-73098226D01*
X93857256Y-73020205D01*
X94026774Y-72906937D01*
X94170937Y-72762774D01*
X94284205Y-72593256D01*
X94362226Y-72404898D01*
X94402000Y-72204939D01*
X94402000Y-72001061D01*
X94362226Y-71801102D01*
X94284205Y-71612744D01*
X94170937Y-71443226D01*
X94026774Y-71299063D01*
X93857256Y-71185795D01*
X93668898Y-71107774D01*
X93468939Y-71068000D01*
X93265061Y-71068000D01*
X93065102Y-71107774D01*
X92876744Y-71185795D01*
X92707226Y-71299063D01*
X92663289Y-71343000D01*
X92538802Y-71343000D01*
X92497000Y-71301198D01*
X92497000Y-71239061D01*
X92457226Y-71039102D01*
X92379205Y-70850744D01*
X92265937Y-70681226D01*
X92121774Y-70537063D01*
X91952256Y-70423795D01*
X91763898Y-70345774D01*
X91563939Y-70306000D01*
X91360061Y-70306000D01*
X91160102Y-70345774D01*
X90971744Y-70423795D01*
X90802226Y-70537063D01*
X90658063Y-70681226D01*
X90544795Y-70850744D01*
X90466774Y-71039102D01*
X90427000Y-71239061D01*
X90427000Y-71442939D01*
X90466774Y-71642898D01*
X90544795Y-71831256D01*
X90652869Y-71993000D01*
X90126913Y-71993000D01*
X90117652Y-71983739D01*
X90088786Y-71838617D01*
X90010765Y-71650259D01*
X89897497Y-71480741D01*
X89753334Y-71336578D01*
X89583816Y-71223310D01*
X89395458Y-71145289D01*
X89195499Y-71105515D01*
X88991621Y-71105515D01*
X88791662Y-71145289D01*
X88603304Y-71223310D01*
X88433786Y-71336578D01*
X88289623Y-71480741D01*
X88176355Y-71650259D01*
X88098334Y-71838617D01*
X88058560Y-72038576D01*
X78685000Y-72038576D01*
X78685000Y-65024872D01*
X78940000Y-65024872D01*
X78940000Y-65465128D01*
X79025890Y-65896925D01*
X79194369Y-66303669D01*
X79438962Y-66669729D01*
X79750271Y-66981038D01*
X80116331Y-67225631D01*
X80523075Y-67394110D01*
X80954872Y-67480000D01*
X81395128Y-67480000D01*
X81826925Y-67394110D01*
X82233669Y-67225631D01*
X82599729Y-66981038D01*
X82911038Y-66669729D01*
X83155631Y-66303669D01*
X83324110Y-65896925D01*
X83410000Y-65465128D01*
X83410000Y-65024872D01*
X83324110Y-64593075D01*
X83155631Y-64186331D01*
X82911038Y-63820271D01*
X82599729Y-63508962D01*
X82233669Y-63264369D01*
X81826925Y-63095890D01*
X81395128Y-63010000D01*
X80954872Y-63010000D01*
X80523075Y-63095890D01*
X80116331Y-63264369D01*
X79750271Y-63508962D01*
X79438962Y-63820271D01*
X79194369Y-64186331D01*
X79025890Y-64593075D01*
X78940000Y-65024872D01*
X78685000Y-65024872D01*
X78685000Y-62685000D01*
X85965918Y-62685000D01*
X85718662Y-62932256D01*
X85718662Y-62932256D01*
G37*
X85718662Y-62932256D02*
X85517844Y-63232801D01*
X85379518Y-63566750D01*
X85309000Y-63921268D01*
X85309000Y-64282732D01*
X85379518Y-64637250D01*
X85517844Y-64971199D01*
X85718662Y-65271744D01*
X85974256Y-65527338D01*
X86274801Y-65728156D01*
X86608750Y-65866482D01*
X86963268Y-65937000D01*
X87324732Y-65937000D01*
X87679250Y-65866482D01*
X88013199Y-65728156D01*
X88313744Y-65527338D01*
X88569338Y-65271744D01*
X88770156Y-64971199D01*
X88908482Y-64637250D01*
X88940756Y-64475000D01*
X127821869Y-64475000D01*
X129178990Y-65832123D01*
X129178991Y-70354903D01*
X129173499Y-70410664D01*
X129195413Y-70633162D01*
X129260314Y-70847110D01*
X129297524Y-70916724D01*
X129365707Y-71044287D01*
X129507542Y-71217113D01*
X129550850Y-71252655D01*
X129911340Y-71613145D01*
X129946887Y-71656459D01*
X130119713Y-71798294D01*
X130275479Y-71881552D01*
X130316889Y-71903686D01*
X130530837Y-71968587D01*
X130753335Y-71990501D01*
X130809087Y-71985010D01*
X135679746Y-71985010D01*
X135621734Y-72125062D01*
X135581960Y-72325021D01*
X135581960Y-72528899D01*
X135621734Y-72728858D01*
X135699755Y-72917216D01*
X135813023Y-73086734D01*
X135957186Y-73230897D01*
X136126704Y-73344165D01*
X136315062Y-73422186D01*
X136371917Y-73433495D01*
X136812507Y-73874086D01*
X136823816Y-73930940D01*
X136901837Y-74119298D01*
X137015105Y-74288816D01*
X137159268Y-74432979D01*
X137328786Y-74546247D01*
X137517144Y-74624268D01*
X137717103Y-74664042D01*
X137920981Y-74664042D01*
X138120940Y-74624268D01*
X138309298Y-74546247D01*
X138478816Y-74432979D01*
X138622979Y-74288816D01*
X138736247Y-74119298D01*
X138814268Y-73930940D01*
X138854042Y-73730981D01*
X138854042Y-73527103D01*
X138814268Y-73327144D01*
X138736247Y-73138786D01*
X138622979Y-72969268D01*
X138478816Y-72825105D01*
X138309298Y-72711837D01*
X138120940Y-72633816D01*
X138064086Y-72622507D01*
X137623495Y-72181917D01*
X137612186Y-72125062D01*
X137554174Y-71985010D01*
X165469881Y-71985010D01*
X165502998Y-72018127D01*
X165502998Y-72173748D01*
X165344250Y-72015000D01*
X164780000Y-72011928D01*
X164655518Y-72024188D01*
X164535820Y-72060498D01*
X164425506Y-72119463D01*
X164328815Y-72198815D01*
X164249463Y-72295506D01*
X164190498Y-72405820D01*
X164154188Y-72525518D01*
X164141928Y-72650000D01*
X164145000Y-73214250D01*
X164303750Y-73373000D01*
X165503000Y-73373000D01*
X165503000Y-73353000D01*
X165757000Y-73353000D01*
X165757000Y-73373000D01*
X165777000Y-73373000D01*
X165777000Y-73627000D01*
X165757000Y-73627000D01*
X165757000Y-73647000D01*
X165503000Y-73647000D01*
X165503000Y-73627000D01*
X164303750Y-73627000D01*
X164145000Y-73785750D01*
X164141928Y-74350000D01*
X164154188Y-74474482D01*
X164190498Y-74594180D01*
X164249463Y-74704494D01*
X164328815Y-74801185D01*
X164425506Y-74880537D01*
X164535820Y-74939502D01*
X164604687Y-74960393D01*
X164574866Y-74984866D01*
X164389294Y-75210986D01*
X164251401Y-75468966D01*
X164166487Y-75748889D01*
X164137815Y-76040000D01*
X164166487Y-76331111D01*
X164251401Y-76611034D01*
X164389294Y-76869014D01*
X164574866Y-77095134D01*
X164800986Y-77280706D01*
X164855791Y-77310000D01*
X164800986Y-77339294D01*
X164574866Y-77524866D01*
X164389294Y-77750986D01*
X164251401Y-78008966D01*
X164166487Y-78288889D01*
X164137815Y-78580000D01*
X164166487Y-78871111D01*
X164251401Y-79151034D01*
X164389294Y-79409014D01*
X164574866Y-79635134D01*
X164800986Y-79820706D01*
X164855791Y-79850000D01*
X164800986Y-79879294D01*
X164574866Y-80064866D01*
X164389294Y-80290986D01*
X164251401Y-80548966D01*
X164166487Y-80828889D01*
X164137815Y-81120000D01*
X164166487Y-81411111D01*
X164251401Y-81691034D01*
X164389294Y-81949014D01*
X164574866Y-82175134D01*
X164800986Y-82360706D01*
X164855791Y-82390000D01*
X164800986Y-82419294D01*
X164574866Y-82604866D01*
X164389294Y-82830986D01*
X164251401Y-83088966D01*
X164166487Y-83368889D01*
X164137815Y-83660000D01*
X164166487Y-83951111D01*
X164251401Y-84231034D01*
X164389294Y-84489014D01*
X164574866Y-84715134D01*
X164800986Y-84900706D01*
X164855791Y-84930000D01*
X164800986Y-84959294D01*
X164574866Y-85144866D01*
X164389294Y-85370986D01*
X164251401Y-85628966D01*
X164166487Y-85908889D01*
X164137815Y-86200000D01*
X164166487Y-86491111D01*
X164251401Y-86771034D01*
X164389294Y-87029014D01*
X164574866Y-87255134D01*
X164800986Y-87440706D01*
X165058966Y-87578599D01*
X165338889Y-87663513D01*
X165557050Y-87685000D01*
X165702950Y-87685000D01*
X165921111Y-87663513D01*
X166201034Y-87578599D01*
X166459014Y-87440706D01*
X166685134Y-87255134D01*
X166870706Y-87029014D01*
X167008599Y-86771034D01*
X167093513Y-86491111D01*
X167122185Y-86200000D01*
X167093513Y-85908889D01*
X167008599Y-85628966D01*
X166870706Y-85370986D01*
X166685134Y-85144866D01*
X166459014Y-84959294D01*
X166404209Y-84930000D01*
X166459014Y-84900706D01*
X166685134Y-84715134D01*
X166870706Y-84489014D01*
X167008599Y-84231034D01*
X167093513Y-83951111D01*
X167122185Y-83660000D01*
X167093513Y-83368889D01*
X167008599Y-83088966D01*
X166870706Y-82830986D01*
X166685134Y-82604866D01*
X166459014Y-82419294D01*
X166404209Y-82390000D01*
X166459014Y-82360706D01*
X166685134Y-82175134D01*
X166870706Y-81949014D01*
X167008599Y-81691034D01*
X167093513Y-81411111D01*
X167122185Y-81120000D01*
X167093513Y-80828889D01*
X167008599Y-80548966D01*
X166870706Y-80290986D01*
X166685134Y-80064866D01*
X166459014Y-79879294D01*
X166404209Y-79850000D01*
X166459014Y-79820706D01*
X166587817Y-79715000D01*
X166776330Y-79715000D01*
X166832081Y-79720491D01*
X166887832Y-79715000D01*
X166887833Y-79715000D01*
X167054580Y-79698577D01*
X167268528Y-79633676D01*
X167465704Y-79528284D01*
X167485000Y-79512448D01*
X167485001Y-110915000D01*
X78685000Y-110915000D01*
X78685000Y-108204872D01*
X78940000Y-108204872D01*
X78940000Y-108645128D01*
X79025890Y-109076925D01*
X79194369Y-109483669D01*
X79438962Y-109849729D01*
X79750271Y-110161038D01*
X80116331Y-110405631D01*
X80523075Y-110574110D01*
X80954872Y-110660000D01*
X81395128Y-110660000D01*
X81826925Y-110574110D01*
X82233669Y-110405631D01*
X82599729Y-110161038D01*
X82911038Y-109849729D01*
X83155631Y-109483669D01*
X83324110Y-109076925D01*
X83410000Y-108645128D01*
X83410000Y-108204872D01*
X83324110Y-107773075D01*
X83155631Y-107366331D01*
X82911038Y-107000271D01*
X82599729Y-106688962D01*
X82233669Y-106444369D01*
X81826925Y-106275890D01*
X81395128Y-106190000D01*
X80954872Y-106190000D01*
X80523075Y-106275890D01*
X80116331Y-106444369D01*
X79750271Y-106688962D01*
X79438962Y-107000271D01*
X79194369Y-107366331D01*
X79025890Y-107773075D01*
X78940000Y-108204872D01*
X78685000Y-108204872D01*
X78685000Y-101440000D01*
X84935000Y-101440000D01*
X84935000Y-109060000D01*
X84941290Y-109124145D01*
X84947133Y-109188356D01*
X84947812Y-109190662D01*
X84948046Y-109193051D01*
X84966666Y-109254723D01*
X84984879Y-109316606D01*
X84985992Y-109318736D01*
X84986686Y-109321033D01*
X85016916Y-109377886D01*
X85046816Y-109435081D01*
X85048323Y-109436955D01*
X85049449Y-109439073D01*
X85090157Y-109488986D01*
X85130586Y-109539269D01*
X85132427Y-109540813D01*
X85133944Y-109542674D01*
X85183616Y-109583766D01*
X85232998Y-109625203D01*
X85235102Y-109626360D01*
X85236953Y-109627891D01*
X85293639Y-109658541D01*
X85350150Y-109689608D01*
X85352442Y-109690335D01*
X85354552Y-109691476D01*
X85416084Y-109710524D01*
X85477580Y-109730031D01*
X85479968Y-109730299D01*
X85482262Y-109731009D01*
X85546366Y-109737746D01*
X85610436Y-109744933D01*
X85615050Y-109744965D01*
X85615218Y-109744983D01*
X85615386Y-109744968D01*
X85620000Y-109745000D01*
X88160000Y-109745000D01*
X88224145Y-109738710D01*
X88288356Y-109732867D01*
X88290662Y-109732188D01*
X88293051Y-109731954D01*
X88354723Y-109713334D01*
X88416606Y-109695121D01*
X88418736Y-109694008D01*
X88421033Y-109693314D01*
X88477886Y-109663084D01*
X88535081Y-109633184D01*
X88536955Y-109631677D01*
X88539073Y-109630551D01*
X88588986Y-109589843D01*
X88639269Y-109549414D01*
X88640813Y-109547573D01*
X88642674Y-109546056D01*
X88683766Y-109496384D01*
X88725203Y-109447002D01*
X88726360Y-109444898D01*
X88727891Y-109443047D01*
X88758541Y-109386361D01*
X88789608Y-109329850D01*
X88790335Y-109327558D01*
X88791476Y-109325448D01*
X88794554Y-109315503D01*
X88794879Y-109316606D01*
X88795992Y-109318736D01*
X88796686Y-109321033D01*
X88826916Y-109377886D01*
X88856816Y-109435081D01*
X88858323Y-109436955D01*
X88859449Y-109439073D01*
X88900157Y-109488986D01*
X88940586Y-109539269D01*
X88942427Y-109540813D01*
X88943944Y-109542674D01*
X88993616Y-109583766D01*
X89042998Y-109625203D01*
X89045102Y-109626360D01*
X89046953Y-109627891D01*
X89103639Y-109658541D01*
X89160150Y-109689608D01*
X89162442Y-109690335D01*
X89164552Y-109691476D01*
X89226084Y-109710524D01*
X89287580Y-109730031D01*
X89289968Y-109730299D01*
X89292262Y-109731009D01*
X89356366Y-109737746D01*
X89420436Y-109744933D01*
X89425050Y-109744965D01*
X89425218Y-109744983D01*
X89425386Y-109744968D01*
X89430000Y-109745000D01*
X91970000Y-109745000D01*
X92034145Y-109738710D01*
X92098356Y-109732867D01*
X92100662Y-109732188D01*
X92103051Y-109731954D01*
X92164723Y-109713334D01*
X92226606Y-109695121D01*
X92228736Y-109694008D01*
X92231033Y-109693314D01*
X92287886Y-109663084D01*
X92345081Y-109633184D01*
X92346955Y-109631677D01*
X92349073Y-109630551D01*
X92398986Y-109589843D01*
X92449269Y-109549414D01*
X92450813Y-109547573D01*
X92452674Y-109546056D01*
X92493766Y-109496384D01*
X92535203Y-109447002D01*
X92536360Y-109444898D01*
X92537891Y-109443047D01*
X92568541Y-109386361D01*
X92599608Y-109329850D01*
X92600335Y-109327558D01*
X92601476Y-109325448D01*
X92604554Y-109315503D01*
X92604879Y-109316606D01*
X92605992Y-109318736D01*
X92606686Y-109321033D01*
X92636916Y-109377886D01*
X92666816Y-109435081D01*
X92668323Y-109436955D01*
X92669449Y-109439073D01*
X92710157Y-109488986D01*
X92750586Y-109539269D01*
X92752427Y-109540813D01*
X92753944Y-109542674D01*
X92803616Y-109583766D01*
X92852998Y-109625203D01*
X92855102Y-109626360D01*
X92856953Y-109627891D01*
X92913639Y-109658541D01*
X92970150Y-109689608D01*
X92972442Y-109690335D01*
X92974552Y-109691476D01*
X93036084Y-109710524D01*
X93097580Y-109730031D01*
X93099968Y-109730299D01*
X93102262Y-109731009D01*
X93166366Y-109737746D01*
X93230436Y-109744933D01*
X93235050Y-109744965D01*
X93235218Y-109744983D01*
X93235386Y-109744968D01*
X93240000Y-109745000D01*
X95780000Y-109745000D01*
X95844145Y-109738710D01*
X95908356Y-109732867D01*
X95910662Y-109732188D01*
X95913051Y-109731954D01*
X95974723Y-109713334D01*
X96036606Y-109695121D01*
X96038736Y-109694008D01*
X96041033Y-109693314D01*
X96097886Y-109663084D01*
X96155081Y-109633184D01*
X96156955Y-109631677D01*
X96159073Y-109630551D01*
X96208986Y-109589843D01*
X96259269Y-109549414D01*
X96260813Y-109547573D01*
X96262674Y-109546056D01*
X96303766Y-109496384D01*
X96345203Y-109447002D01*
X96346360Y-109444898D01*
X96347891Y-109443047D01*
X96378541Y-109386361D01*
X96409608Y-109329850D01*
X96410335Y-109327558D01*
X96411476Y-109325448D01*
X96414554Y-109315503D01*
X96414879Y-109316606D01*
X96415992Y-109318736D01*
X96416686Y-109321033D01*
X96446916Y-109377886D01*
X96476816Y-109435081D01*
X96478323Y-109436955D01*
X96479449Y-109439073D01*
X96520157Y-109488986D01*
X96560586Y-109539269D01*
X96562427Y-109540813D01*
X96563944Y-109542674D01*
X96613616Y-109583766D01*
X96662998Y-109625203D01*
X96665102Y-109626360D01*
X96666953Y-109627891D01*
X96723639Y-109658541D01*
X96780150Y-109689608D01*
X96782442Y-109690335D01*
X96784552Y-109691476D01*
X96846084Y-109710524D01*
X96907580Y-109730031D01*
X96909968Y-109730299D01*
X96912262Y-109731009D01*
X96976366Y-109737746D01*
X97040436Y-109744933D01*
X97045050Y-109744965D01*
X97045218Y-109744983D01*
X97045386Y-109744968D01*
X97050000Y-109745000D01*
X99590000Y-109745000D01*
X99654145Y-109738710D01*
X99718356Y-109732867D01*
X99720662Y-109732188D01*
X99723051Y-109731954D01*
X99784723Y-109713334D01*
X99846606Y-109695121D01*
X99848736Y-109694008D01*
X99851033Y-109693314D01*
X99907886Y-109663084D01*
X99965081Y-109633184D01*
X99966955Y-109631677D01*
X99969073Y-109630551D01*
X100018986Y-109589843D01*
X100069269Y-109549414D01*
X100070813Y-109547573D01*
X100072674Y-109546056D01*
X100113766Y-109496384D01*
X100155203Y-109447002D01*
X100156360Y-109444898D01*
X100157891Y-109443047D01*
X100188541Y-109386361D01*
X100219608Y-109329850D01*
X100220335Y-109327558D01*
X100221476Y-109325448D01*
X100224554Y-109315503D01*
X100224879Y-109316606D01*
X100225992Y-109318736D01*
X100226686Y-109321033D01*
X100256916Y-109377886D01*
X100286816Y-109435081D01*
X100288323Y-109436955D01*
X100289449Y-109439073D01*
X100330157Y-109488986D01*
X100370586Y-109539269D01*
X100372427Y-109540813D01*
X100373944Y-109542674D01*
X100423616Y-109583766D01*
X100472998Y-109625203D01*
X100475102Y-109626360D01*
X100476953Y-109627891D01*
X100533639Y-109658541D01*
X100590150Y-109689608D01*
X100592442Y-109690335D01*
X100594552Y-109691476D01*
X100656084Y-109710524D01*
X100717580Y-109730031D01*
X100719968Y-109730299D01*
X100722262Y-109731009D01*
X100786366Y-109737746D01*
X100850436Y-109744933D01*
X100855050Y-109744965D01*
X100855218Y-109744983D01*
X100855386Y-109744968D01*
X100860000Y-109745000D01*
X103400000Y-109745000D01*
X103464145Y-109738710D01*
X103528356Y-109732867D01*
X103530662Y-109732188D01*
X103533051Y-109731954D01*
X103594723Y-109713334D01*
X103656606Y-109695121D01*
X103658736Y-109694008D01*
X103661033Y-109693314D01*
X103717886Y-109663084D01*
X103775081Y-109633184D01*
X103776955Y-109631677D01*
X103779073Y-109630551D01*
X103828986Y-109589843D01*
X103879269Y-109549414D01*
X103880813Y-109547573D01*
X103882674Y-109546056D01*
X103923766Y-109496384D01*
X103965203Y-109447002D01*
X103966360Y-109444898D01*
X103967891Y-109443047D01*
X103998541Y-109386361D01*
X104029608Y-109329850D01*
X104030335Y-109327558D01*
X104031476Y-109325448D01*
X104034554Y-109315503D01*
X104034879Y-109316606D01*
X104035992Y-109318736D01*
X104036686Y-109321033D01*
X104066916Y-109377886D01*
X104096816Y-109435081D01*
X104098323Y-109436955D01*
X104099449Y-109439073D01*
X104140157Y-109488986D01*
X104180586Y-109539269D01*
X104182427Y-109540813D01*
X104183944Y-109542674D01*
X104233616Y-109583766D01*
X104282998Y-109625203D01*
X104285102Y-109626360D01*
X104286953Y-109627891D01*
X104343639Y-109658541D01*
X104400150Y-109689608D01*
X104402442Y-109690335D01*
X104404552Y-109691476D01*
X104466084Y-109710524D01*
X104527580Y-109730031D01*
X104529968Y-109730299D01*
X104532262Y-109731009D01*
X104596366Y-109737746D01*
X104660436Y-109744933D01*
X104665050Y-109744965D01*
X104665218Y-109744983D01*
X104665386Y-109744968D01*
X104670000Y-109745000D01*
X107210000Y-109745000D01*
X107274145Y-109738710D01*
X107338356Y-109732867D01*
X107340662Y-109732188D01*
X107343051Y-109731954D01*
X107404723Y-109713334D01*
X107466606Y-109695121D01*
X107468736Y-109694008D01*
X107471033Y-109693314D01*
X107527886Y-109663084D01*
X107585081Y-109633184D01*
X107586955Y-109631677D01*
X107589073Y-109630551D01*
X107638986Y-109589843D01*
X107689269Y-109549414D01*
X107690813Y-109547573D01*
X107692674Y-109546056D01*
X107733766Y-109496384D01*
X107775203Y-109447002D01*
X107776360Y-109444898D01*
X107777891Y-109443047D01*
X107808541Y-109386361D01*
X107839608Y-109329850D01*
X107840335Y-109327558D01*
X107841476Y-109325448D01*
X107844554Y-109315503D01*
X107844879Y-109316606D01*
X107845992Y-109318736D01*
X107846686Y-109321033D01*
X107876916Y-109377886D01*
X107906816Y-109435081D01*
X107908323Y-109436955D01*
X107909449Y-109439073D01*
X107950157Y-109488986D01*
X107990586Y-109539269D01*
X107992427Y-109540813D01*
X107993944Y-109542674D01*
X108043616Y-109583766D01*
X108092998Y-109625203D01*
X108095102Y-109626360D01*
X108096953Y-109627891D01*
X108153639Y-109658541D01*
X108210150Y-109689608D01*
X108212442Y-109690335D01*
X108214552Y-109691476D01*
X108276084Y-109710524D01*
X108337580Y-109730031D01*
X108339968Y-109730299D01*
X108342262Y-109731009D01*
X108406366Y-109737746D01*
X108470436Y-109744933D01*
X108475050Y-109744965D01*
X108475218Y-109744983D01*
X108475386Y-109744968D01*
X108480000Y-109745000D01*
X111020000Y-109745000D01*
X111084145Y-109738710D01*
X111148356Y-109732867D01*
X111150662Y-109732188D01*
X111153051Y-109731954D01*
X111214723Y-109713334D01*
X111276606Y-109695121D01*
X111278736Y-109694008D01*
X111281033Y-109693314D01*
X111337886Y-109663084D01*
X111395081Y-109633184D01*
X111396955Y-109631677D01*
X111399073Y-109630551D01*
X111448986Y-109589843D01*
X111499269Y-109549414D01*
X111500813Y-109547573D01*
X111502674Y-109546056D01*
X111543766Y-109496384D01*
X111585203Y-109447002D01*
X111586360Y-109444898D01*
X111587891Y-109443047D01*
X111618541Y-109386361D01*
X111649608Y-109329850D01*
X111650335Y-109327558D01*
X111651476Y-109325448D01*
X111654554Y-109315503D01*
X111654879Y-109316606D01*
X111655992Y-109318736D01*
X111656686Y-109321033D01*
X111686916Y-109377886D01*
X111716816Y-109435081D01*
X111718323Y-109436955D01*
X111719449Y-109439073D01*
X111760157Y-109488986D01*
X111800586Y-109539269D01*
X111802427Y-109540813D01*
X111803944Y-109542674D01*
X111853616Y-109583766D01*
X111902998Y-109625203D01*
X111905102Y-109626360D01*
X111906953Y-109627891D01*
X111963639Y-109658541D01*
X112020150Y-109689608D01*
X112022442Y-109690335D01*
X112024552Y-109691476D01*
X112086084Y-109710524D01*
X112147580Y-109730031D01*
X112149968Y-109730299D01*
X112152262Y-109731009D01*
X112216366Y-109737746D01*
X112280436Y-109744933D01*
X112285050Y-109744965D01*
X112285218Y-109744983D01*
X112285386Y-109744968D01*
X112290000Y-109745000D01*
X114830000Y-109745000D01*
X114894145Y-109738710D01*
X114958356Y-109732867D01*
X114960662Y-109732188D01*
X114963051Y-109731954D01*
X115024723Y-109713334D01*
X115086606Y-109695121D01*
X115088736Y-109694008D01*
X115091033Y-109693314D01*
X115147886Y-109663084D01*
X115205081Y-109633184D01*
X115206955Y-109631677D01*
X115209073Y-109630551D01*
X115258986Y-109589843D01*
X115309269Y-109549414D01*
X115310813Y-109547573D01*
X115312674Y-109546056D01*
X115353766Y-109496384D01*
X115395203Y-109447002D01*
X115396360Y-109444898D01*
X115397891Y-109443047D01*
X115428541Y-109386361D01*
X115459608Y-109329850D01*
X115460335Y-109327558D01*
X115461476Y-109325448D01*
X115464554Y-109315503D01*
X115464879Y-109316606D01*
X115465992Y-109318736D01*
X115466686Y-109321033D01*
X115496916Y-109377886D01*
X115526816Y-109435081D01*
X115528323Y-109436955D01*
X115529449Y-109439073D01*
X115570157Y-109488986D01*
X115610586Y-109539269D01*
X115612427Y-109540813D01*
X115613944Y-109542674D01*
X115663616Y-109583766D01*
X115712998Y-109625203D01*
X115715102Y-109626360D01*
X115716953Y-109627891D01*
X115773639Y-109658541D01*
X115830150Y-109689608D01*
X115832442Y-109690335D01*
X115834552Y-109691476D01*
X115896084Y-109710524D01*
X115957580Y-109730031D01*
X115959968Y-109730299D01*
X115962262Y-109731009D01*
X116026366Y-109737746D01*
X116090436Y-109744933D01*
X116095050Y-109744965D01*
X116095218Y-109744983D01*
X116095386Y-109744968D01*
X116100000Y-109745000D01*
X118640000Y-109745000D01*
X118704145Y-109738710D01*
X118768356Y-109732867D01*
X118770662Y-109732188D01*
X118773051Y-109731954D01*
X118834723Y-109713334D01*
X118896606Y-109695121D01*
X118898736Y-109694008D01*
X118901033Y-109693314D01*
X118957886Y-109663084D01*
X119015081Y-109633184D01*
X119016955Y-109631677D01*
X119019073Y-109630551D01*
X119068986Y-109589843D01*
X119119269Y-109549414D01*
X119120813Y-109547573D01*
X119122674Y-109546056D01*
X119163766Y-109496384D01*
X119205203Y-109447002D01*
X119206360Y-109444898D01*
X119207891Y-109443047D01*
X119238541Y-109386361D01*
X119269608Y-109329850D01*
X119270335Y-109327558D01*
X119271476Y-109325448D01*
X119274554Y-109315503D01*
X119274879Y-109316606D01*
X119275992Y-109318736D01*
X119276686Y-109321033D01*
X119306916Y-109377886D01*
X119336816Y-109435081D01*
X119338323Y-109436955D01*
X119339449Y-109439073D01*
X119380157Y-109488986D01*
X119420586Y-109539269D01*
X119422427Y-109540813D01*
X119423944Y-109542674D01*
X119473616Y-109583766D01*
X119522998Y-109625203D01*
X119525102Y-109626360D01*
X119526953Y-109627891D01*
X119583639Y-109658541D01*
X119640150Y-109689608D01*
X119642442Y-109690335D01*
X119644552Y-109691476D01*
X119706084Y-109710524D01*
X119767580Y-109730031D01*
X119769968Y-109730299D01*
X119772262Y-109731009D01*
X119836366Y-109737746D01*
X119900436Y-109744933D01*
X119905050Y-109744965D01*
X119905218Y-109744983D01*
X119905386Y-109744968D01*
X119910000Y-109745000D01*
X122450000Y-109745000D01*
X122514145Y-109738710D01*
X122578356Y-109732867D01*
X122580662Y-109732188D01*
X122583051Y-109731954D01*
X122644723Y-109713334D01*
X122706606Y-109695121D01*
X122708736Y-109694008D01*
X122711033Y-109693314D01*
X122767886Y-109663084D01*
X122825081Y-109633184D01*
X122826955Y-109631677D01*
X122829073Y-109630551D01*
X122878986Y-109589843D01*
X122929269Y-109549414D01*
X122930813Y-109547573D01*
X122932674Y-109546056D01*
X122973766Y-109496384D01*
X123015203Y-109447002D01*
X123016360Y-109444898D01*
X123017891Y-109443047D01*
X123048541Y-109386361D01*
X123079608Y-109329850D01*
X123080335Y-109327558D01*
X123081476Y-109325448D01*
X123084554Y-109315503D01*
X123084879Y-109316606D01*
X123085992Y-109318736D01*
X123086686Y-109321033D01*
X123116916Y-109377886D01*
X123146816Y-109435081D01*
X123148323Y-109436955D01*
X123149449Y-109439073D01*
X123190157Y-109488986D01*
X123230586Y-109539269D01*
X123232427Y-109540813D01*
X123233944Y-109542674D01*
X123283616Y-109583766D01*
X123332998Y-109625203D01*
X123335102Y-109626360D01*
X123336953Y-109627891D01*
X123393639Y-109658541D01*
X123450150Y-109689608D01*
X123452442Y-109690335D01*
X123454552Y-109691476D01*
X123516084Y-109710524D01*
X123577580Y-109730031D01*
X123579968Y-109730299D01*
X123582262Y-109731009D01*
X123646366Y-109737746D01*
X123710436Y-109744933D01*
X123715050Y-109744965D01*
X123715218Y-109744983D01*
X123715386Y-109744968D01*
X123720000Y-109745000D01*
X126260000Y-109745000D01*
X126324145Y-109738710D01*
X126388356Y-109732867D01*
X126390662Y-109732188D01*
X126393051Y-109731954D01*
X126454723Y-109713334D01*
X126516606Y-109695121D01*
X126518736Y-109694008D01*
X126521033Y-109693314D01*
X126577886Y-109663084D01*
X126635081Y-109633184D01*
X126636955Y-109631677D01*
X126639073Y-109630551D01*
X126688986Y-109589843D01*
X126739269Y-109549414D01*
X126740813Y-109547573D01*
X126742674Y-109546056D01*
X126783766Y-109496384D01*
X126825203Y-109447002D01*
X126826360Y-109444898D01*
X126827891Y-109443047D01*
X126858541Y-109386361D01*
X126889608Y-109329850D01*
X126890335Y-109327558D01*
X126891476Y-109325448D01*
X126894554Y-109315503D01*
X126894879Y-109316606D01*
X126895992Y-109318736D01*
X126896686Y-109321033D01*
X126926916Y-109377886D01*
X126956816Y-109435081D01*
X126958323Y-109436955D01*
X126959449Y-109439073D01*
X127000157Y-109488986D01*
X127040586Y-109539269D01*
X127042427Y-109540813D01*
X127043944Y-109542674D01*
X127093616Y-109583766D01*
X127142998Y-109625203D01*
X127145102Y-109626360D01*
X127146953Y-109627891D01*
X127203639Y-109658541D01*
X127260150Y-109689608D01*
X127262442Y-109690335D01*
X127264552Y-109691476D01*
X127326084Y-109710524D01*
X127387580Y-109730031D01*
X127389968Y-109730299D01*
X127392262Y-109731009D01*
X127456366Y-109737746D01*
X127520436Y-109744933D01*
X127525050Y-109744965D01*
X127525218Y-109744983D01*
X127525386Y-109744968D01*
X127530000Y-109745000D01*
X130070000Y-109745000D01*
X130134145Y-109738710D01*
X130198356Y-109732867D01*
X130200662Y-109732188D01*
X130203051Y-109731954D01*
X130264723Y-109713334D01*
X130326606Y-109695121D01*
X130328736Y-109694008D01*
X130331033Y-109693314D01*
X130387886Y-109663084D01*
X130445081Y-109633184D01*
X130446955Y-109631677D01*
X130449073Y-109630551D01*
X130498986Y-109589843D01*
X130549269Y-109549414D01*
X130550813Y-109547573D01*
X130552674Y-109546056D01*
X130593766Y-109496384D01*
X130635203Y-109447002D01*
X130636360Y-109444898D01*
X130637891Y-109443047D01*
X130668541Y-109386361D01*
X130699608Y-109329850D01*
X130700335Y-109327558D01*
X130701476Y-109325448D01*
X130704554Y-109315503D01*
X130704879Y-109316606D01*
X130705992Y-109318736D01*
X130706686Y-109321033D01*
X130736916Y-109377886D01*
X130766816Y-109435081D01*
X130768323Y-109436955D01*
X130769449Y-109439073D01*
X130810157Y-109488986D01*
X130850586Y-109539269D01*
X130852427Y-109540813D01*
X130853944Y-109542674D01*
X130903616Y-109583766D01*
X130952998Y-109625203D01*
X130955102Y-109626360D01*
X130956953Y-109627891D01*
X131013639Y-109658541D01*
X131070150Y-109689608D01*
X131072442Y-109690335D01*
X131074552Y-109691476D01*
X131136084Y-109710524D01*
X131197580Y-109730031D01*
X131199968Y-109730299D01*
X131202262Y-109731009D01*
X131266366Y-109737746D01*
X131330436Y-109744933D01*
X131335050Y-109744965D01*
X131335218Y-109744983D01*
X131335386Y-109744968D01*
X131340000Y-109745000D01*
X133880000Y-109745000D01*
X133944145Y-109738710D01*
X134008356Y-109732867D01*
X134010662Y-109732188D01*
X134013051Y-109731954D01*
X134074723Y-109713334D01*
X134136606Y-109695121D01*
X134138736Y-109694008D01*
X134141033Y-109693314D01*
X134197886Y-109663084D01*
X134255081Y-109633184D01*
X134256955Y-109631677D01*
X134259073Y-109630551D01*
X134308986Y-109589843D01*
X134359269Y-109549414D01*
X134360813Y-109547573D01*
X134362674Y-109546056D01*
X134403766Y-109496384D01*
X134445203Y-109447002D01*
X134446360Y-109444898D01*
X134447891Y-109443047D01*
X134478541Y-109386361D01*
X134509608Y-109329850D01*
X134510335Y-109327558D01*
X134511476Y-109325448D01*
X134514554Y-109315503D01*
X134514879Y-109316606D01*
X134515992Y-109318736D01*
X134516686Y-109321033D01*
X134546916Y-109377886D01*
X134576816Y-109435081D01*
X134578323Y-109436955D01*
X134579449Y-109439073D01*
X134620157Y-109488986D01*
X134660586Y-109539269D01*
X134662427Y-109540813D01*
X134663944Y-109542674D01*
X134713616Y-109583766D01*
X134762998Y-109625203D01*
X134765102Y-109626360D01*
X134766953Y-109627891D01*
X134823639Y-109658541D01*
X134880150Y-109689608D01*
X134882442Y-109690335D01*
X134884552Y-109691476D01*
X134946084Y-109710524D01*
X135007580Y-109730031D01*
X135009968Y-109730299D01*
X135012262Y-109731009D01*
X135076366Y-109737746D01*
X135140436Y-109744933D01*
X135145050Y-109744965D01*
X135145218Y-109744983D01*
X135145386Y-109744968D01*
X135150000Y-109745000D01*
X137690000Y-109745000D01*
X137754145Y-109738710D01*
X137818356Y-109732867D01*
X137820662Y-109732188D01*
X137823051Y-109731954D01*
X137884723Y-109713334D01*
X137946606Y-109695121D01*
X137948736Y-109694008D01*
X137951033Y-109693314D01*
X138007886Y-109663084D01*
X138065081Y-109633184D01*
X138066955Y-109631677D01*
X138069073Y-109630551D01*
X138118986Y-109589843D01*
X138169269Y-109549414D01*
X138170813Y-109547573D01*
X138172674Y-109546056D01*
X138213766Y-109496384D01*
X138255203Y-109447002D01*
X138256360Y-109444898D01*
X138257891Y-109443047D01*
X138288541Y-109386361D01*
X138319608Y-109329850D01*
X138320335Y-109327558D01*
X138321476Y-109325448D01*
X138324554Y-109315503D01*
X138324879Y-109316606D01*
X138325992Y-109318736D01*
X138326686Y-109321033D01*
X138356916Y-109377886D01*
X138386816Y-109435081D01*
X138388323Y-109436955D01*
X138389449Y-109439073D01*
X138430157Y-109488986D01*
X138470586Y-109539269D01*
X138472427Y-109540813D01*
X138473944Y-109542674D01*
X138523616Y-109583766D01*
X138572998Y-109625203D01*
X138575102Y-109626360D01*
X138576953Y-109627891D01*
X138633639Y-109658541D01*
X138690150Y-109689608D01*
X138692442Y-109690335D01*
X138694552Y-109691476D01*
X138756084Y-109710524D01*
X138817580Y-109730031D01*
X138819968Y-109730299D01*
X138822262Y-109731009D01*
X138886366Y-109737746D01*
X138950436Y-109744933D01*
X138955050Y-109744965D01*
X138955218Y-109744983D01*
X138955386Y-109744968D01*
X138960000Y-109745000D01*
X141500000Y-109745000D01*
X141564145Y-109738710D01*
X141628356Y-109732867D01*
X141630662Y-109732188D01*
X141633051Y-109731954D01*
X141694723Y-109713334D01*
X141756606Y-109695121D01*
X141758736Y-109694008D01*
X141761033Y-109693314D01*
X141817886Y-109663084D01*
X141875081Y-109633184D01*
X141876955Y-109631677D01*
X141879073Y-109630551D01*
X141928986Y-109589843D01*
X141979269Y-109549414D01*
X141980813Y-109547573D01*
X141982674Y-109546056D01*
X142023766Y-109496384D01*
X142065203Y-109447002D01*
X142066360Y-109444898D01*
X142067891Y-109443047D01*
X142098541Y-109386361D01*
X142129608Y-109329850D01*
X142130335Y-109327558D01*
X142131476Y-109325448D01*
X142134554Y-109315503D01*
X142134879Y-109316606D01*
X142135992Y-109318736D01*
X142136686Y-109321033D01*
X142166916Y-109377886D01*
X142196816Y-109435081D01*
X142198323Y-109436955D01*
X142199449Y-109439073D01*
X142240157Y-109488986D01*
X142280586Y-109539269D01*
X142282427Y-109540813D01*
X142283944Y-109542674D01*
X142333616Y-109583766D01*
X142382998Y-109625203D01*
X142385102Y-109626360D01*
X142386953Y-109627891D01*
X142443639Y-109658541D01*
X142500150Y-109689608D01*
X142502442Y-109690335D01*
X142504552Y-109691476D01*
X142566084Y-109710524D01*
X142627580Y-109730031D01*
X142629968Y-109730299D01*
X142632262Y-109731009D01*
X142696366Y-109737746D01*
X142760436Y-109744933D01*
X142765050Y-109744965D01*
X142765218Y-109744983D01*
X142765386Y-109744968D01*
X142770000Y-109745000D01*
X145310000Y-109745000D01*
X145374145Y-109738710D01*
X145438356Y-109732867D01*
X145440662Y-109732188D01*
X145443051Y-109731954D01*
X145504723Y-109713334D01*
X145566606Y-109695121D01*
X145568736Y-109694008D01*
X145571033Y-109693314D01*
X145627886Y-109663084D01*
X145685081Y-109633184D01*
X145686955Y-109631677D01*
X145689073Y-109630551D01*
X145738986Y-109589843D01*
X145789269Y-109549414D01*
X145790813Y-109547573D01*
X145792674Y-109546056D01*
X145833766Y-109496384D01*
X145875203Y-109447002D01*
X145876360Y-109444898D01*
X145877891Y-109443047D01*
X145908541Y-109386361D01*
X145939608Y-109329850D01*
X145940335Y-109327558D01*
X145941476Y-109325448D01*
X145944554Y-109315503D01*
X145944879Y-109316606D01*
X145945992Y-109318736D01*
X145946686Y-109321033D01*
X145976916Y-109377886D01*
X146006816Y-109435081D01*
X146008323Y-109436955D01*
X146009449Y-109439073D01*
X146050157Y-109488986D01*
X146090586Y-109539269D01*
X146092427Y-109540813D01*
X146093944Y-109542674D01*
X146143616Y-109583766D01*
X146192998Y-109625203D01*
X146195102Y-109626360D01*
X146196953Y-109627891D01*
X146253639Y-109658541D01*
X146310150Y-109689608D01*
X146312442Y-109690335D01*
X146314552Y-109691476D01*
X146376084Y-109710524D01*
X146437580Y-109730031D01*
X146439968Y-109730299D01*
X146442262Y-109731009D01*
X146506366Y-109737746D01*
X146570436Y-109744933D01*
X146575050Y-109744965D01*
X146575218Y-109744983D01*
X146575386Y-109744968D01*
X146580000Y-109745000D01*
X149120000Y-109745000D01*
X149184145Y-109738710D01*
X149248356Y-109732867D01*
X149250662Y-109732188D01*
X149253051Y-109731954D01*
X149314723Y-109713334D01*
X149376606Y-109695121D01*
X149378736Y-109694008D01*
X149381033Y-109693314D01*
X149437886Y-109663084D01*
X149495081Y-109633184D01*
X149496955Y-109631677D01*
X149499073Y-109630551D01*
X149548986Y-109589843D01*
X149599269Y-109549414D01*
X149600813Y-109547573D01*
X149602674Y-109546056D01*
X149643766Y-109496384D01*
X149685203Y-109447002D01*
X149686360Y-109444898D01*
X149687891Y-109443047D01*
X149718541Y-109386361D01*
X149749608Y-109329850D01*
X149750335Y-109327558D01*
X149751476Y-109325448D01*
X149754554Y-109315503D01*
X149754879Y-109316606D01*
X149755992Y-109318736D01*
X149756686Y-109321033D01*
X149786916Y-109377886D01*
X149816816Y-109435081D01*
X149818323Y-109436955D01*
X149819449Y-109439073D01*
X149860157Y-109488986D01*
X149900586Y-109539269D01*
X149902427Y-109540813D01*
X149903944Y-109542674D01*
X149953616Y-109583766D01*
X150002998Y-109625203D01*
X150005102Y-109626360D01*
X150006953Y-109627891D01*
X150063639Y-109658541D01*
X150120150Y-109689608D01*
X150122442Y-109690335D01*
X150124552Y-109691476D01*
X150186084Y-109710524D01*
X150247580Y-109730031D01*
X150249968Y-109730299D01*
X150252262Y-109731009D01*
X150316366Y-109737746D01*
X150380436Y-109744933D01*
X150385050Y-109744965D01*
X150385218Y-109744983D01*
X150385386Y-109744968D01*
X150390000Y-109745000D01*
X152930000Y-109745000D01*
X152994145Y-109738710D01*
X153058356Y-109732867D01*
X153060662Y-109732188D01*
X153063051Y-109731954D01*
X153124723Y-109713334D01*
X153186606Y-109695121D01*
X153188736Y-109694008D01*
X153191033Y-109693314D01*
X153247886Y-109663084D01*
X153305081Y-109633184D01*
X153306955Y-109631677D01*
X153309073Y-109630551D01*
X153358986Y-109589843D01*
X153409269Y-109549414D01*
X153410813Y-109547573D01*
X153412674Y-109546056D01*
X153453766Y-109496384D01*
X153495203Y-109447002D01*
X153496360Y-109444898D01*
X153497891Y-109443047D01*
X153528541Y-109386361D01*
X153559608Y-109329850D01*
X153560335Y-109327558D01*
X153561476Y-109325448D01*
X153564554Y-109315503D01*
X153564879Y-109316606D01*
X153565992Y-109318736D01*
X153566686Y-109321033D01*
X153596916Y-109377886D01*
X153626816Y-109435081D01*
X153628323Y-109436955D01*
X153629449Y-109439073D01*
X153670157Y-109488986D01*
X153710586Y-109539269D01*
X153712427Y-109540813D01*
X153713944Y-109542674D01*
X153763616Y-109583766D01*
X153812998Y-109625203D01*
X153815102Y-109626360D01*
X153816953Y-109627891D01*
X153873639Y-109658541D01*
X153930150Y-109689608D01*
X153932442Y-109690335D01*
X153934552Y-109691476D01*
X153996084Y-109710524D01*
X154057580Y-109730031D01*
X154059968Y-109730299D01*
X154062262Y-109731009D01*
X154126366Y-109737746D01*
X154190436Y-109744933D01*
X154195050Y-109744965D01*
X154195218Y-109744983D01*
X154195386Y-109744968D01*
X154200000Y-109745000D01*
X156740000Y-109745000D01*
X156804145Y-109738710D01*
X156868356Y-109732867D01*
X156870662Y-109732188D01*
X156873051Y-109731954D01*
X156934723Y-109713334D01*
X156996606Y-109695121D01*
X156998736Y-109694008D01*
X157001033Y-109693314D01*
X157057886Y-109663084D01*
X157115081Y-109633184D01*
X157116955Y-109631677D01*
X157119073Y-109630551D01*
X157168986Y-109589843D01*
X157219269Y-109549414D01*
X157220813Y-109547573D01*
X157222674Y-109546056D01*
X157263766Y-109496384D01*
X157305203Y-109447002D01*
X157306360Y-109444898D01*
X157307891Y-109443047D01*
X157338541Y-109386361D01*
X157369608Y-109329850D01*
X157370335Y-109327558D01*
X157371476Y-109325448D01*
X157374554Y-109315503D01*
X157374879Y-109316606D01*
X157375992Y-109318736D01*
X157376686Y-109321033D01*
X157406916Y-109377886D01*
X157436816Y-109435081D01*
X157438323Y-109436955D01*
X157439449Y-109439073D01*
X157480157Y-109488986D01*
X157520586Y-109539269D01*
X157522427Y-109540813D01*
X157523944Y-109542674D01*
X157573616Y-109583766D01*
X157622998Y-109625203D01*
X157625102Y-109626360D01*
X157626953Y-109627891D01*
X157683639Y-109658541D01*
X157740150Y-109689608D01*
X157742442Y-109690335D01*
X157744552Y-109691476D01*
X157806084Y-109710524D01*
X157867580Y-109730031D01*
X157869968Y-109730299D01*
X157872262Y-109731009D01*
X157936366Y-109737746D01*
X158000436Y-109744933D01*
X158005050Y-109744965D01*
X158005218Y-109744983D01*
X158005386Y-109744968D01*
X158010000Y-109745000D01*
X160550000Y-109745000D01*
X160614145Y-109738710D01*
X160678356Y-109732867D01*
X160680662Y-109732188D01*
X160683051Y-109731954D01*
X160744723Y-109713334D01*
X160806606Y-109695121D01*
X160808736Y-109694008D01*
X160811033Y-109693314D01*
X160867886Y-109663084D01*
X160925081Y-109633184D01*
X160926955Y-109631677D01*
X160929073Y-109630551D01*
X160978986Y-109589843D01*
X161029269Y-109549414D01*
X161030813Y-109547573D01*
X161032674Y-109546056D01*
X161073766Y-109496384D01*
X161115203Y-109447002D01*
X161116360Y-109444898D01*
X161117891Y-109443047D01*
X161148541Y-109386361D01*
X161179608Y-109329850D01*
X161180335Y-109327558D01*
X161181476Y-109325448D01*
X161200524Y-109263916D01*
X161220031Y-109202420D01*
X161220299Y-109200032D01*
X161221009Y-109197738D01*
X161227746Y-109133634D01*
X161234933Y-109069564D01*
X161234965Y-109064950D01*
X161234983Y-109064782D01*
X161234968Y-109064614D01*
X161235000Y-109060000D01*
X161235000Y-108204872D01*
X162760000Y-108204872D01*
X162760000Y-108645128D01*
X162845890Y-109076925D01*
X163014369Y-109483669D01*
X163258962Y-109849729D01*
X163570271Y-110161038D01*
X163936331Y-110405631D01*
X164343075Y-110574110D01*
X164774872Y-110660000D01*
X165215128Y-110660000D01*
X165646925Y-110574110D01*
X166053669Y-110405631D01*
X166419729Y-110161038D01*
X166731038Y-109849729D01*
X166975631Y-109483669D01*
X167144110Y-109076925D01*
X167230000Y-108645128D01*
X167230000Y-108204872D01*
X167144110Y-107773075D01*
X166975631Y-107366331D01*
X166731038Y-107000271D01*
X166419729Y-106688962D01*
X166053669Y-106444369D01*
X165646925Y-106275890D01*
X165215128Y-106190000D01*
X164774872Y-106190000D01*
X164343075Y-106275890D01*
X163936331Y-106444369D01*
X163570271Y-106688962D01*
X163258962Y-107000271D01*
X163014369Y-107366331D01*
X162845890Y-107773075D01*
X162760000Y-108204872D01*
X161235000Y-108204872D01*
X161235000Y-101440000D01*
X161228710Y-101375855D01*
X161222867Y-101311644D01*
X161222188Y-101309338D01*
X161221954Y-101306949D01*
X161203334Y-101245277D01*
X161185121Y-101183394D01*
X161184008Y-101181264D01*
X161183314Y-101178967D01*
X161153084Y-101122114D01*
X161123184Y-101064919D01*
X161121677Y-101063045D01*
X161120551Y-101060927D01*
X161079843Y-101011014D01*
X161039414Y-100960731D01*
X161037573Y-100959187D01*
X161036056Y-100957326D01*
X160986384Y-100916234D01*
X160937002Y-100874797D01*
X160934898Y-100873640D01*
X160933047Y-100872109D01*
X160876361Y-100841459D01*
X160819850Y-100810392D01*
X160817558Y-100809665D01*
X160815448Y-100808524D01*
X160753916Y-100789476D01*
X160692420Y-100769969D01*
X160690032Y-100769701D01*
X160687738Y-100768991D01*
X160623634Y-100762254D01*
X160559564Y-100755067D01*
X160554950Y-100755035D01*
X160554782Y-100755017D01*
X160554614Y-100755032D01*
X160550000Y-100755000D01*
X158010000Y-100755000D01*
X157945855Y-100761290D01*
X157881644Y-100767133D01*
X157879338Y-100767812D01*
X157876949Y-100768046D01*
X157815277Y-100786666D01*
X157753394Y-100804879D01*
X157751264Y-100805992D01*
X157748967Y-100806686D01*
X157692114Y-100836916D01*
X157634919Y-100866816D01*
X157633045Y-100868323D01*
X157630927Y-100869449D01*
X157581014Y-100910157D01*
X157530731Y-100950586D01*
X157529187Y-100952427D01*
X157527326Y-100953944D01*
X157486234Y-101003616D01*
X157444797Y-101052998D01*
X157443640Y-101055102D01*
X157442109Y-101056953D01*
X157411459Y-101113639D01*
X157380392Y-101170150D01*
X157379665Y-101172442D01*
X157378524Y-101174552D01*
X157375446Y-101184497D01*
X157375121Y-101183394D01*
X157374008Y-101181264D01*
X157373314Y-101178967D01*
X157343084Y-101122114D01*
X157313184Y-101064919D01*
X157311677Y-101063045D01*
X157310551Y-101060927D01*
X157269843Y-101011014D01*
X157229414Y-100960731D01*
X157227573Y-100959187D01*
X157226056Y-100957326D01*
X157176384Y-100916234D01*
X157127002Y-100874797D01*
X157124898Y-100873640D01*
X157123047Y-100872109D01*
X157066361Y-100841459D01*
X157009850Y-100810392D01*
X157007558Y-100809665D01*
X157005448Y-100808524D01*
X156943916Y-100789476D01*
X156882420Y-100769969D01*
X156880032Y-100769701D01*
X156877738Y-100768991D01*
X156813634Y-100762254D01*
X156749564Y-100755067D01*
X156744950Y-100755035D01*
X156744782Y-100755017D01*
X156744614Y-100755032D01*
X156740000Y-100755000D01*
X154200000Y-100755000D01*
X154135855Y-100761290D01*
X154071644Y-100767133D01*
X154069338Y-100767812D01*
X154066949Y-100768046D01*
X154005277Y-100786666D01*
X153943394Y-100804879D01*
X153941264Y-100805992D01*
X153938967Y-100806686D01*
X153882114Y-100836916D01*
X153824919Y-100866816D01*
X153823045Y-100868323D01*
X153820927Y-100869449D01*
X153771014Y-100910157D01*
X153720731Y-100950586D01*
X153719187Y-100952427D01*
X153717326Y-100953944D01*
X153676234Y-101003616D01*
X153634797Y-101052998D01*
X153633640Y-101055102D01*
X153632109Y-101056953D01*
X153601459Y-101113639D01*
X153570392Y-101170150D01*
X153569665Y-101172442D01*
X153568524Y-101174552D01*
X153565446Y-101184497D01*
X153565121Y-101183394D01*
X153564008Y-101181264D01*
X153563314Y-101178967D01*
X153533084Y-101122114D01*
X153503184Y-101064919D01*
X153501677Y-101063045D01*
X153500551Y-101060927D01*
X153459843Y-101011014D01*
X153419414Y-100960731D01*
X153417573Y-100959187D01*
X153416056Y-100957326D01*
X153366384Y-100916234D01*
X153317002Y-100874797D01*
X153314898Y-100873640D01*
X153313047Y-100872109D01*
X153256361Y-100841459D01*
X153199850Y-100810392D01*
X153197558Y-100809665D01*
X153195448Y-100808524D01*
X153133916Y-100789476D01*
X153072420Y-100769969D01*
X153070032Y-100769701D01*
X153067738Y-100768991D01*
X153003634Y-100762254D01*
X152939564Y-100755067D01*
X152934950Y-100755035D01*
X152934782Y-100755017D01*
X152934614Y-100755032D01*
X152930000Y-100755000D01*
X150390000Y-100755000D01*
X150325855Y-100761290D01*
X150261644Y-100767133D01*
X150259338Y-100767812D01*
X150256949Y-100768046D01*
X150195277Y-100786666D01*
X150133394Y-100804879D01*
X150131264Y-100805992D01*
X150128967Y-100806686D01*
X150072114Y-100836916D01*
X150014919Y-100866816D01*
X150013045Y-100868323D01*
X150010927Y-100869449D01*
X149961014Y-100910157D01*
X149910731Y-100950586D01*
X149909187Y-100952427D01*
X149907326Y-100953944D01*
X149866234Y-101003616D01*
X149824797Y-101052998D01*
X149823640Y-101055102D01*
X149822109Y-101056953D01*
X149791459Y-101113639D01*
X149760392Y-101170150D01*
X149759665Y-101172442D01*
X149758524Y-101174552D01*
X149755446Y-101184497D01*
X149755121Y-101183394D01*
X149754008Y-101181264D01*
X149753314Y-101178967D01*
X149723084Y-101122114D01*
X149693184Y-101064919D01*
X149691677Y-101063045D01*
X149690551Y-101060927D01*
X149649843Y-101011014D01*
X149609414Y-100960731D01*
X149607573Y-100959187D01*
X149606056Y-100957326D01*
X149556384Y-100916234D01*
X149507002Y-100874797D01*
X149504898Y-100873640D01*
X149503047Y-100872109D01*
X149446361Y-100841459D01*
X149389850Y-100810392D01*
X149387558Y-100809665D01*
X149385448Y-100808524D01*
X149323916Y-100789476D01*
X149262420Y-100769969D01*
X149260032Y-100769701D01*
X149257738Y-100768991D01*
X149193634Y-100762254D01*
X149129564Y-100755067D01*
X149124950Y-100755035D01*
X149124782Y-100755017D01*
X149124614Y-100755032D01*
X149120000Y-100755000D01*
X146580000Y-100755000D01*
X146515855Y-100761290D01*
X146451644Y-100767133D01*
X146449338Y-100767812D01*
X146446949Y-100768046D01*
X146385277Y-100786666D01*
X146323394Y-100804879D01*
X146321264Y-100805992D01*
X146318967Y-100806686D01*
X146262114Y-100836916D01*
X146204919Y-100866816D01*
X146203045Y-100868323D01*
X146200927Y-100869449D01*
X146151014Y-100910157D01*
X146100731Y-100950586D01*
X146099187Y-100952427D01*
X146097326Y-100953944D01*
X146056234Y-101003616D01*
X146014797Y-101052998D01*
X146013640Y-101055102D01*
X146012109Y-101056953D01*
X145981459Y-101113639D01*
X145950392Y-101170150D01*
X145949665Y-101172442D01*
X145948524Y-101174552D01*
X145945446Y-101184497D01*
X145945121Y-101183394D01*
X145944008Y-101181264D01*
X145943314Y-101178967D01*
X145925000Y-101144523D01*
X145925000Y-100262586D01*
X145934119Y-100169999D01*
X145925000Y-100077412D01*
X145925000Y-100077403D01*
X145897725Y-99800476D01*
X145789939Y-99445152D01*
X145614903Y-99117683D01*
X145564321Y-99056049D01*
X145438372Y-98902579D01*
X145438370Y-98902577D01*
X145379345Y-98830655D01*
X145307423Y-98771630D01*
X144168372Y-97632580D01*
X144109345Y-97560655D01*
X143822317Y-97325097D01*
X143494848Y-97150061D01*
X143139524Y-97042275D01*
X142862597Y-97015000D01*
X142862589Y-97015000D01*
X142770000Y-97005881D01*
X142677411Y-97015000D01*
X125082597Y-97015000D01*
X124990000Y-97005880D01*
X124897403Y-97015000D01*
X107302586Y-97015000D01*
X107209999Y-97005881D01*
X107117412Y-97015000D01*
X92710793Y-97015000D01*
X93237423Y-96488370D01*
X93309345Y-96429345D01*
X93544903Y-96142317D01*
X93719939Y-95814848D01*
X93827725Y-95459524D01*
X93855000Y-95182597D01*
X93864120Y-95090000D01*
X93855000Y-94997403D01*
X93855000Y-88547586D01*
X93864119Y-88454999D01*
X93855000Y-88362412D01*
X93855000Y-88362403D01*
X93827725Y-88085476D01*
X93719939Y-87730152D01*
X93544903Y-87402683D01*
X93373072Y-87193307D01*
X93373072Y-85720000D01*
X93360812Y-85595518D01*
X93359157Y-85590061D01*
X129289000Y-85590061D01*
X129289000Y-85793939D01*
X129328774Y-85993898D01*
X129406795Y-86182256D01*
X129520063Y-86351774D01*
X129664226Y-86495937D01*
X129833744Y-86609205D01*
X130022102Y-86687226D01*
X130222061Y-86727000D01*
X130425939Y-86727000D01*
X130625898Y-86687226D01*
X130814256Y-86609205D01*
X130937285Y-86527000D01*
X135616982Y-86527000D01*
X135658000Y-86531040D01*
X135699018Y-86527000D01*
X135699019Y-86527000D01*
X135821689Y-86514918D01*
X135979087Y-86467172D01*
X136124146Y-86389636D01*
X136251291Y-86285291D01*
X136277445Y-86253422D01*
X136576775Y-85954092D01*
X136721898Y-85925226D01*
X136910256Y-85847205D01*
X137079774Y-85733937D01*
X137223937Y-85589774D01*
X137337205Y-85420256D01*
X137415226Y-85231898D01*
X137455000Y-85031939D01*
X137455000Y-84828061D01*
X137415226Y-84628102D01*
X137337205Y-84439744D01*
X137223937Y-84270226D01*
X137079774Y-84126063D01*
X136910256Y-84012795D01*
X136721898Y-83934774D01*
X136521939Y-83895000D01*
X136318061Y-83895000D01*
X136118102Y-83934774D01*
X135929744Y-84012795D01*
X135760226Y-84126063D01*
X135616063Y-84270226D01*
X135502795Y-84439744D01*
X135424774Y-84628102D01*
X135395908Y-84773225D01*
X135312132Y-84857000D01*
X130937285Y-84857000D01*
X130814256Y-84774795D01*
X130625898Y-84696774D01*
X130425939Y-84657000D01*
X130222061Y-84657000D01*
X130022102Y-84696774D01*
X129833744Y-84774795D01*
X129664226Y-84888063D01*
X129520063Y-85032226D01*
X129406795Y-85201744D01*
X129328774Y-85390102D01*
X129289000Y-85590061D01*
X93359157Y-85590061D01*
X93324502Y-85475820D01*
X93265537Y-85365506D01*
X93186185Y-85268815D01*
X93089494Y-85189463D01*
X92979180Y-85130498D01*
X92859482Y-85094188D01*
X92735000Y-85081928D01*
X89235000Y-85081928D01*
X89110518Y-85094188D01*
X88990820Y-85130498D01*
X88880506Y-85189463D01*
X88783815Y-85268815D01*
X88704463Y-85365506D01*
X88645498Y-85475820D01*
X88609188Y-85595518D01*
X88596928Y-85720000D01*
X88596928Y-89220000D01*
X88609188Y-89344482D01*
X88645498Y-89464180D01*
X88704463Y-89574494D01*
X88783815Y-89671185D01*
X88880506Y-89750537D01*
X88957131Y-89791494D01*
X88860000Y-89781928D01*
X87110000Y-89781928D01*
X86814814Y-89811001D01*
X86530972Y-89897104D01*
X86269382Y-90036927D01*
X86040097Y-90225097D01*
X85851927Y-90454382D01*
X85712104Y-90715972D01*
X85626001Y-90999814D01*
X85596928Y-91295000D01*
X85596928Y-93045000D01*
X85626001Y-93340186D01*
X85712104Y-93624028D01*
X85851927Y-93885618D01*
X86040097Y-94114903D01*
X86269382Y-94303073D01*
X86530972Y-94442896D01*
X86814814Y-94528999D01*
X87110000Y-94558072D01*
X88860000Y-94558072D01*
X89155186Y-94528999D01*
X89439028Y-94442896D01*
X89700618Y-94303073D01*
X89929903Y-94114903D01*
X90085001Y-93925916D01*
X90085001Y-94309206D01*
X86892584Y-97501624D01*
X86892579Y-97501628D01*
X86892577Y-97501630D01*
X86820655Y-97560655D01*
X86761630Y-97632577D01*
X85622582Y-98771626D01*
X85550655Y-98830655D01*
X85315097Y-99117683D01*
X85140061Y-99445153D01*
X85085551Y-99624848D01*
X85032276Y-99800475D01*
X85032275Y-99800477D01*
X85005000Y-100077404D01*
X85005000Y-100077411D01*
X84995881Y-100170000D01*
X85005000Y-100262590D01*
X85005000Y-101143578D01*
X84990392Y-101170150D01*
X84989665Y-101172442D01*
X84988524Y-101174552D01*
X84969476Y-101236084D01*
X84949969Y-101297580D01*
X84949701Y-101299968D01*
X84948991Y-101302262D01*
X84942254Y-101366366D01*
X84935067Y-101430436D01*
X84935035Y-101435050D01*
X84935017Y-101435218D01*
X84935032Y-101435386D01*
X84935000Y-101440000D01*
X78685000Y-101440000D01*
X78685000Y-89220000D01*
X82846928Y-89220000D01*
X82859188Y-89344482D01*
X82895498Y-89464180D01*
X82954463Y-89574494D01*
X83033815Y-89671185D01*
X83130506Y-89750537D01*
X83240820Y-89809502D01*
X83360518Y-89845812D01*
X83485000Y-89858072D01*
X84699250Y-89855000D01*
X84858000Y-89696250D01*
X84858000Y-87597000D01*
X85112000Y-87597000D01*
X85112000Y-89696250D01*
X85270750Y-89855000D01*
X86485000Y-89858072D01*
X86609482Y-89845812D01*
X86729180Y-89809502D01*
X86839494Y-89750537D01*
X86936185Y-89671185D01*
X87015537Y-89574494D01*
X87074502Y-89464180D01*
X87110812Y-89344482D01*
X87123072Y-89220000D01*
X87120000Y-87755750D01*
X86961250Y-87597000D01*
X85112000Y-87597000D01*
X84858000Y-87597000D01*
X83008750Y-87597000D01*
X82850000Y-87755750D01*
X82846928Y-89220000D01*
X78685000Y-89220000D01*
X78685000Y-85720000D01*
X82846928Y-85720000D01*
X82850000Y-87184250D01*
X83008750Y-87343000D01*
X84858000Y-87343000D01*
X84858000Y-85243750D01*
X85112000Y-85243750D01*
X85112000Y-87343000D01*
X86961250Y-87343000D01*
X87120000Y-87184250D01*
X87123072Y-85720000D01*
X87110812Y-85595518D01*
X87074502Y-85475820D01*
X87015537Y-85365506D01*
X86936185Y-85268815D01*
X86839494Y-85189463D01*
X86729180Y-85130498D01*
X86609482Y-85094188D01*
X86485000Y-85081928D01*
X85270750Y-85085000D01*
X85112000Y-85243750D01*
X84858000Y-85243750D01*
X84699250Y-85085000D01*
X83485000Y-85081928D01*
X83360518Y-85094188D01*
X83240820Y-85130498D01*
X83130506Y-85189463D01*
X83033815Y-85268815D01*
X82954463Y-85365506D01*
X82895498Y-85475820D01*
X82859188Y-85595518D01*
X82846928Y-85720000D01*
X78685000Y-85720000D01*
X78685000Y-77895004D01*
X102691339Y-77895004D01*
X102691339Y-78177674D01*
X102746486Y-78454913D01*
X102854659Y-78716066D01*
X103011702Y-78951098D01*
X103211580Y-79150976D01*
X103446612Y-79308019D01*
X103707765Y-79416192D01*
X103985004Y-79471339D01*
X104267674Y-79471339D01*
X104361757Y-79452624D01*
X104831375Y-79922243D01*
X104812661Y-80016326D01*
X104812661Y-80298996D01*
X104867808Y-80576235D01*
X104975981Y-80837388D01*
X105133024Y-81072420D01*
X105332902Y-81272298D01*
X105567934Y-81429341D01*
X105829087Y-81537514D01*
X106106326Y-81592661D01*
X106388996Y-81592661D01*
X106666235Y-81537514D01*
X106927388Y-81429341D01*
X107162420Y-81272298D01*
X107362298Y-81072420D01*
X107519341Y-80837388D01*
X107627514Y-80576235D01*
X107679198Y-80316405D01*
X107939028Y-80264721D01*
X108200181Y-80156548D01*
X108435213Y-79999505D01*
X108635091Y-79799627D01*
X108792134Y-79564595D01*
X108900307Y-79303442D01*
X108955454Y-79026203D01*
X108955454Y-78829514D01*
X119591000Y-78829514D01*
X119591000Y-79092486D01*
X119642304Y-79350405D01*
X119742939Y-79593359D01*
X119889038Y-79812013D01*
X120074987Y-79997962D01*
X120293641Y-80144061D01*
X120536595Y-80244696D01*
X120794514Y-80296000D01*
X121057486Y-80296000D01*
X121315405Y-80244696D01*
X121558359Y-80144061D01*
X121777013Y-79997962D01*
X121892706Y-79882269D01*
X122724336Y-79882269D01*
X122783797Y-80116037D01*
X123022242Y-80226934D01*
X123277740Y-80289183D01*
X123540473Y-80300390D01*
X123800344Y-80260125D01*
X124047366Y-80169935D01*
X124148203Y-80116037D01*
X124207664Y-79882269D01*
X123466000Y-79140605D01*
X122724336Y-79882269D01*
X121892706Y-79882269D01*
X121962962Y-79812013D01*
X122109061Y-79593359D01*
X122197621Y-79379556D01*
X122257065Y-79542366D01*
X122310963Y-79643203D01*
X122544731Y-79702664D01*
X123286395Y-78961000D01*
X123645605Y-78961000D01*
X124387269Y-79702664D01*
X124621037Y-79643203D01*
X124731934Y-79404758D01*
X124794183Y-79149260D01*
X124805390Y-78886527D01*
X124765125Y-78626656D01*
X124674935Y-78379634D01*
X124621037Y-78278797D01*
X124405846Y-78224061D01*
X143767000Y-78224061D01*
X143767000Y-78427939D01*
X143806774Y-78627898D01*
X143884795Y-78816256D01*
X143998063Y-78985774D01*
X144142226Y-79129937D01*
X144311744Y-79243205D01*
X144500102Y-79321226D01*
X144556957Y-79332535D01*
X145238459Y-80014038D01*
X145238458Y-80633003D01*
X145206253Y-80681202D01*
X145128232Y-80869560D01*
X145088458Y-81069519D01*
X145088458Y-81273397D01*
X145128232Y-81473356D01*
X145206253Y-81661714D01*
X145319521Y-81831232D01*
X145463684Y-81975395D01*
X145633202Y-82088663D01*
X145821560Y-82166684D01*
X146021519Y-82206458D01*
X146225397Y-82206458D01*
X146425356Y-82166684D01*
X146613714Y-82088663D01*
X146783232Y-81975395D01*
X146927395Y-81831232D01*
X147040663Y-81661714D01*
X147118684Y-81473356D01*
X147158458Y-81273397D01*
X147158458Y-81069519D01*
X147118684Y-80869560D01*
X147040663Y-80681202D01*
X147008458Y-80633004D01*
X147008458Y-79690927D01*
X147012739Y-79647458D01*
X147008458Y-79603989D01*
X147008458Y-79603981D01*
X146995653Y-79473968D01*
X146945047Y-79307145D01*
X146862869Y-79153399D01*
X146752275Y-79018641D01*
X146718507Y-78990928D01*
X145808535Y-78080957D01*
X145797226Y-78024102D01*
X145719205Y-77835744D01*
X145605937Y-77666226D01*
X145461774Y-77522063D01*
X145292256Y-77408795D01*
X145103898Y-77330774D01*
X144903939Y-77291000D01*
X144700061Y-77291000D01*
X144500102Y-77330774D01*
X144311744Y-77408795D01*
X144142226Y-77522063D01*
X143998063Y-77666226D01*
X143884795Y-77835744D01*
X143806774Y-78024102D01*
X143767000Y-78224061D01*
X124405846Y-78224061D01*
X124387269Y-78219336D01*
X123645605Y-78961000D01*
X123286395Y-78961000D01*
X122544731Y-78219336D01*
X122310963Y-78278797D01*
X122200066Y-78517242D01*
X122195294Y-78536827D01*
X122109061Y-78328641D01*
X121962962Y-78109987D01*
X121892706Y-78039731D01*
X122724336Y-78039731D01*
X123466000Y-78781395D01*
X124207664Y-78039731D01*
X124148203Y-77805963D01*
X123909758Y-77695066D01*
X123654260Y-77632817D01*
X123391527Y-77621610D01*
X123131656Y-77661875D01*
X122884634Y-77752065D01*
X122783797Y-77805963D01*
X122724336Y-78039731D01*
X121892706Y-78039731D01*
X121777013Y-77924038D01*
X121558359Y-77777939D01*
X121315405Y-77677304D01*
X121057486Y-77626000D01*
X120794514Y-77626000D01*
X120536595Y-77677304D01*
X120293641Y-77777939D01*
X120074987Y-77924038D01*
X119889038Y-78109987D01*
X119742939Y-78328641D01*
X119642304Y-78571595D01*
X119591000Y-78829514D01*
X108955454Y-78829514D01*
X108955454Y-78743533D01*
X108900307Y-78466294D01*
X108792134Y-78205141D01*
X108635091Y-77970109D01*
X108435213Y-77770231D01*
X108200181Y-77613188D01*
X107939028Y-77505015D01*
X107661789Y-77449868D01*
X107379119Y-77449868D01*
X107285036Y-77468582D01*
X106815417Y-76998964D01*
X106834132Y-76904881D01*
X106834132Y-76622211D01*
X106778985Y-76344972D01*
X106670812Y-76083819D01*
X106513769Y-75848787D01*
X106313891Y-75648909D01*
X106078859Y-75491866D01*
X105817706Y-75383693D01*
X105540467Y-75328546D01*
X105257797Y-75328546D01*
X104980558Y-75383693D01*
X104719405Y-75491866D01*
X104484373Y-75648909D01*
X104284495Y-75848787D01*
X104127452Y-76083819D01*
X104019279Y-76344972D01*
X103967595Y-76604802D01*
X103707765Y-76656486D01*
X103446612Y-76764659D01*
X103211580Y-76921702D01*
X103011702Y-77121580D01*
X102854659Y-77356612D01*
X102746486Y-77617765D01*
X102691339Y-77895004D01*
X78685000Y-77895004D01*
X78685000Y-76311000D01*
X81183928Y-76311000D01*
X81196188Y-76435482D01*
X81232498Y-76555180D01*
X81291463Y-76665494D01*
X81370815Y-76762185D01*
X81467506Y-76841537D01*
X81577820Y-76900502D01*
X81697518Y-76936812D01*
X81822000Y-76949072D01*
X82286250Y-76946000D01*
X82445000Y-76787250D01*
X82445000Y-75913000D01*
X82699000Y-75913000D01*
X82699000Y-76787250D01*
X82857750Y-76946000D01*
X83322000Y-76949072D01*
X83446482Y-76936812D01*
X83566180Y-76900502D01*
X83676494Y-76841537D01*
X83773185Y-76762185D01*
X83852537Y-76665494D01*
X83911502Y-76555180D01*
X83947812Y-76435482D01*
X83960072Y-76311000D01*
X83957000Y-76071750D01*
X83798250Y-75913000D01*
X82699000Y-75913000D01*
X82445000Y-75913000D01*
X81345750Y-75913000D01*
X81187000Y-76071750D01*
X81183928Y-76311000D01*
X78685000Y-76311000D01*
X78685000Y-73246000D01*
X81181388Y-73246000D01*
X81203785Y-73473400D01*
X81270115Y-73692060D01*
X81371105Y-73881000D01*
X81270115Y-74069940D01*
X81203785Y-74288600D01*
X81181388Y-74516000D01*
X81203785Y-74743400D01*
X81267093Y-74952098D01*
X81232498Y-75016820D01*
X81196188Y-75136518D01*
X81183928Y-75261000D01*
X81187000Y-75500250D01*
X81345750Y-75659000D01*
X82118891Y-75659000D01*
X82119600Y-75659215D01*
X82290021Y-75676000D01*
X82853979Y-75676000D01*
X83024400Y-75659215D01*
X83025109Y-75659000D01*
X83798250Y-75659000D01*
X83957000Y-75500250D01*
X83960072Y-75261000D01*
X83947812Y-75136518D01*
X83911502Y-75016820D01*
X83876907Y-74952098D01*
X83940215Y-74743400D01*
X83962612Y-74516000D01*
X83940215Y-74288600D01*
X83873885Y-74069940D01*
X83772895Y-73881000D01*
X83873885Y-73692060D01*
X83940215Y-73473400D01*
X83962612Y-73246000D01*
X83940215Y-73018600D01*
X83873885Y-72799940D01*
X83766171Y-72598421D01*
X83621212Y-72421788D01*
X83444579Y-72276829D01*
X83243060Y-72169115D01*
X83024400Y-72102785D01*
X82853979Y-72086000D01*
X82290021Y-72086000D01*
X82119600Y-72102785D01*
X81900940Y-72169115D01*
X81699421Y-72276829D01*
X81522788Y-72421788D01*
X81377829Y-72598421D01*
X81270115Y-72799940D01*
X81203785Y-73018600D01*
X81181388Y-73246000D01*
X78685000Y-73246000D01*
X78685000Y-72038576D01*
X88058560Y-72038576D01*
X88058560Y-72242454D01*
X88098334Y-72442413D01*
X88176355Y-72630771D01*
X88289623Y-72800289D01*
X88433786Y-72944452D01*
X88603304Y-73057720D01*
X88791662Y-73135741D01*
X88936784Y-73164607D01*
X89161608Y-73389431D01*
X89187754Y-73421291D01*
X89314899Y-73525636D01*
X89459958Y-73603172D01*
X89617356Y-73650918D01*
X89740026Y-73663000D01*
X89740027Y-73663000D01*
X89781045Y-73667040D01*
X89822063Y-73663000D01*
X92046607Y-73663000D01*
X92169636Y-73745205D01*
X92357994Y-73823226D01*
X92557953Y-73863000D01*
X92761831Y-73863000D01*
X92961790Y-73823226D01*
X93150148Y-73745205D01*
X93319666Y-73631937D01*
X93463829Y-73487774D01*
X93577097Y-73318256D01*
X93655118Y-73129898D01*
X93661110Y-73099775D01*
X93668898Y-73098226D01*
X93857256Y-73020205D01*
X94026774Y-72906937D01*
X94170937Y-72762774D01*
X94284205Y-72593256D01*
X94362226Y-72404898D01*
X94402000Y-72204939D01*
X94402000Y-72001061D01*
X94362226Y-71801102D01*
X94284205Y-71612744D01*
X94170937Y-71443226D01*
X94026774Y-71299063D01*
X93857256Y-71185795D01*
X93668898Y-71107774D01*
X93468939Y-71068000D01*
X93265061Y-71068000D01*
X93065102Y-71107774D01*
X92876744Y-71185795D01*
X92707226Y-71299063D01*
X92663289Y-71343000D01*
X92538802Y-71343000D01*
X92497000Y-71301198D01*
X92497000Y-71239061D01*
X92457226Y-71039102D01*
X92379205Y-70850744D01*
X92265937Y-70681226D01*
X92121774Y-70537063D01*
X91952256Y-70423795D01*
X91763898Y-70345774D01*
X91563939Y-70306000D01*
X91360061Y-70306000D01*
X91160102Y-70345774D01*
X90971744Y-70423795D01*
X90802226Y-70537063D01*
X90658063Y-70681226D01*
X90544795Y-70850744D01*
X90466774Y-71039102D01*
X90427000Y-71239061D01*
X90427000Y-71442939D01*
X90466774Y-71642898D01*
X90544795Y-71831256D01*
X90652869Y-71993000D01*
X90126913Y-71993000D01*
X90117652Y-71983739D01*
X90088786Y-71838617D01*
X90010765Y-71650259D01*
X89897497Y-71480741D01*
X89753334Y-71336578D01*
X89583816Y-71223310D01*
X89395458Y-71145289D01*
X89195499Y-71105515D01*
X88991621Y-71105515D01*
X88791662Y-71145289D01*
X88603304Y-71223310D01*
X88433786Y-71336578D01*
X88289623Y-71480741D01*
X88176355Y-71650259D01*
X88098334Y-71838617D01*
X88058560Y-72038576D01*
X78685000Y-72038576D01*
X78685000Y-65024872D01*
X78940000Y-65024872D01*
X78940000Y-65465128D01*
X79025890Y-65896925D01*
X79194369Y-66303669D01*
X79438962Y-66669729D01*
X79750271Y-66981038D01*
X80116331Y-67225631D01*
X80523075Y-67394110D01*
X80954872Y-67480000D01*
X81395128Y-67480000D01*
X81826925Y-67394110D01*
X82233669Y-67225631D01*
X82599729Y-66981038D01*
X82911038Y-66669729D01*
X83155631Y-66303669D01*
X83324110Y-65896925D01*
X83410000Y-65465128D01*
X83410000Y-65024872D01*
X83324110Y-64593075D01*
X83155631Y-64186331D01*
X82911038Y-63820271D01*
X82599729Y-63508962D01*
X82233669Y-63264369D01*
X81826925Y-63095890D01*
X81395128Y-63010000D01*
X80954872Y-63010000D01*
X80523075Y-63095890D01*
X80116331Y-63264369D01*
X79750271Y-63508962D01*
X79438962Y-63820271D01*
X79194369Y-64186331D01*
X79025890Y-64593075D01*
X78940000Y-65024872D01*
X78685000Y-65024872D01*
X78685000Y-62685000D01*
X85965918Y-62685000D01*
X85718662Y-62932256D01*
M02*
