G04 #@! TF.GenerationSoftware,KiCad,Pcbnew,(5.1.0-0)*
G04 #@! TF.CreationDate,2019-10-22T21:45:05+02:00*
G04 #@! TF.ProjectId,esp32,65737033-322e-46b6-9963-61645f706362,rev?*
G04 #@! TF.SameCoordinates,Original*
G04 #@! TF.FileFunction,Soldermask,Bot*
G04 #@! TF.FilePolarity,Negative*
%FSLAX46Y46*%
G04 Gerber Fmt 4.6, Leading zero omitted, Abs format (unit mm)*
G04 Created by KiCad (PCBNEW (5.1.0-0)) date 2019-10-22 21:45:05*
%MOMM*%
%LPD*%
G04 APERTURE LIST*
%ADD10C,0.100000*%
G04 APERTURE END LIST*
D10*
G36*
X160381703Y-132286486D02*
G01*
X160672883Y-132407097D01*
X160934940Y-132582198D01*
X161157802Y-132805060D01*
X161332903Y-133067117D01*
X161453514Y-133358297D01*
X161515000Y-133667412D01*
X161515000Y-133982588D01*
X161453514Y-134291703D01*
X161332903Y-134582883D01*
X161157802Y-134844940D01*
X160934940Y-135067802D01*
X160672883Y-135242903D01*
X160381703Y-135363514D01*
X160072588Y-135425000D01*
X159757412Y-135425000D01*
X159448297Y-135363514D01*
X159157117Y-135242903D01*
X158895060Y-135067802D01*
X158672198Y-134844940D01*
X158497097Y-134582883D01*
X158376486Y-134291703D01*
X158315000Y-133982588D01*
X158315000Y-133667412D01*
X158376486Y-133358297D01*
X158497097Y-133067117D01*
X158672198Y-132805060D01*
X158895060Y-132582198D01*
X159157117Y-132407097D01*
X159448297Y-132286486D01*
X159757412Y-132225000D01*
X160072588Y-132225000D01*
X160381703Y-132286486D01*
X160381703Y-132286486D01*
G37*
G36*
X81641703Y-132286486D02*
G01*
X81932883Y-132407097D01*
X82194940Y-132582198D01*
X82417802Y-132805060D01*
X82592903Y-133067117D01*
X82713514Y-133358297D01*
X82775000Y-133667412D01*
X82775000Y-133982588D01*
X82713514Y-134291703D01*
X82592903Y-134582883D01*
X82417802Y-134844940D01*
X82194940Y-135067802D01*
X81932883Y-135242903D01*
X81641703Y-135363514D01*
X81332588Y-135425000D01*
X81017412Y-135425000D01*
X80708297Y-135363514D01*
X80417117Y-135242903D01*
X80155060Y-135067802D01*
X79932198Y-134844940D01*
X79757097Y-134582883D01*
X79636486Y-134291703D01*
X79575000Y-133982588D01*
X79575000Y-133667412D01*
X79636486Y-133358297D01*
X79757097Y-133067117D01*
X79932198Y-132805060D01*
X80155060Y-132582198D01*
X80417117Y-132407097D01*
X80708297Y-132286486D01*
X81017412Y-132225000D01*
X81332588Y-132225000D01*
X81641703Y-132286486D01*
X81641703Y-132286486D01*
G37*
G36*
X88795891Y-123691205D02*
G01*
X88948202Y-123737408D01*
X89088565Y-123812433D01*
X89211597Y-123913403D01*
X89312567Y-124036435D01*
X89387592Y-124176798D01*
X89433795Y-124329109D01*
X89450000Y-124493640D01*
X89450000Y-126356360D01*
X89433795Y-126520891D01*
X89387592Y-126673202D01*
X89312567Y-126813565D01*
X89211597Y-126936597D01*
X89088565Y-127037567D01*
X88948202Y-127112592D01*
X88795891Y-127158795D01*
X88631360Y-127175000D01*
X86768640Y-127175000D01*
X86604109Y-127158795D01*
X86451798Y-127112592D01*
X86311435Y-127037567D01*
X86188403Y-126936597D01*
X86087433Y-126813565D01*
X86012408Y-126673202D01*
X85966205Y-126520891D01*
X85950000Y-126356360D01*
X85950000Y-124493640D01*
X85966205Y-124329109D01*
X86012408Y-124176798D01*
X86087433Y-124036435D01*
X86188403Y-123913403D01*
X86311435Y-123812433D01*
X86451798Y-123737408D01*
X86604109Y-123691205D01*
X86768640Y-123675000D01*
X88631360Y-123675000D01*
X88795891Y-123691205D01*
X88795891Y-123691205D01*
G37*
G36*
X85646505Y-118988803D02*
G01*
X85775366Y-119027893D01*
X85894117Y-119091367D01*
X85998209Y-119176791D01*
X86083633Y-119280883D01*
X86147107Y-119399634D01*
X86186197Y-119528495D01*
X86200000Y-119668640D01*
X86200000Y-121781360D01*
X86186197Y-121921505D01*
X86147107Y-122050366D01*
X86083633Y-122169117D01*
X85998209Y-122273209D01*
X85894117Y-122358633D01*
X85775366Y-122422107D01*
X85646505Y-122461197D01*
X85506360Y-122475000D01*
X83893640Y-122475000D01*
X83753495Y-122461197D01*
X83624634Y-122422107D01*
X83505883Y-122358633D01*
X83401791Y-122273209D01*
X83316367Y-122169117D01*
X83252893Y-122050366D01*
X83213803Y-121921505D01*
X83200000Y-121781360D01*
X83200000Y-119668640D01*
X83213803Y-119528495D01*
X83252893Y-119399634D01*
X83316367Y-119280883D01*
X83401791Y-119176791D01*
X83505883Y-119091367D01*
X83624634Y-119027893D01*
X83753495Y-118988803D01*
X83893640Y-118975000D01*
X85506360Y-118975000D01*
X85646505Y-118988803D01*
X85646505Y-118988803D01*
G37*
G36*
X92450000Y-122475000D02*
G01*
X88950000Y-122475000D01*
X88950000Y-118975000D01*
X92450000Y-118975000D01*
X92450000Y-122475000D01*
X92450000Y-122475000D01*
G37*
G36*
X150499837Y-114827958D02*
G01*
X150580638Y-114835916D01*
X150734034Y-114882449D01*
X150787992Y-114898817D01*
X150979084Y-115000957D01*
X151146581Y-115138419D01*
X151284043Y-115305916D01*
X151386183Y-115497008D01*
X151386184Y-115497012D01*
X151449084Y-115704362D01*
X151470322Y-115920000D01*
X151449084Y-116135638D01*
X151402551Y-116289034D01*
X151386183Y-116342992D01*
X151284043Y-116534084D01*
X151146581Y-116701581D01*
X150979084Y-116839043D01*
X150787992Y-116941183D01*
X150734034Y-116957551D01*
X150580638Y-117004084D01*
X150499837Y-117012042D01*
X150419038Y-117020000D01*
X148510962Y-117020000D01*
X148430163Y-117012042D01*
X148349362Y-117004084D01*
X148195966Y-116957551D01*
X148142008Y-116941183D01*
X147950916Y-116839043D01*
X147783419Y-116701581D01*
X147645957Y-116534084D01*
X147543817Y-116342992D01*
X147527449Y-116289034D01*
X147480916Y-116135638D01*
X147459678Y-115920000D01*
X147480916Y-115704362D01*
X147543816Y-115497012D01*
X147543817Y-115497008D01*
X147645957Y-115305916D01*
X147783419Y-115138419D01*
X147950916Y-115000957D01*
X148142008Y-114898817D01*
X148195966Y-114882449D01*
X148349362Y-114835916D01*
X148430163Y-114827958D01*
X148510962Y-114820000D01*
X150419038Y-114820000D01*
X150499837Y-114827958D01*
X150499837Y-114827958D01*
G37*
G36*
X151699837Y-112127958D02*
G01*
X151780638Y-112135916D01*
X151934034Y-112182449D01*
X151987992Y-112198817D01*
X152179084Y-112300957D01*
X152346581Y-112438419D01*
X152484043Y-112605916D01*
X152586183Y-112797008D01*
X152586184Y-112797012D01*
X152649084Y-113004362D01*
X152670322Y-113220000D01*
X152649084Y-113435638D01*
X152602551Y-113589034D01*
X152586183Y-113642992D01*
X152484043Y-113834084D01*
X152346581Y-114001581D01*
X152179084Y-114139043D01*
X151987992Y-114241183D01*
X151934034Y-114257551D01*
X151780638Y-114304084D01*
X151699837Y-114312042D01*
X151619038Y-114320000D01*
X149710962Y-114320000D01*
X149630163Y-114312042D01*
X149549362Y-114304084D01*
X149395966Y-114257551D01*
X149342008Y-114241183D01*
X149150916Y-114139043D01*
X148983419Y-114001581D01*
X148845957Y-113834084D01*
X148743817Y-113642992D01*
X148727449Y-113589034D01*
X148680916Y-113435638D01*
X148659678Y-113220000D01*
X148680916Y-113004362D01*
X148743816Y-112797012D01*
X148743817Y-112797008D01*
X148845957Y-112605916D01*
X148983419Y-112438419D01*
X149150916Y-112300957D01*
X149342008Y-112198817D01*
X149395966Y-112182449D01*
X149549362Y-112135916D01*
X149630163Y-112127958D01*
X149710962Y-112120000D01*
X151619038Y-112120000D01*
X151699837Y-112127958D01*
X151699837Y-112127958D01*
G37*
G36*
X139048000Y-113212000D02*
G01*
X137348000Y-113212000D01*
X137348000Y-111512000D01*
X139048000Y-111512000D01*
X139048000Y-113212000D01*
X139048000Y-113212000D01*
G37*
G36*
X157680638Y-108735916D02*
G01*
X157834034Y-108782449D01*
X157887992Y-108798817D01*
X158079084Y-108900957D01*
X158246581Y-109038419D01*
X158384043Y-109205916D01*
X158486183Y-109397008D01*
X158502551Y-109450966D01*
X158549084Y-109604362D01*
X158565000Y-109765964D01*
X158565000Y-111674036D01*
X158549084Y-111835638D01*
X158502551Y-111989034D01*
X158486183Y-112042992D01*
X158384043Y-112234084D01*
X158329161Y-112300957D01*
X158246581Y-112401581D01*
X158079084Y-112539042D01*
X158079080Y-112539044D01*
X158079079Y-112539045D01*
X157887991Y-112641183D01*
X157834033Y-112657551D01*
X157680637Y-112704084D01*
X157465000Y-112725322D01*
X157249362Y-112704084D01*
X157095966Y-112657551D01*
X157042008Y-112641183D01*
X156850916Y-112539043D01*
X156728306Y-112438419D01*
X156683419Y-112401581D01*
X156545958Y-112234084D01*
X156545955Y-112234079D01*
X156443817Y-112042991D01*
X156427449Y-111989033D01*
X156380916Y-111835637D01*
X156365000Y-111674035D01*
X156365000Y-109765964D01*
X156380917Y-109604362D01*
X156427450Y-109450966D01*
X156443818Y-109397008D01*
X156545958Y-109205916D01*
X156683420Y-109038419D01*
X156850917Y-108900957D01*
X157042009Y-108798817D01*
X157095967Y-108782449D01*
X157249363Y-108735916D01*
X157465000Y-108714678D01*
X157680638Y-108735916D01*
X157680638Y-108735916D01*
G37*
G36*
X85937022Y-108966224D02*
G01*
X86093995Y-108997448D01*
X86389726Y-109119943D01*
X86655877Y-109297780D01*
X86882220Y-109524123D01*
X87060057Y-109790274D01*
X87182552Y-110086005D01*
X87245000Y-110399951D01*
X87245000Y-110720049D01*
X87182552Y-111033995D01*
X87060057Y-111329726D01*
X86882220Y-111595877D01*
X86655877Y-111822220D01*
X86389726Y-112000057D01*
X86093995Y-112122552D01*
X85937022Y-112153776D01*
X85780050Y-112185000D01*
X85459950Y-112185000D01*
X85302978Y-112153776D01*
X85146005Y-112122552D01*
X84850274Y-112000057D01*
X84584123Y-111822220D01*
X84357780Y-111595877D01*
X84179943Y-111329726D01*
X84057448Y-111033995D01*
X83995000Y-110720049D01*
X83995000Y-110399951D01*
X84057448Y-110086005D01*
X84179943Y-109790274D01*
X84357780Y-109524123D01*
X84584123Y-109297780D01*
X84850274Y-109119943D01*
X85146005Y-108997448D01*
X85302978Y-108966224D01*
X85459950Y-108935000D01*
X85780050Y-108935000D01*
X85937022Y-108966224D01*
X85937022Y-108966224D01*
G37*
G36*
X138364627Y-108984299D02*
G01*
X138444742Y-109008602D01*
X138524855Y-109032903D01*
X138524857Y-109032904D01*
X138672518Y-109111831D01*
X138801949Y-109218051D01*
X138908169Y-109347482D01*
X138987096Y-109495143D01*
X139035701Y-109655373D01*
X139052112Y-109822000D01*
X139035701Y-109988627D01*
X138987096Y-110148857D01*
X138908169Y-110296518D01*
X138801949Y-110425949D01*
X138672518Y-110532169D01*
X138524857Y-110611096D01*
X138524855Y-110611097D01*
X138444742Y-110635398D01*
X138364627Y-110659701D01*
X138239752Y-110672000D01*
X138156248Y-110672000D01*
X138031373Y-110659701D01*
X137951258Y-110635398D01*
X137871145Y-110611097D01*
X137871143Y-110611096D01*
X137723482Y-110532169D01*
X137594051Y-110425949D01*
X137487831Y-110296518D01*
X137408904Y-110148857D01*
X137360299Y-109988627D01*
X137343888Y-109822000D01*
X137360299Y-109655373D01*
X137408904Y-109495143D01*
X137487831Y-109347482D01*
X137594051Y-109218051D01*
X137723482Y-109111831D01*
X137871143Y-109032904D01*
X137871145Y-109032903D01*
X137951258Y-109008602D01*
X138031373Y-108984299D01*
X138156248Y-108972000D01*
X138239752Y-108972000D01*
X138364627Y-108984299D01*
X138364627Y-108984299D01*
G37*
G36*
X92191683Y-107929206D02*
G01*
X92329996Y-107986497D01*
X92454469Y-108069667D01*
X92560333Y-108175531D01*
X92643503Y-108300004D01*
X92700794Y-108438317D01*
X92730000Y-108585145D01*
X92730000Y-108734855D01*
X92700794Y-108881683D01*
X92643503Y-109019996D01*
X92560333Y-109144469D01*
X92454469Y-109250333D01*
X92329996Y-109333503D01*
X92191683Y-109390794D01*
X92044855Y-109420000D01*
X91895145Y-109420000D01*
X91748317Y-109390794D01*
X91610004Y-109333503D01*
X91485531Y-109250333D01*
X91379667Y-109144469D01*
X91296497Y-109019996D01*
X91239206Y-108881683D01*
X91210000Y-108734855D01*
X91210000Y-108585145D01*
X91239206Y-108438317D01*
X91296497Y-108300004D01*
X91379667Y-108175531D01*
X91485531Y-108069667D01*
X91610004Y-107986497D01*
X91748317Y-107929206D01*
X91895145Y-107900000D01*
X92044855Y-107900000D01*
X92191683Y-107929206D01*
X92191683Y-107929206D01*
G37*
G36*
X101766627Y-107542299D02*
G01*
X101846742Y-107566602D01*
X101926855Y-107590903D01*
X101926857Y-107590904D01*
X102074518Y-107669831D01*
X102203949Y-107776051D01*
X102310169Y-107905482D01*
X102356504Y-107992168D01*
X102389097Y-108053145D01*
X102409286Y-108119700D01*
X102437701Y-108213373D01*
X102454112Y-108380000D01*
X102437701Y-108546627D01*
X102389096Y-108706857D01*
X102310169Y-108854518D01*
X102203949Y-108983949D01*
X102074518Y-109090169D01*
X101972925Y-109144472D01*
X101926855Y-109169097D01*
X101846742Y-109193398D01*
X101766627Y-109217701D01*
X101641752Y-109230000D01*
X101558248Y-109230000D01*
X101433373Y-109217701D01*
X101353258Y-109193398D01*
X101273145Y-109169097D01*
X101227075Y-109144472D01*
X101125482Y-109090169D01*
X100996051Y-108983949D01*
X100889831Y-108854518D01*
X100810904Y-108706857D01*
X100762299Y-108546627D01*
X100745888Y-108380000D01*
X100762299Y-108213373D01*
X100790714Y-108119700D01*
X100810903Y-108053145D01*
X100843496Y-107992168D01*
X100889831Y-107905482D01*
X100996051Y-107776051D01*
X101125482Y-107669831D01*
X101273143Y-107590904D01*
X101273145Y-107590903D01*
X101353258Y-107566602D01*
X101433373Y-107542299D01*
X101558248Y-107530000D01*
X101641752Y-107530000D01*
X101766627Y-107542299D01*
X101766627Y-107542299D01*
G37*
G36*
X146480638Y-104635916D02*
G01*
X146634034Y-104682449D01*
X146687992Y-104698817D01*
X146879084Y-104800957D01*
X147046581Y-104938419D01*
X147184043Y-105105916D01*
X147286183Y-105297008D01*
X147286184Y-105297012D01*
X147349084Y-105504362D01*
X147351717Y-105531096D01*
X147362003Y-105635528D01*
X147365000Y-105665964D01*
X147365000Y-107574036D01*
X147349084Y-107735638D01*
X147336824Y-107776052D01*
X147286183Y-107942992D01*
X147184043Y-108134084D01*
X147090023Y-108248646D01*
X147046581Y-108301581D01*
X146879084Y-108439042D01*
X146879080Y-108439044D01*
X146879079Y-108439045D01*
X146687991Y-108541183D01*
X146670038Y-108546629D01*
X146480637Y-108604084D01*
X146265000Y-108625322D01*
X146049362Y-108604084D01*
X145859961Y-108546629D01*
X145842008Y-108541183D01*
X145650916Y-108439043D01*
X145536354Y-108345023D01*
X145483419Y-108301581D01*
X145345958Y-108134084D01*
X145338270Y-108119701D01*
X145243817Y-107942991D01*
X145187251Y-107756519D01*
X145180916Y-107735637D01*
X145168708Y-107611683D01*
X145165000Y-107574037D01*
X145165000Y-105665963D01*
X145173389Y-105580793D01*
X145180917Y-105504362D01*
X145243817Y-105297012D01*
X145243818Y-105297008D01*
X145345958Y-105105916D01*
X145483420Y-104938419D01*
X145650917Y-104800957D01*
X145842009Y-104698817D01*
X145895967Y-104682449D01*
X146049363Y-104635916D01*
X146265000Y-104614678D01*
X146480638Y-104635916D01*
X146480638Y-104635916D01*
G37*
G36*
X94731683Y-106659206D02*
G01*
X94869996Y-106716497D01*
X94994469Y-106799667D01*
X95100333Y-106905531D01*
X95183503Y-107030004D01*
X95240794Y-107168317D01*
X95270000Y-107315145D01*
X95270000Y-107464855D01*
X95240794Y-107611683D01*
X95183503Y-107749996D01*
X95100333Y-107874469D01*
X94994469Y-107980333D01*
X94869996Y-108063503D01*
X94731683Y-108120794D01*
X94584855Y-108150000D01*
X94435145Y-108150000D01*
X94288317Y-108120794D01*
X94150004Y-108063503D01*
X94025531Y-107980333D01*
X93919667Y-107874469D01*
X93836497Y-107749996D01*
X93779206Y-107611683D01*
X93750000Y-107464855D01*
X93750000Y-107315145D01*
X93779206Y-107168317D01*
X93836497Y-107030004D01*
X93919667Y-106905531D01*
X94025531Y-106799667D01*
X94150004Y-106716497D01*
X94288317Y-106659206D01*
X94435145Y-106630000D01*
X94584855Y-106630000D01*
X94731683Y-106659206D01*
X94731683Y-106659206D01*
G37*
G36*
X138364627Y-106444299D02*
G01*
X138444742Y-106468602D01*
X138524855Y-106492903D01*
X138524857Y-106492904D01*
X138672518Y-106571831D01*
X138801949Y-106678051D01*
X138908169Y-106807482D01*
X138987096Y-106955143D01*
X139035701Y-107115373D01*
X139052112Y-107282000D01*
X139035701Y-107448627D01*
X139035700Y-107448629D01*
X138992543Y-107590903D01*
X138987096Y-107608857D01*
X138908169Y-107756518D01*
X138801949Y-107885949D01*
X138672518Y-107992169D01*
X138539062Y-108063503D01*
X138524855Y-108071097D01*
X138444742Y-108095399D01*
X138364627Y-108119701D01*
X138239752Y-108132000D01*
X138156248Y-108132000D01*
X138031373Y-108119701D01*
X137951258Y-108095399D01*
X137871145Y-108071097D01*
X137856938Y-108063503D01*
X137723482Y-107992169D01*
X137594051Y-107885949D01*
X137487831Y-107756518D01*
X137408904Y-107608857D01*
X137403458Y-107590903D01*
X137360300Y-107448629D01*
X137360299Y-107448627D01*
X137343888Y-107282000D01*
X137360299Y-107115373D01*
X137408904Y-106955143D01*
X137487831Y-106807482D01*
X137594051Y-106678051D01*
X137723482Y-106571831D01*
X137871143Y-106492904D01*
X137871145Y-106492903D01*
X137951258Y-106468602D01*
X138031373Y-106444299D01*
X138156248Y-106432000D01*
X138239752Y-106432000D01*
X138364627Y-106444299D01*
X138364627Y-106444299D01*
G37*
G36*
X155565000Y-107220000D02*
G01*
X151565000Y-107220000D01*
X151565000Y-105020000D01*
X155565000Y-105020000D01*
X155565000Y-107220000D01*
X155565000Y-107220000D01*
G37*
G36*
X92191683Y-105389206D02*
G01*
X92329996Y-105446497D01*
X92454469Y-105529667D01*
X92560333Y-105635531D01*
X92643503Y-105760004D01*
X92700794Y-105898317D01*
X92730000Y-106045145D01*
X92730000Y-106194855D01*
X92700794Y-106341683D01*
X92643503Y-106479996D01*
X92560333Y-106604469D01*
X92454469Y-106710333D01*
X92329996Y-106793503D01*
X92191683Y-106850794D01*
X92044855Y-106880000D01*
X91895145Y-106880000D01*
X91748317Y-106850794D01*
X91610004Y-106793503D01*
X91485531Y-106710333D01*
X91379667Y-106604469D01*
X91296497Y-106479996D01*
X91239206Y-106341683D01*
X91210000Y-106194855D01*
X91210000Y-106045145D01*
X91239206Y-105898317D01*
X91296497Y-105760004D01*
X91379667Y-105635531D01*
X91485531Y-105529667D01*
X91610004Y-105446497D01*
X91748317Y-105389206D01*
X91895145Y-105360000D01*
X92044855Y-105360000D01*
X92191683Y-105389206D01*
X92191683Y-105389206D01*
G37*
G36*
X101766627Y-105002299D02*
G01*
X101846742Y-105026601D01*
X101926855Y-105050903D01*
X101926857Y-105050904D01*
X102074518Y-105129831D01*
X102203949Y-105236051D01*
X102310169Y-105365482D01*
X102356504Y-105452168D01*
X102389097Y-105513145D01*
X102397160Y-105539726D01*
X102437701Y-105673373D01*
X102454112Y-105840000D01*
X102437701Y-106006627D01*
X102389096Y-106166857D01*
X102310169Y-106314518D01*
X102203949Y-106443949D01*
X102074518Y-106550169D01*
X101972925Y-106604472D01*
X101926855Y-106629097D01*
X101846742Y-106653398D01*
X101766627Y-106677701D01*
X101641752Y-106690000D01*
X101558248Y-106690000D01*
X101433373Y-106677701D01*
X101353258Y-106653398D01*
X101273145Y-106629097D01*
X101227075Y-106604472D01*
X101125482Y-106550169D01*
X100996051Y-106443949D01*
X100889831Y-106314518D01*
X100810904Y-106166857D01*
X100762299Y-106006627D01*
X100745888Y-105840000D01*
X100762299Y-105673373D01*
X100802840Y-105539726D01*
X100810903Y-105513145D01*
X100843496Y-105452168D01*
X100889831Y-105365482D01*
X100996051Y-105236051D01*
X101125482Y-105129831D01*
X101273143Y-105050904D01*
X101273145Y-105050903D01*
X101353258Y-105026601D01*
X101433373Y-105002299D01*
X101558248Y-104990000D01*
X101641752Y-104990000D01*
X101766627Y-105002299D01*
X101766627Y-105002299D01*
G37*
G36*
X142974182Y-104322900D02*
G01*
X143101573Y-104375667D01*
X143101574Y-104375668D01*
X143216224Y-104452274D01*
X143313726Y-104549776D01*
X143313727Y-104549778D01*
X143390333Y-104664427D01*
X143443100Y-104791818D01*
X143470000Y-104927055D01*
X143470000Y-105064945D01*
X143443100Y-105200182D01*
X143390333Y-105327573D01*
X143368666Y-105360000D01*
X143313726Y-105442224D01*
X143216224Y-105539726D01*
X143158510Y-105578289D01*
X143101573Y-105616333D01*
X142974182Y-105669100D01*
X142838945Y-105696000D01*
X142701055Y-105696000D01*
X142565818Y-105669100D01*
X142438427Y-105616333D01*
X142381490Y-105578289D01*
X142323776Y-105539726D01*
X142226274Y-105442224D01*
X142171334Y-105360000D01*
X142149667Y-105327573D01*
X142096900Y-105200182D01*
X142070000Y-105064945D01*
X142070000Y-104927055D01*
X142096900Y-104791818D01*
X142149667Y-104664427D01*
X142226273Y-104549778D01*
X142226274Y-104549776D01*
X142323776Y-104452274D01*
X142438426Y-104375668D01*
X142438427Y-104375667D01*
X142565818Y-104322900D01*
X142701055Y-104296000D01*
X142838945Y-104296000D01*
X142974182Y-104322900D01*
X142974182Y-104322900D01*
G37*
G36*
X94731683Y-104119206D02*
G01*
X94869996Y-104176497D01*
X94994469Y-104259667D01*
X95100333Y-104365531D01*
X95183503Y-104490004D01*
X95240794Y-104628317D01*
X95270000Y-104775145D01*
X95270000Y-104924855D01*
X95240794Y-105071683D01*
X95183503Y-105209996D01*
X95100333Y-105334469D01*
X94994469Y-105440333D01*
X94869996Y-105523503D01*
X94731683Y-105580794D01*
X94584855Y-105610000D01*
X94435145Y-105610000D01*
X94288317Y-105580794D01*
X94150004Y-105523503D01*
X94025531Y-105440333D01*
X93919667Y-105334469D01*
X93836497Y-105209996D01*
X93779206Y-105071683D01*
X93750000Y-104924855D01*
X93750000Y-104775145D01*
X93779206Y-104628317D01*
X93836497Y-104490004D01*
X93919667Y-104365531D01*
X94025531Y-104259667D01*
X94150004Y-104176497D01*
X94288317Y-104119206D01*
X94435145Y-104090000D01*
X94584855Y-104090000D01*
X94731683Y-104119206D01*
X94731683Y-104119206D01*
G37*
G36*
X138364627Y-103904299D02*
G01*
X138444742Y-103928601D01*
X138524855Y-103952903D01*
X138524857Y-103952904D01*
X138672518Y-104031831D01*
X138801949Y-104138051D01*
X138908169Y-104267482D01*
X138987096Y-104415143D01*
X139035701Y-104575373D01*
X139052112Y-104742000D01*
X139035701Y-104908627D01*
X139011398Y-104988742D01*
X138992543Y-105050903D01*
X138987096Y-105068857D01*
X138908169Y-105216518D01*
X138801949Y-105345949D01*
X138672518Y-105452169D01*
X138539062Y-105523503D01*
X138524855Y-105531097D01*
X138444742Y-105555399D01*
X138364627Y-105579701D01*
X138239752Y-105592000D01*
X138156248Y-105592000D01*
X138031373Y-105579701D01*
X137951258Y-105555399D01*
X137871145Y-105531097D01*
X137856938Y-105523503D01*
X137723482Y-105452169D01*
X137594051Y-105345949D01*
X137487831Y-105216518D01*
X137408904Y-105068857D01*
X137403458Y-105050903D01*
X137384602Y-104988742D01*
X137360299Y-104908627D01*
X137343888Y-104742000D01*
X137360299Y-104575373D01*
X137408904Y-104415143D01*
X137487831Y-104267482D01*
X137594051Y-104138051D01*
X137723482Y-104031831D01*
X137871143Y-103952904D01*
X137871145Y-103952903D01*
X137951258Y-103928601D01*
X138031373Y-103904299D01*
X138156248Y-103892000D01*
X138239752Y-103892000D01*
X138364627Y-103904299D01*
X138364627Y-103904299D01*
G37*
G36*
X92191683Y-102849206D02*
G01*
X92329996Y-102906497D01*
X92454469Y-102989667D01*
X92560333Y-103095531D01*
X92643503Y-103220004D01*
X92700794Y-103358317D01*
X92730000Y-103505145D01*
X92730000Y-103654855D01*
X92700794Y-103801683D01*
X92643503Y-103939996D01*
X92560333Y-104064469D01*
X92454469Y-104170333D01*
X92329996Y-104253503D01*
X92191683Y-104310794D01*
X92044855Y-104340000D01*
X91895145Y-104340000D01*
X91748317Y-104310794D01*
X91610004Y-104253503D01*
X91485531Y-104170333D01*
X91379667Y-104064469D01*
X91296497Y-103939996D01*
X91239206Y-103801683D01*
X91210000Y-103654855D01*
X91210000Y-103505145D01*
X91239206Y-103358317D01*
X91296497Y-103220004D01*
X91379667Y-103095531D01*
X91485531Y-102989667D01*
X91610004Y-102906497D01*
X91748317Y-102849206D01*
X91895145Y-102820000D01*
X92044855Y-102820000D01*
X92191683Y-102849206D01*
X92191683Y-102849206D01*
G37*
G36*
X102450000Y-104150000D02*
G01*
X100750000Y-104150000D01*
X100750000Y-102450000D01*
X102450000Y-102450000D01*
X102450000Y-104150000D01*
X102450000Y-104150000D01*
G37*
G36*
X142974182Y-101782900D02*
G01*
X143101573Y-101835667D01*
X143101574Y-101835668D01*
X143216224Y-101912274D01*
X143313726Y-102009776D01*
X143313727Y-102009778D01*
X143390333Y-102124427D01*
X143443100Y-102251818D01*
X143470000Y-102387055D01*
X143470000Y-102524945D01*
X143443100Y-102660182D01*
X143390333Y-102787573D01*
X143368666Y-102820000D01*
X143313726Y-102902224D01*
X143216224Y-102999726D01*
X143158510Y-103038289D01*
X143101573Y-103076333D01*
X142974182Y-103129100D01*
X142838945Y-103156000D01*
X142701055Y-103156000D01*
X142565818Y-103129100D01*
X142438427Y-103076333D01*
X142381490Y-103038289D01*
X142323776Y-102999726D01*
X142226274Y-102902224D01*
X142171334Y-102820000D01*
X142149667Y-102787573D01*
X142096900Y-102660182D01*
X142070000Y-102524945D01*
X142070000Y-102387055D01*
X142096900Y-102251818D01*
X142149667Y-102124427D01*
X142226273Y-102009778D01*
X142226274Y-102009776D01*
X142323776Y-101912274D01*
X142438426Y-101835668D01*
X142438427Y-101835667D01*
X142565818Y-101782900D01*
X142701055Y-101756000D01*
X142838945Y-101756000D01*
X142974182Y-101782900D01*
X142974182Y-101782900D01*
G37*
G36*
X95270000Y-103070000D02*
G01*
X93750000Y-103070000D01*
X93750000Y-101550000D01*
X95270000Y-101550000D01*
X95270000Y-103070000D01*
X95270000Y-103070000D01*
G37*
G36*
X138364627Y-101364299D02*
G01*
X138444742Y-101388601D01*
X138524855Y-101412903D01*
X138524857Y-101412904D01*
X138672518Y-101491831D01*
X138801949Y-101598051D01*
X138908169Y-101727482D01*
X138987096Y-101875143D01*
X139035701Y-102035373D01*
X139052112Y-102202000D01*
X139035701Y-102368627D01*
X138987096Y-102528857D01*
X138908169Y-102676518D01*
X138801949Y-102805949D01*
X138672518Y-102912169D01*
X138527530Y-102989667D01*
X138524855Y-102991097D01*
X138444742Y-103015398D01*
X138364627Y-103039701D01*
X138239752Y-103052000D01*
X138156248Y-103052000D01*
X138031373Y-103039701D01*
X137951258Y-103015398D01*
X137871145Y-102991097D01*
X137868470Y-102989667D01*
X137723482Y-102912169D01*
X137594051Y-102805949D01*
X137487831Y-102676518D01*
X137408904Y-102528857D01*
X137360299Y-102368627D01*
X137343888Y-102202000D01*
X137360299Y-102035373D01*
X137408904Y-101875143D01*
X137487831Y-101727482D01*
X137594051Y-101598051D01*
X137723482Y-101491831D01*
X137871143Y-101412904D01*
X137871145Y-101412903D01*
X137951258Y-101388601D01*
X138031373Y-101364299D01*
X138156248Y-101352000D01*
X138239752Y-101352000D01*
X138364627Y-101364299D01*
X138364627Y-101364299D01*
G37*
G36*
X85937022Y-98806224D02*
G01*
X86093995Y-98837448D01*
X86389726Y-98959943D01*
X86655877Y-99137780D01*
X86882220Y-99364123D01*
X87060057Y-99630274D01*
X87182552Y-99926005D01*
X87245000Y-100239951D01*
X87245000Y-100560049D01*
X87182552Y-100873995D01*
X87060057Y-101169726D01*
X86882220Y-101435877D01*
X86655877Y-101662220D01*
X86389726Y-101840057D01*
X86093995Y-101962552D01*
X85937022Y-101993776D01*
X85780050Y-102025000D01*
X85459950Y-102025000D01*
X85302978Y-101993776D01*
X85146005Y-101962552D01*
X84850274Y-101840057D01*
X84584123Y-101662220D01*
X84357780Y-101435877D01*
X84179943Y-101169726D01*
X84057448Y-100873995D01*
X83995000Y-100560049D01*
X83995000Y-100239951D01*
X84057448Y-99926005D01*
X84179943Y-99630274D01*
X84357780Y-99364123D01*
X84584123Y-99137780D01*
X84850274Y-98959943D01*
X85146005Y-98837448D01*
X85302978Y-98806224D01*
X85459950Y-98775000D01*
X85780050Y-98775000D01*
X85937022Y-98806224D01*
X85937022Y-98806224D01*
G37*
G36*
X150499837Y-98952958D02*
G01*
X150580638Y-98960916D01*
X150734034Y-99007449D01*
X150787992Y-99023817D01*
X150979084Y-99125957D01*
X151146581Y-99263419D01*
X151284043Y-99430916D01*
X151386183Y-99622008D01*
X151386184Y-99622012D01*
X151449084Y-99829362D01*
X151470322Y-100045000D01*
X151449084Y-100260638D01*
X151415251Y-100372168D01*
X151386183Y-100467992D01*
X151284043Y-100659084D01*
X151146581Y-100826581D01*
X150979084Y-100964043D01*
X150787992Y-101066183D01*
X150734034Y-101082551D01*
X150580638Y-101129084D01*
X150499837Y-101137042D01*
X150419038Y-101145000D01*
X148510962Y-101145000D01*
X148430163Y-101137042D01*
X148349362Y-101129084D01*
X148195966Y-101082551D01*
X148142008Y-101066183D01*
X147950916Y-100964043D01*
X147783419Y-100826581D01*
X147645957Y-100659084D01*
X147543817Y-100467992D01*
X147514749Y-100372168D01*
X147480916Y-100260638D01*
X147459678Y-100045000D01*
X147480916Y-99829362D01*
X147543816Y-99622012D01*
X147543817Y-99622008D01*
X147645957Y-99430916D01*
X147783419Y-99263419D01*
X147950916Y-99125957D01*
X148142008Y-99023817D01*
X148195966Y-99007449D01*
X148349362Y-98960916D01*
X148430163Y-98952958D01*
X148510962Y-98945000D01*
X150419038Y-98945000D01*
X150499837Y-98952958D01*
X150499837Y-98952958D01*
G37*
G36*
X138364627Y-98824299D02*
G01*
X138444742Y-98848602D01*
X138524855Y-98872903D01*
X138524857Y-98872904D01*
X138672518Y-98951831D01*
X138801949Y-99058051D01*
X138908169Y-99187482D01*
X138987096Y-99335143D01*
X139035701Y-99495373D01*
X139052112Y-99662000D01*
X139035701Y-99828627D01*
X138987096Y-99988857D01*
X138908169Y-100136518D01*
X138801949Y-100265949D01*
X138672518Y-100372169D01*
X138524857Y-100451096D01*
X138524855Y-100451097D01*
X138469158Y-100467992D01*
X138364627Y-100499701D01*
X138239752Y-100512000D01*
X138156248Y-100512000D01*
X138031373Y-100499701D01*
X137926842Y-100467992D01*
X137871145Y-100451097D01*
X137871143Y-100451096D01*
X137723482Y-100372169D01*
X137594051Y-100265949D01*
X137487831Y-100136518D01*
X137408904Y-99988857D01*
X137360299Y-99828627D01*
X137343888Y-99662000D01*
X137360299Y-99495373D01*
X137408904Y-99335143D01*
X137487831Y-99187482D01*
X137594051Y-99058051D01*
X137723482Y-98951831D01*
X137871143Y-98872904D01*
X137871145Y-98872903D01*
X137951258Y-98848602D01*
X138031373Y-98824299D01*
X138156248Y-98812000D01*
X138239752Y-98812000D01*
X138364627Y-98824299D01*
X138364627Y-98824299D01*
G37*
G36*
X151699837Y-96252958D02*
G01*
X151780638Y-96260916D01*
X151934034Y-96307449D01*
X151987992Y-96323817D01*
X152179084Y-96425957D01*
X152346581Y-96563419D01*
X152484043Y-96730916D01*
X152586183Y-96922008D01*
X152586184Y-96922012D01*
X152649084Y-97129362D01*
X152670322Y-97345000D01*
X152649084Y-97560638D01*
X152638199Y-97596519D01*
X152586183Y-97767992D01*
X152484043Y-97959084D01*
X152346581Y-98126581D01*
X152179084Y-98264043D01*
X151987992Y-98366183D01*
X151934034Y-98382551D01*
X151780638Y-98429084D01*
X151699837Y-98437042D01*
X151619038Y-98445000D01*
X149710962Y-98445000D01*
X149630163Y-98437042D01*
X149549362Y-98429084D01*
X149395966Y-98382551D01*
X149342008Y-98366183D01*
X149150916Y-98264043D01*
X148983419Y-98126581D01*
X148845957Y-97959084D01*
X148743817Y-97767992D01*
X148691801Y-97596519D01*
X148680916Y-97560638D01*
X148659678Y-97345000D01*
X148680916Y-97129362D01*
X148743816Y-96922012D01*
X148743817Y-96922008D01*
X148845957Y-96730916D01*
X148983419Y-96563419D01*
X149150916Y-96425957D01*
X149342008Y-96323817D01*
X149395966Y-96307449D01*
X149549362Y-96260916D01*
X149630163Y-96252958D01*
X149710962Y-96245000D01*
X151619038Y-96245000D01*
X151699837Y-96252958D01*
X151699837Y-96252958D01*
G37*
G36*
X138364627Y-96284299D02*
G01*
X138444742Y-96308602D01*
X138524855Y-96332903D01*
X138524857Y-96332904D01*
X138672518Y-96411831D01*
X138801949Y-96518051D01*
X138908169Y-96647482D01*
X138987096Y-96795143D01*
X139035701Y-96955373D01*
X139052112Y-97122000D01*
X139035701Y-97288627D01*
X138987096Y-97448857D01*
X138908169Y-97596518D01*
X138801949Y-97725949D01*
X138672518Y-97832169D01*
X138524857Y-97911096D01*
X138524855Y-97911097D01*
X138444742Y-97935398D01*
X138364627Y-97959701D01*
X138239752Y-97972000D01*
X138156248Y-97972000D01*
X138031373Y-97959701D01*
X137951258Y-97935398D01*
X137871145Y-97911097D01*
X137871143Y-97911096D01*
X137723482Y-97832169D01*
X137594051Y-97725949D01*
X137487831Y-97596518D01*
X137408904Y-97448857D01*
X137360299Y-97288627D01*
X137343888Y-97122000D01*
X137360299Y-96955373D01*
X137408904Y-96795143D01*
X137487831Y-96647482D01*
X137594051Y-96518051D01*
X137723482Y-96411831D01*
X137871143Y-96332904D01*
X137871145Y-96332903D01*
X137951258Y-96308602D01*
X138031373Y-96284299D01*
X138156248Y-96272000D01*
X138239752Y-96272000D01*
X138364627Y-96284299D01*
X138364627Y-96284299D01*
G37*
G36*
X142974182Y-95940900D02*
G01*
X143101573Y-95993667D01*
X143101574Y-95993668D01*
X143216224Y-96070274D01*
X143313726Y-96167776D01*
X143313870Y-96167992D01*
X143390333Y-96282427D01*
X143443100Y-96409818D01*
X143470000Y-96545055D01*
X143470000Y-96682945D01*
X143443100Y-96818182D01*
X143390333Y-96945573D01*
X143390332Y-96945574D01*
X143313726Y-97060224D01*
X143216224Y-97157726D01*
X143158510Y-97196289D01*
X143101573Y-97234333D01*
X142974182Y-97287100D01*
X142838945Y-97314000D01*
X142701055Y-97314000D01*
X142565818Y-97287100D01*
X142438427Y-97234333D01*
X142381490Y-97196289D01*
X142323776Y-97157726D01*
X142226274Y-97060224D01*
X142149668Y-96945574D01*
X142149667Y-96945573D01*
X142096900Y-96818182D01*
X142070000Y-96682945D01*
X142070000Y-96545055D01*
X142096900Y-96409818D01*
X142149667Y-96282427D01*
X142226130Y-96167992D01*
X142226274Y-96167776D01*
X142323776Y-96070274D01*
X142438426Y-95993668D01*
X142438427Y-95993667D01*
X142565818Y-95940900D01*
X142701055Y-95914000D01*
X142838945Y-95914000D01*
X142974182Y-95940900D01*
X142974182Y-95940900D01*
G37*
G36*
X157680638Y-92860916D02*
G01*
X157834034Y-92907449D01*
X157887992Y-92923817D01*
X158079084Y-93025957D01*
X158246581Y-93163419D01*
X158384043Y-93330916D01*
X158486183Y-93522008D01*
X158486184Y-93522012D01*
X158549084Y-93729362D01*
X158565000Y-93890964D01*
X158565000Y-95799036D01*
X158549084Y-95960638D01*
X158539064Y-95993668D01*
X158486183Y-96167992D01*
X158384043Y-96359084D01*
X158342406Y-96409818D01*
X158246581Y-96526581D01*
X158079084Y-96664042D01*
X158079080Y-96664044D01*
X158079079Y-96664045D01*
X157887991Y-96766183D01*
X157834033Y-96782551D01*
X157680637Y-96829084D01*
X157465000Y-96850322D01*
X157249362Y-96829084D01*
X157095966Y-96782551D01*
X157042008Y-96766183D01*
X156850916Y-96664043D01*
X156705930Y-96545055D01*
X156683419Y-96526581D01*
X156545958Y-96359084D01*
X156545955Y-96359079D01*
X156443817Y-96167991D01*
X156390936Y-95993667D01*
X156380916Y-95960637D01*
X156365000Y-95799035D01*
X156365000Y-93890964D01*
X156366885Y-93871831D01*
X156370306Y-93837097D01*
X156380917Y-93729362D01*
X156443817Y-93522012D01*
X156443818Y-93522008D01*
X156545958Y-93330916D01*
X156683420Y-93163419D01*
X156850917Y-93025957D01*
X157042009Y-92923817D01*
X157095967Y-92907449D01*
X157249363Y-92860916D01*
X157465000Y-92839678D01*
X157680638Y-92860916D01*
X157680638Y-92860916D01*
G37*
G36*
X85937022Y-92456224D02*
G01*
X86093995Y-92487448D01*
X86389726Y-92609943D01*
X86655877Y-92787780D01*
X86882220Y-93014123D01*
X87060057Y-93280274D01*
X87182552Y-93576005D01*
X87182552Y-93576006D01*
X87245000Y-93889950D01*
X87245000Y-94210050D01*
X87213776Y-94367022D01*
X87182552Y-94523995D01*
X87060057Y-94819726D01*
X86882220Y-95085877D01*
X86655877Y-95312220D01*
X86389726Y-95490057D01*
X86093995Y-95612552D01*
X85937022Y-95643776D01*
X85780050Y-95675000D01*
X85459950Y-95675000D01*
X85302978Y-95643776D01*
X85146005Y-95612552D01*
X84850274Y-95490057D01*
X84584123Y-95312220D01*
X84357780Y-95085877D01*
X84179943Y-94819726D01*
X84057448Y-94523995D01*
X84026224Y-94367022D01*
X83995000Y-94210050D01*
X83995000Y-93889950D01*
X84057448Y-93576006D01*
X84057448Y-93576005D01*
X84179943Y-93280274D01*
X84357780Y-93014123D01*
X84584123Y-92787780D01*
X84850274Y-92609943D01*
X85146005Y-92487448D01*
X85302978Y-92456224D01*
X85459950Y-92425000D01*
X85780050Y-92425000D01*
X85937022Y-92456224D01*
X85937022Y-92456224D01*
G37*
G36*
X138364627Y-93744299D02*
G01*
X138444742Y-93768602D01*
X138524855Y-93792903D01*
X138524857Y-93792904D01*
X138672518Y-93871831D01*
X138801949Y-93978051D01*
X138908169Y-94107482D01*
X138962993Y-94210050D01*
X138987097Y-94255145D01*
X138989412Y-94262778D01*
X139035701Y-94415373D01*
X139052112Y-94582000D01*
X139035701Y-94748627D01*
X138987096Y-94908857D01*
X138908169Y-95056518D01*
X138801949Y-95185949D01*
X138672518Y-95292169D01*
X138524857Y-95371096D01*
X138524855Y-95371097D01*
X138444742Y-95395399D01*
X138364627Y-95419701D01*
X138239752Y-95432000D01*
X138156248Y-95432000D01*
X138031373Y-95419701D01*
X137951258Y-95395399D01*
X137871145Y-95371097D01*
X137871143Y-95371096D01*
X137723482Y-95292169D01*
X137594051Y-95185949D01*
X137487831Y-95056518D01*
X137408904Y-94908857D01*
X137360299Y-94748627D01*
X137343888Y-94582000D01*
X137360299Y-94415373D01*
X137406588Y-94262778D01*
X137408903Y-94255145D01*
X137433007Y-94210050D01*
X137487831Y-94107482D01*
X137594051Y-93978051D01*
X137723482Y-93871831D01*
X137871143Y-93792904D01*
X137871145Y-93792903D01*
X137951258Y-93768602D01*
X138031373Y-93744299D01*
X138156248Y-93732000D01*
X138239752Y-93732000D01*
X138364627Y-93744299D01*
X138364627Y-93744299D01*
G37*
G36*
X110970182Y-94035900D02*
G01*
X111097573Y-94088667D01*
X111154510Y-94126711D01*
X111212224Y-94165274D01*
X111309726Y-94262776D01*
X111309727Y-94262778D01*
X111386333Y-94377427D01*
X111439100Y-94504818D01*
X111466000Y-94640055D01*
X111466000Y-94777945D01*
X111439100Y-94913182D01*
X111386333Y-95040573D01*
X111356062Y-95085877D01*
X111309726Y-95155224D01*
X111212224Y-95252726D01*
X111154510Y-95291289D01*
X111097573Y-95329333D01*
X110970182Y-95382100D01*
X110834945Y-95409000D01*
X110697055Y-95409000D01*
X110561818Y-95382100D01*
X110434427Y-95329333D01*
X110377490Y-95291289D01*
X110319776Y-95252726D01*
X110222274Y-95155224D01*
X110175938Y-95085877D01*
X110145667Y-95040573D01*
X110092900Y-94913182D01*
X110066000Y-94777945D01*
X110066000Y-94640055D01*
X110092900Y-94504818D01*
X110145667Y-94377427D01*
X110222273Y-94262778D01*
X110222274Y-94262776D01*
X110319776Y-94165274D01*
X110377490Y-94126711D01*
X110434427Y-94088667D01*
X110561818Y-94035900D01*
X110697055Y-94009000D01*
X110834945Y-94009000D01*
X110970182Y-94035900D01*
X110970182Y-94035900D01*
G37*
G36*
X107922182Y-94035900D02*
G01*
X108049573Y-94088667D01*
X108106510Y-94126711D01*
X108164224Y-94165274D01*
X108261726Y-94262776D01*
X108261727Y-94262778D01*
X108338333Y-94377427D01*
X108391100Y-94504818D01*
X108418000Y-94640055D01*
X108418000Y-94777945D01*
X108391100Y-94913182D01*
X108338333Y-95040573D01*
X108308062Y-95085877D01*
X108261726Y-95155224D01*
X108164224Y-95252726D01*
X108106510Y-95291289D01*
X108049573Y-95329333D01*
X107922182Y-95382100D01*
X107786945Y-95409000D01*
X107649055Y-95409000D01*
X107513818Y-95382100D01*
X107386427Y-95329333D01*
X107329490Y-95291289D01*
X107271776Y-95252726D01*
X107174274Y-95155224D01*
X107127938Y-95085877D01*
X107097667Y-95040573D01*
X107044900Y-94913182D01*
X107018000Y-94777945D01*
X107018000Y-94640055D01*
X107044900Y-94504818D01*
X107097667Y-94377427D01*
X107174273Y-94262778D01*
X107174274Y-94262776D01*
X107271776Y-94165274D01*
X107329490Y-94126711D01*
X107386427Y-94088667D01*
X107513818Y-94035900D01*
X107649055Y-94009000D01*
X107786945Y-94009000D01*
X107922182Y-94035900D01*
X107922182Y-94035900D01*
G37*
G36*
X118971182Y-94035900D02*
G01*
X119098573Y-94088667D01*
X119155510Y-94126711D01*
X119213224Y-94165274D01*
X119310726Y-94262776D01*
X119310727Y-94262778D01*
X119387333Y-94377427D01*
X119440100Y-94504818D01*
X119467000Y-94640055D01*
X119467000Y-94777945D01*
X119440100Y-94913182D01*
X119387333Y-95040573D01*
X119357062Y-95085877D01*
X119310726Y-95155224D01*
X119213224Y-95252726D01*
X119155510Y-95291289D01*
X119098573Y-95329333D01*
X118971182Y-95382100D01*
X118835945Y-95409000D01*
X118698055Y-95409000D01*
X118562818Y-95382100D01*
X118435427Y-95329333D01*
X118378490Y-95291289D01*
X118320776Y-95252726D01*
X118223274Y-95155224D01*
X118176938Y-95085877D01*
X118146667Y-95040573D01*
X118093900Y-94913182D01*
X118067000Y-94777945D01*
X118067000Y-94640055D01*
X118093900Y-94504818D01*
X118146667Y-94377427D01*
X118223273Y-94262778D01*
X118223274Y-94262776D01*
X118320776Y-94165274D01*
X118378490Y-94126711D01*
X118435427Y-94088667D01*
X118562818Y-94035900D01*
X118698055Y-94009000D01*
X118835945Y-94009000D01*
X118971182Y-94035900D01*
X118971182Y-94035900D01*
G37*
G36*
X116431182Y-94035900D02*
G01*
X116558573Y-94088667D01*
X116615510Y-94126711D01*
X116673224Y-94165274D01*
X116770726Y-94262776D01*
X116770727Y-94262778D01*
X116847333Y-94377427D01*
X116900100Y-94504818D01*
X116927000Y-94640055D01*
X116927000Y-94777945D01*
X116900100Y-94913182D01*
X116847333Y-95040573D01*
X116817062Y-95085877D01*
X116770726Y-95155224D01*
X116673224Y-95252726D01*
X116615510Y-95291289D01*
X116558573Y-95329333D01*
X116431182Y-95382100D01*
X116295945Y-95409000D01*
X116158055Y-95409000D01*
X116022818Y-95382100D01*
X115895427Y-95329333D01*
X115838490Y-95291289D01*
X115780776Y-95252726D01*
X115683274Y-95155224D01*
X115636938Y-95085877D01*
X115606667Y-95040573D01*
X115553900Y-94913182D01*
X115527000Y-94777945D01*
X115527000Y-94640055D01*
X115553900Y-94504818D01*
X115606667Y-94377427D01*
X115683273Y-94262778D01*
X115683274Y-94262776D01*
X115780776Y-94165274D01*
X115838490Y-94126711D01*
X115895427Y-94088667D01*
X116022818Y-94035900D01*
X116158055Y-94009000D01*
X116295945Y-94009000D01*
X116431182Y-94035900D01*
X116431182Y-94035900D01*
G37*
G36*
X105382182Y-94035900D02*
G01*
X105509573Y-94088667D01*
X105566510Y-94126711D01*
X105624224Y-94165274D01*
X105721726Y-94262776D01*
X105721727Y-94262778D01*
X105798333Y-94377427D01*
X105851100Y-94504818D01*
X105878000Y-94640055D01*
X105878000Y-94777945D01*
X105851100Y-94913182D01*
X105798333Y-95040573D01*
X105768062Y-95085877D01*
X105721726Y-95155224D01*
X105624224Y-95252726D01*
X105566510Y-95291289D01*
X105509573Y-95329333D01*
X105382182Y-95382100D01*
X105246945Y-95409000D01*
X105109055Y-95409000D01*
X104973818Y-95382100D01*
X104846427Y-95329333D01*
X104789490Y-95291289D01*
X104731776Y-95252726D01*
X104634274Y-95155224D01*
X104587938Y-95085877D01*
X104557667Y-95040573D01*
X104504900Y-94913182D01*
X104478000Y-94777945D01*
X104478000Y-94640055D01*
X104504900Y-94504818D01*
X104557667Y-94377427D01*
X104634273Y-94262778D01*
X104634274Y-94262776D01*
X104731776Y-94165274D01*
X104789490Y-94126711D01*
X104846427Y-94088667D01*
X104973818Y-94035900D01*
X105109055Y-94009000D01*
X105246945Y-94009000D01*
X105382182Y-94035900D01*
X105382182Y-94035900D01*
G37*
G36*
X113510182Y-94035900D02*
G01*
X113637573Y-94088667D01*
X113694510Y-94126711D01*
X113752224Y-94165274D01*
X113849726Y-94262776D01*
X113849727Y-94262778D01*
X113926333Y-94377427D01*
X113979100Y-94504818D01*
X114006000Y-94640055D01*
X114006000Y-94777945D01*
X113979100Y-94913182D01*
X113926333Y-95040573D01*
X113896062Y-95085877D01*
X113849726Y-95155224D01*
X113752224Y-95252726D01*
X113694510Y-95291289D01*
X113637573Y-95329333D01*
X113510182Y-95382100D01*
X113374945Y-95409000D01*
X113237055Y-95409000D01*
X113101818Y-95382100D01*
X112974427Y-95329333D01*
X112917490Y-95291289D01*
X112859776Y-95252726D01*
X112762274Y-95155224D01*
X112715938Y-95085877D01*
X112685667Y-95040573D01*
X112632900Y-94913182D01*
X112606000Y-94777945D01*
X112606000Y-94640055D01*
X112632900Y-94504818D01*
X112685667Y-94377427D01*
X112762273Y-94262778D01*
X112762274Y-94262776D01*
X112859776Y-94165274D01*
X112917490Y-94126711D01*
X112974427Y-94088667D01*
X113101818Y-94035900D01*
X113237055Y-94009000D01*
X113374945Y-94009000D01*
X113510182Y-94035900D01*
X113510182Y-94035900D01*
G37*
G36*
X142974182Y-93400900D02*
G01*
X143101573Y-93453667D01*
X143101574Y-93453668D01*
X143216224Y-93530274D01*
X143313726Y-93627776D01*
X143313727Y-93627778D01*
X143390333Y-93742427D01*
X143443100Y-93869818D01*
X143470000Y-94005055D01*
X143470000Y-94142945D01*
X143443100Y-94278182D01*
X143390333Y-94405573D01*
X143390332Y-94405574D01*
X143313726Y-94520224D01*
X143216224Y-94617726D01*
X143182806Y-94640055D01*
X143101573Y-94694333D01*
X142974182Y-94747100D01*
X142838945Y-94774000D01*
X142701055Y-94774000D01*
X142565818Y-94747100D01*
X142438427Y-94694333D01*
X142357194Y-94640055D01*
X142323776Y-94617726D01*
X142226274Y-94520224D01*
X142149668Y-94405574D01*
X142149667Y-94405573D01*
X142096900Y-94278182D01*
X142070000Y-94142945D01*
X142070000Y-94005055D01*
X142096900Y-93869818D01*
X142149667Y-93742427D01*
X142226273Y-93627778D01*
X142226274Y-93627776D01*
X142323776Y-93530274D01*
X142438426Y-93453668D01*
X142438427Y-93453667D01*
X142565818Y-93400900D01*
X142701055Y-93374000D01*
X142838945Y-93374000D01*
X142974182Y-93400900D01*
X142974182Y-93400900D01*
G37*
G36*
X92191683Y-91419206D02*
G01*
X92329996Y-91476497D01*
X92454469Y-91559667D01*
X92560333Y-91665531D01*
X92643503Y-91790004D01*
X92700794Y-91928317D01*
X92730000Y-92075145D01*
X92730000Y-92224855D01*
X92700794Y-92371683D01*
X92643503Y-92509996D01*
X92560333Y-92634469D01*
X92454469Y-92740333D01*
X92329996Y-92823503D01*
X92191683Y-92880794D01*
X92044855Y-92910000D01*
X91895145Y-92910000D01*
X91748317Y-92880794D01*
X91610004Y-92823503D01*
X91485531Y-92740333D01*
X91379667Y-92634469D01*
X91296497Y-92509996D01*
X91239206Y-92371683D01*
X91210000Y-92224855D01*
X91210000Y-92075145D01*
X91239206Y-91928317D01*
X91296497Y-91790004D01*
X91379667Y-91665531D01*
X91485531Y-91559667D01*
X91610004Y-91476497D01*
X91748317Y-91419206D01*
X91895145Y-91390000D01*
X92044855Y-91390000D01*
X92191683Y-91419206D01*
X92191683Y-91419206D01*
G37*
G36*
X146480638Y-88760916D02*
G01*
X146634034Y-88807449D01*
X146687992Y-88823817D01*
X146879084Y-88925957D01*
X147046581Y-89063419D01*
X147184043Y-89230916D01*
X147286183Y-89422008D01*
X147286184Y-89422012D01*
X147349084Y-89629362D01*
X147365000Y-89790964D01*
X147365000Y-91699036D01*
X147349084Y-91860638D01*
X147328553Y-91928317D01*
X147286183Y-92067992D01*
X147184043Y-92259084D01*
X147091635Y-92371683D01*
X147046581Y-92426581D01*
X146879084Y-92564042D01*
X146879080Y-92564044D01*
X146879079Y-92564045D01*
X146687991Y-92666183D01*
X146634033Y-92682551D01*
X146480637Y-92729084D01*
X146265000Y-92750322D01*
X146049362Y-92729084D01*
X145895966Y-92682551D01*
X145842008Y-92666183D01*
X145650916Y-92564043D01*
X145536354Y-92470023D01*
X145483419Y-92426581D01*
X145345958Y-92259084D01*
X145327661Y-92224853D01*
X145243817Y-92067991D01*
X145201447Y-91928316D01*
X145180916Y-91860637D01*
X145165000Y-91699035D01*
X145165000Y-89790964D01*
X145180917Y-89629362D01*
X145243817Y-89422012D01*
X145243818Y-89422008D01*
X145345958Y-89230916D01*
X145483420Y-89063419D01*
X145650917Y-88925957D01*
X145842009Y-88823817D01*
X145895967Y-88807449D01*
X146049363Y-88760916D01*
X146265000Y-88739678D01*
X146480638Y-88760916D01*
X146480638Y-88760916D01*
G37*
G36*
X94731683Y-90149206D02*
G01*
X94869996Y-90206497D01*
X94994469Y-90289667D01*
X95100333Y-90395531D01*
X95183503Y-90520004D01*
X95240794Y-90658317D01*
X95270000Y-90805145D01*
X95270000Y-90954855D01*
X95240794Y-91101683D01*
X95183503Y-91239996D01*
X95100333Y-91364469D01*
X94994469Y-91470333D01*
X94869996Y-91553503D01*
X94731683Y-91610794D01*
X94584855Y-91640000D01*
X94435145Y-91640000D01*
X94288317Y-91610794D01*
X94150004Y-91553503D01*
X94025531Y-91470333D01*
X93919667Y-91364469D01*
X93836497Y-91239996D01*
X93779206Y-91101683D01*
X93750000Y-90954855D01*
X93750000Y-90805145D01*
X93779206Y-90658317D01*
X93836497Y-90520004D01*
X93919667Y-90395531D01*
X94025531Y-90289667D01*
X94150004Y-90206497D01*
X94288317Y-90149206D01*
X94435145Y-90120000D01*
X94584855Y-90120000D01*
X94731683Y-90149206D01*
X94731683Y-90149206D01*
G37*
G36*
X155565000Y-91345000D02*
G01*
X151565000Y-91345000D01*
X151565000Y-89145000D01*
X155565000Y-89145000D01*
X155565000Y-91345000D01*
X155565000Y-91345000D01*
G37*
G36*
X92191683Y-88879206D02*
G01*
X92329996Y-88936497D01*
X92454469Y-89019667D01*
X92560333Y-89125531D01*
X92643503Y-89250004D01*
X92700794Y-89388317D01*
X92730000Y-89535145D01*
X92730000Y-89684855D01*
X92700794Y-89831683D01*
X92643503Y-89969996D01*
X92560333Y-90094469D01*
X92454469Y-90200333D01*
X92329996Y-90283503D01*
X92191683Y-90340794D01*
X92044855Y-90370000D01*
X91895145Y-90370000D01*
X91748317Y-90340794D01*
X91610004Y-90283503D01*
X91485531Y-90200333D01*
X91379667Y-90094469D01*
X91296497Y-89969996D01*
X91239206Y-89831683D01*
X91210000Y-89684855D01*
X91210000Y-89535145D01*
X91239206Y-89388317D01*
X91296497Y-89250004D01*
X91379667Y-89125531D01*
X91485531Y-89019667D01*
X91610004Y-88936497D01*
X91748317Y-88879206D01*
X91895145Y-88850000D01*
X92044855Y-88850000D01*
X92191683Y-88879206D01*
X92191683Y-88879206D01*
G37*
G36*
X94731683Y-87609206D02*
G01*
X94869996Y-87666497D01*
X94994469Y-87749667D01*
X95100333Y-87855531D01*
X95183503Y-87980004D01*
X95240794Y-88118317D01*
X95270000Y-88265145D01*
X95270000Y-88414855D01*
X95240794Y-88561683D01*
X95183503Y-88699996D01*
X95100333Y-88824469D01*
X94994469Y-88930333D01*
X94869996Y-89013503D01*
X94731683Y-89070794D01*
X94584855Y-89100000D01*
X94435145Y-89100000D01*
X94288317Y-89070794D01*
X94150004Y-89013503D01*
X94025531Y-88930333D01*
X93919667Y-88824469D01*
X93836497Y-88699996D01*
X93779206Y-88561683D01*
X93750000Y-88414855D01*
X93750000Y-88265145D01*
X93779206Y-88118317D01*
X93836497Y-87980004D01*
X93919667Y-87855531D01*
X94025531Y-87749667D01*
X94150004Y-87666497D01*
X94288317Y-87609206D01*
X94435145Y-87580000D01*
X94584855Y-87580000D01*
X94731683Y-87609206D01*
X94731683Y-87609206D01*
G37*
G36*
X92191683Y-86339206D02*
G01*
X92329996Y-86396497D01*
X92454469Y-86479667D01*
X92560333Y-86585531D01*
X92643503Y-86710004D01*
X92700794Y-86848317D01*
X92730000Y-86995145D01*
X92730000Y-87144855D01*
X92700794Y-87291683D01*
X92643503Y-87429996D01*
X92560333Y-87554469D01*
X92454469Y-87660333D01*
X92329996Y-87743503D01*
X92191683Y-87800794D01*
X92044855Y-87830000D01*
X91895145Y-87830000D01*
X91748317Y-87800794D01*
X91610004Y-87743503D01*
X91485531Y-87660333D01*
X91379667Y-87554469D01*
X91296497Y-87429996D01*
X91239206Y-87291683D01*
X91210000Y-87144855D01*
X91210000Y-86995145D01*
X91239206Y-86848317D01*
X91296497Y-86710004D01*
X91379667Y-86585531D01*
X91485531Y-86479667D01*
X91610004Y-86396497D01*
X91748317Y-86339206D01*
X91895145Y-86310000D01*
X92044855Y-86310000D01*
X92191683Y-86339206D01*
X92191683Y-86339206D01*
G37*
G36*
X95270000Y-86560000D02*
G01*
X93750000Y-86560000D01*
X93750000Y-85040000D01*
X95270000Y-85040000D01*
X95270000Y-86560000D01*
X95270000Y-86560000D01*
G37*
G36*
X104840547Y-83969588D02*
G01*
X105004547Y-84019337D01*
X105155683Y-84100121D01*
X105288160Y-84208840D01*
X105396879Y-84341317D01*
X105477663Y-84492452D01*
X105527412Y-84656452D01*
X105540000Y-84784262D01*
X105540000Y-85329737D01*
X105527412Y-85457547D01*
X105477663Y-85621548D01*
X105396879Y-85772683D01*
X105288160Y-85905160D01*
X105155683Y-86013879D01*
X105004548Y-86094663D01*
X104840548Y-86144412D01*
X104670000Y-86161209D01*
X104499453Y-86144412D01*
X104335453Y-86094663D01*
X104184318Y-86013879D01*
X104051841Y-85905160D01*
X103943123Y-85772685D01*
X103943122Y-85772683D01*
X103905518Y-85702332D01*
X103862336Y-85621546D01*
X103812588Y-85457548D01*
X103800000Y-85329738D01*
X103800000Y-84784263D01*
X103812588Y-84656453D01*
X103862337Y-84492453D01*
X103943121Y-84341317D01*
X104051840Y-84208840D01*
X104184317Y-84100121D01*
X104335452Y-84019337D01*
X104499452Y-83969588D01*
X104670000Y-83952791D01*
X104840547Y-83969588D01*
X104840547Y-83969588D01*
G37*
G36*
X102870355Y-83960685D02*
G01*
X102900434Y-83969809D01*
X102928146Y-83984622D01*
X102952441Y-84004559D01*
X102972378Y-84028854D01*
X102987191Y-84056566D01*
X102996315Y-84086645D01*
X103000000Y-84124059D01*
X103000000Y-85989941D01*
X102996315Y-86027355D01*
X102987191Y-86057434D01*
X102972378Y-86085146D01*
X102952441Y-86109441D01*
X102928146Y-86129378D01*
X102900434Y-86144191D01*
X102870355Y-86153315D01*
X102832941Y-86157000D01*
X101427059Y-86157000D01*
X101389645Y-86153315D01*
X101359566Y-86144191D01*
X101331854Y-86129378D01*
X101307559Y-86109441D01*
X101287622Y-86085146D01*
X101272809Y-86057434D01*
X101263685Y-86027355D01*
X101260000Y-85989941D01*
X101260000Y-84124059D01*
X101263685Y-84086645D01*
X101272809Y-84056566D01*
X101287622Y-84028854D01*
X101307559Y-84004559D01*
X101331854Y-83984622D01*
X101359566Y-83969809D01*
X101389645Y-83960685D01*
X101427059Y-83957000D01*
X102832941Y-83957000D01*
X102870355Y-83960685D01*
X102870355Y-83960685D01*
G37*
G36*
X85937022Y-82296224D02*
G01*
X86093995Y-82327448D01*
X86389726Y-82449943D01*
X86655877Y-82627780D01*
X86882220Y-82854123D01*
X87060057Y-83120274D01*
X87182552Y-83416005D01*
X87182552Y-83416006D01*
X87245000Y-83729950D01*
X87245000Y-84050050D01*
X87223482Y-84158227D01*
X87182552Y-84363995D01*
X87060057Y-84659726D01*
X86882220Y-84925877D01*
X86655877Y-85152220D01*
X86389726Y-85330057D01*
X86093995Y-85452552D01*
X86068868Y-85457550D01*
X85780050Y-85515000D01*
X85459950Y-85515000D01*
X85171132Y-85457550D01*
X85146005Y-85452552D01*
X84850274Y-85330057D01*
X84584123Y-85152220D01*
X84357780Y-84925877D01*
X84179943Y-84659726D01*
X84057448Y-84363995D01*
X84016518Y-84158227D01*
X83995000Y-84050050D01*
X83995000Y-83729950D01*
X84057448Y-83416006D01*
X84057448Y-83416005D01*
X84179943Y-83120274D01*
X84357780Y-82854123D01*
X84584123Y-82627780D01*
X84850274Y-82449943D01*
X85146005Y-82327448D01*
X85302978Y-82296224D01*
X85459950Y-82265000D01*
X85780050Y-82265000D01*
X85937022Y-82296224D01*
X85937022Y-82296224D01*
G37*
G36*
X93354182Y-78191900D02*
G01*
X93481573Y-78244667D01*
X93481574Y-78244668D01*
X93596224Y-78321274D01*
X93693726Y-78418776D01*
X93693727Y-78418778D01*
X93770333Y-78533427D01*
X93823100Y-78660818D01*
X93850000Y-78796055D01*
X93850000Y-78933945D01*
X93823100Y-79069182D01*
X93770333Y-79196573D01*
X93770332Y-79196574D01*
X93693726Y-79311224D01*
X93596224Y-79408726D01*
X93538510Y-79447289D01*
X93481573Y-79485333D01*
X93354182Y-79538100D01*
X93218945Y-79565000D01*
X93081055Y-79565000D01*
X92945818Y-79538100D01*
X92818427Y-79485333D01*
X92761490Y-79447289D01*
X92703776Y-79408726D01*
X92606274Y-79311224D01*
X92529668Y-79196574D01*
X92529667Y-79196573D01*
X92476900Y-79069182D01*
X92450000Y-78933945D01*
X92450000Y-78796055D01*
X92476900Y-78660818D01*
X92529667Y-78533427D01*
X92606273Y-78418778D01*
X92606274Y-78418776D01*
X92703776Y-78321274D01*
X92818426Y-78244668D01*
X92818427Y-78244667D01*
X92945818Y-78191900D01*
X93081055Y-78165000D01*
X93218945Y-78165000D01*
X93354182Y-78191900D01*
X93354182Y-78191900D01*
G37*
G36*
X93354182Y-75651900D02*
G01*
X93481573Y-75704667D01*
X93481574Y-75704668D01*
X93596224Y-75781274D01*
X93693726Y-75878776D01*
X93693727Y-75878778D01*
X93770333Y-75993427D01*
X93823100Y-76120818D01*
X93850000Y-76256055D01*
X93850000Y-76393945D01*
X93823100Y-76529182D01*
X93770333Y-76656573D01*
X93770332Y-76656574D01*
X93693726Y-76771224D01*
X93596224Y-76868726D01*
X93538510Y-76907289D01*
X93481573Y-76945333D01*
X93354182Y-76998100D01*
X93218945Y-77025000D01*
X93081055Y-77025000D01*
X92945818Y-76998100D01*
X92818427Y-76945333D01*
X92761490Y-76907289D01*
X92703776Y-76868726D01*
X92606274Y-76771224D01*
X92529668Y-76656574D01*
X92529667Y-76656573D01*
X92476900Y-76529182D01*
X92450000Y-76393945D01*
X92450000Y-76256055D01*
X92476900Y-76120818D01*
X92529667Y-75993427D01*
X92606273Y-75878778D01*
X92606274Y-75878776D01*
X92703776Y-75781274D01*
X92818426Y-75704668D01*
X92818427Y-75704667D01*
X92945818Y-75651900D01*
X93081055Y-75625000D01*
X93218945Y-75625000D01*
X93354182Y-75651900D01*
X93354182Y-75651900D01*
G37*
G36*
X91296000Y-70540000D02*
G01*
X89596000Y-70540000D01*
X89596000Y-68840000D01*
X91296000Y-68840000D01*
X91296000Y-70540000D01*
X91296000Y-70540000D01*
G37*
G36*
X85532627Y-68852299D02*
G01*
X85612742Y-68876601D01*
X85692855Y-68900903D01*
X85692857Y-68900904D01*
X85840518Y-68979831D01*
X85969949Y-69086051D01*
X86076169Y-69215482D01*
X86155096Y-69363143D01*
X86203701Y-69523373D01*
X86220112Y-69690000D01*
X86203701Y-69856627D01*
X86155096Y-70016857D01*
X86076169Y-70164518D01*
X85969949Y-70293949D01*
X85840518Y-70400169D01*
X85692857Y-70479096D01*
X85692855Y-70479097D01*
X85612742Y-70503398D01*
X85532627Y-70527701D01*
X85407752Y-70540000D01*
X85324248Y-70540000D01*
X85199373Y-70527701D01*
X85119258Y-70503399D01*
X85039145Y-70479097D01*
X85039143Y-70479096D01*
X84891482Y-70400169D01*
X84762051Y-70293949D01*
X84655831Y-70164518D01*
X84576904Y-70016857D01*
X84528299Y-69856627D01*
X84511888Y-69690000D01*
X84528299Y-69523373D01*
X84576904Y-69363143D01*
X84655831Y-69215482D01*
X84762051Y-69086051D01*
X84891482Y-68979831D01*
X85039143Y-68900904D01*
X85039145Y-68900903D01*
X85119258Y-68876602D01*
X85199373Y-68852299D01*
X85324248Y-68840000D01*
X85407752Y-68840000D01*
X85532627Y-68852299D01*
X85532627Y-68852299D01*
G37*
G36*
X88072627Y-68852299D02*
G01*
X88152742Y-68876601D01*
X88232855Y-68900903D01*
X88232857Y-68900904D01*
X88380518Y-68979831D01*
X88509949Y-69086051D01*
X88616169Y-69215482D01*
X88695096Y-69363143D01*
X88743701Y-69523373D01*
X88760112Y-69690000D01*
X88743701Y-69856627D01*
X88695096Y-70016857D01*
X88616169Y-70164518D01*
X88509949Y-70293949D01*
X88380518Y-70400169D01*
X88232857Y-70479096D01*
X88232855Y-70479097D01*
X88152742Y-70503398D01*
X88072627Y-70527701D01*
X87947752Y-70540000D01*
X87864248Y-70540000D01*
X87739373Y-70527701D01*
X87659258Y-70503399D01*
X87579145Y-70479097D01*
X87579143Y-70479096D01*
X87431482Y-70400169D01*
X87302051Y-70293949D01*
X87195831Y-70164518D01*
X87116904Y-70016857D01*
X87068299Y-69856627D01*
X87051888Y-69690000D01*
X87068299Y-69523373D01*
X87116904Y-69363143D01*
X87195831Y-69215482D01*
X87302051Y-69086051D01*
X87431482Y-68979831D01*
X87579143Y-68900904D01*
X87579145Y-68900903D01*
X87659258Y-68876602D01*
X87739373Y-68852299D01*
X87864248Y-68840000D01*
X87947752Y-68840000D01*
X88072627Y-68852299D01*
X88072627Y-68852299D01*
G37*
G36*
X160381703Y-63706486D02*
G01*
X160672883Y-63827097D01*
X160934940Y-64002198D01*
X161157802Y-64225060D01*
X161332903Y-64487117D01*
X161453514Y-64778297D01*
X161515000Y-65087412D01*
X161515000Y-65402588D01*
X161453514Y-65711703D01*
X161332903Y-66002883D01*
X161157802Y-66264940D01*
X160934940Y-66487802D01*
X160672883Y-66662903D01*
X160381703Y-66783514D01*
X160072588Y-66845000D01*
X159757412Y-66845000D01*
X159448297Y-66783514D01*
X159157117Y-66662903D01*
X158895060Y-66487802D01*
X158672198Y-66264940D01*
X158497097Y-66002883D01*
X158376486Y-65711703D01*
X158315000Y-65402588D01*
X158315000Y-65087412D01*
X158376486Y-64778297D01*
X158497097Y-64487117D01*
X158672198Y-64225060D01*
X158895060Y-64002198D01*
X159157117Y-63827097D01*
X159448297Y-63706486D01*
X159757412Y-63645000D01*
X160072588Y-63645000D01*
X160381703Y-63706486D01*
X160381703Y-63706486D01*
G37*
G36*
X81641703Y-63706486D02*
G01*
X81932883Y-63827097D01*
X82194940Y-64002198D01*
X82417802Y-64225060D01*
X82592903Y-64487117D01*
X82713514Y-64778297D01*
X82775000Y-65087412D01*
X82775000Y-65402588D01*
X82713514Y-65711703D01*
X82592903Y-66002883D01*
X82417802Y-66264940D01*
X82194940Y-66487802D01*
X81932883Y-66662903D01*
X81641703Y-66783514D01*
X81332588Y-66845000D01*
X81017412Y-66845000D01*
X80708297Y-66783514D01*
X80417117Y-66662903D01*
X80155060Y-66487802D01*
X79932198Y-66264940D01*
X79757097Y-66002883D01*
X79636486Y-65711703D01*
X79575000Y-65402588D01*
X79575000Y-65087412D01*
X79636486Y-64778297D01*
X79757097Y-64487117D01*
X79932198Y-64225060D01*
X80155060Y-64002198D01*
X80417117Y-63827097D01*
X80708297Y-63706486D01*
X81017412Y-63645000D01*
X81332588Y-63645000D01*
X81641703Y-63706486D01*
X81641703Y-63706486D01*
G37*
G36*
X88375000Y-65695000D02*
G01*
X86675000Y-65695000D01*
X86675000Y-63995000D01*
X88375000Y-63995000D01*
X88375000Y-65695000D01*
X88375000Y-65695000D01*
G37*
G36*
X90231627Y-64007299D02*
G01*
X90311742Y-64031602D01*
X90391855Y-64055903D01*
X90391857Y-64055904D01*
X90539518Y-64134831D01*
X90668949Y-64241051D01*
X90775169Y-64370482D01*
X90854096Y-64518143D01*
X90902701Y-64678373D01*
X90919112Y-64845000D01*
X90902701Y-65011627D01*
X90854096Y-65171857D01*
X90775169Y-65319518D01*
X90668949Y-65448949D01*
X90539518Y-65555169D01*
X90391857Y-65634096D01*
X90391855Y-65634097D01*
X90311742Y-65658398D01*
X90231627Y-65682701D01*
X90106752Y-65695000D01*
X90023248Y-65695000D01*
X89898373Y-65682701D01*
X89818258Y-65658398D01*
X89738145Y-65634097D01*
X89738143Y-65634096D01*
X89590482Y-65555169D01*
X89461051Y-65448949D01*
X89354831Y-65319518D01*
X89275904Y-65171857D01*
X89227299Y-65011627D01*
X89210888Y-64845000D01*
X89227299Y-64678373D01*
X89275904Y-64518143D01*
X89354831Y-64370482D01*
X89461051Y-64241051D01*
X89590482Y-64134831D01*
X89738143Y-64055904D01*
X89738145Y-64055903D01*
X89818258Y-64031602D01*
X89898373Y-64007299D01*
X90023248Y-63995000D01*
X90106752Y-63995000D01*
X90231627Y-64007299D01*
X90231627Y-64007299D01*
G37*
G36*
X95311627Y-64007299D02*
G01*
X95391742Y-64031602D01*
X95471855Y-64055903D01*
X95471857Y-64055904D01*
X95619518Y-64134831D01*
X95748949Y-64241051D01*
X95855169Y-64370482D01*
X95934096Y-64518143D01*
X95982701Y-64678373D01*
X95999112Y-64845000D01*
X95982701Y-65011627D01*
X95934096Y-65171857D01*
X95855169Y-65319518D01*
X95748949Y-65448949D01*
X95619518Y-65555169D01*
X95471857Y-65634096D01*
X95471855Y-65634097D01*
X95391742Y-65658398D01*
X95311627Y-65682701D01*
X95186752Y-65695000D01*
X95103248Y-65695000D01*
X94978373Y-65682701D01*
X94898258Y-65658398D01*
X94818145Y-65634097D01*
X94818143Y-65634096D01*
X94670482Y-65555169D01*
X94541051Y-65448949D01*
X94434831Y-65319518D01*
X94355904Y-65171857D01*
X94307299Y-65011627D01*
X94290888Y-64845000D01*
X94307299Y-64678373D01*
X94355904Y-64518143D01*
X94434831Y-64370482D01*
X94541051Y-64241051D01*
X94670482Y-64134831D01*
X94818143Y-64055904D01*
X94818145Y-64055903D01*
X94898258Y-64031602D01*
X94978373Y-64007299D01*
X95103248Y-63995000D01*
X95186752Y-63995000D01*
X95311627Y-64007299D01*
X95311627Y-64007299D01*
G37*
G36*
X97851627Y-64007299D02*
G01*
X97931742Y-64031602D01*
X98011855Y-64055903D01*
X98011857Y-64055904D01*
X98159518Y-64134831D01*
X98288949Y-64241051D01*
X98395169Y-64370482D01*
X98474096Y-64518143D01*
X98522701Y-64678373D01*
X98539112Y-64845000D01*
X98522701Y-65011627D01*
X98474096Y-65171857D01*
X98395169Y-65319518D01*
X98288949Y-65448949D01*
X98159518Y-65555169D01*
X98011857Y-65634096D01*
X98011855Y-65634097D01*
X97931742Y-65658398D01*
X97851627Y-65682701D01*
X97726752Y-65695000D01*
X97643248Y-65695000D01*
X97518373Y-65682701D01*
X97438258Y-65658398D01*
X97358145Y-65634097D01*
X97358143Y-65634096D01*
X97210482Y-65555169D01*
X97081051Y-65448949D01*
X96974831Y-65319518D01*
X96895904Y-65171857D01*
X96847299Y-65011627D01*
X96830888Y-64845000D01*
X96847299Y-64678373D01*
X96895904Y-64518143D01*
X96974831Y-64370482D01*
X97081051Y-64241051D01*
X97210482Y-64134831D01*
X97358143Y-64055904D01*
X97358145Y-64055903D01*
X97438258Y-64031602D01*
X97518373Y-64007299D01*
X97643248Y-63995000D01*
X97726752Y-63995000D01*
X97851627Y-64007299D01*
X97851627Y-64007299D01*
G37*
G36*
X100391627Y-64007299D02*
G01*
X100471742Y-64031602D01*
X100551855Y-64055903D01*
X100551857Y-64055904D01*
X100699518Y-64134831D01*
X100828949Y-64241051D01*
X100935169Y-64370482D01*
X101014096Y-64518143D01*
X101062701Y-64678373D01*
X101079112Y-64845000D01*
X101062701Y-65011627D01*
X101014096Y-65171857D01*
X100935169Y-65319518D01*
X100828949Y-65448949D01*
X100699518Y-65555169D01*
X100551857Y-65634096D01*
X100551855Y-65634097D01*
X100471742Y-65658398D01*
X100391627Y-65682701D01*
X100266752Y-65695000D01*
X100183248Y-65695000D01*
X100058373Y-65682701D01*
X99978258Y-65658398D01*
X99898145Y-65634097D01*
X99898143Y-65634096D01*
X99750482Y-65555169D01*
X99621051Y-65448949D01*
X99514831Y-65319518D01*
X99435904Y-65171857D01*
X99387299Y-65011627D01*
X99370888Y-64845000D01*
X99387299Y-64678373D01*
X99435904Y-64518143D01*
X99514831Y-64370482D01*
X99621051Y-64241051D01*
X99750482Y-64134831D01*
X99898143Y-64055904D01*
X99898145Y-64055903D01*
X99978258Y-64031602D01*
X100058373Y-64007299D01*
X100183248Y-63995000D01*
X100266752Y-63995000D01*
X100391627Y-64007299D01*
X100391627Y-64007299D01*
G37*
G36*
X92771627Y-64007299D02*
G01*
X92851742Y-64031602D01*
X92931855Y-64055903D01*
X92931857Y-64055904D01*
X93079518Y-64134831D01*
X93208949Y-64241051D01*
X93315169Y-64370482D01*
X93394096Y-64518143D01*
X93442701Y-64678373D01*
X93459112Y-64845000D01*
X93442701Y-65011627D01*
X93394096Y-65171857D01*
X93315169Y-65319518D01*
X93208949Y-65448949D01*
X93079518Y-65555169D01*
X92931857Y-65634096D01*
X92931855Y-65634097D01*
X92851742Y-65658398D01*
X92771627Y-65682701D01*
X92646752Y-65695000D01*
X92563248Y-65695000D01*
X92438373Y-65682701D01*
X92358258Y-65658398D01*
X92278145Y-65634097D01*
X92278143Y-65634096D01*
X92130482Y-65555169D01*
X92001051Y-65448949D01*
X91894831Y-65319518D01*
X91815904Y-65171857D01*
X91767299Y-65011627D01*
X91750888Y-64845000D01*
X91767299Y-64678373D01*
X91815904Y-64518143D01*
X91894831Y-64370482D01*
X92001051Y-64241051D01*
X92130482Y-64134831D01*
X92278143Y-64055904D01*
X92278145Y-64055903D01*
X92358258Y-64031602D01*
X92438373Y-64007299D01*
X92563248Y-63995000D01*
X92646752Y-63995000D01*
X92771627Y-64007299D01*
X92771627Y-64007299D01*
G37*
M02*
