G04 #@! TF.GenerationSoftware,KiCad,Pcbnew,(5.1.0-0)*
G04 #@! TF.CreationDate,2019-10-22T21:45:05+02:00*
G04 #@! TF.ProjectId,esp32,65737033-322e-46b6-9963-61645f706362,rev?*
G04 #@! TF.SameCoordinates,Original*
G04 #@! TF.FileFunction,Copper,L2,Bot*
G04 #@! TF.FilePolarity,Positive*
%FSLAX46Y46*%
G04 Gerber Fmt 4.6, Leading zero omitted, Abs format (unit mm)*
G04 Created by KiCad (PCBNEW (5.1.0-0)) date 2019-10-22 21:45:05*
%MOMM*%
%LPD*%
G04 APERTURE LIST*
%ADD10C,1.400000*%
%ADD11O,1.700000X1.700000*%
%ADD12R,1.700000X1.700000*%
%ADD13O,1.740000X2.200000*%
%ADD14C,0.100000*%
%ADD15C,1.740000*%
%ADD16R,3.500000X3.500000*%
%ADD17C,3.000000*%
%ADD18C,3.500000*%
%ADD19C,1.520000*%
%ADD20R,1.520000X1.520000*%
%ADD21O,2.200000X4.000000*%
%ADD22O,4.000000X2.200000*%
%ADD23R,4.000000X2.200000*%
%ADD24C,2.400000*%
%ADD25C,1.600000*%
%ADD26C,0.800000*%
%ADD27C,0.500000*%
%ADD28C,0.254000*%
G04 APERTURE END LIST*
D10*
X142770000Y-104996000D03*
X142770000Y-102456000D03*
D11*
X85366000Y-69690000D03*
X87906000Y-69690000D03*
D12*
X90446000Y-69690000D03*
D11*
X101600000Y-108380000D03*
X101600000Y-105840000D03*
D12*
X101600000Y-103300000D03*
D10*
X113306000Y-94709000D03*
X110766000Y-94709000D03*
X118767000Y-94709000D03*
X116227000Y-94709000D03*
D11*
X138198000Y-94582000D03*
X138198000Y-97122000D03*
X138198000Y-99662000D03*
X138198000Y-102202000D03*
X138198000Y-104742000D03*
X138198000Y-107282000D03*
X138198000Y-109822000D03*
D12*
X138198000Y-112362000D03*
D10*
X142770000Y-96614000D03*
X142770000Y-94074000D03*
X107718000Y-94709000D03*
X105178000Y-94709000D03*
D13*
X104670000Y-85057000D03*
D14*
G36*
X102774505Y-83958204D02*
G01*
X102798773Y-83961804D01*
X102822572Y-83967765D01*
X102845671Y-83976030D01*
X102867850Y-83986520D01*
X102888893Y-83999132D01*
X102908599Y-84013747D01*
X102926777Y-84030223D01*
X102943253Y-84048401D01*
X102957868Y-84068107D01*
X102970480Y-84089150D01*
X102980970Y-84111329D01*
X102989235Y-84134428D01*
X102995196Y-84158227D01*
X102998796Y-84182495D01*
X103000000Y-84206999D01*
X103000000Y-85907001D01*
X102998796Y-85931505D01*
X102995196Y-85955773D01*
X102989235Y-85979572D01*
X102980970Y-86002671D01*
X102970480Y-86024850D01*
X102957868Y-86045893D01*
X102943253Y-86065599D01*
X102926777Y-86083777D01*
X102908599Y-86100253D01*
X102888893Y-86114868D01*
X102867850Y-86127480D01*
X102845671Y-86137970D01*
X102822572Y-86146235D01*
X102798773Y-86152196D01*
X102774505Y-86155796D01*
X102750001Y-86157000D01*
X101509999Y-86157000D01*
X101485495Y-86155796D01*
X101461227Y-86152196D01*
X101437428Y-86146235D01*
X101414329Y-86137970D01*
X101392150Y-86127480D01*
X101371107Y-86114868D01*
X101351401Y-86100253D01*
X101333223Y-86083777D01*
X101316747Y-86065599D01*
X101302132Y-86045893D01*
X101289520Y-86024850D01*
X101279030Y-86002671D01*
X101270765Y-85979572D01*
X101264804Y-85955773D01*
X101261204Y-85931505D01*
X101260000Y-85907001D01*
X101260000Y-84206999D01*
X101261204Y-84182495D01*
X101264804Y-84158227D01*
X101270765Y-84134428D01*
X101279030Y-84111329D01*
X101289520Y-84089150D01*
X101302132Y-84068107D01*
X101316747Y-84048401D01*
X101333223Y-84030223D01*
X101351401Y-84013747D01*
X101371107Y-83999132D01*
X101392150Y-83986520D01*
X101414329Y-83976030D01*
X101437428Y-83967765D01*
X101461227Y-83961804D01*
X101485495Y-83958204D01*
X101509999Y-83957000D01*
X102750001Y-83957000D01*
X102774505Y-83958204D01*
X102774505Y-83958204D01*
G37*
D15*
X102130000Y-85057000D03*
D16*
X90700000Y-120725000D03*
D14*
G36*
X85523513Y-118978611D02*
G01*
X85596318Y-118989411D01*
X85667714Y-119007295D01*
X85737013Y-119032090D01*
X85803548Y-119063559D01*
X85866678Y-119101398D01*
X85925795Y-119145242D01*
X85980330Y-119194670D01*
X86029758Y-119249205D01*
X86073602Y-119308322D01*
X86111441Y-119371452D01*
X86142910Y-119437987D01*
X86167705Y-119507286D01*
X86185589Y-119578682D01*
X86196389Y-119651487D01*
X86200000Y-119725000D01*
X86200000Y-121725000D01*
X86196389Y-121798513D01*
X86185589Y-121871318D01*
X86167705Y-121942714D01*
X86142910Y-122012013D01*
X86111441Y-122078548D01*
X86073602Y-122141678D01*
X86029758Y-122200795D01*
X85980330Y-122255330D01*
X85925795Y-122304758D01*
X85866678Y-122348602D01*
X85803548Y-122386441D01*
X85737013Y-122417910D01*
X85667714Y-122442705D01*
X85596318Y-122460589D01*
X85523513Y-122471389D01*
X85450000Y-122475000D01*
X83950000Y-122475000D01*
X83876487Y-122471389D01*
X83803682Y-122460589D01*
X83732286Y-122442705D01*
X83662987Y-122417910D01*
X83596452Y-122386441D01*
X83533322Y-122348602D01*
X83474205Y-122304758D01*
X83419670Y-122255330D01*
X83370242Y-122200795D01*
X83326398Y-122141678D01*
X83288559Y-122078548D01*
X83257090Y-122012013D01*
X83232295Y-121942714D01*
X83214411Y-121871318D01*
X83203611Y-121798513D01*
X83200000Y-121725000D01*
X83200000Y-119725000D01*
X83203611Y-119651487D01*
X83214411Y-119578682D01*
X83232295Y-119507286D01*
X83257090Y-119437987D01*
X83288559Y-119371452D01*
X83326398Y-119308322D01*
X83370242Y-119249205D01*
X83419670Y-119194670D01*
X83474205Y-119145242D01*
X83533322Y-119101398D01*
X83596452Y-119063559D01*
X83662987Y-119032090D01*
X83732286Y-119007295D01*
X83803682Y-118989411D01*
X83876487Y-118978611D01*
X83950000Y-118975000D01*
X85450000Y-118975000D01*
X85523513Y-118978611D01*
X85523513Y-118978611D01*
G37*
D17*
X84700000Y-120725000D03*
D14*
G36*
X88660765Y-123679213D02*
G01*
X88745704Y-123691813D01*
X88828999Y-123712677D01*
X88909848Y-123741605D01*
X88987472Y-123778319D01*
X89061124Y-123822464D01*
X89130094Y-123873616D01*
X89193718Y-123931282D01*
X89251384Y-123994906D01*
X89302536Y-124063876D01*
X89346681Y-124137528D01*
X89383395Y-124215152D01*
X89412323Y-124296001D01*
X89433187Y-124379296D01*
X89445787Y-124464235D01*
X89450000Y-124550000D01*
X89450000Y-126300000D01*
X89445787Y-126385765D01*
X89433187Y-126470704D01*
X89412323Y-126553999D01*
X89383395Y-126634848D01*
X89346681Y-126712472D01*
X89302536Y-126786124D01*
X89251384Y-126855094D01*
X89193718Y-126918718D01*
X89130094Y-126976384D01*
X89061124Y-127027536D01*
X88987472Y-127071681D01*
X88909848Y-127108395D01*
X88828999Y-127137323D01*
X88745704Y-127158187D01*
X88660765Y-127170787D01*
X88575000Y-127175000D01*
X86825000Y-127175000D01*
X86739235Y-127170787D01*
X86654296Y-127158187D01*
X86571001Y-127137323D01*
X86490152Y-127108395D01*
X86412528Y-127071681D01*
X86338876Y-127027536D01*
X86269906Y-126976384D01*
X86206282Y-126918718D01*
X86148616Y-126855094D01*
X86097464Y-126786124D01*
X86053319Y-126712472D01*
X86016605Y-126634848D01*
X85987677Y-126553999D01*
X85966813Y-126470704D01*
X85954213Y-126385765D01*
X85950000Y-126300000D01*
X85950000Y-124550000D01*
X85954213Y-124464235D01*
X85966813Y-124379296D01*
X85987677Y-124296001D01*
X86016605Y-124215152D01*
X86053319Y-124137528D01*
X86097464Y-124063876D01*
X86148616Y-123994906D01*
X86206282Y-123931282D01*
X86269906Y-123873616D01*
X86338876Y-123822464D01*
X86412528Y-123778319D01*
X86490152Y-123741605D01*
X86571001Y-123712677D01*
X86654296Y-123691813D01*
X86739235Y-123679213D01*
X86825000Y-123675000D01*
X88575000Y-123675000D01*
X88660765Y-123679213D01*
X88660765Y-123679213D01*
G37*
D18*
X87700000Y-125425000D03*
D11*
X100225000Y-64845000D03*
X97685000Y-64845000D03*
X95145000Y-64845000D03*
X92605000Y-64845000D03*
X90065000Y-64845000D03*
D12*
X87525000Y-64845000D03*
D19*
X91970000Y-92150000D03*
X94510000Y-90880000D03*
X91970000Y-89610000D03*
X94510000Y-88340000D03*
X91970000Y-87070000D03*
D20*
X94510000Y-85800000D03*
D19*
X91970000Y-108660000D03*
X94510000Y-107390000D03*
X91970000Y-106120000D03*
X94510000Y-104850000D03*
X91970000Y-103580000D03*
D20*
X94510000Y-102310000D03*
D10*
X93150000Y-76325000D03*
X93150000Y-78865000D03*
D21*
X157465000Y-110720000D03*
D22*
X149465000Y-115920000D03*
X150665000Y-113220000D03*
D21*
X146265000Y-106620000D03*
D23*
X153565000Y-106120000D03*
D21*
X157465000Y-94845000D03*
D22*
X149465000Y-100045000D03*
X150665000Y-97345000D03*
D21*
X146265000Y-90745000D03*
D23*
X153565000Y-90245000D03*
D24*
X110385000Y-123030000D03*
X118640000Y-123030000D03*
X126895000Y-123030000D03*
X135150000Y-123030000D03*
X140230000Y-121285000D03*
D25*
X153565000Y-72230000D03*
X101114000Y-79977000D03*
X105076000Y-71341000D03*
X109865372Y-64852372D03*
X156105000Y-78580000D03*
X147391117Y-120528884D03*
X155470000Y-128745000D03*
X84985000Y-77310000D03*
X143833000Y-71595000D03*
X140230000Y-86962000D03*
X146834000Y-84422000D03*
X111325322Y-69180106D03*
X123466000Y-72230000D03*
X123974000Y-86708000D03*
X134642000Y-76294000D03*
X144672207Y-134457207D03*
X83715000Y-107790000D03*
X83715000Y-103345000D03*
X83715000Y-90645000D03*
X151660000Y-135730000D03*
X84985000Y-105250000D03*
X83715000Y-87470000D03*
X149120000Y-133190000D03*
X125752000Y-108065010D03*
X124459997Y-101440000D03*
X122659994Y-101440000D03*
X121688883Y-108298883D03*
X124990000Y-110330000D03*
X126260000Y-101440000D03*
X128519475Y-110356525D03*
X128292000Y-101440000D03*
X107500000Y-76675000D03*
X111020000Y-76675000D03*
X134642000Y-83914000D03*
X130809997Y-86708000D03*
X130832000Y-92804000D03*
X132610000Y-86708000D03*
X132610000Y-94328000D03*
X127209991Y-86708000D03*
X127231994Y-92804000D03*
X129009994Y-86708000D03*
X129054000Y-95344000D03*
X134642000Y-74262000D03*
X132610000Y-72230000D03*
D26*
X116862000Y-71722000D03*
X117370000Y-74262000D03*
D25*
X103170000Y-79949161D03*
X116120000Y-77818000D03*
D27*
X96209919Y-62578000D02*
X95145000Y-63642919D01*
X130578000Y-73754000D02*
X130578000Y-71722000D01*
X117863990Y-63071990D02*
X117370000Y-62578000D01*
X117863990Y-70307110D02*
X117863990Y-63071990D01*
X95145000Y-63642919D02*
X95145000Y-64845000D01*
X118262880Y-70706000D02*
X117863990Y-70307110D01*
X129562000Y-70706000D02*
X118262880Y-70706000D01*
X130578000Y-71722000D02*
X129562000Y-70706000D01*
X117370000Y-62578000D02*
X96209919Y-62578000D01*
X133118000Y-76294000D02*
X130578000Y-73754000D01*
X134642000Y-76294000D02*
X133118000Y-76294000D01*
X82445000Y-109060000D02*
X83715000Y-107790000D01*
X83715000Y-102213630D02*
X82445000Y-100943630D01*
X83715000Y-103345000D02*
X83715000Y-102213630D01*
X82445000Y-100943630D02*
X82445000Y-94455000D01*
X95500000Y-105840000D02*
X94510000Y-104850000D01*
X101600000Y-105840000D02*
X95500000Y-105840000D01*
X82445000Y-94455000D02*
X82445000Y-91915000D01*
X82445000Y-91915000D02*
X83715000Y-90645000D01*
X82447793Y-127475000D02*
X89430000Y-134457207D01*
X82445000Y-127475000D02*
X82447793Y-127475000D01*
X82445000Y-127475000D02*
X82445000Y-109060000D01*
X144672207Y-134457207D02*
X89430000Y-134457207D01*
X84985000Y-105250000D02*
X81175000Y-105250000D01*
X81175000Y-105250000D02*
X81175000Y-90645000D01*
X81175000Y-90645000D02*
X81175000Y-90010000D01*
X81175000Y-90010000D02*
X83715000Y-87470000D01*
X101600000Y-101950000D02*
X101600000Y-103300000D01*
X100549999Y-100899999D02*
X101600000Y-101950000D01*
X91970000Y-101440000D02*
X92510001Y-100899999D01*
X92510001Y-100899999D02*
X100549999Y-100899999D01*
X91970000Y-103580000D02*
X91970000Y-101440000D01*
X145945000Y-135730000D02*
X144675000Y-135730000D01*
X149120000Y-135730000D02*
X149120000Y-133825000D01*
X144675000Y-135730000D02*
X149120000Y-135730000D01*
X88795000Y-135730000D02*
X81175000Y-128110000D01*
X81175000Y-128110000D02*
X81175000Y-105250000D01*
X144675000Y-135730000D02*
X88795000Y-135730000D01*
X149120000Y-135730000D02*
X151660000Y-135730000D01*
X149120000Y-133825000D02*
X149120000Y-133190000D01*
X125752000Y-106519179D02*
X125752000Y-108065010D01*
X125259996Y-106027175D02*
X125752000Y-106519179D01*
X125259996Y-102239999D02*
X125259996Y-106027175D01*
X124459997Y-101440000D02*
X125259996Y-102239999D01*
X122659994Y-107327772D02*
X121688883Y-108298883D01*
X122659994Y-101440000D02*
X122659994Y-107327772D01*
X126260000Y-109568000D02*
X124990000Y-110330000D01*
X127269474Y-108558526D02*
X126260000Y-109568000D01*
X127269474Y-107540279D02*
X127269474Y-108558526D01*
X126260000Y-102571370D02*
X127276000Y-103587370D01*
X126260000Y-101440000D02*
X126260000Y-102571370D01*
X127276000Y-107533753D02*
X127269474Y-107540279D01*
X127276000Y-103587370D02*
X127276000Y-107533753D01*
X128519475Y-108832525D02*
X128519475Y-110356525D01*
X128292000Y-108605050D02*
X128519475Y-108832525D01*
X128292000Y-101440000D02*
X128292000Y-108605050D01*
X107500000Y-76675000D02*
X111020000Y-76675000D01*
X142770000Y-92042000D02*
X142770000Y-94074000D01*
X134642000Y-83914000D02*
X142770000Y-92042000D01*
X130809997Y-92781997D02*
X130832000Y-92804000D01*
X130809997Y-86708000D02*
X130809997Y-92781997D01*
X132610000Y-92550000D02*
X132610000Y-86708000D01*
X132610000Y-94328000D02*
X132610000Y-92550000D01*
X127209991Y-92781997D02*
X127231994Y-92804000D01*
X127209991Y-86708000D02*
X127209991Y-92781997D01*
X129009994Y-92781997D02*
X129009994Y-86708000D01*
X129054000Y-95344000D02*
X129009994Y-92781997D01*
X132610000Y-72230000D02*
X134642000Y-74262000D01*
X116862000Y-73754000D02*
X117370000Y-74262000D01*
X116862000Y-71722000D02*
X116862000Y-73754000D01*
X113988839Y-79949161D02*
X116120000Y-77818000D01*
X103170000Y-79949161D02*
X113988839Y-79949161D01*
D28*
G36*
X94549956Y-62986385D02*
G01*
X94516183Y-63014102D01*
X94405589Y-63148861D01*
X94323411Y-63302607D01*
X94306933Y-63356928D01*
X94274312Y-63464463D01*
X94272805Y-63469430D01*
X94260000Y-63599443D01*
X94260000Y-63599450D01*
X94255719Y-63642919D01*
X94256706Y-63652944D01*
X94089866Y-63789866D01*
X93904294Y-64015986D01*
X93875000Y-64070791D01*
X93845706Y-64015986D01*
X93660134Y-63789866D01*
X93434014Y-63604294D01*
X93176034Y-63466401D01*
X92896111Y-63381487D01*
X92677950Y-63360000D01*
X92532050Y-63360000D01*
X92313889Y-63381487D01*
X92033966Y-63466401D01*
X91775986Y-63604294D01*
X91549866Y-63789866D01*
X91364294Y-64015986D01*
X91335000Y-64070791D01*
X91305706Y-64015986D01*
X91120134Y-63789866D01*
X90894014Y-63604294D01*
X90636034Y-63466401D01*
X90356111Y-63381487D01*
X90137950Y-63360000D01*
X89992050Y-63360000D01*
X89773889Y-63381487D01*
X89493966Y-63466401D01*
X89235986Y-63604294D01*
X89009866Y-63789866D01*
X88985393Y-63819687D01*
X88964502Y-63750820D01*
X88905537Y-63640506D01*
X88826185Y-63543815D01*
X88729494Y-63464463D01*
X88619180Y-63405498D01*
X88499482Y-63369188D01*
X88375000Y-63356928D01*
X87810750Y-63360000D01*
X87652000Y-63518750D01*
X87652000Y-64718000D01*
X87672000Y-64718000D01*
X87672000Y-64972000D01*
X87652000Y-64972000D01*
X87652000Y-66171250D01*
X87810750Y-66330000D01*
X88375000Y-66333072D01*
X88499482Y-66320812D01*
X88619180Y-66284502D01*
X88729494Y-66225537D01*
X88826185Y-66146185D01*
X88905537Y-66049494D01*
X88964502Y-65939180D01*
X88985393Y-65870313D01*
X89009866Y-65900134D01*
X89235986Y-66085706D01*
X89493966Y-66223599D01*
X89773889Y-66308513D01*
X89992050Y-66330000D01*
X90137950Y-66330000D01*
X90356111Y-66308513D01*
X90636034Y-66223599D01*
X90894014Y-66085706D01*
X91120134Y-65900134D01*
X91305706Y-65674014D01*
X91335000Y-65619209D01*
X91364294Y-65674014D01*
X91549866Y-65900134D01*
X91775986Y-66085706D01*
X92033966Y-66223599D01*
X92313889Y-66308513D01*
X92532050Y-66330000D01*
X92677950Y-66330000D01*
X92896111Y-66308513D01*
X93176034Y-66223599D01*
X93434014Y-66085706D01*
X93660134Y-65900134D01*
X93845706Y-65674014D01*
X93875000Y-65619209D01*
X93904294Y-65674014D01*
X94089866Y-65900134D01*
X94315986Y-66085706D01*
X94573966Y-66223599D01*
X94853889Y-66308513D01*
X95072050Y-66330000D01*
X95217950Y-66330000D01*
X95436111Y-66308513D01*
X95716034Y-66223599D01*
X95974014Y-66085706D01*
X96200134Y-65900134D01*
X96385706Y-65674014D01*
X96415000Y-65619209D01*
X96444294Y-65674014D01*
X96629866Y-65900134D01*
X96855986Y-66085706D01*
X97113966Y-66223599D01*
X97393889Y-66308513D01*
X97612050Y-66330000D01*
X97757950Y-66330000D01*
X97976111Y-66308513D01*
X98256034Y-66223599D01*
X98514014Y-66085706D01*
X98740134Y-65900134D01*
X98925706Y-65674014D01*
X98955000Y-65619209D01*
X98984294Y-65674014D01*
X99169866Y-65900134D01*
X99395986Y-66085706D01*
X99653966Y-66223599D01*
X99933889Y-66308513D01*
X100152050Y-66330000D01*
X100297950Y-66330000D01*
X100516111Y-66308513D01*
X100796034Y-66223599D01*
X101054014Y-66085706D01*
X101280134Y-65900134D01*
X101465706Y-65674014D01*
X101603599Y-65416034D01*
X101688513Y-65136111D01*
X101717185Y-64845000D01*
X101688513Y-64553889D01*
X101603599Y-64273966D01*
X101465706Y-64015986D01*
X101280134Y-63789866D01*
X101054014Y-63604294D01*
X100796034Y-63466401D01*
X100784822Y-63463000D01*
X116978991Y-63463000D01*
X116978990Y-70263641D01*
X116974709Y-70307110D01*
X116978990Y-70350579D01*
X116978990Y-70350586D01*
X116991795Y-70480599D01*
X117042401Y-70647422D01*
X117075407Y-70709172D01*
X116963939Y-70687000D01*
X116760061Y-70687000D01*
X116560102Y-70726774D01*
X116371744Y-70804795D01*
X116202226Y-70918063D01*
X116058063Y-71062226D01*
X115944795Y-71231744D01*
X115866774Y-71420102D01*
X115827000Y-71620061D01*
X115827000Y-71823939D01*
X115866774Y-72023898D01*
X115944795Y-72212256D01*
X115977000Y-72260455D01*
X115977001Y-73710521D01*
X115972719Y-73754000D01*
X115989805Y-73927490D01*
X116040412Y-74094313D01*
X116122590Y-74248059D01*
X116205468Y-74349046D01*
X116205471Y-74349049D01*
X116233184Y-74382817D01*
X116266952Y-74410530D01*
X116363465Y-74507043D01*
X116374774Y-74563898D01*
X116452795Y-74752256D01*
X116566063Y-74921774D01*
X116710226Y-75065937D01*
X116879744Y-75179205D01*
X117068102Y-75257226D01*
X117268061Y-75297000D01*
X117471939Y-75297000D01*
X117671898Y-75257226D01*
X117860256Y-75179205D01*
X118029774Y-75065937D01*
X118173937Y-74921774D01*
X118287205Y-74752256D01*
X118365226Y-74563898D01*
X118405000Y-74363939D01*
X118405000Y-74160061D01*
X118365226Y-73960102D01*
X118287205Y-73771744D01*
X118173937Y-73602226D01*
X118029774Y-73458063D01*
X117860256Y-73344795D01*
X117747000Y-73297882D01*
X117747000Y-72260454D01*
X117779205Y-72212256D01*
X117857226Y-72023898D01*
X117897000Y-71823939D01*
X117897000Y-71620061D01*
X117873376Y-71501297D01*
X117922566Y-71527589D01*
X118073807Y-71573468D01*
X118089390Y-71578195D01*
X118219403Y-71591000D01*
X118219411Y-71591000D01*
X118262880Y-71595281D01*
X118306349Y-71591000D01*
X129195422Y-71591000D01*
X129693001Y-72088580D01*
X129693000Y-73710531D01*
X129688719Y-73754000D01*
X129693000Y-73797469D01*
X129693000Y-73797476D01*
X129705805Y-73927489D01*
X129756411Y-74094312D01*
X129838589Y-74248058D01*
X129949183Y-74382817D01*
X129982956Y-74410534D01*
X132461470Y-76889049D01*
X132489183Y-76922817D01*
X132522951Y-76950530D01*
X132522953Y-76950532D01*
X132551216Y-76973727D01*
X132623941Y-77033411D01*
X132777687Y-77115589D01*
X132944510Y-77166195D01*
X133074523Y-77179000D01*
X133074533Y-77179000D01*
X133117999Y-77183281D01*
X133161465Y-77179000D01*
X133507479Y-77179000D01*
X133527363Y-77208759D01*
X133727241Y-77408637D01*
X133962273Y-77565680D01*
X134223426Y-77673853D01*
X134500665Y-77729000D01*
X134783335Y-77729000D01*
X135060574Y-77673853D01*
X135321727Y-77565680D01*
X135556759Y-77408637D01*
X135756637Y-77208759D01*
X135913680Y-76973727D01*
X136021853Y-76712574D01*
X136077000Y-76435335D01*
X136077000Y-76152665D01*
X136021853Y-75875426D01*
X135913680Y-75614273D01*
X135756637Y-75379241D01*
X135655396Y-75278000D01*
X135756637Y-75176759D01*
X135913680Y-74941727D01*
X136021853Y-74680574D01*
X136077000Y-74403335D01*
X136077000Y-74120665D01*
X136021853Y-73843426D01*
X135913680Y-73582273D01*
X135756637Y-73347241D01*
X135556759Y-73147363D01*
X135321727Y-72990320D01*
X135060574Y-72882147D01*
X134783335Y-72827000D01*
X134500665Y-72827000D01*
X134465561Y-72833983D01*
X134038017Y-72406439D01*
X134045000Y-72371335D01*
X134045000Y-72088665D01*
X133989853Y-71811426D01*
X133881680Y-71550273D01*
X133724637Y-71315241D01*
X133524759Y-71115363D01*
X133289727Y-70958320D01*
X133028574Y-70850147D01*
X132751335Y-70795000D01*
X132468665Y-70795000D01*
X132191426Y-70850147D01*
X131930273Y-70958320D01*
X131695241Y-71115363D01*
X131495363Y-71315241D01*
X131415631Y-71434569D01*
X131399589Y-71381687D01*
X131317411Y-71227941D01*
X131238244Y-71131476D01*
X131234532Y-71126953D01*
X131234530Y-71126951D01*
X131206817Y-71093183D01*
X131173049Y-71065470D01*
X130892579Y-70785000D01*
X137634353Y-70785000D01*
X137668000Y-70788314D01*
X137701647Y-70785000D01*
X137802283Y-70775088D01*
X137931406Y-70735919D01*
X138050407Y-70672312D01*
X138154711Y-70586711D01*
X138240312Y-70482407D01*
X138303919Y-70363406D01*
X138343088Y-70234283D01*
X138356314Y-70100000D01*
X138353000Y-70066353D01*
X138353000Y-65024872D01*
X157680000Y-65024872D01*
X157680000Y-65465128D01*
X157765890Y-65896925D01*
X157934369Y-66303669D01*
X158178962Y-66669729D01*
X158490271Y-66981038D01*
X158856331Y-67225631D01*
X159263075Y-67394110D01*
X159694872Y-67480000D01*
X160135128Y-67480000D01*
X160566925Y-67394110D01*
X160973669Y-67225631D01*
X161339729Y-66981038D01*
X161651038Y-66669729D01*
X161895631Y-66303669D01*
X162064110Y-65896925D01*
X162150000Y-65465128D01*
X162150000Y-65024872D01*
X162064110Y-64593075D01*
X161895631Y-64186331D01*
X161651038Y-63820271D01*
X161339729Y-63508962D01*
X160973669Y-63264369D01*
X160566925Y-63095890D01*
X160135128Y-63010000D01*
X159694872Y-63010000D01*
X159263075Y-63095890D01*
X158856331Y-63264369D01*
X158490271Y-63508962D01*
X158178962Y-63820271D01*
X157934369Y-64186331D01*
X157765890Y-64593075D01*
X157680000Y-65024872D01*
X138353000Y-65024872D01*
X138353000Y-62685000D01*
X162315000Y-62685000D01*
X162315001Y-136315000D01*
X152970917Y-136315000D01*
X153039853Y-136148574D01*
X153095000Y-135871335D01*
X153095000Y-135588665D01*
X153039853Y-135311426D01*
X152931680Y-135050273D01*
X152774637Y-134815241D01*
X152574759Y-134615363D01*
X152339727Y-134458320D01*
X152078574Y-134350147D01*
X151801335Y-134295000D01*
X151518665Y-134295000D01*
X151241426Y-134350147D01*
X150980273Y-134458320D01*
X150745241Y-134615363D01*
X150545363Y-134815241D01*
X150525479Y-134845000D01*
X150005000Y-134845000D01*
X150005000Y-134324521D01*
X150034759Y-134304637D01*
X150234637Y-134104759D01*
X150391680Y-133869727D01*
X150499853Y-133608574D01*
X150500589Y-133604872D01*
X157680000Y-133604872D01*
X157680000Y-134045128D01*
X157765890Y-134476925D01*
X157934369Y-134883669D01*
X158178962Y-135249729D01*
X158490271Y-135561038D01*
X158856331Y-135805631D01*
X159263075Y-135974110D01*
X159694872Y-136060000D01*
X160135128Y-136060000D01*
X160566925Y-135974110D01*
X160973669Y-135805631D01*
X161339729Y-135561038D01*
X161651038Y-135249729D01*
X161895631Y-134883669D01*
X162064110Y-134476925D01*
X162150000Y-134045128D01*
X162150000Y-133604872D01*
X162064110Y-133173075D01*
X161895631Y-132766331D01*
X161651038Y-132400271D01*
X161339729Y-132088962D01*
X160973669Y-131844369D01*
X160566925Y-131675890D01*
X160135128Y-131590000D01*
X159694872Y-131590000D01*
X159263075Y-131675890D01*
X158856331Y-131844369D01*
X158490271Y-132088962D01*
X158178962Y-132400271D01*
X157934369Y-132766331D01*
X157765890Y-133173075D01*
X157680000Y-133604872D01*
X150500589Y-133604872D01*
X150555000Y-133331335D01*
X150555000Y-133048665D01*
X150499853Y-132771426D01*
X150391680Y-132510273D01*
X150234637Y-132275241D01*
X150034759Y-132075363D01*
X149799727Y-131918320D01*
X149538574Y-131810147D01*
X149261335Y-131755000D01*
X148978665Y-131755000D01*
X148701426Y-131810147D01*
X148440273Y-131918320D01*
X148205241Y-132075363D01*
X148005363Y-132275241D01*
X147848320Y-132510273D01*
X147740147Y-132771426D01*
X147685000Y-133048665D01*
X147685000Y-133331335D01*
X147740147Y-133608574D01*
X147848320Y-133869727D01*
X148005363Y-134104759D01*
X148205241Y-134304637D01*
X148235001Y-134324522D01*
X148235000Y-134845000D01*
X146058183Y-134845000D01*
X146107207Y-134598542D01*
X146107207Y-134315872D01*
X146052060Y-134038633D01*
X145943887Y-133777480D01*
X145786844Y-133542448D01*
X145586966Y-133342570D01*
X145351934Y-133185527D01*
X145090781Y-133077354D01*
X144813542Y-133022207D01*
X144530872Y-133022207D01*
X144253633Y-133077354D01*
X143992480Y-133185527D01*
X143757448Y-133342570D01*
X143557570Y-133542448D01*
X143537686Y-133572207D01*
X89796579Y-133572207D01*
X83330000Y-127105629D01*
X83330000Y-124550000D01*
X85311928Y-124550000D01*
X85311928Y-126300000D01*
X85341001Y-126595186D01*
X85427104Y-126879028D01*
X85566927Y-127140618D01*
X85755097Y-127369903D01*
X85984382Y-127558073D01*
X86245972Y-127697896D01*
X86529814Y-127783999D01*
X86825000Y-127813072D01*
X88575000Y-127813072D01*
X88870186Y-127783999D01*
X89154028Y-127697896D01*
X89415618Y-127558073D01*
X89644903Y-127369903D01*
X89833073Y-127140618D01*
X89972896Y-126879028D01*
X90058999Y-126595186D01*
X90088072Y-126300000D01*
X90088072Y-124550000D01*
X90058999Y-124254814D01*
X89972896Y-123970972D01*
X89833073Y-123709382D01*
X89644903Y-123480097D01*
X89415618Y-123291927D01*
X89154028Y-123152104D01*
X89025357Y-123113072D01*
X92450000Y-123113072D01*
X92574482Y-123100812D01*
X92694180Y-123064502D01*
X92804494Y-123005537D01*
X92901185Y-122926185D01*
X92980537Y-122829494D01*
X93039502Y-122719180D01*
X93075812Y-122599482D01*
X93088072Y-122475000D01*
X93088072Y-118975000D01*
X93075812Y-118850518D01*
X93039502Y-118730820D01*
X92980537Y-118620506D01*
X92901185Y-118523815D01*
X92804494Y-118444463D01*
X92694180Y-118385498D01*
X92574482Y-118349188D01*
X92450000Y-118336928D01*
X88950000Y-118336928D01*
X88825518Y-118349188D01*
X88705820Y-118385498D01*
X88595506Y-118444463D01*
X88498815Y-118523815D01*
X88419463Y-118620506D01*
X88360498Y-118730820D01*
X88324188Y-118850518D01*
X88311928Y-118975000D01*
X88311928Y-122475000D01*
X88324188Y-122599482D01*
X88360498Y-122719180D01*
X88419463Y-122829494D01*
X88498815Y-122926185D01*
X88595506Y-123005537D01*
X88672131Y-123046494D01*
X88575000Y-123036928D01*
X86825000Y-123036928D01*
X86529814Y-123066001D01*
X86245972Y-123152104D01*
X85984382Y-123291927D01*
X85755097Y-123480097D01*
X85566927Y-123709382D01*
X85427104Y-123970972D01*
X85341001Y-124254814D01*
X85311928Y-124550000D01*
X83330000Y-124550000D01*
X83330000Y-123112743D01*
X84414250Y-123110000D01*
X84573000Y-122951250D01*
X84573000Y-120852000D01*
X84827000Y-120852000D01*
X84827000Y-122951250D01*
X84985750Y-123110000D01*
X86200000Y-123113072D01*
X86324482Y-123100812D01*
X86444180Y-123064502D01*
X86554494Y-123005537D01*
X86651185Y-122926185D01*
X86730537Y-122829494D01*
X86789502Y-122719180D01*
X86825812Y-122599482D01*
X86838072Y-122475000D01*
X86835000Y-121010750D01*
X86676250Y-120852000D01*
X84827000Y-120852000D01*
X84573000Y-120852000D01*
X84553000Y-120852000D01*
X84553000Y-120598000D01*
X84573000Y-120598000D01*
X84573000Y-118498750D01*
X84827000Y-118498750D01*
X84827000Y-120598000D01*
X86676250Y-120598000D01*
X86835000Y-120439250D01*
X86838072Y-118975000D01*
X86825812Y-118850518D01*
X86789502Y-118730820D01*
X86730537Y-118620506D01*
X86651185Y-118523815D01*
X86554494Y-118444463D01*
X86444180Y-118385498D01*
X86324482Y-118349188D01*
X86200000Y-118336928D01*
X84985750Y-118340000D01*
X84827000Y-118498750D01*
X84573000Y-118498750D01*
X84414250Y-118340000D01*
X83330000Y-118337257D01*
X83330000Y-116316122D01*
X146875825Y-116316122D01*
X146913469Y-116466622D01*
X147051843Y-116778317D01*
X147248367Y-117057027D01*
X147495489Y-117292042D01*
X147783712Y-117474330D01*
X148101959Y-117596886D01*
X148438000Y-117655000D01*
X149338000Y-117655000D01*
X149338000Y-116047000D01*
X149592000Y-116047000D01*
X149592000Y-117655000D01*
X150492000Y-117655000D01*
X150828041Y-117596886D01*
X151146288Y-117474330D01*
X151434511Y-117292042D01*
X151681633Y-117057027D01*
X151878157Y-116778317D01*
X152016531Y-116466622D01*
X152054175Y-116316122D01*
X151936125Y-116047000D01*
X149592000Y-116047000D01*
X149338000Y-116047000D01*
X146993875Y-116047000D01*
X146875825Y-116316122D01*
X83330000Y-116316122D01*
X83330000Y-115523878D01*
X146875825Y-115523878D01*
X146993875Y-115793000D01*
X149338000Y-115793000D01*
X149338000Y-115773000D01*
X149592000Y-115773000D01*
X149592000Y-115793000D01*
X151936125Y-115793000D01*
X152054175Y-115523878D01*
X152016531Y-115373378D01*
X151878157Y-115061683D01*
X151793016Y-114940936D01*
X151905119Y-114929895D01*
X152232168Y-114830686D01*
X152533578Y-114669579D01*
X152797766Y-114452766D01*
X153014579Y-114188578D01*
X153175686Y-113887168D01*
X153274895Y-113560119D01*
X153308394Y-113220000D01*
X153274895Y-112879881D01*
X153175686Y-112552832D01*
X153014579Y-112251422D01*
X152797766Y-111987234D01*
X152533578Y-111770421D01*
X152232168Y-111609314D01*
X151905119Y-111510105D01*
X151650225Y-111485000D01*
X149679775Y-111485000D01*
X149424881Y-111510105D01*
X149097832Y-111609314D01*
X148796422Y-111770421D01*
X148532234Y-111987234D01*
X148315421Y-112251422D01*
X148154314Y-112552832D01*
X148055105Y-112879881D01*
X148021606Y-113220000D01*
X148055105Y-113560119D01*
X148154314Y-113887168D01*
X148315421Y-114188578D01*
X148328084Y-114204008D01*
X148101959Y-114243114D01*
X147783712Y-114365670D01*
X147495489Y-114547958D01*
X147248367Y-114782973D01*
X147051843Y-115061683D01*
X146913469Y-115373378D01*
X146875825Y-115523878D01*
X83330000Y-115523878D01*
X83330000Y-109426578D01*
X83538561Y-109218017D01*
X83573665Y-109225000D01*
X83793940Y-109225000D01*
X83617214Y-109489489D01*
X83446851Y-109900782D01*
X83360000Y-110337409D01*
X83360000Y-110782591D01*
X83446851Y-111219218D01*
X83617214Y-111630511D01*
X83864544Y-112000666D01*
X84179334Y-112315456D01*
X84549489Y-112562786D01*
X84960782Y-112733149D01*
X85397409Y-112820000D01*
X85842591Y-112820000D01*
X86279218Y-112733149D01*
X86690511Y-112562786D01*
X87060666Y-112315456D01*
X87375456Y-112000666D01*
X87622786Y-111630511D01*
X87793149Y-111219218D01*
X87880000Y-110782591D01*
X87880000Y-110337409D01*
X87793149Y-109900782D01*
X87678559Y-109624137D01*
X91185469Y-109624137D01*
X91252206Y-109864025D01*
X91500892Y-109980924D01*
X91767606Y-110047061D01*
X92042097Y-110059895D01*
X92313817Y-110018931D01*
X92572326Y-109925744D01*
X92687794Y-109864025D01*
X92754531Y-109624137D01*
X91970000Y-108839605D01*
X91185469Y-109624137D01*
X87678559Y-109624137D01*
X87622786Y-109489489D01*
X87375456Y-109119334D01*
X87060666Y-108804544D01*
X86952242Y-108732097D01*
X90570105Y-108732097D01*
X90611069Y-109003817D01*
X90704256Y-109262326D01*
X90765975Y-109377794D01*
X91005863Y-109444531D01*
X91790395Y-108660000D01*
X92149605Y-108660000D01*
X92934137Y-109444531D01*
X93174025Y-109377794D01*
X93290924Y-109129108D01*
X93357061Y-108862394D01*
X93369895Y-108587903D01*
X93328931Y-108316183D01*
X93235744Y-108057674D01*
X93174025Y-107942206D01*
X92934137Y-107875469D01*
X92149605Y-108660000D01*
X91790395Y-108660000D01*
X91005863Y-107875469D01*
X90765975Y-107942206D01*
X90649076Y-108190892D01*
X90582939Y-108457606D01*
X90570105Y-108732097D01*
X86952242Y-108732097D01*
X86690511Y-108557214D01*
X86279218Y-108386851D01*
X85842591Y-108300000D01*
X85397409Y-108300000D01*
X85026416Y-108373795D01*
X85094853Y-108208574D01*
X85150000Y-107931335D01*
X85150000Y-107648665D01*
X85094853Y-107371426D01*
X84986680Y-107110273D01*
X84969217Y-107084137D01*
X91185469Y-107084137D01*
X91252206Y-107324025D01*
X91386882Y-107387332D01*
X91367674Y-107394256D01*
X91252206Y-107455975D01*
X91185469Y-107695863D01*
X91970000Y-108480395D01*
X92754531Y-107695863D01*
X92687794Y-107455975D01*
X92553118Y-107392668D01*
X92572326Y-107385744D01*
X92687794Y-107324025D01*
X92754531Y-107084137D01*
X91970000Y-106299605D01*
X91185469Y-107084137D01*
X84969217Y-107084137D01*
X84829637Y-106875241D01*
X84629759Y-106675363D01*
X84553856Y-106624646D01*
X84566426Y-106629853D01*
X84843665Y-106685000D01*
X85126335Y-106685000D01*
X85403574Y-106629853D01*
X85664727Y-106521680D01*
X85899759Y-106364637D01*
X86072299Y-106192097D01*
X90570105Y-106192097D01*
X90611069Y-106463817D01*
X90704256Y-106722326D01*
X90765975Y-106837794D01*
X91005863Y-106904531D01*
X91790395Y-106120000D01*
X92149605Y-106120000D01*
X92934137Y-106904531D01*
X93174025Y-106837794D01*
X93290924Y-106589108D01*
X93357061Y-106322394D01*
X93369895Y-106047903D01*
X93328931Y-105776183D01*
X93235744Y-105517674D01*
X93174025Y-105402206D01*
X92934137Y-105335469D01*
X92149605Y-106120000D01*
X91790395Y-106120000D01*
X91005863Y-105335469D01*
X90765975Y-105402206D01*
X90649076Y-105650892D01*
X90582939Y-105917606D01*
X90570105Y-106192097D01*
X86072299Y-106192097D01*
X86099637Y-106164759D01*
X86256680Y-105929727D01*
X86364853Y-105668574D01*
X86420000Y-105391335D01*
X86420000Y-105108665D01*
X86364853Y-104831426D01*
X86256680Y-104570273D01*
X86099637Y-104335241D01*
X85899759Y-104135363D01*
X85664727Y-103978320D01*
X85403574Y-103870147D01*
X85126335Y-103815000D01*
X85073552Y-103815000D01*
X85094853Y-103763574D01*
X85150000Y-103486335D01*
X85150000Y-103442604D01*
X90575000Y-103442604D01*
X90575000Y-103717396D01*
X90628609Y-103986907D01*
X90733767Y-104240780D01*
X90886433Y-104469261D01*
X91080739Y-104663567D01*
X91309220Y-104816233D01*
X91385501Y-104847830D01*
X91367674Y-104854256D01*
X91252206Y-104915975D01*
X91185469Y-105155863D01*
X91970000Y-105940395D01*
X92754531Y-105155863D01*
X92687794Y-104915975D01*
X92548293Y-104850400D01*
X92630780Y-104816233D01*
X92859261Y-104663567D01*
X93053567Y-104469261D01*
X93206233Y-104240780D01*
X93311391Y-103986907D01*
X93365000Y-103717396D01*
X93365000Y-103575501D01*
X93395506Y-103600537D01*
X93505820Y-103659502D01*
X93625518Y-103695812D01*
X93713467Y-103704474D01*
X93620739Y-103766433D01*
X93426433Y-103960739D01*
X93273767Y-104189220D01*
X93168609Y-104443093D01*
X93115000Y-104712604D01*
X93115000Y-104987396D01*
X93168609Y-105256907D01*
X93273767Y-105510780D01*
X93426433Y-105739261D01*
X93620739Y-105933567D01*
X93849220Y-106086233D01*
X93930740Y-106120000D01*
X93849220Y-106153767D01*
X93620739Y-106306433D01*
X93426433Y-106500739D01*
X93273767Y-106729220D01*
X93168609Y-106983093D01*
X93115000Y-107252604D01*
X93115000Y-107527396D01*
X93168609Y-107796907D01*
X93273767Y-108050780D01*
X93426433Y-108279261D01*
X93620739Y-108473567D01*
X93849220Y-108626233D01*
X94103093Y-108731391D01*
X94372604Y-108785000D01*
X94647396Y-108785000D01*
X94889261Y-108736890D01*
X100158524Y-108736890D01*
X100203175Y-108884099D01*
X100328359Y-109146920D01*
X100502412Y-109380269D01*
X100718645Y-109575178D01*
X100968748Y-109724157D01*
X101243109Y-109821481D01*
X101473000Y-109700814D01*
X101473000Y-108507000D01*
X101727000Y-108507000D01*
X101727000Y-109700814D01*
X101956891Y-109821481D01*
X102231252Y-109724157D01*
X102481355Y-109575178D01*
X102697588Y-109380269D01*
X102871641Y-109146920D01*
X102996825Y-108884099D01*
X103041476Y-108736890D01*
X102920155Y-108507000D01*
X101727000Y-108507000D01*
X101473000Y-108507000D01*
X100279845Y-108507000D01*
X100158524Y-108736890D01*
X94889261Y-108736890D01*
X94916907Y-108731391D01*
X95170780Y-108626233D01*
X95399261Y-108473567D01*
X95593567Y-108279261D01*
X95746233Y-108050780D01*
X95851391Y-107796907D01*
X95905000Y-107527396D01*
X95905000Y-107252604D01*
X95851391Y-106983093D01*
X95746233Y-106729220D01*
X95743413Y-106725000D01*
X100405241Y-106725000D01*
X100544866Y-106895134D01*
X100770986Y-107080706D01*
X100835523Y-107115201D01*
X100718645Y-107184822D01*
X100502412Y-107379731D01*
X100328359Y-107613080D01*
X100203175Y-107875901D01*
X100158524Y-108023110D01*
X100279845Y-108253000D01*
X101473000Y-108253000D01*
X101473000Y-108233000D01*
X101727000Y-108233000D01*
X101727000Y-108253000D01*
X102920155Y-108253000D01*
X102970528Y-108157548D01*
X120253883Y-108157548D01*
X120253883Y-108440218D01*
X120309030Y-108717457D01*
X120417203Y-108978610D01*
X120574246Y-109213642D01*
X120774124Y-109413520D01*
X121009156Y-109570563D01*
X121270309Y-109678736D01*
X121547548Y-109733883D01*
X121830218Y-109733883D01*
X122107457Y-109678736D01*
X122368610Y-109570563D01*
X122603642Y-109413520D01*
X122803520Y-109213642D01*
X122960563Y-108978610D01*
X123068736Y-108717457D01*
X123123883Y-108440218D01*
X123123883Y-108157548D01*
X123116900Y-108122444D01*
X123255043Y-107984302D01*
X123288811Y-107956589D01*
X123333617Y-107901994D01*
X123399404Y-107821832D01*
X123399405Y-107821831D01*
X123481583Y-107668085D01*
X123532189Y-107501262D01*
X123544994Y-107371249D01*
X123544994Y-107371239D01*
X123549275Y-107327773D01*
X123544994Y-107284307D01*
X123544994Y-102574521D01*
X123559996Y-102564498D01*
X123780270Y-102711680D01*
X124041423Y-102819853D01*
X124318662Y-102875000D01*
X124374996Y-102875000D01*
X124374997Y-105983696D01*
X124370715Y-106027175D01*
X124387801Y-106200665D01*
X124438408Y-106367488D01*
X124520586Y-106521234D01*
X124603464Y-106622221D01*
X124603467Y-106622224D01*
X124631180Y-106655992D01*
X124664948Y-106683705D01*
X124867000Y-106885757D01*
X124867000Y-106930489D01*
X124837241Y-106950373D01*
X124637363Y-107150251D01*
X124480320Y-107385283D01*
X124372147Y-107646436D01*
X124317000Y-107923675D01*
X124317000Y-108206345D01*
X124372147Y-108483584D01*
X124480320Y-108744737D01*
X124612157Y-108942045D01*
X124571426Y-108950147D01*
X124310273Y-109058320D01*
X124075241Y-109215363D01*
X123875363Y-109415241D01*
X123718320Y-109650273D01*
X123610147Y-109911426D01*
X123555000Y-110188665D01*
X123555000Y-110471335D01*
X123610147Y-110748574D01*
X123718320Y-111009727D01*
X123875363Y-111244759D01*
X124075241Y-111444637D01*
X124310273Y-111601680D01*
X124571426Y-111709853D01*
X124848665Y-111765000D01*
X125131335Y-111765000D01*
X125408574Y-111709853D01*
X125669727Y-111601680D01*
X125904759Y-111444637D01*
X126104637Y-111244759D01*
X126261680Y-111009727D01*
X126369853Y-110748574D01*
X126418282Y-110505110D01*
X126696551Y-110338148D01*
X126754059Y-110307410D01*
X126804781Y-110265784D01*
X126857507Y-110226642D01*
X126901309Y-110178269D01*
X127139124Y-109940454D01*
X127084475Y-110215190D01*
X127084475Y-110497860D01*
X127139622Y-110775099D01*
X127247795Y-111036252D01*
X127404838Y-111271284D01*
X127604716Y-111471162D01*
X127839748Y-111628205D01*
X128100901Y-111736378D01*
X128378140Y-111791525D01*
X128660810Y-111791525D01*
X128938049Y-111736378D01*
X129199202Y-111628205D01*
X129434234Y-111471162D01*
X129634112Y-111271284D01*
X129791155Y-111036252D01*
X129899328Y-110775099D01*
X129954475Y-110497860D01*
X129954475Y-110215190D01*
X129899328Y-109937951D01*
X129791155Y-109676798D01*
X129634112Y-109441766D01*
X129434234Y-109241888D01*
X129404475Y-109222004D01*
X129404475Y-108875990D01*
X129408756Y-108832524D01*
X129404475Y-108789058D01*
X129404475Y-108789048D01*
X129391670Y-108659035D01*
X129341064Y-108492212D01*
X129258886Y-108338466D01*
X129177000Y-108238688D01*
X129177000Y-102574521D01*
X129206759Y-102554637D01*
X129406637Y-102354759D01*
X129563680Y-102119727D01*
X129671853Y-101858574D01*
X129727000Y-101581335D01*
X129727000Y-101298665D01*
X129671853Y-101021426D01*
X129563680Y-100760273D01*
X129406637Y-100525241D01*
X129206759Y-100325363D01*
X128971727Y-100168320D01*
X128710574Y-100060147D01*
X128433335Y-100005000D01*
X128150665Y-100005000D01*
X127873426Y-100060147D01*
X127612273Y-100168320D01*
X127377241Y-100325363D01*
X127276000Y-100426604D01*
X127174759Y-100325363D01*
X126939727Y-100168320D01*
X126678574Y-100060147D01*
X126401335Y-100005000D01*
X126118665Y-100005000D01*
X125841426Y-100060147D01*
X125580273Y-100168320D01*
X125359999Y-100315502D01*
X125139724Y-100168320D01*
X124878571Y-100060147D01*
X124601332Y-100005000D01*
X124318662Y-100005000D01*
X124041423Y-100060147D01*
X123780270Y-100168320D01*
X123559996Y-100315502D01*
X123339721Y-100168320D01*
X123078568Y-100060147D01*
X122801329Y-100005000D01*
X122518659Y-100005000D01*
X122241420Y-100060147D01*
X121980267Y-100168320D01*
X121745235Y-100325363D01*
X121545357Y-100525241D01*
X121388314Y-100760273D01*
X121280141Y-101021426D01*
X121224994Y-101298665D01*
X121224994Y-101581335D01*
X121280141Y-101858574D01*
X121388314Y-102119727D01*
X121545357Y-102354759D01*
X121745235Y-102554637D01*
X121774994Y-102574521D01*
X121774995Y-106863883D01*
X121547548Y-106863883D01*
X121270309Y-106919030D01*
X121009156Y-107027203D01*
X120774124Y-107184246D01*
X120574246Y-107384124D01*
X120417203Y-107619156D01*
X120309030Y-107880309D01*
X120253883Y-108157548D01*
X102970528Y-108157548D01*
X103041476Y-108023110D01*
X102996825Y-107875901D01*
X102871641Y-107613080D01*
X102697588Y-107379731D01*
X102481355Y-107184822D01*
X102364477Y-107115201D01*
X102429014Y-107080706D01*
X102655134Y-106895134D01*
X102840706Y-106669014D01*
X102978599Y-106411034D01*
X103063513Y-106131111D01*
X103092185Y-105840000D01*
X103063513Y-105548889D01*
X102978599Y-105268966D01*
X102840706Y-105010986D01*
X102655134Y-104784866D01*
X102625313Y-104760393D01*
X102694180Y-104739502D01*
X102804494Y-104680537D01*
X102901185Y-104601185D01*
X102980537Y-104504494D01*
X103039502Y-104394180D01*
X103075812Y-104274482D01*
X103088072Y-104150000D01*
X103088072Y-102450000D01*
X103075812Y-102325518D01*
X103039502Y-102205820D01*
X102980537Y-102095506D01*
X102901185Y-101998815D01*
X102804494Y-101919463D01*
X102694180Y-101860498D01*
X102574482Y-101824188D01*
X102475935Y-101814482D01*
X102472195Y-101776510D01*
X102455534Y-101721588D01*
X102421589Y-101609686D01*
X102339411Y-101455941D01*
X102256532Y-101354953D01*
X102256530Y-101354951D01*
X102228817Y-101321183D01*
X102195050Y-101293471D01*
X101206533Y-100304955D01*
X101178816Y-100271182D01*
X101044058Y-100160588D01*
X100890312Y-100078410D01*
X100723489Y-100027804D01*
X100593476Y-100014999D01*
X100593468Y-100014999D01*
X100549999Y-100010718D01*
X100506530Y-100014999D01*
X92553470Y-100014999D01*
X92510001Y-100010718D01*
X92466532Y-100014999D01*
X92466524Y-100014999D01*
X92336511Y-100027804D01*
X92169688Y-100078410D01*
X92015942Y-100160588D01*
X91881184Y-100271182D01*
X91853467Y-100304955D01*
X91374952Y-100783470D01*
X91341184Y-100811183D01*
X91313471Y-100844951D01*
X91313468Y-100844954D01*
X91230590Y-100945941D01*
X91148412Y-101099687D01*
X91097805Y-101266510D01*
X91080719Y-101440000D01*
X91085001Y-101483479D01*
X91085001Y-102493586D01*
X91080739Y-102496433D01*
X90886433Y-102690739D01*
X90733767Y-102919220D01*
X90628609Y-103173093D01*
X90575000Y-103442604D01*
X85150000Y-103442604D01*
X85150000Y-103203665D01*
X85094853Y-102926426D01*
X84986680Y-102665273D01*
X84911480Y-102552727D01*
X84960782Y-102573149D01*
X85397409Y-102660000D01*
X85842591Y-102660000D01*
X86279218Y-102573149D01*
X86690511Y-102402786D01*
X87060666Y-102155456D01*
X87375456Y-101840666D01*
X87622786Y-101470511D01*
X87793149Y-101059218D01*
X87880000Y-100622591D01*
X87880000Y-100177409D01*
X87793149Y-99740782D01*
X87622786Y-99329489D01*
X87375456Y-98959334D01*
X87060666Y-98644544D01*
X86690511Y-98397214D01*
X86279218Y-98226851D01*
X85842591Y-98140000D01*
X85397409Y-98140000D01*
X84960782Y-98226851D01*
X84549489Y-98397214D01*
X84179334Y-98644544D01*
X83864544Y-98959334D01*
X83617214Y-99329489D01*
X83446851Y-99740782D01*
X83360000Y-100177409D01*
X83360000Y-100607052D01*
X83330000Y-100577052D01*
X83330000Y-97122000D01*
X136705815Y-97122000D01*
X136734487Y-97413111D01*
X136819401Y-97693034D01*
X136957294Y-97951014D01*
X137142866Y-98177134D01*
X137368986Y-98362706D01*
X137423791Y-98392000D01*
X137368986Y-98421294D01*
X137142866Y-98606866D01*
X136957294Y-98832986D01*
X136819401Y-99090966D01*
X136734487Y-99370889D01*
X136705815Y-99662000D01*
X136734487Y-99953111D01*
X136819401Y-100233034D01*
X136957294Y-100491014D01*
X137142866Y-100717134D01*
X137368986Y-100902706D01*
X137423791Y-100932000D01*
X137368986Y-100961294D01*
X137142866Y-101146866D01*
X136957294Y-101372986D01*
X136819401Y-101630966D01*
X136734487Y-101910889D01*
X136705815Y-102202000D01*
X136734487Y-102493111D01*
X136819401Y-102773034D01*
X136957294Y-103031014D01*
X137142866Y-103257134D01*
X137368986Y-103442706D01*
X137423791Y-103472000D01*
X137368986Y-103501294D01*
X137142866Y-103686866D01*
X136957294Y-103912986D01*
X136819401Y-104170966D01*
X136734487Y-104450889D01*
X136705815Y-104742000D01*
X136734487Y-105033111D01*
X136819401Y-105313034D01*
X136957294Y-105571014D01*
X137142866Y-105797134D01*
X137368986Y-105982706D01*
X137423791Y-106012000D01*
X137368986Y-106041294D01*
X137142866Y-106226866D01*
X136957294Y-106452986D01*
X136819401Y-106710966D01*
X136734487Y-106990889D01*
X136705815Y-107282000D01*
X136734487Y-107573111D01*
X136819401Y-107853034D01*
X136957294Y-108111014D01*
X137142866Y-108337134D01*
X137368986Y-108522706D01*
X137423791Y-108552000D01*
X137368986Y-108581294D01*
X137142866Y-108766866D01*
X136957294Y-108992986D01*
X136819401Y-109250966D01*
X136734487Y-109530889D01*
X136705815Y-109822000D01*
X136734487Y-110113111D01*
X136819401Y-110393034D01*
X136957294Y-110651014D01*
X137142866Y-110877134D01*
X137172687Y-110901607D01*
X137103820Y-110922498D01*
X136993506Y-110981463D01*
X136896815Y-111060815D01*
X136817463Y-111157506D01*
X136758498Y-111267820D01*
X136722188Y-111387518D01*
X136709928Y-111512000D01*
X136709928Y-113212000D01*
X136722188Y-113336482D01*
X136758498Y-113456180D01*
X136817463Y-113566494D01*
X136896815Y-113663185D01*
X136993506Y-113742537D01*
X137103820Y-113801502D01*
X137223518Y-113837812D01*
X137348000Y-113850072D01*
X139048000Y-113850072D01*
X139172482Y-113837812D01*
X139292180Y-113801502D01*
X139402494Y-113742537D01*
X139499185Y-113663185D01*
X139578537Y-113566494D01*
X139637502Y-113456180D01*
X139673812Y-113336482D01*
X139686072Y-113212000D01*
X139686072Y-111512000D01*
X139673812Y-111387518D01*
X139637502Y-111267820D01*
X139578537Y-111157506D01*
X139499185Y-111060815D01*
X139402494Y-110981463D01*
X139292180Y-110922498D01*
X139223313Y-110901607D01*
X139253134Y-110877134D01*
X139438706Y-110651014D01*
X139576599Y-110393034D01*
X139661513Y-110113111D01*
X139690185Y-109822000D01*
X139681595Y-109734775D01*
X155730000Y-109734775D01*
X155730000Y-111705224D01*
X155755105Y-111960118D01*
X155854314Y-112287167D01*
X156015421Y-112588577D01*
X156232234Y-112852766D01*
X156496422Y-113069579D01*
X156797832Y-113230686D01*
X157124881Y-113329895D01*
X157465000Y-113363394D01*
X157805118Y-113329895D01*
X158132167Y-113230686D01*
X158433577Y-113069579D01*
X158697766Y-112852766D01*
X158914579Y-112588578D01*
X159075686Y-112287168D01*
X159174895Y-111960119D01*
X159200000Y-111705225D01*
X159200000Y-109734775D01*
X159174895Y-109479881D01*
X159075686Y-109152832D01*
X158914579Y-108851422D01*
X158697766Y-108587234D01*
X158433578Y-108370421D01*
X158132168Y-108209314D01*
X157805119Y-108110105D01*
X157465000Y-108076606D01*
X157124882Y-108110105D01*
X156797833Y-108209314D01*
X156496423Y-108370421D01*
X156232235Y-108587234D01*
X156015422Y-108851422D01*
X155854315Y-109152832D01*
X155755106Y-109479881D01*
X155730000Y-109734775D01*
X139681595Y-109734775D01*
X139661513Y-109530889D01*
X139576599Y-109250966D01*
X139438706Y-108992986D01*
X139253134Y-108766866D01*
X139027014Y-108581294D01*
X138972209Y-108552000D01*
X139027014Y-108522706D01*
X139253134Y-108337134D01*
X139438706Y-108111014D01*
X139576599Y-107853034D01*
X139661513Y-107573111D01*
X139690185Y-107282000D01*
X139661513Y-106990889D01*
X139576599Y-106710966D01*
X139438706Y-106452986D01*
X139253134Y-106226866D01*
X139027014Y-106041294D01*
X138972209Y-106012000D01*
X139027014Y-105982706D01*
X139106749Y-105917269D01*
X142028336Y-105917269D01*
X142087797Y-106151037D01*
X142326242Y-106261934D01*
X142581740Y-106324183D01*
X142844473Y-106335390D01*
X143104344Y-106295125D01*
X143351366Y-106204935D01*
X143452203Y-106151037D01*
X143511664Y-105917269D01*
X142770000Y-105175605D01*
X142028336Y-105917269D01*
X139106749Y-105917269D01*
X139253134Y-105797134D01*
X139438706Y-105571014D01*
X139576599Y-105313034D01*
X139650179Y-105070473D01*
X141430610Y-105070473D01*
X141470875Y-105330344D01*
X141561065Y-105577366D01*
X141614963Y-105678203D01*
X141848731Y-105737664D01*
X142590395Y-104996000D01*
X142949605Y-104996000D01*
X143691269Y-105737664D01*
X143925037Y-105678203D01*
X143945234Y-105634775D01*
X144530000Y-105634775D01*
X144530000Y-107605224D01*
X144555105Y-107860118D01*
X144654314Y-108187167D01*
X144815421Y-108488577D01*
X145032234Y-108752766D01*
X145296422Y-108969579D01*
X145597832Y-109130686D01*
X145924881Y-109229895D01*
X146265000Y-109263394D01*
X146605118Y-109229895D01*
X146932167Y-109130686D01*
X147233577Y-108969579D01*
X147497766Y-108752766D01*
X147714579Y-108488578D01*
X147875686Y-108187168D01*
X147974895Y-107860119D01*
X148000000Y-107605225D01*
X148000000Y-105634775D01*
X147974895Y-105379881D01*
X147875686Y-105052832D01*
X147858137Y-105020000D01*
X150926928Y-105020000D01*
X150926928Y-107220000D01*
X150939188Y-107344482D01*
X150975498Y-107464180D01*
X151034463Y-107574494D01*
X151113815Y-107671185D01*
X151210506Y-107750537D01*
X151320820Y-107809502D01*
X151440518Y-107845812D01*
X151565000Y-107858072D01*
X155565000Y-107858072D01*
X155689482Y-107845812D01*
X155809180Y-107809502D01*
X155919494Y-107750537D01*
X156016185Y-107671185D01*
X156095537Y-107574494D01*
X156154502Y-107464180D01*
X156190812Y-107344482D01*
X156203072Y-107220000D01*
X156203072Y-105020000D01*
X156190812Y-104895518D01*
X156154502Y-104775820D01*
X156095537Y-104665506D01*
X156016185Y-104568815D01*
X155919494Y-104489463D01*
X155809180Y-104430498D01*
X155689482Y-104394188D01*
X155565000Y-104381928D01*
X151565000Y-104381928D01*
X151440518Y-104394188D01*
X151320820Y-104430498D01*
X151210506Y-104489463D01*
X151113815Y-104568815D01*
X151034463Y-104665506D01*
X150975498Y-104775820D01*
X150939188Y-104895518D01*
X150926928Y-105020000D01*
X147858137Y-105020000D01*
X147714579Y-104751422D01*
X147497766Y-104487234D01*
X147233578Y-104270421D01*
X146932168Y-104109314D01*
X146605119Y-104010105D01*
X146265000Y-103976606D01*
X145924882Y-104010105D01*
X145597833Y-104109314D01*
X145296423Y-104270421D01*
X145032235Y-104487234D01*
X144815422Y-104751422D01*
X144654315Y-105052832D01*
X144555106Y-105379881D01*
X144530000Y-105634775D01*
X143945234Y-105634775D01*
X144035934Y-105439758D01*
X144098183Y-105184260D01*
X144109390Y-104921527D01*
X144069125Y-104661656D01*
X143978935Y-104414634D01*
X143925037Y-104313797D01*
X143691269Y-104254336D01*
X142949605Y-104996000D01*
X142590395Y-104996000D01*
X141848731Y-104254336D01*
X141614963Y-104313797D01*
X141504066Y-104552242D01*
X141441817Y-104807740D01*
X141430610Y-105070473D01*
X139650179Y-105070473D01*
X139661513Y-105033111D01*
X139690185Y-104742000D01*
X139661513Y-104450889D01*
X139576599Y-104170966D01*
X139438706Y-103912986D01*
X139253134Y-103686866D01*
X139027014Y-103501294D01*
X138972209Y-103472000D01*
X139027014Y-103442706D01*
X139253134Y-103257134D01*
X139438706Y-103031014D01*
X139576599Y-102773034D01*
X139661513Y-102493111D01*
X139678118Y-102324514D01*
X141435000Y-102324514D01*
X141435000Y-102587486D01*
X141486304Y-102845405D01*
X141586939Y-103088359D01*
X141733038Y-103307013D01*
X141918987Y-103492962D01*
X142137641Y-103639061D01*
X142351444Y-103727621D01*
X142188634Y-103787065D01*
X142087797Y-103840963D01*
X142028336Y-104074731D01*
X142770000Y-104816395D01*
X143511664Y-104074731D01*
X143452203Y-103840963D01*
X143213758Y-103730066D01*
X143194173Y-103725294D01*
X143402359Y-103639061D01*
X143621013Y-103492962D01*
X143806962Y-103307013D01*
X143953061Y-103088359D01*
X144053696Y-102845405D01*
X144105000Y-102587486D01*
X144105000Y-102324514D01*
X144053696Y-102066595D01*
X143953061Y-101823641D01*
X143806962Y-101604987D01*
X143621013Y-101419038D01*
X143402359Y-101272939D01*
X143159405Y-101172304D01*
X142901486Y-101121000D01*
X142638514Y-101121000D01*
X142380595Y-101172304D01*
X142137641Y-101272939D01*
X141918987Y-101419038D01*
X141733038Y-101604987D01*
X141586939Y-101823641D01*
X141486304Y-102066595D01*
X141435000Y-102324514D01*
X139678118Y-102324514D01*
X139690185Y-102202000D01*
X139661513Y-101910889D01*
X139576599Y-101630966D01*
X139438706Y-101372986D01*
X139253134Y-101146866D01*
X139027014Y-100961294D01*
X138972209Y-100932000D01*
X139027014Y-100902706D01*
X139253134Y-100717134D01*
X139438706Y-100491014D01*
X139465373Y-100441122D01*
X146875825Y-100441122D01*
X146913469Y-100591622D01*
X147051843Y-100903317D01*
X147248367Y-101182027D01*
X147495489Y-101417042D01*
X147783712Y-101599330D01*
X148101959Y-101721886D01*
X148438000Y-101780000D01*
X149338000Y-101780000D01*
X149338000Y-100172000D01*
X149592000Y-100172000D01*
X149592000Y-101780000D01*
X150492000Y-101780000D01*
X150828041Y-101721886D01*
X151146288Y-101599330D01*
X151434511Y-101417042D01*
X151681633Y-101182027D01*
X151878157Y-100903317D01*
X152016531Y-100591622D01*
X152054175Y-100441122D01*
X151936125Y-100172000D01*
X149592000Y-100172000D01*
X149338000Y-100172000D01*
X146993875Y-100172000D01*
X146875825Y-100441122D01*
X139465373Y-100441122D01*
X139576599Y-100233034D01*
X139661513Y-99953111D01*
X139690185Y-99662000D01*
X139688893Y-99648878D01*
X146875825Y-99648878D01*
X146993875Y-99918000D01*
X149338000Y-99918000D01*
X149338000Y-99898000D01*
X149592000Y-99898000D01*
X149592000Y-99918000D01*
X151936125Y-99918000D01*
X152054175Y-99648878D01*
X152016531Y-99498378D01*
X151878157Y-99186683D01*
X151793016Y-99065936D01*
X151905119Y-99054895D01*
X152232168Y-98955686D01*
X152533578Y-98794579D01*
X152797766Y-98577766D01*
X153014579Y-98313578D01*
X153175686Y-98012168D01*
X153274895Y-97685119D01*
X153308394Y-97345000D01*
X153274895Y-97004881D01*
X153175686Y-96677832D01*
X153014579Y-96376422D01*
X152797766Y-96112234D01*
X152533578Y-95895421D01*
X152232168Y-95734314D01*
X151905119Y-95635105D01*
X151650225Y-95610000D01*
X149679775Y-95610000D01*
X149424881Y-95635105D01*
X149097832Y-95734314D01*
X148796422Y-95895421D01*
X148532234Y-96112234D01*
X148315421Y-96376422D01*
X148154314Y-96677832D01*
X148055105Y-97004881D01*
X148021606Y-97345000D01*
X148055105Y-97685119D01*
X148154314Y-98012168D01*
X148315421Y-98313578D01*
X148328084Y-98329008D01*
X148101959Y-98368114D01*
X147783712Y-98490670D01*
X147495489Y-98672958D01*
X147248367Y-98907973D01*
X147051843Y-99186683D01*
X146913469Y-99498378D01*
X146875825Y-99648878D01*
X139688893Y-99648878D01*
X139661513Y-99370889D01*
X139576599Y-99090966D01*
X139438706Y-98832986D01*
X139253134Y-98606866D01*
X139027014Y-98421294D01*
X138972209Y-98392000D01*
X139027014Y-98362706D01*
X139253134Y-98177134D01*
X139438706Y-97951014D01*
X139576599Y-97693034D01*
X139624456Y-97535269D01*
X142028336Y-97535269D01*
X142087797Y-97769037D01*
X142326242Y-97879934D01*
X142581740Y-97942183D01*
X142844473Y-97953390D01*
X143104344Y-97913125D01*
X143351366Y-97822935D01*
X143452203Y-97769037D01*
X143511664Y-97535269D01*
X142770000Y-96793605D01*
X142028336Y-97535269D01*
X139624456Y-97535269D01*
X139661513Y-97413111D01*
X139690185Y-97122000D01*
X139661513Y-96830889D01*
X139618312Y-96688473D01*
X141430610Y-96688473D01*
X141470875Y-96948344D01*
X141561065Y-97195366D01*
X141614963Y-97296203D01*
X141848731Y-97355664D01*
X142590395Y-96614000D01*
X142949605Y-96614000D01*
X143691269Y-97355664D01*
X143925037Y-97296203D01*
X144035934Y-97057758D01*
X144098183Y-96802260D01*
X144109390Y-96539527D01*
X144069125Y-96279656D01*
X143978935Y-96032634D01*
X143925037Y-95931797D01*
X143691269Y-95872336D01*
X142949605Y-96614000D01*
X142590395Y-96614000D01*
X141848731Y-95872336D01*
X141614963Y-95931797D01*
X141504066Y-96170242D01*
X141441817Y-96425740D01*
X141430610Y-96688473D01*
X139618312Y-96688473D01*
X139576599Y-96550966D01*
X139438706Y-96292986D01*
X139253134Y-96066866D01*
X139027014Y-95881294D01*
X138962477Y-95846799D01*
X139079355Y-95777178D01*
X139295588Y-95582269D01*
X139469641Y-95348920D01*
X139594825Y-95086099D01*
X139639476Y-94938890D01*
X139518155Y-94709000D01*
X138325000Y-94709000D01*
X138325000Y-94729000D01*
X138071000Y-94729000D01*
X138071000Y-94709000D01*
X136877845Y-94709000D01*
X136756524Y-94938890D01*
X136801175Y-95086099D01*
X136926359Y-95348920D01*
X137100412Y-95582269D01*
X137316645Y-95777178D01*
X137433523Y-95846799D01*
X137368986Y-95881294D01*
X137142866Y-96066866D01*
X136957294Y-96292986D01*
X136819401Y-96550966D01*
X136734487Y-96830889D01*
X136705815Y-97122000D01*
X83330000Y-97122000D01*
X83330000Y-93827409D01*
X83360000Y-93827409D01*
X83360000Y-94272591D01*
X83446851Y-94709218D01*
X83617214Y-95120511D01*
X83864544Y-95490666D01*
X84179334Y-95805456D01*
X84549489Y-96052786D01*
X84960782Y-96223149D01*
X85397409Y-96310000D01*
X85842591Y-96310000D01*
X86279218Y-96223149D01*
X86690511Y-96052786D01*
X87060666Y-95805456D01*
X87375456Y-95490666D01*
X87622786Y-95120511D01*
X87793149Y-94709218D01*
X87819346Y-94577514D01*
X103843000Y-94577514D01*
X103843000Y-94840486D01*
X103894304Y-95098405D01*
X103994939Y-95341359D01*
X104141038Y-95560013D01*
X104326987Y-95745962D01*
X104545641Y-95892061D01*
X104788595Y-95992696D01*
X105046514Y-96044000D01*
X105309486Y-96044000D01*
X105567405Y-95992696D01*
X105810359Y-95892061D01*
X106029013Y-95745962D01*
X106144706Y-95630269D01*
X106976336Y-95630269D01*
X107035797Y-95864037D01*
X107274242Y-95974934D01*
X107529740Y-96037183D01*
X107792473Y-96048390D01*
X108052344Y-96008125D01*
X108299366Y-95917935D01*
X108400203Y-95864037D01*
X108459664Y-95630269D01*
X107718000Y-94888605D01*
X106976336Y-95630269D01*
X106144706Y-95630269D01*
X106214962Y-95560013D01*
X106361061Y-95341359D01*
X106449621Y-95127556D01*
X106509065Y-95290366D01*
X106562963Y-95391203D01*
X106796731Y-95450664D01*
X107538395Y-94709000D01*
X107897605Y-94709000D01*
X108639269Y-95450664D01*
X108873037Y-95391203D01*
X108983934Y-95152758D01*
X109046183Y-94897260D01*
X109057390Y-94634527D01*
X109048557Y-94577514D01*
X109431000Y-94577514D01*
X109431000Y-94840486D01*
X109482304Y-95098405D01*
X109582939Y-95341359D01*
X109729038Y-95560013D01*
X109914987Y-95745962D01*
X110133641Y-95892061D01*
X110376595Y-95992696D01*
X110634514Y-96044000D01*
X110897486Y-96044000D01*
X111155405Y-95992696D01*
X111398359Y-95892061D01*
X111617013Y-95745962D01*
X111732706Y-95630269D01*
X112564336Y-95630269D01*
X112623797Y-95864037D01*
X112862242Y-95974934D01*
X113117740Y-96037183D01*
X113380473Y-96048390D01*
X113640344Y-96008125D01*
X113887366Y-95917935D01*
X113988203Y-95864037D01*
X114047664Y-95630269D01*
X113306000Y-94888605D01*
X112564336Y-95630269D01*
X111732706Y-95630269D01*
X111802962Y-95560013D01*
X111949061Y-95341359D01*
X112037621Y-95127556D01*
X112097065Y-95290366D01*
X112150963Y-95391203D01*
X112384731Y-95450664D01*
X113126395Y-94709000D01*
X113485605Y-94709000D01*
X114227269Y-95450664D01*
X114461037Y-95391203D01*
X114571934Y-95152758D01*
X114634183Y-94897260D01*
X114645390Y-94634527D01*
X114636557Y-94577514D01*
X114892000Y-94577514D01*
X114892000Y-94840486D01*
X114943304Y-95098405D01*
X115043939Y-95341359D01*
X115190038Y-95560013D01*
X115375987Y-95745962D01*
X115594641Y-95892061D01*
X115837595Y-95992696D01*
X116095514Y-96044000D01*
X116358486Y-96044000D01*
X116616405Y-95992696D01*
X116859359Y-95892061D01*
X117078013Y-95745962D01*
X117193706Y-95630269D01*
X118025336Y-95630269D01*
X118084797Y-95864037D01*
X118323242Y-95974934D01*
X118578740Y-96037183D01*
X118841473Y-96048390D01*
X119101344Y-96008125D01*
X119348366Y-95917935D01*
X119449203Y-95864037D01*
X119508664Y-95630269D01*
X118767000Y-94888605D01*
X118025336Y-95630269D01*
X117193706Y-95630269D01*
X117263962Y-95560013D01*
X117410061Y-95341359D01*
X117498621Y-95127556D01*
X117558065Y-95290366D01*
X117611963Y-95391203D01*
X117845731Y-95450664D01*
X118587395Y-94709000D01*
X118946605Y-94709000D01*
X119688269Y-95450664D01*
X119922037Y-95391203D01*
X120032934Y-95152758D01*
X120095183Y-94897260D01*
X120106390Y-94634527D01*
X120066125Y-94374656D01*
X119975935Y-94127634D01*
X119922037Y-94026797D01*
X119688269Y-93967336D01*
X118946605Y-94709000D01*
X118587395Y-94709000D01*
X117845731Y-93967336D01*
X117611963Y-94026797D01*
X117501066Y-94265242D01*
X117496294Y-94284827D01*
X117410061Y-94076641D01*
X117263962Y-93857987D01*
X117193706Y-93787731D01*
X118025336Y-93787731D01*
X118767000Y-94529395D01*
X119508664Y-93787731D01*
X119449203Y-93553963D01*
X119210758Y-93443066D01*
X118955260Y-93380817D01*
X118692527Y-93369610D01*
X118432656Y-93409875D01*
X118185634Y-93500065D01*
X118084797Y-93553963D01*
X118025336Y-93787731D01*
X117193706Y-93787731D01*
X117078013Y-93672038D01*
X116859359Y-93525939D01*
X116616405Y-93425304D01*
X116358486Y-93374000D01*
X116095514Y-93374000D01*
X115837595Y-93425304D01*
X115594641Y-93525939D01*
X115375987Y-93672038D01*
X115190038Y-93857987D01*
X115043939Y-94076641D01*
X114943304Y-94319595D01*
X114892000Y-94577514D01*
X114636557Y-94577514D01*
X114605125Y-94374656D01*
X114514935Y-94127634D01*
X114461037Y-94026797D01*
X114227269Y-93967336D01*
X113485605Y-94709000D01*
X113126395Y-94709000D01*
X112384731Y-93967336D01*
X112150963Y-94026797D01*
X112040066Y-94265242D01*
X112035294Y-94284827D01*
X111949061Y-94076641D01*
X111802962Y-93857987D01*
X111732706Y-93787731D01*
X112564336Y-93787731D01*
X113306000Y-94529395D01*
X114047664Y-93787731D01*
X113988203Y-93553963D01*
X113749758Y-93443066D01*
X113494260Y-93380817D01*
X113231527Y-93369610D01*
X112971656Y-93409875D01*
X112724634Y-93500065D01*
X112623797Y-93553963D01*
X112564336Y-93787731D01*
X111732706Y-93787731D01*
X111617013Y-93672038D01*
X111398359Y-93525939D01*
X111155405Y-93425304D01*
X110897486Y-93374000D01*
X110634514Y-93374000D01*
X110376595Y-93425304D01*
X110133641Y-93525939D01*
X109914987Y-93672038D01*
X109729038Y-93857987D01*
X109582939Y-94076641D01*
X109482304Y-94319595D01*
X109431000Y-94577514D01*
X109048557Y-94577514D01*
X109017125Y-94374656D01*
X108926935Y-94127634D01*
X108873037Y-94026797D01*
X108639269Y-93967336D01*
X107897605Y-94709000D01*
X107538395Y-94709000D01*
X106796731Y-93967336D01*
X106562963Y-94026797D01*
X106452066Y-94265242D01*
X106447294Y-94284827D01*
X106361061Y-94076641D01*
X106214962Y-93857987D01*
X106144706Y-93787731D01*
X106976336Y-93787731D01*
X107718000Y-94529395D01*
X108459664Y-93787731D01*
X108400203Y-93553963D01*
X108161758Y-93443066D01*
X107906260Y-93380817D01*
X107643527Y-93369610D01*
X107383656Y-93409875D01*
X107136634Y-93500065D01*
X107035797Y-93553963D01*
X106976336Y-93787731D01*
X106144706Y-93787731D01*
X106029013Y-93672038D01*
X105810359Y-93525939D01*
X105567405Y-93425304D01*
X105309486Y-93374000D01*
X105046514Y-93374000D01*
X104788595Y-93425304D01*
X104545641Y-93525939D01*
X104326987Y-93672038D01*
X104141038Y-93857987D01*
X103994939Y-94076641D01*
X103894304Y-94319595D01*
X103843000Y-94577514D01*
X87819346Y-94577514D01*
X87880000Y-94272591D01*
X87880000Y-93827409D01*
X87793149Y-93390782D01*
X87678559Y-93114137D01*
X91185469Y-93114137D01*
X91252206Y-93354025D01*
X91500892Y-93470924D01*
X91767606Y-93537061D01*
X92042097Y-93549895D01*
X92313817Y-93508931D01*
X92572326Y-93415744D01*
X92687794Y-93354025D01*
X92754531Y-93114137D01*
X91970000Y-92329605D01*
X91185469Y-93114137D01*
X87678559Y-93114137D01*
X87622786Y-92979489D01*
X87375456Y-92609334D01*
X87060666Y-92294544D01*
X86952242Y-92222097D01*
X90570105Y-92222097D01*
X90611069Y-92493817D01*
X90704256Y-92752326D01*
X90765975Y-92867794D01*
X91005863Y-92934531D01*
X91790395Y-92150000D01*
X92149605Y-92150000D01*
X92934137Y-92934531D01*
X93174025Y-92867794D01*
X93290924Y-92619108D01*
X93357061Y-92352394D01*
X93369895Y-92077903D01*
X93328931Y-91806183D01*
X93235744Y-91547674D01*
X93174025Y-91432206D01*
X92934137Y-91365469D01*
X92149605Y-92150000D01*
X91790395Y-92150000D01*
X91005863Y-91365469D01*
X90765975Y-91432206D01*
X90649076Y-91680892D01*
X90582939Y-91947606D01*
X90570105Y-92222097D01*
X86952242Y-92222097D01*
X86690511Y-92047214D01*
X86279218Y-91876851D01*
X85842591Y-91790000D01*
X85397409Y-91790000D01*
X84960782Y-91876851D01*
X84549489Y-92047214D01*
X84179334Y-92294544D01*
X83864544Y-92609334D01*
X83617214Y-92979489D01*
X83446851Y-93390782D01*
X83360000Y-93827409D01*
X83330000Y-93827409D01*
X83330000Y-92281578D01*
X83538561Y-92073017D01*
X83573665Y-92080000D01*
X83856335Y-92080000D01*
X84133574Y-92024853D01*
X84394727Y-91916680D01*
X84629759Y-91759637D01*
X84829637Y-91559759D01*
X84986680Y-91324727D01*
X85094853Y-91063574D01*
X85150000Y-90786335D01*
X85150000Y-90574137D01*
X91185469Y-90574137D01*
X91252206Y-90814025D01*
X91386882Y-90877332D01*
X91367674Y-90884256D01*
X91252206Y-90945975D01*
X91185469Y-91185863D01*
X91970000Y-91970395D01*
X92754531Y-91185863D01*
X92687794Y-90945975D01*
X92553118Y-90882668D01*
X92572326Y-90875744D01*
X92687794Y-90814025D01*
X92754531Y-90574137D01*
X91970000Y-89789605D01*
X91185469Y-90574137D01*
X85150000Y-90574137D01*
X85150000Y-90503665D01*
X85094853Y-90226426D01*
X84986680Y-89965273D01*
X84829637Y-89730241D01*
X84781493Y-89682097D01*
X90570105Y-89682097D01*
X90611069Y-89953817D01*
X90704256Y-90212326D01*
X90765975Y-90327794D01*
X91005863Y-90394531D01*
X91790395Y-89610000D01*
X92149605Y-89610000D01*
X92934137Y-90394531D01*
X93174025Y-90327794D01*
X93290924Y-90079108D01*
X93357061Y-89812394D01*
X93369895Y-89537903D01*
X93328931Y-89266183D01*
X93235744Y-89007674D01*
X93174025Y-88892206D01*
X92934137Y-88825469D01*
X92149605Y-89610000D01*
X91790395Y-89610000D01*
X91005863Y-88825469D01*
X90765975Y-88892206D01*
X90649076Y-89140892D01*
X90582939Y-89407606D01*
X90570105Y-89682097D01*
X84781493Y-89682097D01*
X84629759Y-89530363D01*
X84394727Y-89373320D01*
X84133574Y-89265147D01*
X83856335Y-89210000D01*
X83573665Y-89210000D01*
X83296426Y-89265147D01*
X83083047Y-89353531D01*
X83538561Y-88898017D01*
X83573665Y-88905000D01*
X83856335Y-88905000D01*
X84133574Y-88849853D01*
X84394727Y-88741680D01*
X84629759Y-88584637D01*
X84829637Y-88384759D01*
X84986680Y-88149727D01*
X85094853Y-87888574D01*
X85150000Y-87611335D01*
X85150000Y-87328665D01*
X85094853Y-87051426D01*
X85045636Y-86932604D01*
X90575000Y-86932604D01*
X90575000Y-87207396D01*
X90628609Y-87476907D01*
X90733767Y-87730780D01*
X90886433Y-87959261D01*
X91080739Y-88153567D01*
X91309220Y-88306233D01*
X91385501Y-88337830D01*
X91367674Y-88344256D01*
X91252206Y-88405975D01*
X91185469Y-88645863D01*
X91970000Y-89430395D01*
X92754531Y-88645863D01*
X92687794Y-88405975D01*
X92548293Y-88340400D01*
X92630780Y-88306233D01*
X92859261Y-88153567D01*
X93053567Y-87959261D01*
X93206233Y-87730780D01*
X93311391Y-87476907D01*
X93365000Y-87207396D01*
X93365000Y-87065501D01*
X93395506Y-87090537D01*
X93505820Y-87149502D01*
X93625518Y-87185812D01*
X93713467Y-87194474D01*
X93620739Y-87256433D01*
X93426433Y-87450739D01*
X93273767Y-87679220D01*
X93168609Y-87933093D01*
X93115000Y-88202604D01*
X93115000Y-88477396D01*
X93168609Y-88746907D01*
X93273767Y-89000780D01*
X93426433Y-89229261D01*
X93620739Y-89423567D01*
X93849220Y-89576233D01*
X93930740Y-89610000D01*
X93849220Y-89643767D01*
X93620739Y-89796433D01*
X93426433Y-89990739D01*
X93273767Y-90219220D01*
X93168609Y-90473093D01*
X93115000Y-90742604D01*
X93115000Y-91017396D01*
X93168609Y-91286907D01*
X93273767Y-91540780D01*
X93426433Y-91769261D01*
X93620739Y-91963567D01*
X93849220Y-92116233D01*
X94103093Y-92221391D01*
X94372604Y-92275000D01*
X94647396Y-92275000D01*
X94916907Y-92221391D01*
X95170780Y-92116233D01*
X95399261Y-91963567D01*
X95593567Y-91769261D01*
X95746233Y-91540780D01*
X95851391Y-91286907D01*
X95905000Y-91017396D01*
X95905000Y-90742604D01*
X95851391Y-90473093D01*
X95746233Y-90219220D01*
X95593567Y-89990739D01*
X95399261Y-89796433D01*
X95170780Y-89643767D01*
X95089260Y-89610000D01*
X95170780Y-89576233D01*
X95399261Y-89423567D01*
X95593567Y-89229261D01*
X95746233Y-89000780D01*
X95851391Y-88746907D01*
X95905000Y-88477396D01*
X95905000Y-88202604D01*
X95851391Y-87933093D01*
X95746233Y-87679220D01*
X95593567Y-87450739D01*
X95399261Y-87256433D01*
X95306533Y-87194474D01*
X95394482Y-87185812D01*
X95514180Y-87149502D01*
X95624494Y-87090537D01*
X95721185Y-87011185D01*
X95800537Y-86914494D01*
X95859502Y-86804180D01*
X95895812Y-86684482D01*
X95908072Y-86560000D01*
X95908072Y-86157000D01*
X100621928Y-86157000D01*
X100634188Y-86281482D01*
X100670498Y-86401180D01*
X100729463Y-86511494D01*
X100808815Y-86608185D01*
X100905506Y-86687537D01*
X101015820Y-86746502D01*
X101135518Y-86782812D01*
X101260000Y-86795072D01*
X101844250Y-86792000D01*
X102003000Y-86633250D01*
X102003000Y-85184000D01*
X100783750Y-85184000D01*
X100625000Y-85342750D01*
X100621928Y-86157000D01*
X95908072Y-86157000D01*
X95908072Y-85040000D01*
X95895812Y-84915518D01*
X95859502Y-84795820D01*
X95800537Y-84685506D01*
X95721185Y-84588815D01*
X95624494Y-84509463D01*
X95514180Y-84450498D01*
X95394482Y-84414188D01*
X95270000Y-84401928D01*
X93750000Y-84401928D01*
X93625518Y-84414188D01*
X93505820Y-84450498D01*
X93395506Y-84509463D01*
X93298815Y-84588815D01*
X93219463Y-84685506D01*
X93160498Y-84795820D01*
X93124188Y-84915518D01*
X93111928Y-85040000D01*
X93111928Y-86268082D01*
X93053567Y-86180739D01*
X92859261Y-85986433D01*
X92630780Y-85833767D01*
X92376907Y-85728609D01*
X92107396Y-85675000D01*
X91832604Y-85675000D01*
X91563093Y-85728609D01*
X91309220Y-85833767D01*
X91080739Y-85986433D01*
X90886433Y-86180739D01*
X90733767Y-86409220D01*
X90628609Y-86663093D01*
X90575000Y-86932604D01*
X85045636Y-86932604D01*
X84986680Y-86790273D01*
X84829637Y-86555241D01*
X84629759Y-86355363D01*
X84394727Y-86198320D01*
X84133574Y-86090147D01*
X83856335Y-86035000D01*
X83573665Y-86035000D01*
X83296426Y-86090147D01*
X83035273Y-86198320D01*
X82800241Y-86355363D01*
X82600363Y-86555241D01*
X82443320Y-86790273D01*
X82335147Y-87051426D01*
X82280000Y-87328665D01*
X82280000Y-87611335D01*
X82286983Y-87646439D01*
X80579951Y-89353471D01*
X80546184Y-89381183D01*
X80518471Y-89414951D01*
X80518468Y-89414954D01*
X80505796Y-89430395D01*
X80435590Y-89515941D01*
X80353412Y-89669687D01*
X80302805Y-89836510D01*
X80290000Y-89966523D01*
X80290000Y-89966531D01*
X80285719Y-90010000D01*
X80290000Y-90053469D01*
X80290000Y-90688476D01*
X80290001Y-90688486D01*
X80290000Y-105206523D01*
X80285718Y-105250000D01*
X80290001Y-105293487D01*
X80290000Y-128066531D01*
X80285719Y-128110000D01*
X80290000Y-128153469D01*
X80290000Y-128153476D01*
X80302805Y-128283489D01*
X80353411Y-128450312D01*
X80435589Y-128604058D01*
X80546183Y-128738817D01*
X80579956Y-128766534D01*
X88128421Y-136315000D01*
X78685000Y-136315000D01*
X78685000Y-133604872D01*
X78940000Y-133604872D01*
X78940000Y-134045128D01*
X79025890Y-134476925D01*
X79194369Y-134883669D01*
X79438962Y-135249729D01*
X79750271Y-135561038D01*
X80116331Y-135805631D01*
X80523075Y-135974110D01*
X80954872Y-136060000D01*
X81395128Y-136060000D01*
X81826925Y-135974110D01*
X82233669Y-135805631D01*
X82599729Y-135561038D01*
X82911038Y-135249729D01*
X83155631Y-134883669D01*
X83324110Y-134476925D01*
X83410000Y-134045128D01*
X83410000Y-133604872D01*
X83324110Y-133173075D01*
X83155631Y-132766331D01*
X82911038Y-132400271D01*
X82599729Y-132088962D01*
X82233669Y-131844369D01*
X81826925Y-131675890D01*
X81395128Y-131590000D01*
X80954872Y-131590000D01*
X80523075Y-131675890D01*
X80116331Y-131844369D01*
X79750271Y-132088962D01*
X79438962Y-132400271D01*
X79194369Y-132766331D01*
X79025890Y-133173075D01*
X78940000Y-133604872D01*
X78685000Y-133604872D01*
X78685000Y-83667409D01*
X83360000Y-83667409D01*
X83360000Y-84112591D01*
X83446851Y-84549218D01*
X83617214Y-84960511D01*
X83864544Y-85330666D01*
X84179334Y-85645456D01*
X84549489Y-85892786D01*
X84960782Y-86063149D01*
X85397409Y-86150000D01*
X85842591Y-86150000D01*
X86279218Y-86063149D01*
X86690511Y-85892786D01*
X87060666Y-85645456D01*
X87375456Y-85330666D01*
X87622786Y-84960511D01*
X87793149Y-84549218D01*
X87880000Y-84112591D01*
X87880000Y-83957000D01*
X100621928Y-83957000D01*
X100625000Y-84771250D01*
X100783750Y-84930000D01*
X102003000Y-84930000D01*
X102003000Y-83480750D01*
X102257000Y-83480750D01*
X102257000Y-84930000D01*
X102277000Y-84930000D01*
X102277000Y-85184000D01*
X102257000Y-85184000D01*
X102257000Y-86633250D01*
X102415750Y-86792000D01*
X103000000Y-86795072D01*
X103124482Y-86782812D01*
X103244180Y-86746502D01*
X103354494Y-86687537D01*
X103451185Y-86608185D01*
X103530537Y-86511494D01*
X103589502Y-86401180D01*
X103602615Y-86357953D01*
X103829822Y-86544417D01*
X104091276Y-86684166D01*
X104374969Y-86770224D01*
X104670000Y-86799282D01*
X104965032Y-86770224D01*
X105248725Y-86684166D01*
X105468555Y-86566665D01*
X125774991Y-86566665D01*
X125774991Y-86849335D01*
X125830138Y-87126574D01*
X125938311Y-87387727D01*
X126095354Y-87622759D01*
X126295232Y-87822637D01*
X126324991Y-87842521D01*
X126324992Y-91684180D01*
X126317235Y-91689363D01*
X126117357Y-91889241D01*
X125960314Y-92124273D01*
X125852141Y-92385426D01*
X125796994Y-92662665D01*
X125796994Y-92945335D01*
X125852141Y-93222574D01*
X125960314Y-93483727D01*
X126117357Y-93718759D01*
X126317235Y-93918637D01*
X126552267Y-94075680D01*
X126813420Y-94183853D01*
X127090659Y-94239000D01*
X127373329Y-94239000D01*
X127650568Y-94183853D01*
X127911721Y-94075680D01*
X128144414Y-93920200D01*
X128149606Y-94222438D01*
X128139241Y-94229363D01*
X127939363Y-94429241D01*
X127782320Y-94664273D01*
X127674147Y-94925426D01*
X127619000Y-95202665D01*
X127619000Y-95485335D01*
X127674147Y-95762574D01*
X127782320Y-96023727D01*
X127939363Y-96258759D01*
X128139241Y-96458637D01*
X128374273Y-96615680D01*
X128635426Y-96723853D01*
X128912665Y-96779000D01*
X129195335Y-96779000D01*
X129472574Y-96723853D01*
X129733727Y-96615680D01*
X129968759Y-96458637D01*
X130168637Y-96258759D01*
X130325680Y-96023727D01*
X130433853Y-95762574D01*
X130489000Y-95485335D01*
X130489000Y-95202665D01*
X130433853Y-94925426D01*
X130325680Y-94664273D01*
X130168637Y-94429241D01*
X129968759Y-94229363D01*
X129919418Y-94196395D01*
X129914602Y-93915998D01*
X129917241Y-93918637D01*
X130152273Y-94075680D01*
X130413426Y-94183853D01*
X130690665Y-94239000D01*
X130973335Y-94239000D01*
X131175000Y-94198886D01*
X131175000Y-94469335D01*
X131230147Y-94746574D01*
X131338320Y-95007727D01*
X131495363Y-95242759D01*
X131695241Y-95442637D01*
X131930273Y-95599680D01*
X132191426Y-95707853D01*
X132468665Y-95763000D01*
X132751335Y-95763000D01*
X133028574Y-95707853D01*
X133289727Y-95599680D01*
X133524759Y-95442637D01*
X133724637Y-95242759D01*
X133881680Y-95007727D01*
X133989853Y-94746574D01*
X134045000Y-94469335D01*
X134045000Y-94225110D01*
X136756524Y-94225110D01*
X136877845Y-94455000D01*
X138071000Y-94455000D01*
X138071000Y-93261186D01*
X138325000Y-93261186D01*
X138325000Y-94455000D01*
X139518155Y-94455000D01*
X139639476Y-94225110D01*
X139594825Y-94077901D01*
X139469641Y-93815080D01*
X139295588Y-93581731D01*
X139079355Y-93386822D01*
X138829252Y-93237843D01*
X138554891Y-93140519D01*
X138325000Y-93261186D01*
X138071000Y-93261186D01*
X137841109Y-93140519D01*
X137566748Y-93237843D01*
X137316645Y-93386822D01*
X137100412Y-93581731D01*
X136926359Y-93815080D01*
X136801175Y-94077901D01*
X136756524Y-94225110D01*
X134045000Y-94225110D01*
X134045000Y-94186665D01*
X133989853Y-93909426D01*
X133881680Y-93648273D01*
X133724637Y-93413241D01*
X133524759Y-93213363D01*
X133495000Y-93193479D01*
X133495000Y-87842521D01*
X133524759Y-87822637D01*
X133724637Y-87622759D01*
X133881680Y-87387727D01*
X133989853Y-87126574D01*
X134045000Y-86849335D01*
X134045000Y-86566665D01*
X133989853Y-86289426D01*
X133881680Y-86028273D01*
X133724637Y-85793241D01*
X133524759Y-85593363D01*
X133289727Y-85436320D01*
X133028574Y-85328147D01*
X132751335Y-85273000D01*
X132468665Y-85273000D01*
X132191426Y-85328147D01*
X131930273Y-85436320D01*
X131709999Y-85583502D01*
X131489724Y-85436320D01*
X131228571Y-85328147D01*
X130951332Y-85273000D01*
X130668662Y-85273000D01*
X130391423Y-85328147D01*
X130130270Y-85436320D01*
X129909996Y-85583502D01*
X129689721Y-85436320D01*
X129428568Y-85328147D01*
X129151329Y-85273000D01*
X128868659Y-85273000D01*
X128591420Y-85328147D01*
X128330267Y-85436320D01*
X128109993Y-85583502D01*
X127889718Y-85436320D01*
X127628565Y-85328147D01*
X127351326Y-85273000D01*
X127068656Y-85273000D01*
X126791417Y-85328147D01*
X126530264Y-85436320D01*
X126295232Y-85593363D01*
X126095354Y-85793241D01*
X125938311Y-86028273D01*
X125830138Y-86289426D01*
X125774991Y-86566665D01*
X105468555Y-86566665D01*
X105510179Y-86544417D01*
X105739345Y-86356345D01*
X105927417Y-86127179D01*
X106067166Y-85865724D01*
X106153224Y-85582031D01*
X106175000Y-85360935D01*
X106175000Y-84753064D01*
X106153224Y-84531968D01*
X106067166Y-84248275D01*
X105927417Y-83986821D01*
X105751664Y-83772665D01*
X133207000Y-83772665D01*
X133207000Y-84055335D01*
X133262147Y-84332574D01*
X133370320Y-84593727D01*
X133527363Y-84828759D01*
X133727241Y-85028637D01*
X133962273Y-85185680D01*
X134223426Y-85293853D01*
X134500665Y-85349000D01*
X134783335Y-85349000D01*
X134818439Y-85342017D01*
X141885000Y-92408579D01*
X141885001Y-93071024D01*
X141733038Y-93222987D01*
X141586939Y-93441641D01*
X141486304Y-93684595D01*
X141435000Y-93942514D01*
X141435000Y-94205486D01*
X141486304Y-94463405D01*
X141586939Y-94706359D01*
X141733038Y-94925013D01*
X141918987Y-95110962D01*
X142137641Y-95257061D01*
X142351444Y-95345621D01*
X142188634Y-95405065D01*
X142087797Y-95458963D01*
X142028336Y-95692731D01*
X142770000Y-96434395D01*
X143511664Y-95692731D01*
X143452203Y-95458963D01*
X143213758Y-95348066D01*
X143194173Y-95343294D01*
X143402359Y-95257061D01*
X143621013Y-95110962D01*
X143806962Y-94925013D01*
X143953061Y-94706359D01*
X144053696Y-94463405D01*
X144105000Y-94205486D01*
X144105000Y-93942514D01*
X144088542Y-93859775D01*
X155730000Y-93859775D01*
X155730000Y-95830224D01*
X155755105Y-96085118D01*
X155854314Y-96412167D01*
X156015421Y-96713577D01*
X156232234Y-96977766D01*
X156496422Y-97194579D01*
X156797832Y-97355686D01*
X157124881Y-97454895D01*
X157465000Y-97488394D01*
X157805118Y-97454895D01*
X158132167Y-97355686D01*
X158433577Y-97194579D01*
X158697766Y-96977766D01*
X158914579Y-96713578D01*
X159075686Y-96412168D01*
X159174895Y-96085119D01*
X159200000Y-95830225D01*
X159200000Y-93859775D01*
X159174895Y-93604881D01*
X159075686Y-93277832D01*
X158914579Y-92976422D01*
X158697766Y-92712234D01*
X158433578Y-92495421D01*
X158132168Y-92334314D01*
X157805119Y-92235105D01*
X157465000Y-92201606D01*
X157124882Y-92235105D01*
X156797833Y-92334314D01*
X156496423Y-92495421D01*
X156232235Y-92712234D01*
X156015422Y-92976422D01*
X155854315Y-93277832D01*
X155755106Y-93604881D01*
X155730000Y-93859775D01*
X144088542Y-93859775D01*
X144053696Y-93684595D01*
X143953061Y-93441641D01*
X143806962Y-93222987D01*
X143655000Y-93071025D01*
X143655000Y-92085469D01*
X143659281Y-92042000D01*
X143655000Y-91998531D01*
X143655000Y-91998523D01*
X143642195Y-91868510D01*
X143591589Y-91701687D01*
X143509411Y-91547941D01*
X143398817Y-91413183D01*
X143365051Y-91385472D01*
X141739354Y-89759775D01*
X144530000Y-89759775D01*
X144530000Y-91730224D01*
X144555105Y-91985118D01*
X144654314Y-92312167D01*
X144815421Y-92613577D01*
X145032234Y-92877766D01*
X145296422Y-93094579D01*
X145597832Y-93255686D01*
X145924881Y-93354895D01*
X146265000Y-93388394D01*
X146605118Y-93354895D01*
X146932167Y-93255686D01*
X147233577Y-93094579D01*
X147497766Y-92877766D01*
X147714579Y-92613578D01*
X147875686Y-92312168D01*
X147974895Y-91985119D01*
X148000000Y-91730225D01*
X148000000Y-89759775D01*
X147974895Y-89504881D01*
X147875686Y-89177832D01*
X147858137Y-89145000D01*
X150926928Y-89145000D01*
X150926928Y-91345000D01*
X150939188Y-91469482D01*
X150975498Y-91589180D01*
X151034463Y-91699494D01*
X151113815Y-91796185D01*
X151210506Y-91875537D01*
X151320820Y-91934502D01*
X151440518Y-91970812D01*
X151565000Y-91983072D01*
X155565000Y-91983072D01*
X155689482Y-91970812D01*
X155809180Y-91934502D01*
X155919494Y-91875537D01*
X156016185Y-91796185D01*
X156095537Y-91699494D01*
X156154502Y-91589180D01*
X156190812Y-91469482D01*
X156203072Y-91345000D01*
X156203072Y-89145000D01*
X156190812Y-89020518D01*
X156154502Y-88900820D01*
X156095537Y-88790506D01*
X156016185Y-88693815D01*
X155919494Y-88614463D01*
X155809180Y-88555498D01*
X155689482Y-88519188D01*
X155565000Y-88506928D01*
X151565000Y-88506928D01*
X151440518Y-88519188D01*
X151320820Y-88555498D01*
X151210506Y-88614463D01*
X151113815Y-88693815D01*
X151034463Y-88790506D01*
X150975498Y-88900820D01*
X150939188Y-89020518D01*
X150926928Y-89145000D01*
X147858137Y-89145000D01*
X147714579Y-88876422D01*
X147497766Y-88612234D01*
X147233578Y-88395421D01*
X146932168Y-88234314D01*
X146605119Y-88135105D01*
X146265000Y-88101606D01*
X145924882Y-88135105D01*
X145597833Y-88234314D01*
X145296423Y-88395421D01*
X145032235Y-88612234D01*
X144815422Y-88876422D01*
X144654315Y-89177832D01*
X144555106Y-89504881D01*
X144530000Y-89759775D01*
X141739354Y-89759775D01*
X136070017Y-84090439D01*
X136077000Y-84055335D01*
X136077000Y-83772665D01*
X136021853Y-83495426D01*
X135913680Y-83234273D01*
X135756637Y-82999241D01*
X135556759Y-82799363D01*
X135321727Y-82642320D01*
X135060574Y-82534147D01*
X134783335Y-82479000D01*
X134500665Y-82479000D01*
X134223426Y-82534147D01*
X133962273Y-82642320D01*
X133727241Y-82799363D01*
X133527363Y-82999241D01*
X133370320Y-83234273D01*
X133262147Y-83495426D01*
X133207000Y-83772665D01*
X105751664Y-83772665D01*
X105739345Y-83757655D01*
X105510178Y-83569583D01*
X105248724Y-83429834D01*
X104965031Y-83343776D01*
X104670000Y-83314718D01*
X104374968Y-83343776D01*
X104091275Y-83429834D01*
X103829821Y-83569583D01*
X103602615Y-83756047D01*
X103589502Y-83712820D01*
X103530537Y-83602506D01*
X103451185Y-83505815D01*
X103354494Y-83426463D01*
X103244180Y-83367498D01*
X103124482Y-83331188D01*
X103000000Y-83318928D01*
X102415750Y-83322000D01*
X102257000Y-83480750D01*
X102003000Y-83480750D01*
X101844250Y-83322000D01*
X101260000Y-83318928D01*
X101135518Y-83331188D01*
X101015820Y-83367498D01*
X100905506Y-83426463D01*
X100808815Y-83505815D01*
X100729463Y-83602506D01*
X100670498Y-83712820D01*
X100634188Y-83832518D01*
X100621928Y-83957000D01*
X87880000Y-83957000D01*
X87880000Y-83667409D01*
X87793149Y-83230782D01*
X87622786Y-82819489D01*
X87375456Y-82449334D01*
X87060666Y-82134544D01*
X86690511Y-81887214D01*
X86279218Y-81716851D01*
X85842591Y-81630000D01*
X85397409Y-81630000D01*
X84960782Y-81716851D01*
X84549489Y-81887214D01*
X84179334Y-82134544D01*
X83864544Y-82449334D01*
X83617214Y-82819489D01*
X83446851Y-83230782D01*
X83360000Y-83667409D01*
X78685000Y-83667409D01*
X78685000Y-78733514D01*
X91815000Y-78733514D01*
X91815000Y-78996486D01*
X91866304Y-79254405D01*
X91966939Y-79497359D01*
X92113038Y-79716013D01*
X92298987Y-79901962D01*
X92517641Y-80048061D01*
X92760595Y-80148696D01*
X93018514Y-80200000D01*
X93281486Y-80200000D01*
X93539405Y-80148696D01*
X93782359Y-80048061D01*
X94001013Y-79901962D01*
X94095149Y-79807826D01*
X101735000Y-79807826D01*
X101735000Y-80090496D01*
X101790147Y-80367735D01*
X101898320Y-80628888D01*
X102055363Y-80863920D01*
X102255241Y-81063798D01*
X102490273Y-81220841D01*
X102751426Y-81329014D01*
X103028665Y-81384161D01*
X103311335Y-81384161D01*
X103588574Y-81329014D01*
X103849727Y-81220841D01*
X104084759Y-81063798D01*
X104284637Y-80863920D01*
X104304521Y-80834161D01*
X113945370Y-80834161D01*
X113988839Y-80838442D01*
X114032308Y-80834161D01*
X114032316Y-80834161D01*
X114162329Y-80821356D01*
X114329152Y-80770750D01*
X114482898Y-80688572D01*
X114617656Y-80577978D01*
X114645373Y-80544205D01*
X115943561Y-79246017D01*
X115978665Y-79253000D01*
X116261335Y-79253000D01*
X116538574Y-79197853D01*
X116799727Y-79089680D01*
X117034759Y-78932637D01*
X117234637Y-78732759D01*
X117391680Y-78497727D01*
X117499853Y-78236574D01*
X117555000Y-77959335D01*
X117555000Y-77676665D01*
X117499853Y-77399426D01*
X117391680Y-77138273D01*
X117234637Y-76903241D01*
X117034759Y-76703363D01*
X116799727Y-76546320D01*
X116538574Y-76438147D01*
X116261335Y-76383000D01*
X115978665Y-76383000D01*
X115701426Y-76438147D01*
X115440273Y-76546320D01*
X115205241Y-76703363D01*
X115005363Y-76903241D01*
X114848320Y-77138273D01*
X114740147Y-77399426D01*
X114685000Y-77676665D01*
X114685000Y-77959335D01*
X114691983Y-77994439D01*
X113622261Y-79064161D01*
X104304521Y-79064161D01*
X104284637Y-79034402D01*
X104084759Y-78834524D01*
X103849727Y-78677481D01*
X103588574Y-78569308D01*
X103311335Y-78514161D01*
X103028665Y-78514161D01*
X102751426Y-78569308D01*
X102490273Y-78677481D01*
X102255241Y-78834524D01*
X102055363Y-79034402D01*
X101898320Y-79269434D01*
X101790147Y-79530587D01*
X101735000Y-79807826D01*
X94095149Y-79807826D01*
X94186962Y-79716013D01*
X94333061Y-79497359D01*
X94433696Y-79254405D01*
X94485000Y-78996486D01*
X94485000Y-78733514D01*
X94433696Y-78475595D01*
X94333061Y-78232641D01*
X94186962Y-78013987D01*
X94001013Y-77828038D01*
X93782359Y-77681939D01*
X93568556Y-77593379D01*
X93731366Y-77533935D01*
X93832203Y-77480037D01*
X93891664Y-77246269D01*
X93150000Y-76504605D01*
X92408336Y-77246269D01*
X92467797Y-77480037D01*
X92706242Y-77590934D01*
X92725827Y-77595706D01*
X92517641Y-77681939D01*
X92298987Y-77828038D01*
X92113038Y-78013987D01*
X91966939Y-78232641D01*
X91866304Y-78475595D01*
X91815000Y-78733514D01*
X78685000Y-78733514D01*
X78685000Y-76399473D01*
X91810610Y-76399473D01*
X91850875Y-76659344D01*
X91941065Y-76906366D01*
X91994963Y-77007203D01*
X92228731Y-77066664D01*
X92970395Y-76325000D01*
X93329605Y-76325000D01*
X94071269Y-77066664D01*
X94305037Y-77007203D01*
X94415934Y-76768758D01*
X94473211Y-76533665D01*
X106065000Y-76533665D01*
X106065000Y-76816335D01*
X106120147Y-77093574D01*
X106228320Y-77354727D01*
X106385363Y-77589759D01*
X106585241Y-77789637D01*
X106820273Y-77946680D01*
X107081426Y-78054853D01*
X107358665Y-78110000D01*
X107641335Y-78110000D01*
X107918574Y-78054853D01*
X108179727Y-77946680D01*
X108414759Y-77789637D01*
X108614637Y-77589759D01*
X108634521Y-77560000D01*
X109885479Y-77560000D01*
X109905363Y-77589759D01*
X110105241Y-77789637D01*
X110340273Y-77946680D01*
X110601426Y-78054853D01*
X110878665Y-78110000D01*
X111161335Y-78110000D01*
X111438574Y-78054853D01*
X111699727Y-77946680D01*
X111934759Y-77789637D01*
X112134637Y-77589759D01*
X112291680Y-77354727D01*
X112399853Y-77093574D01*
X112455000Y-76816335D01*
X112455000Y-76533665D01*
X112399853Y-76256426D01*
X112291680Y-75995273D01*
X112134637Y-75760241D01*
X111934759Y-75560363D01*
X111699727Y-75403320D01*
X111438574Y-75295147D01*
X111161335Y-75240000D01*
X110878665Y-75240000D01*
X110601426Y-75295147D01*
X110340273Y-75403320D01*
X110105241Y-75560363D01*
X109905363Y-75760241D01*
X109885479Y-75790000D01*
X108634521Y-75790000D01*
X108614637Y-75760241D01*
X108414759Y-75560363D01*
X108179727Y-75403320D01*
X107918574Y-75295147D01*
X107641335Y-75240000D01*
X107358665Y-75240000D01*
X107081426Y-75295147D01*
X106820273Y-75403320D01*
X106585241Y-75560363D01*
X106385363Y-75760241D01*
X106228320Y-75995273D01*
X106120147Y-76256426D01*
X106065000Y-76533665D01*
X94473211Y-76533665D01*
X94478183Y-76513260D01*
X94489390Y-76250527D01*
X94449125Y-75990656D01*
X94358935Y-75743634D01*
X94305037Y-75642797D01*
X94071269Y-75583336D01*
X93329605Y-76325000D01*
X92970395Y-76325000D01*
X92228731Y-75583336D01*
X91994963Y-75642797D01*
X91884066Y-75881242D01*
X91821817Y-76136740D01*
X91810610Y-76399473D01*
X78685000Y-76399473D01*
X78685000Y-75403731D01*
X92408336Y-75403731D01*
X93150000Y-76145395D01*
X93891664Y-75403731D01*
X93832203Y-75169963D01*
X93593758Y-75059066D01*
X93338260Y-74996817D01*
X93075527Y-74985610D01*
X92815656Y-75025875D01*
X92568634Y-75116065D01*
X92467797Y-75169963D01*
X92408336Y-75403731D01*
X78685000Y-75403731D01*
X78685000Y-70046891D01*
X83924519Y-70046891D01*
X84021843Y-70321252D01*
X84170822Y-70571355D01*
X84365731Y-70787588D01*
X84599080Y-70961641D01*
X84861901Y-71086825D01*
X85009110Y-71131476D01*
X85239000Y-71010155D01*
X85239000Y-69817000D01*
X84045186Y-69817000D01*
X83924519Y-70046891D01*
X78685000Y-70046891D01*
X78685000Y-69333109D01*
X83924519Y-69333109D01*
X84045186Y-69563000D01*
X85239000Y-69563000D01*
X85239000Y-68369845D01*
X85493000Y-68369845D01*
X85493000Y-69563000D01*
X85513000Y-69563000D01*
X85513000Y-69817000D01*
X85493000Y-69817000D01*
X85493000Y-71010155D01*
X85722890Y-71131476D01*
X85870099Y-71086825D01*
X86132920Y-70961641D01*
X86366269Y-70787588D01*
X86561178Y-70571355D01*
X86630799Y-70454477D01*
X86665294Y-70519014D01*
X86850866Y-70745134D01*
X87076986Y-70930706D01*
X87334966Y-71068599D01*
X87614889Y-71153513D01*
X87833050Y-71175000D01*
X87978950Y-71175000D01*
X88197111Y-71153513D01*
X88477034Y-71068599D01*
X88735014Y-70930706D01*
X88961134Y-70745134D01*
X88985607Y-70715313D01*
X89006498Y-70784180D01*
X89065463Y-70894494D01*
X89144815Y-70991185D01*
X89241506Y-71070537D01*
X89351820Y-71129502D01*
X89471518Y-71165812D01*
X89596000Y-71178072D01*
X91296000Y-71178072D01*
X91420482Y-71165812D01*
X91540180Y-71129502D01*
X91650494Y-71070537D01*
X91747185Y-70991185D01*
X91826537Y-70894494D01*
X91885502Y-70784180D01*
X91921812Y-70664482D01*
X91934072Y-70540000D01*
X91934072Y-68840000D01*
X91921812Y-68715518D01*
X91885502Y-68595820D01*
X91826537Y-68485506D01*
X91747185Y-68388815D01*
X91650494Y-68309463D01*
X91540180Y-68250498D01*
X91420482Y-68214188D01*
X91296000Y-68201928D01*
X89596000Y-68201928D01*
X89471518Y-68214188D01*
X89351820Y-68250498D01*
X89241506Y-68309463D01*
X89144815Y-68388815D01*
X89065463Y-68485506D01*
X89006498Y-68595820D01*
X88985607Y-68664687D01*
X88961134Y-68634866D01*
X88735014Y-68449294D01*
X88477034Y-68311401D01*
X88197111Y-68226487D01*
X87978950Y-68205000D01*
X87833050Y-68205000D01*
X87614889Y-68226487D01*
X87334966Y-68311401D01*
X87076986Y-68449294D01*
X86850866Y-68634866D01*
X86665294Y-68860986D01*
X86630799Y-68925523D01*
X86561178Y-68808645D01*
X86366269Y-68592412D01*
X86132920Y-68418359D01*
X85870099Y-68293175D01*
X85722890Y-68248524D01*
X85493000Y-68369845D01*
X85239000Y-68369845D01*
X85009110Y-68248524D01*
X84861901Y-68293175D01*
X84599080Y-68418359D01*
X84365731Y-68592412D01*
X84170822Y-68808645D01*
X84021843Y-69058748D01*
X83924519Y-69333109D01*
X78685000Y-69333109D01*
X78685000Y-65024872D01*
X78940000Y-65024872D01*
X78940000Y-65465128D01*
X79025890Y-65896925D01*
X79194369Y-66303669D01*
X79438962Y-66669729D01*
X79750271Y-66981038D01*
X80116331Y-67225631D01*
X80523075Y-67394110D01*
X80954872Y-67480000D01*
X81395128Y-67480000D01*
X81826925Y-67394110D01*
X82233669Y-67225631D01*
X82599729Y-66981038D01*
X82911038Y-66669729D01*
X83155631Y-66303669D01*
X83324110Y-65896925D01*
X83364275Y-65695000D01*
X86036928Y-65695000D01*
X86049188Y-65819482D01*
X86085498Y-65939180D01*
X86144463Y-66049494D01*
X86223815Y-66146185D01*
X86320506Y-66225537D01*
X86430820Y-66284502D01*
X86550518Y-66320812D01*
X86675000Y-66333072D01*
X87239250Y-66330000D01*
X87398000Y-66171250D01*
X87398000Y-64972000D01*
X86198750Y-64972000D01*
X86040000Y-65130750D01*
X86036928Y-65695000D01*
X83364275Y-65695000D01*
X83410000Y-65465128D01*
X83410000Y-65024872D01*
X83324110Y-64593075D01*
X83155631Y-64186331D01*
X83027788Y-63995000D01*
X86036928Y-63995000D01*
X86040000Y-64559250D01*
X86198750Y-64718000D01*
X87398000Y-64718000D01*
X87398000Y-63518750D01*
X87239250Y-63360000D01*
X86675000Y-63356928D01*
X86550518Y-63369188D01*
X86430820Y-63405498D01*
X86320506Y-63464463D01*
X86223815Y-63543815D01*
X86144463Y-63640506D01*
X86085498Y-63750820D01*
X86049188Y-63870518D01*
X86036928Y-63995000D01*
X83027788Y-63995000D01*
X82911038Y-63820271D01*
X82599729Y-63508962D01*
X82233669Y-63264369D01*
X81826925Y-63095890D01*
X81395128Y-63010000D01*
X80954872Y-63010000D01*
X80523075Y-63095890D01*
X80116331Y-63264369D01*
X79750271Y-63508962D01*
X79438962Y-63820271D01*
X79194369Y-64186331D01*
X79025890Y-64593075D01*
X78940000Y-65024872D01*
X78685000Y-65024872D01*
X78685000Y-62685000D01*
X94851341Y-62685000D01*
X94549956Y-62986385D01*
X94549956Y-62986385D01*
G37*
X94549956Y-62986385D02*
X94516183Y-63014102D01*
X94405589Y-63148861D01*
X94323411Y-63302607D01*
X94306933Y-63356928D01*
X94274312Y-63464463D01*
X94272805Y-63469430D01*
X94260000Y-63599443D01*
X94260000Y-63599450D01*
X94255719Y-63642919D01*
X94256706Y-63652944D01*
X94089866Y-63789866D01*
X93904294Y-64015986D01*
X93875000Y-64070791D01*
X93845706Y-64015986D01*
X93660134Y-63789866D01*
X93434014Y-63604294D01*
X93176034Y-63466401D01*
X92896111Y-63381487D01*
X92677950Y-63360000D01*
X92532050Y-63360000D01*
X92313889Y-63381487D01*
X92033966Y-63466401D01*
X91775986Y-63604294D01*
X91549866Y-63789866D01*
X91364294Y-64015986D01*
X91335000Y-64070791D01*
X91305706Y-64015986D01*
X91120134Y-63789866D01*
X90894014Y-63604294D01*
X90636034Y-63466401D01*
X90356111Y-63381487D01*
X90137950Y-63360000D01*
X89992050Y-63360000D01*
X89773889Y-63381487D01*
X89493966Y-63466401D01*
X89235986Y-63604294D01*
X89009866Y-63789866D01*
X88985393Y-63819687D01*
X88964502Y-63750820D01*
X88905537Y-63640506D01*
X88826185Y-63543815D01*
X88729494Y-63464463D01*
X88619180Y-63405498D01*
X88499482Y-63369188D01*
X88375000Y-63356928D01*
X87810750Y-63360000D01*
X87652000Y-63518750D01*
X87652000Y-64718000D01*
X87672000Y-64718000D01*
X87672000Y-64972000D01*
X87652000Y-64972000D01*
X87652000Y-66171250D01*
X87810750Y-66330000D01*
X88375000Y-66333072D01*
X88499482Y-66320812D01*
X88619180Y-66284502D01*
X88729494Y-66225537D01*
X88826185Y-66146185D01*
X88905537Y-66049494D01*
X88964502Y-65939180D01*
X88985393Y-65870313D01*
X89009866Y-65900134D01*
X89235986Y-66085706D01*
X89493966Y-66223599D01*
X89773889Y-66308513D01*
X89992050Y-66330000D01*
X90137950Y-66330000D01*
X90356111Y-66308513D01*
X90636034Y-66223599D01*
X90894014Y-66085706D01*
X91120134Y-65900134D01*
X91305706Y-65674014D01*
X91335000Y-65619209D01*
X91364294Y-65674014D01*
X91549866Y-65900134D01*
X91775986Y-66085706D01*
X92033966Y-66223599D01*
X92313889Y-66308513D01*
X92532050Y-66330000D01*
X92677950Y-66330000D01*
X92896111Y-66308513D01*
X93176034Y-66223599D01*
X93434014Y-66085706D01*
X93660134Y-65900134D01*
X93845706Y-65674014D01*
X93875000Y-65619209D01*
X93904294Y-65674014D01*
X94089866Y-65900134D01*
X94315986Y-66085706D01*
X94573966Y-66223599D01*
X94853889Y-66308513D01*
X95072050Y-66330000D01*
X95217950Y-66330000D01*
X95436111Y-66308513D01*
X95716034Y-66223599D01*
X95974014Y-66085706D01*
X96200134Y-65900134D01*
X96385706Y-65674014D01*
X96415000Y-65619209D01*
X96444294Y-65674014D01*
X96629866Y-65900134D01*
X96855986Y-66085706D01*
X97113966Y-66223599D01*
X97393889Y-66308513D01*
X97612050Y-66330000D01*
X97757950Y-66330000D01*
X97976111Y-66308513D01*
X98256034Y-66223599D01*
X98514014Y-66085706D01*
X98740134Y-65900134D01*
X98925706Y-65674014D01*
X98955000Y-65619209D01*
X98984294Y-65674014D01*
X99169866Y-65900134D01*
X99395986Y-66085706D01*
X99653966Y-66223599D01*
X99933889Y-66308513D01*
X100152050Y-66330000D01*
X100297950Y-66330000D01*
X100516111Y-66308513D01*
X100796034Y-66223599D01*
X101054014Y-66085706D01*
X101280134Y-65900134D01*
X101465706Y-65674014D01*
X101603599Y-65416034D01*
X101688513Y-65136111D01*
X101717185Y-64845000D01*
X101688513Y-64553889D01*
X101603599Y-64273966D01*
X101465706Y-64015986D01*
X101280134Y-63789866D01*
X101054014Y-63604294D01*
X100796034Y-63466401D01*
X100784822Y-63463000D01*
X116978991Y-63463000D01*
X116978990Y-70263641D01*
X116974709Y-70307110D01*
X116978990Y-70350579D01*
X116978990Y-70350586D01*
X116991795Y-70480599D01*
X117042401Y-70647422D01*
X117075407Y-70709172D01*
X116963939Y-70687000D01*
X116760061Y-70687000D01*
X116560102Y-70726774D01*
X116371744Y-70804795D01*
X116202226Y-70918063D01*
X116058063Y-71062226D01*
X115944795Y-71231744D01*
X115866774Y-71420102D01*
X115827000Y-71620061D01*
X115827000Y-71823939D01*
X115866774Y-72023898D01*
X115944795Y-72212256D01*
X115977000Y-72260455D01*
X115977001Y-73710521D01*
X115972719Y-73754000D01*
X115989805Y-73927490D01*
X116040412Y-74094313D01*
X116122590Y-74248059D01*
X116205468Y-74349046D01*
X116205471Y-74349049D01*
X116233184Y-74382817D01*
X116266952Y-74410530D01*
X116363465Y-74507043D01*
X116374774Y-74563898D01*
X116452795Y-74752256D01*
X116566063Y-74921774D01*
X116710226Y-75065937D01*
X116879744Y-75179205D01*
X117068102Y-75257226D01*
X117268061Y-75297000D01*
X117471939Y-75297000D01*
X117671898Y-75257226D01*
X117860256Y-75179205D01*
X118029774Y-75065937D01*
X118173937Y-74921774D01*
X118287205Y-74752256D01*
X118365226Y-74563898D01*
X118405000Y-74363939D01*
X118405000Y-74160061D01*
X118365226Y-73960102D01*
X118287205Y-73771744D01*
X118173937Y-73602226D01*
X118029774Y-73458063D01*
X117860256Y-73344795D01*
X117747000Y-73297882D01*
X117747000Y-72260454D01*
X117779205Y-72212256D01*
X117857226Y-72023898D01*
X117897000Y-71823939D01*
X117897000Y-71620061D01*
X117873376Y-71501297D01*
X117922566Y-71527589D01*
X118073807Y-71573468D01*
X118089390Y-71578195D01*
X118219403Y-71591000D01*
X118219411Y-71591000D01*
X118262880Y-71595281D01*
X118306349Y-71591000D01*
X129195422Y-71591000D01*
X129693001Y-72088580D01*
X129693000Y-73710531D01*
X129688719Y-73754000D01*
X129693000Y-73797469D01*
X129693000Y-73797476D01*
X129705805Y-73927489D01*
X129756411Y-74094312D01*
X129838589Y-74248058D01*
X129949183Y-74382817D01*
X129982956Y-74410534D01*
X132461470Y-76889049D01*
X132489183Y-76922817D01*
X132522951Y-76950530D01*
X132522953Y-76950532D01*
X132551216Y-76973727D01*
X132623941Y-77033411D01*
X132777687Y-77115589D01*
X132944510Y-77166195D01*
X133074523Y-77179000D01*
X133074533Y-77179000D01*
X133117999Y-77183281D01*
X133161465Y-77179000D01*
X133507479Y-77179000D01*
X133527363Y-77208759D01*
X133727241Y-77408637D01*
X133962273Y-77565680D01*
X134223426Y-77673853D01*
X134500665Y-77729000D01*
X134783335Y-77729000D01*
X135060574Y-77673853D01*
X135321727Y-77565680D01*
X135556759Y-77408637D01*
X135756637Y-77208759D01*
X135913680Y-76973727D01*
X136021853Y-76712574D01*
X136077000Y-76435335D01*
X136077000Y-76152665D01*
X136021853Y-75875426D01*
X135913680Y-75614273D01*
X135756637Y-75379241D01*
X135655396Y-75278000D01*
X135756637Y-75176759D01*
X135913680Y-74941727D01*
X136021853Y-74680574D01*
X136077000Y-74403335D01*
X136077000Y-74120665D01*
X136021853Y-73843426D01*
X135913680Y-73582273D01*
X135756637Y-73347241D01*
X135556759Y-73147363D01*
X135321727Y-72990320D01*
X135060574Y-72882147D01*
X134783335Y-72827000D01*
X134500665Y-72827000D01*
X134465561Y-72833983D01*
X134038017Y-72406439D01*
X134045000Y-72371335D01*
X134045000Y-72088665D01*
X133989853Y-71811426D01*
X133881680Y-71550273D01*
X133724637Y-71315241D01*
X133524759Y-71115363D01*
X133289727Y-70958320D01*
X133028574Y-70850147D01*
X132751335Y-70795000D01*
X132468665Y-70795000D01*
X132191426Y-70850147D01*
X131930273Y-70958320D01*
X131695241Y-71115363D01*
X131495363Y-71315241D01*
X131415631Y-71434569D01*
X131399589Y-71381687D01*
X131317411Y-71227941D01*
X131238244Y-71131476D01*
X131234532Y-71126953D01*
X131234530Y-71126951D01*
X131206817Y-71093183D01*
X131173049Y-71065470D01*
X130892579Y-70785000D01*
X137634353Y-70785000D01*
X137668000Y-70788314D01*
X137701647Y-70785000D01*
X137802283Y-70775088D01*
X137931406Y-70735919D01*
X138050407Y-70672312D01*
X138154711Y-70586711D01*
X138240312Y-70482407D01*
X138303919Y-70363406D01*
X138343088Y-70234283D01*
X138356314Y-70100000D01*
X138353000Y-70066353D01*
X138353000Y-65024872D01*
X157680000Y-65024872D01*
X157680000Y-65465128D01*
X157765890Y-65896925D01*
X157934369Y-66303669D01*
X158178962Y-66669729D01*
X158490271Y-66981038D01*
X158856331Y-67225631D01*
X159263075Y-67394110D01*
X159694872Y-67480000D01*
X160135128Y-67480000D01*
X160566925Y-67394110D01*
X160973669Y-67225631D01*
X161339729Y-66981038D01*
X161651038Y-66669729D01*
X161895631Y-66303669D01*
X162064110Y-65896925D01*
X162150000Y-65465128D01*
X162150000Y-65024872D01*
X162064110Y-64593075D01*
X161895631Y-64186331D01*
X161651038Y-63820271D01*
X161339729Y-63508962D01*
X160973669Y-63264369D01*
X160566925Y-63095890D01*
X160135128Y-63010000D01*
X159694872Y-63010000D01*
X159263075Y-63095890D01*
X158856331Y-63264369D01*
X158490271Y-63508962D01*
X158178962Y-63820271D01*
X157934369Y-64186331D01*
X157765890Y-64593075D01*
X157680000Y-65024872D01*
X138353000Y-65024872D01*
X138353000Y-62685000D01*
X162315000Y-62685000D01*
X162315001Y-136315000D01*
X152970917Y-136315000D01*
X153039853Y-136148574D01*
X153095000Y-135871335D01*
X153095000Y-135588665D01*
X153039853Y-135311426D01*
X152931680Y-135050273D01*
X152774637Y-134815241D01*
X152574759Y-134615363D01*
X152339727Y-134458320D01*
X152078574Y-134350147D01*
X151801335Y-134295000D01*
X151518665Y-134295000D01*
X151241426Y-134350147D01*
X150980273Y-134458320D01*
X150745241Y-134615363D01*
X150545363Y-134815241D01*
X150525479Y-134845000D01*
X150005000Y-134845000D01*
X150005000Y-134324521D01*
X150034759Y-134304637D01*
X150234637Y-134104759D01*
X150391680Y-133869727D01*
X150499853Y-133608574D01*
X150500589Y-133604872D01*
X157680000Y-133604872D01*
X157680000Y-134045128D01*
X157765890Y-134476925D01*
X157934369Y-134883669D01*
X158178962Y-135249729D01*
X158490271Y-135561038D01*
X158856331Y-135805631D01*
X159263075Y-135974110D01*
X159694872Y-136060000D01*
X160135128Y-136060000D01*
X160566925Y-135974110D01*
X160973669Y-135805631D01*
X161339729Y-135561038D01*
X161651038Y-135249729D01*
X161895631Y-134883669D01*
X162064110Y-134476925D01*
X162150000Y-134045128D01*
X162150000Y-133604872D01*
X162064110Y-133173075D01*
X161895631Y-132766331D01*
X161651038Y-132400271D01*
X161339729Y-132088962D01*
X160973669Y-131844369D01*
X160566925Y-131675890D01*
X160135128Y-131590000D01*
X159694872Y-131590000D01*
X159263075Y-131675890D01*
X158856331Y-131844369D01*
X158490271Y-132088962D01*
X158178962Y-132400271D01*
X157934369Y-132766331D01*
X157765890Y-133173075D01*
X157680000Y-133604872D01*
X150500589Y-133604872D01*
X150555000Y-133331335D01*
X150555000Y-133048665D01*
X150499853Y-132771426D01*
X150391680Y-132510273D01*
X150234637Y-132275241D01*
X150034759Y-132075363D01*
X149799727Y-131918320D01*
X149538574Y-131810147D01*
X149261335Y-131755000D01*
X148978665Y-131755000D01*
X148701426Y-131810147D01*
X148440273Y-131918320D01*
X148205241Y-132075363D01*
X148005363Y-132275241D01*
X147848320Y-132510273D01*
X147740147Y-132771426D01*
X147685000Y-133048665D01*
X147685000Y-133331335D01*
X147740147Y-133608574D01*
X147848320Y-133869727D01*
X148005363Y-134104759D01*
X148205241Y-134304637D01*
X148235001Y-134324522D01*
X148235000Y-134845000D01*
X146058183Y-134845000D01*
X146107207Y-134598542D01*
X146107207Y-134315872D01*
X146052060Y-134038633D01*
X145943887Y-133777480D01*
X145786844Y-133542448D01*
X145586966Y-133342570D01*
X145351934Y-133185527D01*
X145090781Y-133077354D01*
X144813542Y-133022207D01*
X144530872Y-133022207D01*
X144253633Y-133077354D01*
X143992480Y-133185527D01*
X143757448Y-133342570D01*
X143557570Y-133542448D01*
X143537686Y-133572207D01*
X89796579Y-133572207D01*
X83330000Y-127105629D01*
X83330000Y-124550000D01*
X85311928Y-124550000D01*
X85311928Y-126300000D01*
X85341001Y-126595186D01*
X85427104Y-126879028D01*
X85566927Y-127140618D01*
X85755097Y-127369903D01*
X85984382Y-127558073D01*
X86245972Y-127697896D01*
X86529814Y-127783999D01*
X86825000Y-127813072D01*
X88575000Y-127813072D01*
X88870186Y-127783999D01*
X89154028Y-127697896D01*
X89415618Y-127558073D01*
X89644903Y-127369903D01*
X89833073Y-127140618D01*
X89972896Y-126879028D01*
X90058999Y-126595186D01*
X90088072Y-126300000D01*
X90088072Y-124550000D01*
X90058999Y-124254814D01*
X89972896Y-123970972D01*
X89833073Y-123709382D01*
X89644903Y-123480097D01*
X89415618Y-123291927D01*
X89154028Y-123152104D01*
X89025357Y-123113072D01*
X92450000Y-123113072D01*
X92574482Y-123100812D01*
X92694180Y-123064502D01*
X92804494Y-123005537D01*
X92901185Y-122926185D01*
X92980537Y-122829494D01*
X93039502Y-122719180D01*
X93075812Y-122599482D01*
X93088072Y-122475000D01*
X93088072Y-118975000D01*
X93075812Y-118850518D01*
X93039502Y-118730820D01*
X92980537Y-118620506D01*
X92901185Y-118523815D01*
X92804494Y-118444463D01*
X92694180Y-118385498D01*
X92574482Y-118349188D01*
X92450000Y-118336928D01*
X88950000Y-118336928D01*
X88825518Y-118349188D01*
X88705820Y-118385498D01*
X88595506Y-118444463D01*
X88498815Y-118523815D01*
X88419463Y-118620506D01*
X88360498Y-118730820D01*
X88324188Y-118850518D01*
X88311928Y-118975000D01*
X88311928Y-122475000D01*
X88324188Y-122599482D01*
X88360498Y-122719180D01*
X88419463Y-122829494D01*
X88498815Y-122926185D01*
X88595506Y-123005537D01*
X88672131Y-123046494D01*
X88575000Y-123036928D01*
X86825000Y-123036928D01*
X86529814Y-123066001D01*
X86245972Y-123152104D01*
X85984382Y-123291927D01*
X85755097Y-123480097D01*
X85566927Y-123709382D01*
X85427104Y-123970972D01*
X85341001Y-124254814D01*
X85311928Y-124550000D01*
X83330000Y-124550000D01*
X83330000Y-123112743D01*
X84414250Y-123110000D01*
X84573000Y-122951250D01*
X84573000Y-120852000D01*
X84827000Y-120852000D01*
X84827000Y-122951250D01*
X84985750Y-123110000D01*
X86200000Y-123113072D01*
X86324482Y-123100812D01*
X86444180Y-123064502D01*
X86554494Y-123005537D01*
X86651185Y-122926185D01*
X86730537Y-122829494D01*
X86789502Y-122719180D01*
X86825812Y-122599482D01*
X86838072Y-122475000D01*
X86835000Y-121010750D01*
X86676250Y-120852000D01*
X84827000Y-120852000D01*
X84573000Y-120852000D01*
X84553000Y-120852000D01*
X84553000Y-120598000D01*
X84573000Y-120598000D01*
X84573000Y-118498750D01*
X84827000Y-118498750D01*
X84827000Y-120598000D01*
X86676250Y-120598000D01*
X86835000Y-120439250D01*
X86838072Y-118975000D01*
X86825812Y-118850518D01*
X86789502Y-118730820D01*
X86730537Y-118620506D01*
X86651185Y-118523815D01*
X86554494Y-118444463D01*
X86444180Y-118385498D01*
X86324482Y-118349188D01*
X86200000Y-118336928D01*
X84985750Y-118340000D01*
X84827000Y-118498750D01*
X84573000Y-118498750D01*
X84414250Y-118340000D01*
X83330000Y-118337257D01*
X83330000Y-116316122D01*
X146875825Y-116316122D01*
X146913469Y-116466622D01*
X147051843Y-116778317D01*
X147248367Y-117057027D01*
X147495489Y-117292042D01*
X147783712Y-117474330D01*
X148101959Y-117596886D01*
X148438000Y-117655000D01*
X149338000Y-117655000D01*
X149338000Y-116047000D01*
X149592000Y-116047000D01*
X149592000Y-117655000D01*
X150492000Y-117655000D01*
X150828041Y-117596886D01*
X151146288Y-117474330D01*
X151434511Y-117292042D01*
X151681633Y-117057027D01*
X151878157Y-116778317D01*
X152016531Y-116466622D01*
X152054175Y-116316122D01*
X151936125Y-116047000D01*
X149592000Y-116047000D01*
X149338000Y-116047000D01*
X146993875Y-116047000D01*
X146875825Y-116316122D01*
X83330000Y-116316122D01*
X83330000Y-115523878D01*
X146875825Y-115523878D01*
X146993875Y-115793000D01*
X149338000Y-115793000D01*
X149338000Y-115773000D01*
X149592000Y-115773000D01*
X149592000Y-115793000D01*
X151936125Y-115793000D01*
X152054175Y-115523878D01*
X152016531Y-115373378D01*
X151878157Y-115061683D01*
X151793016Y-114940936D01*
X151905119Y-114929895D01*
X152232168Y-114830686D01*
X152533578Y-114669579D01*
X152797766Y-114452766D01*
X153014579Y-114188578D01*
X153175686Y-113887168D01*
X153274895Y-113560119D01*
X153308394Y-113220000D01*
X153274895Y-112879881D01*
X153175686Y-112552832D01*
X153014579Y-112251422D01*
X152797766Y-111987234D01*
X152533578Y-111770421D01*
X152232168Y-111609314D01*
X151905119Y-111510105D01*
X151650225Y-111485000D01*
X149679775Y-111485000D01*
X149424881Y-111510105D01*
X149097832Y-111609314D01*
X148796422Y-111770421D01*
X148532234Y-111987234D01*
X148315421Y-112251422D01*
X148154314Y-112552832D01*
X148055105Y-112879881D01*
X148021606Y-113220000D01*
X148055105Y-113560119D01*
X148154314Y-113887168D01*
X148315421Y-114188578D01*
X148328084Y-114204008D01*
X148101959Y-114243114D01*
X147783712Y-114365670D01*
X147495489Y-114547958D01*
X147248367Y-114782973D01*
X147051843Y-115061683D01*
X146913469Y-115373378D01*
X146875825Y-115523878D01*
X83330000Y-115523878D01*
X83330000Y-109426578D01*
X83538561Y-109218017D01*
X83573665Y-109225000D01*
X83793940Y-109225000D01*
X83617214Y-109489489D01*
X83446851Y-109900782D01*
X83360000Y-110337409D01*
X83360000Y-110782591D01*
X83446851Y-111219218D01*
X83617214Y-111630511D01*
X83864544Y-112000666D01*
X84179334Y-112315456D01*
X84549489Y-112562786D01*
X84960782Y-112733149D01*
X85397409Y-112820000D01*
X85842591Y-112820000D01*
X86279218Y-112733149D01*
X86690511Y-112562786D01*
X87060666Y-112315456D01*
X87375456Y-112000666D01*
X87622786Y-111630511D01*
X87793149Y-111219218D01*
X87880000Y-110782591D01*
X87880000Y-110337409D01*
X87793149Y-109900782D01*
X87678559Y-109624137D01*
X91185469Y-109624137D01*
X91252206Y-109864025D01*
X91500892Y-109980924D01*
X91767606Y-110047061D01*
X92042097Y-110059895D01*
X92313817Y-110018931D01*
X92572326Y-109925744D01*
X92687794Y-109864025D01*
X92754531Y-109624137D01*
X91970000Y-108839605D01*
X91185469Y-109624137D01*
X87678559Y-109624137D01*
X87622786Y-109489489D01*
X87375456Y-109119334D01*
X87060666Y-108804544D01*
X86952242Y-108732097D01*
X90570105Y-108732097D01*
X90611069Y-109003817D01*
X90704256Y-109262326D01*
X90765975Y-109377794D01*
X91005863Y-109444531D01*
X91790395Y-108660000D01*
X92149605Y-108660000D01*
X92934137Y-109444531D01*
X93174025Y-109377794D01*
X93290924Y-109129108D01*
X93357061Y-108862394D01*
X93369895Y-108587903D01*
X93328931Y-108316183D01*
X93235744Y-108057674D01*
X93174025Y-107942206D01*
X92934137Y-107875469D01*
X92149605Y-108660000D01*
X91790395Y-108660000D01*
X91005863Y-107875469D01*
X90765975Y-107942206D01*
X90649076Y-108190892D01*
X90582939Y-108457606D01*
X90570105Y-108732097D01*
X86952242Y-108732097D01*
X86690511Y-108557214D01*
X86279218Y-108386851D01*
X85842591Y-108300000D01*
X85397409Y-108300000D01*
X85026416Y-108373795D01*
X85094853Y-108208574D01*
X85150000Y-107931335D01*
X85150000Y-107648665D01*
X85094853Y-107371426D01*
X84986680Y-107110273D01*
X84969217Y-107084137D01*
X91185469Y-107084137D01*
X91252206Y-107324025D01*
X91386882Y-107387332D01*
X91367674Y-107394256D01*
X91252206Y-107455975D01*
X91185469Y-107695863D01*
X91970000Y-108480395D01*
X92754531Y-107695863D01*
X92687794Y-107455975D01*
X92553118Y-107392668D01*
X92572326Y-107385744D01*
X92687794Y-107324025D01*
X92754531Y-107084137D01*
X91970000Y-106299605D01*
X91185469Y-107084137D01*
X84969217Y-107084137D01*
X84829637Y-106875241D01*
X84629759Y-106675363D01*
X84553856Y-106624646D01*
X84566426Y-106629853D01*
X84843665Y-106685000D01*
X85126335Y-106685000D01*
X85403574Y-106629853D01*
X85664727Y-106521680D01*
X85899759Y-106364637D01*
X86072299Y-106192097D01*
X90570105Y-106192097D01*
X90611069Y-106463817D01*
X90704256Y-106722326D01*
X90765975Y-106837794D01*
X91005863Y-106904531D01*
X91790395Y-106120000D01*
X92149605Y-106120000D01*
X92934137Y-106904531D01*
X93174025Y-106837794D01*
X93290924Y-106589108D01*
X93357061Y-106322394D01*
X93369895Y-106047903D01*
X93328931Y-105776183D01*
X93235744Y-105517674D01*
X93174025Y-105402206D01*
X92934137Y-105335469D01*
X92149605Y-106120000D01*
X91790395Y-106120000D01*
X91005863Y-105335469D01*
X90765975Y-105402206D01*
X90649076Y-105650892D01*
X90582939Y-105917606D01*
X90570105Y-106192097D01*
X86072299Y-106192097D01*
X86099637Y-106164759D01*
X86256680Y-105929727D01*
X86364853Y-105668574D01*
X86420000Y-105391335D01*
X86420000Y-105108665D01*
X86364853Y-104831426D01*
X86256680Y-104570273D01*
X86099637Y-104335241D01*
X85899759Y-104135363D01*
X85664727Y-103978320D01*
X85403574Y-103870147D01*
X85126335Y-103815000D01*
X85073552Y-103815000D01*
X85094853Y-103763574D01*
X85150000Y-103486335D01*
X85150000Y-103442604D01*
X90575000Y-103442604D01*
X90575000Y-103717396D01*
X90628609Y-103986907D01*
X90733767Y-104240780D01*
X90886433Y-104469261D01*
X91080739Y-104663567D01*
X91309220Y-104816233D01*
X91385501Y-104847830D01*
X91367674Y-104854256D01*
X91252206Y-104915975D01*
X91185469Y-105155863D01*
X91970000Y-105940395D01*
X92754531Y-105155863D01*
X92687794Y-104915975D01*
X92548293Y-104850400D01*
X92630780Y-104816233D01*
X92859261Y-104663567D01*
X93053567Y-104469261D01*
X93206233Y-104240780D01*
X93311391Y-103986907D01*
X93365000Y-103717396D01*
X93365000Y-103575501D01*
X93395506Y-103600537D01*
X93505820Y-103659502D01*
X93625518Y-103695812D01*
X93713467Y-103704474D01*
X93620739Y-103766433D01*
X93426433Y-103960739D01*
X93273767Y-104189220D01*
X93168609Y-104443093D01*
X93115000Y-104712604D01*
X93115000Y-104987396D01*
X93168609Y-105256907D01*
X93273767Y-105510780D01*
X93426433Y-105739261D01*
X93620739Y-105933567D01*
X93849220Y-106086233D01*
X93930740Y-106120000D01*
X93849220Y-106153767D01*
X93620739Y-106306433D01*
X93426433Y-106500739D01*
X93273767Y-106729220D01*
X93168609Y-106983093D01*
X93115000Y-107252604D01*
X93115000Y-107527396D01*
X93168609Y-107796907D01*
X93273767Y-108050780D01*
X93426433Y-108279261D01*
X93620739Y-108473567D01*
X93849220Y-108626233D01*
X94103093Y-108731391D01*
X94372604Y-108785000D01*
X94647396Y-108785000D01*
X94889261Y-108736890D01*
X100158524Y-108736890D01*
X100203175Y-108884099D01*
X100328359Y-109146920D01*
X100502412Y-109380269D01*
X100718645Y-109575178D01*
X100968748Y-109724157D01*
X101243109Y-109821481D01*
X101473000Y-109700814D01*
X101473000Y-108507000D01*
X101727000Y-108507000D01*
X101727000Y-109700814D01*
X101956891Y-109821481D01*
X102231252Y-109724157D01*
X102481355Y-109575178D01*
X102697588Y-109380269D01*
X102871641Y-109146920D01*
X102996825Y-108884099D01*
X103041476Y-108736890D01*
X102920155Y-108507000D01*
X101727000Y-108507000D01*
X101473000Y-108507000D01*
X100279845Y-108507000D01*
X100158524Y-108736890D01*
X94889261Y-108736890D01*
X94916907Y-108731391D01*
X95170780Y-108626233D01*
X95399261Y-108473567D01*
X95593567Y-108279261D01*
X95746233Y-108050780D01*
X95851391Y-107796907D01*
X95905000Y-107527396D01*
X95905000Y-107252604D01*
X95851391Y-106983093D01*
X95746233Y-106729220D01*
X95743413Y-106725000D01*
X100405241Y-106725000D01*
X100544866Y-106895134D01*
X100770986Y-107080706D01*
X100835523Y-107115201D01*
X100718645Y-107184822D01*
X100502412Y-107379731D01*
X100328359Y-107613080D01*
X100203175Y-107875901D01*
X100158524Y-108023110D01*
X100279845Y-108253000D01*
X101473000Y-108253000D01*
X101473000Y-108233000D01*
X101727000Y-108233000D01*
X101727000Y-108253000D01*
X102920155Y-108253000D01*
X102970528Y-108157548D01*
X120253883Y-108157548D01*
X120253883Y-108440218D01*
X120309030Y-108717457D01*
X120417203Y-108978610D01*
X120574246Y-109213642D01*
X120774124Y-109413520D01*
X121009156Y-109570563D01*
X121270309Y-109678736D01*
X121547548Y-109733883D01*
X121830218Y-109733883D01*
X122107457Y-109678736D01*
X122368610Y-109570563D01*
X122603642Y-109413520D01*
X122803520Y-109213642D01*
X122960563Y-108978610D01*
X123068736Y-108717457D01*
X123123883Y-108440218D01*
X123123883Y-108157548D01*
X123116900Y-108122444D01*
X123255043Y-107984302D01*
X123288811Y-107956589D01*
X123333617Y-107901994D01*
X123399404Y-107821832D01*
X123399405Y-107821831D01*
X123481583Y-107668085D01*
X123532189Y-107501262D01*
X123544994Y-107371249D01*
X123544994Y-107371239D01*
X123549275Y-107327773D01*
X123544994Y-107284307D01*
X123544994Y-102574521D01*
X123559996Y-102564498D01*
X123780270Y-102711680D01*
X124041423Y-102819853D01*
X124318662Y-102875000D01*
X124374996Y-102875000D01*
X124374997Y-105983696D01*
X124370715Y-106027175D01*
X124387801Y-106200665D01*
X124438408Y-106367488D01*
X124520586Y-106521234D01*
X124603464Y-106622221D01*
X124603467Y-106622224D01*
X124631180Y-106655992D01*
X124664948Y-106683705D01*
X124867000Y-106885757D01*
X124867000Y-106930489D01*
X124837241Y-106950373D01*
X124637363Y-107150251D01*
X124480320Y-107385283D01*
X124372147Y-107646436D01*
X124317000Y-107923675D01*
X124317000Y-108206345D01*
X124372147Y-108483584D01*
X124480320Y-108744737D01*
X124612157Y-108942045D01*
X124571426Y-108950147D01*
X124310273Y-109058320D01*
X124075241Y-109215363D01*
X123875363Y-109415241D01*
X123718320Y-109650273D01*
X123610147Y-109911426D01*
X123555000Y-110188665D01*
X123555000Y-110471335D01*
X123610147Y-110748574D01*
X123718320Y-111009727D01*
X123875363Y-111244759D01*
X124075241Y-111444637D01*
X124310273Y-111601680D01*
X124571426Y-111709853D01*
X124848665Y-111765000D01*
X125131335Y-111765000D01*
X125408574Y-111709853D01*
X125669727Y-111601680D01*
X125904759Y-111444637D01*
X126104637Y-111244759D01*
X126261680Y-111009727D01*
X126369853Y-110748574D01*
X126418282Y-110505110D01*
X126696551Y-110338148D01*
X126754059Y-110307410D01*
X126804781Y-110265784D01*
X126857507Y-110226642D01*
X126901309Y-110178269D01*
X127139124Y-109940454D01*
X127084475Y-110215190D01*
X127084475Y-110497860D01*
X127139622Y-110775099D01*
X127247795Y-111036252D01*
X127404838Y-111271284D01*
X127604716Y-111471162D01*
X127839748Y-111628205D01*
X128100901Y-111736378D01*
X128378140Y-111791525D01*
X128660810Y-111791525D01*
X128938049Y-111736378D01*
X129199202Y-111628205D01*
X129434234Y-111471162D01*
X129634112Y-111271284D01*
X129791155Y-111036252D01*
X129899328Y-110775099D01*
X129954475Y-110497860D01*
X129954475Y-110215190D01*
X129899328Y-109937951D01*
X129791155Y-109676798D01*
X129634112Y-109441766D01*
X129434234Y-109241888D01*
X129404475Y-109222004D01*
X129404475Y-108875990D01*
X129408756Y-108832524D01*
X129404475Y-108789058D01*
X129404475Y-108789048D01*
X129391670Y-108659035D01*
X129341064Y-108492212D01*
X129258886Y-108338466D01*
X129177000Y-108238688D01*
X129177000Y-102574521D01*
X129206759Y-102554637D01*
X129406637Y-102354759D01*
X129563680Y-102119727D01*
X129671853Y-101858574D01*
X129727000Y-101581335D01*
X129727000Y-101298665D01*
X129671853Y-101021426D01*
X129563680Y-100760273D01*
X129406637Y-100525241D01*
X129206759Y-100325363D01*
X128971727Y-100168320D01*
X128710574Y-100060147D01*
X128433335Y-100005000D01*
X128150665Y-100005000D01*
X127873426Y-100060147D01*
X127612273Y-100168320D01*
X127377241Y-100325363D01*
X127276000Y-100426604D01*
X127174759Y-100325363D01*
X126939727Y-100168320D01*
X126678574Y-100060147D01*
X126401335Y-100005000D01*
X126118665Y-100005000D01*
X125841426Y-100060147D01*
X125580273Y-100168320D01*
X125359999Y-100315502D01*
X125139724Y-100168320D01*
X124878571Y-100060147D01*
X124601332Y-100005000D01*
X124318662Y-100005000D01*
X124041423Y-100060147D01*
X123780270Y-100168320D01*
X123559996Y-100315502D01*
X123339721Y-100168320D01*
X123078568Y-100060147D01*
X122801329Y-100005000D01*
X122518659Y-100005000D01*
X122241420Y-100060147D01*
X121980267Y-100168320D01*
X121745235Y-100325363D01*
X121545357Y-100525241D01*
X121388314Y-100760273D01*
X121280141Y-101021426D01*
X121224994Y-101298665D01*
X121224994Y-101581335D01*
X121280141Y-101858574D01*
X121388314Y-102119727D01*
X121545357Y-102354759D01*
X121745235Y-102554637D01*
X121774994Y-102574521D01*
X121774995Y-106863883D01*
X121547548Y-106863883D01*
X121270309Y-106919030D01*
X121009156Y-107027203D01*
X120774124Y-107184246D01*
X120574246Y-107384124D01*
X120417203Y-107619156D01*
X120309030Y-107880309D01*
X120253883Y-108157548D01*
X102970528Y-108157548D01*
X103041476Y-108023110D01*
X102996825Y-107875901D01*
X102871641Y-107613080D01*
X102697588Y-107379731D01*
X102481355Y-107184822D01*
X102364477Y-107115201D01*
X102429014Y-107080706D01*
X102655134Y-106895134D01*
X102840706Y-106669014D01*
X102978599Y-106411034D01*
X103063513Y-106131111D01*
X103092185Y-105840000D01*
X103063513Y-105548889D01*
X102978599Y-105268966D01*
X102840706Y-105010986D01*
X102655134Y-104784866D01*
X102625313Y-104760393D01*
X102694180Y-104739502D01*
X102804494Y-104680537D01*
X102901185Y-104601185D01*
X102980537Y-104504494D01*
X103039502Y-104394180D01*
X103075812Y-104274482D01*
X103088072Y-104150000D01*
X103088072Y-102450000D01*
X103075812Y-102325518D01*
X103039502Y-102205820D01*
X102980537Y-102095506D01*
X102901185Y-101998815D01*
X102804494Y-101919463D01*
X102694180Y-101860498D01*
X102574482Y-101824188D01*
X102475935Y-101814482D01*
X102472195Y-101776510D01*
X102455534Y-101721588D01*
X102421589Y-101609686D01*
X102339411Y-101455941D01*
X102256532Y-101354953D01*
X102256530Y-101354951D01*
X102228817Y-101321183D01*
X102195050Y-101293471D01*
X101206533Y-100304955D01*
X101178816Y-100271182D01*
X101044058Y-100160588D01*
X100890312Y-100078410D01*
X100723489Y-100027804D01*
X100593476Y-100014999D01*
X100593468Y-100014999D01*
X100549999Y-100010718D01*
X100506530Y-100014999D01*
X92553470Y-100014999D01*
X92510001Y-100010718D01*
X92466532Y-100014999D01*
X92466524Y-100014999D01*
X92336511Y-100027804D01*
X92169688Y-100078410D01*
X92015942Y-100160588D01*
X91881184Y-100271182D01*
X91853467Y-100304955D01*
X91374952Y-100783470D01*
X91341184Y-100811183D01*
X91313471Y-100844951D01*
X91313468Y-100844954D01*
X91230590Y-100945941D01*
X91148412Y-101099687D01*
X91097805Y-101266510D01*
X91080719Y-101440000D01*
X91085001Y-101483479D01*
X91085001Y-102493586D01*
X91080739Y-102496433D01*
X90886433Y-102690739D01*
X90733767Y-102919220D01*
X90628609Y-103173093D01*
X90575000Y-103442604D01*
X85150000Y-103442604D01*
X85150000Y-103203665D01*
X85094853Y-102926426D01*
X84986680Y-102665273D01*
X84911480Y-102552727D01*
X84960782Y-102573149D01*
X85397409Y-102660000D01*
X85842591Y-102660000D01*
X86279218Y-102573149D01*
X86690511Y-102402786D01*
X87060666Y-102155456D01*
X87375456Y-101840666D01*
X87622786Y-101470511D01*
X87793149Y-101059218D01*
X87880000Y-100622591D01*
X87880000Y-100177409D01*
X87793149Y-99740782D01*
X87622786Y-99329489D01*
X87375456Y-98959334D01*
X87060666Y-98644544D01*
X86690511Y-98397214D01*
X86279218Y-98226851D01*
X85842591Y-98140000D01*
X85397409Y-98140000D01*
X84960782Y-98226851D01*
X84549489Y-98397214D01*
X84179334Y-98644544D01*
X83864544Y-98959334D01*
X83617214Y-99329489D01*
X83446851Y-99740782D01*
X83360000Y-100177409D01*
X83360000Y-100607052D01*
X83330000Y-100577052D01*
X83330000Y-97122000D01*
X136705815Y-97122000D01*
X136734487Y-97413111D01*
X136819401Y-97693034D01*
X136957294Y-97951014D01*
X137142866Y-98177134D01*
X137368986Y-98362706D01*
X137423791Y-98392000D01*
X137368986Y-98421294D01*
X137142866Y-98606866D01*
X136957294Y-98832986D01*
X136819401Y-99090966D01*
X136734487Y-99370889D01*
X136705815Y-99662000D01*
X136734487Y-99953111D01*
X136819401Y-100233034D01*
X136957294Y-100491014D01*
X137142866Y-100717134D01*
X137368986Y-100902706D01*
X137423791Y-100932000D01*
X137368986Y-100961294D01*
X137142866Y-101146866D01*
X136957294Y-101372986D01*
X136819401Y-101630966D01*
X136734487Y-101910889D01*
X136705815Y-102202000D01*
X136734487Y-102493111D01*
X136819401Y-102773034D01*
X136957294Y-103031014D01*
X137142866Y-103257134D01*
X137368986Y-103442706D01*
X137423791Y-103472000D01*
X137368986Y-103501294D01*
X137142866Y-103686866D01*
X136957294Y-103912986D01*
X136819401Y-104170966D01*
X136734487Y-104450889D01*
X136705815Y-104742000D01*
X136734487Y-105033111D01*
X136819401Y-105313034D01*
X136957294Y-105571014D01*
X137142866Y-105797134D01*
X137368986Y-105982706D01*
X137423791Y-106012000D01*
X137368986Y-106041294D01*
X137142866Y-106226866D01*
X136957294Y-106452986D01*
X136819401Y-106710966D01*
X136734487Y-106990889D01*
X136705815Y-107282000D01*
X136734487Y-107573111D01*
X136819401Y-107853034D01*
X136957294Y-108111014D01*
X137142866Y-108337134D01*
X137368986Y-108522706D01*
X137423791Y-108552000D01*
X137368986Y-108581294D01*
X137142866Y-108766866D01*
X136957294Y-108992986D01*
X136819401Y-109250966D01*
X136734487Y-109530889D01*
X136705815Y-109822000D01*
X136734487Y-110113111D01*
X136819401Y-110393034D01*
X136957294Y-110651014D01*
X137142866Y-110877134D01*
X137172687Y-110901607D01*
X137103820Y-110922498D01*
X136993506Y-110981463D01*
X136896815Y-111060815D01*
X136817463Y-111157506D01*
X136758498Y-111267820D01*
X136722188Y-111387518D01*
X136709928Y-111512000D01*
X136709928Y-113212000D01*
X136722188Y-113336482D01*
X136758498Y-113456180D01*
X136817463Y-113566494D01*
X136896815Y-113663185D01*
X136993506Y-113742537D01*
X137103820Y-113801502D01*
X137223518Y-113837812D01*
X137348000Y-113850072D01*
X139048000Y-113850072D01*
X139172482Y-113837812D01*
X139292180Y-113801502D01*
X139402494Y-113742537D01*
X139499185Y-113663185D01*
X139578537Y-113566494D01*
X139637502Y-113456180D01*
X139673812Y-113336482D01*
X139686072Y-113212000D01*
X139686072Y-111512000D01*
X139673812Y-111387518D01*
X139637502Y-111267820D01*
X139578537Y-111157506D01*
X139499185Y-111060815D01*
X139402494Y-110981463D01*
X139292180Y-110922498D01*
X139223313Y-110901607D01*
X139253134Y-110877134D01*
X139438706Y-110651014D01*
X139576599Y-110393034D01*
X139661513Y-110113111D01*
X139690185Y-109822000D01*
X139681595Y-109734775D01*
X155730000Y-109734775D01*
X155730000Y-111705224D01*
X155755105Y-111960118D01*
X155854314Y-112287167D01*
X156015421Y-112588577D01*
X156232234Y-112852766D01*
X156496422Y-113069579D01*
X156797832Y-113230686D01*
X157124881Y-113329895D01*
X157465000Y-113363394D01*
X157805118Y-113329895D01*
X158132167Y-113230686D01*
X158433577Y-113069579D01*
X158697766Y-112852766D01*
X158914579Y-112588578D01*
X159075686Y-112287168D01*
X159174895Y-111960119D01*
X159200000Y-111705225D01*
X159200000Y-109734775D01*
X159174895Y-109479881D01*
X159075686Y-109152832D01*
X158914579Y-108851422D01*
X158697766Y-108587234D01*
X158433578Y-108370421D01*
X158132168Y-108209314D01*
X157805119Y-108110105D01*
X157465000Y-108076606D01*
X157124882Y-108110105D01*
X156797833Y-108209314D01*
X156496423Y-108370421D01*
X156232235Y-108587234D01*
X156015422Y-108851422D01*
X155854315Y-109152832D01*
X155755106Y-109479881D01*
X155730000Y-109734775D01*
X139681595Y-109734775D01*
X139661513Y-109530889D01*
X139576599Y-109250966D01*
X139438706Y-108992986D01*
X139253134Y-108766866D01*
X139027014Y-108581294D01*
X138972209Y-108552000D01*
X139027014Y-108522706D01*
X139253134Y-108337134D01*
X139438706Y-108111014D01*
X139576599Y-107853034D01*
X139661513Y-107573111D01*
X139690185Y-107282000D01*
X139661513Y-106990889D01*
X139576599Y-106710966D01*
X139438706Y-106452986D01*
X139253134Y-106226866D01*
X139027014Y-106041294D01*
X138972209Y-106012000D01*
X139027014Y-105982706D01*
X139106749Y-105917269D01*
X142028336Y-105917269D01*
X142087797Y-106151037D01*
X142326242Y-106261934D01*
X142581740Y-106324183D01*
X142844473Y-106335390D01*
X143104344Y-106295125D01*
X143351366Y-106204935D01*
X143452203Y-106151037D01*
X143511664Y-105917269D01*
X142770000Y-105175605D01*
X142028336Y-105917269D01*
X139106749Y-105917269D01*
X139253134Y-105797134D01*
X139438706Y-105571014D01*
X139576599Y-105313034D01*
X139650179Y-105070473D01*
X141430610Y-105070473D01*
X141470875Y-105330344D01*
X141561065Y-105577366D01*
X141614963Y-105678203D01*
X141848731Y-105737664D01*
X142590395Y-104996000D01*
X142949605Y-104996000D01*
X143691269Y-105737664D01*
X143925037Y-105678203D01*
X143945234Y-105634775D01*
X144530000Y-105634775D01*
X144530000Y-107605224D01*
X144555105Y-107860118D01*
X144654314Y-108187167D01*
X144815421Y-108488577D01*
X145032234Y-108752766D01*
X145296422Y-108969579D01*
X145597832Y-109130686D01*
X145924881Y-109229895D01*
X146265000Y-109263394D01*
X146605118Y-109229895D01*
X146932167Y-109130686D01*
X147233577Y-108969579D01*
X147497766Y-108752766D01*
X147714579Y-108488578D01*
X147875686Y-108187168D01*
X147974895Y-107860119D01*
X148000000Y-107605225D01*
X148000000Y-105634775D01*
X147974895Y-105379881D01*
X147875686Y-105052832D01*
X147858137Y-105020000D01*
X150926928Y-105020000D01*
X150926928Y-107220000D01*
X150939188Y-107344482D01*
X150975498Y-107464180D01*
X151034463Y-107574494D01*
X151113815Y-107671185D01*
X151210506Y-107750537D01*
X151320820Y-107809502D01*
X151440518Y-107845812D01*
X151565000Y-107858072D01*
X155565000Y-107858072D01*
X155689482Y-107845812D01*
X155809180Y-107809502D01*
X155919494Y-107750537D01*
X156016185Y-107671185D01*
X156095537Y-107574494D01*
X156154502Y-107464180D01*
X156190812Y-107344482D01*
X156203072Y-107220000D01*
X156203072Y-105020000D01*
X156190812Y-104895518D01*
X156154502Y-104775820D01*
X156095537Y-104665506D01*
X156016185Y-104568815D01*
X155919494Y-104489463D01*
X155809180Y-104430498D01*
X155689482Y-104394188D01*
X155565000Y-104381928D01*
X151565000Y-104381928D01*
X151440518Y-104394188D01*
X151320820Y-104430498D01*
X151210506Y-104489463D01*
X151113815Y-104568815D01*
X151034463Y-104665506D01*
X150975498Y-104775820D01*
X150939188Y-104895518D01*
X150926928Y-105020000D01*
X147858137Y-105020000D01*
X147714579Y-104751422D01*
X147497766Y-104487234D01*
X147233578Y-104270421D01*
X146932168Y-104109314D01*
X146605119Y-104010105D01*
X146265000Y-103976606D01*
X145924882Y-104010105D01*
X145597833Y-104109314D01*
X145296423Y-104270421D01*
X145032235Y-104487234D01*
X144815422Y-104751422D01*
X144654315Y-105052832D01*
X144555106Y-105379881D01*
X144530000Y-105634775D01*
X143945234Y-105634775D01*
X144035934Y-105439758D01*
X144098183Y-105184260D01*
X144109390Y-104921527D01*
X144069125Y-104661656D01*
X143978935Y-104414634D01*
X143925037Y-104313797D01*
X143691269Y-104254336D01*
X142949605Y-104996000D01*
X142590395Y-104996000D01*
X141848731Y-104254336D01*
X141614963Y-104313797D01*
X141504066Y-104552242D01*
X141441817Y-104807740D01*
X141430610Y-105070473D01*
X139650179Y-105070473D01*
X139661513Y-105033111D01*
X139690185Y-104742000D01*
X139661513Y-104450889D01*
X139576599Y-104170966D01*
X139438706Y-103912986D01*
X139253134Y-103686866D01*
X139027014Y-103501294D01*
X138972209Y-103472000D01*
X139027014Y-103442706D01*
X139253134Y-103257134D01*
X139438706Y-103031014D01*
X139576599Y-102773034D01*
X139661513Y-102493111D01*
X139678118Y-102324514D01*
X141435000Y-102324514D01*
X141435000Y-102587486D01*
X141486304Y-102845405D01*
X141586939Y-103088359D01*
X141733038Y-103307013D01*
X141918987Y-103492962D01*
X142137641Y-103639061D01*
X142351444Y-103727621D01*
X142188634Y-103787065D01*
X142087797Y-103840963D01*
X142028336Y-104074731D01*
X142770000Y-104816395D01*
X143511664Y-104074731D01*
X143452203Y-103840963D01*
X143213758Y-103730066D01*
X143194173Y-103725294D01*
X143402359Y-103639061D01*
X143621013Y-103492962D01*
X143806962Y-103307013D01*
X143953061Y-103088359D01*
X144053696Y-102845405D01*
X144105000Y-102587486D01*
X144105000Y-102324514D01*
X144053696Y-102066595D01*
X143953061Y-101823641D01*
X143806962Y-101604987D01*
X143621013Y-101419038D01*
X143402359Y-101272939D01*
X143159405Y-101172304D01*
X142901486Y-101121000D01*
X142638514Y-101121000D01*
X142380595Y-101172304D01*
X142137641Y-101272939D01*
X141918987Y-101419038D01*
X141733038Y-101604987D01*
X141586939Y-101823641D01*
X141486304Y-102066595D01*
X141435000Y-102324514D01*
X139678118Y-102324514D01*
X139690185Y-102202000D01*
X139661513Y-101910889D01*
X139576599Y-101630966D01*
X139438706Y-101372986D01*
X139253134Y-101146866D01*
X139027014Y-100961294D01*
X138972209Y-100932000D01*
X139027014Y-100902706D01*
X139253134Y-100717134D01*
X139438706Y-100491014D01*
X139465373Y-100441122D01*
X146875825Y-100441122D01*
X146913469Y-100591622D01*
X147051843Y-100903317D01*
X147248367Y-101182027D01*
X147495489Y-101417042D01*
X147783712Y-101599330D01*
X148101959Y-101721886D01*
X148438000Y-101780000D01*
X149338000Y-101780000D01*
X149338000Y-100172000D01*
X149592000Y-100172000D01*
X149592000Y-101780000D01*
X150492000Y-101780000D01*
X150828041Y-101721886D01*
X151146288Y-101599330D01*
X151434511Y-101417042D01*
X151681633Y-101182027D01*
X151878157Y-100903317D01*
X152016531Y-100591622D01*
X152054175Y-100441122D01*
X151936125Y-100172000D01*
X149592000Y-100172000D01*
X149338000Y-100172000D01*
X146993875Y-100172000D01*
X146875825Y-100441122D01*
X139465373Y-100441122D01*
X139576599Y-100233034D01*
X139661513Y-99953111D01*
X139690185Y-99662000D01*
X139688893Y-99648878D01*
X146875825Y-99648878D01*
X146993875Y-99918000D01*
X149338000Y-99918000D01*
X149338000Y-99898000D01*
X149592000Y-99898000D01*
X149592000Y-99918000D01*
X151936125Y-99918000D01*
X152054175Y-99648878D01*
X152016531Y-99498378D01*
X151878157Y-99186683D01*
X151793016Y-99065936D01*
X151905119Y-99054895D01*
X152232168Y-98955686D01*
X152533578Y-98794579D01*
X152797766Y-98577766D01*
X153014579Y-98313578D01*
X153175686Y-98012168D01*
X153274895Y-97685119D01*
X153308394Y-97345000D01*
X153274895Y-97004881D01*
X153175686Y-96677832D01*
X153014579Y-96376422D01*
X152797766Y-96112234D01*
X152533578Y-95895421D01*
X152232168Y-95734314D01*
X151905119Y-95635105D01*
X151650225Y-95610000D01*
X149679775Y-95610000D01*
X149424881Y-95635105D01*
X149097832Y-95734314D01*
X148796422Y-95895421D01*
X148532234Y-96112234D01*
X148315421Y-96376422D01*
X148154314Y-96677832D01*
X148055105Y-97004881D01*
X148021606Y-97345000D01*
X148055105Y-97685119D01*
X148154314Y-98012168D01*
X148315421Y-98313578D01*
X148328084Y-98329008D01*
X148101959Y-98368114D01*
X147783712Y-98490670D01*
X147495489Y-98672958D01*
X147248367Y-98907973D01*
X147051843Y-99186683D01*
X146913469Y-99498378D01*
X146875825Y-99648878D01*
X139688893Y-99648878D01*
X139661513Y-99370889D01*
X139576599Y-99090966D01*
X139438706Y-98832986D01*
X139253134Y-98606866D01*
X139027014Y-98421294D01*
X138972209Y-98392000D01*
X139027014Y-98362706D01*
X139253134Y-98177134D01*
X139438706Y-97951014D01*
X139576599Y-97693034D01*
X139624456Y-97535269D01*
X142028336Y-97535269D01*
X142087797Y-97769037D01*
X142326242Y-97879934D01*
X142581740Y-97942183D01*
X142844473Y-97953390D01*
X143104344Y-97913125D01*
X143351366Y-97822935D01*
X143452203Y-97769037D01*
X143511664Y-97535269D01*
X142770000Y-96793605D01*
X142028336Y-97535269D01*
X139624456Y-97535269D01*
X139661513Y-97413111D01*
X139690185Y-97122000D01*
X139661513Y-96830889D01*
X139618312Y-96688473D01*
X141430610Y-96688473D01*
X141470875Y-96948344D01*
X141561065Y-97195366D01*
X141614963Y-97296203D01*
X141848731Y-97355664D01*
X142590395Y-96614000D01*
X142949605Y-96614000D01*
X143691269Y-97355664D01*
X143925037Y-97296203D01*
X144035934Y-97057758D01*
X144098183Y-96802260D01*
X144109390Y-96539527D01*
X144069125Y-96279656D01*
X143978935Y-96032634D01*
X143925037Y-95931797D01*
X143691269Y-95872336D01*
X142949605Y-96614000D01*
X142590395Y-96614000D01*
X141848731Y-95872336D01*
X141614963Y-95931797D01*
X141504066Y-96170242D01*
X141441817Y-96425740D01*
X141430610Y-96688473D01*
X139618312Y-96688473D01*
X139576599Y-96550966D01*
X139438706Y-96292986D01*
X139253134Y-96066866D01*
X139027014Y-95881294D01*
X138962477Y-95846799D01*
X139079355Y-95777178D01*
X139295588Y-95582269D01*
X139469641Y-95348920D01*
X139594825Y-95086099D01*
X139639476Y-94938890D01*
X139518155Y-94709000D01*
X138325000Y-94709000D01*
X138325000Y-94729000D01*
X138071000Y-94729000D01*
X138071000Y-94709000D01*
X136877845Y-94709000D01*
X136756524Y-94938890D01*
X136801175Y-95086099D01*
X136926359Y-95348920D01*
X137100412Y-95582269D01*
X137316645Y-95777178D01*
X137433523Y-95846799D01*
X137368986Y-95881294D01*
X137142866Y-96066866D01*
X136957294Y-96292986D01*
X136819401Y-96550966D01*
X136734487Y-96830889D01*
X136705815Y-97122000D01*
X83330000Y-97122000D01*
X83330000Y-93827409D01*
X83360000Y-93827409D01*
X83360000Y-94272591D01*
X83446851Y-94709218D01*
X83617214Y-95120511D01*
X83864544Y-95490666D01*
X84179334Y-95805456D01*
X84549489Y-96052786D01*
X84960782Y-96223149D01*
X85397409Y-96310000D01*
X85842591Y-96310000D01*
X86279218Y-96223149D01*
X86690511Y-96052786D01*
X87060666Y-95805456D01*
X87375456Y-95490666D01*
X87622786Y-95120511D01*
X87793149Y-94709218D01*
X87819346Y-94577514D01*
X103843000Y-94577514D01*
X103843000Y-94840486D01*
X103894304Y-95098405D01*
X103994939Y-95341359D01*
X104141038Y-95560013D01*
X104326987Y-95745962D01*
X104545641Y-95892061D01*
X104788595Y-95992696D01*
X105046514Y-96044000D01*
X105309486Y-96044000D01*
X105567405Y-95992696D01*
X105810359Y-95892061D01*
X106029013Y-95745962D01*
X106144706Y-95630269D01*
X106976336Y-95630269D01*
X107035797Y-95864037D01*
X107274242Y-95974934D01*
X107529740Y-96037183D01*
X107792473Y-96048390D01*
X108052344Y-96008125D01*
X108299366Y-95917935D01*
X108400203Y-95864037D01*
X108459664Y-95630269D01*
X107718000Y-94888605D01*
X106976336Y-95630269D01*
X106144706Y-95630269D01*
X106214962Y-95560013D01*
X106361061Y-95341359D01*
X106449621Y-95127556D01*
X106509065Y-95290366D01*
X106562963Y-95391203D01*
X106796731Y-95450664D01*
X107538395Y-94709000D01*
X107897605Y-94709000D01*
X108639269Y-95450664D01*
X108873037Y-95391203D01*
X108983934Y-95152758D01*
X109046183Y-94897260D01*
X109057390Y-94634527D01*
X109048557Y-94577514D01*
X109431000Y-94577514D01*
X109431000Y-94840486D01*
X109482304Y-95098405D01*
X109582939Y-95341359D01*
X109729038Y-95560013D01*
X109914987Y-95745962D01*
X110133641Y-95892061D01*
X110376595Y-95992696D01*
X110634514Y-96044000D01*
X110897486Y-96044000D01*
X111155405Y-95992696D01*
X111398359Y-95892061D01*
X111617013Y-95745962D01*
X111732706Y-95630269D01*
X112564336Y-95630269D01*
X112623797Y-95864037D01*
X112862242Y-95974934D01*
X113117740Y-96037183D01*
X113380473Y-96048390D01*
X113640344Y-96008125D01*
X113887366Y-95917935D01*
X113988203Y-95864037D01*
X114047664Y-95630269D01*
X113306000Y-94888605D01*
X112564336Y-95630269D01*
X111732706Y-95630269D01*
X111802962Y-95560013D01*
X111949061Y-95341359D01*
X112037621Y-95127556D01*
X112097065Y-95290366D01*
X112150963Y-95391203D01*
X112384731Y-95450664D01*
X113126395Y-94709000D01*
X113485605Y-94709000D01*
X114227269Y-95450664D01*
X114461037Y-95391203D01*
X114571934Y-95152758D01*
X114634183Y-94897260D01*
X114645390Y-94634527D01*
X114636557Y-94577514D01*
X114892000Y-94577514D01*
X114892000Y-94840486D01*
X114943304Y-95098405D01*
X115043939Y-95341359D01*
X115190038Y-95560013D01*
X115375987Y-95745962D01*
X115594641Y-95892061D01*
X115837595Y-95992696D01*
X116095514Y-96044000D01*
X116358486Y-96044000D01*
X116616405Y-95992696D01*
X116859359Y-95892061D01*
X117078013Y-95745962D01*
X117193706Y-95630269D01*
X118025336Y-95630269D01*
X118084797Y-95864037D01*
X118323242Y-95974934D01*
X118578740Y-96037183D01*
X118841473Y-96048390D01*
X119101344Y-96008125D01*
X119348366Y-95917935D01*
X119449203Y-95864037D01*
X119508664Y-95630269D01*
X118767000Y-94888605D01*
X118025336Y-95630269D01*
X117193706Y-95630269D01*
X117263962Y-95560013D01*
X117410061Y-95341359D01*
X117498621Y-95127556D01*
X117558065Y-95290366D01*
X117611963Y-95391203D01*
X117845731Y-95450664D01*
X118587395Y-94709000D01*
X118946605Y-94709000D01*
X119688269Y-95450664D01*
X119922037Y-95391203D01*
X120032934Y-95152758D01*
X120095183Y-94897260D01*
X120106390Y-94634527D01*
X120066125Y-94374656D01*
X119975935Y-94127634D01*
X119922037Y-94026797D01*
X119688269Y-93967336D01*
X118946605Y-94709000D01*
X118587395Y-94709000D01*
X117845731Y-93967336D01*
X117611963Y-94026797D01*
X117501066Y-94265242D01*
X117496294Y-94284827D01*
X117410061Y-94076641D01*
X117263962Y-93857987D01*
X117193706Y-93787731D01*
X118025336Y-93787731D01*
X118767000Y-94529395D01*
X119508664Y-93787731D01*
X119449203Y-93553963D01*
X119210758Y-93443066D01*
X118955260Y-93380817D01*
X118692527Y-93369610D01*
X118432656Y-93409875D01*
X118185634Y-93500065D01*
X118084797Y-93553963D01*
X118025336Y-93787731D01*
X117193706Y-93787731D01*
X117078013Y-93672038D01*
X116859359Y-93525939D01*
X116616405Y-93425304D01*
X116358486Y-93374000D01*
X116095514Y-93374000D01*
X115837595Y-93425304D01*
X115594641Y-93525939D01*
X115375987Y-93672038D01*
X115190038Y-93857987D01*
X115043939Y-94076641D01*
X114943304Y-94319595D01*
X114892000Y-94577514D01*
X114636557Y-94577514D01*
X114605125Y-94374656D01*
X114514935Y-94127634D01*
X114461037Y-94026797D01*
X114227269Y-93967336D01*
X113485605Y-94709000D01*
X113126395Y-94709000D01*
X112384731Y-93967336D01*
X112150963Y-94026797D01*
X112040066Y-94265242D01*
X112035294Y-94284827D01*
X111949061Y-94076641D01*
X111802962Y-93857987D01*
X111732706Y-93787731D01*
X112564336Y-93787731D01*
X113306000Y-94529395D01*
X114047664Y-93787731D01*
X113988203Y-93553963D01*
X113749758Y-93443066D01*
X113494260Y-93380817D01*
X113231527Y-93369610D01*
X112971656Y-93409875D01*
X112724634Y-93500065D01*
X112623797Y-93553963D01*
X112564336Y-93787731D01*
X111732706Y-93787731D01*
X111617013Y-93672038D01*
X111398359Y-93525939D01*
X111155405Y-93425304D01*
X110897486Y-93374000D01*
X110634514Y-93374000D01*
X110376595Y-93425304D01*
X110133641Y-93525939D01*
X109914987Y-93672038D01*
X109729038Y-93857987D01*
X109582939Y-94076641D01*
X109482304Y-94319595D01*
X109431000Y-94577514D01*
X109048557Y-94577514D01*
X109017125Y-94374656D01*
X108926935Y-94127634D01*
X108873037Y-94026797D01*
X108639269Y-93967336D01*
X107897605Y-94709000D01*
X107538395Y-94709000D01*
X106796731Y-93967336D01*
X106562963Y-94026797D01*
X106452066Y-94265242D01*
X106447294Y-94284827D01*
X106361061Y-94076641D01*
X106214962Y-93857987D01*
X106144706Y-93787731D01*
X106976336Y-93787731D01*
X107718000Y-94529395D01*
X108459664Y-93787731D01*
X108400203Y-93553963D01*
X108161758Y-93443066D01*
X107906260Y-93380817D01*
X107643527Y-93369610D01*
X107383656Y-93409875D01*
X107136634Y-93500065D01*
X107035797Y-93553963D01*
X106976336Y-93787731D01*
X106144706Y-93787731D01*
X106029013Y-93672038D01*
X105810359Y-93525939D01*
X105567405Y-93425304D01*
X105309486Y-93374000D01*
X105046514Y-93374000D01*
X104788595Y-93425304D01*
X104545641Y-93525939D01*
X104326987Y-93672038D01*
X104141038Y-93857987D01*
X103994939Y-94076641D01*
X103894304Y-94319595D01*
X103843000Y-94577514D01*
X87819346Y-94577514D01*
X87880000Y-94272591D01*
X87880000Y-93827409D01*
X87793149Y-93390782D01*
X87678559Y-93114137D01*
X91185469Y-93114137D01*
X91252206Y-93354025D01*
X91500892Y-93470924D01*
X91767606Y-93537061D01*
X92042097Y-93549895D01*
X92313817Y-93508931D01*
X92572326Y-93415744D01*
X92687794Y-93354025D01*
X92754531Y-93114137D01*
X91970000Y-92329605D01*
X91185469Y-93114137D01*
X87678559Y-93114137D01*
X87622786Y-92979489D01*
X87375456Y-92609334D01*
X87060666Y-92294544D01*
X86952242Y-92222097D01*
X90570105Y-92222097D01*
X90611069Y-92493817D01*
X90704256Y-92752326D01*
X90765975Y-92867794D01*
X91005863Y-92934531D01*
X91790395Y-92150000D01*
X92149605Y-92150000D01*
X92934137Y-92934531D01*
X93174025Y-92867794D01*
X93290924Y-92619108D01*
X93357061Y-92352394D01*
X93369895Y-92077903D01*
X93328931Y-91806183D01*
X93235744Y-91547674D01*
X93174025Y-91432206D01*
X92934137Y-91365469D01*
X92149605Y-92150000D01*
X91790395Y-92150000D01*
X91005863Y-91365469D01*
X90765975Y-91432206D01*
X90649076Y-91680892D01*
X90582939Y-91947606D01*
X90570105Y-92222097D01*
X86952242Y-92222097D01*
X86690511Y-92047214D01*
X86279218Y-91876851D01*
X85842591Y-91790000D01*
X85397409Y-91790000D01*
X84960782Y-91876851D01*
X84549489Y-92047214D01*
X84179334Y-92294544D01*
X83864544Y-92609334D01*
X83617214Y-92979489D01*
X83446851Y-93390782D01*
X83360000Y-93827409D01*
X83330000Y-93827409D01*
X83330000Y-92281578D01*
X83538561Y-92073017D01*
X83573665Y-92080000D01*
X83856335Y-92080000D01*
X84133574Y-92024853D01*
X84394727Y-91916680D01*
X84629759Y-91759637D01*
X84829637Y-91559759D01*
X84986680Y-91324727D01*
X85094853Y-91063574D01*
X85150000Y-90786335D01*
X85150000Y-90574137D01*
X91185469Y-90574137D01*
X91252206Y-90814025D01*
X91386882Y-90877332D01*
X91367674Y-90884256D01*
X91252206Y-90945975D01*
X91185469Y-91185863D01*
X91970000Y-91970395D01*
X92754531Y-91185863D01*
X92687794Y-90945975D01*
X92553118Y-90882668D01*
X92572326Y-90875744D01*
X92687794Y-90814025D01*
X92754531Y-90574137D01*
X91970000Y-89789605D01*
X91185469Y-90574137D01*
X85150000Y-90574137D01*
X85150000Y-90503665D01*
X85094853Y-90226426D01*
X84986680Y-89965273D01*
X84829637Y-89730241D01*
X84781493Y-89682097D01*
X90570105Y-89682097D01*
X90611069Y-89953817D01*
X90704256Y-90212326D01*
X90765975Y-90327794D01*
X91005863Y-90394531D01*
X91790395Y-89610000D01*
X92149605Y-89610000D01*
X92934137Y-90394531D01*
X93174025Y-90327794D01*
X93290924Y-90079108D01*
X93357061Y-89812394D01*
X93369895Y-89537903D01*
X93328931Y-89266183D01*
X93235744Y-89007674D01*
X93174025Y-88892206D01*
X92934137Y-88825469D01*
X92149605Y-89610000D01*
X91790395Y-89610000D01*
X91005863Y-88825469D01*
X90765975Y-88892206D01*
X90649076Y-89140892D01*
X90582939Y-89407606D01*
X90570105Y-89682097D01*
X84781493Y-89682097D01*
X84629759Y-89530363D01*
X84394727Y-89373320D01*
X84133574Y-89265147D01*
X83856335Y-89210000D01*
X83573665Y-89210000D01*
X83296426Y-89265147D01*
X83083047Y-89353531D01*
X83538561Y-88898017D01*
X83573665Y-88905000D01*
X83856335Y-88905000D01*
X84133574Y-88849853D01*
X84394727Y-88741680D01*
X84629759Y-88584637D01*
X84829637Y-88384759D01*
X84986680Y-88149727D01*
X85094853Y-87888574D01*
X85150000Y-87611335D01*
X85150000Y-87328665D01*
X85094853Y-87051426D01*
X85045636Y-86932604D01*
X90575000Y-86932604D01*
X90575000Y-87207396D01*
X90628609Y-87476907D01*
X90733767Y-87730780D01*
X90886433Y-87959261D01*
X91080739Y-88153567D01*
X91309220Y-88306233D01*
X91385501Y-88337830D01*
X91367674Y-88344256D01*
X91252206Y-88405975D01*
X91185469Y-88645863D01*
X91970000Y-89430395D01*
X92754531Y-88645863D01*
X92687794Y-88405975D01*
X92548293Y-88340400D01*
X92630780Y-88306233D01*
X92859261Y-88153567D01*
X93053567Y-87959261D01*
X93206233Y-87730780D01*
X93311391Y-87476907D01*
X93365000Y-87207396D01*
X93365000Y-87065501D01*
X93395506Y-87090537D01*
X93505820Y-87149502D01*
X93625518Y-87185812D01*
X93713467Y-87194474D01*
X93620739Y-87256433D01*
X93426433Y-87450739D01*
X93273767Y-87679220D01*
X93168609Y-87933093D01*
X93115000Y-88202604D01*
X93115000Y-88477396D01*
X93168609Y-88746907D01*
X93273767Y-89000780D01*
X93426433Y-89229261D01*
X93620739Y-89423567D01*
X93849220Y-89576233D01*
X93930740Y-89610000D01*
X93849220Y-89643767D01*
X93620739Y-89796433D01*
X93426433Y-89990739D01*
X93273767Y-90219220D01*
X93168609Y-90473093D01*
X93115000Y-90742604D01*
X93115000Y-91017396D01*
X93168609Y-91286907D01*
X93273767Y-91540780D01*
X93426433Y-91769261D01*
X93620739Y-91963567D01*
X93849220Y-92116233D01*
X94103093Y-92221391D01*
X94372604Y-92275000D01*
X94647396Y-92275000D01*
X94916907Y-92221391D01*
X95170780Y-92116233D01*
X95399261Y-91963567D01*
X95593567Y-91769261D01*
X95746233Y-91540780D01*
X95851391Y-91286907D01*
X95905000Y-91017396D01*
X95905000Y-90742604D01*
X95851391Y-90473093D01*
X95746233Y-90219220D01*
X95593567Y-89990739D01*
X95399261Y-89796433D01*
X95170780Y-89643767D01*
X95089260Y-89610000D01*
X95170780Y-89576233D01*
X95399261Y-89423567D01*
X95593567Y-89229261D01*
X95746233Y-89000780D01*
X95851391Y-88746907D01*
X95905000Y-88477396D01*
X95905000Y-88202604D01*
X95851391Y-87933093D01*
X95746233Y-87679220D01*
X95593567Y-87450739D01*
X95399261Y-87256433D01*
X95306533Y-87194474D01*
X95394482Y-87185812D01*
X95514180Y-87149502D01*
X95624494Y-87090537D01*
X95721185Y-87011185D01*
X95800537Y-86914494D01*
X95859502Y-86804180D01*
X95895812Y-86684482D01*
X95908072Y-86560000D01*
X95908072Y-86157000D01*
X100621928Y-86157000D01*
X100634188Y-86281482D01*
X100670498Y-86401180D01*
X100729463Y-86511494D01*
X100808815Y-86608185D01*
X100905506Y-86687537D01*
X101015820Y-86746502D01*
X101135518Y-86782812D01*
X101260000Y-86795072D01*
X101844250Y-86792000D01*
X102003000Y-86633250D01*
X102003000Y-85184000D01*
X100783750Y-85184000D01*
X100625000Y-85342750D01*
X100621928Y-86157000D01*
X95908072Y-86157000D01*
X95908072Y-85040000D01*
X95895812Y-84915518D01*
X95859502Y-84795820D01*
X95800537Y-84685506D01*
X95721185Y-84588815D01*
X95624494Y-84509463D01*
X95514180Y-84450498D01*
X95394482Y-84414188D01*
X95270000Y-84401928D01*
X93750000Y-84401928D01*
X93625518Y-84414188D01*
X93505820Y-84450498D01*
X93395506Y-84509463D01*
X93298815Y-84588815D01*
X93219463Y-84685506D01*
X93160498Y-84795820D01*
X93124188Y-84915518D01*
X93111928Y-85040000D01*
X93111928Y-86268082D01*
X93053567Y-86180739D01*
X92859261Y-85986433D01*
X92630780Y-85833767D01*
X92376907Y-85728609D01*
X92107396Y-85675000D01*
X91832604Y-85675000D01*
X91563093Y-85728609D01*
X91309220Y-85833767D01*
X91080739Y-85986433D01*
X90886433Y-86180739D01*
X90733767Y-86409220D01*
X90628609Y-86663093D01*
X90575000Y-86932604D01*
X85045636Y-86932604D01*
X84986680Y-86790273D01*
X84829637Y-86555241D01*
X84629759Y-86355363D01*
X84394727Y-86198320D01*
X84133574Y-86090147D01*
X83856335Y-86035000D01*
X83573665Y-86035000D01*
X83296426Y-86090147D01*
X83035273Y-86198320D01*
X82800241Y-86355363D01*
X82600363Y-86555241D01*
X82443320Y-86790273D01*
X82335147Y-87051426D01*
X82280000Y-87328665D01*
X82280000Y-87611335D01*
X82286983Y-87646439D01*
X80579951Y-89353471D01*
X80546184Y-89381183D01*
X80518471Y-89414951D01*
X80518468Y-89414954D01*
X80505796Y-89430395D01*
X80435590Y-89515941D01*
X80353412Y-89669687D01*
X80302805Y-89836510D01*
X80290000Y-89966523D01*
X80290000Y-89966531D01*
X80285719Y-90010000D01*
X80290000Y-90053469D01*
X80290000Y-90688476D01*
X80290001Y-90688486D01*
X80290000Y-105206523D01*
X80285718Y-105250000D01*
X80290001Y-105293487D01*
X80290000Y-128066531D01*
X80285719Y-128110000D01*
X80290000Y-128153469D01*
X80290000Y-128153476D01*
X80302805Y-128283489D01*
X80353411Y-128450312D01*
X80435589Y-128604058D01*
X80546183Y-128738817D01*
X80579956Y-128766534D01*
X88128421Y-136315000D01*
X78685000Y-136315000D01*
X78685000Y-133604872D01*
X78940000Y-133604872D01*
X78940000Y-134045128D01*
X79025890Y-134476925D01*
X79194369Y-134883669D01*
X79438962Y-135249729D01*
X79750271Y-135561038D01*
X80116331Y-135805631D01*
X80523075Y-135974110D01*
X80954872Y-136060000D01*
X81395128Y-136060000D01*
X81826925Y-135974110D01*
X82233669Y-135805631D01*
X82599729Y-135561038D01*
X82911038Y-135249729D01*
X83155631Y-134883669D01*
X83324110Y-134476925D01*
X83410000Y-134045128D01*
X83410000Y-133604872D01*
X83324110Y-133173075D01*
X83155631Y-132766331D01*
X82911038Y-132400271D01*
X82599729Y-132088962D01*
X82233669Y-131844369D01*
X81826925Y-131675890D01*
X81395128Y-131590000D01*
X80954872Y-131590000D01*
X80523075Y-131675890D01*
X80116331Y-131844369D01*
X79750271Y-132088962D01*
X79438962Y-132400271D01*
X79194369Y-132766331D01*
X79025890Y-133173075D01*
X78940000Y-133604872D01*
X78685000Y-133604872D01*
X78685000Y-83667409D01*
X83360000Y-83667409D01*
X83360000Y-84112591D01*
X83446851Y-84549218D01*
X83617214Y-84960511D01*
X83864544Y-85330666D01*
X84179334Y-85645456D01*
X84549489Y-85892786D01*
X84960782Y-86063149D01*
X85397409Y-86150000D01*
X85842591Y-86150000D01*
X86279218Y-86063149D01*
X86690511Y-85892786D01*
X87060666Y-85645456D01*
X87375456Y-85330666D01*
X87622786Y-84960511D01*
X87793149Y-84549218D01*
X87880000Y-84112591D01*
X87880000Y-83957000D01*
X100621928Y-83957000D01*
X100625000Y-84771250D01*
X100783750Y-84930000D01*
X102003000Y-84930000D01*
X102003000Y-83480750D01*
X102257000Y-83480750D01*
X102257000Y-84930000D01*
X102277000Y-84930000D01*
X102277000Y-85184000D01*
X102257000Y-85184000D01*
X102257000Y-86633250D01*
X102415750Y-86792000D01*
X103000000Y-86795072D01*
X103124482Y-86782812D01*
X103244180Y-86746502D01*
X103354494Y-86687537D01*
X103451185Y-86608185D01*
X103530537Y-86511494D01*
X103589502Y-86401180D01*
X103602615Y-86357953D01*
X103829822Y-86544417D01*
X104091276Y-86684166D01*
X104374969Y-86770224D01*
X104670000Y-86799282D01*
X104965032Y-86770224D01*
X105248725Y-86684166D01*
X105468555Y-86566665D01*
X125774991Y-86566665D01*
X125774991Y-86849335D01*
X125830138Y-87126574D01*
X125938311Y-87387727D01*
X126095354Y-87622759D01*
X126295232Y-87822637D01*
X126324991Y-87842521D01*
X126324992Y-91684180D01*
X126317235Y-91689363D01*
X126117357Y-91889241D01*
X125960314Y-92124273D01*
X125852141Y-92385426D01*
X125796994Y-92662665D01*
X125796994Y-92945335D01*
X125852141Y-93222574D01*
X125960314Y-93483727D01*
X126117357Y-93718759D01*
X126317235Y-93918637D01*
X126552267Y-94075680D01*
X126813420Y-94183853D01*
X127090659Y-94239000D01*
X127373329Y-94239000D01*
X127650568Y-94183853D01*
X127911721Y-94075680D01*
X128144414Y-93920200D01*
X128149606Y-94222438D01*
X128139241Y-94229363D01*
X127939363Y-94429241D01*
X127782320Y-94664273D01*
X127674147Y-94925426D01*
X127619000Y-95202665D01*
X127619000Y-95485335D01*
X127674147Y-95762574D01*
X127782320Y-96023727D01*
X127939363Y-96258759D01*
X128139241Y-96458637D01*
X128374273Y-96615680D01*
X128635426Y-96723853D01*
X128912665Y-96779000D01*
X129195335Y-96779000D01*
X129472574Y-96723853D01*
X129733727Y-96615680D01*
X129968759Y-96458637D01*
X130168637Y-96258759D01*
X130325680Y-96023727D01*
X130433853Y-95762574D01*
X130489000Y-95485335D01*
X130489000Y-95202665D01*
X130433853Y-94925426D01*
X130325680Y-94664273D01*
X130168637Y-94429241D01*
X129968759Y-94229363D01*
X129919418Y-94196395D01*
X129914602Y-93915998D01*
X129917241Y-93918637D01*
X130152273Y-94075680D01*
X130413426Y-94183853D01*
X130690665Y-94239000D01*
X130973335Y-94239000D01*
X131175000Y-94198886D01*
X131175000Y-94469335D01*
X131230147Y-94746574D01*
X131338320Y-95007727D01*
X131495363Y-95242759D01*
X131695241Y-95442637D01*
X131930273Y-95599680D01*
X132191426Y-95707853D01*
X132468665Y-95763000D01*
X132751335Y-95763000D01*
X133028574Y-95707853D01*
X133289727Y-95599680D01*
X133524759Y-95442637D01*
X133724637Y-95242759D01*
X133881680Y-95007727D01*
X133989853Y-94746574D01*
X134045000Y-94469335D01*
X134045000Y-94225110D01*
X136756524Y-94225110D01*
X136877845Y-94455000D01*
X138071000Y-94455000D01*
X138071000Y-93261186D01*
X138325000Y-93261186D01*
X138325000Y-94455000D01*
X139518155Y-94455000D01*
X139639476Y-94225110D01*
X139594825Y-94077901D01*
X139469641Y-93815080D01*
X139295588Y-93581731D01*
X139079355Y-93386822D01*
X138829252Y-93237843D01*
X138554891Y-93140519D01*
X138325000Y-93261186D01*
X138071000Y-93261186D01*
X137841109Y-93140519D01*
X137566748Y-93237843D01*
X137316645Y-93386822D01*
X137100412Y-93581731D01*
X136926359Y-93815080D01*
X136801175Y-94077901D01*
X136756524Y-94225110D01*
X134045000Y-94225110D01*
X134045000Y-94186665D01*
X133989853Y-93909426D01*
X133881680Y-93648273D01*
X133724637Y-93413241D01*
X133524759Y-93213363D01*
X133495000Y-93193479D01*
X133495000Y-87842521D01*
X133524759Y-87822637D01*
X133724637Y-87622759D01*
X133881680Y-87387727D01*
X133989853Y-87126574D01*
X134045000Y-86849335D01*
X134045000Y-86566665D01*
X133989853Y-86289426D01*
X133881680Y-86028273D01*
X133724637Y-85793241D01*
X133524759Y-85593363D01*
X133289727Y-85436320D01*
X133028574Y-85328147D01*
X132751335Y-85273000D01*
X132468665Y-85273000D01*
X132191426Y-85328147D01*
X131930273Y-85436320D01*
X131709999Y-85583502D01*
X131489724Y-85436320D01*
X131228571Y-85328147D01*
X130951332Y-85273000D01*
X130668662Y-85273000D01*
X130391423Y-85328147D01*
X130130270Y-85436320D01*
X129909996Y-85583502D01*
X129689721Y-85436320D01*
X129428568Y-85328147D01*
X129151329Y-85273000D01*
X128868659Y-85273000D01*
X128591420Y-85328147D01*
X128330267Y-85436320D01*
X128109993Y-85583502D01*
X127889718Y-85436320D01*
X127628565Y-85328147D01*
X127351326Y-85273000D01*
X127068656Y-85273000D01*
X126791417Y-85328147D01*
X126530264Y-85436320D01*
X126295232Y-85593363D01*
X126095354Y-85793241D01*
X125938311Y-86028273D01*
X125830138Y-86289426D01*
X125774991Y-86566665D01*
X105468555Y-86566665D01*
X105510179Y-86544417D01*
X105739345Y-86356345D01*
X105927417Y-86127179D01*
X106067166Y-85865724D01*
X106153224Y-85582031D01*
X106175000Y-85360935D01*
X106175000Y-84753064D01*
X106153224Y-84531968D01*
X106067166Y-84248275D01*
X105927417Y-83986821D01*
X105751664Y-83772665D01*
X133207000Y-83772665D01*
X133207000Y-84055335D01*
X133262147Y-84332574D01*
X133370320Y-84593727D01*
X133527363Y-84828759D01*
X133727241Y-85028637D01*
X133962273Y-85185680D01*
X134223426Y-85293853D01*
X134500665Y-85349000D01*
X134783335Y-85349000D01*
X134818439Y-85342017D01*
X141885000Y-92408579D01*
X141885001Y-93071024D01*
X141733038Y-93222987D01*
X141586939Y-93441641D01*
X141486304Y-93684595D01*
X141435000Y-93942514D01*
X141435000Y-94205486D01*
X141486304Y-94463405D01*
X141586939Y-94706359D01*
X141733038Y-94925013D01*
X141918987Y-95110962D01*
X142137641Y-95257061D01*
X142351444Y-95345621D01*
X142188634Y-95405065D01*
X142087797Y-95458963D01*
X142028336Y-95692731D01*
X142770000Y-96434395D01*
X143511664Y-95692731D01*
X143452203Y-95458963D01*
X143213758Y-95348066D01*
X143194173Y-95343294D01*
X143402359Y-95257061D01*
X143621013Y-95110962D01*
X143806962Y-94925013D01*
X143953061Y-94706359D01*
X144053696Y-94463405D01*
X144105000Y-94205486D01*
X144105000Y-93942514D01*
X144088542Y-93859775D01*
X155730000Y-93859775D01*
X155730000Y-95830224D01*
X155755105Y-96085118D01*
X155854314Y-96412167D01*
X156015421Y-96713577D01*
X156232234Y-96977766D01*
X156496422Y-97194579D01*
X156797832Y-97355686D01*
X157124881Y-97454895D01*
X157465000Y-97488394D01*
X157805118Y-97454895D01*
X158132167Y-97355686D01*
X158433577Y-97194579D01*
X158697766Y-96977766D01*
X158914579Y-96713578D01*
X159075686Y-96412168D01*
X159174895Y-96085119D01*
X159200000Y-95830225D01*
X159200000Y-93859775D01*
X159174895Y-93604881D01*
X159075686Y-93277832D01*
X158914579Y-92976422D01*
X158697766Y-92712234D01*
X158433578Y-92495421D01*
X158132168Y-92334314D01*
X157805119Y-92235105D01*
X157465000Y-92201606D01*
X157124882Y-92235105D01*
X156797833Y-92334314D01*
X156496423Y-92495421D01*
X156232235Y-92712234D01*
X156015422Y-92976422D01*
X155854315Y-93277832D01*
X155755106Y-93604881D01*
X155730000Y-93859775D01*
X144088542Y-93859775D01*
X144053696Y-93684595D01*
X143953061Y-93441641D01*
X143806962Y-93222987D01*
X143655000Y-93071025D01*
X143655000Y-92085469D01*
X143659281Y-92042000D01*
X143655000Y-91998531D01*
X143655000Y-91998523D01*
X143642195Y-91868510D01*
X143591589Y-91701687D01*
X143509411Y-91547941D01*
X143398817Y-91413183D01*
X143365051Y-91385472D01*
X141739354Y-89759775D01*
X144530000Y-89759775D01*
X144530000Y-91730224D01*
X144555105Y-91985118D01*
X144654314Y-92312167D01*
X144815421Y-92613577D01*
X145032234Y-92877766D01*
X145296422Y-93094579D01*
X145597832Y-93255686D01*
X145924881Y-93354895D01*
X146265000Y-93388394D01*
X146605118Y-93354895D01*
X146932167Y-93255686D01*
X147233577Y-93094579D01*
X147497766Y-92877766D01*
X147714579Y-92613578D01*
X147875686Y-92312168D01*
X147974895Y-91985119D01*
X148000000Y-91730225D01*
X148000000Y-89759775D01*
X147974895Y-89504881D01*
X147875686Y-89177832D01*
X147858137Y-89145000D01*
X150926928Y-89145000D01*
X150926928Y-91345000D01*
X150939188Y-91469482D01*
X150975498Y-91589180D01*
X151034463Y-91699494D01*
X151113815Y-91796185D01*
X151210506Y-91875537D01*
X151320820Y-91934502D01*
X151440518Y-91970812D01*
X151565000Y-91983072D01*
X155565000Y-91983072D01*
X155689482Y-91970812D01*
X155809180Y-91934502D01*
X155919494Y-91875537D01*
X156016185Y-91796185D01*
X156095537Y-91699494D01*
X156154502Y-91589180D01*
X156190812Y-91469482D01*
X156203072Y-91345000D01*
X156203072Y-89145000D01*
X156190812Y-89020518D01*
X156154502Y-88900820D01*
X156095537Y-88790506D01*
X156016185Y-88693815D01*
X155919494Y-88614463D01*
X155809180Y-88555498D01*
X155689482Y-88519188D01*
X155565000Y-88506928D01*
X151565000Y-88506928D01*
X151440518Y-88519188D01*
X151320820Y-88555498D01*
X151210506Y-88614463D01*
X151113815Y-88693815D01*
X151034463Y-88790506D01*
X150975498Y-88900820D01*
X150939188Y-89020518D01*
X150926928Y-89145000D01*
X147858137Y-89145000D01*
X147714579Y-88876422D01*
X147497766Y-88612234D01*
X147233578Y-88395421D01*
X146932168Y-88234314D01*
X146605119Y-88135105D01*
X146265000Y-88101606D01*
X145924882Y-88135105D01*
X145597833Y-88234314D01*
X145296423Y-88395421D01*
X145032235Y-88612234D01*
X144815422Y-88876422D01*
X144654315Y-89177832D01*
X144555106Y-89504881D01*
X144530000Y-89759775D01*
X141739354Y-89759775D01*
X136070017Y-84090439D01*
X136077000Y-84055335D01*
X136077000Y-83772665D01*
X136021853Y-83495426D01*
X135913680Y-83234273D01*
X135756637Y-82999241D01*
X135556759Y-82799363D01*
X135321727Y-82642320D01*
X135060574Y-82534147D01*
X134783335Y-82479000D01*
X134500665Y-82479000D01*
X134223426Y-82534147D01*
X133962273Y-82642320D01*
X133727241Y-82799363D01*
X133527363Y-82999241D01*
X133370320Y-83234273D01*
X133262147Y-83495426D01*
X133207000Y-83772665D01*
X105751664Y-83772665D01*
X105739345Y-83757655D01*
X105510178Y-83569583D01*
X105248724Y-83429834D01*
X104965031Y-83343776D01*
X104670000Y-83314718D01*
X104374968Y-83343776D01*
X104091275Y-83429834D01*
X103829821Y-83569583D01*
X103602615Y-83756047D01*
X103589502Y-83712820D01*
X103530537Y-83602506D01*
X103451185Y-83505815D01*
X103354494Y-83426463D01*
X103244180Y-83367498D01*
X103124482Y-83331188D01*
X103000000Y-83318928D01*
X102415750Y-83322000D01*
X102257000Y-83480750D01*
X102003000Y-83480750D01*
X101844250Y-83322000D01*
X101260000Y-83318928D01*
X101135518Y-83331188D01*
X101015820Y-83367498D01*
X100905506Y-83426463D01*
X100808815Y-83505815D01*
X100729463Y-83602506D01*
X100670498Y-83712820D01*
X100634188Y-83832518D01*
X100621928Y-83957000D01*
X87880000Y-83957000D01*
X87880000Y-83667409D01*
X87793149Y-83230782D01*
X87622786Y-82819489D01*
X87375456Y-82449334D01*
X87060666Y-82134544D01*
X86690511Y-81887214D01*
X86279218Y-81716851D01*
X85842591Y-81630000D01*
X85397409Y-81630000D01*
X84960782Y-81716851D01*
X84549489Y-81887214D01*
X84179334Y-82134544D01*
X83864544Y-82449334D01*
X83617214Y-82819489D01*
X83446851Y-83230782D01*
X83360000Y-83667409D01*
X78685000Y-83667409D01*
X78685000Y-78733514D01*
X91815000Y-78733514D01*
X91815000Y-78996486D01*
X91866304Y-79254405D01*
X91966939Y-79497359D01*
X92113038Y-79716013D01*
X92298987Y-79901962D01*
X92517641Y-80048061D01*
X92760595Y-80148696D01*
X93018514Y-80200000D01*
X93281486Y-80200000D01*
X93539405Y-80148696D01*
X93782359Y-80048061D01*
X94001013Y-79901962D01*
X94095149Y-79807826D01*
X101735000Y-79807826D01*
X101735000Y-80090496D01*
X101790147Y-80367735D01*
X101898320Y-80628888D01*
X102055363Y-80863920D01*
X102255241Y-81063798D01*
X102490273Y-81220841D01*
X102751426Y-81329014D01*
X103028665Y-81384161D01*
X103311335Y-81384161D01*
X103588574Y-81329014D01*
X103849727Y-81220841D01*
X104084759Y-81063798D01*
X104284637Y-80863920D01*
X104304521Y-80834161D01*
X113945370Y-80834161D01*
X113988839Y-80838442D01*
X114032308Y-80834161D01*
X114032316Y-80834161D01*
X114162329Y-80821356D01*
X114329152Y-80770750D01*
X114482898Y-80688572D01*
X114617656Y-80577978D01*
X114645373Y-80544205D01*
X115943561Y-79246017D01*
X115978665Y-79253000D01*
X116261335Y-79253000D01*
X116538574Y-79197853D01*
X116799727Y-79089680D01*
X117034759Y-78932637D01*
X117234637Y-78732759D01*
X117391680Y-78497727D01*
X117499853Y-78236574D01*
X117555000Y-77959335D01*
X117555000Y-77676665D01*
X117499853Y-77399426D01*
X117391680Y-77138273D01*
X117234637Y-76903241D01*
X117034759Y-76703363D01*
X116799727Y-76546320D01*
X116538574Y-76438147D01*
X116261335Y-76383000D01*
X115978665Y-76383000D01*
X115701426Y-76438147D01*
X115440273Y-76546320D01*
X115205241Y-76703363D01*
X115005363Y-76903241D01*
X114848320Y-77138273D01*
X114740147Y-77399426D01*
X114685000Y-77676665D01*
X114685000Y-77959335D01*
X114691983Y-77994439D01*
X113622261Y-79064161D01*
X104304521Y-79064161D01*
X104284637Y-79034402D01*
X104084759Y-78834524D01*
X103849727Y-78677481D01*
X103588574Y-78569308D01*
X103311335Y-78514161D01*
X103028665Y-78514161D01*
X102751426Y-78569308D01*
X102490273Y-78677481D01*
X102255241Y-78834524D01*
X102055363Y-79034402D01*
X101898320Y-79269434D01*
X101790147Y-79530587D01*
X101735000Y-79807826D01*
X94095149Y-79807826D01*
X94186962Y-79716013D01*
X94333061Y-79497359D01*
X94433696Y-79254405D01*
X94485000Y-78996486D01*
X94485000Y-78733514D01*
X94433696Y-78475595D01*
X94333061Y-78232641D01*
X94186962Y-78013987D01*
X94001013Y-77828038D01*
X93782359Y-77681939D01*
X93568556Y-77593379D01*
X93731366Y-77533935D01*
X93832203Y-77480037D01*
X93891664Y-77246269D01*
X93150000Y-76504605D01*
X92408336Y-77246269D01*
X92467797Y-77480037D01*
X92706242Y-77590934D01*
X92725827Y-77595706D01*
X92517641Y-77681939D01*
X92298987Y-77828038D01*
X92113038Y-78013987D01*
X91966939Y-78232641D01*
X91866304Y-78475595D01*
X91815000Y-78733514D01*
X78685000Y-78733514D01*
X78685000Y-76399473D01*
X91810610Y-76399473D01*
X91850875Y-76659344D01*
X91941065Y-76906366D01*
X91994963Y-77007203D01*
X92228731Y-77066664D01*
X92970395Y-76325000D01*
X93329605Y-76325000D01*
X94071269Y-77066664D01*
X94305037Y-77007203D01*
X94415934Y-76768758D01*
X94473211Y-76533665D01*
X106065000Y-76533665D01*
X106065000Y-76816335D01*
X106120147Y-77093574D01*
X106228320Y-77354727D01*
X106385363Y-77589759D01*
X106585241Y-77789637D01*
X106820273Y-77946680D01*
X107081426Y-78054853D01*
X107358665Y-78110000D01*
X107641335Y-78110000D01*
X107918574Y-78054853D01*
X108179727Y-77946680D01*
X108414759Y-77789637D01*
X108614637Y-77589759D01*
X108634521Y-77560000D01*
X109885479Y-77560000D01*
X109905363Y-77589759D01*
X110105241Y-77789637D01*
X110340273Y-77946680D01*
X110601426Y-78054853D01*
X110878665Y-78110000D01*
X111161335Y-78110000D01*
X111438574Y-78054853D01*
X111699727Y-77946680D01*
X111934759Y-77789637D01*
X112134637Y-77589759D01*
X112291680Y-77354727D01*
X112399853Y-77093574D01*
X112455000Y-76816335D01*
X112455000Y-76533665D01*
X112399853Y-76256426D01*
X112291680Y-75995273D01*
X112134637Y-75760241D01*
X111934759Y-75560363D01*
X111699727Y-75403320D01*
X111438574Y-75295147D01*
X111161335Y-75240000D01*
X110878665Y-75240000D01*
X110601426Y-75295147D01*
X110340273Y-75403320D01*
X110105241Y-75560363D01*
X109905363Y-75760241D01*
X109885479Y-75790000D01*
X108634521Y-75790000D01*
X108614637Y-75760241D01*
X108414759Y-75560363D01*
X108179727Y-75403320D01*
X107918574Y-75295147D01*
X107641335Y-75240000D01*
X107358665Y-75240000D01*
X107081426Y-75295147D01*
X106820273Y-75403320D01*
X106585241Y-75560363D01*
X106385363Y-75760241D01*
X106228320Y-75995273D01*
X106120147Y-76256426D01*
X106065000Y-76533665D01*
X94473211Y-76533665D01*
X94478183Y-76513260D01*
X94489390Y-76250527D01*
X94449125Y-75990656D01*
X94358935Y-75743634D01*
X94305037Y-75642797D01*
X94071269Y-75583336D01*
X93329605Y-76325000D01*
X92970395Y-76325000D01*
X92228731Y-75583336D01*
X91994963Y-75642797D01*
X91884066Y-75881242D01*
X91821817Y-76136740D01*
X91810610Y-76399473D01*
X78685000Y-76399473D01*
X78685000Y-75403731D01*
X92408336Y-75403731D01*
X93150000Y-76145395D01*
X93891664Y-75403731D01*
X93832203Y-75169963D01*
X93593758Y-75059066D01*
X93338260Y-74996817D01*
X93075527Y-74985610D01*
X92815656Y-75025875D01*
X92568634Y-75116065D01*
X92467797Y-75169963D01*
X92408336Y-75403731D01*
X78685000Y-75403731D01*
X78685000Y-70046891D01*
X83924519Y-70046891D01*
X84021843Y-70321252D01*
X84170822Y-70571355D01*
X84365731Y-70787588D01*
X84599080Y-70961641D01*
X84861901Y-71086825D01*
X85009110Y-71131476D01*
X85239000Y-71010155D01*
X85239000Y-69817000D01*
X84045186Y-69817000D01*
X83924519Y-70046891D01*
X78685000Y-70046891D01*
X78685000Y-69333109D01*
X83924519Y-69333109D01*
X84045186Y-69563000D01*
X85239000Y-69563000D01*
X85239000Y-68369845D01*
X85493000Y-68369845D01*
X85493000Y-69563000D01*
X85513000Y-69563000D01*
X85513000Y-69817000D01*
X85493000Y-69817000D01*
X85493000Y-71010155D01*
X85722890Y-71131476D01*
X85870099Y-71086825D01*
X86132920Y-70961641D01*
X86366269Y-70787588D01*
X86561178Y-70571355D01*
X86630799Y-70454477D01*
X86665294Y-70519014D01*
X86850866Y-70745134D01*
X87076986Y-70930706D01*
X87334966Y-71068599D01*
X87614889Y-71153513D01*
X87833050Y-71175000D01*
X87978950Y-71175000D01*
X88197111Y-71153513D01*
X88477034Y-71068599D01*
X88735014Y-70930706D01*
X88961134Y-70745134D01*
X88985607Y-70715313D01*
X89006498Y-70784180D01*
X89065463Y-70894494D01*
X89144815Y-70991185D01*
X89241506Y-71070537D01*
X89351820Y-71129502D01*
X89471518Y-71165812D01*
X89596000Y-71178072D01*
X91296000Y-71178072D01*
X91420482Y-71165812D01*
X91540180Y-71129502D01*
X91650494Y-71070537D01*
X91747185Y-70991185D01*
X91826537Y-70894494D01*
X91885502Y-70784180D01*
X91921812Y-70664482D01*
X91934072Y-70540000D01*
X91934072Y-68840000D01*
X91921812Y-68715518D01*
X91885502Y-68595820D01*
X91826537Y-68485506D01*
X91747185Y-68388815D01*
X91650494Y-68309463D01*
X91540180Y-68250498D01*
X91420482Y-68214188D01*
X91296000Y-68201928D01*
X89596000Y-68201928D01*
X89471518Y-68214188D01*
X89351820Y-68250498D01*
X89241506Y-68309463D01*
X89144815Y-68388815D01*
X89065463Y-68485506D01*
X89006498Y-68595820D01*
X88985607Y-68664687D01*
X88961134Y-68634866D01*
X88735014Y-68449294D01*
X88477034Y-68311401D01*
X88197111Y-68226487D01*
X87978950Y-68205000D01*
X87833050Y-68205000D01*
X87614889Y-68226487D01*
X87334966Y-68311401D01*
X87076986Y-68449294D01*
X86850866Y-68634866D01*
X86665294Y-68860986D01*
X86630799Y-68925523D01*
X86561178Y-68808645D01*
X86366269Y-68592412D01*
X86132920Y-68418359D01*
X85870099Y-68293175D01*
X85722890Y-68248524D01*
X85493000Y-68369845D01*
X85239000Y-68369845D01*
X85009110Y-68248524D01*
X84861901Y-68293175D01*
X84599080Y-68418359D01*
X84365731Y-68592412D01*
X84170822Y-68808645D01*
X84021843Y-69058748D01*
X83924519Y-69333109D01*
X78685000Y-69333109D01*
X78685000Y-65024872D01*
X78940000Y-65024872D01*
X78940000Y-65465128D01*
X79025890Y-65896925D01*
X79194369Y-66303669D01*
X79438962Y-66669729D01*
X79750271Y-66981038D01*
X80116331Y-67225631D01*
X80523075Y-67394110D01*
X80954872Y-67480000D01*
X81395128Y-67480000D01*
X81826925Y-67394110D01*
X82233669Y-67225631D01*
X82599729Y-66981038D01*
X82911038Y-66669729D01*
X83155631Y-66303669D01*
X83324110Y-65896925D01*
X83364275Y-65695000D01*
X86036928Y-65695000D01*
X86049188Y-65819482D01*
X86085498Y-65939180D01*
X86144463Y-66049494D01*
X86223815Y-66146185D01*
X86320506Y-66225537D01*
X86430820Y-66284502D01*
X86550518Y-66320812D01*
X86675000Y-66333072D01*
X87239250Y-66330000D01*
X87398000Y-66171250D01*
X87398000Y-64972000D01*
X86198750Y-64972000D01*
X86040000Y-65130750D01*
X86036928Y-65695000D01*
X83364275Y-65695000D01*
X83410000Y-65465128D01*
X83410000Y-65024872D01*
X83324110Y-64593075D01*
X83155631Y-64186331D01*
X83027788Y-63995000D01*
X86036928Y-63995000D01*
X86040000Y-64559250D01*
X86198750Y-64718000D01*
X87398000Y-64718000D01*
X87398000Y-63518750D01*
X87239250Y-63360000D01*
X86675000Y-63356928D01*
X86550518Y-63369188D01*
X86430820Y-63405498D01*
X86320506Y-63464463D01*
X86223815Y-63543815D01*
X86144463Y-63640506D01*
X86085498Y-63750820D01*
X86049188Y-63870518D01*
X86036928Y-63995000D01*
X83027788Y-63995000D01*
X82911038Y-63820271D01*
X82599729Y-63508962D01*
X82233669Y-63264369D01*
X81826925Y-63095890D01*
X81395128Y-63010000D01*
X80954872Y-63010000D01*
X80523075Y-63095890D01*
X80116331Y-63264369D01*
X79750271Y-63508962D01*
X79438962Y-63820271D01*
X79194369Y-64186331D01*
X79025890Y-64593075D01*
X78940000Y-65024872D01*
X78685000Y-65024872D01*
X78685000Y-62685000D01*
X94851341Y-62685000D01*
X94549956Y-62986385D01*
M02*
