M48
; DRILL file {KiCad (5.1.0-0)} date 2019 October 22, Tuesday 21:45:10
; FORMAT={-:-/ absolute / inch / decimal}
; #@! TF.CreationDate,2019-10-22T21:45:10+02:00
; #@! TF.GenerationSoftware,Kicad,Pcbnew,(5.1.0-0)
; #@! TF.FileFunction,Plated,1,2,PTH
FMAT,2
INCH
T1C0.0157
T2C0.0299
T3C0.0315
T4C0.0394
T5C0.0472
T6C0.0512
%
G90
G05
T1
X4.6009Y-2.8237
X4.6209Y-2.9237
T2
X3.6209Y-4.078
X3.6209Y-4.178
X3.6209Y-3.428
X3.6209Y-3.528
X3.6209Y-3.628
X3.7209Y-3.378
X3.7209Y-3.478
X3.7209Y-3.578
X3.6209Y-4.278
X3.7209Y-4.028
X3.7209Y-4.128
X3.7209Y-4.228
T3
X3.2959Y-3.4437
X3.2959Y-3.5687
X3.2959Y-4.0687
X3.2959Y-4.2437
X3.3459Y-3.0437
X3.3459Y-4.1437
X3.9809Y-3.1487
X4.0618Y-3.1476
X4.1369Y-2.8087
X4.2323Y-3.0187
X4.3254Y-2.5532
X4.3709Y-3.0187
X4.3829Y-2.7236
X4.5717Y-3.0637
X4.7909Y-4.2637
X4.8291Y-3.9937
X4.8609Y-2.8437
X4.8809Y-3.4137
X4.9Y-3.9937
X4.9209Y-4.3437
X4.9509Y-4.2545
X4.9709Y-3.9937
X5.0083Y-3.4137
X5.0091Y-3.6537
X5.0509Y-3.9937
X5.0598Y-4.3447
X5.0791Y-3.4137
X5.0809Y-3.7537
X5.15Y-3.4137
X5.1509Y-3.6537
X5.2209Y-2.8437
X5.2209Y-3.4137
X5.2209Y-3.7137
X5.3009Y-2.9237
X5.3009Y-3.0037
X5.3009Y-3.3037
X5.5209Y-3.4237
X5.6627Y-2.8187
X5.6958Y-5.2936
X5.7809Y-3.3237
X5.8028Y-4.7452
X5.8709Y-5.2437
X5.9709Y-5.3437
X6.0459Y-2.8437
X6.1209Y-5.0687
X6.1459Y-3.0937
X4.1409Y-3.7287
X4.2409Y-3.7287
X3.6673Y-3.0049
X3.6673Y-3.1049
X4.5759Y-3.7287
X4.6759Y-3.7287
X5.6209Y-3.7037
X5.6209Y-3.8037
X4.3609Y-3.7287
X4.4609Y-3.7287
X5.6209Y-4.0337
X5.6209Y-4.1337
T4
X4.0Y-4.0669
X4.0Y-4.1669
X4.0Y-4.2669
X3.4459Y-2.553
X3.5459Y-2.553
X3.6459Y-2.553
X3.7459Y-2.553
X3.8459Y-2.553
X3.9459Y-2.553
X5.4409Y-3.7237
X5.4409Y-3.8237
X5.4409Y-3.9237
X5.4409Y-4.0237
X5.4409Y-4.1237
X5.4409Y-4.2237
X5.4409Y-4.3237
X5.4409Y-4.4237
X3.3609Y-2.7437
X3.4609Y-2.7437
X3.5609Y-2.7437
T5
X4.3459Y-4.8437
X4.6709Y-4.8437
X4.9959Y-4.8437
X5.3209Y-4.8437
X5.5209Y-4.775
X4.0209Y-3.3487
X4.1209Y-3.3487
T6
X5.7585Y-3.5726
X5.8844Y-3.9388
X5.9317Y-3.8325
X6.0459Y-3.553
X6.1994Y-3.7341
X5.7585Y-4.1976
X5.8844Y-4.5638
X5.9317Y-4.4575
X6.0459Y-4.178
X6.1994Y-4.3591
T4
G00X3.3346Y-4.7136
M15
G01X3.3346Y-4.7923
M16
G05
G00X3.4134Y-4.938
M15
G01X3.4921Y-4.938
M16
G05
G00X3.5709Y-4.7136
M15
G01X3.5709Y-4.7923
M16
G05
T0
M30
