G04 #@! TF.GenerationSoftware,KiCad,Pcbnew,(5.1.0-0)*
G04 #@! TF.CreationDate,2019-10-22T21:45:05+02:00*
G04 #@! TF.ProjectId,esp32,65737033-322e-46b6-9963-61645f706362,rev?*
G04 #@! TF.SameCoordinates,Original*
G04 #@! TF.FileFunction,Legend,Top*
G04 #@! TF.FilePolarity,Positive*
%FSLAX46Y46*%
G04 Gerber Fmt 4.6, Leading zero omitted, Abs format (unit mm)*
G04 Created by KiCad (PCBNEW (5.1.0-0)) date 2019-10-22 21:45:05*
%MOMM*%
%LPD*%
G04 APERTURE LIST*
%ADD10C,0.300000*%
%ADD11C,0.200000*%
%ADD12C,0.152400*%
%ADD13C,0.150000*%
%ADD14C,0.120000*%
%ADD15C,0.100000*%
%ADD16C,0.050000*%
G04 APERTURE END LIST*
D10*
X65061428Y-106321960D02*
X64990000Y-106250531D01*
X64918571Y-106107674D01*
X64918571Y-105750531D01*
X64990000Y-105607674D01*
X65061428Y-105536245D01*
X65204285Y-105464817D01*
X65347142Y-105464817D01*
X65561428Y-105536245D01*
X66418571Y-106393388D01*
X66418571Y-105464817D01*
X66275714Y-104821960D02*
X66347142Y-104750531D01*
X66418571Y-104821960D01*
X66347142Y-104893388D01*
X66275714Y-104821960D01*
X66418571Y-104821960D01*
X65561428Y-103893388D02*
X65490000Y-104036245D01*
X65418571Y-104107674D01*
X65275714Y-104179102D01*
X65204285Y-104179102D01*
X65061428Y-104107674D01*
X64990000Y-104036245D01*
X64918571Y-103893388D01*
X64918571Y-103607674D01*
X64990000Y-103464817D01*
X65061428Y-103393388D01*
X65204285Y-103321960D01*
X65275714Y-103321960D01*
X65418571Y-103393388D01*
X65490000Y-103464817D01*
X65561428Y-103607674D01*
X65561428Y-103893388D01*
X65632857Y-104036245D01*
X65704285Y-104107674D01*
X65847142Y-104179102D01*
X66132857Y-104179102D01*
X66275714Y-104107674D01*
X66347142Y-104036245D01*
X66418571Y-103893388D01*
X66418571Y-103607674D01*
X66347142Y-103464817D01*
X66275714Y-103393388D01*
X66132857Y-103321960D01*
X65847142Y-103321960D01*
X65704285Y-103393388D01*
X65632857Y-103464817D01*
X65561428Y-103607674D01*
X65061428Y-102750531D02*
X64990000Y-102679102D01*
X64918571Y-102536245D01*
X64918571Y-102179102D01*
X64990000Y-102036245D01*
X65061428Y-101964817D01*
X65204285Y-101893388D01*
X65347142Y-101893388D01*
X65561428Y-101964817D01*
X66418571Y-102821960D01*
X66418571Y-101893388D01*
X66418571Y-101179102D02*
X66418571Y-100893388D01*
X66347142Y-100750531D01*
X66275714Y-100679102D01*
X66061428Y-100536245D01*
X65775714Y-100464817D01*
X65204285Y-100464817D01*
X65061428Y-100536245D01*
X64990000Y-100607674D01*
X64918571Y-100750531D01*
X64918571Y-101036245D01*
X64990000Y-101179102D01*
X65061428Y-101250531D01*
X65204285Y-101321960D01*
X65561428Y-101321960D01*
X65704285Y-101250531D01*
X65775714Y-101179102D01*
X65847142Y-101036245D01*
X65847142Y-100750531D01*
X65775714Y-100607674D01*
X65704285Y-100536245D01*
X65561428Y-100464817D01*
X64918571Y-99536245D02*
X64918571Y-99393388D01*
X64990000Y-99250531D01*
X65061428Y-99179102D01*
X65204285Y-99107674D01*
X65490000Y-99036245D01*
X65847142Y-99036245D01*
X66132857Y-99107674D01*
X66275714Y-99179102D01*
X66347142Y-99250531D01*
X66418571Y-99393388D01*
X66418571Y-99536245D01*
X66347142Y-99679102D01*
X66275714Y-99750531D01*
X66132857Y-99821960D01*
X65847142Y-99893388D01*
X65490000Y-99893388D01*
X65204285Y-99821960D01*
X65061428Y-99750531D01*
X64990000Y-99679102D01*
X64918571Y-99536245D01*
X66418571Y-97250531D02*
X65418571Y-97250531D01*
X64918571Y-97250531D02*
X64990000Y-97321960D01*
X65061428Y-97250531D01*
X64990000Y-97179102D01*
X64918571Y-97250531D01*
X65061428Y-97250531D01*
X65418571Y-96536245D02*
X66418571Y-96536245D01*
X65561428Y-96536245D02*
X65490000Y-96464817D01*
X65418571Y-96321960D01*
X65418571Y-96107674D01*
X65490000Y-95964817D01*
X65632857Y-95893388D01*
X66418571Y-95893388D01*
X67840000Y-137000000D02*
X67840000Y-65143921D01*
X72920000Y-137000000D02*
X67253579Y-137000000D01*
X72920000Y-65143921D02*
X67253579Y-65143921D01*
X67840000Y-65143921D02*
X68426421Y-66270425D01*
X67840000Y-65143921D02*
X67253579Y-66270425D01*
X67840000Y-137000000D02*
X68426421Y-135873496D01*
X67840000Y-137000000D02*
X67253579Y-135873496D01*
X182378571Y-120120357D02*
X182378571Y-120977500D01*
X182378571Y-120548928D02*
X180878571Y-120548928D01*
X181092857Y-120691785D01*
X181235714Y-120834642D01*
X181307142Y-120977500D01*
X182235714Y-119477500D02*
X182307142Y-119406071D01*
X182378571Y-119477500D01*
X182307142Y-119548928D01*
X182235714Y-119477500D01*
X182378571Y-119477500D01*
X180878571Y-118120357D02*
X180878571Y-118406071D01*
X180950000Y-118548928D01*
X181021428Y-118620357D01*
X181235714Y-118763214D01*
X181521428Y-118834642D01*
X182092857Y-118834642D01*
X182235714Y-118763214D01*
X182307142Y-118691785D01*
X182378571Y-118548928D01*
X182378571Y-118263214D01*
X182307142Y-118120357D01*
X182235714Y-118048928D01*
X182092857Y-117977500D01*
X181735714Y-117977500D01*
X181592857Y-118048928D01*
X181521428Y-118120357D01*
X181450000Y-118263214D01*
X181450000Y-118548928D01*
X181521428Y-118691785D01*
X181592857Y-118763214D01*
X181735714Y-118834642D01*
X180878571Y-117477500D02*
X180878571Y-116477500D01*
X182378571Y-117120357D01*
X180878571Y-115191785D02*
X180878571Y-115906071D01*
X181592857Y-115977500D01*
X181521428Y-115906071D01*
X181450000Y-115763214D01*
X181450000Y-115406071D01*
X181521428Y-115263214D01*
X181592857Y-115191785D01*
X181735714Y-115120357D01*
X182092857Y-115120357D01*
X182235714Y-115191785D01*
X182307142Y-115263214D01*
X182378571Y-115406071D01*
X182378571Y-115763214D01*
X182307142Y-115906071D01*
X182235714Y-115977500D01*
X180878571Y-114191785D02*
X180878571Y-114048928D01*
X180950000Y-113906071D01*
X181021428Y-113834642D01*
X181164285Y-113763214D01*
X181450000Y-113691785D01*
X181807142Y-113691785D01*
X182092857Y-113763214D01*
X182235714Y-113834642D01*
X182307142Y-113906071D01*
X182378571Y-114048928D01*
X182378571Y-114191785D01*
X182307142Y-114334642D01*
X182235714Y-114406071D01*
X182092857Y-114477500D01*
X181807142Y-114548928D01*
X181450000Y-114548928D01*
X181164285Y-114477500D01*
X181021428Y-114406071D01*
X180950000Y-114334642D01*
X180878571Y-114191785D01*
X182378571Y-111906071D02*
X181378571Y-111906071D01*
X180878571Y-111906071D02*
X180950000Y-111977500D01*
X181021428Y-111906071D01*
X180950000Y-111834642D01*
X180878571Y-111906071D01*
X181021428Y-111906071D01*
X181378571Y-111191785D02*
X182378571Y-111191785D01*
X181521428Y-111191785D02*
X181450000Y-111120357D01*
X181378571Y-110977500D01*
X181378571Y-110763214D01*
X181450000Y-110620357D01*
X181592857Y-110548928D01*
X182378571Y-110548928D01*
X179600000Y-137000000D02*
X179600000Y-94455000D01*
X164360000Y-137000000D02*
X180186421Y-137000000D01*
X164360000Y-94455000D02*
X180186421Y-94455000D01*
X179600000Y-94455000D02*
X180186421Y-95581504D01*
X179600000Y-94455000D02*
X179013579Y-95581504D01*
X179600000Y-137000000D02*
X180186421Y-135873496D01*
X179600000Y-137000000D02*
X179013579Y-135873496D01*
X176663571Y-128375357D02*
X176663571Y-129232500D01*
X176663571Y-128803928D02*
X175163571Y-128803928D01*
X175377857Y-128946785D01*
X175520714Y-129089642D01*
X175592142Y-129232500D01*
X176520714Y-127732500D02*
X176592142Y-127661071D01*
X176663571Y-127732500D01*
X176592142Y-127803928D01*
X176520714Y-127732500D01*
X176663571Y-127732500D01*
X175163571Y-126732500D02*
X175163571Y-126589642D01*
X175235000Y-126446785D01*
X175306428Y-126375357D01*
X175449285Y-126303928D01*
X175735000Y-126232500D01*
X176092142Y-126232500D01*
X176377857Y-126303928D01*
X176520714Y-126375357D01*
X176592142Y-126446785D01*
X176663571Y-126589642D01*
X176663571Y-126732500D01*
X176592142Y-126875357D01*
X176520714Y-126946785D01*
X176377857Y-127018214D01*
X176092142Y-127089642D01*
X175735000Y-127089642D01*
X175449285Y-127018214D01*
X175306428Y-126946785D01*
X175235000Y-126875357D01*
X175163571Y-126732500D01*
X175306428Y-125661071D02*
X175235000Y-125589642D01*
X175163571Y-125446785D01*
X175163571Y-125089642D01*
X175235000Y-124946785D01*
X175306428Y-124875357D01*
X175449285Y-124803928D01*
X175592142Y-124803928D01*
X175806428Y-124875357D01*
X176663571Y-125732500D01*
X176663571Y-124803928D01*
X175163571Y-123446785D02*
X175163571Y-124161071D01*
X175877857Y-124232500D01*
X175806428Y-124161071D01*
X175735000Y-124018214D01*
X175735000Y-123661071D01*
X175806428Y-123518214D01*
X175877857Y-123446785D01*
X176020714Y-123375357D01*
X176377857Y-123375357D01*
X176520714Y-123446785D01*
X176592142Y-123518214D01*
X176663571Y-123661071D01*
X176663571Y-124018214D01*
X176592142Y-124161071D01*
X176520714Y-124232500D01*
X175163571Y-122446785D02*
X175163571Y-122303928D01*
X175235000Y-122161071D01*
X175306428Y-122089642D01*
X175449285Y-122018214D01*
X175735000Y-121946785D01*
X176092142Y-121946785D01*
X176377857Y-122018214D01*
X176520714Y-122089642D01*
X176592142Y-122161071D01*
X176663571Y-122303928D01*
X176663571Y-122446785D01*
X176592142Y-122589642D01*
X176520714Y-122661071D01*
X176377857Y-122732500D01*
X176092142Y-122803928D01*
X175735000Y-122803928D01*
X175449285Y-122732500D01*
X175306428Y-122661071D01*
X175235000Y-122589642D01*
X175163571Y-122446785D01*
X176663571Y-120161071D02*
X175663571Y-120161071D01*
X175163571Y-120161071D02*
X175235000Y-120232500D01*
X175306428Y-120161071D01*
X175235000Y-120089642D01*
X175163571Y-120161071D01*
X175306428Y-120161071D01*
X175663571Y-119446785D02*
X176663571Y-119446785D01*
X175806428Y-119446785D02*
X175735000Y-119375357D01*
X175663571Y-119232500D01*
X175663571Y-119018214D01*
X175735000Y-118875357D01*
X175877857Y-118803928D01*
X176663571Y-118803928D01*
X173885000Y-137000000D02*
X173885000Y-110965000D01*
X164360000Y-137000000D02*
X174471421Y-137000000D01*
X164360000Y-110965000D02*
X174471421Y-110965000D01*
X173885000Y-110965000D02*
X174471421Y-112091504D01*
X173885000Y-110965000D02*
X173298579Y-112091504D01*
X173885000Y-137000000D02*
X174471421Y-135873496D01*
X173885000Y-137000000D02*
X173298579Y-135873496D01*
X169448571Y-99665357D02*
X169448571Y-99522500D01*
X169520000Y-99379642D01*
X169591428Y-99308214D01*
X169734285Y-99236785D01*
X170020000Y-99165357D01*
X170377142Y-99165357D01*
X170662857Y-99236785D01*
X170805714Y-99308214D01*
X170877142Y-99379642D01*
X170948571Y-99522500D01*
X170948571Y-99665357D01*
X170877142Y-99808214D01*
X170805714Y-99879642D01*
X170662857Y-99951071D01*
X170377142Y-100022500D01*
X170020000Y-100022500D01*
X169734285Y-99951071D01*
X169591428Y-99879642D01*
X169520000Y-99808214D01*
X169448571Y-99665357D01*
X170805714Y-98522500D02*
X170877142Y-98451071D01*
X170948571Y-98522500D01*
X170877142Y-98593928D01*
X170805714Y-98522500D01*
X170948571Y-98522500D01*
X169448571Y-97093928D02*
X169448571Y-97808214D01*
X170162857Y-97879642D01*
X170091428Y-97808214D01*
X170020000Y-97665357D01*
X170020000Y-97308214D01*
X170091428Y-97165357D01*
X170162857Y-97093928D01*
X170305714Y-97022500D01*
X170662857Y-97022500D01*
X170805714Y-97093928D01*
X170877142Y-97165357D01*
X170948571Y-97308214D01*
X170948571Y-97665357D01*
X170877142Y-97808214D01*
X170805714Y-97879642D01*
X169591428Y-96451071D02*
X169520000Y-96379642D01*
X169448571Y-96236785D01*
X169448571Y-95879642D01*
X169520000Y-95736785D01*
X169591428Y-95665357D01*
X169734285Y-95593928D01*
X169877142Y-95593928D01*
X170091428Y-95665357D01*
X170948571Y-96522500D01*
X170948571Y-95593928D01*
X169448571Y-94236785D02*
X169448571Y-94951071D01*
X170162857Y-95022500D01*
X170091428Y-94951071D01*
X170020000Y-94808214D01*
X170020000Y-94451071D01*
X170091428Y-94308214D01*
X170162857Y-94236785D01*
X170305714Y-94165357D01*
X170662857Y-94165357D01*
X170805714Y-94236785D01*
X170877142Y-94308214D01*
X170948571Y-94451071D01*
X170948571Y-94808214D01*
X170877142Y-94951071D01*
X170805714Y-95022500D01*
X169448571Y-93236785D02*
X169448571Y-93093928D01*
X169520000Y-92951071D01*
X169591428Y-92879642D01*
X169734285Y-92808214D01*
X170020000Y-92736785D01*
X170377142Y-92736785D01*
X170662857Y-92808214D01*
X170805714Y-92879642D01*
X170877142Y-92951071D01*
X170948571Y-93093928D01*
X170948571Y-93236785D01*
X170877142Y-93379642D01*
X170805714Y-93451071D01*
X170662857Y-93522500D01*
X170377142Y-93593928D01*
X170020000Y-93593928D01*
X169734285Y-93522500D01*
X169591428Y-93451071D01*
X169520000Y-93379642D01*
X169448571Y-93236785D01*
X170948571Y-90951071D02*
X169948571Y-90951071D01*
X169448571Y-90951071D02*
X169520000Y-91022500D01*
X169591428Y-90951071D01*
X169520000Y-90879642D01*
X169448571Y-90951071D01*
X169591428Y-90951071D01*
X169948571Y-90236785D02*
X170948571Y-90236785D01*
X170091428Y-90236785D02*
X170020000Y-90165357D01*
X169948571Y-90022500D01*
X169948571Y-89808214D01*
X170020000Y-89665357D01*
X170162857Y-89593928D01*
X170948571Y-89593928D01*
X168170000Y-101440000D02*
X168170000Y-88105000D01*
X165630000Y-101440000D02*
X168756421Y-101440000D01*
X165630000Y-88105000D02*
X168756421Y-88105000D01*
X168170000Y-88105000D02*
X168756421Y-89231504D01*
X168170000Y-88105000D02*
X167583579Y-89231504D01*
X168170000Y-101440000D02*
X168756421Y-100313496D01*
X168170000Y-101440000D02*
X167583579Y-100313496D01*
X169448571Y-115540357D02*
X169448571Y-115397500D01*
X169520000Y-115254642D01*
X169591428Y-115183214D01*
X169734285Y-115111785D01*
X170020000Y-115040357D01*
X170377142Y-115040357D01*
X170662857Y-115111785D01*
X170805714Y-115183214D01*
X170877142Y-115254642D01*
X170948571Y-115397500D01*
X170948571Y-115540357D01*
X170877142Y-115683214D01*
X170805714Y-115754642D01*
X170662857Y-115826071D01*
X170377142Y-115897500D01*
X170020000Y-115897500D01*
X169734285Y-115826071D01*
X169591428Y-115754642D01*
X169520000Y-115683214D01*
X169448571Y-115540357D01*
X170805714Y-114397500D02*
X170877142Y-114326071D01*
X170948571Y-114397500D01*
X170877142Y-114468928D01*
X170805714Y-114397500D01*
X170948571Y-114397500D01*
X169448571Y-112968928D02*
X169448571Y-113683214D01*
X170162857Y-113754642D01*
X170091428Y-113683214D01*
X170020000Y-113540357D01*
X170020000Y-113183214D01*
X170091428Y-113040357D01*
X170162857Y-112968928D01*
X170305714Y-112897500D01*
X170662857Y-112897500D01*
X170805714Y-112968928D01*
X170877142Y-113040357D01*
X170948571Y-113183214D01*
X170948571Y-113540357D01*
X170877142Y-113683214D01*
X170805714Y-113754642D01*
X169591428Y-112326071D02*
X169520000Y-112254642D01*
X169448571Y-112111785D01*
X169448571Y-111754642D01*
X169520000Y-111611785D01*
X169591428Y-111540357D01*
X169734285Y-111468928D01*
X169877142Y-111468928D01*
X170091428Y-111540357D01*
X170948571Y-112397500D01*
X170948571Y-111468928D01*
X169448571Y-110111785D02*
X169448571Y-110826071D01*
X170162857Y-110897500D01*
X170091428Y-110826071D01*
X170020000Y-110683214D01*
X170020000Y-110326071D01*
X170091428Y-110183214D01*
X170162857Y-110111785D01*
X170305714Y-110040357D01*
X170662857Y-110040357D01*
X170805714Y-110111785D01*
X170877142Y-110183214D01*
X170948571Y-110326071D01*
X170948571Y-110683214D01*
X170877142Y-110826071D01*
X170805714Y-110897500D01*
X169448571Y-109111785D02*
X169448571Y-108968928D01*
X169520000Y-108826071D01*
X169591428Y-108754642D01*
X169734285Y-108683214D01*
X170020000Y-108611785D01*
X170377142Y-108611785D01*
X170662857Y-108683214D01*
X170805714Y-108754642D01*
X170877142Y-108826071D01*
X170948571Y-108968928D01*
X170948571Y-109111785D01*
X170877142Y-109254642D01*
X170805714Y-109326071D01*
X170662857Y-109397500D01*
X170377142Y-109468928D01*
X170020000Y-109468928D01*
X169734285Y-109397500D01*
X169591428Y-109326071D01*
X169520000Y-109254642D01*
X169448571Y-109111785D01*
X170948571Y-106826071D02*
X169948571Y-106826071D01*
X169448571Y-106826071D02*
X169520000Y-106897500D01*
X169591428Y-106826071D01*
X169520000Y-106754642D01*
X169448571Y-106826071D01*
X169591428Y-106826071D01*
X169948571Y-106111785D02*
X170948571Y-106111785D01*
X170091428Y-106111785D02*
X170020000Y-106040357D01*
X169948571Y-105897500D01*
X169948571Y-105683214D01*
X170020000Y-105540357D01*
X170162857Y-105468928D01*
X170948571Y-105468928D01*
X168170000Y-117315000D02*
X168170000Y-103980000D01*
X165630000Y-117315000D02*
X168756421Y-117315000D01*
X165630000Y-103980000D02*
X168756421Y-103980000D01*
X168170000Y-103980000D02*
X168756421Y-105106504D01*
X168170000Y-103980000D02*
X167583579Y-105106504D01*
X168170000Y-117315000D02*
X168756421Y-116188496D01*
X168170000Y-117315000D02*
X167583579Y-116188496D01*
X75468571Y-140305357D02*
X75468571Y-140162500D01*
X75540000Y-140019642D01*
X75611428Y-139948214D01*
X75754285Y-139876785D01*
X76040000Y-139805357D01*
X76397142Y-139805357D01*
X76682857Y-139876785D01*
X76825714Y-139948214D01*
X76897142Y-140019642D01*
X76968571Y-140162500D01*
X76968571Y-140305357D01*
X76897142Y-140448214D01*
X76825714Y-140519642D01*
X76682857Y-140591071D01*
X76397142Y-140662500D01*
X76040000Y-140662500D01*
X75754285Y-140591071D01*
X75611428Y-140519642D01*
X75540000Y-140448214D01*
X75468571Y-140305357D01*
X76825714Y-139162500D02*
X76897142Y-139091071D01*
X76968571Y-139162500D01*
X76897142Y-139233928D01*
X76825714Y-139162500D01*
X76968571Y-139162500D01*
X76968571Y-137662500D02*
X76968571Y-138519642D01*
X76968571Y-138091071D02*
X75468571Y-138091071D01*
X75682857Y-138233928D01*
X75825714Y-138376785D01*
X75897142Y-138519642D01*
X75611428Y-137091071D02*
X75540000Y-137019642D01*
X75468571Y-136876785D01*
X75468571Y-136519642D01*
X75540000Y-136376785D01*
X75611428Y-136305357D01*
X75754285Y-136233928D01*
X75897142Y-136233928D01*
X76111428Y-136305357D01*
X76968571Y-137162500D01*
X76968571Y-136233928D01*
X75468571Y-134876785D02*
X75468571Y-135591071D01*
X76182857Y-135662500D01*
X76111428Y-135591071D01*
X76040000Y-135448214D01*
X76040000Y-135091071D01*
X76111428Y-134948214D01*
X76182857Y-134876785D01*
X76325714Y-134805357D01*
X76682857Y-134805357D01*
X76825714Y-134876785D01*
X76897142Y-134948214D01*
X76968571Y-135091071D01*
X76968571Y-135448214D01*
X76897142Y-135591071D01*
X76825714Y-135662500D01*
X75468571Y-133876785D02*
X75468571Y-133733928D01*
X75540000Y-133591071D01*
X75611428Y-133519642D01*
X75754285Y-133448214D01*
X76040000Y-133376785D01*
X76397142Y-133376785D01*
X76682857Y-133448214D01*
X76825714Y-133519642D01*
X76897142Y-133591071D01*
X76968571Y-133733928D01*
X76968571Y-133876785D01*
X76897142Y-134019642D01*
X76825714Y-134091071D01*
X76682857Y-134162500D01*
X76397142Y-134233928D01*
X76040000Y-134233928D01*
X75754285Y-134162500D01*
X75611428Y-134091071D01*
X75540000Y-134019642D01*
X75468571Y-133876785D01*
X76968571Y-131591071D02*
X75968571Y-131591071D01*
X75468571Y-131591071D02*
X75540000Y-131662500D01*
X75611428Y-131591071D01*
X75540000Y-131519642D01*
X75468571Y-131591071D01*
X75611428Y-131591071D01*
X75968571Y-130876785D02*
X76968571Y-130876785D01*
X76111428Y-130876785D02*
X76040000Y-130805357D01*
X75968571Y-130662500D01*
X75968571Y-130448214D01*
X76040000Y-130305357D01*
X76182857Y-130233928D01*
X76968571Y-130233928D01*
X74190000Y-137000000D02*
X74190000Y-133825000D01*
X74190000Y-137000000D02*
X74776421Y-137000000D01*
X74190000Y-133825000D02*
X74776421Y-133825000D01*
X74190000Y-133825000D02*
X74776421Y-134951504D01*
X74190000Y-133825000D02*
X73603579Y-134951504D01*
X74190000Y-137000000D02*
X74776421Y-135873496D01*
X74190000Y-137000000D02*
X73603579Y-135873496D01*
X60616428Y-104785000D02*
X60545000Y-104713571D01*
X60473571Y-104570714D01*
X60473571Y-104213571D01*
X60545000Y-104070714D01*
X60616428Y-103999285D01*
X60759285Y-103927857D01*
X60902142Y-103927857D01*
X61116428Y-103999285D01*
X61973571Y-104856428D01*
X61973571Y-103927857D01*
X61830714Y-103285000D02*
X61902142Y-103213571D01*
X61973571Y-103285000D01*
X61902142Y-103356428D01*
X61830714Y-103285000D01*
X61973571Y-103285000D01*
X61973571Y-102499285D02*
X61973571Y-102213571D01*
X61902142Y-102070714D01*
X61830714Y-101999285D01*
X61616428Y-101856428D01*
X61330714Y-101785000D01*
X60759285Y-101785000D01*
X60616428Y-101856428D01*
X60545000Y-101927857D01*
X60473571Y-102070714D01*
X60473571Y-102356428D01*
X60545000Y-102499285D01*
X60616428Y-102570714D01*
X60759285Y-102642142D01*
X61116428Y-102642142D01*
X61259285Y-102570714D01*
X61330714Y-102499285D01*
X61402142Y-102356428D01*
X61402142Y-102070714D01*
X61330714Y-101927857D01*
X61259285Y-101856428D01*
X61116428Y-101785000D01*
X60473571Y-100427857D02*
X60473571Y-101142142D01*
X61187857Y-101213571D01*
X61116428Y-101142142D01*
X61045000Y-100999285D01*
X61045000Y-100642142D01*
X61116428Y-100499285D01*
X61187857Y-100427857D01*
X61330714Y-100356428D01*
X61687857Y-100356428D01*
X61830714Y-100427857D01*
X61902142Y-100499285D01*
X61973571Y-100642142D01*
X61973571Y-100999285D01*
X61902142Y-101142142D01*
X61830714Y-101213571D01*
X60473571Y-99427857D02*
X60473571Y-99285000D01*
X60545000Y-99142142D01*
X60616428Y-99070714D01*
X60759285Y-98999285D01*
X61045000Y-98927857D01*
X61402142Y-98927857D01*
X61687857Y-98999285D01*
X61830714Y-99070714D01*
X61902142Y-99142142D01*
X61973571Y-99285000D01*
X61973571Y-99427857D01*
X61902142Y-99570714D01*
X61830714Y-99642142D01*
X61687857Y-99713571D01*
X61402142Y-99785000D01*
X61045000Y-99785000D01*
X60759285Y-99713571D01*
X60616428Y-99642142D01*
X60545000Y-99570714D01*
X60473571Y-99427857D01*
X60473571Y-97999285D02*
X60473571Y-97856428D01*
X60545000Y-97713571D01*
X60616428Y-97642142D01*
X60759285Y-97570714D01*
X61045000Y-97499285D01*
X61402142Y-97499285D01*
X61687857Y-97570714D01*
X61830714Y-97642142D01*
X61902142Y-97713571D01*
X61973571Y-97856428D01*
X61973571Y-97999285D01*
X61902142Y-98142142D01*
X61830714Y-98213571D01*
X61687857Y-98285000D01*
X61402142Y-98356428D01*
X61045000Y-98356428D01*
X60759285Y-98285000D01*
X60616428Y-98213571D01*
X60545000Y-98142142D01*
X60473571Y-97999285D01*
X61973571Y-95713571D02*
X60973571Y-95713571D01*
X60473571Y-95713571D02*
X60545000Y-95785000D01*
X60616428Y-95713571D01*
X60545000Y-95642142D01*
X60473571Y-95713571D01*
X60616428Y-95713571D01*
X60973571Y-94999285D02*
X61973571Y-94999285D01*
X61116428Y-94999285D02*
X61045000Y-94927857D01*
X60973571Y-94785000D01*
X60973571Y-94570714D01*
X61045000Y-94427857D01*
X61187857Y-94356428D01*
X61973571Y-94356428D01*
X63395000Y-137000000D02*
X63395000Y-62070000D01*
X72285000Y-137000000D02*
X62808579Y-137000000D01*
X72285000Y-62070000D02*
X62808579Y-62070000D01*
X63395000Y-62070000D02*
X63981421Y-63196504D01*
X63395000Y-62070000D02*
X62808579Y-63196504D01*
X63395000Y-137000000D02*
X63981421Y-135873496D01*
X63395000Y-137000000D02*
X62808579Y-135873496D01*
X68728571Y-93950357D02*
X68728571Y-93807500D01*
X68800000Y-93664642D01*
X68871428Y-93593214D01*
X69014285Y-93521785D01*
X69300000Y-93450357D01*
X69657142Y-93450357D01*
X69942857Y-93521785D01*
X70085714Y-93593214D01*
X70157142Y-93664642D01*
X70228571Y-93807500D01*
X70228571Y-93950357D01*
X70157142Y-94093214D01*
X70085714Y-94164642D01*
X69942857Y-94236071D01*
X69657142Y-94307500D01*
X69300000Y-94307500D01*
X69014285Y-94236071D01*
X68871428Y-94164642D01*
X68800000Y-94093214D01*
X68728571Y-93950357D01*
X70085714Y-92807500D02*
X70157142Y-92736071D01*
X70228571Y-92807500D01*
X70157142Y-92878928D01*
X70085714Y-92807500D01*
X70228571Y-92807500D01*
X68728571Y-91378928D02*
X68728571Y-92093214D01*
X69442857Y-92164642D01*
X69371428Y-92093214D01*
X69300000Y-91950357D01*
X69300000Y-91593214D01*
X69371428Y-91450357D01*
X69442857Y-91378928D01*
X69585714Y-91307500D01*
X69942857Y-91307500D01*
X70085714Y-91378928D01*
X70157142Y-91450357D01*
X70228571Y-91593214D01*
X70228571Y-91950357D01*
X70157142Y-92093214D01*
X70085714Y-92164642D01*
X68728571Y-90807500D02*
X68728571Y-89807500D01*
X70228571Y-90450357D01*
X68728571Y-88521785D02*
X68728571Y-89236071D01*
X69442857Y-89307500D01*
X69371428Y-89236071D01*
X69300000Y-89093214D01*
X69300000Y-88736071D01*
X69371428Y-88593214D01*
X69442857Y-88521785D01*
X69585714Y-88450357D01*
X69942857Y-88450357D01*
X70085714Y-88521785D01*
X70157142Y-88593214D01*
X70228571Y-88736071D01*
X70228571Y-89093214D01*
X70157142Y-89236071D01*
X70085714Y-89307500D01*
X68728571Y-87521785D02*
X68728571Y-87378928D01*
X68800000Y-87236071D01*
X68871428Y-87164642D01*
X69014285Y-87093214D01*
X69300000Y-87021785D01*
X69657142Y-87021785D01*
X69942857Y-87093214D01*
X70085714Y-87164642D01*
X70157142Y-87236071D01*
X70228571Y-87378928D01*
X70228571Y-87521785D01*
X70157142Y-87664642D01*
X70085714Y-87736071D01*
X69942857Y-87807500D01*
X69657142Y-87878928D01*
X69300000Y-87878928D01*
X69014285Y-87807500D01*
X68871428Y-87736071D01*
X68800000Y-87664642D01*
X68728571Y-87521785D01*
X70228571Y-85236071D02*
X69228571Y-85236071D01*
X68728571Y-85236071D02*
X68800000Y-85307500D01*
X68871428Y-85236071D01*
X68800000Y-85164642D01*
X68728571Y-85236071D01*
X68871428Y-85236071D01*
X69228571Y-84521785D02*
X70228571Y-84521785D01*
X69371428Y-84521785D02*
X69300000Y-84450357D01*
X69228571Y-84307500D01*
X69228571Y-84093214D01*
X69300000Y-83950357D01*
X69442857Y-83878928D01*
X70228571Y-83878928D01*
X71650000Y-96360000D02*
X71650000Y-81755000D01*
X74825000Y-96360000D02*
X71063579Y-96360000D01*
X74825000Y-81755000D02*
X71063579Y-81755000D01*
X71650000Y-81755000D02*
X72236421Y-82881504D01*
X71650000Y-81755000D02*
X71063579Y-82881504D01*
X71650000Y-96360000D02*
X72236421Y-95233496D01*
X71650000Y-96360000D02*
X71063579Y-95233496D01*
X68728571Y-110460357D02*
X68728571Y-110317500D01*
X68800000Y-110174642D01*
X68871428Y-110103214D01*
X69014285Y-110031785D01*
X69300000Y-109960357D01*
X69657142Y-109960357D01*
X69942857Y-110031785D01*
X70085714Y-110103214D01*
X70157142Y-110174642D01*
X70228571Y-110317500D01*
X70228571Y-110460357D01*
X70157142Y-110603214D01*
X70085714Y-110674642D01*
X69942857Y-110746071D01*
X69657142Y-110817500D01*
X69300000Y-110817500D01*
X69014285Y-110746071D01*
X68871428Y-110674642D01*
X68800000Y-110603214D01*
X68728571Y-110460357D01*
X70085714Y-109317500D02*
X70157142Y-109246071D01*
X70228571Y-109317500D01*
X70157142Y-109388928D01*
X70085714Y-109317500D01*
X70228571Y-109317500D01*
X68728571Y-107888928D02*
X68728571Y-108603214D01*
X69442857Y-108674642D01*
X69371428Y-108603214D01*
X69300000Y-108460357D01*
X69300000Y-108103214D01*
X69371428Y-107960357D01*
X69442857Y-107888928D01*
X69585714Y-107817500D01*
X69942857Y-107817500D01*
X70085714Y-107888928D01*
X70157142Y-107960357D01*
X70228571Y-108103214D01*
X70228571Y-108460357D01*
X70157142Y-108603214D01*
X70085714Y-108674642D01*
X68728571Y-107317500D02*
X68728571Y-106317500D01*
X70228571Y-106960357D01*
X68728571Y-105031785D02*
X68728571Y-105746071D01*
X69442857Y-105817500D01*
X69371428Y-105746071D01*
X69300000Y-105603214D01*
X69300000Y-105246071D01*
X69371428Y-105103214D01*
X69442857Y-105031785D01*
X69585714Y-104960357D01*
X69942857Y-104960357D01*
X70085714Y-105031785D01*
X70157142Y-105103214D01*
X70228571Y-105246071D01*
X70228571Y-105603214D01*
X70157142Y-105746071D01*
X70085714Y-105817500D01*
X68728571Y-104031785D02*
X68728571Y-103888928D01*
X68800000Y-103746071D01*
X68871428Y-103674642D01*
X69014285Y-103603214D01*
X69300000Y-103531785D01*
X69657142Y-103531785D01*
X69942857Y-103603214D01*
X70085714Y-103674642D01*
X70157142Y-103746071D01*
X70228571Y-103888928D01*
X70228571Y-104031785D01*
X70157142Y-104174642D01*
X70085714Y-104246071D01*
X69942857Y-104317500D01*
X69657142Y-104388928D01*
X69300000Y-104388928D01*
X69014285Y-104317500D01*
X68871428Y-104246071D01*
X68800000Y-104174642D01*
X68728571Y-104031785D01*
X70228571Y-101746071D02*
X69228571Y-101746071D01*
X68728571Y-101746071D02*
X68800000Y-101817500D01*
X68871428Y-101746071D01*
X68800000Y-101674642D01*
X68728571Y-101746071D01*
X68871428Y-101746071D01*
X69228571Y-101031785D02*
X70228571Y-101031785D01*
X69371428Y-101031785D02*
X69300000Y-100960357D01*
X69228571Y-100817500D01*
X69228571Y-100603214D01*
X69300000Y-100460357D01*
X69442857Y-100388928D01*
X70228571Y-100388928D01*
X71650000Y-112870000D02*
X71650000Y-98265000D01*
X74190000Y-112870000D02*
X71063579Y-112870000D01*
X74190000Y-98265000D02*
X71063579Y-98265000D01*
X71650000Y-98265000D02*
X72236421Y-99391504D01*
X71650000Y-98265000D02*
X71063579Y-99391504D01*
X71650000Y-112870000D02*
X72236421Y-111743496D01*
X71650000Y-112870000D02*
X71063579Y-111743496D01*
X68728571Y-125700357D02*
X68728571Y-125557500D01*
X68800000Y-125414642D01*
X68871428Y-125343214D01*
X69014285Y-125271785D01*
X69300000Y-125200357D01*
X69657142Y-125200357D01*
X69942857Y-125271785D01*
X70085714Y-125343214D01*
X70157142Y-125414642D01*
X70228571Y-125557500D01*
X70228571Y-125700357D01*
X70157142Y-125843214D01*
X70085714Y-125914642D01*
X69942857Y-125986071D01*
X69657142Y-126057500D01*
X69300000Y-126057500D01*
X69014285Y-125986071D01*
X68871428Y-125914642D01*
X68800000Y-125843214D01*
X68728571Y-125700357D01*
X70085714Y-124557500D02*
X70157142Y-124486071D01*
X70228571Y-124557500D01*
X70157142Y-124628928D01*
X70085714Y-124557500D01*
X70228571Y-124557500D01*
X68728571Y-123986071D02*
X68728571Y-123057500D01*
X69300000Y-123557500D01*
X69300000Y-123343214D01*
X69371428Y-123200357D01*
X69442857Y-123128928D01*
X69585714Y-123057500D01*
X69942857Y-123057500D01*
X70085714Y-123128928D01*
X70157142Y-123200357D01*
X70228571Y-123343214D01*
X70228571Y-123771785D01*
X70157142Y-123914642D01*
X70085714Y-123986071D01*
X68728571Y-122557500D02*
X68728571Y-121557500D01*
X70228571Y-122200357D01*
X68728571Y-120271785D02*
X68728571Y-120986071D01*
X69442857Y-121057500D01*
X69371428Y-120986071D01*
X69300000Y-120843214D01*
X69300000Y-120486071D01*
X69371428Y-120343214D01*
X69442857Y-120271785D01*
X69585714Y-120200357D01*
X69942857Y-120200357D01*
X70085714Y-120271785D01*
X70157142Y-120343214D01*
X70228571Y-120486071D01*
X70228571Y-120843214D01*
X70157142Y-120986071D01*
X70085714Y-121057500D01*
X68728571Y-119271785D02*
X68728571Y-119128928D01*
X68800000Y-118986071D01*
X68871428Y-118914642D01*
X69014285Y-118843214D01*
X69300000Y-118771785D01*
X69657142Y-118771785D01*
X69942857Y-118843214D01*
X70085714Y-118914642D01*
X70157142Y-118986071D01*
X70228571Y-119128928D01*
X70228571Y-119271785D01*
X70157142Y-119414642D01*
X70085714Y-119486071D01*
X69942857Y-119557500D01*
X69657142Y-119628928D01*
X69300000Y-119628928D01*
X69014285Y-119557500D01*
X68871428Y-119486071D01*
X68800000Y-119414642D01*
X68728571Y-119271785D01*
X70228571Y-116986071D02*
X69228571Y-116986071D01*
X68728571Y-116986071D02*
X68800000Y-117057500D01*
X68871428Y-116986071D01*
X68800000Y-116914642D01*
X68728571Y-116986071D01*
X68871428Y-116986071D01*
X69228571Y-116271785D02*
X70228571Y-116271785D01*
X69371428Y-116271785D02*
X69300000Y-116200357D01*
X69228571Y-116057500D01*
X69228571Y-115843214D01*
X69300000Y-115700357D01*
X69442857Y-115628928D01*
X70228571Y-115628928D01*
X71650000Y-125570000D02*
X71650000Y-116045000D01*
X74190000Y-125570000D02*
X71063579Y-125570000D01*
X74190000Y-116045000D02*
X71063579Y-116045000D01*
X71650000Y-116045000D02*
X72236421Y-117171504D01*
X71650000Y-116045000D02*
X71063579Y-117171504D01*
X71650000Y-125570000D02*
X72236421Y-124443496D01*
X71650000Y-125570000D02*
X71063579Y-124443496D01*
X115223571Y-157328571D02*
X116152142Y-157328571D01*
X115652142Y-157900000D01*
X115866428Y-157900000D01*
X116009285Y-157971428D01*
X116080714Y-158042857D01*
X116152142Y-158185714D01*
X116152142Y-158542857D01*
X116080714Y-158685714D01*
X116009285Y-158757142D01*
X115866428Y-158828571D01*
X115437857Y-158828571D01*
X115295000Y-158757142D01*
X115223571Y-158685714D01*
X116795000Y-158685714D02*
X116866428Y-158757142D01*
X116795000Y-158828571D01*
X116723571Y-158757142D01*
X116795000Y-158685714D01*
X116795000Y-158828571D01*
X117366428Y-157328571D02*
X118295000Y-157328571D01*
X117795000Y-157900000D01*
X118009285Y-157900000D01*
X118152142Y-157971428D01*
X118223571Y-158042857D01*
X118295000Y-158185714D01*
X118295000Y-158542857D01*
X118223571Y-158685714D01*
X118152142Y-158757142D01*
X118009285Y-158828571D01*
X117580714Y-158828571D01*
X117437857Y-158757142D01*
X117366428Y-158685714D01*
X119652142Y-157328571D02*
X118937857Y-157328571D01*
X118866428Y-158042857D01*
X118937857Y-157971428D01*
X119080714Y-157900000D01*
X119437857Y-157900000D01*
X119580714Y-157971428D01*
X119652142Y-158042857D01*
X119723571Y-158185714D01*
X119723571Y-158542857D01*
X119652142Y-158685714D01*
X119580714Y-158757142D01*
X119437857Y-158828571D01*
X119080714Y-158828571D01*
X118937857Y-158757142D01*
X118866428Y-158685714D01*
X120652142Y-157328571D02*
X120795000Y-157328571D01*
X120937857Y-157400000D01*
X121009285Y-157471428D01*
X121080714Y-157614285D01*
X121152142Y-157900000D01*
X121152142Y-158257142D01*
X121080714Y-158542857D01*
X121009285Y-158685714D01*
X120937857Y-158757142D01*
X120795000Y-158828571D01*
X120652142Y-158828571D01*
X120509285Y-158757142D01*
X120437857Y-158685714D01*
X120366428Y-158542857D01*
X120295000Y-158257142D01*
X120295000Y-157900000D01*
X120366428Y-157614285D01*
X120437857Y-157471428D01*
X120509285Y-157400000D01*
X120652142Y-157328571D01*
X122080714Y-157328571D02*
X122223571Y-157328571D01*
X122366428Y-157400000D01*
X122437857Y-157471428D01*
X122509285Y-157614285D01*
X122580714Y-157900000D01*
X122580714Y-158257142D01*
X122509285Y-158542857D01*
X122437857Y-158685714D01*
X122366428Y-158757142D01*
X122223571Y-158828571D01*
X122080714Y-158828571D01*
X121937857Y-158757142D01*
X121866428Y-158685714D01*
X121795000Y-158542857D01*
X121723571Y-158257142D01*
X121723571Y-157900000D01*
X121795000Y-157614285D01*
X121866428Y-157471428D01*
X121937857Y-157400000D01*
X122080714Y-157328571D01*
X124366428Y-158828571D02*
X124366428Y-157828571D01*
X124366428Y-157328571D02*
X124295000Y-157400000D01*
X124366428Y-157471428D01*
X124437857Y-157400000D01*
X124366428Y-157328571D01*
X124366428Y-157471428D01*
X125080714Y-157828571D02*
X125080714Y-158828571D01*
X125080714Y-157971428D02*
X125152142Y-157900000D01*
X125295000Y-157828571D01*
X125509285Y-157828571D01*
X125652142Y-157900000D01*
X125723571Y-158042857D01*
X125723571Y-158828571D01*
X78000000Y-156050000D02*
X163090000Y-156050000D01*
X78000000Y-155415000D02*
X78000000Y-156636421D01*
X163090000Y-155415000D02*
X163090000Y-156636421D01*
X163090000Y-156050000D02*
X161963496Y-156636421D01*
X163090000Y-156050000D02*
X161963496Y-155463579D01*
X78000000Y-156050000D02*
X79126504Y-156636421D01*
X78000000Y-156050000D02*
X79126504Y-155463579D01*
X113636071Y-149708571D02*
X114564642Y-149708571D01*
X114064642Y-150280000D01*
X114278928Y-150280000D01*
X114421785Y-150351428D01*
X114493214Y-150422857D01*
X114564642Y-150565714D01*
X114564642Y-150922857D01*
X114493214Y-151065714D01*
X114421785Y-151137142D01*
X114278928Y-151208571D01*
X113850357Y-151208571D01*
X113707500Y-151137142D01*
X113636071Y-151065714D01*
X115207500Y-151065714D02*
X115278928Y-151137142D01*
X115207500Y-151208571D01*
X115136071Y-151137142D01*
X115207500Y-151065714D01*
X115207500Y-151208571D01*
X115850357Y-149851428D02*
X115921785Y-149780000D01*
X116064642Y-149708571D01*
X116421785Y-149708571D01*
X116564642Y-149780000D01*
X116636071Y-149851428D01*
X116707500Y-149994285D01*
X116707500Y-150137142D01*
X116636071Y-150351428D01*
X115778928Y-151208571D01*
X116707500Y-151208571D01*
X117278928Y-149851428D02*
X117350357Y-149780000D01*
X117493214Y-149708571D01*
X117850357Y-149708571D01*
X117993214Y-149780000D01*
X118064642Y-149851428D01*
X118136071Y-149994285D01*
X118136071Y-150137142D01*
X118064642Y-150351428D01*
X117207500Y-151208571D01*
X118136071Y-151208571D01*
X119493214Y-149708571D02*
X118778928Y-149708571D01*
X118707500Y-150422857D01*
X118778928Y-150351428D01*
X118921785Y-150280000D01*
X119278928Y-150280000D01*
X119421785Y-150351428D01*
X119493214Y-150422857D01*
X119564642Y-150565714D01*
X119564642Y-150922857D01*
X119493214Y-151065714D01*
X119421785Y-151137142D01*
X119278928Y-151208571D01*
X118921785Y-151208571D01*
X118778928Y-151137142D01*
X118707500Y-151065714D01*
X120493214Y-149708571D02*
X120636071Y-149708571D01*
X120778928Y-149780000D01*
X120850357Y-149851428D01*
X120921785Y-149994285D01*
X120993214Y-150280000D01*
X120993214Y-150637142D01*
X120921785Y-150922857D01*
X120850357Y-151065714D01*
X120778928Y-151137142D01*
X120636071Y-151208571D01*
X120493214Y-151208571D01*
X120350357Y-151137142D01*
X120278928Y-151065714D01*
X120207500Y-150922857D01*
X120136071Y-150637142D01*
X120136071Y-150280000D01*
X120207500Y-149994285D01*
X120278928Y-149851428D01*
X120350357Y-149780000D01*
X120493214Y-149708571D01*
X122778928Y-151208571D02*
X122778928Y-150208571D01*
X122778928Y-149708571D02*
X122707500Y-149780000D01*
X122778928Y-149851428D01*
X122850357Y-149780000D01*
X122778928Y-149708571D01*
X122778928Y-149851428D01*
X123493214Y-150208571D02*
X123493214Y-151208571D01*
X123493214Y-150351428D02*
X123564642Y-150280000D01*
X123707500Y-150208571D01*
X123921785Y-150208571D01*
X124064642Y-150280000D01*
X124136071Y-150422857D01*
X124136071Y-151208571D01*
X78000000Y-148430000D02*
X159915000Y-148430000D01*
X78000000Y-148430000D02*
X78000000Y-149016421D01*
X159915000Y-148430000D02*
X159915000Y-149016421D01*
X159915000Y-148430000D02*
X158788496Y-149016421D01*
X159915000Y-148430000D02*
X158788496Y-147843579D01*
X78000000Y-148430000D02*
X79126504Y-149016421D01*
X78000000Y-148430000D02*
X79126504Y-147843579D01*
X74694642Y-142723571D02*
X74837500Y-142723571D01*
X74980357Y-142795000D01*
X75051785Y-142866428D01*
X75123214Y-143009285D01*
X75194642Y-143295000D01*
X75194642Y-143652142D01*
X75123214Y-143937857D01*
X75051785Y-144080714D01*
X74980357Y-144152142D01*
X74837500Y-144223571D01*
X74694642Y-144223571D01*
X74551785Y-144152142D01*
X74480357Y-144080714D01*
X74408928Y-143937857D01*
X74337500Y-143652142D01*
X74337500Y-143295000D01*
X74408928Y-143009285D01*
X74480357Y-142866428D01*
X74551785Y-142795000D01*
X74694642Y-142723571D01*
X75837500Y-144080714D02*
X75908928Y-144152142D01*
X75837500Y-144223571D01*
X75766071Y-144152142D01*
X75837500Y-144080714D01*
X75837500Y-144223571D01*
X77337500Y-144223571D02*
X76480357Y-144223571D01*
X76908928Y-144223571D02*
X76908928Y-142723571D01*
X76766071Y-142937857D01*
X76623214Y-143080714D01*
X76480357Y-143152142D01*
X77908928Y-142866428D02*
X77980357Y-142795000D01*
X78123214Y-142723571D01*
X78480357Y-142723571D01*
X78623214Y-142795000D01*
X78694642Y-142866428D01*
X78766071Y-143009285D01*
X78766071Y-143152142D01*
X78694642Y-143366428D01*
X77837500Y-144223571D01*
X78766071Y-144223571D01*
X80123214Y-142723571D02*
X79408928Y-142723571D01*
X79337500Y-143437857D01*
X79408928Y-143366428D01*
X79551785Y-143295000D01*
X79908928Y-143295000D01*
X80051785Y-143366428D01*
X80123214Y-143437857D01*
X80194642Y-143580714D01*
X80194642Y-143937857D01*
X80123214Y-144080714D01*
X80051785Y-144152142D01*
X79908928Y-144223571D01*
X79551785Y-144223571D01*
X79408928Y-144152142D01*
X79337500Y-144080714D01*
X81123214Y-142723571D02*
X81266071Y-142723571D01*
X81408928Y-142795000D01*
X81480357Y-142866428D01*
X81551785Y-143009285D01*
X81623214Y-143295000D01*
X81623214Y-143652142D01*
X81551785Y-143937857D01*
X81480357Y-144080714D01*
X81408928Y-144152142D01*
X81266071Y-144223571D01*
X81123214Y-144223571D01*
X80980357Y-144152142D01*
X80908928Y-144080714D01*
X80837500Y-143937857D01*
X80766071Y-143652142D01*
X80766071Y-143295000D01*
X80837500Y-143009285D01*
X80908928Y-142866428D01*
X80980357Y-142795000D01*
X81123214Y-142723571D01*
X83408928Y-144223571D02*
X83408928Y-143223571D01*
X83408928Y-142723571D02*
X83337500Y-142795000D01*
X83408928Y-142866428D01*
X83480357Y-142795000D01*
X83408928Y-142723571D01*
X83408928Y-142866428D01*
X84123214Y-143223571D02*
X84123214Y-144223571D01*
X84123214Y-143366428D02*
X84194642Y-143295000D01*
X84337500Y-143223571D01*
X84551785Y-143223571D01*
X84694642Y-143295000D01*
X84766071Y-143437857D01*
X84766071Y-144223571D01*
X78000000Y-141445000D02*
X81175000Y-141445000D01*
X78000000Y-140810000D02*
X78000000Y-142031421D01*
X81175000Y-140810000D02*
X81175000Y-142031421D01*
X81175000Y-141445000D02*
X80048496Y-142031421D01*
X81175000Y-141445000D02*
X80048496Y-140858579D01*
X78000000Y-141445000D02*
X79126504Y-142031421D01*
X78000000Y-141445000D02*
X79126504Y-140858579D01*
X84594000Y-66166857D02*
X84522571Y-66309714D01*
X84522571Y-66524000D01*
X84594000Y-66738285D01*
X84736857Y-66881142D01*
X84879714Y-66952571D01*
X85165428Y-67024000D01*
X85379714Y-67024000D01*
X85665428Y-66952571D01*
X85808285Y-66881142D01*
X85951142Y-66738285D01*
X86022571Y-66524000D01*
X86022571Y-66381142D01*
X85951142Y-66166857D01*
X85879714Y-66095428D01*
X85379714Y-66095428D01*
X85379714Y-66381142D01*
X86022571Y-65452571D02*
X84522571Y-65452571D01*
X86022571Y-64595428D01*
X84522571Y-64595428D01*
X86022571Y-63881142D02*
X84522571Y-63881142D01*
X84522571Y-63524000D01*
X84594000Y-63309714D01*
X84736857Y-63166857D01*
X84879714Y-63095428D01*
X85165428Y-63024000D01*
X85379714Y-63024000D01*
X85665428Y-63095428D01*
X85808285Y-63166857D01*
X85951142Y-63309714D01*
X86022571Y-63524000D01*
X86022571Y-63881142D01*
X82169142Y-70878000D02*
X82026285Y-70806571D01*
X81812000Y-70806571D01*
X81597714Y-70878000D01*
X81454857Y-71020857D01*
X81383428Y-71163714D01*
X81312000Y-71449428D01*
X81312000Y-71663714D01*
X81383428Y-71949428D01*
X81454857Y-72092285D01*
X81597714Y-72235142D01*
X81812000Y-72306571D01*
X81954857Y-72306571D01*
X82169142Y-72235142D01*
X82240571Y-72163714D01*
X82240571Y-71663714D01*
X81954857Y-71663714D01*
X82883428Y-72306571D02*
X82883428Y-70806571D01*
X83740571Y-72306571D01*
X83740571Y-70806571D01*
X84454857Y-72306571D02*
X84454857Y-70806571D01*
X84812000Y-70806571D01*
X85026285Y-70878000D01*
X85169142Y-71020857D01*
X85240571Y-71163714D01*
X85312000Y-71449428D01*
X85312000Y-71663714D01*
X85240571Y-71949428D01*
X85169142Y-72092285D01*
X85026285Y-72235142D01*
X84812000Y-72306571D01*
X84454857Y-72306571D01*
D11*
X108712000Y-92456000D02*
X108712000Y-96520000D01*
X114300000Y-92456000D02*
X114300000Y-96520000D01*
X119888000Y-92456000D02*
X119888000Y-96520000D01*
D10*
X139053428Y-77894571D02*
X139053428Y-76394571D01*
X139624857Y-76394571D01*
X139767714Y-76466000D01*
X139839142Y-76537428D01*
X139910571Y-76680285D01*
X139910571Y-76894571D01*
X139839142Y-77037428D01*
X139767714Y-77108857D01*
X139624857Y-77180285D01*
X139053428Y-77180285D01*
X141410571Y-77894571D02*
X140910571Y-77180285D01*
X140553428Y-77894571D02*
X140553428Y-76394571D01*
X141124857Y-76394571D01*
X141267714Y-76466000D01*
X141339142Y-76537428D01*
X141410571Y-76680285D01*
X141410571Y-76894571D01*
X141339142Y-77037428D01*
X141267714Y-77108857D01*
X141124857Y-77180285D01*
X140553428Y-77180285D01*
X142339142Y-76394571D02*
X142624857Y-76394571D01*
X142767714Y-76466000D01*
X142910571Y-76608857D01*
X142982000Y-76894571D01*
X142982000Y-77394571D01*
X142910571Y-77680285D01*
X142767714Y-77823142D01*
X142624857Y-77894571D01*
X142339142Y-77894571D01*
X142196285Y-77823142D01*
X142053428Y-77680285D01*
X141982000Y-77394571D01*
X141982000Y-76894571D01*
X142053428Y-76608857D01*
X142196285Y-76466000D01*
X142339142Y-76394571D01*
X144410571Y-76466000D02*
X144267714Y-76394571D01*
X144053428Y-76394571D01*
X143839142Y-76466000D01*
X143696285Y-76608857D01*
X143624857Y-76751714D01*
X143553428Y-77037428D01*
X143553428Y-77251714D01*
X143624857Y-77537428D01*
X143696285Y-77680285D01*
X143839142Y-77823142D01*
X144053428Y-77894571D01*
X144196285Y-77894571D01*
X144410571Y-77823142D01*
X144482000Y-77751714D01*
X144482000Y-77251714D01*
X144196285Y-77251714D01*
X140061428Y-67734571D02*
X139561428Y-67020285D01*
X139204285Y-67734571D02*
X139204285Y-66234571D01*
X139775714Y-66234571D01*
X139918571Y-66306000D01*
X139990000Y-66377428D01*
X140061428Y-66520285D01*
X140061428Y-66734571D01*
X139990000Y-66877428D01*
X139918571Y-66948857D01*
X139775714Y-67020285D01*
X139204285Y-67020285D01*
X140704285Y-66948857D02*
X141204285Y-66948857D01*
X141418571Y-67734571D02*
X140704285Y-67734571D01*
X140704285Y-66234571D01*
X141418571Y-66234571D01*
X141990000Y-67663142D02*
X142204285Y-67734571D01*
X142561428Y-67734571D01*
X142704285Y-67663142D01*
X142775714Y-67591714D01*
X142847142Y-67448857D01*
X142847142Y-67306000D01*
X142775714Y-67163142D01*
X142704285Y-67091714D01*
X142561428Y-67020285D01*
X142275714Y-66948857D01*
X142132857Y-66877428D01*
X142061428Y-66806000D01*
X141990000Y-66663142D01*
X141990000Y-66520285D01*
X142061428Y-66377428D01*
X142132857Y-66306000D01*
X142275714Y-66234571D01*
X142632857Y-66234571D01*
X142847142Y-66306000D01*
X143490000Y-66948857D02*
X143990000Y-66948857D01*
X144204285Y-67734571D02*
X143490000Y-67734571D01*
X143490000Y-66234571D01*
X144204285Y-66234571D01*
X144632857Y-66234571D02*
X145490000Y-66234571D01*
X145061428Y-67734571D02*
X145061428Y-66234571D01*
X98933142Y-88658000D02*
X98790285Y-88586571D01*
X98576000Y-88586571D01*
X98361714Y-88658000D01*
X98218857Y-88800857D01*
X98147428Y-88943714D01*
X98076000Y-89229428D01*
X98076000Y-89443714D01*
X98147428Y-89729428D01*
X98218857Y-89872285D01*
X98361714Y-90015142D01*
X98576000Y-90086571D01*
X98718857Y-90086571D01*
X98933142Y-90015142D01*
X99004571Y-89943714D01*
X99004571Y-89443714D01*
X98718857Y-89443714D01*
X99647428Y-90086571D02*
X99647428Y-88586571D01*
X100504571Y-90086571D01*
X100504571Y-88586571D01*
X101218857Y-90086571D02*
X101218857Y-88586571D01*
X101576000Y-88586571D01*
X101790285Y-88658000D01*
X101933142Y-88800857D01*
X102004571Y-88943714D01*
X102076000Y-89229428D01*
X102076000Y-89443714D01*
X102004571Y-89729428D01*
X101933142Y-89872285D01*
X101790285Y-90015142D01*
X101576000Y-90086571D01*
X101218857Y-90086571D01*
D12*
X128959428Y-105664000D02*
X128886857Y-105627714D01*
X128778000Y-105627714D01*
X128669142Y-105664000D01*
X128596571Y-105736571D01*
X128560285Y-105809142D01*
X128524000Y-105954285D01*
X128524000Y-106063142D01*
X128560285Y-106208285D01*
X128596571Y-106280857D01*
X128669142Y-106353428D01*
X128778000Y-106389714D01*
X128850571Y-106389714D01*
X128959428Y-106353428D01*
X128995714Y-106317142D01*
X128995714Y-106063142D01*
X128850571Y-106063142D01*
X129322285Y-106389714D02*
X129322285Y-105627714D01*
X129757714Y-106389714D01*
X129757714Y-105627714D01*
X130120571Y-106389714D02*
X130120571Y-105627714D01*
X130302000Y-105627714D01*
X130410857Y-105664000D01*
X130483428Y-105736571D01*
X130519714Y-105809142D01*
X130556000Y-105954285D01*
X130556000Y-106063142D01*
X130519714Y-106208285D01*
X130483428Y-106280857D01*
X130410857Y-106353428D01*
X130302000Y-106389714D01*
X130120571Y-106389714D01*
X118255142Y-106389714D02*
X118255142Y-105627714D01*
X118763142Y-105627714D02*
X118908285Y-105627714D01*
X118980857Y-105664000D01*
X119053428Y-105736571D01*
X119089714Y-105881714D01*
X119089714Y-106135714D01*
X119053428Y-106280857D01*
X118980857Y-106353428D01*
X118908285Y-106389714D01*
X118763142Y-106389714D01*
X118690571Y-106353428D01*
X118618000Y-106280857D01*
X118581714Y-106135714D01*
X118581714Y-105881714D01*
X118618000Y-105736571D01*
X118690571Y-105664000D01*
X118763142Y-105627714D01*
X119815428Y-106389714D02*
X119380000Y-106389714D01*
X119597714Y-106389714D02*
X119597714Y-105627714D01*
X119525142Y-105736571D01*
X119452571Y-105809142D01*
X119380000Y-105845428D01*
X120105714Y-105700285D02*
X120142000Y-105664000D01*
X120214571Y-105627714D01*
X120396000Y-105627714D01*
X120468571Y-105664000D01*
X120504857Y-105700285D01*
X120541142Y-105772857D01*
X120541142Y-105845428D01*
X120504857Y-105954285D01*
X120069428Y-106389714D01*
X120541142Y-106389714D01*
X113447285Y-105990571D02*
X113556142Y-106026857D01*
X113592428Y-106063142D01*
X113628714Y-106135714D01*
X113628714Y-106244571D01*
X113592428Y-106317142D01*
X113556142Y-106353428D01*
X113483571Y-106389714D01*
X113193285Y-106389714D01*
X113193285Y-105627714D01*
X113447285Y-105627714D01*
X113519857Y-105664000D01*
X113556142Y-105700285D01*
X113592428Y-105772857D01*
X113592428Y-105845428D01*
X113556142Y-105918000D01*
X113519857Y-105954285D01*
X113447285Y-105990571D01*
X113193285Y-105990571D01*
X113919000Y-106172000D02*
X114281857Y-106172000D01*
X113846428Y-106389714D02*
X114100428Y-105627714D01*
X114354428Y-106389714D01*
X114499571Y-105627714D02*
X114935000Y-105627714D01*
X114717285Y-106389714D02*
X114717285Y-105627714D01*
X115080142Y-105627714D02*
X115515571Y-105627714D01*
X115297857Y-106389714D02*
X115297857Y-105627714D01*
X111288285Y-110834714D02*
X110852857Y-110834714D01*
X111070571Y-110834714D02*
X111070571Y-110072714D01*
X110998000Y-110181571D01*
X110925428Y-110254142D01*
X110852857Y-110290428D01*
X111578571Y-110145285D02*
X111614857Y-110109000D01*
X111687428Y-110072714D01*
X111868857Y-110072714D01*
X111941428Y-110109000D01*
X111977714Y-110145285D01*
X112014000Y-110217857D01*
X112014000Y-110290428D01*
X111977714Y-110399285D01*
X111542285Y-110834714D01*
X112014000Y-110834714D01*
X112231714Y-110072714D02*
X112485714Y-110834714D01*
X112739714Y-110072714D01*
D10*
X93059285Y-80458571D02*
X92345000Y-80458571D01*
X92273571Y-81172857D01*
X92345000Y-81101428D01*
X92487857Y-81030000D01*
X92845000Y-81030000D01*
X92987857Y-81101428D01*
X93059285Y-81172857D01*
X93130714Y-81315714D01*
X93130714Y-81672857D01*
X93059285Y-81815714D01*
X92987857Y-81887142D01*
X92845000Y-81958571D01*
X92487857Y-81958571D01*
X92345000Y-81887142D01*
X92273571Y-81815714D01*
X93559285Y-80458571D02*
X94059285Y-81958571D01*
X94559285Y-80458571D01*
X141770000Y-98840571D02*
X142055714Y-98840571D01*
X142198571Y-98912000D01*
X142341428Y-99054857D01*
X142412857Y-99340571D01*
X142412857Y-99840571D01*
X142341428Y-100126285D01*
X142198571Y-100269142D01*
X142055714Y-100340571D01*
X141770000Y-100340571D01*
X141627142Y-100269142D01*
X141484285Y-100126285D01*
X141412857Y-99840571D01*
X141412857Y-99340571D01*
X141484285Y-99054857D01*
X141627142Y-98912000D01*
X141770000Y-98840571D01*
X142912857Y-98840571D02*
X143270000Y-100340571D01*
X143555714Y-99269142D01*
X143841428Y-100340571D01*
X144198571Y-98840571D01*
X104267142Y-107835000D02*
X104124285Y-107763571D01*
X103910000Y-107763571D01*
X103695714Y-107835000D01*
X103552857Y-107977857D01*
X103481428Y-108120714D01*
X103410000Y-108406428D01*
X103410000Y-108620714D01*
X103481428Y-108906428D01*
X103552857Y-109049285D01*
X103695714Y-109192142D01*
X103910000Y-109263571D01*
X104052857Y-109263571D01*
X104267142Y-109192142D01*
X104338571Y-109120714D01*
X104338571Y-108620714D01*
X104052857Y-108620714D01*
X104981428Y-109263571D02*
X104981428Y-107763571D01*
X105838571Y-109263571D01*
X105838571Y-107763571D01*
X106552857Y-109263571D02*
X106552857Y-107763571D01*
X106910000Y-107763571D01*
X107124285Y-107835000D01*
X107267142Y-107977857D01*
X107338571Y-108120714D01*
X107410000Y-108406428D01*
X107410000Y-108620714D01*
X107338571Y-108906428D01*
X107267142Y-109049285D01*
X107124285Y-109192142D01*
X106910000Y-109263571D01*
X106552857Y-109263571D01*
X103588571Y-106652142D02*
X103802857Y-106723571D01*
X104160000Y-106723571D01*
X104302857Y-106652142D01*
X104374285Y-106580714D01*
X104445714Y-106437857D01*
X104445714Y-106295000D01*
X104374285Y-106152142D01*
X104302857Y-106080714D01*
X104160000Y-106009285D01*
X103874285Y-105937857D01*
X103731428Y-105866428D01*
X103660000Y-105795000D01*
X103588571Y-105652142D01*
X103588571Y-105509285D01*
X103660000Y-105366428D01*
X103731428Y-105295000D01*
X103874285Y-105223571D01*
X104231428Y-105223571D01*
X104445714Y-105295000D01*
X105088571Y-106723571D02*
X105088571Y-105223571D01*
X105445714Y-105223571D01*
X105660000Y-105295000D01*
X105802857Y-105437857D01*
X105874285Y-105580714D01*
X105945714Y-105866428D01*
X105945714Y-106080714D01*
X105874285Y-106366428D01*
X105802857Y-106509285D01*
X105660000Y-106652142D01*
X105445714Y-106723571D01*
X105088571Y-106723571D01*
X106517142Y-106295000D02*
X107231428Y-106295000D01*
X106374285Y-106723571D02*
X106874285Y-105223571D01*
X107374285Y-106723571D01*
X103624285Y-104112142D02*
X103838571Y-104183571D01*
X104195714Y-104183571D01*
X104338571Y-104112142D01*
X104410000Y-104040714D01*
X104481428Y-103897857D01*
X104481428Y-103755000D01*
X104410000Y-103612142D01*
X104338571Y-103540714D01*
X104195714Y-103469285D01*
X103910000Y-103397857D01*
X103767142Y-103326428D01*
X103695714Y-103255000D01*
X103624285Y-103112142D01*
X103624285Y-102969285D01*
X103695714Y-102826428D01*
X103767142Y-102755000D01*
X103910000Y-102683571D01*
X104267142Y-102683571D01*
X104481428Y-102755000D01*
X105981428Y-104040714D02*
X105910000Y-104112142D01*
X105695714Y-104183571D01*
X105552857Y-104183571D01*
X105338571Y-104112142D01*
X105195714Y-103969285D01*
X105124285Y-103826428D01*
X105052857Y-103540714D01*
X105052857Y-103326428D01*
X105124285Y-103040714D01*
X105195714Y-102897857D01*
X105338571Y-102755000D01*
X105552857Y-102683571D01*
X105695714Y-102683571D01*
X105910000Y-102755000D01*
X105981428Y-102826428D01*
X107338571Y-104183571D02*
X106624285Y-104183571D01*
X106624285Y-102683571D01*
X90555000Y-72433571D02*
X90055000Y-71719285D01*
X89697857Y-72433571D02*
X89697857Y-70933571D01*
X90269285Y-70933571D01*
X90412142Y-71005000D01*
X90483571Y-71076428D01*
X90555000Y-71219285D01*
X90555000Y-71433571D01*
X90483571Y-71576428D01*
X90412142Y-71647857D01*
X90269285Y-71719285D01*
X89697857Y-71719285D01*
X91055000Y-70933571D02*
X92055000Y-72433571D01*
X92055000Y-70933571D02*
X91055000Y-72433571D01*
X86487142Y-70933571D02*
X87344285Y-70933571D01*
X86915714Y-72433571D02*
X86915714Y-70933571D01*
X87701428Y-70933571D02*
X88701428Y-72433571D01*
X88701428Y-70933571D02*
X87701428Y-72433571D01*
X111402857Y-96833571D02*
X111402857Y-97833571D01*
X111045714Y-96262142D02*
X110688571Y-97333571D01*
X111617142Y-97333571D01*
X111974285Y-96333571D02*
X112474285Y-97833571D01*
X112974285Y-96333571D01*
X115260714Y-96333571D02*
X116189285Y-96333571D01*
X115689285Y-96905000D01*
X115903571Y-96905000D01*
X116046428Y-96976428D01*
X116117857Y-97047857D01*
X116189285Y-97190714D01*
X116189285Y-97547857D01*
X116117857Y-97690714D01*
X116046428Y-97762142D01*
X115903571Y-97833571D01*
X115475000Y-97833571D01*
X115332142Y-97762142D01*
X115260714Y-97690714D01*
X116832142Y-97690714D02*
X116903571Y-97762142D01*
X116832142Y-97833571D01*
X116760714Y-97762142D01*
X116832142Y-97690714D01*
X116832142Y-97833571D01*
X117403571Y-96333571D02*
X118332142Y-96333571D01*
X117832142Y-96905000D01*
X118046428Y-96905000D01*
X118189285Y-96976428D01*
X118260714Y-97047857D01*
X118332142Y-97190714D01*
X118332142Y-97547857D01*
X118260714Y-97690714D01*
X118189285Y-97762142D01*
X118046428Y-97833571D01*
X117617857Y-97833571D01*
X117475000Y-97762142D01*
X117403571Y-97690714D01*
X118760714Y-96333571D02*
X119260714Y-97833571D01*
X119760714Y-96333571D01*
X105001428Y-97047857D02*
X105215714Y-97119285D01*
X105287142Y-97190714D01*
X105358571Y-97333571D01*
X105358571Y-97547857D01*
X105287142Y-97690714D01*
X105215714Y-97762142D01*
X105072857Y-97833571D01*
X104501428Y-97833571D01*
X104501428Y-96333571D01*
X105001428Y-96333571D01*
X105144285Y-96405000D01*
X105215714Y-96476428D01*
X105287142Y-96619285D01*
X105287142Y-96762142D01*
X105215714Y-96905000D01*
X105144285Y-96976428D01*
X105001428Y-97047857D01*
X104501428Y-97047857D01*
X105930000Y-97405000D02*
X106644285Y-97405000D01*
X105787142Y-97833571D02*
X106287142Y-96333571D01*
X106787142Y-97833571D01*
X107072857Y-96333571D02*
X107930000Y-96333571D01*
X107501428Y-97833571D02*
X107501428Y-96333571D01*
X108215714Y-96333571D02*
X109072857Y-96333571D01*
X108644285Y-97833571D02*
X108644285Y-96333571D01*
X139192142Y-123710000D02*
X139049285Y-123638571D01*
X138835000Y-123638571D01*
X138620714Y-123710000D01*
X138477857Y-123852857D01*
X138406428Y-123995714D01*
X138335000Y-124281428D01*
X138335000Y-124495714D01*
X138406428Y-124781428D01*
X138477857Y-124924285D01*
X138620714Y-125067142D01*
X138835000Y-125138571D01*
X138977857Y-125138571D01*
X139192142Y-125067142D01*
X139263571Y-124995714D01*
X139263571Y-124495714D01*
X138977857Y-124495714D01*
X139906428Y-125138571D02*
X139906428Y-123638571D01*
X140763571Y-125138571D01*
X140763571Y-123638571D01*
X141477857Y-125138571D02*
X141477857Y-123638571D01*
X141835000Y-123638571D01*
X142049285Y-123710000D01*
X142192142Y-123852857D01*
X142263571Y-123995714D01*
X142335000Y-124281428D01*
X142335000Y-124495714D01*
X142263571Y-124781428D01*
X142192142Y-124924285D01*
X142049285Y-125067142D01*
X141835000Y-125138571D01*
X141477857Y-125138571D01*
X129865714Y-125138571D02*
X129865714Y-123638571D01*
X130865714Y-123638571D02*
X131151428Y-123638571D01*
X131294285Y-123710000D01*
X131437142Y-123852857D01*
X131508571Y-124138571D01*
X131508571Y-124638571D01*
X131437142Y-124924285D01*
X131294285Y-125067142D01*
X131151428Y-125138571D01*
X130865714Y-125138571D01*
X130722857Y-125067142D01*
X130580000Y-124924285D01*
X130508571Y-124638571D01*
X130508571Y-124138571D01*
X130580000Y-123852857D01*
X130722857Y-123710000D01*
X130865714Y-123638571D01*
X132937142Y-125138571D02*
X132080000Y-125138571D01*
X132508571Y-125138571D02*
X132508571Y-123638571D01*
X132365714Y-123852857D01*
X132222857Y-123995714D01*
X132080000Y-124067142D01*
X134294285Y-123638571D02*
X133580000Y-123638571D01*
X133508571Y-124352857D01*
X133580000Y-124281428D01*
X133722857Y-124210000D01*
X134080000Y-124210000D01*
X134222857Y-124281428D01*
X134294285Y-124352857D01*
X134365714Y-124495714D01*
X134365714Y-124852857D01*
X134294285Y-124995714D01*
X134222857Y-125067142D01*
X134080000Y-125138571D01*
X133722857Y-125138571D01*
X133580000Y-125067142D01*
X133508571Y-124995714D01*
X121610714Y-125138571D02*
X121610714Y-123638571D01*
X122610714Y-123638571D02*
X122896428Y-123638571D01*
X123039285Y-123710000D01*
X123182142Y-123852857D01*
X123253571Y-124138571D01*
X123253571Y-124638571D01*
X123182142Y-124924285D01*
X123039285Y-125067142D01*
X122896428Y-125138571D01*
X122610714Y-125138571D01*
X122467857Y-125067142D01*
X122325000Y-124924285D01*
X122253571Y-124638571D01*
X122253571Y-124138571D01*
X122325000Y-123852857D01*
X122467857Y-123710000D01*
X122610714Y-123638571D01*
X124682142Y-125138571D02*
X123825000Y-125138571D01*
X124253571Y-125138571D02*
X124253571Y-123638571D01*
X124110714Y-123852857D01*
X123967857Y-123995714D01*
X123825000Y-124067142D01*
X125967857Y-124138571D02*
X125967857Y-125138571D01*
X125610714Y-123567142D02*
X125253571Y-124638571D01*
X126182142Y-124638571D01*
X113355714Y-125138571D02*
X113355714Y-123638571D01*
X114355714Y-123638571D02*
X114641428Y-123638571D01*
X114784285Y-123710000D01*
X114927142Y-123852857D01*
X114998571Y-124138571D01*
X114998571Y-124638571D01*
X114927142Y-124924285D01*
X114784285Y-125067142D01*
X114641428Y-125138571D01*
X114355714Y-125138571D01*
X114212857Y-125067142D01*
X114070000Y-124924285D01*
X113998571Y-124638571D01*
X113998571Y-124138571D01*
X114070000Y-123852857D01*
X114212857Y-123710000D01*
X114355714Y-123638571D01*
X116427142Y-125138571D02*
X115570000Y-125138571D01*
X115998571Y-125138571D02*
X115998571Y-123638571D01*
X115855714Y-123852857D01*
X115712857Y-123995714D01*
X115570000Y-124067142D01*
X116927142Y-123638571D02*
X117855714Y-123638571D01*
X117355714Y-124210000D01*
X117570000Y-124210000D01*
X117712857Y-124281428D01*
X117784285Y-124352857D01*
X117855714Y-124495714D01*
X117855714Y-124852857D01*
X117784285Y-124995714D01*
X117712857Y-125067142D01*
X117570000Y-125138571D01*
X117141428Y-125138571D01*
X116998571Y-125067142D01*
X116927142Y-124995714D01*
X105100714Y-125138571D02*
X105100714Y-123638571D01*
X106100714Y-123638571D02*
X106386428Y-123638571D01*
X106529285Y-123710000D01*
X106672142Y-123852857D01*
X106743571Y-124138571D01*
X106743571Y-124638571D01*
X106672142Y-124924285D01*
X106529285Y-125067142D01*
X106386428Y-125138571D01*
X106100714Y-125138571D01*
X105957857Y-125067142D01*
X105815000Y-124924285D01*
X105743571Y-124638571D01*
X105743571Y-124138571D01*
X105815000Y-123852857D01*
X105957857Y-123710000D01*
X106100714Y-123638571D01*
X108172142Y-125138571D02*
X107315000Y-125138571D01*
X107743571Y-125138571D02*
X107743571Y-123638571D01*
X107600714Y-123852857D01*
X107457857Y-123995714D01*
X107315000Y-124067142D01*
X108743571Y-123781428D02*
X108815000Y-123710000D01*
X108957857Y-123638571D01*
X109315000Y-123638571D01*
X109457857Y-123710000D01*
X109529285Y-123781428D01*
X109600714Y-123924285D01*
X109600714Y-124067142D01*
X109529285Y-124281428D01*
X108672142Y-125138571D01*
X109600714Y-125138571D01*
X98766428Y-125138571D02*
X97909285Y-125138571D01*
X98337857Y-125138571D02*
X98337857Y-123638571D01*
X98195000Y-123852857D01*
X98052142Y-123995714D01*
X97909285Y-124067142D01*
X99337857Y-123781428D02*
X99409285Y-123710000D01*
X99552142Y-123638571D01*
X99909285Y-123638571D01*
X100052142Y-123710000D01*
X100123571Y-123781428D01*
X100195000Y-123924285D01*
X100195000Y-124067142D01*
X100123571Y-124281428D01*
X99266428Y-125138571D01*
X100195000Y-125138571D01*
X100623571Y-123638571D02*
X101123571Y-125138571D01*
X101623571Y-123638571D01*
X83382142Y-127997857D02*
X83882142Y-127997857D01*
X84096428Y-128783571D02*
X83382142Y-128783571D01*
X83382142Y-127283571D01*
X84096428Y-127283571D01*
X84667857Y-128712142D02*
X84882142Y-128783571D01*
X85239285Y-128783571D01*
X85382142Y-128712142D01*
X85453571Y-128640714D01*
X85525000Y-128497857D01*
X85525000Y-128355000D01*
X85453571Y-128212142D01*
X85382142Y-128140714D01*
X85239285Y-128069285D01*
X84953571Y-127997857D01*
X84810714Y-127926428D01*
X84739285Y-127855000D01*
X84667857Y-127712142D01*
X84667857Y-127569285D01*
X84739285Y-127426428D01*
X84810714Y-127355000D01*
X84953571Y-127283571D01*
X85310714Y-127283571D01*
X85525000Y-127355000D01*
X86167857Y-128783571D02*
X86167857Y-127283571D01*
X86739285Y-127283571D01*
X86882142Y-127355000D01*
X86953571Y-127426428D01*
X87025000Y-127569285D01*
X87025000Y-127783571D01*
X86953571Y-127926428D01*
X86882142Y-127997857D01*
X86739285Y-128069285D01*
X86167857Y-128069285D01*
X87667857Y-128212142D02*
X88810714Y-128212142D01*
X89382142Y-127283571D02*
X90310714Y-127283571D01*
X89810714Y-127855000D01*
X90025000Y-127855000D01*
X90167857Y-127926428D01*
X90239285Y-127997857D01*
X90310714Y-128140714D01*
X90310714Y-128497857D01*
X90239285Y-128640714D01*
X90167857Y-128712142D01*
X90025000Y-128783571D01*
X89596428Y-128783571D01*
X89453571Y-128712142D01*
X89382142Y-128640714D01*
X90882142Y-127426428D02*
X90953571Y-127355000D01*
X91096428Y-127283571D01*
X91453571Y-127283571D01*
X91596428Y-127355000D01*
X91667857Y-127426428D01*
X91739285Y-127569285D01*
X91739285Y-127712142D01*
X91667857Y-127926428D01*
X90810714Y-128783571D01*
X91739285Y-128783571D01*
X79275000Y-131333571D02*
X79275000Y-129833571D01*
X79846428Y-129833571D01*
X79989285Y-129905000D01*
X80060714Y-129976428D01*
X80132142Y-130119285D01*
X80132142Y-130333571D01*
X80060714Y-130476428D01*
X79989285Y-130547857D01*
X79846428Y-130619285D01*
X79275000Y-130619285D01*
X80989285Y-131333571D02*
X80846428Y-131262142D01*
X80775000Y-131119285D01*
X80775000Y-129833571D01*
X82203571Y-131333571D02*
X82203571Y-130547857D01*
X82132142Y-130405000D01*
X81989285Y-130333571D01*
X81703571Y-130333571D01*
X81560714Y-130405000D01*
X82203571Y-131262142D02*
X82060714Y-131333571D01*
X81703571Y-131333571D01*
X81560714Y-131262142D01*
X81489285Y-131119285D01*
X81489285Y-130976428D01*
X81560714Y-130833571D01*
X81703571Y-130762142D01*
X82060714Y-130762142D01*
X82203571Y-130690714D01*
X82775000Y-130333571D02*
X83132142Y-131333571D01*
X83489285Y-130333571D02*
X83132142Y-131333571D01*
X82989285Y-131690714D01*
X82917857Y-131762142D01*
X82775000Y-131833571D01*
X84703571Y-130333571D02*
X84703571Y-131547857D01*
X84632142Y-131690714D01*
X84560714Y-131762142D01*
X84417857Y-131833571D01*
X84203571Y-131833571D01*
X84060714Y-131762142D01*
X84703571Y-131262142D02*
X84560714Y-131333571D01*
X84275000Y-131333571D01*
X84132142Y-131262142D01*
X84060714Y-131190714D01*
X83989285Y-131047857D01*
X83989285Y-130619285D01*
X84060714Y-130476428D01*
X84132142Y-130405000D01*
X84275000Y-130333571D01*
X84560714Y-130333571D01*
X84703571Y-130405000D01*
X85417857Y-131333571D02*
X85417857Y-130333571D01*
X85417857Y-130619285D02*
X85489285Y-130476428D01*
X85560714Y-130405000D01*
X85703571Y-130333571D01*
X85846428Y-130333571D01*
X86560714Y-131333571D02*
X86417857Y-131262142D01*
X86346428Y-131190714D01*
X86275000Y-131047857D01*
X86275000Y-130619285D01*
X86346428Y-130476428D01*
X86417857Y-130405000D01*
X86560714Y-130333571D01*
X86775000Y-130333571D01*
X86917857Y-130405000D01*
X86989285Y-130476428D01*
X87060714Y-130619285D01*
X87060714Y-131047857D01*
X86989285Y-131190714D01*
X86917857Y-131262142D01*
X86775000Y-131333571D01*
X86560714Y-131333571D01*
X88346428Y-130333571D02*
X88346428Y-131333571D01*
X87703571Y-130333571D02*
X87703571Y-131119285D01*
X87775000Y-131262142D01*
X87917857Y-131333571D01*
X88132142Y-131333571D01*
X88275000Y-131262142D01*
X88346428Y-131190714D01*
X89060714Y-130333571D02*
X89060714Y-131333571D01*
X89060714Y-130476428D02*
X89132142Y-130405000D01*
X89275000Y-130333571D01*
X89489285Y-130333571D01*
X89632142Y-130405000D01*
X89703571Y-130547857D01*
X89703571Y-131333571D01*
X91060714Y-131333571D02*
X91060714Y-129833571D01*
X91060714Y-131262142D02*
X90917857Y-131333571D01*
X90632142Y-131333571D01*
X90489285Y-131262142D01*
X90417857Y-131190714D01*
X90346428Y-131047857D01*
X90346428Y-130619285D01*
X90417857Y-130476428D01*
X90489285Y-130405000D01*
X90632142Y-130333571D01*
X90917857Y-130333571D01*
X91060714Y-130405000D01*
X93703571Y-131333571D02*
X92846428Y-131333571D01*
X93275000Y-131333571D02*
X93275000Y-129833571D01*
X93132142Y-130047857D01*
X92989285Y-130190714D01*
X92846428Y-130262142D01*
X94346428Y-131190714D02*
X94417857Y-131262142D01*
X94346428Y-131333571D01*
X94275000Y-131262142D01*
X94346428Y-131190714D01*
X94346428Y-131333571D01*
X95346428Y-129833571D02*
X95489285Y-129833571D01*
X95632142Y-129905000D01*
X95703571Y-129976428D01*
X95775000Y-130119285D01*
X95846428Y-130405000D01*
X95846428Y-130762142D01*
X95775000Y-131047857D01*
X95703571Y-131190714D01*
X95632142Y-131262142D01*
X95489285Y-131333571D01*
X95346428Y-131333571D01*
X95203571Y-131262142D01*
X95132142Y-131190714D01*
X95060714Y-131047857D01*
X94989285Y-130762142D01*
X94989285Y-130405000D01*
X95060714Y-130119285D01*
X95132142Y-129976428D01*
X95203571Y-129905000D01*
X95346428Y-129833571D01*
D13*
X143170000Y-101426000D02*
X143670000Y-101926000D01*
X142370000Y-101426000D02*
X143170000Y-101426000D01*
X141870000Y-101926000D02*
X142370000Y-101426000D01*
X141870000Y-105526000D02*
X141870000Y-101926000D01*
X142370000Y-106026000D02*
X141870000Y-105526000D01*
X143170000Y-106026000D02*
X142370000Y-106026000D01*
X143670000Y-105526000D02*
X143170000Y-106026000D01*
X143670000Y-101926000D02*
X143670000Y-105526000D01*
D14*
X143480000Y-109584252D02*
X143480000Y-109061748D01*
X142060000Y-109584252D02*
X142060000Y-109061748D01*
X141238748Y-85640000D02*
X141761252Y-85640000D01*
X141238748Y-84220000D02*
X141761252Y-84220000D01*
X118768748Y-98721000D02*
X119291252Y-98721000D01*
X118768748Y-97301000D02*
X119291252Y-97301000D01*
X143360000Y-81430000D02*
X140500000Y-81430000D01*
X143360000Y-83350000D02*
X143360000Y-81430000D01*
X140500000Y-83350000D02*
X143360000Y-83350000D01*
X120745000Y-100226000D02*
X117885000Y-100226000D01*
X120745000Y-102146000D02*
X120745000Y-100226000D01*
X117885000Y-102146000D02*
X120745000Y-102146000D01*
X114060748Y-65320000D02*
X114583252Y-65320000D01*
X114060748Y-63900000D02*
X114583252Y-63900000D01*
X148096748Y-83100000D02*
X148619252Y-83100000D01*
X148096748Y-81680000D02*
X148619252Y-81680000D01*
X155776000Y-70444748D02*
X155776000Y-70967252D01*
X157196000Y-70444748D02*
X157196000Y-70967252D01*
X152350000Y-63520000D02*
X145890000Y-63520000D01*
X152350000Y-68050000D02*
X152350000Y-65450000D01*
X152350000Y-69980000D02*
X145890000Y-69980000D01*
X145890000Y-68050000D02*
X145890000Y-65450000D01*
X152350000Y-69950000D02*
X152350000Y-69980000D01*
X152350000Y-63520000D02*
X152350000Y-63550000D01*
X145890000Y-63520000D02*
X145890000Y-63550000D01*
X145890000Y-69980000D02*
X145890000Y-69950000D01*
X145890000Y-80032000D02*
X145890000Y-80002000D01*
X145890000Y-73572000D02*
X145890000Y-73602000D01*
X152350000Y-73572000D02*
X152350000Y-73602000D01*
X152350000Y-80002000D02*
X152350000Y-80032000D01*
X145890000Y-78102000D02*
X145890000Y-75502000D01*
X152350000Y-80032000D02*
X145890000Y-80032000D01*
X152350000Y-78102000D02*
X152350000Y-75502000D01*
X152350000Y-73572000D02*
X145890000Y-73572000D01*
X149463749Y-125010000D02*
X149986253Y-125010000D01*
X149463749Y-123590000D02*
X149986253Y-123590000D01*
X158720000Y-81381252D02*
X158720000Y-80858748D01*
X157300000Y-81381252D02*
X157300000Y-80858748D01*
X91776000Y-68360000D02*
X91776000Y-69690000D01*
X90446000Y-68360000D02*
X91776000Y-68360000D01*
X89176000Y-68360000D02*
X89176000Y-71020000D01*
X89176000Y-71020000D02*
X84036000Y-71020000D01*
X89176000Y-68360000D02*
X84036000Y-68360000D01*
X84036000Y-68360000D02*
X84036000Y-71020000D01*
X100270000Y-101970000D02*
X101600000Y-101970000D01*
X100270000Y-103300000D02*
X100270000Y-101970000D01*
X100270000Y-104570000D02*
X102930000Y-104570000D01*
X102930000Y-104570000D02*
X102930000Y-109710000D01*
X100270000Y-104570000D02*
X100270000Y-109710000D01*
X100270000Y-109710000D02*
X102930000Y-109710000D01*
D13*
X109736000Y-94309000D02*
X110236000Y-93809000D01*
X109736000Y-95109000D02*
X109736000Y-94309000D01*
X110236000Y-95609000D02*
X109736000Y-95109000D01*
X113836000Y-95609000D02*
X110236000Y-95609000D01*
X114336000Y-95109000D02*
X113836000Y-95609000D01*
X114336000Y-94309000D02*
X114336000Y-95109000D01*
X113836000Y-93809000D02*
X114336000Y-94309000D01*
X110236000Y-93809000D02*
X113836000Y-93809000D01*
X115197000Y-94309000D02*
X115697000Y-93809000D01*
X115197000Y-95109000D02*
X115197000Y-94309000D01*
X115697000Y-95609000D02*
X115197000Y-95109000D01*
X119297000Y-95609000D02*
X115697000Y-95609000D01*
X119797000Y-95109000D02*
X119297000Y-95609000D01*
X119797000Y-94309000D02*
X119797000Y-95109000D01*
X119297000Y-93809000D02*
X119797000Y-94309000D01*
X115697000Y-93809000D02*
X119297000Y-93809000D01*
D14*
X139528000Y-113692000D02*
X138198000Y-113692000D01*
X139528000Y-112362000D02*
X139528000Y-113692000D01*
X139528000Y-111092000D02*
X136868000Y-111092000D01*
X136868000Y-111092000D02*
X136868000Y-93252000D01*
X139528000Y-111092000D02*
X139528000Y-93252000D01*
X139528000Y-93252000D02*
X136868000Y-93252000D01*
D13*
X143170000Y-93044000D02*
X143670000Y-93544000D01*
X142370000Y-93044000D02*
X143170000Y-93044000D01*
X141870000Y-93544000D02*
X142370000Y-93044000D01*
X141870000Y-97144000D02*
X141870000Y-93544000D01*
X142370000Y-97644000D02*
X141870000Y-97144000D01*
X143170000Y-97644000D02*
X142370000Y-97644000D01*
X143670000Y-97144000D02*
X143170000Y-97644000D01*
X143670000Y-93544000D02*
X143670000Y-97144000D01*
X104148000Y-94309000D02*
X104648000Y-93809000D01*
X104148000Y-95109000D02*
X104148000Y-94309000D01*
X104648000Y-95609000D02*
X104148000Y-95109000D01*
X108248000Y-95609000D02*
X104648000Y-95609000D01*
X108748000Y-95109000D02*
X108248000Y-95609000D01*
X108748000Y-94309000D02*
X108748000Y-95109000D01*
X108248000Y-93809000D02*
X108748000Y-94309000D01*
X104648000Y-93809000D02*
X108248000Y-93809000D01*
D14*
X107955748Y-67479000D02*
X108478252Y-67479000D01*
X107955748Y-66059000D02*
X108478252Y-66059000D01*
X118875000Y-115005000D02*
X117615000Y-115005000D01*
X112055000Y-115005000D02*
X113315000Y-115005000D01*
X118875000Y-118765000D02*
X118875000Y-115005000D01*
X112055000Y-121015000D02*
X112055000Y-115005000D01*
X127130000Y-115005000D02*
X125870000Y-115005000D01*
X120310000Y-115005000D02*
X121570000Y-115005000D01*
X127130000Y-118765000D02*
X127130000Y-115005000D01*
X120310000Y-121015000D02*
X120310000Y-115005000D01*
X135385000Y-115005000D02*
X134125000Y-115005000D01*
X128565000Y-115005000D02*
X129825000Y-115005000D01*
X135385000Y-118765000D02*
X135385000Y-115005000D01*
X128565000Y-121015000D02*
X128565000Y-115005000D01*
X110620000Y-115005000D02*
X109360000Y-115005000D01*
X103800000Y-115005000D02*
X105060000Y-115005000D01*
X110620000Y-118765000D02*
X110620000Y-115005000D01*
X103800000Y-121015000D02*
X103800000Y-115005000D01*
X102908252Y-77235000D02*
X102385748Y-77235000D01*
X102908252Y-78655000D02*
X102385748Y-78655000D01*
X114456252Y-68980000D02*
X113933748Y-68980000D01*
X114456252Y-70400000D02*
X113933748Y-70400000D01*
X111027252Y-86887000D02*
X110504748Y-86887000D01*
X111027252Y-88307000D02*
X110504748Y-88307000D01*
X115032000Y-83286252D02*
X115032000Y-82763748D01*
X113612000Y-83286252D02*
X113612000Y-82763748D01*
X110476000Y-70817000D02*
X106576000Y-70817000D01*
X110476000Y-68817000D02*
X106576000Y-68817000D01*
X110476000Y-70817000D02*
X110476000Y-68817000D01*
X105470000Y-82627000D02*
X105470000Y-82027000D01*
X103870000Y-82627000D02*
X105470000Y-82627000D01*
X103870000Y-82027000D02*
X103870000Y-82627000D01*
X102930000Y-82627000D02*
X102930000Y-82027000D01*
X101330000Y-82627000D02*
X102930000Y-82627000D01*
X101330000Y-82027000D02*
X101330000Y-82627000D01*
X104420000Y-88047000D02*
X104420000Y-87047000D01*
X102380000Y-88047000D02*
X102380000Y-87047000D01*
X104420000Y-86517000D02*
X104670000Y-87047000D01*
X102380000Y-86517000D02*
X104420000Y-86517000D01*
X102130000Y-87047000D02*
X102380000Y-86517000D01*
X104670000Y-87047000D02*
X104670000Y-88047000D01*
X102130000Y-87047000D02*
X104670000Y-87047000D01*
X102130000Y-88047000D02*
X102130000Y-87047000D01*
X100460000Y-83057000D02*
X100460000Y-87057000D01*
X106050000Y-82027000D02*
X100750000Y-82027000D01*
X106050000Y-88047000D02*
X106050000Y-82027000D01*
X100750000Y-88047000D02*
X106050000Y-88047000D01*
X100750000Y-82027000D02*
X100750000Y-88047000D01*
X96803252Y-73679000D02*
X96280748Y-73679000D01*
X96803252Y-75099000D02*
X96280748Y-75099000D01*
X102376748Y-71035000D02*
X102899252Y-71035000D01*
X102376748Y-69615000D02*
X102899252Y-69615000D01*
X96803252Y-78759000D02*
X96280748Y-78759000D01*
X96803252Y-80179000D02*
X96280748Y-80179000D01*
X96280748Y-77639000D02*
X96803252Y-77639000D01*
X96280748Y-76219000D02*
X96803252Y-76219000D01*
X113933748Y-72940000D02*
X114456252Y-72940000D01*
X113933748Y-71520000D02*
X114456252Y-71520000D01*
X114456252Y-66440000D02*
X113933748Y-66440000D01*
X114456252Y-67860000D02*
X113933748Y-67860000D01*
X101028000Y-72981000D02*
X101028000Y-75431000D01*
X104248000Y-74781000D02*
X104248000Y-72981000D01*
X110006000Y-81553000D02*
X111466000Y-81553000D01*
X110006000Y-84713000D02*
X112166000Y-84713000D01*
X110006000Y-84713000D02*
X110006000Y-83783000D01*
X110006000Y-81553000D02*
X110006000Y-82483000D01*
X91800000Y-116975000D02*
X91800000Y-115925000D01*
X90750000Y-115925000D02*
X91800000Y-115925000D01*
X85700000Y-125325000D02*
X76900000Y-125325000D01*
X76900000Y-125325000D02*
X76900000Y-116125000D01*
X91600000Y-122625000D02*
X91600000Y-125325000D01*
X91600000Y-125325000D02*
X89700000Y-125325000D01*
X76900000Y-116125000D02*
X91600000Y-116125000D01*
X91600000Y-116125000D02*
X91600000Y-118725000D01*
X151390000Y-132440000D02*
X149890000Y-132440000D01*
X152890000Y-129220000D02*
X149890000Y-129220000D01*
X86195000Y-66175000D02*
X86195000Y-64845000D01*
X87525000Y-66175000D02*
X86195000Y-66175000D01*
X88795000Y-66175000D02*
X88795000Y-63515000D01*
X88795000Y-63515000D02*
X101555000Y-63515000D01*
X88795000Y-66175000D02*
X101555000Y-66175000D01*
X101555000Y-66175000D02*
X101555000Y-63515000D01*
X93740000Y-81900000D02*
X95270000Y-81900000D01*
X86720000Y-82370000D02*
X95740000Y-82370000D01*
D15*
X86790000Y-82370000D02*
X86720000Y-82370000D01*
D14*
X77740000Y-82370000D02*
X84520000Y-82370000D01*
X77740000Y-95570000D02*
X77740000Y-82370000D01*
D15*
X77750000Y-95570000D02*
X77740000Y-95570000D01*
D14*
X77740000Y-95570000D02*
X84520000Y-95570000D01*
D15*
X77860000Y-95570000D02*
X77740000Y-95570000D01*
D14*
X95740000Y-95570000D02*
X86720000Y-95570000D01*
X95740000Y-82370000D02*
X95740000Y-95570000D01*
X93740000Y-98410000D02*
X95270000Y-98410000D01*
X86720000Y-98880000D02*
X95740000Y-98880000D01*
D15*
X86790000Y-98880000D02*
X86720000Y-98880000D01*
D14*
X77740000Y-98880000D02*
X84520000Y-98880000D01*
X77740000Y-112080000D02*
X77740000Y-98880000D01*
D15*
X77750000Y-112080000D02*
X77740000Y-112080000D01*
D14*
X77740000Y-112080000D02*
X84520000Y-112080000D01*
D15*
X77860000Y-112080000D02*
X77740000Y-112080000D01*
D14*
X95740000Y-112080000D02*
X86720000Y-112080000D01*
X95740000Y-98880000D02*
X95740000Y-112080000D01*
D13*
X92750000Y-79895000D02*
X92250000Y-79395000D01*
X93550000Y-79895000D02*
X92750000Y-79895000D01*
X94050000Y-79395000D02*
X93550000Y-79895000D01*
X94050000Y-75795000D02*
X94050000Y-79395000D01*
X93550000Y-75295000D02*
X94050000Y-75795000D01*
X92750000Y-75295000D02*
X93550000Y-75295000D01*
X92250000Y-75795000D02*
X92750000Y-75295000D01*
X92250000Y-79395000D02*
X92250000Y-75795000D01*
D14*
X85695000Y-74396252D02*
X85695000Y-73873748D01*
X84275000Y-74396252D02*
X84275000Y-73873748D01*
X88533748Y-79290000D02*
X89056252Y-79290000D01*
X88533748Y-77870000D02*
X89056252Y-77870000D01*
X98919000Y-72595000D02*
X95019000Y-72595000D01*
X98919000Y-70595000D02*
X95019000Y-70595000D01*
X98919000Y-72595000D02*
X98919000Y-70595000D01*
X98919000Y-69420000D02*
X95019000Y-69420000D01*
X98919000Y-67420000D02*
X95019000Y-67420000D01*
X98919000Y-69420000D02*
X98919000Y-67420000D01*
D13*
X162965000Y-107620000D02*
X159365000Y-107620000D01*
X162965000Y-113820000D02*
X162965000Y-107620000D01*
X159365000Y-113820000D02*
X162965000Y-113820000D01*
X159365000Y-105120000D02*
X159365000Y-116920000D01*
X155815000Y-105120000D02*
X159365000Y-105120000D01*
X147565000Y-105120000D02*
X151315000Y-105120000D01*
X144865000Y-105120000D02*
X144965000Y-105120000D01*
X144865000Y-116920000D02*
X144865000Y-105120000D01*
X147265000Y-116920000D02*
X144865000Y-116920000D01*
X159365000Y-116920000D02*
X151615000Y-116920000D01*
D14*
X153565000Y-104620000D02*
X154065000Y-104070000D01*
X154065000Y-104070000D02*
X153065000Y-104070000D01*
X153065000Y-104070000D02*
X153565000Y-104620000D01*
D13*
X162965000Y-91745000D02*
X159365000Y-91745000D01*
X162965000Y-97945000D02*
X162965000Y-91745000D01*
X159365000Y-97945000D02*
X162965000Y-97945000D01*
X159365000Y-89245000D02*
X159365000Y-101045000D01*
X155815000Y-89245000D02*
X159365000Y-89245000D01*
X147565000Y-89245000D02*
X151315000Y-89245000D01*
X144865000Y-89245000D02*
X144965000Y-89245000D01*
X144865000Y-101045000D02*
X144865000Y-89245000D01*
X147265000Y-101045000D02*
X144865000Y-101045000D01*
X159365000Y-101045000D02*
X151615000Y-101045000D01*
D14*
X153565000Y-88745000D02*
X154065000Y-88195000D01*
X154065000Y-88195000D02*
X153065000Y-88195000D01*
X153065000Y-88195000D02*
X153565000Y-88745000D01*
X154461252Y-84855000D02*
X153938748Y-84855000D01*
X154461252Y-86275000D02*
X153938748Y-86275000D01*
X90290000Y-73645000D02*
X90290000Y-75105000D01*
X87130000Y-73645000D02*
X87130000Y-75805000D01*
X87130000Y-73645000D02*
X88060000Y-73645000D01*
X90290000Y-73645000D02*
X89360000Y-73645000D01*
D16*
X143810000Y-123895000D02*
X143810000Y-120895000D01*
X146810000Y-123895000D02*
X143810000Y-123895000D01*
X146810000Y-120895000D02*
X146810000Y-123895000D01*
X143810000Y-120895000D02*
X146810000Y-120895000D01*
X143710000Y-120695000D02*
G75*
G03X143710000Y-120695000I-100000J0D01*
G01*
D14*
X119680000Y-88950000D02*
X119680000Y-89570000D01*
X119680000Y-89570000D02*
X120680000Y-89570000D01*
X137920000Y-88950000D02*
X137920000Y-89570000D01*
X137920000Y-89570000D02*
X136920000Y-89570000D01*
X119680000Y-70130000D02*
X137920000Y-70130000D01*
X137920000Y-70130000D02*
X137920000Y-70550000D01*
X119680000Y-70130000D02*
X119680000Y-70550000D01*
X119680000Y-70550000D02*
X119300000Y-70550000D01*
D13*
X144222380Y-105017904D02*
X144222380Y-104446476D01*
X145222380Y-104732190D02*
X144222380Y-104732190D01*
X145222380Y-104113142D02*
X144222380Y-104113142D01*
X144222380Y-103732190D01*
X144270000Y-103636952D01*
X144317619Y-103589333D01*
X144412857Y-103541714D01*
X144555714Y-103541714D01*
X144650952Y-103589333D01*
X144698571Y-103636952D01*
X144746190Y-103732190D01*
X144746190Y-104113142D01*
X144222380Y-102684571D02*
X144222380Y-102875047D01*
X144270000Y-102970285D01*
X144317619Y-103017904D01*
X144460476Y-103113142D01*
X144650952Y-103160761D01*
X145031904Y-103160761D01*
X145127142Y-103113142D01*
X145174761Y-103065523D01*
X145222380Y-102970285D01*
X145222380Y-102779809D01*
X145174761Y-102684571D01*
X145127142Y-102636952D01*
X145031904Y-102589333D01*
X144793809Y-102589333D01*
X144698571Y-102636952D01*
X144650952Y-102684571D01*
X144603333Y-102779809D01*
X144603333Y-102970285D01*
X144650952Y-103065523D01*
X144698571Y-103113142D01*
X144793809Y-103160761D01*
X141572380Y-109489666D02*
X141096190Y-109823000D01*
X141572380Y-110061095D02*
X140572380Y-110061095D01*
X140572380Y-109680142D01*
X140620000Y-109584904D01*
X140667619Y-109537285D01*
X140762857Y-109489666D01*
X140905714Y-109489666D01*
X141000952Y-109537285D01*
X141048571Y-109584904D01*
X141096190Y-109680142D01*
X141096190Y-110061095D01*
X140572380Y-109156333D02*
X140572380Y-108537285D01*
X140953333Y-108870619D01*
X140953333Y-108727761D01*
X141000952Y-108632523D01*
X141048571Y-108584904D01*
X141143809Y-108537285D01*
X141381904Y-108537285D01*
X141477142Y-108584904D01*
X141524761Y-108632523D01*
X141572380Y-108727761D01*
X141572380Y-109013476D01*
X141524761Y-109108714D01*
X141477142Y-109156333D01*
X141333333Y-83732380D02*
X141000000Y-83256190D01*
X140761904Y-83732380D02*
X140761904Y-82732380D01*
X141142857Y-82732380D01*
X141238095Y-82780000D01*
X141285714Y-82827619D01*
X141333333Y-82922857D01*
X141333333Y-83065714D01*
X141285714Y-83160952D01*
X141238095Y-83208571D01*
X141142857Y-83256190D01*
X140761904Y-83256190D01*
X142238095Y-82732380D02*
X141761904Y-82732380D01*
X141714285Y-83208571D01*
X141761904Y-83160952D01*
X141857142Y-83113333D01*
X142095238Y-83113333D01*
X142190476Y-83160952D01*
X142238095Y-83208571D01*
X142285714Y-83303809D01*
X142285714Y-83541904D01*
X142238095Y-83637142D01*
X142190476Y-83684761D01*
X142095238Y-83732380D01*
X141857142Y-83732380D01*
X141761904Y-83684761D01*
X141714285Y-83637142D01*
X118863333Y-96813380D02*
X118530000Y-96337190D01*
X118291904Y-96813380D02*
X118291904Y-95813380D01*
X118672857Y-95813380D01*
X118768095Y-95861000D01*
X118815714Y-95908619D01*
X118863333Y-96003857D01*
X118863333Y-96146714D01*
X118815714Y-96241952D01*
X118768095Y-96289571D01*
X118672857Y-96337190D01*
X118291904Y-96337190D01*
X119244285Y-95908619D02*
X119291904Y-95861000D01*
X119387142Y-95813380D01*
X119625238Y-95813380D01*
X119720476Y-95861000D01*
X119768095Y-95908619D01*
X119815714Y-96003857D01*
X119815714Y-96099095D01*
X119768095Y-96241952D01*
X119196666Y-96813380D01*
X119815714Y-96813380D01*
X140761904Y-84492380D02*
X140761904Y-83492380D01*
X141000000Y-83492380D01*
X141142857Y-83540000D01*
X141238095Y-83635238D01*
X141285714Y-83730476D01*
X141333333Y-83920952D01*
X141333333Y-84063809D01*
X141285714Y-84254285D01*
X141238095Y-84349523D01*
X141142857Y-84444761D01*
X141000000Y-84492380D01*
X140761904Y-84492380D01*
X142190476Y-83825714D02*
X142190476Y-84492380D01*
X141952380Y-83444761D02*
X141714285Y-84159047D01*
X142333333Y-84159047D01*
X118146904Y-103288380D02*
X118146904Y-102288380D01*
X118385000Y-102288380D01*
X118527857Y-102336000D01*
X118623095Y-102431238D01*
X118670714Y-102526476D01*
X118718333Y-102716952D01*
X118718333Y-102859809D01*
X118670714Y-103050285D01*
X118623095Y-103145523D01*
X118527857Y-103240761D01*
X118385000Y-103288380D01*
X118146904Y-103288380D01*
X119099285Y-102383619D02*
X119146904Y-102336000D01*
X119242142Y-102288380D01*
X119480238Y-102288380D01*
X119575476Y-102336000D01*
X119623095Y-102383619D01*
X119670714Y-102478857D01*
X119670714Y-102574095D01*
X119623095Y-102716952D01*
X119051666Y-103288380D01*
X119670714Y-103288380D01*
X114155333Y-63412380D02*
X113822000Y-62936190D01*
X113583904Y-63412380D02*
X113583904Y-62412380D01*
X113964857Y-62412380D01*
X114060095Y-62460000D01*
X114107714Y-62507619D01*
X114155333Y-62602857D01*
X114155333Y-62745714D01*
X114107714Y-62840952D01*
X114060095Y-62888571D01*
X113964857Y-62936190D01*
X113583904Y-62936190D01*
X115012476Y-62745714D02*
X115012476Y-63412380D01*
X114774380Y-62364761D02*
X114536285Y-63079047D01*
X115155333Y-63079047D01*
X148191333Y-81097142D02*
X148143714Y-81144761D01*
X148000857Y-81192380D01*
X147905619Y-81192380D01*
X147762761Y-81144761D01*
X147667523Y-81049523D01*
X147619904Y-80954285D01*
X147572285Y-80763809D01*
X147572285Y-80620952D01*
X147619904Y-80430476D01*
X147667523Y-80335238D01*
X147762761Y-80240000D01*
X147905619Y-80192380D01*
X148000857Y-80192380D01*
X148143714Y-80240000D01*
X148191333Y-80287619D01*
X149143714Y-81192380D02*
X148572285Y-81192380D01*
X148858000Y-81192380D02*
X148858000Y-80192380D01*
X148762761Y-80335238D01*
X148667523Y-80430476D01*
X148572285Y-80478095D01*
X158493142Y-70872666D02*
X158540761Y-70920285D01*
X158588380Y-71063142D01*
X158588380Y-71158380D01*
X158540761Y-71301238D01*
X158445523Y-71396476D01*
X158350285Y-71444095D01*
X158159809Y-71491714D01*
X158016952Y-71491714D01*
X157826476Y-71444095D01*
X157731238Y-71396476D01*
X157636000Y-71301238D01*
X157588380Y-71158380D01*
X157588380Y-71063142D01*
X157636000Y-70920285D01*
X157683619Y-70872666D01*
X157683619Y-70491714D02*
X157636000Y-70444095D01*
X157588380Y-70348857D01*
X157588380Y-70110761D01*
X157636000Y-70015523D01*
X157683619Y-69967904D01*
X157778857Y-69920285D01*
X157874095Y-69920285D01*
X158016952Y-69967904D01*
X158588380Y-70539333D01*
X158588380Y-69920285D01*
X147786666Y-71204761D02*
X147929523Y-71252380D01*
X148167619Y-71252380D01*
X148262857Y-71204761D01*
X148310476Y-71157142D01*
X148358095Y-71061904D01*
X148358095Y-70966666D01*
X148310476Y-70871428D01*
X148262857Y-70823809D01*
X148167619Y-70776190D01*
X147977142Y-70728571D01*
X147881904Y-70680952D01*
X147834285Y-70633333D01*
X147786666Y-70538095D01*
X147786666Y-70442857D01*
X147834285Y-70347619D01*
X147881904Y-70300000D01*
X147977142Y-70252380D01*
X148215238Y-70252380D01*
X148358095Y-70300000D01*
X148691428Y-70252380D02*
X148929523Y-71252380D01*
X149120000Y-70538095D01*
X149310476Y-71252380D01*
X149548571Y-70252380D01*
X150453333Y-71252380D02*
X149881904Y-71252380D01*
X150167619Y-71252380D02*
X150167619Y-70252380D01*
X150072380Y-70395238D01*
X149977142Y-70490476D01*
X149881904Y-70538095D01*
X147786666Y-81256761D02*
X147929523Y-81304380D01*
X148167619Y-81304380D01*
X148262857Y-81256761D01*
X148310476Y-81209142D01*
X148358095Y-81113904D01*
X148358095Y-81018666D01*
X148310476Y-80923428D01*
X148262857Y-80875809D01*
X148167619Y-80828190D01*
X147977142Y-80780571D01*
X147881904Y-80732952D01*
X147834285Y-80685333D01*
X147786666Y-80590095D01*
X147786666Y-80494857D01*
X147834285Y-80399619D01*
X147881904Y-80352000D01*
X147977142Y-80304380D01*
X148215238Y-80304380D01*
X148358095Y-80352000D01*
X148691428Y-80304380D02*
X148929523Y-81304380D01*
X149120000Y-80590095D01*
X149310476Y-81304380D01*
X149548571Y-80304380D01*
X149881904Y-80399619D02*
X149929523Y-80352000D01*
X150024761Y-80304380D01*
X150262857Y-80304380D01*
X150358095Y-80352000D01*
X150405714Y-80399619D01*
X150453333Y-80494857D01*
X150453333Y-80590095D01*
X150405714Y-80732952D01*
X149834285Y-81304380D01*
X150453333Y-81304380D01*
X80841666Y-60497380D02*
X80841666Y-61211666D01*
X80794047Y-61354523D01*
X80698809Y-61449761D01*
X80555952Y-61497380D01*
X80460714Y-61497380D01*
X81746428Y-60497380D02*
X81555952Y-60497380D01*
X81460714Y-60545000D01*
X81413095Y-60592619D01*
X81317857Y-60735476D01*
X81270238Y-60925952D01*
X81270238Y-61306904D01*
X81317857Y-61402142D01*
X81365476Y-61449761D01*
X81460714Y-61497380D01*
X81651190Y-61497380D01*
X81746428Y-61449761D01*
X81794047Y-61402142D01*
X81841666Y-61306904D01*
X81841666Y-61068809D01*
X81794047Y-60973571D01*
X81746428Y-60925952D01*
X81651190Y-60878333D01*
X81460714Y-60878333D01*
X81365476Y-60925952D01*
X81317857Y-60973571D01*
X81270238Y-61068809D01*
X80841666Y-137722380D02*
X80841666Y-138436666D01*
X80794047Y-138579523D01*
X80698809Y-138674761D01*
X80555952Y-138722380D01*
X80460714Y-138722380D01*
X81460714Y-138150952D02*
X81365476Y-138103333D01*
X81317857Y-138055714D01*
X81270238Y-137960476D01*
X81270238Y-137912857D01*
X81317857Y-137817619D01*
X81365476Y-137770000D01*
X81460714Y-137722380D01*
X81651190Y-137722380D01*
X81746428Y-137770000D01*
X81794047Y-137817619D01*
X81841666Y-137912857D01*
X81841666Y-137960476D01*
X81794047Y-138055714D01*
X81746428Y-138103333D01*
X81651190Y-138150952D01*
X81460714Y-138150952D01*
X81365476Y-138198571D01*
X81317857Y-138246190D01*
X81270238Y-138341428D01*
X81270238Y-138531904D01*
X81317857Y-138627142D01*
X81365476Y-138674761D01*
X81460714Y-138722380D01*
X81651190Y-138722380D01*
X81746428Y-138674761D01*
X81794047Y-138627142D01*
X81841666Y-138531904D01*
X81841666Y-138341428D01*
X81794047Y-138246190D01*
X81746428Y-138198571D01*
X81651190Y-138150952D01*
X159581666Y-137722380D02*
X159581666Y-138436666D01*
X159534047Y-138579523D01*
X159438809Y-138674761D01*
X159295952Y-138722380D01*
X159200714Y-138722380D01*
X159962619Y-137722380D02*
X160629285Y-137722380D01*
X160200714Y-138722380D01*
X159581666Y-60497380D02*
X159581666Y-61211666D01*
X159534047Y-61354523D01*
X159438809Y-61449761D01*
X159295952Y-61497380D01*
X159200714Y-61497380D01*
X160534047Y-60497380D02*
X160057857Y-60497380D01*
X160010238Y-60973571D01*
X160057857Y-60925952D01*
X160153095Y-60878333D01*
X160391190Y-60878333D01*
X160486428Y-60925952D01*
X160534047Y-60973571D01*
X160581666Y-61068809D01*
X160581666Y-61306904D01*
X160534047Y-61402142D01*
X160486428Y-61449761D01*
X160391190Y-61497380D01*
X160153095Y-61497380D01*
X160057857Y-61449761D01*
X160010238Y-61402142D01*
X149558334Y-123007142D02*
X149510715Y-123054761D01*
X149367858Y-123102380D01*
X149272620Y-123102380D01*
X149129762Y-123054761D01*
X149034524Y-122959523D01*
X148986905Y-122864285D01*
X148939286Y-122673809D01*
X148939286Y-122530952D01*
X148986905Y-122340476D01*
X149034524Y-122245238D01*
X149129762Y-122150000D01*
X149272620Y-122102380D01*
X149367858Y-122102380D01*
X149510715Y-122150000D01*
X149558334Y-122197619D01*
X150415477Y-122435714D02*
X150415477Y-123102380D01*
X150177381Y-122054761D02*
X149939286Y-122769047D01*
X150558334Y-122769047D01*
X160272142Y-81286666D02*
X160319761Y-81334285D01*
X160367380Y-81477142D01*
X160367380Y-81572380D01*
X160319761Y-81715238D01*
X160224523Y-81810476D01*
X160129285Y-81858095D01*
X159938809Y-81905714D01*
X159795952Y-81905714D01*
X159605476Y-81858095D01*
X159510238Y-81810476D01*
X159415000Y-81715238D01*
X159367380Y-81572380D01*
X159367380Y-81477142D01*
X159415000Y-81334285D01*
X159462619Y-81286666D01*
X159367380Y-80953333D02*
X159367380Y-80334285D01*
X159748333Y-80667619D01*
X159748333Y-80524761D01*
X159795952Y-80429523D01*
X159843571Y-80381904D01*
X159938809Y-80334285D01*
X160176904Y-80334285D01*
X160272142Y-80381904D01*
X160319761Y-80429523D01*
X160367380Y-80524761D01*
X160367380Y-80810476D01*
X160319761Y-80905714D01*
X160272142Y-80953333D01*
X82637380Y-70951904D02*
X82637380Y-70380476D01*
X83637380Y-70666190D02*
X82637380Y-70666190D01*
X83637380Y-70047142D02*
X82637380Y-70047142D01*
X82637380Y-69666190D01*
X82685000Y-69570952D01*
X82732619Y-69523333D01*
X82827857Y-69475714D01*
X82970714Y-69475714D01*
X83065952Y-69523333D01*
X83113571Y-69570952D01*
X83161190Y-69666190D01*
X83161190Y-70047142D01*
X82637380Y-69142380D02*
X82637380Y-68475714D01*
X83637380Y-68904285D01*
X100338095Y-100422380D02*
X100909523Y-100422380D01*
X100623809Y-101422380D02*
X100623809Y-100422380D01*
X101242857Y-101422380D02*
X101242857Y-100422380D01*
X101623809Y-100422380D01*
X101719047Y-100470000D01*
X101766666Y-100517619D01*
X101814285Y-100612857D01*
X101814285Y-100755714D01*
X101766666Y-100850952D01*
X101719047Y-100898571D01*
X101623809Y-100946190D01*
X101242857Y-100946190D01*
X102385714Y-100850952D02*
X102290476Y-100803333D01*
X102242857Y-100755714D01*
X102195238Y-100660476D01*
X102195238Y-100612857D01*
X102242857Y-100517619D01*
X102290476Y-100470000D01*
X102385714Y-100422380D01*
X102576190Y-100422380D01*
X102671428Y-100470000D01*
X102719047Y-100517619D01*
X102766666Y-100612857D01*
X102766666Y-100660476D01*
X102719047Y-100755714D01*
X102671428Y-100803333D01*
X102576190Y-100850952D01*
X102385714Y-100850952D01*
X102290476Y-100898571D01*
X102242857Y-100946190D01*
X102195238Y-101041428D01*
X102195238Y-101231904D01*
X102242857Y-101327142D01*
X102290476Y-101374761D01*
X102385714Y-101422380D01*
X102576190Y-101422380D01*
X102671428Y-101374761D01*
X102719047Y-101327142D01*
X102766666Y-101231904D01*
X102766666Y-101041428D01*
X102719047Y-100946190D01*
X102671428Y-100898571D01*
X102576190Y-100850952D01*
X98856667Y-126487381D02*
X98856667Y-127201667D01*
X98809048Y-127344524D01*
X98713810Y-127439762D01*
X98570953Y-127487381D01*
X98475715Y-127487381D01*
X99285239Y-126582620D02*
X99332858Y-126535001D01*
X99428096Y-126487381D01*
X99666191Y-126487381D01*
X99761429Y-126535001D01*
X99809048Y-126582620D01*
X99856667Y-126677858D01*
X99856667Y-126773096D01*
X99809048Y-126915953D01*
X99237620Y-127487381D01*
X99856667Y-127487381D01*
X110804095Y-92161380D02*
X111375523Y-92161380D01*
X111089809Y-93161380D02*
X111089809Y-92161380D01*
X111708857Y-93161380D02*
X111708857Y-92161380D01*
X112089809Y-92161380D01*
X112185047Y-92209000D01*
X112232666Y-92256619D01*
X112280285Y-92351857D01*
X112280285Y-92494714D01*
X112232666Y-92589952D01*
X112185047Y-92637571D01*
X112089809Y-92685190D01*
X111708857Y-92685190D01*
X112613619Y-92161380D02*
X113232666Y-92161380D01*
X112899333Y-92542333D01*
X113042190Y-92542333D01*
X113137428Y-92589952D01*
X113185047Y-92637571D01*
X113232666Y-92732809D01*
X113232666Y-92970904D01*
X113185047Y-93066142D01*
X113137428Y-93113761D01*
X113042190Y-93161380D01*
X112756476Y-93161380D01*
X112661238Y-93113761D01*
X112613619Y-93066142D01*
X116265095Y-92161380D02*
X116836523Y-92161380D01*
X116550809Y-93161380D02*
X116550809Y-92161380D01*
X117169857Y-93161380D02*
X117169857Y-92161380D01*
X117550809Y-92161380D01*
X117646047Y-92209000D01*
X117693666Y-92256619D01*
X117741285Y-92351857D01*
X117741285Y-92494714D01*
X117693666Y-92589952D01*
X117646047Y-92637571D01*
X117550809Y-92685190D01*
X117169857Y-92685190D01*
X118598428Y-92494714D02*
X118598428Y-93161380D01*
X118360333Y-92113761D02*
X118122238Y-92828047D01*
X118741285Y-92828047D01*
X137916666Y-91262380D02*
X137916666Y-91976666D01*
X137869047Y-92119523D01*
X137773809Y-92214761D01*
X137630952Y-92262380D01*
X137535714Y-92262380D01*
X138440476Y-92262380D02*
X138630952Y-92262380D01*
X138726190Y-92214761D01*
X138773809Y-92167142D01*
X138869047Y-92024285D01*
X138916666Y-91833809D01*
X138916666Y-91452857D01*
X138869047Y-91357619D01*
X138821428Y-91310000D01*
X138726190Y-91262380D01*
X138535714Y-91262380D01*
X138440476Y-91310000D01*
X138392857Y-91357619D01*
X138345238Y-91452857D01*
X138345238Y-91690952D01*
X138392857Y-91786190D01*
X138440476Y-91833809D01*
X138535714Y-91881428D01*
X138726190Y-91881428D01*
X138821428Y-91833809D01*
X138869047Y-91786190D01*
X138916666Y-91690952D01*
X144222380Y-96635904D02*
X144222380Y-96064476D01*
X145222380Y-96350190D02*
X144222380Y-96350190D01*
X145222380Y-95731142D02*
X144222380Y-95731142D01*
X144222380Y-95350190D01*
X144270000Y-95254952D01*
X144317619Y-95207333D01*
X144412857Y-95159714D01*
X144555714Y-95159714D01*
X144650952Y-95207333D01*
X144698571Y-95254952D01*
X144746190Y-95350190D01*
X144746190Y-95731142D01*
X145222380Y-94207333D02*
X145222380Y-94778761D01*
X145222380Y-94493047D02*
X144222380Y-94493047D01*
X144365238Y-94588285D01*
X144460476Y-94683523D01*
X144508095Y-94778761D01*
X105216095Y-92161380D02*
X105787523Y-92161380D01*
X105501809Y-93161380D02*
X105501809Y-92161380D01*
X106120857Y-93161380D02*
X106120857Y-92161380D01*
X106501809Y-92161380D01*
X106597047Y-92209000D01*
X106644666Y-92256619D01*
X106692285Y-92351857D01*
X106692285Y-92494714D01*
X106644666Y-92589952D01*
X106597047Y-92637571D01*
X106501809Y-92685190D01*
X106120857Y-92685190D01*
X107597047Y-92161380D02*
X107120857Y-92161380D01*
X107073238Y-92637571D01*
X107120857Y-92589952D01*
X107216095Y-92542333D01*
X107454190Y-92542333D01*
X107549428Y-92589952D01*
X107597047Y-92637571D01*
X107644666Y-92732809D01*
X107644666Y-92970904D01*
X107597047Y-93066142D01*
X107549428Y-93113761D01*
X107454190Y-93161380D01*
X107216095Y-93161380D01*
X107120857Y-93113761D01*
X107073238Y-93066142D01*
X108050333Y-65476142D02*
X108002714Y-65523761D01*
X107859857Y-65571380D01*
X107764619Y-65571380D01*
X107621761Y-65523761D01*
X107526523Y-65428523D01*
X107478904Y-65333285D01*
X107431285Y-65142809D01*
X107431285Y-64999952D01*
X107478904Y-64809476D01*
X107526523Y-64714238D01*
X107621761Y-64619000D01*
X107764619Y-64571380D01*
X107859857Y-64571380D01*
X108002714Y-64619000D01*
X108050333Y-64666619D01*
X108955095Y-64571380D02*
X108478904Y-64571380D01*
X108431285Y-65047571D01*
X108478904Y-64999952D01*
X108574142Y-64952333D01*
X108812238Y-64952333D01*
X108907476Y-64999952D01*
X108955095Y-65047571D01*
X109002714Y-65142809D01*
X109002714Y-65380904D01*
X108955095Y-65476142D01*
X108907476Y-65523761D01*
X108812238Y-65571380D01*
X108574142Y-65571380D01*
X108478904Y-65523761D01*
X108431285Y-65476142D01*
X139420476Y-126527380D02*
X139420476Y-127241666D01*
X139372857Y-127384523D01*
X139277619Y-127479761D01*
X139134761Y-127527380D01*
X139039523Y-127527380D01*
X140420476Y-127527380D02*
X139849047Y-127527380D01*
X140134761Y-127527380D02*
X140134761Y-126527380D01*
X140039523Y-126670238D01*
X139944285Y-126765476D01*
X139849047Y-126813095D01*
X141277619Y-126860714D02*
X141277619Y-127527380D01*
X141039523Y-126479761D02*
X140801428Y-127194047D01*
X141420476Y-127194047D01*
X114655476Y-126527380D02*
X114655476Y-127241666D01*
X114607857Y-127384523D01*
X114512619Y-127479761D01*
X114369761Y-127527380D01*
X114274523Y-127527380D01*
X115655476Y-127527380D02*
X115084047Y-127527380D01*
X115369761Y-127527380D02*
X115369761Y-126527380D01*
X115274523Y-126670238D01*
X115179285Y-126765476D01*
X115084047Y-126813095D01*
X116607857Y-127527380D02*
X116036428Y-127527380D01*
X116322142Y-127527380D02*
X116322142Y-126527380D01*
X116226904Y-126670238D01*
X116131666Y-126765476D01*
X116036428Y-126813095D01*
X122910476Y-126527380D02*
X122910476Y-127241666D01*
X122862857Y-127384523D01*
X122767619Y-127479761D01*
X122624761Y-127527380D01*
X122529523Y-127527380D01*
X123910476Y-127527380D02*
X123339047Y-127527380D01*
X123624761Y-127527380D02*
X123624761Y-126527380D01*
X123529523Y-126670238D01*
X123434285Y-126765476D01*
X123339047Y-126813095D01*
X124291428Y-126622619D02*
X124339047Y-126575000D01*
X124434285Y-126527380D01*
X124672380Y-126527380D01*
X124767619Y-126575000D01*
X124815238Y-126622619D01*
X124862857Y-126717857D01*
X124862857Y-126813095D01*
X124815238Y-126955952D01*
X124243809Y-127527380D01*
X124862857Y-127527380D01*
X131165476Y-126527380D02*
X131165476Y-127241666D01*
X131117857Y-127384523D01*
X131022619Y-127479761D01*
X130879761Y-127527380D01*
X130784523Y-127527380D01*
X132165476Y-127527380D02*
X131594047Y-127527380D01*
X131879761Y-127527380D02*
X131879761Y-126527380D01*
X131784523Y-126670238D01*
X131689285Y-126765476D01*
X131594047Y-126813095D01*
X132498809Y-126527380D02*
X133117857Y-126527380D01*
X132784523Y-126908333D01*
X132927380Y-126908333D01*
X133022619Y-126955952D01*
X133070238Y-127003571D01*
X133117857Y-127098809D01*
X133117857Y-127336904D01*
X133070238Y-127432142D01*
X133022619Y-127479761D01*
X132927380Y-127527380D01*
X132641666Y-127527380D01*
X132546428Y-127479761D01*
X132498809Y-127432142D01*
X106400476Y-126527380D02*
X106400476Y-127241666D01*
X106352857Y-127384523D01*
X106257619Y-127479761D01*
X106114761Y-127527380D01*
X106019523Y-127527380D01*
X107400476Y-127527380D02*
X106829047Y-127527380D01*
X107114761Y-127527380D02*
X107114761Y-126527380D01*
X107019523Y-126670238D01*
X106924285Y-126765476D01*
X106829047Y-126813095D01*
X108019523Y-126527380D02*
X108114761Y-126527380D01*
X108210000Y-126575000D01*
X108257619Y-126622619D01*
X108305238Y-126717857D01*
X108352857Y-126908333D01*
X108352857Y-127146428D01*
X108305238Y-127336904D01*
X108257619Y-127432142D01*
X108210000Y-127479761D01*
X108114761Y-127527380D01*
X108019523Y-127527380D01*
X107924285Y-127479761D01*
X107876666Y-127432142D01*
X107829047Y-127336904D01*
X107781428Y-127146428D01*
X107781428Y-126908333D01*
X107829047Y-126717857D01*
X107876666Y-126622619D01*
X107924285Y-126575000D01*
X108019523Y-126527380D01*
X115369761Y-122942619D02*
X115274523Y-122895000D01*
X115179285Y-122799761D01*
X115036428Y-122656904D01*
X114941190Y-122609285D01*
X114845952Y-122609285D01*
X114893571Y-122847380D02*
X114798333Y-122799761D01*
X114703095Y-122704523D01*
X114655476Y-122514047D01*
X114655476Y-122180714D01*
X114703095Y-121990238D01*
X114798333Y-121895000D01*
X114893571Y-121847380D01*
X115084047Y-121847380D01*
X115179285Y-121895000D01*
X115274523Y-121990238D01*
X115322142Y-122180714D01*
X115322142Y-122514047D01*
X115274523Y-122704523D01*
X115179285Y-122799761D01*
X115084047Y-122847380D01*
X114893571Y-122847380D01*
X115703095Y-121942619D02*
X115750714Y-121895000D01*
X115845952Y-121847380D01*
X116084047Y-121847380D01*
X116179285Y-121895000D01*
X116226904Y-121942619D01*
X116274523Y-122037857D01*
X116274523Y-122133095D01*
X116226904Y-122275952D01*
X115655476Y-122847380D01*
X116274523Y-122847380D01*
X123624761Y-122942619D02*
X123529523Y-122895000D01*
X123434285Y-122799761D01*
X123291428Y-122656904D01*
X123196190Y-122609285D01*
X123100952Y-122609285D01*
X123148571Y-122847380D02*
X123053333Y-122799761D01*
X122958095Y-122704523D01*
X122910476Y-122514047D01*
X122910476Y-122180714D01*
X122958095Y-121990238D01*
X123053333Y-121895000D01*
X123148571Y-121847380D01*
X123339047Y-121847380D01*
X123434285Y-121895000D01*
X123529523Y-121990238D01*
X123577142Y-122180714D01*
X123577142Y-122514047D01*
X123529523Y-122704523D01*
X123434285Y-122799761D01*
X123339047Y-122847380D01*
X123148571Y-122847380D01*
X123910476Y-121847380D02*
X124529523Y-121847380D01*
X124196190Y-122228333D01*
X124339047Y-122228333D01*
X124434285Y-122275952D01*
X124481904Y-122323571D01*
X124529523Y-122418809D01*
X124529523Y-122656904D01*
X124481904Y-122752142D01*
X124434285Y-122799761D01*
X124339047Y-122847380D01*
X124053333Y-122847380D01*
X123958095Y-122799761D01*
X123910476Y-122752142D01*
X131879761Y-122942619D02*
X131784523Y-122895000D01*
X131689285Y-122799761D01*
X131546428Y-122656904D01*
X131451190Y-122609285D01*
X131355952Y-122609285D01*
X131403571Y-122847380D02*
X131308333Y-122799761D01*
X131213095Y-122704523D01*
X131165476Y-122514047D01*
X131165476Y-122180714D01*
X131213095Y-121990238D01*
X131308333Y-121895000D01*
X131403571Y-121847380D01*
X131594047Y-121847380D01*
X131689285Y-121895000D01*
X131784523Y-121990238D01*
X131832142Y-122180714D01*
X131832142Y-122514047D01*
X131784523Y-122704523D01*
X131689285Y-122799761D01*
X131594047Y-122847380D01*
X131403571Y-122847380D01*
X132689285Y-122180714D02*
X132689285Y-122847380D01*
X132451190Y-121799761D02*
X132213095Y-122514047D01*
X132832142Y-122514047D01*
X107114761Y-122942619D02*
X107019523Y-122895000D01*
X106924285Y-122799761D01*
X106781428Y-122656904D01*
X106686190Y-122609285D01*
X106590952Y-122609285D01*
X106638571Y-122847380D02*
X106543333Y-122799761D01*
X106448095Y-122704523D01*
X106400476Y-122514047D01*
X106400476Y-122180714D01*
X106448095Y-121990238D01*
X106543333Y-121895000D01*
X106638571Y-121847380D01*
X106829047Y-121847380D01*
X106924285Y-121895000D01*
X107019523Y-121990238D01*
X107067142Y-122180714D01*
X107067142Y-122514047D01*
X107019523Y-122704523D01*
X106924285Y-122799761D01*
X106829047Y-122847380D01*
X106638571Y-122847380D01*
X108019523Y-122847380D02*
X107448095Y-122847380D01*
X107733809Y-122847380D02*
X107733809Y-121847380D01*
X107638571Y-121990238D01*
X107543333Y-122085476D01*
X107448095Y-122133095D01*
X102480333Y-79952142D02*
X102432714Y-79999761D01*
X102289857Y-80047380D01*
X102194619Y-80047380D01*
X102051761Y-79999761D01*
X101956523Y-79904523D01*
X101908904Y-79809285D01*
X101861285Y-79618809D01*
X101861285Y-79475952D01*
X101908904Y-79285476D01*
X101956523Y-79190238D01*
X102051761Y-79095000D01*
X102194619Y-79047380D01*
X102289857Y-79047380D01*
X102432714Y-79095000D01*
X102480333Y-79142619D01*
X103337476Y-79047380D02*
X103147000Y-79047380D01*
X103051761Y-79095000D01*
X103004142Y-79142619D01*
X102908904Y-79285476D01*
X102861285Y-79475952D01*
X102861285Y-79856904D01*
X102908904Y-79952142D01*
X102956523Y-79999761D01*
X103051761Y-80047380D01*
X103242238Y-80047380D01*
X103337476Y-79999761D01*
X103385095Y-79952142D01*
X103432714Y-79856904D01*
X103432714Y-79618809D01*
X103385095Y-79523571D01*
X103337476Y-79475952D01*
X103242238Y-79428333D01*
X103051761Y-79428333D01*
X102956523Y-79475952D01*
X102908904Y-79523571D01*
X102861285Y-79618809D01*
X117203333Y-70222142D02*
X117155714Y-70269761D01*
X117012857Y-70317380D01*
X116917619Y-70317380D01*
X116774761Y-70269761D01*
X116679523Y-70174523D01*
X116631904Y-70079285D01*
X116584285Y-69888809D01*
X116584285Y-69745952D01*
X116631904Y-69555476D01*
X116679523Y-69460238D01*
X116774761Y-69365000D01*
X116917619Y-69317380D01*
X117012857Y-69317380D01*
X117155714Y-69365000D01*
X117203333Y-69412619D01*
X117536666Y-69317380D02*
X118203333Y-69317380D01*
X117774761Y-70317380D01*
X113393333Y-87827142D02*
X113345714Y-87874761D01*
X113202857Y-87922380D01*
X113107619Y-87922380D01*
X112964761Y-87874761D01*
X112869523Y-87779523D01*
X112821904Y-87684285D01*
X112774285Y-87493809D01*
X112774285Y-87350952D01*
X112821904Y-87160476D01*
X112869523Y-87065238D01*
X112964761Y-86970000D01*
X113107619Y-86922380D01*
X113202857Y-86922380D01*
X113345714Y-86970000D01*
X113393333Y-87017619D01*
X113964761Y-87350952D02*
X113869523Y-87303333D01*
X113821904Y-87255714D01*
X113774285Y-87160476D01*
X113774285Y-87112857D01*
X113821904Y-87017619D01*
X113869523Y-86970000D01*
X113964761Y-86922380D01*
X114155238Y-86922380D01*
X114250476Y-86970000D01*
X114298095Y-87017619D01*
X114345714Y-87112857D01*
X114345714Y-87160476D01*
X114298095Y-87255714D01*
X114250476Y-87303333D01*
X114155238Y-87350952D01*
X113964761Y-87350952D01*
X113869523Y-87398571D01*
X113821904Y-87446190D01*
X113774285Y-87541428D01*
X113774285Y-87731904D01*
X113821904Y-87827142D01*
X113869523Y-87874761D01*
X113964761Y-87922380D01*
X114155238Y-87922380D01*
X114250476Y-87874761D01*
X114298095Y-87827142D01*
X114345714Y-87731904D01*
X114345714Y-87541428D01*
X114298095Y-87446190D01*
X114250476Y-87398571D01*
X114155238Y-87350952D01*
X116457142Y-83191666D02*
X116504761Y-83239285D01*
X116552380Y-83382142D01*
X116552380Y-83477380D01*
X116504761Y-83620238D01*
X116409523Y-83715476D01*
X116314285Y-83763095D01*
X116123809Y-83810714D01*
X115980952Y-83810714D01*
X115790476Y-83763095D01*
X115695238Y-83715476D01*
X115600000Y-83620238D01*
X115552380Y-83477380D01*
X115552380Y-83382142D01*
X115600000Y-83239285D01*
X115647619Y-83191666D01*
X116552380Y-82715476D02*
X116552380Y-82525000D01*
X116504761Y-82429761D01*
X116457142Y-82382142D01*
X116314285Y-82286904D01*
X116123809Y-82239285D01*
X115742857Y-82239285D01*
X115647619Y-82286904D01*
X115600000Y-82334523D01*
X115552380Y-82429761D01*
X115552380Y-82620238D01*
X115600000Y-82715476D01*
X115647619Y-82763095D01*
X115742857Y-82810714D01*
X115980952Y-82810714D01*
X116076190Y-82763095D01*
X116123809Y-82715476D01*
X116171428Y-82620238D01*
X116171428Y-82429761D01*
X116123809Y-82334523D01*
X116076190Y-82286904D01*
X115980952Y-82239285D01*
X110916904Y-70142380D02*
X110916904Y-69142380D01*
X111155000Y-69142380D01*
X111297857Y-69190000D01*
X111393095Y-69285238D01*
X111440714Y-69380476D01*
X111488333Y-69570952D01*
X111488333Y-69713809D01*
X111440714Y-69904285D01*
X111393095Y-69999523D01*
X111297857Y-70094761D01*
X111155000Y-70142380D01*
X110916904Y-70142380D01*
X112393095Y-69142380D02*
X111916904Y-69142380D01*
X111869285Y-69618571D01*
X111916904Y-69570952D01*
X112012142Y-69523333D01*
X112250238Y-69523333D01*
X112345476Y-69570952D01*
X112393095Y-69618571D01*
X112440714Y-69713809D01*
X112440714Y-69951904D01*
X112393095Y-70047142D01*
X112345476Y-70094761D01*
X112250238Y-70142380D01*
X112012142Y-70142380D01*
X111916904Y-70094761D01*
X111869285Y-70047142D01*
X102590476Y-80389380D02*
X102590476Y-81103666D01*
X102542857Y-81246523D01*
X102447619Y-81341761D01*
X102304761Y-81389380D01*
X102209523Y-81389380D01*
X103590476Y-81389380D02*
X103019047Y-81389380D01*
X103304761Y-81389380D02*
X103304761Y-80389380D01*
X103209523Y-80532238D01*
X103114285Y-80627476D01*
X103019047Y-80675095D01*
X104161904Y-80817952D02*
X104066666Y-80770333D01*
X104019047Y-80722714D01*
X103971428Y-80627476D01*
X103971428Y-80579857D01*
X104019047Y-80484619D01*
X104066666Y-80437000D01*
X104161904Y-80389380D01*
X104352380Y-80389380D01*
X104447619Y-80437000D01*
X104495238Y-80484619D01*
X104542857Y-80579857D01*
X104542857Y-80627476D01*
X104495238Y-80722714D01*
X104447619Y-80770333D01*
X104352380Y-80817952D01*
X104161904Y-80817952D01*
X104066666Y-80865571D01*
X104019047Y-80913190D01*
X103971428Y-81008428D01*
X103971428Y-81198904D01*
X104019047Y-81294142D01*
X104066666Y-81341761D01*
X104161904Y-81389380D01*
X104352380Y-81389380D01*
X104447619Y-81341761D01*
X104495238Y-81294142D01*
X104542857Y-81198904D01*
X104542857Y-81008428D01*
X104495238Y-80913190D01*
X104447619Y-80865571D01*
X104352380Y-80817952D01*
X99423333Y-74587380D02*
X99090000Y-74111190D01*
X98851904Y-74587380D02*
X98851904Y-73587380D01*
X99232857Y-73587380D01*
X99328095Y-73635000D01*
X99375714Y-73682619D01*
X99423333Y-73777857D01*
X99423333Y-73920714D01*
X99375714Y-74015952D01*
X99328095Y-74063571D01*
X99232857Y-74111190D01*
X98851904Y-74111190D01*
X100280476Y-73587380D02*
X100090000Y-73587380D01*
X99994761Y-73635000D01*
X99947142Y-73682619D01*
X99851904Y-73825476D01*
X99804285Y-74015952D01*
X99804285Y-74396904D01*
X99851904Y-74492142D01*
X99899523Y-74539761D01*
X99994761Y-74587380D01*
X100185238Y-74587380D01*
X100280476Y-74539761D01*
X100328095Y-74492142D01*
X100375714Y-74396904D01*
X100375714Y-74158809D01*
X100328095Y-74063571D01*
X100280476Y-74015952D01*
X100185238Y-73968333D01*
X99994761Y-73968333D01*
X99899523Y-74015952D01*
X99851904Y-74063571D01*
X99804285Y-74158809D01*
X102471333Y-69127380D02*
X102138000Y-68651190D01*
X101899904Y-69127380D02*
X101899904Y-68127380D01*
X102280857Y-68127380D01*
X102376095Y-68175000D01*
X102423714Y-68222619D01*
X102471333Y-68317857D01*
X102471333Y-68460714D01*
X102423714Y-68555952D01*
X102376095Y-68603571D01*
X102280857Y-68651190D01*
X101899904Y-68651190D01*
X103042761Y-68555952D02*
X102947523Y-68508333D01*
X102899904Y-68460714D01*
X102852285Y-68365476D01*
X102852285Y-68317857D01*
X102899904Y-68222619D01*
X102947523Y-68175000D01*
X103042761Y-68127380D01*
X103233238Y-68127380D01*
X103328476Y-68175000D01*
X103376095Y-68222619D01*
X103423714Y-68317857D01*
X103423714Y-68365476D01*
X103376095Y-68460714D01*
X103328476Y-68508333D01*
X103233238Y-68555952D01*
X103042761Y-68555952D01*
X102947523Y-68603571D01*
X102899904Y-68651190D01*
X102852285Y-68746428D01*
X102852285Y-68936904D01*
X102899904Y-69032142D01*
X102947523Y-69079761D01*
X103042761Y-69127380D01*
X103233238Y-69127380D01*
X103328476Y-69079761D01*
X103376095Y-69032142D01*
X103423714Y-68936904D01*
X103423714Y-68746428D01*
X103376095Y-68651190D01*
X103328476Y-68603571D01*
X103233238Y-68555952D01*
X99423333Y-79667380D02*
X99090000Y-79191190D01*
X98851904Y-79667380D02*
X98851904Y-78667380D01*
X99232857Y-78667380D01*
X99328095Y-78715000D01*
X99375714Y-78762619D01*
X99423333Y-78857857D01*
X99423333Y-79000714D01*
X99375714Y-79095952D01*
X99328095Y-79143571D01*
X99232857Y-79191190D01*
X98851904Y-79191190D01*
X99899523Y-79667380D02*
X100090000Y-79667380D01*
X100185238Y-79619761D01*
X100232857Y-79572142D01*
X100328095Y-79429285D01*
X100375714Y-79238809D01*
X100375714Y-78857857D01*
X100328095Y-78762619D01*
X100280476Y-78715000D01*
X100185238Y-78667380D01*
X99994761Y-78667380D01*
X99899523Y-78715000D01*
X99851904Y-78762619D01*
X99804285Y-78857857D01*
X99804285Y-79095952D01*
X99851904Y-79191190D01*
X99899523Y-79238809D01*
X99994761Y-79286428D01*
X100185238Y-79286428D01*
X100280476Y-79238809D01*
X100328095Y-79191190D01*
X100375714Y-79095952D01*
X98947142Y-77127380D02*
X98613809Y-76651190D01*
X98375714Y-77127380D02*
X98375714Y-76127380D01*
X98756666Y-76127380D01*
X98851904Y-76175000D01*
X98899523Y-76222619D01*
X98947142Y-76317857D01*
X98947142Y-76460714D01*
X98899523Y-76555952D01*
X98851904Y-76603571D01*
X98756666Y-76651190D01*
X98375714Y-76651190D01*
X99899523Y-77127380D02*
X99328095Y-77127380D01*
X99613809Y-77127380D02*
X99613809Y-76127380D01*
X99518571Y-76270238D01*
X99423333Y-76365476D01*
X99328095Y-76413095D01*
X100851904Y-77127380D02*
X100280476Y-77127380D01*
X100566190Y-77127380D02*
X100566190Y-76127380D01*
X100470952Y-76270238D01*
X100375714Y-76365476D01*
X100280476Y-76413095D01*
X117203333Y-72682380D02*
X116870000Y-72206190D01*
X116631904Y-72682380D02*
X116631904Y-71682380D01*
X117012857Y-71682380D01*
X117108095Y-71730000D01*
X117155714Y-71777619D01*
X117203333Y-71872857D01*
X117203333Y-72015714D01*
X117155714Y-72110952D01*
X117108095Y-72158571D01*
X117012857Y-72206190D01*
X116631904Y-72206190D01*
X117536666Y-71682380D02*
X118203333Y-71682380D01*
X117774761Y-72682380D01*
X116727142Y-67602380D02*
X116393809Y-67126190D01*
X116155714Y-67602380D02*
X116155714Y-66602380D01*
X116536666Y-66602380D01*
X116631904Y-66650000D01*
X116679523Y-66697619D01*
X116727142Y-66792857D01*
X116727142Y-66935714D01*
X116679523Y-67030952D01*
X116631904Y-67078571D01*
X116536666Y-67126190D01*
X116155714Y-67126190D01*
X117679523Y-67602380D02*
X117108095Y-67602380D01*
X117393809Y-67602380D02*
X117393809Y-66602380D01*
X117298571Y-66745238D01*
X117203333Y-66840476D01*
X117108095Y-66888095D01*
X118298571Y-66602380D02*
X118393809Y-66602380D01*
X118489047Y-66650000D01*
X118536666Y-66697619D01*
X118584285Y-66792857D01*
X118631904Y-66983333D01*
X118631904Y-67221428D01*
X118584285Y-67411904D01*
X118536666Y-67507142D01*
X118489047Y-67554761D01*
X118393809Y-67602380D01*
X118298571Y-67602380D01*
X118203333Y-67554761D01*
X118155714Y-67507142D01*
X118108095Y-67411904D01*
X118060476Y-67221428D01*
X118060476Y-66983333D01*
X118108095Y-66792857D01*
X118155714Y-66697619D01*
X118203333Y-66650000D01*
X118298571Y-66602380D01*
X104757380Y-74642904D02*
X105566904Y-74642904D01*
X105662142Y-74595285D01*
X105709761Y-74547666D01*
X105757380Y-74452428D01*
X105757380Y-74261952D01*
X105709761Y-74166714D01*
X105662142Y-74119095D01*
X105566904Y-74071476D01*
X104757380Y-74071476D01*
X105090714Y-73166714D02*
X105757380Y-73166714D01*
X104709761Y-73404809D02*
X105424047Y-73642904D01*
X105424047Y-73023857D01*
X110004095Y-85085380D02*
X110004095Y-85894904D01*
X110051714Y-85990142D01*
X110099333Y-86037761D01*
X110194571Y-86085380D01*
X110385047Y-86085380D01*
X110480285Y-86037761D01*
X110527904Y-85990142D01*
X110575523Y-85894904D01*
X110575523Y-85085380D01*
X111527904Y-85085380D02*
X111051714Y-85085380D01*
X111004095Y-85561571D01*
X111051714Y-85513952D01*
X111146952Y-85466333D01*
X111385047Y-85466333D01*
X111480285Y-85513952D01*
X111527904Y-85561571D01*
X111575523Y-85656809D01*
X111575523Y-85894904D01*
X111527904Y-85990142D01*
X111480285Y-86037761D01*
X111385047Y-86085380D01*
X111146952Y-86085380D01*
X111051714Y-86037761D01*
X111004095Y-85990142D01*
X81916666Y-125927380D02*
X81916666Y-126641666D01*
X81869047Y-126784523D01*
X81773809Y-126879761D01*
X81630952Y-126927380D01*
X81535714Y-126927380D01*
X82916666Y-126927380D02*
X82345238Y-126927380D01*
X82630952Y-126927380D02*
X82630952Y-125927380D01*
X82535714Y-126070238D01*
X82440476Y-126165476D01*
X82345238Y-126213095D01*
X150628095Y-132732380D02*
X150628095Y-133541904D01*
X150675714Y-133637142D01*
X150723333Y-133684761D01*
X150818571Y-133732380D01*
X151009047Y-133732380D01*
X151104285Y-133684761D01*
X151151904Y-133637142D01*
X151199523Y-133541904D01*
X151199523Y-132732380D01*
X151580476Y-132732380D02*
X152199523Y-132732380D01*
X151866190Y-133113333D01*
X152009047Y-133113333D01*
X152104285Y-133160952D01*
X152151904Y-133208571D01*
X152199523Y-133303809D01*
X152199523Y-133541904D01*
X152151904Y-133637142D01*
X152104285Y-133684761D01*
X152009047Y-133732380D01*
X151723333Y-133732380D01*
X151628095Y-133684761D01*
X151580476Y-133637142D01*
X101955476Y-64297380D02*
X101955476Y-65011666D01*
X101907857Y-65154523D01*
X101812619Y-65249761D01*
X101669761Y-65297380D01*
X101574523Y-65297380D01*
X102955476Y-65297380D02*
X102384047Y-65297380D01*
X102669761Y-65297380D02*
X102669761Y-64297380D01*
X102574523Y-64440238D01*
X102479285Y-64535476D01*
X102384047Y-64583095D01*
X103860238Y-64297380D02*
X103384047Y-64297380D01*
X103336428Y-64773571D01*
X103384047Y-64725952D01*
X103479285Y-64678333D01*
X103717380Y-64678333D01*
X103812619Y-64725952D01*
X103860238Y-64773571D01*
X103907857Y-64868809D01*
X103907857Y-65106904D01*
X103860238Y-65202142D01*
X103812619Y-65249761D01*
X103717380Y-65297380D01*
X103479285Y-65297380D01*
X103384047Y-65249761D01*
X103336428Y-65202142D01*
X94335476Y-96447380D02*
X94335476Y-97161666D01*
X94287857Y-97304523D01*
X94192619Y-97399761D01*
X94049761Y-97447380D01*
X93954523Y-97447380D01*
X95335476Y-97447380D02*
X94764047Y-97447380D01*
X95049761Y-97447380D02*
X95049761Y-96447380D01*
X94954523Y-96590238D01*
X94859285Y-96685476D01*
X94764047Y-96733095D01*
X96192619Y-96447380D02*
X96002142Y-96447380D01*
X95906904Y-96495000D01*
X95859285Y-96542619D01*
X95764047Y-96685476D01*
X95716428Y-96875952D01*
X95716428Y-97256904D01*
X95764047Y-97352142D01*
X95811666Y-97399761D01*
X95906904Y-97447380D01*
X96097380Y-97447380D01*
X96192619Y-97399761D01*
X96240238Y-97352142D01*
X96287857Y-97256904D01*
X96287857Y-97018809D01*
X96240238Y-96923571D01*
X96192619Y-96875952D01*
X96097380Y-96828333D01*
X95906904Y-96828333D01*
X95811666Y-96875952D01*
X95764047Y-96923571D01*
X95716428Y-97018809D01*
X94335476Y-112957380D02*
X94335476Y-113671666D01*
X94287857Y-113814523D01*
X94192619Y-113909761D01*
X94049761Y-113957380D01*
X93954523Y-113957380D01*
X95335476Y-113957380D02*
X94764047Y-113957380D01*
X95049761Y-113957380D02*
X95049761Y-112957380D01*
X94954523Y-113100238D01*
X94859285Y-113195476D01*
X94764047Y-113243095D01*
X95668809Y-112957380D02*
X96335476Y-112957380D01*
X95906904Y-113957380D01*
X90602380Y-78826904D02*
X90602380Y-78255476D01*
X91602380Y-78541190D02*
X90602380Y-78541190D01*
X91602380Y-77922142D02*
X90602380Y-77922142D01*
X90602380Y-77541190D01*
X90650000Y-77445952D01*
X90697619Y-77398333D01*
X90792857Y-77350714D01*
X90935714Y-77350714D01*
X91030952Y-77398333D01*
X91078571Y-77445952D01*
X91126190Y-77541190D01*
X91126190Y-77922142D01*
X90697619Y-76969761D02*
X90650000Y-76922142D01*
X90602380Y-76826904D01*
X90602380Y-76588809D01*
X90650000Y-76493571D01*
X90697619Y-76445952D01*
X90792857Y-76398333D01*
X90888095Y-76398333D01*
X91030952Y-76445952D01*
X91602380Y-77017380D01*
X91602380Y-76398333D01*
X83692142Y-74777857D02*
X83739761Y-74825476D01*
X83787380Y-74968333D01*
X83787380Y-75063571D01*
X83739761Y-75206428D01*
X83644523Y-75301666D01*
X83549285Y-75349285D01*
X83358809Y-75396904D01*
X83215952Y-75396904D01*
X83025476Y-75349285D01*
X82930238Y-75301666D01*
X82835000Y-75206428D01*
X82787380Y-75063571D01*
X82787380Y-74968333D01*
X82835000Y-74825476D01*
X82882619Y-74777857D01*
X83787380Y-73825476D02*
X83787380Y-74396904D01*
X83787380Y-74111190D02*
X82787380Y-74111190D01*
X82930238Y-74206428D01*
X83025476Y-74301666D01*
X83073095Y-74396904D01*
X82787380Y-73206428D02*
X82787380Y-73111190D01*
X82835000Y-73015952D01*
X82882619Y-72968333D01*
X82977857Y-72920714D01*
X83168333Y-72873095D01*
X83406428Y-72873095D01*
X83596904Y-72920714D01*
X83692142Y-72968333D01*
X83739761Y-73015952D01*
X83787380Y-73111190D01*
X83787380Y-73206428D01*
X83739761Y-73301666D01*
X83692142Y-73349285D01*
X83596904Y-73396904D01*
X83406428Y-73444523D01*
X83168333Y-73444523D01*
X82977857Y-73396904D01*
X82882619Y-73349285D01*
X82835000Y-73301666D01*
X82787380Y-73206428D01*
X88152142Y-80842142D02*
X88104523Y-80889761D01*
X87961666Y-80937380D01*
X87866428Y-80937380D01*
X87723571Y-80889761D01*
X87628333Y-80794523D01*
X87580714Y-80699285D01*
X87533095Y-80508809D01*
X87533095Y-80365952D01*
X87580714Y-80175476D01*
X87628333Y-80080238D01*
X87723571Y-79985000D01*
X87866428Y-79937380D01*
X87961666Y-79937380D01*
X88104523Y-79985000D01*
X88152142Y-80032619D01*
X89104523Y-80937380D02*
X88533095Y-80937380D01*
X88818809Y-80937380D02*
X88818809Y-79937380D01*
X88723571Y-80080238D01*
X88628333Y-80175476D01*
X88533095Y-80223095D01*
X90056904Y-80937380D02*
X89485476Y-80937380D01*
X89771190Y-80937380D02*
X89771190Y-79937380D01*
X89675952Y-80080238D01*
X89580714Y-80175476D01*
X89485476Y-80223095D01*
X99486904Y-72047380D02*
X99486904Y-71047380D01*
X99725000Y-71047380D01*
X99867857Y-71095000D01*
X99963095Y-71190238D01*
X100010714Y-71285476D01*
X100058333Y-71475952D01*
X100058333Y-71618809D01*
X100010714Y-71809285D01*
X99963095Y-71904523D01*
X99867857Y-71999761D01*
X99725000Y-72047380D01*
X99486904Y-72047380D01*
X101010714Y-72047380D02*
X100439285Y-72047380D01*
X100725000Y-72047380D02*
X100725000Y-71047380D01*
X100629761Y-71190238D01*
X100534523Y-71285476D01*
X100439285Y-71333095D01*
X99486904Y-68872380D02*
X99486904Y-67872380D01*
X99725000Y-67872380D01*
X99867857Y-67920000D01*
X99963095Y-68015238D01*
X100010714Y-68110476D01*
X100058333Y-68300952D01*
X100058333Y-68443809D01*
X100010714Y-68634285D01*
X99963095Y-68729523D01*
X99867857Y-68824761D01*
X99725000Y-68872380D01*
X99486904Y-68872380D01*
X100391666Y-67872380D02*
X101010714Y-67872380D01*
X100677380Y-68253333D01*
X100820238Y-68253333D01*
X100915476Y-68300952D01*
X100963095Y-68348571D01*
X101010714Y-68443809D01*
X101010714Y-68681904D01*
X100963095Y-68777142D01*
X100915476Y-68824761D01*
X100820238Y-68872380D01*
X100534523Y-68872380D01*
X100439285Y-68824761D01*
X100391666Y-68777142D01*
X156731666Y-103272380D02*
X156731666Y-103986666D01*
X156684047Y-104129523D01*
X156588809Y-104224761D01*
X156445952Y-104272380D01*
X156350714Y-104272380D01*
X157636428Y-103605714D02*
X157636428Y-104272380D01*
X157398333Y-103224761D02*
X157160238Y-103939047D01*
X157779285Y-103939047D01*
X156731666Y-87397380D02*
X156731666Y-88111666D01*
X156684047Y-88254523D01*
X156588809Y-88349761D01*
X156445952Y-88397380D01*
X156350714Y-88397380D01*
X157112619Y-87397380D02*
X157731666Y-87397380D01*
X157398333Y-87778333D01*
X157541190Y-87778333D01*
X157636428Y-87825952D01*
X157684047Y-87873571D01*
X157731666Y-87968809D01*
X157731666Y-88206904D01*
X157684047Y-88302142D01*
X157636428Y-88349761D01*
X157541190Y-88397380D01*
X157255476Y-88397380D01*
X157160238Y-88349761D01*
X157112619Y-88302142D01*
X150858333Y-86017380D02*
X150525000Y-85541190D01*
X150286904Y-86017380D02*
X150286904Y-85017380D01*
X150667857Y-85017380D01*
X150763095Y-85065000D01*
X150810714Y-85112619D01*
X150858333Y-85207857D01*
X150858333Y-85350714D01*
X150810714Y-85445952D01*
X150763095Y-85493571D01*
X150667857Y-85541190D01*
X150286904Y-85541190D01*
X151810714Y-86017380D02*
X151239285Y-86017380D01*
X151525000Y-86017380D02*
X151525000Y-85017380D01*
X151429761Y-85160238D01*
X151334523Y-85255476D01*
X151239285Y-85303095D01*
X90602380Y-75166904D02*
X91411904Y-75166904D01*
X91507142Y-75119285D01*
X91554761Y-75071666D01*
X91602380Y-74976428D01*
X91602380Y-74785952D01*
X91554761Y-74690714D01*
X91507142Y-74643095D01*
X91411904Y-74595476D01*
X90602380Y-74595476D01*
X90602380Y-73690714D02*
X90602380Y-73881190D01*
X90650000Y-73976428D01*
X90697619Y-74024047D01*
X90840476Y-74119285D01*
X91030952Y-74166904D01*
X91411904Y-74166904D01*
X91507142Y-74119285D01*
X91554761Y-74071666D01*
X91602380Y-73976428D01*
X91602380Y-73785952D01*
X91554761Y-73690714D01*
X91507142Y-73643095D01*
X91411904Y-73595476D01*
X91173809Y-73595476D01*
X91078571Y-73643095D01*
X91030952Y-73690714D01*
X90983333Y-73785952D01*
X90983333Y-73976428D01*
X91030952Y-74071666D01*
X91078571Y-74119285D01*
X91173809Y-74166904D01*
D16*
X144929047Y-122121190D02*
X144929047Y-122525952D01*
X144952857Y-122573571D01*
X144976666Y-122597380D01*
X145024285Y-122621190D01*
X145119523Y-122621190D01*
X145167142Y-122597380D01*
X145190952Y-122573571D01*
X145214761Y-122525952D01*
X145214761Y-122121190D01*
X145429047Y-122168809D02*
X145452857Y-122145000D01*
X145500476Y-122121190D01*
X145619523Y-122121190D01*
X145667142Y-122145000D01*
X145690952Y-122168809D01*
X145714761Y-122216428D01*
X145714761Y-122264047D01*
X145690952Y-122335476D01*
X145405238Y-122621190D01*
X145714761Y-122621190D01*
D13*
X120458095Y-68802380D02*
X120458095Y-69611904D01*
X120505714Y-69707142D01*
X120553333Y-69754761D01*
X120648571Y-69802380D01*
X120839047Y-69802380D01*
X120934285Y-69754761D01*
X120981904Y-69707142D01*
X121029523Y-69611904D01*
X121029523Y-68802380D01*
X122029523Y-69802380D02*
X121458095Y-69802380D01*
X121743809Y-69802380D02*
X121743809Y-68802380D01*
X121648571Y-68945238D01*
X121553333Y-69040476D01*
X121458095Y-69088095D01*
M02*
