G04 #@! TF.GenerationSoftware,KiCad,Pcbnew,5.0.2-1.fc29*
G04 #@! TF.CreationDate,2019-01-19T22:33:50+01:00*
G04 #@! TF.ProjectId,esp8266,65737038-3236-4362-9e6b-696361645f70,rev?*
G04 #@! TF.SameCoordinates,Original*
G04 #@! TF.FileFunction,Paste,Top*
G04 #@! TF.FilePolarity,Positive*
%FSLAX46Y46*%
G04 Gerber Fmt 4.6, Leading zero omitted, Abs format (unit mm)*
G04 Created by KiCad (PCBNEW 5.0.2-1.fc29) date Sat 19 Jan 2019 10:33:50 PM CET*
%MOMM*%
%LPD*%
G01*
G04 APERTURE LIST*
%ADD10C,0.100000*%
%ADD11C,1.150000*%
%ADD12R,5.000000X10.000000*%
%ADD13R,1.500000X2.000000*%
%ADD14R,3.800000X2.000000*%
%ADD15R,1.300000X0.600000*%
%ADD16R,0.900000X1.200000*%
%ADD17R,0.650000X1.060000*%
%ADD18R,0.900000X0.800000*%
%ADD19R,2.500000X1.000000*%
%ADD20R,1.000000X1.800000*%
%ADD21C,0.400000*%
%ADD22C,0.600000*%
%ADD23R,2.100000X1.400000*%
%ADD24R,0.800000X0.900000*%
%ADD25R,0.640000X0.640000*%
G04 APERTURE END LIST*
D10*
G04 #@! TO.C,C9*
G36*
X151099506Y-123601204D02*
X151123774Y-123604804D01*
X151147573Y-123610765D01*
X151170672Y-123619030D01*
X151192851Y-123629520D01*
X151213894Y-123642132D01*
X151233600Y-123656747D01*
X151251778Y-123673223D01*
X151268254Y-123691401D01*
X151282869Y-123711107D01*
X151295481Y-123732150D01*
X151305971Y-123754329D01*
X151314236Y-123777428D01*
X151320197Y-123801227D01*
X151323797Y-123825495D01*
X151325001Y-123849999D01*
X151325001Y-124750001D01*
X151323797Y-124774505D01*
X151320197Y-124798773D01*
X151314236Y-124822572D01*
X151305971Y-124845671D01*
X151295481Y-124867850D01*
X151282869Y-124888893D01*
X151268254Y-124908599D01*
X151251778Y-124926777D01*
X151233600Y-124943253D01*
X151213894Y-124957868D01*
X151192851Y-124970480D01*
X151170672Y-124980970D01*
X151147573Y-124989235D01*
X151123774Y-124995196D01*
X151099506Y-124998796D01*
X151075002Y-125000000D01*
X150425000Y-125000000D01*
X150400496Y-124998796D01*
X150376228Y-124995196D01*
X150352429Y-124989235D01*
X150329330Y-124980970D01*
X150307151Y-124970480D01*
X150286108Y-124957868D01*
X150266402Y-124943253D01*
X150248224Y-124926777D01*
X150231748Y-124908599D01*
X150217133Y-124888893D01*
X150204521Y-124867850D01*
X150194031Y-124845671D01*
X150185766Y-124822572D01*
X150179805Y-124798773D01*
X150176205Y-124774505D01*
X150175001Y-124750001D01*
X150175001Y-123849999D01*
X150176205Y-123825495D01*
X150179805Y-123801227D01*
X150185766Y-123777428D01*
X150194031Y-123754329D01*
X150204521Y-123732150D01*
X150217133Y-123711107D01*
X150231748Y-123691401D01*
X150248224Y-123673223D01*
X150266402Y-123656747D01*
X150286108Y-123642132D01*
X150307151Y-123629520D01*
X150329330Y-123619030D01*
X150352429Y-123610765D01*
X150376228Y-123604804D01*
X150400496Y-123601204D01*
X150425000Y-123600000D01*
X151075002Y-123600000D01*
X151099506Y-123601204D01*
X151099506Y-123601204D01*
G37*
D11*
X150750001Y-124300000D03*
D10*
G36*
X149049506Y-123601204D02*
X149073774Y-123604804D01*
X149097573Y-123610765D01*
X149120672Y-123619030D01*
X149142851Y-123629520D01*
X149163894Y-123642132D01*
X149183600Y-123656747D01*
X149201778Y-123673223D01*
X149218254Y-123691401D01*
X149232869Y-123711107D01*
X149245481Y-123732150D01*
X149255971Y-123754329D01*
X149264236Y-123777428D01*
X149270197Y-123801227D01*
X149273797Y-123825495D01*
X149275001Y-123849999D01*
X149275001Y-124750001D01*
X149273797Y-124774505D01*
X149270197Y-124798773D01*
X149264236Y-124822572D01*
X149255971Y-124845671D01*
X149245481Y-124867850D01*
X149232869Y-124888893D01*
X149218254Y-124908599D01*
X149201778Y-124926777D01*
X149183600Y-124943253D01*
X149163894Y-124957868D01*
X149142851Y-124970480D01*
X149120672Y-124980970D01*
X149097573Y-124989235D01*
X149073774Y-124995196D01*
X149049506Y-124998796D01*
X149025002Y-125000000D01*
X148375000Y-125000000D01*
X148350496Y-124998796D01*
X148326228Y-124995196D01*
X148302429Y-124989235D01*
X148279330Y-124980970D01*
X148257151Y-124970480D01*
X148236108Y-124957868D01*
X148216402Y-124943253D01*
X148198224Y-124926777D01*
X148181748Y-124908599D01*
X148167133Y-124888893D01*
X148154521Y-124867850D01*
X148144031Y-124845671D01*
X148135766Y-124822572D01*
X148129805Y-124798773D01*
X148126205Y-124774505D01*
X148125001Y-124750001D01*
X148125001Y-123849999D01*
X148126205Y-123825495D01*
X148129805Y-123801227D01*
X148135766Y-123777428D01*
X148144031Y-123754329D01*
X148154521Y-123732150D01*
X148167133Y-123711107D01*
X148181748Y-123691401D01*
X148198224Y-123673223D01*
X148216402Y-123656747D01*
X148236108Y-123642132D01*
X148257151Y-123629520D01*
X148279330Y-123619030D01*
X148302429Y-123610765D01*
X148326228Y-123604804D01*
X148350496Y-123601204D01*
X148375000Y-123600000D01*
X149025002Y-123600000D01*
X149049506Y-123601204D01*
X149049506Y-123601204D01*
G37*
D11*
X148700001Y-124300000D03*
G04 #@! TD*
D10*
G04 #@! TO.C,C8*
G36*
X158484505Y-79521204D02*
X158508773Y-79524804D01*
X158532572Y-79530765D01*
X158555671Y-79539030D01*
X158577850Y-79549520D01*
X158598893Y-79562132D01*
X158618599Y-79576747D01*
X158636777Y-79593223D01*
X158653253Y-79611401D01*
X158667868Y-79631107D01*
X158680480Y-79652150D01*
X158690970Y-79674329D01*
X158699235Y-79697428D01*
X158705196Y-79721227D01*
X158708796Y-79745495D01*
X158710000Y-79769999D01*
X158710000Y-80420001D01*
X158708796Y-80444505D01*
X158705196Y-80468773D01*
X158699235Y-80492572D01*
X158690970Y-80515671D01*
X158680480Y-80537850D01*
X158667868Y-80558893D01*
X158653253Y-80578599D01*
X158636777Y-80596777D01*
X158618599Y-80613253D01*
X158598893Y-80627868D01*
X158577850Y-80640480D01*
X158555671Y-80650970D01*
X158532572Y-80659235D01*
X158508773Y-80665196D01*
X158484505Y-80668796D01*
X158460001Y-80670000D01*
X157559999Y-80670000D01*
X157535495Y-80668796D01*
X157511227Y-80665196D01*
X157487428Y-80659235D01*
X157464329Y-80650970D01*
X157442150Y-80640480D01*
X157421107Y-80627868D01*
X157401401Y-80613253D01*
X157383223Y-80596777D01*
X157366747Y-80578599D01*
X157352132Y-80558893D01*
X157339520Y-80537850D01*
X157329030Y-80515671D01*
X157320765Y-80492572D01*
X157314804Y-80468773D01*
X157311204Y-80444505D01*
X157310000Y-80420001D01*
X157310000Y-79769999D01*
X157311204Y-79745495D01*
X157314804Y-79721227D01*
X157320765Y-79697428D01*
X157329030Y-79674329D01*
X157339520Y-79652150D01*
X157352132Y-79631107D01*
X157366747Y-79611401D01*
X157383223Y-79593223D01*
X157401401Y-79576747D01*
X157421107Y-79562132D01*
X157442150Y-79549520D01*
X157464329Y-79539030D01*
X157487428Y-79530765D01*
X157511227Y-79524804D01*
X157535495Y-79521204D01*
X157559999Y-79520000D01*
X158460001Y-79520000D01*
X158484505Y-79521204D01*
X158484505Y-79521204D01*
G37*
D11*
X158010000Y-80095000D03*
D10*
G36*
X158484505Y-81571204D02*
X158508773Y-81574804D01*
X158532572Y-81580765D01*
X158555671Y-81589030D01*
X158577850Y-81599520D01*
X158598893Y-81612132D01*
X158618599Y-81626747D01*
X158636777Y-81643223D01*
X158653253Y-81661401D01*
X158667868Y-81681107D01*
X158680480Y-81702150D01*
X158690970Y-81724329D01*
X158699235Y-81747428D01*
X158705196Y-81771227D01*
X158708796Y-81795495D01*
X158710000Y-81819999D01*
X158710000Y-82470001D01*
X158708796Y-82494505D01*
X158705196Y-82518773D01*
X158699235Y-82542572D01*
X158690970Y-82565671D01*
X158680480Y-82587850D01*
X158667868Y-82608893D01*
X158653253Y-82628599D01*
X158636777Y-82646777D01*
X158618599Y-82663253D01*
X158598893Y-82677868D01*
X158577850Y-82690480D01*
X158555671Y-82700970D01*
X158532572Y-82709235D01*
X158508773Y-82715196D01*
X158484505Y-82718796D01*
X158460001Y-82720000D01*
X157559999Y-82720000D01*
X157535495Y-82718796D01*
X157511227Y-82715196D01*
X157487428Y-82709235D01*
X157464329Y-82700970D01*
X157442150Y-82690480D01*
X157421107Y-82677868D01*
X157401401Y-82663253D01*
X157383223Y-82646777D01*
X157366747Y-82628599D01*
X157352132Y-82608893D01*
X157339520Y-82587850D01*
X157329030Y-82565671D01*
X157320765Y-82542572D01*
X157314804Y-82518773D01*
X157311204Y-82494505D01*
X157310000Y-82470001D01*
X157310000Y-81819999D01*
X157311204Y-81795495D01*
X157314804Y-81771227D01*
X157320765Y-81747428D01*
X157329030Y-81724329D01*
X157339520Y-81702150D01*
X157352132Y-81681107D01*
X157366747Y-81661401D01*
X157383223Y-81643223D01*
X157401401Y-81626747D01*
X157421107Y-81612132D01*
X157442150Y-81599520D01*
X157464329Y-81589030D01*
X157487428Y-81580765D01*
X157511227Y-81574804D01*
X157535495Y-81571204D01*
X157559999Y-81570000D01*
X158460001Y-81570000D01*
X158484505Y-81571204D01*
X158484505Y-81571204D01*
G37*
D11*
X158010000Y-82145000D03*
G04 #@! TD*
D12*
G04 #@! TO.C,J14*
X99190001Y-130845001D03*
G04 #@! TD*
D10*
G04 #@! TO.C,C1*
G36*
X109591505Y-66070204D02*
X109615773Y-66073804D01*
X109639572Y-66079765D01*
X109662671Y-66088030D01*
X109684850Y-66098520D01*
X109705893Y-66111132D01*
X109725599Y-66125747D01*
X109743777Y-66142223D01*
X109760253Y-66160401D01*
X109774868Y-66180107D01*
X109787480Y-66201150D01*
X109797970Y-66223329D01*
X109806235Y-66246428D01*
X109812196Y-66270227D01*
X109815796Y-66294495D01*
X109817000Y-66318999D01*
X109817000Y-67219001D01*
X109815796Y-67243505D01*
X109812196Y-67267773D01*
X109806235Y-67291572D01*
X109797970Y-67314671D01*
X109787480Y-67336850D01*
X109774868Y-67357893D01*
X109760253Y-67377599D01*
X109743777Y-67395777D01*
X109725599Y-67412253D01*
X109705893Y-67426868D01*
X109684850Y-67439480D01*
X109662671Y-67449970D01*
X109639572Y-67458235D01*
X109615773Y-67464196D01*
X109591505Y-67467796D01*
X109567001Y-67469000D01*
X108916999Y-67469000D01*
X108892495Y-67467796D01*
X108868227Y-67464196D01*
X108844428Y-67458235D01*
X108821329Y-67449970D01*
X108799150Y-67439480D01*
X108778107Y-67426868D01*
X108758401Y-67412253D01*
X108740223Y-67395777D01*
X108723747Y-67377599D01*
X108709132Y-67357893D01*
X108696520Y-67336850D01*
X108686030Y-67314671D01*
X108677765Y-67291572D01*
X108671804Y-67267773D01*
X108668204Y-67243505D01*
X108667000Y-67219001D01*
X108667000Y-66318999D01*
X108668204Y-66294495D01*
X108671804Y-66270227D01*
X108677765Y-66246428D01*
X108686030Y-66223329D01*
X108696520Y-66201150D01*
X108709132Y-66180107D01*
X108723747Y-66160401D01*
X108740223Y-66142223D01*
X108758401Y-66125747D01*
X108778107Y-66111132D01*
X108799150Y-66098520D01*
X108821329Y-66088030D01*
X108844428Y-66079765D01*
X108868227Y-66073804D01*
X108892495Y-66070204D01*
X108916999Y-66069000D01*
X109567001Y-66069000D01*
X109591505Y-66070204D01*
X109591505Y-66070204D01*
G37*
D11*
X109242000Y-66769000D03*
D10*
G36*
X107541505Y-66070204D02*
X107565773Y-66073804D01*
X107589572Y-66079765D01*
X107612671Y-66088030D01*
X107634850Y-66098520D01*
X107655893Y-66111132D01*
X107675599Y-66125747D01*
X107693777Y-66142223D01*
X107710253Y-66160401D01*
X107724868Y-66180107D01*
X107737480Y-66201150D01*
X107747970Y-66223329D01*
X107756235Y-66246428D01*
X107762196Y-66270227D01*
X107765796Y-66294495D01*
X107767000Y-66318999D01*
X107767000Y-67219001D01*
X107765796Y-67243505D01*
X107762196Y-67267773D01*
X107756235Y-67291572D01*
X107747970Y-67314671D01*
X107737480Y-67336850D01*
X107724868Y-67357893D01*
X107710253Y-67377599D01*
X107693777Y-67395777D01*
X107675599Y-67412253D01*
X107655893Y-67426868D01*
X107634850Y-67439480D01*
X107612671Y-67449970D01*
X107589572Y-67458235D01*
X107565773Y-67464196D01*
X107541505Y-67467796D01*
X107517001Y-67469000D01*
X106866999Y-67469000D01*
X106842495Y-67467796D01*
X106818227Y-67464196D01*
X106794428Y-67458235D01*
X106771329Y-67449970D01*
X106749150Y-67439480D01*
X106728107Y-67426868D01*
X106708401Y-67412253D01*
X106690223Y-67395777D01*
X106673747Y-67377599D01*
X106659132Y-67357893D01*
X106646520Y-67336850D01*
X106636030Y-67314671D01*
X106627765Y-67291572D01*
X106621804Y-67267773D01*
X106618204Y-67243505D01*
X106617000Y-67219001D01*
X106617000Y-66318999D01*
X106618204Y-66294495D01*
X106621804Y-66270227D01*
X106627765Y-66246428D01*
X106636030Y-66223329D01*
X106646520Y-66201150D01*
X106659132Y-66180107D01*
X106673747Y-66160401D01*
X106690223Y-66142223D01*
X106708401Y-66125747D01*
X106728107Y-66111132D01*
X106749150Y-66098520D01*
X106771329Y-66088030D01*
X106794428Y-66079765D01*
X106818227Y-66073804D01*
X106842495Y-66070204D01*
X106866999Y-66069000D01*
X107517001Y-66069000D01*
X107541505Y-66070204D01*
X107541505Y-66070204D01*
G37*
D11*
X107192000Y-66769000D03*
G04 #@! TD*
D12*
G04 #@! TO.C,J9*
X140230000Y-130885000D03*
G04 #@! TD*
G04 #@! TO.C,J10*
X115465000Y-130885000D03*
G04 #@! TD*
G04 #@! TO.C,J11*
X123720000Y-130885000D03*
G04 #@! TD*
G04 #@! TO.C,J12*
X131975000Y-130885000D03*
G04 #@! TD*
G04 #@! TO.C,J8*
X107210000Y-130885000D03*
G04 #@! TD*
D13*
G04 #@! TO.C,Q2*
X113165000Y-120065000D03*
X117765000Y-120065000D03*
X115465000Y-120065000D03*
D14*
X115465000Y-113765000D03*
G04 #@! TD*
D13*
G04 #@! TO.C,Q3*
X121420000Y-120065000D03*
X126020000Y-120065000D03*
X123720000Y-120065000D03*
D14*
X123720000Y-113765000D03*
G04 #@! TD*
D13*
G04 #@! TO.C,Q4*
X129675000Y-120065000D03*
X134275000Y-120065000D03*
X131975000Y-120065000D03*
D14*
X131975000Y-113765000D03*
G04 #@! TD*
D13*
G04 #@! TO.C,Q1*
X104910000Y-120065000D03*
X109510000Y-120065000D03*
X107210000Y-120065000D03*
D14*
X107210000Y-113765000D03*
G04 #@! TD*
D10*
G04 #@! TO.C,C2*
G36*
X101971505Y-77246204D02*
X101995773Y-77249804D01*
X102019572Y-77255765D01*
X102042671Y-77264030D01*
X102064850Y-77274520D01*
X102085893Y-77287132D01*
X102105599Y-77301747D01*
X102123777Y-77318223D01*
X102140253Y-77336401D01*
X102154868Y-77356107D01*
X102167480Y-77377150D01*
X102177970Y-77399329D01*
X102186235Y-77422428D01*
X102192196Y-77446227D01*
X102195796Y-77470495D01*
X102197000Y-77494999D01*
X102197000Y-78395001D01*
X102195796Y-78419505D01*
X102192196Y-78443773D01*
X102186235Y-78467572D01*
X102177970Y-78490671D01*
X102167480Y-78512850D01*
X102154868Y-78533893D01*
X102140253Y-78553599D01*
X102123777Y-78571777D01*
X102105599Y-78588253D01*
X102085893Y-78602868D01*
X102064850Y-78615480D01*
X102042671Y-78625970D01*
X102019572Y-78634235D01*
X101995773Y-78640196D01*
X101971505Y-78643796D01*
X101947001Y-78645000D01*
X101296999Y-78645000D01*
X101272495Y-78643796D01*
X101248227Y-78640196D01*
X101224428Y-78634235D01*
X101201329Y-78625970D01*
X101179150Y-78615480D01*
X101158107Y-78602868D01*
X101138401Y-78588253D01*
X101120223Y-78571777D01*
X101103747Y-78553599D01*
X101089132Y-78533893D01*
X101076520Y-78512850D01*
X101066030Y-78490671D01*
X101057765Y-78467572D01*
X101051804Y-78443773D01*
X101048204Y-78419505D01*
X101047000Y-78395001D01*
X101047000Y-77494999D01*
X101048204Y-77470495D01*
X101051804Y-77446227D01*
X101057765Y-77422428D01*
X101066030Y-77399329D01*
X101076520Y-77377150D01*
X101089132Y-77356107D01*
X101103747Y-77336401D01*
X101120223Y-77318223D01*
X101138401Y-77301747D01*
X101158107Y-77287132D01*
X101179150Y-77274520D01*
X101201329Y-77264030D01*
X101224428Y-77255765D01*
X101248227Y-77249804D01*
X101272495Y-77246204D01*
X101296999Y-77245000D01*
X101947001Y-77245000D01*
X101971505Y-77246204D01*
X101971505Y-77246204D01*
G37*
D11*
X101622000Y-77945000D03*
D10*
G36*
X104021505Y-77246204D02*
X104045773Y-77249804D01*
X104069572Y-77255765D01*
X104092671Y-77264030D01*
X104114850Y-77274520D01*
X104135893Y-77287132D01*
X104155599Y-77301747D01*
X104173777Y-77318223D01*
X104190253Y-77336401D01*
X104204868Y-77356107D01*
X104217480Y-77377150D01*
X104227970Y-77399329D01*
X104236235Y-77422428D01*
X104242196Y-77446227D01*
X104245796Y-77470495D01*
X104247000Y-77494999D01*
X104247000Y-78395001D01*
X104245796Y-78419505D01*
X104242196Y-78443773D01*
X104236235Y-78467572D01*
X104227970Y-78490671D01*
X104217480Y-78512850D01*
X104204868Y-78533893D01*
X104190253Y-78553599D01*
X104173777Y-78571777D01*
X104155599Y-78588253D01*
X104135893Y-78602868D01*
X104114850Y-78615480D01*
X104092671Y-78625970D01*
X104069572Y-78634235D01*
X104045773Y-78640196D01*
X104021505Y-78643796D01*
X103997001Y-78645000D01*
X103346999Y-78645000D01*
X103322495Y-78643796D01*
X103298227Y-78640196D01*
X103274428Y-78634235D01*
X103251329Y-78625970D01*
X103229150Y-78615480D01*
X103208107Y-78602868D01*
X103188401Y-78588253D01*
X103170223Y-78571777D01*
X103153747Y-78553599D01*
X103139132Y-78533893D01*
X103126520Y-78512850D01*
X103116030Y-78490671D01*
X103107765Y-78467572D01*
X103101804Y-78443773D01*
X103098204Y-78419505D01*
X103097000Y-78395001D01*
X103097000Y-77494999D01*
X103098204Y-77470495D01*
X103101804Y-77446227D01*
X103107765Y-77422428D01*
X103116030Y-77399329D01*
X103126520Y-77377150D01*
X103139132Y-77356107D01*
X103153747Y-77336401D01*
X103170223Y-77318223D01*
X103188401Y-77301747D01*
X103208107Y-77287132D01*
X103229150Y-77274520D01*
X103251329Y-77264030D01*
X103274428Y-77255765D01*
X103298227Y-77249804D01*
X103322495Y-77246204D01*
X103346999Y-77245000D01*
X103997001Y-77245000D01*
X104021505Y-77246204D01*
X104021505Y-77246204D01*
G37*
D11*
X103672000Y-77945000D03*
G04 #@! TD*
D10*
G04 #@! TO.C,C3*
G36*
X113519505Y-68991204D02*
X113543773Y-68994804D01*
X113567572Y-69000765D01*
X113590671Y-69009030D01*
X113612850Y-69019520D01*
X113633893Y-69032132D01*
X113653599Y-69046747D01*
X113671777Y-69063223D01*
X113688253Y-69081401D01*
X113702868Y-69101107D01*
X113715480Y-69122150D01*
X113725970Y-69144329D01*
X113734235Y-69167428D01*
X113740196Y-69191227D01*
X113743796Y-69215495D01*
X113745000Y-69239999D01*
X113745000Y-70140001D01*
X113743796Y-70164505D01*
X113740196Y-70188773D01*
X113734235Y-70212572D01*
X113725970Y-70235671D01*
X113715480Y-70257850D01*
X113702868Y-70278893D01*
X113688253Y-70298599D01*
X113671777Y-70316777D01*
X113653599Y-70333253D01*
X113633893Y-70347868D01*
X113612850Y-70360480D01*
X113590671Y-70370970D01*
X113567572Y-70379235D01*
X113543773Y-70385196D01*
X113519505Y-70388796D01*
X113495001Y-70390000D01*
X112844999Y-70390000D01*
X112820495Y-70388796D01*
X112796227Y-70385196D01*
X112772428Y-70379235D01*
X112749329Y-70370970D01*
X112727150Y-70360480D01*
X112706107Y-70347868D01*
X112686401Y-70333253D01*
X112668223Y-70316777D01*
X112651747Y-70298599D01*
X112637132Y-70278893D01*
X112624520Y-70257850D01*
X112614030Y-70235671D01*
X112605765Y-70212572D01*
X112599804Y-70188773D01*
X112596204Y-70164505D01*
X112595000Y-70140001D01*
X112595000Y-69239999D01*
X112596204Y-69215495D01*
X112599804Y-69191227D01*
X112605765Y-69167428D01*
X112614030Y-69144329D01*
X112624520Y-69122150D01*
X112637132Y-69101107D01*
X112651747Y-69081401D01*
X112668223Y-69063223D01*
X112686401Y-69046747D01*
X112706107Y-69032132D01*
X112727150Y-69019520D01*
X112749329Y-69009030D01*
X112772428Y-69000765D01*
X112796227Y-68994804D01*
X112820495Y-68991204D01*
X112844999Y-68990000D01*
X113495001Y-68990000D01*
X113519505Y-68991204D01*
X113519505Y-68991204D01*
G37*
D11*
X113170000Y-69690000D03*
D10*
G36*
X115569505Y-68991204D02*
X115593773Y-68994804D01*
X115617572Y-69000765D01*
X115640671Y-69009030D01*
X115662850Y-69019520D01*
X115683893Y-69032132D01*
X115703599Y-69046747D01*
X115721777Y-69063223D01*
X115738253Y-69081401D01*
X115752868Y-69101107D01*
X115765480Y-69122150D01*
X115775970Y-69144329D01*
X115784235Y-69167428D01*
X115790196Y-69191227D01*
X115793796Y-69215495D01*
X115795000Y-69239999D01*
X115795000Y-70140001D01*
X115793796Y-70164505D01*
X115790196Y-70188773D01*
X115784235Y-70212572D01*
X115775970Y-70235671D01*
X115765480Y-70257850D01*
X115752868Y-70278893D01*
X115738253Y-70298599D01*
X115721777Y-70316777D01*
X115703599Y-70333253D01*
X115683893Y-70347868D01*
X115662850Y-70360480D01*
X115640671Y-70370970D01*
X115617572Y-70379235D01*
X115593773Y-70385196D01*
X115569505Y-70388796D01*
X115545001Y-70390000D01*
X114894999Y-70390000D01*
X114870495Y-70388796D01*
X114846227Y-70385196D01*
X114822428Y-70379235D01*
X114799329Y-70370970D01*
X114777150Y-70360480D01*
X114756107Y-70347868D01*
X114736401Y-70333253D01*
X114718223Y-70316777D01*
X114701747Y-70298599D01*
X114687132Y-70278893D01*
X114674520Y-70257850D01*
X114664030Y-70235671D01*
X114655765Y-70212572D01*
X114649804Y-70188773D01*
X114646204Y-70164505D01*
X114645000Y-70140001D01*
X114645000Y-69239999D01*
X114646204Y-69215495D01*
X114649804Y-69191227D01*
X114655765Y-69167428D01*
X114664030Y-69144329D01*
X114674520Y-69122150D01*
X114687132Y-69101107D01*
X114701747Y-69081401D01*
X114718223Y-69063223D01*
X114736401Y-69046747D01*
X114756107Y-69032132D01*
X114777150Y-69019520D01*
X114799329Y-69009030D01*
X114822428Y-69000765D01*
X114846227Y-68994804D01*
X114870495Y-68991204D01*
X114894999Y-68990000D01*
X115545001Y-68990000D01*
X115569505Y-68991204D01*
X115569505Y-68991204D01*
G37*
D11*
X115220000Y-69690000D03*
G04 #@! TD*
D10*
G04 #@! TO.C,C4*
G36*
X110090505Y-86898204D02*
X110114773Y-86901804D01*
X110138572Y-86907765D01*
X110161671Y-86916030D01*
X110183850Y-86926520D01*
X110204893Y-86939132D01*
X110224599Y-86953747D01*
X110242777Y-86970223D01*
X110259253Y-86988401D01*
X110273868Y-87008107D01*
X110286480Y-87029150D01*
X110296970Y-87051329D01*
X110305235Y-87074428D01*
X110311196Y-87098227D01*
X110314796Y-87122495D01*
X110316000Y-87146999D01*
X110316000Y-88047001D01*
X110314796Y-88071505D01*
X110311196Y-88095773D01*
X110305235Y-88119572D01*
X110296970Y-88142671D01*
X110286480Y-88164850D01*
X110273868Y-88185893D01*
X110259253Y-88205599D01*
X110242777Y-88223777D01*
X110224599Y-88240253D01*
X110204893Y-88254868D01*
X110183850Y-88267480D01*
X110161671Y-88277970D01*
X110138572Y-88286235D01*
X110114773Y-88292196D01*
X110090505Y-88295796D01*
X110066001Y-88297000D01*
X109415999Y-88297000D01*
X109391495Y-88295796D01*
X109367227Y-88292196D01*
X109343428Y-88286235D01*
X109320329Y-88277970D01*
X109298150Y-88267480D01*
X109277107Y-88254868D01*
X109257401Y-88240253D01*
X109239223Y-88223777D01*
X109222747Y-88205599D01*
X109208132Y-88185893D01*
X109195520Y-88164850D01*
X109185030Y-88142671D01*
X109176765Y-88119572D01*
X109170804Y-88095773D01*
X109167204Y-88071505D01*
X109166000Y-88047001D01*
X109166000Y-87146999D01*
X109167204Y-87122495D01*
X109170804Y-87098227D01*
X109176765Y-87074428D01*
X109185030Y-87051329D01*
X109195520Y-87029150D01*
X109208132Y-87008107D01*
X109222747Y-86988401D01*
X109239223Y-86970223D01*
X109257401Y-86953747D01*
X109277107Y-86939132D01*
X109298150Y-86926520D01*
X109320329Y-86916030D01*
X109343428Y-86907765D01*
X109367227Y-86901804D01*
X109391495Y-86898204D01*
X109415999Y-86897000D01*
X110066001Y-86897000D01*
X110090505Y-86898204D01*
X110090505Y-86898204D01*
G37*
D11*
X109741000Y-87597000D03*
D10*
G36*
X112140505Y-86898204D02*
X112164773Y-86901804D01*
X112188572Y-86907765D01*
X112211671Y-86916030D01*
X112233850Y-86926520D01*
X112254893Y-86939132D01*
X112274599Y-86953747D01*
X112292777Y-86970223D01*
X112309253Y-86988401D01*
X112323868Y-87008107D01*
X112336480Y-87029150D01*
X112346970Y-87051329D01*
X112355235Y-87074428D01*
X112361196Y-87098227D01*
X112364796Y-87122495D01*
X112366000Y-87146999D01*
X112366000Y-88047001D01*
X112364796Y-88071505D01*
X112361196Y-88095773D01*
X112355235Y-88119572D01*
X112346970Y-88142671D01*
X112336480Y-88164850D01*
X112323868Y-88185893D01*
X112309253Y-88205599D01*
X112292777Y-88223777D01*
X112274599Y-88240253D01*
X112254893Y-88254868D01*
X112233850Y-88267480D01*
X112211671Y-88277970D01*
X112188572Y-88286235D01*
X112164773Y-88292196D01*
X112140505Y-88295796D01*
X112116001Y-88297000D01*
X111465999Y-88297000D01*
X111441495Y-88295796D01*
X111417227Y-88292196D01*
X111393428Y-88286235D01*
X111370329Y-88277970D01*
X111348150Y-88267480D01*
X111327107Y-88254868D01*
X111307401Y-88240253D01*
X111289223Y-88223777D01*
X111272747Y-88205599D01*
X111258132Y-88185893D01*
X111245520Y-88164850D01*
X111235030Y-88142671D01*
X111226765Y-88119572D01*
X111220804Y-88095773D01*
X111217204Y-88071505D01*
X111216000Y-88047001D01*
X111216000Y-87146999D01*
X111217204Y-87122495D01*
X111220804Y-87098227D01*
X111226765Y-87074428D01*
X111235030Y-87051329D01*
X111245520Y-87029150D01*
X111258132Y-87008107D01*
X111272747Y-86988401D01*
X111289223Y-86970223D01*
X111307401Y-86953747D01*
X111327107Y-86939132D01*
X111348150Y-86926520D01*
X111370329Y-86916030D01*
X111393428Y-86907765D01*
X111417227Y-86901804D01*
X111441495Y-86898204D01*
X111465999Y-86897000D01*
X112116001Y-86897000D01*
X112140505Y-86898204D01*
X112140505Y-86898204D01*
G37*
D11*
X111791000Y-87597000D03*
G04 #@! TD*
D10*
G04 #@! TO.C,C5*
G36*
X114796505Y-81426204D02*
X114820773Y-81429804D01*
X114844572Y-81435765D01*
X114867671Y-81444030D01*
X114889850Y-81454520D01*
X114910893Y-81467132D01*
X114930599Y-81481747D01*
X114948777Y-81498223D01*
X114965253Y-81516401D01*
X114979868Y-81536107D01*
X114992480Y-81557150D01*
X115002970Y-81579329D01*
X115011235Y-81602428D01*
X115017196Y-81626227D01*
X115020796Y-81650495D01*
X115022000Y-81674999D01*
X115022000Y-82325001D01*
X115020796Y-82349505D01*
X115017196Y-82373773D01*
X115011235Y-82397572D01*
X115002970Y-82420671D01*
X114992480Y-82442850D01*
X114979868Y-82463893D01*
X114965253Y-82483599D01*
X114948777Y-82501777D01*
X114930599Y-82518253D01*
X114910893Y-82532868D01*
X114889850Y-82545480D01*
X114867671Y-82555970D01*
X114844572Y-82564235D01*
X114820773Y-82570196D01*
X114796505Y-82573796D01*
X114772001Y-82575000D01*
X113871999Y-82575000D01*
X113847495Y-82573796D01*
X113823227Y-82570196D01*
X113799428Y-82564235D01*
X113776329Y-82555970D01*
X113754150Y-82545480D01*
X113733107Y-82532868D01*
X113713401Y-82518253D01*
X113695223Y-82501777D01*
X113678747Y-82483599D01*
X113664132Y-82463893D01*
X113651520Y-82442850D01*
X113641030Y-82420671D01*
X113632765Y-82397572D01*
X113626804Y-82373773D01*
X113623204Y-82349505D01*
X113622000Y-82325001D01*
X113622000Y-81674999D01*
X113623204Y-81650495D01*
X113626804Y-81626227D01*
X113632765Y-81602428D01*
X113641030Y-81579329D01*
X113651520Y-81557150D01*
X113664132Y-81536107D01*
X113678747Y-81516401D01*
X113695223Y-81498223D01*
X113713401Y-81481747D01*
X113733107Y-81467132D01*
X113754150Y-81454520D01*
X113776329Y-81444030D01*
X113799428Y-81435765D01*
X113823227Y-81429804D01*
X113847495Y-81426204D01*
X113871999Y-81425000D01*
X114772001Y-81425000D01*
X114796505Y-81426204D01*
X114796505Y-81426204D01*
G37*
D11*
X114322000Y-82000000D03*
D10*
G36*
X114796505Y-83476204D02*
X114820773Y-83479804D01*
X114844572Y-83485765D01*
X114867671Y-83494030D01*
X114889850Y-83504520D01*
X114910893Y-83517132D01*
X114930599Y-83531747D01*
X114948777Y-83548223D01*
X114965253Y-83566401D01*
X114979868Y-83586107D01*
X114992480Y-83607150D01*
X115002970Y-83629329D01*
X115011235Y-83652428D01*
X115017196Y-83676227D01*
X115020796Y-83700495D01*
X115022000Y-83724999D01*
X115022000Y-84375001D01*
X115020796Y-84399505D01*
X115017196Y-84423773D01*
X115011235Y-84447572D01*
X115002970Y-84470671D01*
X114992480Y-84492850D01*
X114979868Y-84513893D01*
X114965253Y-84533599D01*
X114948777Y-84551777D01*
X114930599Y-84568253D01*
X114910893Y-84582868D01*
X114889850Y-84595480D01*
X114867671Y-84605970D01*
X114844572Y-84614235D01*
X114820773Y-84620196D01*
X114796505Y-84623796D01*
X114772001Y-84625000D01*
X113871999Y-84625000D01*
X113847495Y-84623796D01*
X113823227Y-84620196D01*
X113799428Y-84614235D01*
X113776329Y-84605970D01*
X113754150Y-84595480D01*
X113733107Y-84582868D01*
X113713401Y-84568253D01*
X113695223Y-84551777D01*
X113678747Y-84533599D01*
X113664132Y-84513893D01*
X113651520Y-84492850D01*
X113641030Y-84470671D01*
X113632765Y-84447572D01*
X113626804Y-84423773D01*
X113623204Y-84399505D01*
X113622000Y-84375001D01*
X113622000Y-83724999D01*
X113623204Y-83700495D01*
X113626804Y-83676227D01*
X113632765Y-83652428D01*
X113641030Y-83629329D01*
X113651520Y-83607150D01*
X113664132Y-83586107D01*
X113678747Y-83566401D01*
X113695223Y-83548223D01*
X113713401Y-83531747D01*
X113733107Y-83517132D01*
X113754150Y-83504520D01*
X113776329Y-83494030D01*
X113799428Y-83485765D01*
X113823227Y-83479804D01*
X113847495Y-83476204D01*
X113871999Y-83475000D01*
X114772001Y-83475000D01*
X114796505Y-83476204D01*
X114796505Y-83476204D01*
G37*
D11*
X114322000Y-84050000D03*
G04 #@! TD*
D15*
G04 #@! TO.C,D1*
X107100000Y-72931000D03*
X107100000Y-74831000D03*
X109200000Y-73881000D03*
G04 #@! TD*
D16*
G04 #@! TO.C,D2*
X106576000Y-69817000D03*
X109876000Y-69817000D03*
G04 #@! TD*
D10*
G04 #@! TO.C,R1*
G36*
X95866505Y-73690204D02*
X95890773Y-73693804D01*
X95914572Y-73699765D01*
X95937671Y-73708030D01*
X95959850Y-73718520D01*
X95980893Y-73731132D01*
X96000599Y-73745747D01*
X96018777Y-73762223D01*
X96035253Y-73780401D01*
X96049868Y-73800107D01*
X96062480Y-73821150D01*
X96072970Y-73843329D01*
X96081235Y-73866428D01*
X96087196Y-73890227D01*
X96090796Y-73914495D01*
X96092000Y-73938999D01*
X96092000Y-74839001D01*
X96090796Y-74863505D01*
X96087196Y-74887773D01*
X96081235Y-74911572D01*
X96072970Y-74934671D01*
X96062480Y-74956850D01*
X96049868Y-74977893D01*
X96035253Y-74997599D01*
X96018777Y-75015777D01*
X96000599Y-75032253D01*
X95980893Y-75046868D01*
X95959850Y-75059480D01*
X95937671Y-75069970D01*
X95914572Y-75078235D01*
X95890773Y-75084196D01*
X95866505Y-75087796D01*
X95842001Y-75089000D01*
X95191999Y-75089000D01*
X95167495Y-75087796D01*
X95143227Y-75084196D01*
X95119428Y-75078235D01*
X95096329Y-75069970D01*
X95074150Y-75059480D01*
X95053107Y-75046868D01*
X95033401Y-75032253D01*
X95015223Y-75015777D01*
X94998747Y-74997599D01*
X94984132Y-74977893D01*
X94971520Y-74956850D01*
X94961030Y-74934671D01*
X94952765Y-74911572D01*
X94946804Y-74887773D01*
X94943204Y-74863505D01*
X94942000Y-74839001D01*
X94942000Y-73938999D01*
X94943204Y-73914495D01*
X94946804Y-73890227D01*
X94952765Y-73866428D01*
X94961030Y-73843329D01*
X94971520Y-73821150D01*
X94984132Y-73800107D01*
X94998747Y-73780401D01*
X95015223Y-73762223D01*
X95033401Y-73745747D01*
X95053107Y-73731132D01*
X95074150Y-73718520D01*
X95096329Y-73708030D01*
X95119428Y-73699765D01*
X95143227Y-73693804D01*
X95167495Y-73690204D01*
X95191999Y-73689000D01*
X95842001Y-73689000D01*
X95866505Y-73690204D01*
X95866505Y-73690204D01*
G37*
D11*
X95517000Y-74389000D03*
D10*
G36*
X97916505Y-73690204D02*
X97940773Y-73693804D01*
X97964572Y-73699765D01*
X97987671Y-73708030D01*
X98009850Y-73718520D01*
X98030893Y-73731132D01*
X98050599Y-73745747D01*
X98068777Y-73762223D01*
X98085253Y-73780401D01*
X98099868Y-73800107D01*
X98112480Y-73821150D01*
X98122970Y-73843329D01*
X98131235Y-73866428D01*
X98137196Y-73890227D01*
X98140796Y-73914495D01*
X98142000Y-73938999D01*
X98142000Y-74839001D01*
X98140796Y-74863505D01*
X98137196Y-74887773D01*
X98131235Y-74911572D01*
X98122970Y-74934671D01*
X98112480Y-74956850D01*
X98099868Y-74977893D01*
X98085253Y-74997599D01*
X98068777Y-75015777D01*
X98050599Y-75032253D01*
X98030893Y-75046868D01*
X98009850Y-75059480D01*
X97987671Y-75069970D01*
X97964572Y-75078235D01*
X97940773Y-75084196D01*
X97916505Y-75087796D01*
X97892001Y-75089000D01*
X97241999Y-75089000D01*
X97217495Y-75087796D01*
X97193227Y-75084196D01*
X97169428Y-75078235D01*
X97146329Y-75069970D01*
X97124150Y-75059480D01*
X97103107Y-75046868D01*
X97083401Y-75032253D01*
X97065223Y-75015777D01*
X97048747Y-74997599D01*
X97034132Y-74977893D01*
X97021520Y-74956850D01*
X97011030Y-74934671D01*
X97002765Y-74911572D01*
X96996804Y-74887773D01*
X96993204Y-74863505D01*
X96992000Y-74839001D01*
X96992000Y-73938999D01*
X96993204Y-73914495D01*
X96996804Y-73890227D01*
X97002765Y-73866428D01*
X97011030Y-73843329D01*
X97021520Y-73821150D01*
X97034132Y-73800107D01*
X97048747Y-73780401D01*
X97065223Y-73762223D01*
X97083401Y-73745747D01*
X97103107Y-73731132D01*
X97124150Y-73718520D01*
X97146329Y-73708030D01*
X97169428Y-73699765D01*
X97193227Y-73693804D01*
X97217495Y-73690204D01*
X97241999Y-73689000D01*
X97892001Y-73689000D01*
X97916505Y-73690204D01*
X97916505Y-73690204D01*
G37*
D11*
X97567000Y-74389000D03*
G04 #@! TD*
D10*
G04 #@! TO.C,R2*
G36*
X104012505Y-69626204D02*
X104036773Y-69629804D01*
X104060572Y-69635765D01*
X104083671Y-69644030D01*
X104105850Y-69654520D01*
X104126893Y-69667132D01*
X104146599Y-69681747D01*
X104164777Y-69698223D01*
X104181253Y-69716401D01*
X104195868Y-69736107D01*
X104208480Y-69757150D01*
X104218970Y-69779329D01*
X104227235Y-69802428D01*
X104233196Y-69826227D01*
X104236796Y-69850495D01*
X104238000Y-69874999D01*
X104238000Y-70775001D01*
X104236796Y-70799505D01*
X104233196Y-70823773D01*
X104227235Y-70847572D01*
X104218970Y-70870671D01*
X104208480Y-70892850D01*
X104195868Y-70913893D01*
X104181253Y-70933599D01*
X104164777Y-70951777D01*
X104146599Y-70968253D01*
X104126893Y-70982868D01*
X104105850Y-70995480D01*
X104083671Y-71005970D01*
X104060572Y-71014235D01*
X104036773Y-71020196D01*
X104012505Y-71023796D01*
X103988001Y-71025000D01*
X103337999Y-71025000D01*
X103313495Y-71023796D01*
X103289227Y-71020196D01*
X103265428Y-71014235D01*
X103242329Y-71005970D01*
X103220150Y-70995480D01*
X103199107Y-70982868D01*
X103179401Y-70968253D01*
X103161223Y-70951777D01*
X103144747Y-70933599D01*
X103130132Y-70913893D01*
X103117520Y-70892850D01*
X103107030Y-70870671D01*
X103098765Y-70847572D01*
X103092804Y-70823773D01*
X103089204Y-70799505D01*
X103088000Y-70775001D01*
X103088000Y-69874999D01*
X103089204Y-69850495D01*
X103092804Y-69826227D01*
X103098765Y-69802428D01*
X103107030Y-69779329D01*
X103117520Y-69757150D01*
X103130132Y-69736107D01*
X103144747Y-69716401D01*
X103161223Y-69698223D01*
X103179401Y-69681747D01*
X103199107Y-69667132D01*
X103220150Y-69654520D01*
X103242329Y-69644030D01*
X103265428Y-69635765D01*
X103289227Y-69629804D01*
X103313495Y-69626204D01*
X103337999Y-69625000D01*
X103988001Y-69625000D01*
X104012505Y-69626204D01*
X104012505Y-69626204D01*
G37*
D11*
X103663000Y-70325000D03*
D10*
G36*
X101962505Y-69626204D02*
X101986773Y-69629804D01*
X102010572Y-69635765D01*
X102033671Y-69644030D01*
X102055850Y-69654520D01*
X102076893Y-69667132D01*
X102096599Y-69681747D01*
X102114777Y-69698223D01*
X102131253Y-69716401D01*
X102145868Y-69736107D01*
X102158480Y-69757150D01*
X102168970Y-69779329D01*
X102177235Y-69802428D01*
X102183196Y-69826227D01*
X102186796Y-69850495D01*
X102188000Y-69874999D01*
X102188000Y-70775001D01*
X102186796Y-70799505D01*
X102183196Y-70823773D01*
X102177235Y-70847572D01*
X102168970Y-70870671D01*
X102158480Y-70892850D01*
X102145868Y-70913893D01*
X102131253Y-70933599D01*
X102114777Y-70951777D01*
X102096599Y-70968253D01*
X102076893Y-70982868D01*
X102055850Y-70995480D01*
X102033671Y-71005970D01*
X102010572Y-71014235D01*
X101986773Y-71020196D01*
X101962505Y-71023796D01*
X101938001Y-71025000D01*
X101287999Y-71025000D01*
X101263495Y-71023796D01*
X101239227Y-71020196D01*
X101215428Y-71014235D01*
X101192329Y-71005970D01*
X101170150Y-70995480D01*
X101149107Y-70982868D01*
X101129401Y-70968253D01*
X101111223Y-70951777D01*
X101094747Y-70933599D01*
X101080132Y-70913893D01*
X101067520Y-70892850D01*
X101057030Y-70870671D01*
X101048765Y-70847572D01*
X101042804Y-70823773D01*
X101039204Y-70799505D01*
X101038000Y-70775001D01*
X101038000Y-69874999D01*
X101039204Y-69850495D01*
X101042804Y-69826227D01*
X101048765Y-69802428D01*
X101057030Y-69779329D01*
X101067520Y-69757150D01*
X101080132Y-69736107D01*
X101094747Y-69716401D01*
X101111223Y-69698223D01*
X101129401Y-69681747D01*
X101149107Y-69667132D01*
X101170150Y-69654520D01*
X101192329Y-69644030D01*
X101215428Y-69635765D01*
X101239227Y-69629804D01*
X101263495Y-69626204D01*
X101287999Y-69625000D01*
X101938001Y-69625000D01*
X101962505Y-69626204D01*
X101962505Y-69626204D01*
G37*
D11*
X101613000Y-70325000D03*
G04 #@! TD*
D10*
G04 #@! TO.C,R3*
G36*
X95866505Y-78770204D02*
X95890773Y-78773804D01*
X95914572Y-78779765D01*
X95937671Y-78788030D01*
X95959850Y-78798520D01*
X95980893Y-78811132D01*
X96000599Y-78825747D01*
X96018777Y-78842223D01*
X96035253Y-78860401D01*
X96049868Y-78880107D01*
X96062480Y-78901150D01*
X96072970Y-78923329D01*
X96081235Y-78946428D01*
X96087196Y-78970227D01*
X96090796Y-78994495D01*
X96092000Y-79018999D01*
X96092000Y-79919001D01*
X96090796Y-79943505D01*
X96087196Y-79967773D01*
X96081235Y-79991572D01*
X96072970Y-80014671D01*
X96062480Y-80036850D01*
X96049868Y-80057893D01*
X96035253Y-80077599D01*
X96018777Y-80095777D01*
X96000599Y-80112253D01*
X95980893Y-80126868D01*
X95959850Y-80139480D01*
X95937671Y-80149970D01*
X95914572Y-80158235D01*
X95890773Y-80164196D01*
X95866505Y-80167796D01*
X95842001Y-80169000D01*
X95191999Y-80169000D01*
X95167495Y-80167796D01*
X95143227Y-80164196D01*
X95119428Y-80158235D01*
X95096329Y-80149970D01*
X95074150Y-80139480D01*
X95053107Y-80126868D01*
X95033401Y-80112253D01*
X95015223Y-80095777D01*
X94998747Y-80077599D01*
X94984132Y-80057893D01*
X94971520Y-80036850D01*
X94961030Y-80014671D01*
X94952765Y-79991572D01*
X94946804Y-79967773D01*
X94943204Y-79943505D01*
X94942000Y-79919001D01*
X94942000Y-79018999D01*
X94943204Y-78994495D01*
X94946804Y-78970227D01*
X94952765Y-78946428D01*
X94961030Y-78923329D01*
X94971520Y-78901150D01*
X94984132Y-78880107D01*
X94998747Y-78860401D01*
X95015223Y-78842223D01*
X95033401Y-78825747D01*
X95053107Y-78811132D01*
X95074150Y-78798520D01*
X95096329Y-78788030D01*
X95119428Y-78779765D01*
X95143227Y-78773804D01*
X95167495Y-78770204D01*
X95191999Y-78769000D01*
X95842001Y-78769000D01*
X95866505Y-78770204D01*
X95866505Y-78770204D01*
G37*
D11*
X95517000Y-79469000D03*
D10*
G36*
X97916505Y-78770204D02*
X97940773Y-78773804D01*
X97964572Y-78779765D01*
X97987671Y-78788030D01*
X98009850Y-78798520D01*
X98030893Y-78811132D01*
X98050599Y-78825747D01*
X98068777Y-78842223D01*
X98085253Y-78860401D01*
X98099868Y-78880107D01*
X98112480Y-78901150D01*
X98122970Y-78923329D01*
X98131235Y-78946428D01*
X98137196Y-78970227D01*
X98140796Y-78994495D01*
X98142000Y-79018999D01*
X98142000Y-79919001D01*
X98140796Y-79943505D01*
X98137196Y-79967773D01*
X98131235Y-79991572D01*
X98122970Y-80014671D01*
X98112480Y-80036850D01*
X98099868Y-80057893D01*
X98085253Y-80077599D01*
X98068777Y-80095777D01*
X98050599Y-80112253D01*
X98030893Y-80126868D01*
X98009850Y-80139480D01*
X97987671Y-80149970D01*
X97964572Y-80158235D01*
X97940773Y-80164196D01*
X97916505Y-80167796D01*
X97892001Y-80169000D01*
X97241999Y-80169000D01*
X97217495Y-80167796D01*
X97193227Y-80164196D01*
X97169428Y-80158235D01*
X97146329Y-80149970D01*
X97124150Y-80139480D01*
X97103107Y-80126868D01*
X97083401Y-80112253D01*
X97065223Y-80095777D01*
X97048747Y-80077599D01*
X97034132Y-80057893D01*
X97021520Y-80036850D01*
X97011030Y-80014671D01*
X97002765Y-79991572D01*
X96996804Y-79967773D01*
X96993204Y-79943505D01*
X96992000Y-79919001D01*
X96992000Y-79018999D01*
X96993204Y-78994495D01*
X96996804Y-78970227D01*
X97002765Y-78946428D01*
X97011030Y-78923329D01*
X97021520Y-78901150D01*
X97034132Y-78880107D01*
X97048747Y-78860401D01*
X97065223Y-78842223D01*
X97083401Y-78825747D01*
X97103107Y-78811132D01*
X97124150Y-78798520D01*
X97146329Y-78788030D01*
X97169428Y-78779765D01*
X97193227Y-78773804D01*
X97217495Y-78770204D01*
X97241999Y-78769000D01*
X97892001Y-78769000D01*
X97916505Y-78770204D01*
X97916505Y-78770204D01*
G37*
D11*
X97567000Y-79469000D03*
G04 #@! TD*
D10*
G04 #@! TO.C,R4*
G36*
X97916505Y-76230204D02*
X97940773Y-76233804D01*
X97964572Y-76239765D01*
X97987671Y-76248030D01*
X98009850Y-76258520D01*
X98030893Y-76271132D01*
X98050599Y-76285747D01*
X98068777Y-76302223D01*
X98085253Y-76320401D01*
X98099868Y-76340107D01*
X98112480Y-76361150D01*
X98122970Y-76383329D01*
X98131235Y-76406428D01*
X98137196Y-76430227D01*
X98140796Y-76454495D01*
X98142000Y-76478999D01*
X98142000Y-77379001D01*
X98140796Y-77403505D01*
X98137196Y-77427773D01*
X98131235Y-77451572D01*
X98122970Y-77474671D01*
X98112480Y-77496850D01*
X98099868Y-77517893D01*
X98085253Y-77537599D01*
X98068777Y-77555777D01*
X98050599Y-77572253D01*
X98030893Y-77586868D01*
X98009850Y-77599480D01*
X97987671Y-77609970D01*
X97964572Y-77618235D01*
X97940773Y-77624196D01*
X97916505Y-77627796D01*
X97892001Y-77629000D01*
X97241999Y-77629000D01*
X97217495Y-77627796D01*
X97193227Y-77624196D01*
X97169428Y-77618235D01*
X97146329Y-77609970D01*
X97124150Y-77599480D01*
X97103107Y-77586868D01*
X97083401Y-77572253D01*
X97065223Y-77555777D01*
X97048747Y-77537599D01*
X97034132Y-77517893D01*
X97021520Y-77496850D01*
X97011030Y-77474671D01*
X97002765Y-77451572D01*
X96996804Y-77427773D01*
X96993204Y-77403505D01*
X96992000Y-77379001D01*
X96992000Y-76478999D01*
X96993204Y-76454495D01*
X96996804Y-76430227D01*
X97002765Y-76406428D01*
X97011030Y-76383329D01*
X97021520Y-76361150D01*
X97034132Y-76340107D01*
X97048747Y-76320401D01*
X97065223Y-76302223D01*
X97083401Y-76285747D01*
X97103107Y-76271132D01*
X97124150Y-76258520D01*
X97146329Y-76248030D01*
X97169428Y-76239765D01*
X97193227Y-76233804D01*
X97217495Y-76230204D01*
X97241999Y-76229000D01*
X97892001Y-76229000D01*
X97916505Y-76230204D01*
X97916505Y-76230204D01*
G37*
D11*
X97567000Y-76929000D03*
D10*
G36*
X95866505Y-76230204D02*
X95890773Y-76233804D01*
X95914572Y-76239765D01*
X95937671Y-76248030D01*
X95959850Y-76258520D01*
X95980893Y-76271132D01*
X96000599Y-76285747D01*
X96018777Y-76302223D01*
X96035253Y-76320401D01*
X96049868Y-76340107D01*
X96062480Y-76361150D01*
X96072970Y-76383329D01*
X96081235Y-76406428D01*
X96087196Y-76430227D01*
X96090796Y-76454495D01*
X96092000Y-76478999D01*
X96092000Y-77379001D01*
X96090796Y-77403505D01*
X96087196Y-77427773D01*
X96081235Y-77451572D01*
X96072970Y-77474671D01*
X96062480Y-77496850D01*
X96049868Y-77517893D01*
X96035253Y-77537599D01*
X96018777Y-77555777D01*
X96000599Y-77572253D01*
X95980893Y-77586868D01*
X95959850Y-77599480D01*
X95937671Y-77609970D01*
X95914572Y-77618235D01*
X95890773Y-77624196D01*
X95866505Y-77627796D01*
X95842001Y-77629000D01*
X95191999Y-77629000D01*
X95167495Y-77627796D01*
X95143227Y-77624196D01*
X95119428Y-77618235D01*
X95096329Y-77609970D01*
X95074150Y-77599480D01*
X95053107Y-77586868D01*
X95033401Y-77572253D01*
X95015223Y-77555777D01*
X94998747Y-77537599D01*
X94984132Y-77517893D01*
X94971520Y-77496850D01*
X94961030Y-77474671D01*
X94952765Y-77451572D01*
X94946804Y-77427773D01*
X94943204Y-77403505D01*
X94942000Y-77379001D01*
X94942000Y-76478999D01*
X94943204Y-76454495D01*
X94946804Y-76430227D01*
X94952765Y-76406428D01*
X94961030Y-76383329D01*
X94971520Y-76361150D01*
X94984132Y-76340107D01*
X94998747Y-76320401D01*
X95015223Y-76302223D01*
X95033401Y-76285747D01*
X95053107Y-76271132D01*
X95074150Y-76258520D01*
X95096329Y-76248030D01*
X95119428Y-76239765D01*
X95143227Y-76233804D01*
X95167495Y-76230204D01*
X95191999Y-76229000D01*
X95842001Y-76229000D01*
X95866505Y-76230204D01*
X95866505Y-76230204D01*
G37*
D11*
X95517000Y-76929000D03*
G04 #@! TD*
D10*
G04 #@! TO.C,R5*
G36*
X115569505Y-71531204D02*
X115593773Y-71534804D01*
X115617572Y-71540765D01*
X115640671Y-71549030D01*
X115662850Y-71559520D01*
X115683893Y-71572132D01*
X115703599Y-71586747D01*
X115721777Y-71603223D01*
X115738253Y-71621401D01*
X115752868Y-71641107D01*
X115765480Y-71662150D01*
X115775970Y-71684329D01*
X115784235Y-71707428D01*
X115790196Y-71731227D01*
X115793796Y-71755495D01*
X115795000Y-71779999D01*
X115795000Y-72680001D01*
X115793796Y-72704505D01*
X115790196Y-72728773D01*
X115784235Y-72752572D01*
X115775970Y-72775671D01*
X115765480Y-72797850D01*
X115752868Y-72818893D01*
X115738253Y-72838599D01*
X115721777Y-72856777D01*
X115703599Y-72873253D01*
X115683893Y-72887868D01*
X115662850Y-72900480D01*
X115640671Y-72910970D01*
X115617572Y-72919235D01*
X115593773Y-72925196D01*
X115569505Y-72928796D01*
X115545001Y-72930000D01*
X114894999Y-72930000D01*
X114870495Y-72928796D01*
X114846227Y-72925196D01*
X114822428Y-72919235D01*
X114799329Y-72910970D01*
X114777150Y-72900480D01*
X114756107Y-72887868D01*
X114736401Y-72873253D01*
X114718223Y-72856777D01*
X114701747Y-72838599D01*
X114687132Y-72818893D01*
X114674520Y-72797850D01*
X114664030Y-72775671D01*
X114655765Y-72752572D01*
X114649804Y-72728773D01*
X114646204Y-72704505D01*
X114645000Y-72680001D01*
X114645000Y-71779999D01*
X114646204Y-71755495D01*
X114649804Y-71731227D01*
X114655765Y-71707428D01*
X114664030Y-71684329D01*
X114674520Y-71662150D01*
X114687132Y-71641107D01*
X114701747Y-71621401D01*
X114718223Y-71603223D01*
X114736401Y-71586747D01*
X114756107Y-71572132D01*
X114777150Y-71559520D01*
X114799329Y-71549030D01*
X114822428Y-71540765D01*
X114846227Y-71534804D01*
X114870495Y-71531204D01*
X114894999Y-71530000D01*
X115545001Y-71530000D01*
X115569505Y-71531204D01*
X115569505Y-71531204D01*
G37*
D11*
X115220000Y-72230000D03*
D10*
G36*
X113519505Y-71531204D02*
X113543773Y-71534804D01*
X113567572Y-71540765D01*
X113590671Y-71549030D01*
X113612850Y-71559520D01*
X113633893Y-71572132D01*
X113653599Y-71586747D01*
X113671777Y-71603223D01*
X113688253Y-71621401D01*
X113702868Y-71641107D01*
X113715480Y-71662150D01*
X113725970Y-71684329D01*
X113734235Y-71707428D01*
X113740196Y-71731227D01*
X113743796Y-71755495D01*
X113745000Y-71779999D01*
X113745000Y-72680001D01*
X113743796Y-72704505D01*
X113740196Y-72728773D01*
X113734235Y-72752572D01*
X113725970Y-72775671D01*
X113715480Y-72797850D01*
X113702868Y-72818893D01*
X113688253Y-72838599D01*
X113671777Y-72856777D01*
X113653599Y-72873253D01*
X113633893Y-72887868D01*
X113612850Y-72900480D01*
X113590671Y-72910970D01*
X113567572Y-72919235D01*
X113543773Y-72925196D01*
X113519505Y-72928796D01*
X113495001Y-72930000D01*
X112844999Y-72930000D01*
X112820495Y-72928796D01*
X112796227Y-72925196D01*
X112772428Y-72919235D01*
X112749329Y-72910970D01*
X112727150Y-72900480D01*
X112706107Y-72887868D01*
X112686401Y-72873253D01*
X112668223Y-72856777D01*
X112651747Y-72838599D01*
X112637132Y-72818893D01*
X112624520Y-72797850D01*
X112614030Y-72775671D01*
X112605765Y-72752572D01*
X112599804Y-72728773D01*
X112596204Y-72704505D01*
X112595000Y-72680001D01*
X112595000Y-71779999D01*
X112596204Y-71755495D01*
X112599804Y-71731227D01*
X112605765Y-71707428D01*
X112614030Y-71684329D01*
X112624520Y-71662150D01*
X112637132Y-71641107D01*
X112651747Y-71621401D01*
X112668223Y-71603223D01*
X112686401Y-71586747D01*
X112706107Y-71572132D01*
X112727150Y-71559520D01*
X112749329Y-71549030D01*
X112772428Y-71540765D01*
X112796227Y-71534804D01*
X112820495Y-71531204D01*
X112844999Y-71530000D01*
X113495001Y-71530000D01*
X113519505Y-71531204D01*
X113519505Y-71531204D01*
G37*
D11*
X113170000Y-72230000D03*
G04 #@! TD*
D10*
G04 #@! TO.C,R6*
G36*
X113519505Y-66451204D02*
X113543773Y-66454804D01*
X113567572Y-66460765D01*
X113590671Y-66469030D01*
X113612850Y-66479520D01*
X113633893Y-66492132D01*
X113653599Y-66506747D01*
X113671777Y-66523223D01*
X113688253Y-66541401D01*
X113702868Y-66561107D01*
X113715480Y-66582150D01*
X113725970Y-66604329D01*
X113734235Y-66627428D01*
X113740196Y-66651227D01*
X113743796Y-66675495D01*
X113745000Y-66699999D01*
X113745000Y-67600001D01*
X113743796Y-67624505D01*
X113740196Y-67648773D01*
X113734235Y-67672572D01*
X113725970Y-67695671D01*
X113715480Y-67717850D01*
X113702868Y-67738893D01*
X113688253Y-67758599D01*
X113671777Y-67776777D01*
X113653599Y-67793253D01*
X113633893Y-67807868D01*
X113612850Y-67820480D01*
X113590671Y-67830970D01*
X113567572Y-67839235D01*
X113543773Y-67845196D01*
X113519505Y-67848796D01*
X113495001Y-67850000D01*
X112844999Y-67850000D01*
X112820495Y-67848796D01*
X112796227Y-67845196D01*
X112772428Y-67839235D01*
X112749329Y-67830970D01*
X112727150Y-67820480D01*
X112706107Y-67807868D01*
X112686401Y-67793253D01*
X112668223Y-67776777D01*
X112651747Y-67758599D01*
X112637132Y-67738893D01*
X112624520Y-67717850D01*
X112614030Y-67695671D01*
X112605765Y-67672572D01*
X112599804Y-67648773D01*
X112596204Y-67624505D01*
X112595000Y-67600001D01*
X112595000Y-66699999D01*
X112596204Y-66675495D01*
X112599804Y-66651227D01*
X112605765Y-66627428D01*
X112614030Y-66604329D01*
X112624520Y-66582150D01*
X112637132Y-66561107D01*
X112651747Y-66541401D01*
X112668223Y-66523223D01*
X112686401Y-66506747D01*
X112706107Y-66492132D01*
X112727150Y-66479520D01*
X112749329Y-66469030D01*
X112772428Y-66460765D01*
X112796227Y-66454804D01*
X112820495Y-66451204D01*
X112844999Y-66450000D01*
X113495001Y-66450000D01*
X113519505Y-66451204D01*
X113519505Y-66451204D01*
G37*
D11*
X113170000Y-67150000D03*
D10*
G36*
X115569505Y-66451204D02*
X115593773Y-66454804D01*
X115617572Y-66460765D01*
X115640671Y-66469030D01*
X115662850Y-66479520D01*
X115683893Y-66492132D01*
X115703599Y-66506747D01*
X115721777Y-66523223D01*
X115738253Y-66541401D01*
X115752868Y-66561107D01*
X115765480Y-66582150D01*
X115775970Y-66604329D01*
X115784235Y-66627428D01*
X115790196Y-66651227D01*
X115793796Y-66675495D01*
X115795000Y-66699999D01*
X115795000Y-67600001D01*
X115793796Y-67624505D01*
X115790196Y-67648773D01*
X115784235Y-67672572D01*
X115775970Y-67695671D01*
X115765480Y-67717850D01*
X115752868Y-67738893D01*
X115738253Y-67758599D01*
X115721777Y-67776777D01*
X115703599Y-67793253D01*
X115683893Y-67807868D01*
X115662850Y-67820480D01*
X115640671Y-67830970D01*
X115617572Y-67839235D01*
X115593773Y-67845196D01*
X115569505Y-67848796D01*
X115545001Y-67850000D01*
X114894999Y-67850000D01*
X114870495Y-67848796D01*
X114846227Y-67845196D01*
X114822428Y-67839235D01*
X114799329Y-67830970D01*
X114777150Y-67820480D01*
X114756107Y-67807868D01*
X114736401Y-67793253D01*
X114718223Y-67776777D01*
X114701747Y-67758599D01*
X114687132Y-67738893D01*
X114674520Y-67717850D01*
X114664030Y-67695671D01*
X114655765Y-67672572D01*
X114649804Y-67648773D01*
X114646204Y-67624505D01*
X114645000Y-67600001D01*
X114645000Y-66699999D01*
X114646204Y-66675495D01*
X114649804Y-66651227D01*
X114655765Y-66627428D01*
X114664030Y-66604329D01*
X114674520Y-66582150D01*
X114687132Y-66561107D01*
X114701747Y-66541401D01*
X114718223Y-66523223D01*
X114736401Y-66506747D01*
X114756107Y-66492132D01*
X114777150Y-66479520D01*
X114799329Y-66469030D01*
X114822428Y-66460765D01*
X114846227Y-66454804D01*
X114870495Y-66451204D01*
X114894999Y-66450000D01*
X115545001Y-66450000D01*
X115569505Y-66451204D01*
X115569505Y-66451204D01*
G37*
D11*
X115220000Y-67150000D03*
G04 #@! TD*
D17*
G04 #@! TO.C,U2*
X101688000Y-72781000D03*
X103588000Y-72781000D03*
X103588000Y-74981000D03*
X102638000Y-74981000D03*
X101688000Y-74981000D03*
G04 #@! TD*
D18*
G04 #@! TO.C,U3*
X109766000Y-83133000D03*
X111766000Y-82183000D03*
X111766000Y-84083000D03*
G04 #@! TD*
D19*
G04 #@! TO.C,U1*
X135384000Y-71124000D03*
X135384000Y-73124000D03*
X135384000Y-75124000D03*
X135384000Y-77124000D03*
X135384000Y-79124000D03*
X135384000Y-81124000D03*
X135384000Y-83124000D03*
X135384000Y-85124000D03*
D20*
X132784000Y-86624000D03*
X130784000Y-86624000D03*
X128784000Y-86624000D03*
X126784000Y-86624000D03*
X124784000Y-86624000D03*
X122784000Y-86624000D03*
D19*
X120184000Y-85124000D03*
X120184000Y-83124000D03*
X120184000Y-81124000D03*
X120184000Y-79124000D03*
X120184000Y-77124000D03*
X120184000Y-75124000D03*
X120184000Y-73124000D03*
X120184000Y-71124000D03*
G04 #@! TD*
D10*
G04 #@! TO.C,U6*
G36*
X150249802Y-131630482D02*
X150259509Y-131631921D01*
X150269028Y-131634306D01*
X150278268Y-131637612D01*
X150287140Y-131641808D01*
X150295557Y-131646853D01*
X150303439Y-131652699D01*
X150310711Y-131659289D01*
X150317301Y-131666561D01*
X150323147Y-131674443D01*
X150328192Y-131682860D01*
X150332388Y-131691732D01*
X150335694Y-131700972D01*
X150338079Y-131710491D01*
X150339518Y-131720198D01*
X150340000Y-131730000D01*
X150340000Y-131930000D01*
X150339518Y-131939802D01*
X150338079Y-131949509D01*
X150335694Y-131959028D01*
X150332388Y-131968268D01*
X150328192Y-131977140D01*
X150323147Y-131985557D01*
X150317301Y-131993439D01*
X150310711Y-132000711D01*
X150303439Y-132007301D01*
X150295557Y-132013147D01*
X150287140Y-132018192D01*
X150278268Y-132022388D01*
X150269028Y-132025694D01*
X150259509Y-132028079D01*
X150249802Y-132029518D01*
X150240000Y-132030000D01*
X149640000Y-132030000D01*
X149630198Y-132029518D01*
X149620491Y-132028079D01*
X149610972Y-132025694D01*
X149601732Y-132022388D01*
X149592860Y-132018192D01*
X149584443Y-132013147D01*
X149576561Y-132007301D01*
X149569289Y-132000711D01*
X149562699Y-131993439D01*
X149556853Y-131985557D01*
X149551808Y-131977140D01*
X149547612Y-131968268D01*
X149544306Y-131959028D01*
X149541921Y-131949509D01*
X149540482Y-131939802D01*
X149540000Y-131930000D01*
X149540000Y-131730000D01*
X149540482Y-131720198D01*
X149541921Y-131710491D01*
X149544306Y-131700972D01*
X149547612Y-131691732D01*
X149551808Y-131682860D01*
X149556853Y-131674443D01*
X149562699Y-131666561D01*
X149569289Y-131659289D01*
X149576561Y-131652699D01*
X149584443Y-131646853D01*
X149592860Y-131641808D01*
X149601732Y-131637612D01*
X149610972Y-131634306D01*
X149620491Y-131631921D01*
X149630198Y-131630482D01*
X149640000Y-131630000D01*
X150240000Y-131630000D01*
X150249802Y-131630482D01*
X150249802Y-131630482D01*
G37*
D21*
X149940000Y-131830000D03*
D10*
G36*
X150249802Y-130630482D02*
X150259509Y-130631921D01*
X150269028Y-130634306D01*
X150278268Y-130637612D01*
X150287140Y-130641808D01*
X150295557Y-130646853D01*
X150303439Y-130652699D01*
X150310711Y-130659289D01*
X150317301Y-130666561D01*
X150323147Y-130674443D01*
X150328192Y-130682860D01*
X150332388Y-130691732D01*
X150335694Y-130700972D01*
X150338079Y-130710491D01*
X150339518Y-130720198D01*
X150340000Y-130730000D01*
X150340000Y-130930000D01*
X150339518Y-130939802D01*
X150338079Y-130949509D01*
X150335694Y-130959028D01*
X150332388Y-130968268D01*
X150328192Y-130977140D01*
X150323147Y-130985557D01*
X150317301Y-130993439D01*
X150310711Y-131000711D01*
X150303439Y-131007301D01*
X150295557Y-131013147D01*
X150287140Y-131018192D01*
X150278268Y-131022388D01*
X150269028Y-131025694D01*
X150259509Y-131028079D01*
X150249802Y-131029518D01*
X150240000Y-131030000D01*
X149640000Y-131030000D01*
X149630198Y-131029518D01*
X149620491Y-131028079D01*
X149610972Y-131025694D01*
X149601732Y-131022388D01*
X149592860Y-131018192D01*
X149584443Y-131013147D01*
X149576561Y-131007301D01*
X149569289Y-131000711D01*
X149562699Y-130993439D01*
X149556853Y-130985557D01*
X149551808Y-130977140D01*
X149547612Y-130968268D01*
X149544306Y-130959028D01*
X149541921Y-130949509D01*
X149540482Y-130939802D01*
X149540000Y-130930000D01*
X149540000Y-130730000D01*
X149540482Y-130720198D01*
X149541921Y-130710491D01*
X149544306Y-130700972D01*
X149547612Y-130691732D01*
X149551808Y-130682860D01*
X149556853Y-130674443D01*
X149562699Y-130666561D01*
X149569289Y-130659289D01*
X149576561Y-130652699D01*
X149584443Y-130646853D01*
X149592860Y-130641808D01*
X149601732Y-130637612D01*
X149610972Y-130634306D01*
X149620491Y-130631921D01*
X149630198Y-130630482D01*
X149640000Y-130630000D01*
X150240000Y-130630000D01*
X150249802Y-130630482D01*
X150249802Y-130630482D01*
G37*
D21*
X149940000Y-130830000D03*
D10*
G36*
X150249802Y-129630482D02*
X150259509Y-129631921D01*
X150269028Y-129634306D01*
X150278268Y-129637612D01*
X150287140Y-129641808D01*
X150295557Y-129646853D01*
X150303439Y-129652699D01*
X150310711Y-129659289D01*
X150317301Y-129666561D01*
X150323147Y-129674443D01*
X150328192Y-129682860D01*
X150332388Y-129691732D01*
X150335694Y-129700972D01*
X150338079Y-129710491D01*
X150339518Y-129720198D01*
X150340000Y-129730000D01*
X150340000Y-129930000D01*
X150339518Y-129939802D01*
X150338079Y-129949509D01*
X150335694Y-129959028D01*
X150332388Y-129968268D01*
X150328192Y-129977140D01*
X150323147Y-129985557D01*
X150317301Y-129993439D01*
X150310711Y-130000711D01*
X150303439Y-130007301D01*
X150295557Y-130013147D01*
X150287140Y-130018192D01*
X150278268Y-130022388D01*
X150269028Y-130025694D01*
X150259509Y-130028079D01*
X150249802Y-130029518D01*
X150240000Y-130030000D01*
X149640000Y-130030000D01*
X149630198Y-130029518D01*
X149620491Y-130028079D01*
X149610972Y-130025694D01*
X149601732Y-130022388D01*
X149592860Y-130018192D01*
X149584443Y-130013147D01*
X149576561Y-130007301D01*
X149569289Y-130000711D01*
X149562699Y-129993439D01*
X149556853Y-129985557D01*
X149551808Y-129977140D01*
X149547612Y-129968268D01*
X149544306Y-129959028D01*
X149541921Y-129949509D01*
X149540482Y-129939802D01*
X149540000Y-129930000D01*
X149540000Y-129730000D01*
X149540482Y-129720198D01*
X149541921Y-129710491D01*
X149544306Y-129700972D01*
X149547612Y-129691732D01*
X149551808Y-129682860D01*
X149556853Y-129674443D01*
X149562699Y-129666561D01*
X149569289Y-129659289D01*
X149576561Y-129652699D01*
X149584443Y-129646853D01*
X149592860Y-129641808D01*
X149601732Y-129637612D01*
X149610972Y-129634306D01*
X149620491Y-129631921D01*
X149630198Y-129630482D01*
X149640000Y-129630000D01*
X150240000Y-129630000D01*
X150249802Y-129630482D01*
X150249802Y-129630482D01*
G37*
D21*
X149940000Y-129830000D03*
D10*
G36*
X153149802Y-129630482D02*
X153159509Y-129631921D01*
X153169028Y-129634306D01*
X153178268Y-129637612D01*
X153187140Y-129641808D01*
X153195557Y-129646853D01*
X153203439Y-129652699D01*
X153210711Y-129659289D01*
X153217301Y-129666561D01*
X153223147Y-129674443D01*
X153228192Y-129682860D01*
X153232388Y-129691732D01*
X153235694Y-129700972D01*
X153238079Y-129710491D01*
X153239518Y-129720198D01*
X153240000Y-129730000D01*
X153240000Y-129930000D01*
X153239518Y-129939802D01*
X153238079Y-129949509D01*
X153235694Y-129959028D01*
X153232388Y-129968268D01*
X153228192Y-129977140D01*
X153223147Y-129985557D01*
X153217301Y-129993439D01*
X153210711Y-130000711D01*
X153203439Y-130007301D01*
X153195557Y-130013147D01*
X153187140Y-130018192D01*
X153178268Y-130022388D01*
X153169028Y-130025694D01*
X153159509Y-130028079D01*
X153149802Y-130029518D01*
X153140000Y-130030000D01*
X152540000Y-130030000D01*
X152530198Y-130029518D01*
X152520491Y-130028079D01*
X152510972Y-130025694D01*
X152501732Y-130022388D01*
X152492860Y-130018192D01*
X152484443Y-130013147D01*
X152476561Y-130007301D01*
X152469289Y-130000711D01*
X152462699Y-129993439D01*
X152456853Y-129985557D01*
X152451808Y-129977140D01*
X152447612Y-129968268D01*
X152444306Y-129959028D01*
X152441921Y-129949509D01*
X152440482Y-129939802D01*
X152440000Y-129930000D01*
X152440000Y-129730000D01*
X152440482Y-129720198D01*
X152441921Y-129710491D01*
X152444306Y-129700972D01*
X152447612Y-129691732D01*
X152451808Y-129682860D01*
X152456853Y-129674443D01*
X152462699Y-129666561D01*
X152469289Y-129659289D01*
X152476561Y-129652699D01*
X152484443Y-129646853D01*
X152492860Y-129641808D01*
X152501732Y-129637612D01*
X152510972Y-129634306D01*
X152520491Y-129631921D01*
X152530198Y-129630482D01*
X152540000Y-129630000D01*
X153140000Y-129630000D01*
X153149802Y-129630482D01*
X153149802Y-129630482D01*
G37*
D21*
X152840000Y-129830000D03*
D10*
G36*
X153149802Y-130630482D02*
X153159509Y-130631921D01*
X153169028Y-130634306D01*
X153178268Y-130637612D01*
X153187140Y-130641808D01*
X153195557Y-130646853D01*
X153203439Y-130652699D01*
X153210711Y-130659289D01*
X153217301Y-130666561D01*
X153223147Y-130674443D01*
X153228192Y-130682860D01*
X153232388Y-130691732D01*
X153235694Y-130700972D01*
X153238079Y-130710491D01*
X153239518Y-130720198D01*
X153240000Y-130730000D01*
X153240000Y-130930000D01*
X153239518Y-130939802D01*
X153238079Y-130949509D01*
X153235694Y-130959028D01*
X153232388Y-130968268D01*
X153228192Y-130977140D01*
X153223147Y-130985557D01*
X153217301Y-130993439D01*
X153210711Y-131000711D01*
X153203439Y-131007301D01*
X153195557Y-131013147D01*
X153187140Y-131018192D01*
X153178268Y-131022388D01*
X153169028Y-131025694D01*
X153159509Y-131028079D01*
X153149802Y-131029518D01*
X153140000Y-131030000D01*
X152540000Y-131030000D01*
X152530198Y-131029518D01*
X152520491Y-131028079D01*
X152510972Y-131025694D01*
X152501732Y-131022388D01*
X152492860Y-131018192D01*
X152484443Y-131013147D01*
X152476561Y-131007301D01*
X152469289Y-131000711D01*
X152462699Y-130993439D01*
X152456853Y-130985557D01*
X152451808Y-130977140D01*
X152447612Y-130968268D01*
X152444306Y-130959028D01*
X152441921Y-130949509D01*
X152440482Y-130939802D01*
X152440000Y-130930000D01*
X152440000Y-130730000D01*
X152440482Y-130720198D01*
X152441921Y-130710491D01*
X152444306Y-130700972D01*
X152447612Y-130691732D01*
X152451808Y-130682860D01*
X152456853Y-130674443D01*
X152462699Y-130666561D01*
X152469289Y-130659289D01*
X152476561Y-130652699D01*
X152484443Y-130646853D01*
X152492860Y-130641808D01*
X152501732Y-130637612D01*
X152510972Y-130634306D01*
X152520491Y-130631921D01*
X152530198Y-130630482D01*
X152540000Y-130630000D01*
X153140000Y-130630000D01*
X153149802Y-130630482D01*
X153149802Y-130630482D01*
G37*
D21*
X152840000Y-130830000D03*
D10*
G36*
X153149802Y-131630482D02*
X153159509Y-131631921D01*
X153169028Y-131634306D01*
X153178268Y-131637612D01*
X153187140Y-131641808D01*
X153195557Y-131646853D01*
X153203439Y-131652699D01*
X153210711Y-131659289D01*
X153217301Y-131666561D01*
X153223147Y-131674443D01*
X153228192Y-131682860D01*
X153232388Y-131691732D01*
X153235694Y-131700972D01*
X153238079Y-131710491D01*
X153239518Y-131720198D01*
X153240000Y-131730000D01*
X153240000Y-131930000D01*
X153239518Y-131939802D01*
X153238079Y-131949509D01*
X153235694Y-131959028D01*
X153232388Y-131968268D01*
X153228192Y-131977140D01*
X153223147Y-131985557D01*
X153217301Y-131993439D01*
X153210711Y-132000711D01*
X153203439Y-132007301D01*
X153195557Y-132013147D01*
X153187140Y-132018192D01*
X153178268Y-132022388D01*
X153169028Y-132025694D01*
X153159509Y-132028079D01*
X153149802Y-132029518D01*
X153140000Y-132030000D01*
X152540000Y-132030000D01*
X152530198Y-132029518D01*
X152520491Y-132028079D01*
X152510972Y-132025694D01*
X152501732Y-132022388D01*
X152492860Y-132018192D01*
X152484443Y-132013147D01*
X152476561Y-132007301D01*
X152469289Y-132000711D01*
X152462699Y-131993439D01*
X152456853Y-131985557D01*
X152451808Y-131977140D01*
X152447612Y-131968268D01*
X152444306Y-131959028D01*
X152441921Y-131949509D01*
X152440482Y-131939802D01*
X152440000Y-131930000D01*
X152440000Y-131730000D01*
X152440482Y-131720198D01*
X152441921Y-131710491D01*
X152444306Y-131700972D01*
X152447612Y-131691732D01*
X152451808Y-131682860D01*
X152456853Y-131674443D01*
X152462699Y-131666561D01*
X152469289Y-131659289D01*
X152476561Y-131652699D01*
X152484443Y-131646853D01*
X152492860Y-131641808D01*
X152501732Y-131637612D01*
X152510972Y-131634306D01*
X152520491Y-131631921D01*
X152530198Y-131630482D01*
X152540000Y-131630000D01*
X153140000Y-131630000D01*
X153149802Y-131630482D01*
X153149802Y-131630482D01*
G37*
D21*
X152840000Y-131830000D03*
D10*
G36*
X151179703Y-129745722D02*
X151194264Y-129747882D01*
X151208543Y-129751459D01*
X151222403Y-129756418D01*
X151235710Y-129762712D01*
X151248336Y-129770280D01*
X151260159Y-129779048D01*
X151271066Y-129788934D01*
X151280952Y-129799841D01*
X151289720Y-129811664D01*
X151297288Y-129824290D01*
X151303582Y-129837597D01*
X151308541Y-129851457D01*
X151312118Y-129865736D01*
X151314278Y-129880297D01*
X151315000Y-129895000D01*
X151315000Y-130565000D01*
X151314278Y-130579703D01*
X151312118Y-130594264D01*
X151308541Y-130608543D01*
X151303582Y-130622403D01*
X151297288Y-130635710D01*
X151289720Y-130648336D01*
X151280952Y-130660159D01*
X151271066Y-130671066D01*
X151260159Y-130680952D01*
X151248336Y-130689720D01*
X151235710Y-130697288D01*
X151222403Y-130703582D01*
X151208543Y-130708541D01*
X151194264Y-130712118D01*
X151179703Y-130714278D01*
X151165000Y-130715000D01*
X150865000Y-130715000D01*
X150850297Y-130714278D01*
X150835736Y-130712118D01*
X150821457Y-130708541D01*
X150807597Y-130703582D01*
X150794290Y-130697288D01*
X150781664Y-130689720D01*
X150769841Y-130680952D01*
X150758934Y-130671066D01*
X150749048Y-130660159D01*
X150740280Y-130648336D01*
X150732712Y-130635710D01*
X150726418Y-130622403D01*
X150721459Y-130608543D01*
X150717882Y-130594264D01*
X150715722Y-130579703D01*
X150715000Y-130565000D01*
X150715000Y-129895000D01*
X150715722Y-129880297D01*
X150717882Y-129865736D01*
X150721459Y-129851457D01*
X150726418Y-129837597D01*
X150732712Y-129824290D01*
X150740280Y-129811664D01*
X150749048Y-129799841D01*
X150758934Y-129788934D01*
X150769841Y-129779048D01*
X150781664Y-129770280D01*
X150794290Y-129762712D01*
X150807597Y-129756418D01*
X150821457Y-129751459D01*
X150835736Y-129747882D01*
X150850297Y-129745722D01*
X150865000Y-129745000D01*
X151165000Y-129745000D01*
X151179703Y-129745722D01*
X151179703Y-129745722D01*
G37*
D22*
X151015000Y-130230000D03*
D10*
G36*
X151179703Y-130945722D02*
X151194264Y-130947882D01*
X151208543Y-130951459D01*
X151222403Y-130956418D01*
X151235710Y-130962712D01*
X151248336Y-130970280D01*
X151260159Y-130979048D01*
X151271066Y-130988934D01*
X151280952Y-130999841D01*
X151289720Y-131011664D01*
X151297288Y-131024290D01*
X151303582Y-131037597D01*
X151308541Y-131051457D01*
X151312118Y-131065736D01*
X151314278Y-131080297D01*
X151315000Y-131095000D01*
X151315000Y-131765000D01*
X151314278Y-131779703D01*
X151312118Y-131794264D01*
X151308541Y-131808543D01*
X151303582Y-131822403D01*
X151297288Y-131835710D01*
X151289720Y-131848336D01*
X151280952Y-131860159D01*
X151271066Y-131871066D01*
X151260159Y-131880952D01*
X151248336Y-131889720D01*
X151235710Y-131897288D01*
X151222403Y-131903582D01*
X151208543Y-131908541D01*
X151194264Y-131912118D01*
X151179703Y-131914278D01*
X151165000Y-131915000D01*
X150865000Y-131915000D01*
X150850297Y-131914278D01*
X150835736Y-131912118D01*
X150821457Y-131908541D01*
X150807597Y-131903582D01*
X150794290Y-131897288D01*
X150781664Y-131889720D01*
X150769841Y-131880952D01*
X150758934Y-131871066D01*
X150749048Y-131860159D01*
X150740280Y-131848336D01*
X150732712Y-131835710D01*
X150726418Y-131822403D01*
X150721459Y-131808543D01*
X150717882Y-131794264D01*
X150715722Y-131779703D01*
X150715000Y-131765000D01*
X150715000Y-131095000D01*
X150715722Y-131080297D01*
X150717882Y-131065736D01*
X150721459Y-131051457D01*
X150726418Y-131037597D01*
X150732712Y-131024290D01*
X150740280Y-131011664D01*
X150749048Y-130999841D01*
X150758934Y-130988934D01*
X150769841Y-130979048D01*
X150781664Y-130970280D01*
X150794290Y-130962712D01*
X150807597Y-130956418D01*
X150821457Y-130951459D01*
X150835736Y-130947882D01*
X150850297Y-130945722D01*
X150865000Y-130945000D01*
X151165000Y-130945000D01*
X151179703Y-130945722D01*
X151179703Y-130945722D01*
G37*
D22*
X151015000Y-131430000D03*
D10*
G36*
X151929703Y-129745722D02*
X151944264Y-129747882D01*
X151958543Y-129751459D01*
X151972403Y-129756418D01*
X151985710Y-129762712D01*
X151998336Y-129770280D01*
X152010159Y-129779048D01*
X152021066Y-129788934D01*
X152030952Y-129799841D01*
X152039720Y-129811664D01*
X152047288Y-129824290D01*
X152053582Y-129837597D01*
X152058541Y-129851457D01*
X152062118Y-129865736D01*
X152064278Y-129880297D01*
X152065000Y-129895000D01*
X152065000Y-130565000D01*
X152064278Y-130579703D01*
X152062118Y-130594264D01*
X152058541Y-130608543D01*
X152053582Y-130622403D01*
X152047288Y-130635710D01*
X152039720Y-130648336D01*
X152030952Y-130660159D01*
X152021066Y-130671066D01*
X152010159Y-130680952D01*
X151998336Y-130689720D01*
X151985710Y-130697288D01*
X151972403Y-130703582D01*
X151958543Y-130708541D01*
X151944264Y-130712118D01*
X151929703Y-130714278D01*
X151915000Y-130715000D01*
X151615000Y-130715000D01*
X151600297Y-130714278D01*
X151585736Y-130712118D01*
X151571457Y-130708541D01*
X151557597Y-130703582D01*
X151544290Y-130697288D01*
X151531664Y-130689720D01*
X151519841Y-130680952D01*
X151508934Y-130671066D01*
X151499048Y-130660159D01*
X151490280Y-130648336D01*
X151482712Y-130635710D01*
X151476418Y-130622403D01*
X151471459Y-130608543D01*
X151467882Y-130594264D01*
X151465722Y-130579703D01*
X151465000Y-130565000D01*
X151465000Y-129895000D01*
X151465722Y-129880297D01*
X151467882Y-129865736D01*
X151471459Y-129851457D01*
X151476418Y-129837597D01*
X151482712Y-129824290D01*
X151490280Y-129811664D01*
X151499048Y-129799841D01*
X151508934Y-129788934D01*
X151519841Y-129779048D01*
X151531664Y-129770280D01*
X151544290Y-129762712D01*
X151557597Y-129756418D01*
X151571457Y-129751459D01*
X151585736Y-129747882D01*
X151600297Y-129745722D01*
X151615000Y-129745000D01*
X151915000Y-129745000D01*
X151929703Y-129745722D01*
X151929703Y-129745722D01*
G37*
D22*
X151765000Y-130230000D03*
D10*
G36*
X151929703Y-130945722D02*
X151944264Y-130947882D01*
X151958543Y-130951459D01*
X151972403Y-130956418D01*
X151985710Y-130962712D01*
X151998336Y-130970280D01*
X152010159Y-130979048D01*
X152021066Y-130988934D01*
X152030952Y-130999841D01*
X152039720Y-131011664D01*
X152047288Y-131024290D01*
X152053582Y-131037597D01*
X152058541Y-131051457D01*
X152062118Y-131065736D01*
X152064278Y-131080297D01*
X152065000Y-131095000D01*
X152065000Y-131765000D01*
X152064278Y-131779703D01*
X152062118Y-131794264D01*
X152058541Y-131808543D01*
X152053582Y-131822403D01*
X152047288Y-131835710D01*
X152039720Y-131848336D01*
X152030952Y-131860159D01*
X152021066Y-131871066D01*
X152010159Y-131880952D01*
X151998336Y-131889720D01*
X151985710Y-131897288D01*
X151972403Y-131903582D01*
X151958543Y-131908541D01*
X151944264Y-131912118D01*
X151929703Y-131914278D01*
X151915000Y-131915000D01*
X151615000Y-131915000D01*
X151600297Y-131914278D01*
X151585736Y-131912118D01*
X151571457Y-131908541D01*
X151557597Y-131903582D01*
X151544290Y-131897288D01*
X151531664Y-131889720D01*
X151519841Y-131880952D01*
X151508934Y-131871066D01*
X151499048Y-131860159D01*
X151490280Y-131848336D01*
X151482712Y-131835710D01*
X151476418Y-131822403D01*
X151471459Y-131808543D01*
X151467882Y-131794264D01*
X151465722Y-131779703D01*
X151465000Y-131765000D01*
X151465000Y-131095000D01*
X151465722Y-131080297D01*
X151467882Y-131065736D01*
X151471459Y-131051457D01*
X151476418Y-131037597D01*
X151482712Y-131024290D01*
X151490280Y-131011664D01*
X151499048Y-130999841D01*
X151508934Y-130988934D01*
X151519841Y-130979048D01*
X151531664Y-130970280D01*
X151544290Y-130962712D01*
X151557597Y-130956418D01*
X151571457Y-130951459D01*
X151585736Y-130947882D01*
X151600297Y-130945722D01*
X151615000Y-130945000D01*
X151915000Y-130945000D01*
X151929703Y-130945722D01*
X151929703Y-130945722D01*
G37*
D22*
X151765000Y-131430000D03*
G04 #@! TD*
D10*
G04 #@! TO.C,R7*
G36*
X115569505Y-76611204D02*
X115593773Y-76614804D01*
X115617572Y-76620765D01*
X115640671Y-76629030D01*
X115662850Y-76639520D01*
X115683893Y-76652132D01*
X115703599Y-76666747D01*
X115721777Y-76683223D01*
X115738253Y-76701401D01*
X115752868Y-76721107D01*
X115765480Y-76742150D01*
X115775970Y-76764329D01*
X115784235Y-76787428D01*
X115790196Y-76811227D01*
X115793796Y-76835495D01*
X115795000Y-76859999D01*
X115795000Y-77760001D01*
X115793796Y-77784505D01*
X115790196Y-77808773D01*
X115784235Y-77832572D01*
X115775970Y-77855671D01*
X115765480Y-77877850D01*
X115752868Y-77898893D01*
X115738253Y-77918599D01*
X115721777Y-77936777D01*
X115703599Y-77953253D01*
X115683893Y-77967868D01*
X115662850Y-77980480D01*
X115640671Y-77990970D01*
X115617572Y-77999235D01*
X115593773Y-78005196D01*
X115569505Y-78008796D01*
X115545001Y-78010000D01*
X114894999Y-78010000D01*
X114870495Y-78008796D01*
X114846227Y-78005196D01*
X114822428Y-77999235D01*
X114799329Y-77990970D01*
X114777150Y-77980480D01*
X114756107Y-77967868D01*
X114736401Y-77953253D01*
X114718223Y-77936777D01*
X114701747Y-77918599D01*
X114687132Y-77898893D01*
X114674520Y-77877850D01*
X114664030Y-77855671D01*
X114655765Y-77832572D01*
X114649804Y-77808773D01*
X114646204Y-77784505D01*
X114645000Y-77760001D01*
X114645000Y-76859999D01*
X114646204Y-76835495D01*
X114649804Y-76811227D01*
X114655765Y-76787428D01*
X114664030Y-76764329D01*
X114674520Y-76742150D01*
X114687132Y-76721107D01*
X114701747Y-76701401D01*
X114718223Y-76683223D01*
X114736401Y-76666747D01*
X114756107Y-76652132D01*
X114777150Y-76639520D01*
X114799329Y-76629030D01*
X114822428Y-76620765D01*
X114846227Y-76614804D01*
X114870495Y-76611204D01*
X114894999Y-76610000D01*
X115545001Y-76610000D01*
X115569505Y-76611204D01*
X115569505Y-76611204D01*
G37*
D11*
X115220000Y-77310000D03*
D10*
G36*
X113519505Y-76611204D02*
X113543773Y-76614804D01*
X113567572Y-76620765D01*
X113590671Y-76629030D01*
X113612850Y-76639520D01*
X113633893Y-76652132D01*
X113653599Y-76666747D01*
X113671777Y-76683223D01*
X113688253Y-76701401D01*
X113702868Y-76721107D01*
X113715480Y-76742150D01*
X113725970Y-76764329D01*
X113734235Y-76787428D01*
X113740196Y-76811227D01*
X113743796Y-76835495D01*
X113745000Y-76859999D01*
X113745000Y-77760001D01*
X113743796Y-77784505D01*
X113740196Y-77808773D01*
X113734235Y-77832572D01*
X113725970Y-77855671D01*
X113715480Y-77877850D01*
X113702868Y-77898893D01*
X113688253Y-77918599D01*
X113671777Y-77936777D01*
X113653599Y-77953253D01*
X113633893Y-77967868D01*
X113612850Y-77980480D01*
X113590671Y-77990970D01*
X113567572Y-77999235D01*
X113543773Y-78005196D01*
X113519505Y-78008796D01*
X113495001Y-78010000D01*
X112844999Y-78010000D01*
X112820495Y-78008796D01*
X112796227Y-78005196D01*
X112772428Y-77999235D01*
X112749329Y-77990970D01*
X112727150Y-77980480D01*
X112706107Y-77967868D01*
X112686401Y-77953253D01*
X112668223Y-77936777D01*
X112651747Y-77918599D01*
X112637132Y-77898893D01*
X112624520Y-77877850D01*
X112614030Y-77855671D01*
X112605765Y-77832572D01*
X112599804Y-77808773D01*
X112596204Y-77784505D01*
X112595000Y-77760001D01*
X112595000Y-76859999D01*
X112596204Y-76835495D01*
X112599804Y-76811227D01*
X112605765Y-76787428D01*
X112614030Y-76764329D01*
X112624520Y-76742150D01*
X112637132Y-76721107D01*
X112651747Y-76701401D01*
X112668223Y-76683223D01*
X112686401Y-76666747D01*
X112706107Y-76652132D01*
X112727150Y-76639520D01*
X112749329Y-76629030D01*
X112772428Y-76620765D01*
X112796227Y-76614804D01*
X112820495Y-76611204D01*
X112844999Y-76610000D01*
X113495001Y-76610000D01*
X113519505Y-76611204D01*
X113519505Y-76611204D01*
G37*
D11*
X113170000Y-77310000D03*
G04 #@! TD*
D23*
G04 #@! TO.C,SW1*
X153670000Y-69000000D03*
X153670000Y-64500000D03*
X144570000Y-64500000D03*
X144570000Y-69000000D03*
G04 #@! TD*
D10*
G04 #@! TO.C,C6*
G36*
X85459505Y-72536204D02*
X85483773Y-72539804D01*
X85507572Y-72545765D01*
X85530671Y-72554030D01*
X85552850Y-72564520D01*
X85573893Y-72577132D01*
X85593599Y-72591747D01*
X85611777Y-72608223D01*
X85628253Y-72626401D01*
X85642868Y-72646107D01*
X85655480Y-72667150D01*
X85665970Y-72689329D01*
X85674235Y-72712428D01*
X85680196Y-72736227D01*
X85683796Y-72760495D01*
X85685000Y-72784999D01*
X85685000Y-73435001D01*
X85683796Y-73459505D01*
X85680196Y-73483773D01*
X85674235Y-73507572D01*
X85665970Y-73530671D01*
X85655480Y-73552850D01*
X85642868Y-73573893D01*
X85628253Y-73593599D01*
X85611777Y-73611777D01*
X85593599Y-73628253D01*
X85573893Y-73642868D01*
X85552850Y-73655480D01*
X85530671Y-73665970D01*
X85507572Y-73674235D01*
X85483773Y-73680196D01*
X85459505Y-73683796D01*
X85435001Y-73685000D01*
X84534999Y-73685000D01*
X84510495Y-73683796D01*
X84486227Y-73680196D01*
X84462428Y-73674235D01*
X84439329Y-73665970D01*
X84417150Y-73655480D01*
X84396107Y-73642868D01*
X84376401Y-73628253D01*
X84358223Y-73611777D01*
X84341747Y-73593599D01*
X84327132Y-73573893D01*
X84314520Y-73552850D01*
X84304030Y-73530671D01*
X84295765Y-73507572D01*
X84289804Y-73483773D01*
X84286204Y-73459505D01*
X84285000Y-73435001D01*
X84285000Y-72784999D01*
X84286204Y-72760495D01*
X84289804Y-72736227D01*
X84295765Y-72712428D01*
X84304030Y-72689329D01*
X84314520Y-72667150D01*
X84327132Y-72646107D01*
X84341747Y-72626401D01*
X84358223Y-72608223D01*
X84376401Y-72591747D01*
X84396107Y-72577132D01*
X84417150Y-72564520D01*
X84439329Y-72554030D01*
X84462428Y-72545765D01*
X84486227Y-72539804D01*
X84510495Y-72536204D01*
X84534999Y-72535000D01*
X85435001Y-72535000D01*
X85459505Y-72536204D01*
X85459505Y-72536204D01*
G37*
D11*
X84985000Y-73110000D03*
D10*
G36*
X85459505Y-74586204D02*
X85483773Y-74589804D01*
X85507572Y-74595765D01*
X85530671Y-74604030D01*
X85552850Y-74614520D01*
X85573893Y-74627132D01*
X85593599Y-74641747D01*
X85611777Y-74658223D01*
X85628253Y-74676401D01*
X85642868Y-74696107D01*
X85655480Y-74717150D01*
X85665970Y-74739329D01*
X85674235Y-74762428D01*
X85680196Y-74786227D01*
X85683796Y-74810495D01*
X85685000Y-74834999D01*
X85685000Y-75485001D01*
X85683796Y-75509505D01*
X85680196Y-75533773D01*
X85674235Y-75557572D01*
X85665970Y-75580671D01*
X85655480Y-75602850D01*
X85642868Y-75623893D01*
X85628253Y-75643599D01*
X85611777Y-75661777D01*
X85593599Y-75678253D01*
X85573893Y-75692868D01*
X85552850Y-75705480D01*
X85530671Y-75715970D01*
X85507572Y-75724235D01*
X85483773Y-75730196D01*
X85459505Y-75733796D01*
X85435001Y-75735000D01*
X84534999Y-75735000D01*
X84510495Y-75733796D01*
X84486227Y-75730196D01*
X84462428Y-75724235D01*
X84439329Y-75715970D01*
X84417150Y-75705480D01*
X84396107Y-75692868D01*
X84376401Y-75678253D01*
X84358223Y-75661777D01*
X84341747Y-75643599D01*
X84327132Y-75623893D01*
X84314520Y-75602850D01*
X84304030Y-75580671D01*
X84295765Y-75557572D01*
X84289804Y-75533773D01*
X84286204Y-75509505D01*
X84285000Y-75485001D01*
X84285000Y-74834999D01*
X84286204Y-74810495D01*
X84289804Y-74786227D01*
X84295765Y-74762428D01*
X84304030Y-74739329D01*
X84314520Y-74717150D01*
X84327132Y-74696107D01*
X84341747Y-74676401D01*
X84358223Y-74658223D01*
X84376401Y-74641747D01*
X84396107Y-74627132D01*
X84417150Y-74614520D01*
X84439329Y-74604030D01*
X84462428Y-74595765D01*
X84486227Y-74589804D01*
X84510495Y-74586204D01*
X84534999Y-74585000D01*
X85435001Y-74585000D01*
X85459505Y-74586204D01*
X85459505Y-74586204D01*
G37*
D11*
X84985000Y-75160000D03*
G04 #@! TD*
D10*
G04 #@! TO.C,C7*
G36*
X90169505Y-77881204D02*
X90193773Y-77884804D01*
X90217572Y-77890765D01*
X90240671Y-77899030D01*
X90262850Y-77909520D01*
X90283893Y-77922132D01*
X90303599Y-77936747D01*
X90321777Y-77953223D01*
X90338253Y-77971401D01*
X90352868Y-77991107D01*
X90365480Y-78012150D01*
X90375970Y-78034329D01*
X90384235Y-78057428D01*
X90390196Y-78081227D01*
X90393796Y-78105495D01*
X90395000Y-78129999D01*
X90395000Y-79030001D01*
X90393796Y-79054505D01*
X90390196Y-79078773D01*
X90384235Y-79102572D01*
X90375970Y-79125671D01*
X90365480Y-79147850D01*
X90352868Y-79168893D01*
X90338253Y-79188599D01*
X90321777Y-79206777D01*
X90303599Y-79223253D01*
X90283893Y-79237868D01*
X90262850Y-79250480D01*
X90240671Y-79260970D01*
X90217572Y-79269235D01*
X90193773Y-79275196D01*
X90169505Y-79278796D01*
X90145001Y-79280000D01*
X89494999Y-79280000D01*
X89470495Y-79278796D01*
X89446227Y-79275196D01*
X89422428Y-79269235D01*
X89399329Y-79260970D01*
X89377150Y-79250480D01*
X89356107Y-79237868D01*
X89336401Y-79223253D01*
X89318223Y-79206777D01*
X89301747Y-79188599D01*
X89287132Y-79168893D01*
X89274520Y-79147850D01*
X89264030Y-79125671D01*
X89255765Y-79102572D01*
X89249804Y-79078773D01*
X89246204Y-79054505D01*
X89245000Y-79030001D01*
X89245000Y-78129999D01*
X89246204Y-78105495D01*
X89249804Y-78081227D01*
X89255765Y-78057428D01*
X89264030Y-78034329D01*
X89274520Y-78012150D01*
X89287132Y-77991107D01*
X89301747Y-77971401D01*
X89318223Y-77953223D01*
X89336401Y-77936747D01*
X89356107Y-77922132D01*
X89377150Y-77909520D01*
X89399329Y-77899030D01*
X89422428Y-77890765D01*
X89446227Y-77884804D01*
X89470495Y-77881204D01*
X89494999Y-77880000D01*
X90145001Y-77880000D01*
X90169505Y-77881204D01*
X90169505Y-77881204D01*
G37*
D11*
X89820000Y-78580000D03*
D10*
G36*
X88119505Y-77881204D02*
X88143773Y-77884804D01*
X88167572Y-77890765D01*
X88190671Y-77899030D01*
X88212850Y-77909520D01*
X88233893Y-77922132D01*
X88253599Y-77936747D01*
X88271777Y-77953223D01*
X88288253Y-77971401D01*
X88302868Y-77991107D01*
X88315480Y-78012150D01*
X88325970Y-78034329D01*
X88334235Y-78057428D01*
X88340196Y-78081227D01*
X88343796Y-78105495D01*
X88345000Y-78129999D01*
X88345000Y-79030001D01*
X88343796Y-79054505D01*
X88340196Y-79078773D01*
X88334235Y-79102572D01*
X88325970Y-79125671D01*
X88315480Y-79147850D01*
X88302868Y-79168893D01*
X88288253Y-79188599D01*
X88271777Y-79206777D01*
X88253599Y-79223253D01*
X88233893Y-79237868D01*
X88212850Y-79250480D01*
X88190671Y-79260970D01*
X88167572Y-79269235D01*
X88143773Y-79275196D01*
X88119505Y-79278796D01*
X88095001Y-79280000D01*
X87444999Y-79280000D01*
X87420495Y-79278796D01*
X87396227Y-79275196D01*
X87372428Y-79269235D01*
X87349329Y-79260970D01*
X87327150Y-79250480D01*
X87306107Y-79237868D01*
X87286401Y-79223253D01*
X87268223Y-79206777D01*
X87251747Y-79188599D01*
X87237132Y-79168893D01*
X87224520Y-79147850D01*
X87214030Y-79125671D01*
X87205765Y-79102572D01*
X87199804Y-79078773D01*
X87196204Y-79054505D01*
X87195000Y-79030001D01*
X87195000Y-78129999D01*
X87196204Y-78105495D01*
X87199804Y-78081227D01*
X87205765Y-78057428D01*
X87214030Y-78034329D01*
X87224520Y-78012150D01*
X87237132Y-77991107D01*
X87251747Y-77971401D01*
X87268223Y-77953223D01*
X87286401Y-77936747D01*
X87306107Y-77922132D01*
X87327150Y-77909520D01*
X87349329Y-77899030D01*
X87372428Y-77890765D01*
X87396227Y-77884804D01*
X87420495Y-77881204D01*
X87444999Y-77880000D01*
X88095001Y-77880000D01*
X88119505Y-77881204D01*
X88119505Y-77881204D01*
G37*
D11*
X87770000Y-78580000D03*
G04 #@! TD*
D16*
G04 #@! TO.C,D3*
X95019000Y-71595000D03*
X98319000Y-71595000D03*
G04 #@! TD*
G04 #@! TO.C,D4*
X95019000Y-68420000D03*
X98319000Y-68420000D03*
G04 #@! TD*
D10*
G04 #@! TO.C,R8*
G36*
X115569505Y-74071204D02*
X115593773Y-74074804D01*
X115617572Y-74080765D01*
X115640671Y-74089030D01*
X115662850Y-74099520D01*
X115683893Y-74112132D01*
X115703599Y-74126747D01*
X115721777Y-74143223D01*
X115738253Y-74161401D01*
X115752868Y-74181107D01*
X115765480Y-74202150D01*
X115775970Y-74224329D01*
X115784235Y-74247428D01*
X115790196Y-74271227D01*
X115793796Y-74295495D01*
X115795000Y-74319999D01*
X115795000Y-75220001D01*
X115793796Y-75244505D01*
X115790196Y-75268773D01*
X115784235Y-75292572D01*
X115775970Y-75315671D01*
X115765480Y-75337850D01*
X115752868Y-75358893D01*
X115738253Y-75378599D01*
X115721777Y-75396777D01*
X115703599Y-75413253D01*
X115683893Y-75427868D01*
X115662850Y-75440480D01*
X115640671Y-75450970D01*
X115617572Y-75459235D01*
X115593773Y-75465196D01*
X115569505Y-75468796D01*
X115545001Y-75470000D01*
X114894999Y-75470000D01*
X114870495Y-75468796D01*
X114846227Y-75465196D01*
X114822428Y-75459235D01*
X114799329Y-75450970D01*
X114777150Y-75440480D01*
X114756107Y-75427868D01*
X114736401Y-75413253D01*
X114718223Y-75396777D01*
X114701747Y-75378599D01*
X114687132Y-75358893D01*
X114674520Y-75337850D01*
X114664030Y-75315671D01*
X114655765Y-75292572D01*
X114649804Y-75268773D01*
X114646204Y-75244505D01*
X114645000Y-75220001D01*
X114645000Y-74319999D01*
X114646204Y-74295495D01*
X114649804Y-74271227D01*
X114655765Y-74247428D01*
X114664030Y-74224329D01*
X114674520Y-74202150D01*
X114687132Y-74181107D01*
X114701747Y-74161401D01*
X114718223Y-74143223D01*
X114736401Y-74126747D01*
X114756107Y-74112132D01*
X114777150Y-74099520D01*
X114799329Y-74089030D01*
X114822428Y-74080765D01*
X114846227Y-74074804D01*
X114870495Y-74071204D01*
X114894999Y-74070000D01*
X115545001Y-74070000D01*
X115569505Y-74071204D01*
X115569505Y-74071204D01*
G37*
D11*
X115220000Y-74770000D03*
D10*
G36*
X113519505Y-74071204D02*
X113543773Y-74074804D01*
X113567572Y-74080765D01*
X113590671Y-74089030D01*
X113612850Y-74099520D01*
X113633893Y-74112132D01*
X113653599Y-74126747D01*
X113671777Y-74143223D01*
X113688253Y-74161401D01*
X113702868Y-74181107D01*
X113715480Y-74202150D01*
X113725970Y-74224329D01*
X113734235Y-74247428D01*
X113740196Y-74271227D01*
X113743796Y-74295495D01*
X113745000Y-74319999D01*
X113745000Y-75220001D01*
X113743796Y-75244505D01*
X113740196Y-75268773D01*
X113734235Y-75292572D01*
X113725970Y-75315671D01*
X113715480Y-75337850D01*
X113702868Y-75358893D01*
X113688253Y-75378599D01*
X113671777Y-75396777D01*
X113653599Y-75413253D01*
X113633893Y-75427868D01*
X113612850Y-75440480D01*
X113590671Y-75450970D01*
X113567572Y-75459235D01*
X113543773Y-75465196D01*
X113519505Y-75468796D01*
X113495001Y-75470000D01*
X112844999Y-75470000D01*
X112820495Y-75468796D01*
X112796227Y-75465196D01*
X112772428Y-75459235D01*
X112749329Y-75450970D01*
X112727150Y-75440480D01*
X112706107Y-75427868D01*
X112686401Y-75413253D01*
X112668223Y-75396777D01*
X112651747Y-75378599D01*
X112637132Y-75358893D01*
X112624520Y-75337850D01*
X112614030Y-75315671D01*
X112605765Y-75292572D01*
X112599804Y-75268773D01*
X112596204Y-75244505D01*
X112595000Y-75220001D01*
X112595000Y-74319999D01*
X112596204Y-74295495D01*
X112599804Y-74271227D01*
X112605765Y-74247428D01*
X112614030Y-74224329D01*
X112624520Y-74202150D01*
X112637132Y-74181107D01*
X112651747Y-74161401D01*
X112668223Y-74143223D01*
X112686401Y-74126747D01*
X112706107Y-74112132D01*
X112727150Y-74099520D01*
X112749329Y-74089030D01*
X112772428Y-74080765D01*
X112796227Y-74074804D01*
X112820495Y-74071204D01*
X112844999Y-74070000D01*
X113495001Y-74070000D01*
X113519505Y-74071204D01*
X113519505Y-74071204D01*
G37*
D11*
X113170000Y-74770000D03*
G04 #@! TD*
D10*
G04 #@! TO.C,R9*
G36*
X153524505Y-84866204D02*
X153548773Y-84869804D01*
X153572572Y-84875765D01*
X153595671Y-84884030D01*
X153617850Y-84894520D01*
X153638893Y-84907132D01*
X153658599Y-84921747D01*
X153676777Y-84938223D01*
X153693253Y-84956401D01*
X153707868Y-84976107D01*
X153720480Y-84997150D01*
X153730970Y-85019329D01*
X153739235Y-85042428D01*
X153745196Y-85066227D01*
X153748796Y-85090495D01*
X153750000Y-85114999D01*
X153750000Y-86015001D01*
X153748796Y-86039505D01*
X153745196Y-86063773D01*
X153739235Y-86087572D01*
X153730970Y-86110671D01*
X153720480Y-86132850D01*
X153707868Y-86153893D01*
X153693253Y-86173599D01*
X153676777Y-86191777D01*
X153658599Y-86208253D01*
X153638893Y-86222868D01*
X153617850Y-86235480D01*
X153595671Y-86245970D01*
X153572572Y-86254235D01*
X153548773Y-86260196D01*
X153524505Y-86263796D01*
X153500001Y-86265000D01*
X152849999Y-86265000D01*
X152825495Y-86263796D01*
X152801227Y-86260196D01*
X152777428Y-86254235D01*
X152754329Y-86245970D01*
X152732150Y-86235480D01*
X152711107Y-86222868D01*
X152691401Y-86208253D01*
X152673223Y-86191777D01*
X152656747Y-86173599D01*
X152642132Y-86153893D01*
X152629520Y-86132850D01*
X152619030Y-86110671D01*
X152610765Y-86087572D01*
X152604804Y-86063773D01*
X152601204Y-86039505D01*
X152600000Y-86015001D01*
X152600000Y-85114999D01*
X152601204Y-85090495D01*
X152604804Y-85066227D01*
X152610765Y-85042428D01*
X152619030Y-85019329D01*
X152629520Y-84997150D01*
X152642132Y-84976107D01*
X152656747Y-84956401D01*
X152673223Y-84938223D01*
X152691401Y-84921747D01*
X152711107Y-84907132D01*
X152732150Y-84894520D01*
X152754329Y-84884030D01*
X152777428Y-84875765D01*
X152801227Y-84869804D01*
X152825495Y-84866204D01*
X152849999Y-84865000D01*
X153500001Y-84865000D01*
X153524505Y-84866204D01*
X153524505Y-84866204D01*
G37*
D11*
X153175000Y-85565000D03*
D10*
G36*
X155574505Y-84866204D02*
X155598773Y-84869804D01*
X155622572Y-84875765D01*
X155645671Y-84884030D01*
X155667850Y-84894520D01*
X155688893Y-84907132D01*
X155708599Y-84921747D01*
X155726777Y-84938223D01*
X155743253Y-84956401D01*
X155757868Y-84976107D01*
X155770480Y-84997150D01*
X155780970Y-85019329D01*
X155789235Y-85042428D01*
X155795196Y-85066227D01*
X155798796Y-85090495D01*
X155800000Y-85114999D01*
X155800000Y-86015001D01*
X155798796Y-86039505D01*
X155795196Y-86063773D01*
X155789235Y-86087572D01*
X155780970Y-86110671D01*
X155770480Y-86132850D01*
X155757868Y-86153893D01*
X155743253Y-86173599D01*
X155726777Y-86191777D01*
X155708599Y-86208253D01*
X155688893Y-86222868D01*
X155667850Y-86235480D01*
X155645671Y-86245970D01*
X155622572Y-86254235D01*
X155598773Y-86260196D01*
X155574505Y-86263796D01*
X155550001Y-86265000D01*
X154899999Y-86265000D01*
X154875495Y-86263796D01*
X154851227Y-86260196D01*
X154827428Y-86254235D01*
X154804329Y-86245970D01*
X154782150Y-86235480D01*
X154761107Y-86222868D01*
X154741401Y-86208253D01*
X154723223Y-86191777D01*
X154706747Y-86173599D01*
X154692132Y-86153893D01*
X154679520Y-86132850D01*
X154669030Y-86110671D01*
X154660765Y-86087572D01*
X154654804Y-86063773D01*
X154651204Y-86039505D01*
X154650000Y-86015001D01*
X154650000Y-85114999D01*
X154651204Y-85090495D01*
X154654804Y-85066227D01*
X154660765Y-85042428D01*
X154669030Y-85019329D01*
X154679520Y-84997150D01*
X154692132Y-84976107D01*
X154706747Y-84956401D01*
X154723223Y-84938223D01*
X154741401Y-84921747D01*
X154761107Y-84907132D01*
X154782150Y-84894520D01*
X154804329Y-84884030D01*
X154827428Y-84875765D01*
X154851227Y-84869804D01*
X154875495Y-84866204D01*
X154899999Y-84865000D01*
X155550001Y-84865000D01*
X155574505Y-84866204D01*
X155574505Y-84866204D01*
G37*
D11*
X155225000Y-85565000D03*
G04 #@! TD*
D10*
G04 #@! TO.C,R10*
G36*
X153524505Y-81691204D02*
X153548773Y-81694804D01*
X153572572Y-81700765D01*
X153595671Y-81709030D01*
X153617850Y-81719520D01*
X153638893Y-81732132D01*
X153658599Y-81746747D01*
X153676777Y-81763223D01*
X153693253Y-81781401D01*
X153707868Y-81801107D01*
X153720480Y-81822150D01*
X153730970Y-81844329D01*
X153739235Y-81867428D01*
X153745196Y-81891227D01*
X153748796Y-81915495D01*
X153750000Y-81939999D01*
X153750000Y-82840001D01*
X153748796Y-82864505D01*
X153745196Y-82888773D01*
X153739235Y-82912572D01*
X153730970Y-82935671D01*
X153720480Y-82957850D01*
X153707868Y-82978893D01*
X153693253Y-82998599D01*
X153676777Y-83016777D01*
X153658599Y-83033253D01*
X153638893Y-83047868D01*
X153617850Y-83060480D01*
X153595671Y-83070970D01*
X153572572Y-83079235D01*
X153548773Y-83085196D01*
X153524505Y-83088796D01*
X153500001Y-83090000D01*
X152849999Y-83090000D01*
X152825495Y-83088796D01*
X152801227Y-83085196D01*
X152777428Y-83079235D01*
X152754329Y-83070970D01*
X152732150Y-83060480D01*
X152711107Y-83047868D01*
X152691401Y-83033253D01*
X152673223Y-83016777D01*
X152656747Y-82998599D01*
X152642132Y-82978893D01*
X152629520Y-82957850D01*
X152619030Y-82935671D01*
X152610765Y-82912572D01*
X152604804Y-82888773D01*
X152601204Y-82864505D01*
X152600000Y-82840001D01*
X152600000Y-81939999D01*
X152601204Y-81915495D01*
X152604804Y-81891227D01*
X152610765Y-81867428D01*
X152619030Y-81844329D01*
X152629520Y-81822150D01*
X152642132Y-81801107D01*
X152656747Y-81781401D01*
X152673223Y-81763223D01*
X152691401Y-81746747D01*
X152711107Y-81732132D01*
X152732150Y-81719520D01*
X152754329Y-81709030D01*
X152777428Y-81700765D01*
X152801227Y-81694804D01*
X152825495Y-81691204D01*
X152849999Y-81690000D01*
X153500001Y-81690000D01*
X153524505Y-81691204D01*
X153524505Y-81691204D01*
G37*
D11*
X153175000Y-82390000D03*
D10*
G36*
X155574505Y-81691204D02*
X155598773Y-81694804D01*
X155622572Y-81700765D01*
X155645671Y-81709030D01*
X155667850Y-81719520D01*
X155688893Y-81732132D01*
X155708599Y-81746747D01*
X155726777Y-81763223D01*
X155743253Y-81781401D01*
X155757868Y-81801107D01*
X155770480Y-81822150D01*
X155780970Y-81844329D01*
X155789235Y-81867428D01*
X155795196Y-81891227D01*
X155798796Y-81915495D01*
X155800000Y-81939999D01*
X155800000Y-82840001D01*
X155798796Y-82864505D01*
X155795196Y-82888773D01*
X155789235Y-82912572D01*
X155780970Y-82935671D01*
X155770480Y-82957850D01*
X155757868Y-82978893D01*
X155743253Y-82998599D01*
X155726777Y-83016777D01*
X155708599Y-83033253D01*
X155688893Y-83047868D01*
X155667850Y-83060480D01*
X155645671Y-83070970D01*
X155622572Y-83079235D01*
X155598773Y-83085196D01*
X155574505Y-83088796D01*
X155550001Y-83090000D01*
X154899999Y-83090000D01*
X154875495Y-83088796D01*
X154851227Y-83085196D01*
X154827428Y-83079235D01*
X154804329Y-83070970D01*
X154782150Y-83060480D01*
X154761107Y-83047868D01*
X154741401Y-83033253D01*
X154723223Y-83016777D01*
X154706747Y-82998599D01*
X154692132Y-82978893D01*
X154679520Y-82957850D01*
X154669030Y-82935671D01*
X154660765Y-82912572D01*
X154654804Y-82888773D01*
X154651204Y-82864505D01*
X154650000Y-82840001D01*
X154650000Y-81939999D01*
X154651204Y-81915495D01*
X154654804Y-81891227D01*
X154660765Y-81867428D01*
X154669030Y-81844329D01*
X154679520Y-81822150D01*
X154692132Y-81801107D01*
X154706747Y-81781401D01*
X154723223Y-81763223D01*
X154741401Y-81746747D01*
X154761107Y-81732132D01*
X154782150Y-81719520D01*
X154804329Y-81709030D01*
X154827428Y-81700765D01*
X154851227Y-81694804D01*
X154875495Y-81691204D01*
X154899999Y-81690000D01*
X155550001Y-81690000D01*
X155574505Y-81691204D01*
X155574505Y-81691204D01*
G37*
D11*
X155225000Y-82390000D03*
G04 #@! TD*
D23*
G04 #@! TO.C,SW2*
X144570000Y-74660000D03*
X144570000Y-79160000D03*
X153670000Y-79160000D03*
X153670000Y-74660000D03*
G04 #@! TD*
D24*
G04 #@! TO.C,U5*
X88710000Y-73405000D03*
X89660000Y-75405000D03*
X87760000Y-75405000D03*
G04 #@! TD*
D25*
G04 #@! TO.C,U4*
X146310000Y-121395000D03*
X146310000Y-123395000D03*
X144310000Y-123395000D03*
X144310000Y-121395000D03*
G04 #@! TD*
M02*
