G04 #@! TF.GenerationSoftware,KiCad,Pcbnew,5.0.2-1.fc29*
G04 #@! TF.CreationDate,2019-01-19T22:33:50+01:00*
G04 #@! TF.ProjectId,esp8266,65737038-3236-4362-9e6b-696361645f70,rev?*
G04 #@! TF.SameCoordinates,Original*
G04 #@! TF.FileFunction,Copper,L2,Bot*
G04 #@! TF.FilePolarity,Positive*
%FSLAX46Y46*%
G04 Gerber Fmt 4.6, Leading zero omitted, Abs format (unit mm)*
G04 Created by KiCad (PCBNEW 5.0.2-1.fc29) date Sat 19 Jan 2019 10:33:50 PM CET*
%MOMM*%
%LPD*%
G01*
G04 APERTURE LIST*
G04 #@! TA.AperFunction,ComponentPad*
%ADD10O,1.700000X1.700000*%
G04 #@! TD*
G04 #@! TA.AperFunction,ComponentPad*
%ADD11R,1.700000X1.700000*%
G04 #@! TD*
G04 #@! TA.AperFunction,ComponentPad*
%ADD12C,1.400000*%
G04 #@! TD*
G04 #@! TA.AperFunction,ComponentPad*
%ADD13R,1.050000X1.500000*%
G04 #@! TD*
G04 #@! TA.AperFunction,ComponentPad*
%ADD14O,1.050000X1.500000*%
G04 #@! TD*
G04 #@! TA.AperFunction,ComponentPad*
%ADD15O,1.740000X2.200000*%
G04 #@! TD*
G04 #@! TA.AperFunction,Conductor*
%ADD16C,0.100000*%
G04 #@! TD*
G04 #@! TA.AperFunction,ComponentPad*
%ADD17C,1.740000*%
G04 #@! TD*
G04 #@! TA.AperFunction,ComponentPad*
%ADD18C,3.500000*%
G04 #@! TD*
G04 #@! TA.AperFunction,ComponentPad*
%ADD19C,3.000000*%
G04 #@! TD*
G04 #@! TA.AperFunction,ComponentPad*
%ADD20R,3.500000X3.500000*%
G04 #@! TD*
G04 #@! TA.AperFunction,ComponentPad*
%ADD21R,1.520000X1.520000*%
G04 #@! TD*
G04 #@! TA.AperFunction,ComponentPad*
%ADD22C,1.520000*%
G04 #@! TD*
G04 #@! TA.AperFunction,ComponentPad*
%ADD23O,2.200000X4.000000*%
G04 #@! TD*
G04 #@! TA.AperFunction,ComponentPad*
%ADD24O,4.000000X2.200000*%
G04 #@! TD*
G04 #@! TA.AperFunction,ComponentPad*
%ADD25R,4.000000X2.200000*%
G04 #@! TD*
G04 #@! TA.AperFunction,ViaPad*
%ADD26C,2.400000*%
G04 #@! TD*
G04 #@! TA.AperFunction,ViaPad*
%ADD27C,1.600000*%
G04 #@! TD*
G04 #@! TA.AperFunction,Conductor*
%ADD28C,0.500000*%
G04 #@! TD*
G04 #@! TA.AperFunction,Conductor*
%ADD29C,0.250000*%
G04 #@! TD*
G04 #@! TA.AperFunction,Conductor*
%ADD30C,0.254000*%
G04 #@! TD*
G04 APERTURE END LIST*
D10*
G04 #@! TO.P,TP7,3*
G04 #@! TO.N,GND*
X84985000Y-69690000D03*
G04 #@! TO.P,TP7,2*
G04 #@! TO.N,/TX*
X87525000Y-69690000D03*
D11*
G04 #@! TO.P,TP7,1*
G04 #@! TO.N,/RX*
X90065000Y-69690000D03*
G04 #@! TD*
D10*
G04 #@! TO.P,TP2,3*
G04 #@! TO.N,GND*
X101600000Y-108380000D03*
G04 #@! TO.P,TP2,2*
G04 #@! TO.N,/SDA*
X101600000Y-105840000D03*
D11*
G04 #@! TO.P,TP2,1*
G04 #@! TO.N,/SCL*
X101600000Y-103300000D03*
G04 #@! TD*
D12*
G04 #@! TO.P,TP5,2*
G04 #@! TO.N,GND*
X113306000Y-94709000D03*
G04 #@! TO.P,TP5,1*
G04 #@! TO.N,/MCP1703-33/VDD*
X110766000Y-94709000D03*
G04 #@! TD*
G04 #@! TO.P,TP6,2*
G04 #@! TO.N,GND*
X118767000Y-94709000D03*
G04 #@! TO.P,TP6,1*
G04 #@! TO.N,+3V3*
X116227000Y-94709000D03*
G04 #@! TD*
D10*
G04 #@! TO.P,J13,8*
G04 #@! TO.N,GND*
X129308000Y-108152000D03*
G04 #@! TO.P,J13,7*
G04 #@! TO.N,/IO15*
X126768000Y-108152000D03*
G04 #@! TO.P,J13,6*
G04 #@! TO.N,/IO14*
X124228000Y-108152000D03*
G04 #@! TO.P,J13,5*
G04 #@! TO.N,/IO13*
X121688000Y-108152000D03*
G04 #@! TO.P,J13,4*
G04 #@! TO.N,/IO12*
X119148000Y-108152000D03*
G04 #@! TO.P,J13,3*
G04 #@! TO.N,+3V3*
X116608000Y-108152000D03*
G04 #@! TO.P,J13,2*
G04 #@! TO.N,+BATT*
X114068000Y-108152000D03*
D11*
G04 #@! TO.P,J13,1*
G04 #@! TO.N,+12V*
X111528000Y-108152000D03*
G04 #@! TD*
D12*
G04 #@! TO.P,TP3,2*
G04 #@! TO.N,GND*
X138325000Y-96995000D03*
G04 #@! TO.P,TP3,1*
G04 #@! TO.N,/IO2*
X138325000Y-94455000D03*
G04 #@! TD*
G04 #@! TO.P,TP4,2*
G04 #@! TO.N,GND*
X107718000Y-94709000D03*
G04 #@! TO.P,TP4,1*
G04 #@! TO.N,+BATT*
X105178000Y-94709000D03*
G04 #@! TD*
D13*
G04 #@! TO.P,U7,1*
G04 #@! TO.N,GND*
X154200000Y-124300000D03*
D14*
G04 #@! TO.P,U7,3*
G04 #@! TO.N,+3V3*
X156740000Y-124300000D03*
G04 #@! TO.P,U7,2*
G04 #@! TO.N,/IO2*
X155470000Y-124300000D03*
G04 #@! TD*
D15*
G04 #@! TO.P,J1,2*
G04 #@! TO.N,+BATT*
X104670000Y-85057000D03*
D16*
G04 #@! TD*
G04 #@! TO.N,GND*
G04 #@! TO.C,J1*
G36*
X102774505Y-83958204D02*
X102798773Y-83961804D01*
X102822572Y-83967765D01*
X102845671Y-83976030D01*
X102867850Y-83986520D01*
X102888893Y-83999132D01*
X102908599Y-84013747D01*
X102926777Y-84030223D01*
X102943253Y-84048401D01*
X102957868Y-84068107D01*
X102970480Y-84089150D01*
X102980970Y-84111329D01*
X102989235Y-84134428D01*
X102995196Y-84158227D01*
X102998796Y-84182495D01*
X103000000Y-84206999D01*
X103000000Y-85907001D01*
X102998796Y-85931505D01*
X102995196Y-85955773D01*
X102989235Y-85979572D01*
X102980970Y-86002671D01*
X102970480Y-86024850D01*
X102957868Y-86045893D01*
X102943253Y-86065599D01*
X102926777Y-86083777D01*
X102908599Y-86100253D01*
X102888893Y-86114868D01*
X102867850Y-86127480D01*
X102845671Y-86137970D01*
X102822572Y-86146235D01*
X102798773Y-86152196D01*
X102774505Y-86155796D01*
X102750001Y-86157000D01*
X101509999Y-86157000D01*
X101485495Y-86155796D01*
X101461227Y-86152196D01*
X101437428Y-86146235D01*
X101414329Y-86137970D01*
X101392150Y-86127480D01*
X101371107Y-86114868D01*
X101351401Y-86100253D01*
X101333223Y-86083777D01*
X101316747Y-86065599D01*
X101302132Y-86045893D01*
X101289520Y-86024850D01*
X101279030Y-86002671D01*
X101270765Y-85979572D01*
X101264804Y-85955773D01*
X101261204Y-85931505D01*
X101260000Y-85907001D01*
X101260000Y-84206999D01*
X101261204Y-84182495D01*
X101264804Y-84158227D01*
X101270765Y-84134428D01*
X101279030Y-84111329D01*
X101289520Y-84089150D01*
X101302132Y-84068107D01*
X101316747Y-84048401D01*
X101333223Y-84030223D01*
X101351401Y-84013747D01*
X101371107Y-83999132D01*
X101392150Y-83986520D01*
X101414329Y-83976030D01*
X101437428Y-83967765D01*
X101461227Y-83961804D01*
X101485495Y-83958204D01*
X101509999Y-83957000D01*
X102750001Y-83957000D01*
X102774505Y-83958204D01*
X102774505Y-83958204D01*
G37*
D17*
G04 #@! TO.P,J1,1*
G04 #@! TO.N,GND*
X102130000Y-85057000D03*
G04 #@! TD*
D16*
G04 #@! TO.N,N/C*
G04 #@! TO.C,J2*
G36*
X88660765Y-123679213D02*
X88745704Y-123691813D01*
X88828999Y-123712677D01*
X88909848Y-123741605D01*
X88987472Y-123778319D01*
X89061124Y-123822464D01*
X89130094Y-123873616D01*
X89193718Y-123931282D01*
X89251384Y-123994906D01*
X89302536Y-124063876D01*
X89346681Y-124137528D01*
X89383395Y-124215152D01*
X89412323Y-124296001D01*
X89433187Y-124379296D01*
X89445787Y-124464235D01*
X89450000Y-124550000D01*
X89450000Y-126300000D01*
X89445787Y-126385765D01*
X89433187Y-126470704D01*
X89412323Y-126553999D01*
X89383395Y-126634848D01*
X89346681Y-126712472D01*
X89302536Y-126786124D01*
X89251384Y-126855094D01*
X89193718Y-126918718D01*
X89130094Y-126976384D01*
X89061124Y-127027536D01*
X88987472Y-127071681D01*
X88909848Y-127108395D01*
X88828999Y-127137323D01*
X88745704Y-127158187D01*
X88660765Y-127170787D01*
X88575000Y-127175000D01*
X86825000Y-127175000D01*
X86739235Y-127170787D01*
X86654296Y-127158187D01*
X86571001Y-127137323D01*
X86490152Y-127108395D01*
X86412528Y-127071681D01*
X86338876Y-127027536D01*
X86269906Y-126976384D01*
X86206282Y-126918718D01*
X86148616Y-126855094D01*
X86097464Y-126786124D01*
X86053319Y-126712472D01*
X86016605Y-126634848D01*
X85987677Y-126553999D01*
X85966813Y-126470704D01*
X85954213Y-126385765D01*
X85950000Y-126300000D01*
X85950000Y-124550000D01*
X85954213Y-124464235D01*
X85966813Y-124379296D01*
X85987677Y-124296001D01*
X86016605Y-124215152D01*
X86053319Y-124137528D01*
X86097464Y-124063876D01*
X86148616Y-123994906D01*
X86206282Y-123931282D01*
X86269906Y-123873616D01*
X86338876Y-123822464D01*
X86412528Y-123778319D01*
X86490152Y-123741605D01*
X86571001Y-123712677D01*
X86654296Y-123691813D01*
X86739235Y-123679213D01*
X86825000Y-123675000D01*
X88575000Y-123675000D01*
X88660765Y-123679213D01*
X88660765Y-123679213D01*
G37*
D18*
G04 #@! TD*
G04 #@! TO.P,J2,3*
G04 #@! TO.N,N/C*
X87700000Y-125425000D03*
D16*
G04 #@! TO.N,GND*
G04 #@! TO.C,J2*
G36*
X85523513Y-118978611D02*
X85596318Y-118989411D01*
X85667714Y-119007295D01*
X85737013Y-119032090D01*
X85803548Y-119063559D01*
X85866678Y-119101398D01*
X85925795Y-119145242D01*
X85980330Y-119194670D01*
X86029758Y-119249205D01*
X86073602Y-119308322D01*
X86111441Y-119371452D01*
X86142910Y-119437987D01*
X86167705Y-119507286D01*
X86185589Y-119578682D01*
X86196389Y-119651487D01*
X86200000Y-119725000D01*
X86200000Y-121725000D01*
X86196389Y-121798513D01*
X86185589Y-121871318D01*
X86167705Y-121942714D01*
X86142910Y-122012013D01*
X86111441Y-122078548D01*
X86073602Y-122141678D01*
X86029758Y-122200795D01*
X85980330Y-122255330D01*
X85925795Y-122304758D01*
X85866678Y-122348602D01*
X85803548Y-122386441D01*
X85737013Y-122417910D01*
X85667714Y-122442705D01*
X85596318Y-122460589D01*
X85523513Y-122471389D01*
X85450000Y-122475000D01*
X83950000Y-122475000D01*
X83876487Y-122471389D01*
X83803682Y-122460589D01*
X83732286Y-122442705D01*
X83662987Y-122417910D01*
X83596452Y-122386441D01*
X83533322Y-122348602D01*
X83474205Y-122304758D01*
X83419670Y-122255330D01*
X83370242Y-122200795D01*
X83326398Y-122141678D01*
X83288559Y-122078548D01*
X83257090Y-122012013D01*
X83232295Y-121942714D01*
X83214411Y-121871318D01*
X83203611Y-121798513D01*
X83200000Y-121725000D01*
X83200000Y-119725000D01*
X83203611Y-119651487D01*
X83214411Y-119578682D01*
X83232295Y-119507286D01*
X83257090Y-119437987D01*
X83288559Y-119371452D01*
X83326398Y-119308322D01*
X83370242Y-119249205D01*
X83419670Y-119194670D01*
X83474205Y-119145242D01*
X83533322Y-119101398D01*
X83596452Y-119063559D01*
X83662987Y-119032090D01*
X83732286Y-119007295D01*
X83803682Y-118989411D01*
X83876487Y-118978611D01*
X83950000Y-118975000D01*
X85450000Y-118975000D01*
X85523513Y-118978611D01*
X85523513Y-118978611D01*
G37*
D19*
G04 #@! TD*
G04 #@! TO.P,J2,2*
G04 #@! TO.N,GND*
X84700000Y-120725000D03*
D20*
G04 #@! TO.P,J2,1*
G04 #@! TO.N,+12V*
X90700000Y-120725000D03*
G04 #@! TD*
D10*
G04 #@! TO.P,J3,6*
G04 #@! TO.N,/DTR*
X100225000Y-64845000D03*
G04 #@! TO.P,J3,5*
G04 #@! TO.N,/TX*
X97685000Y-64845000D03*
G04 #@! TO.P,J3,4*
G04 #@! TO.N,/RX*
X95145000Y-64845000D03*
G04 #@! TO.P,J3,3*
G04 #@! TO.N,/VCC_FTDI*
X92605000Y-64845000D03*
G04 #@! TO.P,J3,2*
G04 #@! TO.N,/CTS*
X90065000Y-64845000D03*
D11*
G04 #@! TO.P,J3,1*
G04 #@! TO.N,GND*
X87525000Y-64845000D03*
G04 #@! TD*
D21*
G04 #@! TO.P,J4,1*
G04 #@! TO.N,+12V*
X94510000Y-85800000D03*
D22*
G04 #@! TO.P,J4,2*
G04 #@! TO.N,/SCL*
X91970000Y-87070000D03*
G04 #@! TO.P,J4,3*
G04 #@! TO.N,/SDA*
X94510000Y-88340000D03*
G04 #@! TO.P,J4,4*
G04 #@! TO.N,GND*
X91970000Y-89610000D03*
G04 #@! TO.P,J4,5*
G04 #@! TO.N,+BATT*
X94510000Y-90880000D03*
G04 #@! TO.P,J4,6*
G04 #@! TO.N,GND*
X91970000Y-92150000D03*
G04 #@! TD*
D21*
G04 #@! TO.P,J5,1*
G04 #@! TO.N,+12V*
X94510000Y-102310000D03*
D22*
G04 #@! TO.P,J5,2*
G04 #@! TO.N,/SCL*
X91970000Y-103580000D03*
G04 #@! TO.P,J5,3*
G04 #@! TO.N,/SDA*
X94510000Y-104850000D03*
G04 #@! TO.P,J5,4*
G04 #@! TO.N,GND*
X91970000Y-106120000D03*
G04 #@! TO.P,J5,5*
G04 #@! TO.N,+BATT*
X94510000Y-107390000D03*
G04 #@! TO.P,J5,6*
G04 #@! TO.N,GND*
X91970000Y-108660000D03*
G04 #@! TD*
D12*
G04 #@! TO.P,TP1,2*
G04 #@! TO.N,GND*
X93150000Y-76325000D03*
G04 #@! TO.P,TP1,1*
G04 #@! TO.N,/MCP1703-50/5.0V*
X93150000Y-78865000D03*
G04 #@! TD*
D23*
G04 #@! TO.P,J6,S*
G04 #@! TO.N,+3V3*
X157465000Y-110720000D03*
D24*
G04 #@! TO.P,J6,R*
G04 #@! TO.N,GND*
X149465000Y-115920000D03*
G04 #@! TO.P,J6,RN*
G04 #@! TO.N,Net-(J6-PadRN)*
X150665000Y-113220000D03*
D23*
G04 #@! TO.P,J6,TN*
G04 #@! TO.N,Net-(J6-PadTN)*
X146265000Y-106620000D03*
D25*
G04 #@! TO.P,J6,T*
G04 #@! TO.N,/IO2*
X153565000Y-106120000D03*
G04 #@! TD*
D23*
G04 #@! TO.P,J7,S*
G04 #@! TO.N,+3V3*
X157465000Y-94845000D03*
D24*
G04 #@! TO.P,J7,R*
G04 #@! TO.N,GND*
X149465000Y-100045000D03*
G04 #@! TO.P,J7,RN*
G04 #@! TO.N,Net-(J7-PadRN)*
X150665000Y-97345000D03*
D23*
G04 #@! TO.P,J7,TN*
G04 #@! TO.N,Net-(J7-PadTN)*
X146265000Y-90745000D03*
D25*
G04 #@! TO.P,J7,T*
G04 #@! TO.N,/IO2*
X153565000Y-90245000D03*
G04 #@! TD*
D26*
G04 #@! TO.N,GND*
X110385000Y-123030000D03*
X118640000Y-123030000D03*
X126895000Y-123030000D03*
X135150000Y-123030000D03*
X140230000Y-121285000D03*
D27*
X153565000Y-72230000D03*
X138150000Y-85865000D03*
X101114000Y-79977000D03*
X105076000Y-71341000D03*
X109865372Y-64852372D03*
X156105000Y-78580000D03*
X147391117Y-120528884D03*
X155470000Y-128745000D03*
X84985000Y-77310000D03*
G04 #@! TO.N,/RX*
X102765000Y-63975000D03*
X126260000Y-74135000D03*
G04 #@! TO.N,/TX*
X126895000Y-71145000D03*
G04 #@! TO.N,/SDA*
X144672207Y-134457207D03*
X83715000Y-107790000D03*
X83715000Y-103345000D03*
X83715000Y-90645000D03*
G04 #@! TO.N,/SCL*
X151660000Y-135730000D03*
X84985000Y-105250000D03*
X83715000Y-87470000D03*
X149120000Y-133190000D03*
G04 #@! TO.N,+BATT*
X107500000Y-76675000D03*
X111020000Y-76675000D03*
G04 #@! TD*
D28*
G04 #@! TO.N,/RX*
X103334990Y-63405010D02*
X102765000Y-63975000D01*
X116034990Y-64544990D02*
X114895010Y-63405010D01*
X116034990Y-69832073D02*
X116034990Y-64544990D01*
X126260000Y-74135000D02*
X120337917Y-74135000D01*
X114895010Y-63405010D02*
X103334990Y-63405010D01*
X120337917Y-74135000D02*
X116034990Y-69832073D01*
G04 #@! TO.N,/TX*
X97685000Y-63340000D02*
X97685000Y-64845000D01*
X126895000Y-71145000D02*
X118337880Y-71145000D01*
X98320000Y-62705000D02*
X97685000Y-63340000D01*
X118337880Y-71145000D02*
X116735000Y-69542120D01*
X116735000Y-63975000D02*
X115465000Y-62705000D01*
X116735000Y-69542120D02*
X116735000Y-63975000D01*
X115465000Y-62705000D02*
X98320000Y-62705000D01*
D29*
X97685000Y-64845000D02*
X95705000Y-62865000D01*
X90150000Y-62865000D02*
X88700001Y-64314999D01*
X95705000Y-62865000D02*
X90150000Y-62865000D01*
X87525000Y-69690000D02*
X87525000Y-68420000D01*
X88700001Y-64314999D02*
X88700001Y-67150000D01*
X88700001Y-67244999D02*
X88700001Y-67150000D01*
X87525000Y-68420000D02*
X88700001Y-67244999D01*
D28*
G04 #@! TO.N,/SDA*
X82445000Y-109060000D02*
X83715000Y-107790000D01*
X83715000Y-102213630D02*
X82445000Y-100943630D01*
X83715000Y-103345000D02*
X83715000Y-102213630D01*
X82445000Y-100943630D02*
X82445000Y-94455000D01*
X95500000Y-105840000D02*
X94510000Y-104850000D01*
X101600000Y-105840000D02*
X95500000Y-105840000D01*
X82445000Y-94455000D02*
X82445000Y-91915000D01*
X82445000Y-91915000D02*
X83715000Y-90645000D01*
X82447793Y-127475000D02*
X89430000Y-134457207D01*
X82445000Y-127475000D02*
X82447793Y-127475000D01*
X82445000Y-127475000D02*
X82445000Y-109060000D01*
X144672207Y-134457207D02*
X89430000Y-134457207D01*
G04 #@! TO.N,/SCL*
X84985000Y-105250000D02*
X81175000Y-105250000D01*
X81175000Y-105250000D02*
X81175000Y-90645000D01*
X81175000Y-90645000D02*
X81175000Y-90010000D01*
X81175000Y-90010000D02*
X83715000Y-87470000D01*
X101600000Y-101950000D02*
X101600000Y-103300000D01*
X100549999Y-100899999D02*
X101600000Y-101950000D01*
X91970000Y-101440000D02*
X92510001Y-100899999D01*
X92510001Y-100899999D02*
X100549999Y-100899999D01*
X91970000Y-103580000D02*
X91970000Y-101440000D01*
X145945000Y-135730000D02*
X144675000Y-135730000D01*
X149120000Y-135730000D02*
X149120000Y-133825000D01*
X144675000Y-135730000D02*
X149120000Y-135730000D01*
X88795000Y-135730000D02*
X81175000Y-128110000D01*
X81175000Y-128110000D02*
X81175000Y-105250000D01*
X144675000Y-135730000D02*
X88795000Y-135730000D01*
X149120000Y-135730000D02*
X151660000Y-135730000D01*
X149120000Y-133825000D02*
X149120000Y-133190000D01*
G04 #@! TO.N,+BATT*
X107500000Y-76675000D02*
X111020000Y-76675000D01*
G04 #@! TD*
D30*
G04 #@! TO.N,GND*
G36*
X88557093Y-63383106D02*
X88501310Y-63360000D01*
X87810750Y-63360000D01*
X87652000Y-63518750D01*
X87652000Y-64718000D01*
X87672000Y-64718000D01*
X87672000Y-64972000D01*
X87652000Y-64972000D01*
X87652000Y-66171250D01*
X87810750Y-66330000D01*
X87940002Y-66330000D01*
X87940002Y-66930196D01*
X87040528Y-67829671D01*
X86977072Y-67872071D01*
X86934672Y-67935527D01*
X86934671Y-67935528D01*
X86809097Y-68123463D01*
X86750112Y-68420000D01*
X86750423Y-68421562D01*
X86454375Y-68619375D01*
X86241157Y-68938478D01*
X86180183Y-68808642D01*
X85751924Y-68418355D01*
X85341890Y-68248524D01*
X85112000Y-68369845D01*
X85112000Y-69563000D01*
X85132000Y-69563000D01*
X85132000Y-69817000D01*
X85112000Y-69817000D01*
X85112000Y-71010155D01*
X85341890Y-71131476D01*
X85751924Y-70961645D01*
X86180183Y-70571358D01*
X86241157Y-70441522D01*
X86454375Y-70760625D01*
X86945582Y-71088839D01*
X87378744Y-71175000D01*
X87671256Y-71175000D01*
X88104418Y-71088839D01*
X88595625Y-70760625D01*
X88607816Y-70742381D01*
X88616843Y-70787765D01*
X88757191Y-70997809D01*
X88967235Y-71138157D01*
X89215000Y-71187440D01*
X90915000Y-71187440D01*
X91162765Y-71138157D01*
X91372809Y-70997809D01*
X91513157Y-70787765D01*
X91562440Y-70540000D01*
X91562440Y-68840000D01*
X91513157Y-68592235D01*
X91372809Y-68382191D01*
X91162765Y-68241843D01*
X90915000Y-68192560D01*
X89215000Y-68192560D01*
X88967235Y-68241843D01*
X88757191Y-68382191D01*
X88616843Y-68592235D01*
X88607816Y-68637619D01*
X88595625Y-68619375D01*
X88478612Y-68541190D01*
X89184477Y-67835326D01*
X89247930Y-67792928D01*
X89290328Y-67729475D01*
X89290330Y-67729473D01*
X89415904Y-67541537D01*
X89415905Y-67541536D01*
X89460001Y-67319851D01*
X89460001Y-67319847D01*
X89474889Y-67245000D01*
X89460001Y-67170153D01*
X89460001Y-66226746D01*
X89485582Y-66243839D01*
X89918744Y-66330000D01*
X90211256Y-66330000D01*
X90644418Y-66243839D01*
X91135625Y-65915625D01*
X91335000Y-65617239D01*
X91534375Y-65915625D01*
X92025582Y-66243839D01*
X92458744Y-66330000D01*
X92751256Y-66330000D01*
X93184418Y-66243839D01*
X93675625Y-65915625D01*
X93875000Y-65617239D01*
X94074375Y-65915625D01*
X94565582Y-66243839D01*
X94998744Y-66330000D01*
X95291256Y-66330000D01*
X95724418Y-66243839D01*
X96215625Y-65915625D01*
X96415000Y-65617239D01*
X96614375Y-65915625D01*
X97105582Y-66243839D01*
X97538744Y-66330000D01*
X97831256Y-66330000D01*
X98264418Y-66243839D01*
X98755625Y-65915625D01*
X98955000Y-65617239D01*
X99154375Y-65915625D01*
X99645582Y-66243839D01*
X100078744Y-66330000D01*
X100371256Y-66330000D01*
X100804418Y-66243839D01*
X101295625Y-65915625D01*
X101623839Y-65424418D01*
X101716945Y-64956341D01*
X101952138Y-65191534D01*
X102479561Y-65410000D01*
X103050439Y-65410000D01*
X103577862Y-65191534D01*
X103981534Y-64787862D01*
X104187751Y-64290010D01*
X114528432Y-64290010D01*
X115149991Y-64911570D01*
X115149990Y-69744912D01*
X115132653Y-69832073D01*
X115149990Y-69919234D01*
X115149990Y-69919237D01*
X115201338Y-70177382D01*
X115396941Y-70470122D01*
X115470837Y-70519498D01*
X119650494Y-74699156D01*
X119699868Y-74773049D01*
X119773761Y-74822423D01*
X119773762Y-74822424D01*
X119961493Y-74947862D01*
X119992607Y-74968652D01*
X120250752Y-75020000D01*
X120250756Y-75020000D01*
X120337917Y-75037337D01*
X120425078Y-75020000D01*
X125115604Y-75020000D01*
X125447138Y-75351534D01*
X125974561Y-75570000D01*
X126545439Y-75570000D01*
X127072862Y-75351534D01*
X127476534Y-74947862D01*
X127695000Y-74420439D01*
X127695000Y-73849561D01*
X127476534Y-73322138D01*
X127072862Y-72918466D01*
X126545439Y-72700000D01*
X125974561Y-72700000D01*
X125447138Y-72918466D01*
X125115604Y-73250000D01*
X120704496Y-73250000D01*
X119484496Y-72030000D01*
X125750604Y-72030000D01*
X126082138Y-72361534D01*
X126609561Y-72580000D01*
X127180439Y-72580000D01*
X127707862Y-72361534D01*
X128111534Y-71957862D01*
X128330000Y-71430439D01*
X128330000Y-70859561D01*
X128297045Y-70780000D01*
X137932538Y-70780000D01*
X138000000Y-70793419D01*
X138067461Y-70780000D01*
X138067462Y-70780000D01*
X138267273Y-70740255D01*
X138493857Y-70588857D01*
X138645255Y-70362273D01*
X138698419Y-70095000D01*
X138685000Y-70027538D01*
X138685000Y-64800431D01*
X157680000Y-64800431D01*
X157680000Y-65689569D01*
X158020259Y-66511026D01*
X158648974Y-67139741D01*
X159470431Y-67480000D01*
X160359569Y-67480000D01*
X161181026Y-67139741D01*
X161809741Y-66511026D01*
X162150000Y-65689569D01*
X162150000Y-64800431D01*
X161809741Y-63978974D01*
X161181026Y-63350259D01*
X160359569Y-63010000D01*
X159470431Y-63010000D01*
X158648974Y-63350259D01*
X158020259Y-63978974D01*
X157680000Y-64800431D01*
X138685000Y-64800431D01*
X138685000Y-62685000D01*
X162315000Y-62685000D01*
X162315001Y-136315000D01*
X152970918Y-136315000D01*
X153095000Y-136015439D01*
X153095000Y-135444561D01*
X152876534Y-134917138D01*
X152472862Y-134513466D01*
X151945439Y-134295000D01*
X151374561Y-134295000D01*
X150847138Y-134513466D01*
X150515604Y-134845000D01*
X150005000Y-134845000D01*
X150005000Y-134334396D01*
X150336534Y-134002862D01*
X150555000Y-133475439D01*
X150555000Y-133380431D01*
X157680000Y-133380431D01*
X157680000Y-134269569D01*
X158020259Y-135091026D01*
X158648974Y-135719741D01*
X159470431Y-136060000D01*
X160359569Y-136060000D01*
X161181026Y-135719741D01*
X161809741Y-135091026D01*
X162150000Y-134269569D01*
X162150000Y-133380431D01*
X161809741Y-132558974D01*
X161181026Y-131930259D01*
X160359569Y-131590000D01*
X159470431Y-131590000D01*
X158648974Y-131930259D01*
X158020259Y-132558974D01*
X157680000Y-133380431D01*
X150555000Y-133380431D01*
X150555000Y-132904561D01*
X150336534Y-132377138D01*
X149932862Y-131973466D01*
X149405439Y-131755000D01*
X148834561Y-131755000D01*
X148307138Y-131973466D01*
X147903466Y-132377138D01*
X147685000Y-132904561D01*
X147685000Y-133475439D01*
X147903466Y-134002862D01*
X148235001Y-134334397D01*
X148235000Y-134845000D01*
X146064811Y-134845000D01*
X146107207Y-134742646D01*
X146107207Y-134171768D01*
X145888741Y-133644345D01*
X145485069Y-133240673D01*
X144957646Y-133022207D01*
X144386768Y-133022207D01*
X143859345Y-133240673D01*
X143527811Y-133572207D01*
X89796579Y-133572207D01*
X83330000Y-127105629D01*
X83330000Y-124550000D01*
X85302560Y-124550000D01*
X85302560Y-126300000D01*
X85418449Y-126882613D01*
X85748472Y-127376528D01*
X86242387Y-127706551D01*
X86825000Y-127822440D01*
X88575000Y-127822440D01*
X89157613Y-127706551D01*
X89651528Y-127376528D01*
X89981551Y-126882613D01*
X90097440Y-126300000D01*
X90097440Y-124585750D01*
X153040000Y-124585750D01*
X153040000Y-125176310D01*
X153136673Y-125409699D01*
X153315302Y-125588327D01*
X153548691Y-125685000D01*
X153914250Y-125685000D01*
X154073000Y-125526250D01*
X154073000Y-124427000D01*
X153198750Y-124427000D01*
X153040000Y-124585750D01*
X90097440Y-124585750D01*
X90097440Y-124550000D01*
X89981551Y-123967387D01*
X89651528Y-123473472D01*
X89577024Y-123423690D01*
X153040000Y-123423690D01*
X153040000Y-124014250D01*
X153198750Y-124173000D01*
X154073000Y-124173000D01*
X154073000Y-123960755D01*
X154310000Y-123960755D01*
X154310000Y-124639246D01*
X154327000Y-124724710D01*
X154327000Y-125526250D01*
X154485750Y-125685000D01*
X154851309Y-125685000D01*
X155016016Y-125616776D01*
X155017392Y-125617695D01*
X155470000Y-125707725D01*
X155922609Y-125617695D01*
X156105001Y-125495825D01*
X156287392Y-125617695D01*
X156740000Y-125707725D01*
X157192609Y-125617695D01*
X157576313Y-125361313D01*
X157832695Y-124977608D01*
X157900000Y-124639245D01*
X157900000Y-123960754D01*
X157832695Y-123622391D01*
X157576313Y-123238687D01*
X157192608Y-122982305D01*
X156740000Y-122892275D01*
X156287391Y-122982305D01*
X156105000Y-123104175D01*
X155922608Y-122982305D01*
X155470000Y-122892275D01*
X155017391Y-122982305D01*
X155016016Y-122983224D01*
X154851309Y-122915000D01*
X154485750Y-122915000D01*
X154327000Y-123073750D01*
X154327000Y-123875291D01*
X154310000Y-123960755D01*
X154073000Y-123960755D01*
X154073000Y-123073750D01*
X153914250Y-122915000D01*
X153548691Y-122915000D01*
X153315302Y-123011673D01*
X153136673Y-123190301D01*
X153040000Y-123423690D01*
X89577024Y-123423690D01*
X89157613Y-123143449D01*
X89051994Y-123122440D01*
X92450000Y-123122440D01*
X92697765Y-123073157D01*
X92907809Y-122932809D01*
X93048157Y-122722765D01*
X93097440Y-122475000D01*
X93097440Y-118975000D01*
X93048157Y-118727235D01*
X92907809Y-118517191D01*
X92697765Y-118376843D01*
X92450000Y-118327560D01*
X88950000Y-118327560D01*
X88702235Y-118376843D01*
X88492191Y-118517191D01*
X88351843Y-118727235D01*
X88302560Y-118975000D01*
X88302560Y-122475000D01*
X88351843Y-122722765D01*
X88492191Y-122932809D01*
X88659001Y-123044269D01*
X88575000Y-123027560D01*
X86825000Y-123027560D01*
X86242387Y-123143449D01*
X85748472Y-123473472D01*
X85418449Y-123967387D01*
X85302560Y-124550000D01*
X83330000Y-124550000D01*
X83330000Y-123110000D01*
X84414250Y-123110000D01*
X84573000Y-122951250D01*
X84573000Y-120852000D01*
X84827000Y-120852000D01*
X84827000Y-122951250D01*
X84985750Y-123110000D01*
X86326309Y-123110000D01*
X86559698Y-123013327D01*
X86738327Y-122834699D01*
X86835000Y-122601310D01*
X86835000Y-121010750D01*
X86676250Y-120852000D01*
X84827000Y-120852000D01*
X84573000Y-120852000D01*
X84553000Y-120852000D01*
X84553000Y-120598000D01*
X84573000Y-120598000D01*
X84573000Y-118498750D01*
X84827000Y-118498750D01*
X84827000Y-120598000D01*
X86676250Y-120598000D01*
X86835000Y-120439250D01*
X86835000Y-118848690D01*
X86738327Y-118615301D01*
X86559698Y-118436673D01*
X86326309Y-118340000D01*
X84985750Y-118340000D01*
X84827000Y-118498750D01*
X84573000Y-118498750D01*
X84414250Y-118340000D01*
X83330000Y-118340000D01*
X83330000Y-116316122D01*
X146875825Y-116316122D01*
X146913469Y-116466624D01*
X147248368Y-117057028D01*
X147783712Y-117474330D01*
X148438000Y-117655000D01*
X149338000Y-117655000D01*
X149338000Y-116047000D01*
X149592000Y-116047000D01*
X149592000Y-117655000D01*
X150492000Y-117655000D01*
X151146288Y-117474330D01*
X151681632Y-117057028D01*
X152016531Y-116466624D01*
X152054175Y-116316122D01*
X151936125Y-116047000D01*
X149592000Y-116047000D01*
X149338000Y-116047000D01*
X146993875Y-116047000D01*
X146875825Y-116316122D01*
X83330000Y-116316122D01*
X83330000Y-115523878D01*
X146875825Y-115523878D01*
X146993875Y-115793000D01*
X149338000Y-115793000D01*
X149338000Y-115773000D01*
X149592000Y-115773000D01*
X149592000Y-115793000D01*
X151936125Y-115793000D01*
X152054175Y-115523878D01*
X152016531Y-115373376D01*
X151774819Y-114947255D01*
X152241963Y-114854334D01*
X152815865Y-114470865D01*
X153199334Y-113896963D01*
X153333990Y-113220000D01*
X153199334Y-112543037D01*
X152815865Y-111969135D01*
X152549087Y-111790879D01*
X155730000Y-111790879D01*
X155830666Y-112296962D01*
X156214135Y-112870865D01*
X156788037Y-113254334D01*
X157465000Y-113388990D01*
X158141962Y-113254334D01*
X158715865Y-112870865D01*
X159099334Y-112296963D01*
X159200000Y-111790880D01*
X159200000Y-109649120D01*
X159099334Y-109143037D01*
X158715865Y-108569135D01*
X158141963Y-108185666D01*
X157465000Y-108051010D01*
X156788038Y-108185666D01*
X156214136Y-108569135D01*
X155830667Y-109143037D01*
X155730001Y-109649120D01*
X155730000Y-111790879D01*
X152549087Y-111790879D01*
X152241963Y-111585666D01*
X151735880Y-111485000D01*
X149594120Y-111485000D01*
X149088037Y-111585666D01*
X148514135Y-111969135D01*
X148130666Y-112543037D01*
X147996010Y-113220000D01*
X148130666Y-113896963D01*
X148341020Y-114211779D01*
X147783712Y-114365670D01*
X147248368Y-114782972D01*
X146913469Y-115373376D01*
X146875825Y-115523878D01*
X83330000Y-115523878D01*
X83330000Y-109426578D01*
X83531578Y-109225000D01*
X83758878Y-109225000D01*
X83704065Y-109279813D01*
X83360000Y-110110458D01*
X83360000Y-111009542D01*
X83704065Y-111840187D01*
X84339813Y-112475935D01*
X85170458Y-112820000D01*
X86069542Y-112820000D01*
X86900187Y-112475935D01*
X87535935Y-111840187D01*
X87880000Y-111009542D01*
X87880000Y-110110458D01*
X87684618Y-109638764D01*
X91170841Y-109638764D01*
X91240059Y-109880742D01*
X91762780Y-110067155D01*
X92317049Y-110039341D01*
X92699941Y-109880742D01*
X92769159Y-109638764D01*
X91970000Y-108839605D01*
X91170841Y-109638764D01*
X87684618Y-109638764D01*
X87535935Y-109279813D01*
X86900187Y-108644065D01*
X86438385Y-108452780D01*
X90562845Y-108452780D01*
X90590659Y-109007049D01*
X90749258Y-109389941D01*
X90991236Y-109459159D01*
X91790395Y-108660000D01*
X92149605Y-108660000D01*
X92948764Y-109459159D01*
X93190742Y-109389941D01*
X93377155Y-108867220D01*
X93349341Y-108312951D01*
X93190742Y-107930059D01*
X92948764Y-107860841D01*
X92149605Y-108660000D01*
X91790395Y-108660000D01*
X90991236Y-107860841D01*
X90749258Y-107930059D01*
X90562845Y-108452780D01*
X86438385Y-108452780D01*
X86069542Y-108300000D01*
X85170458Y-108300000D01*
X85033482Y-108356737D01*
X85150000Y-108075439D01*
X85150000Y-107504561D01*
X84981914Y-107098764D01*
X91170841Y-107098764D01*
X91240059Y-107340742D01*
X91367863Y-107386320D01*
X91240059Y-107439258D01*
X91170841Y-107681236D01*
X91970000Y-108480395D01*
X92769159Y-107681236D01*
X92699941Y-107439258D01*
X92572137Y-107393680D01*
X92699941Y-107340742D01*
X92769159Y-107098764D01*
X91970000Y-106299605D01*
X91170841Y-107098764D01*
X84981914Y-107098764D01*
X84931534Y-106977138D01*
X84596853Y-106642457D01*
X84699561Y-106685000D01*
X85270439Y-106685000D01*
X85797862Y-106466534D01*
X86201534Y-106062862D01*
X86263700Y-105912780D01*
X90562845Y-105912780D01*
X90590659Y-106467049D01*
X90749258Y-106849941D01*
X90991236Y-106919159D01*
X91790395Y-106120000D01*
X92149605Y-106120000D01*
X92948764Y-106919159D01*
X93190742Y-106849941D01*
X93377155Y-106327220D01*
X93349341Y-105772951D01*
X93190742Y-105390059D01*
X92948764Y-105320841D01*
X92149605Y-106120000D01*
X91790395Y-106120000D01*
X90991236Y-105320841D01*
X90749258Y-105390059D01*
X90562845Y-105912780D01*
X86263700Y-105912780D01*
X86420000Y-105535439D01*
X86420000Y-104964561D01*
X86201534Y-104437138D01*
X85797862Y-104033466D01*
X85270439Y-103815000D01*
X85073552Y-103815000D01*
X85150000Y-103630439D01*
X85150000Y-103302517D01*
X90575000Y-103302517D01*
X90575000Y-103857483D01*
X90787376Y-104370204D01*
X91179796Y-104762624D01*
X91374859Y-104843422D01*
X91240059Y-104899258D01*
X91170841Y-105141236D01*
X91970000Y-105940395D01*
X92769159Y-105141236D01*
X92699941Y-104899258D01*
X92555069Y-104847594D01*
X92760204Y-104762624D01*
X93152624Y-104370204D01*
X93365000Y-103857483D01*
X93365000Y-103576459D01*
X93502235Y-103668157D01*
X93683049Y-103704123D01*
X93327376Y-104059796D01*
X93115000Y-104572517D01*
X93115000Y-105127483D01*
X93327376Y-105640204D01*
X93719796Y-106032624D01*
X93930740Y-106120000D01*
X93719796Y-106207376D01*
X93327376Y-106599796D01*
X93115000Y-107112517D01*
X93115000Y-107667483D01*
X93327376Y-108180204D01*
X93719796Y-108572624D01*
X94232517Y-108785000D01*
X94787483Y-108785000D01*
X94903630Y-108736890D01*
X100158524Y-108736890D01*
X100328355Y-109146924D01*
X100718642Y-109575183D01*
X101243108Y-109821486D01*
X101473000Y-109700819D01*
X101473000Y-108507000D01*
X101727000Y-108507000D01*
X101727000Y-109700819D01*
X101956892Y-109821486D01*
X102481358Y-109575183D01*
X102871645Y-109146924D01*
X103041476Y-108736890D01*
X102920155Y-108507000D01*
X101727000Y-108507000D01*
X101473000Y-108507000D01*
X100279845Y-108507000D01*
X100158524Y-108736890D01*
X94903630Y-108736890D01*
X95300204Y-108572624D01*
X95692624Y-108180204D01*
X95905000Y-107667483D01*
X95905000Y-107112517D01*
X95744485Y-106725000D01*
X100405344Y-106725000D01*
X100529375Y-106910625D01*
X100848478Y-107123843D01*
X100718642Y-107184817D01*
X100328355Y-107613076D01*
X100158524Y-108023110D01*
X100279845Y-108253000D01*
X101473000Y-108253000D01*
X101473000Y-108233000D01*
X101727000Y-108233000D01*
X101727000Y-108253000D01*
X102920155Y-108253000D01*
X103041476Y-108023110D01*
X102871645Y-107613076D01*
X102588151Y-107302000D01*
X110030560Y-107302000D01*
X110030560Y-109002000D01*
X110079843Y-109249765D01*
X110220191Y-109459809D01*
X110430235Y-109600157D01*
X110678000Y-109649440D01*
X112378000Y-109649440D01*
X112625765Y-109600157D01*
X112835809Y-109459809D01*
X112976157Y-109249765D01*
X112985184Y-109204381D01*
X112997375Y-109222625D01*
X113488582Y-109550839D01*
X113921744Y-109637000D01*
X114214256Y-109637000D01*
X114647418Y-109550839D01*
X115138625Y-109222625D01*
X115338000Y-108924239D01*
X115537375Y-109222625D01*
X116028582Y-109550839D01*
X116461744Y-109637000D01*
X116754256Y-109637000D01*
X117187418Y-109550839D01*
X117678625Y-109222625D01*
X117878000Y-108924239D01*
X118077375Y-109222625D01*
X118568582Y-109550839D01*
X119001744Y-109637000D01*
X119294256Y-109637000D01*
X119727418Y-109550839D01*
X120218625Y-109222625D01*
X120418000Y-108924239D01*
X120617375Y-109222625D01*
X121108582Y-109550839D01*
X121541744Y-109637000D01*
X121834256Y-109637000D01*
X122267418Y-109550839D01*
X122758625Y-109222625D01*
X122958000Y-108924239D01*
X123157375Y-109222625D01*
X123648582Y-109550839D01*
X124081744Y-109637000D01*
X124374256Y-109637000D01*
X124807418Y-109550839D01*
X125298625Y-109222625D01*
X125498000Y-108924239D01*
X125697375Y-109222625D01*
X126188582Y-109550839D01*
X126621744Y-109637000D01*
X126914256Y-109637000D01*
X127347418Y-109550839D01*
X127838625Y-109222625D01*
X128051843Y-108903522D01*
X128112817Y-109033358D01*
X128541076Y-109423645D01*
X128951110Y-109593476D01*
X129181000Y-109472155D01*
X129181000Y-108279000D01*
X129435000Y-108279000D01*
X129435000Y-109472155D01*
X129664890Y-109593476D01*
X130074924Y-109423645D01*
X130503183Y-109033358D01*
X130749486Y-108508892D01*
X130628819Y-108279000D01*
X129435000Y-108279000D01*
X129181000Y-108279000D01*
X129161000Y-108279000D01*
X129161000Y-108025000D01*
X129181000Y-108025000D01*
X129181000Y-106831845D01*
X129435000Y-106831845D01*
X129435000Y-108025000D01*
X130628819Y-108025000D01*
X130749486Y-107795108D01*
X130700538Y-107690879D01*
X144530000Y-107690879D01*
X144630666Y-108196962D01*
X145014135Y-108770865D01*
X145588037Y-109154334D01*
X146265000Y-109288990D01*
X146941962Y-109154334D01*
X147515865Y-108770865D01*
X147899334Y-108196963D01*
X148000000Y-107690880D01*
X148000000Y-105549120D01*
X147899334Y-105043037D01*
X147883942Y-105020000D01*
X150917560Y-105020000D01*
X150917560Y-107220000D01*
X150966843Y-107467765D01*
X151107191Y-107677809D01*
X151317235Y-107818157D01*
X151565000Y-107867440D01*
X155565000Y-107867440D01*
X155812765Y-107818157D01*
X156022809Y-107677809D01*
X156163157Y-107467765D01*
X156212440Y-107220000D01*
X156212440Y-105020000D01*
X156163157Y-104772235D01*
X156022809Y-104562191D01*
X155812765Y-104421843D01*
X155565000Y-104372560D01*
X151565000Y-104372560D01*
X151317235Y-104421843D01*
X151107191Y-104562191D01*
X150966843Y-104772235D01*
X150917560Y-105020000D01*
X147883942Y-105020000D01*
X147515865Y-104469135D01*
X146941963Y-104085666D01*
X146265000Y-103951010D01*
X145588038Y-104085666D01*
X145014136Y-104469135D01*
X144630667Y-105043037D01*
X144530001Y-105549120D01*
X144530000Y-107690879D01*
X130700538Y-107690879D01*
X130503183Y-107270642D01*
X130074924Y-106880355D01*
X129664890Y-106710524D01*
X129435000Y-106831845D01*
X129181000Y-106831845D01*
X128951110Y-106710524D01*
X128541076Y-106880355D01*
X128112817Y-107270642D01*
X128051843Y-107400478D01*
X127838625Y-107081375D01*
X127347418Y-106753161D01*
X126914256Y-106667000D01*
X126621744Y-106667000D01*
X126188582Y-106753161D01*
X125697375Y-107081375D01*
X125498000Y-107379761D01*
X125298625Y-107081375D01*
X124807418Y-106753161D01*
X124374256Y-106667000D01*
X124081744Y-106667000D01*
X123648582Y-106753161D01*
X123157375Y-107081375D01*
X122958000Y-107379761D01*
X122758625Y-107081375D01*
X122267418Y-106753161D01*
X121834256Y-106667000D01*
X121541744Y-106667000D01*
X121108582Y-106753161D01*
X120617375Y-107081375D01*
X120418000Y-107379761D01*
X120218625Y-107081375D01*
X119727418Y-106753161D01*
X119294256Y-106667000D01*
X119001744Y-106667000D01*
X118568582Y-106753161D01*
X118077375Y-107081375D01*
X117878000Y-107379761D01*
X117678625Y-107081375D01*
X117187418Y-106753161D01*
X116754256Y-106667000D01*
X116461744Y-106667000D01*
X116028582Y-106753161D01*
X115537375Y-107081375D01*
X115338000Y-107379761D01*
X115138625Y-107081375D01*
X114647418Y-106753161D01*
X114214256Y-106667000D01*
X113921744Y-106667000D01*
X113488582Y-106753161D01*
X112997375Y-107081375D01*
X112985184Y-107099619D01*
X112976157Y-107054235D01*
X112835809Y-106844191D01*
X112625765Y-106703843D01*
X112378000Y-106654560D01*
X110678000Y-106654560D01*
X110430235Y-106703843D01*
X110220191Y-106844191D01*
X110079843Y-107054235D01*
X110030560Y-107302000D01*
X102588151Y-107302000D01*
X102481358Y-107184817D01*
X102351522Y-107123843D01*
X102670625Y-106910625D01*
X102998839Y-106419418D01*
X103114092Y-105840000D01*
X102998839Y-105260582D01*
X102670625Y-104769375D01*
X102652381Y-104757184D01*
X102697765Y-104748157D01*
X102907809Y-104607809D01*
X103048157Y-104397765D01*
X103097440Y-104150000D01*
X103097440Y-102450000D01*
X103048157Y-102202235D01*
X102907809Y-101992191D01*
X102697765Y-101851843D01*
X102473959Y-101807326D01*
X102433652Y-101604690D01*
X102238049Y-101311951D01*
X102164156Y-101262577D01*
X101342701Y-100441122D01*
X146875825Y-100441122D01*
X146913469Y-100591624D01*
X147248368Y-101182028D01*
X147783712Y-101599330D01*
X148438000Y-101780000D01*
X149338000Y-101780000D01*
X149338000Y-100172000D01*
X149592000Y-100172000D01*
X149592000Y-101780000D01*
X150492000Y-101780000D01*
X151146288Y-101599330D01*
X151681632Y-101182028D01*
X152016531Y-100591624D01*
X152054175Y-100441122D01*
X151936125Y-100172000D01*
X149592000Y-100172000D01*
X149338000Y-100172000D01*
X146993875Y-100172000D01*
X146875825Y-100441122D01*
X101342701Y-100441122D01*
X101237424Y-100335846D01*
X101188048Y-100261950D01*
X100895309Y-100066347D01*
X100637164Y-100014999D01*
X100637160Y-100014999D01*
X100549999Y-99997662D01*
X100462838Y-100014999D01*
X92597162Y-100014999D01*
X92510001Y-99997662D01*
X92422840Y-100014999D01*
X92422836Y-100014999D01*
X92164691Y-100066347D01*
X91871952Y-100261950D01*
X91822576Y-100335846D01*
X91405845Y-100752577D01*
X91331952Y-100801951D01*
X91282578Y-100875844D01*
X91282576Y-100875846D01*
X91136348Y-101094691D01*
X91067663Y-101440000D01*
X91085001Y-101527165D01*
X91085001Y-102492171D01*
X90787376Y-102789796D01*
X90575000Y-103302517D01*
X85150000Y-103302517D01*
X85150000Y-103059561D01*
X84945982Y-102567019D01*
X85170458Y-102660000D01*
X86069542Y-102660000D01*
X86900187Y-102315935D01*
X87535935Y-101680187D01*
X87880000Y-100849542D01*
X87880000Y-99950458D01*
X87755082Y-99648878D01*
X146875825Y-99648878D01*
X146993875Y-99918000D01*
X149338000Y-99918000D01*
X149338000Y-99898000D01*
X149592000Y-99898000D01*
X149592000Y-99918000D01*
X151936125Y-99918000D01*
X152054175Y-99648878D01*
X152016531Y-99498376D01*
X151774819Y-99072255D01*
X152241963Y-98979334D01*
X152815865Y-98595865D01*
X153199334Y-98021963D01*
X153333990Y-97345000D01*
X153199334Y-96668037D01*
X152815865Y-96094135D01*
X152549087Y-95915879D01*
X155730000Y-95915879D01*
X155830666Y-96421962D01*
X156214135Y-96995865D01*
X156788037Y-97379334D01*
X157465000Y-97513990D01*
X158141962Y-97379334D01*
X158715865Y-96995865D01*
X159099334Y-96421963D01*
X159200000Y-95915880D01*
X159200000Y-93774120D01*
X159099334Y-93268037D01*
X158715865Y-92694135D01*
X158141963Y-92310666D01*
X157465000Y-92176010D01*
X156788038Y-92310666D01*
X156214136Y-92694135D01*
X155830667Y-93268037D01*
X155730001Y-93774120D01*
X155730000Y-95915879D01*
X152549087Y-95915879D01*
X152241963Y-95710666D01*
X151735880Y-95610000D01*
X149594120Y-95610000D01*
X149088037Y-95710666D01*
X148514135Y-96094135D01*
X148130666Y-96668037D01*
X147996010Y-97345000D01*
X148130666Y-98021963D01*
X148341020Y-98336779D01*
X147783712Y-98490670D01*
X147248368Y-98907972D01*
X146913469Y-99498376D01*
X146875825Y-99648878D01*
X87755082Y-99648878D01*
X87535935Y-99119813D01*
X86900187Y-98484065D01*
X86069542Y-98140000D01*
X85170458Y-98140000D01*
X84339813Y-98484065D01*
X83704065Y-99119813D01*
X83360000Y-99950458D01*
X83360000Y-100607052D01*
X83330000Y-100577052D01*
X83330000Y-97930275D01*
X137569331Y-97930275D01*
X137631169Y-98166042D01*
X138132122Y-98342419D01*
X138662440Y-98313664D01*
X139018831Y-98166042D01*
X139080669Y-97930275D01*
X138325000Y-97174605D01*
X137569331Y-97930275D01*
X83330000Y-97930275D01*
X83330000Y-96802122D01*
X136977581Y-96802122D01*
X137006336Y-97332440D01*
X137153958Y-97688831D01*
X137389725Y-97750669D01*
X138145395Y-96995000D01*
X138504605Y-96995000D01*
X139260275Y-97750669D01*
X139496042Y-97688831D01*
X139672419Y-97187878D01*
X139643664Y-96657560D01*
X139496042Y-96301169D01*
X139260275Y-96239331D01*
X138504605Y-96995000D01*
X138145395Y-96995000D01*
X137389725Y-96239331D01*
X137153958Y-96301169D01*
X136977581Y-96802122D01*
X83330000Y-96802122D01*
X83330000Y-93600458D01*
X83360000Y-93600458D01*
X83360000Y-94499542D01*
X83704065Y-95330187D01*
X84339813Y-95965935D01*
X85170458Y-96310000D01*
X86069542Y-96310000D01*
X86900187Y-95965935D01*
X87535935Y-95330187D01*
X87880000Y-94499542D01*
X87880000Y-94443452D01*
X103843000Y-94443452D01*
X103843000Y-94974548D01*
X104046242Y-95465217D01*
X104421783Y-95840758D01*
X104912452Y-96044000D01*
X105443548Y-96044000D01*
X105934217Y-95840758D01*
X106130700Y-95644275D01*
X106962331Y-95644275D01*
X107024169Y-95880042D01*
X107525122Y-96056419D01*
X108055440Y-96027664D01*
X108411831Y-95880042D01*
X108473669Y-95644275D01*
X107718000Y-94888605D01*
X106962331Y-95644275D01*
X106130700Y-95644275D01*
X106309758Y-95465217D01*
X106441279Y-95147698D01*
X106546958Y-95402831D01*
X106782725Y-95464669D01*
X107538395Y-94709000D01*
X107897605Y-94709000D01*
X108653275Y-95464669D01*
X108889042Y-95402831D01*
X109065419Y-94901878D01*
X109040563Y-94443452D01*
X109431000Y-94443452D01*
X109431000Y-94974548D01*
X109634242Y-95465217D01*
X110009783Y-95840758D01*
X110500452Y-96044000D01*
X111031548Y-96044000D01*
X111522217Y-95840758D01*
X111718700Y-95644275D01*
X112550331Y-95644275D01*
X112612169Y-95880042D01*
X113113122Y-96056419D01*
X113643440Y-96027664D01*
X113999831Y-95880042D01*
X114061669Y-95644275D01*
X113306000Y-94888605D01*
X112550331Y-95644275D01*
X111718700Y-95644275D01*
X111897758Y-95465217D01*
X112029279Y-95147698D01*
X112134958Y-95402831D01*
X112370725Y-95464669D01*
X113126395Y-94709000D01*
X113485605Y-94709000D01*
X114241275Y-95464669D01*
X114477042Y-95402831D01*
X114653419Y-94901878D01*
X114628563Y-94443452D01*
X114892000Y-94443452D01*
X114892000Y-94974548D01*
X115095242Y-95465217D01*
X115470783Y-95840758D01*
X115961452Y-96044000D01*
X116492548Y-96044000D01*
X116983217Y-95840758D01*
X117179700Y-95644275D01*
X118011331Y-95644275D01*
X118073169Y-95880042D01*
X118574122Y-96056419D01*
X119104440Y-96027664D01*
X119460831Y-95880042D01*
X119522669Y-95644275D01*
X118767000Y-94888605D01*
X118011331Y-95644275D01*
X117179700Y-95644275D01*
X117358758Y-95465217D01*
X117490279Y-95147698D01*
X117595958Y-95402831D01*
X117831725Y-95464669D01*
X118587395Y-94709000D01*
X118946605Y-94709000D01*
X119702275Y-95464669D01*
X119938042Y-95402831D01*
X120114419Y-94901878D01*
X120085664Y-94371560D01*
X120010233Y-94189452D01*
X136990000Y-94189452D01*
X136990000Y-94720548D01*
X137193242Y-95211217D01*
X137568783Y-95586758D01*
X137886302Y-95718279D01*
X137631169Y-95823958D01*
X137569331Y-96059725D01*
X138325000Y-96815395D01*
X139080669Y-96059725D01*
X139018831Y-95823958D01*
X138743013Y-95726847D01*
X139081217Y-95586758D01*
X139456758Y-95211217D01*
X139660000Y-94720548D01*
X139660000Y-94189452D01*
X139456758Y-93698783D01*
X139081217Y-93323242D01*
X138590548Y-93120000D01*
X138059452Y-93120000D01*
X137568783Y-93323242D01*
X137193242Y-93698783D01*
X136990000Y-94189452D01*
X120010233Y-94189452D01*
X119938042Y-94015169D01*
X119702275Y-93953331D01*
X118946605Y-94709000D01*
X118587395Y-94709000D01*
X117831725Y-93953331D01*
X117595958Y-94015169D01*
X117498847Y-94290987D01*
X117358758Y-93952783D01*
X117179700Y-93773725D01*
X118011331Y-93773725D01*
X118767000Y-94529395D01*
X119522669Y-93773725D01*
X119460831Y-93537958D01*
X118959878Y-93361581D01*
X118429560Y-93390336D01*
X118073169Y-93537958D01*
X118011331Y-93773725D01*
X117179700Y-93773725D01*
X116983217Y-93577242D01*
X116492548Y-93374000D01*
X115961452Y-93374000D01*
X115470783Y-93577242D01*
X115095242Y-93952783D01*
X114892000Y-94443452D01*
X114628563Y-94443452D01*
X114624664Y-94371560D01*
X114477042Y-94015169D01*
X114241275Y-93953331D01*
X113485605Y-94709000D01*
X113126395Y-94709000D01*
X112370725Y-93953331D01*
X112134958Y-94015169D01*
X112037847Y-94290987D01*
X111897758Y-93952783D01*
X111718700Y-93773725D01*
X112550331Y-93773725D01*
X113306000Y-94529395D01*
X114061669Y-93773725D01*
X113999831Y-93537958D01*
X113498878Y-93361581D01*
X112968560Y-93390336D01*
X112612169Y-93537958D01*
X112550331Y-93773725D01*
X111718700Y-93773725D01*
X111522217Y-93577242D01*
X111031548Y-93374000D01*
X110500452Y-93374000D01*
X110009783Y-93577242D01*
X109634242Y-93952783D01*
X109431000Y-94443452D01*
X109040563Y-94443452D01*
X109036664Y-94371560D01*
X108889042Y-94015169D01*
X108653275Y-93953331D01*
X107897605Y-94709000D01*
X107538395Y-94709000D01*
X106782725Y-93953331D01*
X106546958Y-94015169D01*
X106449847Y-94290987D01*
X106309758Y-93952783D01*
X106130700Y-93773725D01*
X106962331Y-93773725D01*
X107718000Y-94529395D01*
X108473669Y-93773725D01*
X108411831Y-93537958D01*
X107910878Y-93361581D01*
X107380560Y-93390336D01*
X107024169Y-93537958D01*
X106962331Y-93773725D01*
X106130700Y-93773725D01*
X105934217Y-93577242D01*
X105443548Y-93374000D01*
X104912452Y-93374000D01*
X104421783Y-93577242D01*
X104046242Y-93952783D01*
X103843000Y-94443452D01*
X87880000Y-94443452D01*
X87880000Y-93600458D01*
X87684618Y-93128764D01*
X91170841Y-93128764D01*
X91240059Y-93370742D01*
X91762780Y-93557155D01*
X92317049Y-93529341D01*
X92699941Y-93370742D01*
X92769159Y-93128764D01*
X91970000Y-92329605D01*
X91170841Y-93128764D01*
X87684618Y-93128764D01*
X87535935Y-92769813D01*
X86900187Y-92134065D01*
X86438385Y-91942780D01*
X90562845Y-91942780D01*
X90590659Y-92497049D01*
X90749258Y-92879941D01*
X90991236Y-92949159D01*
X91790395Y-92150000D01*
X92149605Y-92150000D01*
X92948764Y-92949159D01*
X93190742Y-92879941D01*
X93377155Y-92357220D01*
X93349341Y-91802951D01*
X93190742Y-91420059D01*
X92948764Y-91350841D01*
X92149605Y-92150000D01*
X91790395Y-92150000D01*
X90991236Y-91350841D01*
X90749258Y-91420059D01*
X90562845Y-91942780D01*
X86438385Y-91942780D01*
X86069542Y-91790000D01*
X85170458Y-91790000D01*
X84339813Y-92134065D01*
X83704065Y-92769813D01*
X83360000Y-93600458D01*
X83330000Y-93600458D01*
X83330000Y-92281578D01*
X83531578Y-92080000D01*
X84000439Y-92080000D01*
X84527862Y-91861534D01*
X84931534Y-91457862D01*
X85150000Y-90930439D01*
X85150000Y-90588764D01*
X91170841Y-90588764D01*
X91240059Y-90830742D01*
X91367863Y-90876320D01*
X91240059Y-90929258D01*
X91170841Y-91171236D01*
X91970000Y-91970395D01*
X92769159Y-91171236D01*
X92699941Y-90929258D01*
X92572137Y-90883680D01*
X92699941Y-90830742D01*
X92769159Y-90588764D01*
X91970000Y-89789605D01*
X91170841Y-90588764D01*
X85150000Y-90588764D01*
X85150000Y-90359561D01*
X84931534Y-89832138D01*
X84527862Y-89428466D01*
X84465851Y-89402780D01*
X90562845Y-89402780D01*
X90590659Y-89957049D01*
X90749258Y-90339941D01*
X90991236Y-90409159D01*
X91790395Y-89610000D01*
X92149605Y-89610000D01*
X92948764Y-90409159D01*
X93190742Y-90339941D01*
X93377155Y-89817220D01*
X93349341Y-89262951D01*
X93190742Y-88880059D01*
X92948764Y-88810841D01*
X92149605Y-89610000D01*
X91790395Y-89610000D01*
X90991236Y-88810841D01*
X90749258Y-88880059D01*
X90562845Y-89402780D01*
X84465851Y-89402780D01*
X84000439Y-89210000D01*
X83429561Y-89210000D01*
X83083048Y-89353531D01*
X83531579Y-88905000D01*
X84000439Y-88905000D01*
X84527862Y-88686534D01*
X84931534Y-88282862D01*
X85150000Y-87755439D01*
X85150000Y-87184561D01*
X84987610Y-86792517D01*
X90575000Y-86792517D01*
X90575000Y-87347483D01*
X90787376Y-87860204D01*
X91179796Y-88252624D01*
X91374859Y-88333422D01*
X91240059Y-88389258D01*
X91170841Y-88631236D01*
X91970000Y-89430395D01*
X92769159Y-88631236D01*
X92699941Y-88389258D01*
X92555069Y-88337594D01*
X92760204Y-88252624D01*
X93152624Y-87860204D01*
X93365000Y-87347483D01*
X93365000Y-87066459D01*
X93502235Y-87158157D01*
X93683049Y-87194123D01*
X93327376Y-87549796D01*
X93115000Y-88062517D01*
X93115000Y-88617483D01*
X93327376Y-89130204D01*
X93719796Y-89522624D01*
X93930740Y-89610000D01*
X93719796Y-89697376D01*
X93327376Y-90089796D01*
X93115000Y-90602517D01*
X93115000Y-91157483D01*
X93327376Y-91670204D01*
X93719796Y-92062624D01*
X94232517Y-92275000D01*
X94787483Y-92275000D01*
X95300204Y-92062624D01*
X95546949Y-91815879D01*
X144530000Y-91815879D01*
X144630666Y-92321962D01*
X145014135Y-92895865D01*
X145588037Y-93279334D01*
X146265000Y-93413990D01*
X146941962Y-93279334D01*
X147515865Y-92895865D01*
X147899334Y-92321963D01*
X148000000Y-91815880D01*
X148000000Y-89674120D01*
X147899334Y-89168037D01*
X147883942Y-89145000D01*
X150917560Y-89145000D01*
X150917560Y-91345000D01*
X150966843Y-91592765D01*
X151107191Y-91802809D01*
X151317235Y-91943157D01*
X151565000Y-91992440D01*
X155565000Y-91992440D01*
X155812765Y-91943157D01*
X156022809Y-91802809D01*
X156163157Y-91592765D01*
X156212440Y-91345000D01*
X156212440Y-89145000D01*
X156163157Y-88897235D01*
X156022809Y-88687191D01*
X155812765Y-88546843D01*
X155565000Y-88497560D01*
X151565000Y-88497560D01*
X151317235Y-88546843D01*
X151107191Y-88687191D01*
X150966843Y-88897235D01*
X150917560Y-89145000D01*
X147883942Y-89145000D01*
X147515865Y-88594135D01*
X146941963Y-88210666D01*
X146265000Y-88076010D01*
X145588038Y-88210666D01*
X145014136Y-88594135D01*
X144630667Y-89168037D01*
X144530001Y-89674120D01*
X144530000Y-91815879D01*
X95546949Y-91815879D01*
X95692624Y-91670204D01*
X95905000Y-91157483D01*
X95905000Y-90602517D01*
X95692624Y-90089796D01*
X95300204Y-89697376D01*
X95089260Y-89610000D01*
X95300204Y-89522624D01*
X95692624Y-89130204D01*
X95905000Y-88617483D01*
X95905000Y-88062517D01*
X95692624Y-87549796D01*
X95336951Y-87194123D01*
X95517765Y-87158157D01*
X95727809Y-87017809D01*
X95868157Y-86807765D01*
X95917440Y-86560000D01*
X95917440Y-85342750D01*
X100625000Y-85342750D01*
X100625000Y-86283310D01*
X100721673Y-86516699D01*
X100900302Y-86695327D01*
X101133691Y-86792000D01*
X101844250Y-86792000D01*
X102003000Y-86633250D01*
X102003000Y-85184000D01*
X100783750Y-85184000D01*
X100625000Y-85342750D01*
X95917440Y-85342750D01*
X95917440Y-85040000D01*
X95868157Y-84792235D01*
X95727809Y-84582191D01*
X95517765Y-84441843D01*
X95270000Y-84392560D01*
X93750000Y-84392560D01*
X93502235Y-84441843D01*
X93292191Y-84582191D01*
X93151843Y-84792235D01*
X93102560Y-85040000D01*
X93102560Y-86229732D01*
X92760204Y-85887376D01*
X92247483Y-85675000D01*
X91692517Y-85675000D01*
X91179796Y-85887376D01*
X90787376Y-86279796D01*
X90575000Y-86792517D01*
X84987610Y-86792517D01*
X84931534Y-86657138D01*
X84527862Y-86253466D01*
X84000439Y-86035000D01*
X83429561Y-86035000D01*
X82902138Y-86253466D01*
X82498466Y-86657138D01*
X82280000Y-87184561D01*
X82280000Y-87653421D01*
X80610845Y-89322577D01*
X80536952Y-89371951D01*
X80487578Y-89445844D01*
X80487576Y-89445846D01*
X80341348Y-89664691D01*
X80334847Y-89697376D01*
X80290000Y-89922835D01*
X80290000Y-89922839D01*
X80272663Y-90010000D01*
X80290000Y-90097161D01*
X80290000Y-90732164D01*
X80290001Y-90732169D01*
X80290000Y-105162835D01*
X80272662Y-105250000D01*
X80290001Y-105337170D01*
X80290000Y-128022839D01*
X80272663Y-128110000D01*
X80290000Y-128197161D01*
X80290000Y-128197164D01*
X80341348Y-128455309D01*
X80536951Y-128748049D01*
X80610847Y-128797425D01*
X88107577Y-136294156D01*
X88121505Y-136315000D01*
X78685000Y-136315000D01*
X78685000Y-133380431D01*
X78940000Y-133380431D01*
X78940000Y-134269569D01*
X79280259Y-135091026D01*
X79908974Y-135719741D01*
X80730431Y-136060000D01*
X81619569Y-136060000D01*
X82441026Y-135719741D01*
X83069741Y-135091026D01*
X83410000Y-134269569D01*
X83410000Y-133380431D01*
X83069741Y-132558974D01*
X82441026Y-131930259D01*
X81619569Y-131590000D01*
X80730431Y-131590000D01*
X79908974Y-131930259D01*
X79280259Y-132558974D01*
X78940000Y-133380431D01*
X78685000Y-133380431D01*
X78685000Y-83440458D01*
X83360000Y-83440458D01*
X83360000Y-84339542D01*
X83704065Y-85170187D01*
X84339813Y-85805935D01*
X85170458Y-86150000D01*
X86069542Y-86150000D01*
X86900187Y-85805935D01*
X87535935Y-85170187D01*
X87880000Y-84339542D01*
X87880000Y-83830690D01*
X100625000Y-83830690D01*
X100625000Y-84771250D01*
X100783750Y-84930000D01*
X102003000Y-84930000D01*
X102003000Y-83480750D01*
X102257000Y-83480750D01*
X102257000Y-84930000D01*
X102277000Y-84930000D01*
X102277000Y-85184000D01*
X102257000Y-85184000D01*
X102257000Y-86633250D01*
X102415750Y-86792000D01*
X103126309Y-86792000D01*
X103359698Y-86695327D01*
X103538327Y-86516699D01*
X103595364Y-86378999D01*
X104082779Y-86704678D01*
X104670000Y-86821484D01*
X105257222Y-86704678D01*
X105755044Y-86372044D01*
X106087678Y-85874221D01*
X106175000Y-85435225D01*
X106175000Y-84678774D01*
X106087678Y-84239778D01*
X105755044Y-83741956D01*
X105257221Y-83409322D01*
X104670000Y-83292516D01*
X104082778Y-83409322D01*
X103595364Y-83735001D01*
X103538327Y-83597301D01*
X103359698Y-83418673D01*
X103126309Y-83322000D01*
X102415750Y-83322000D01*
X102257000Y-83480750D01*
X102003000Y-83480750D01*
X101844250Y-83322000D01*
X101133691Y-83322000D01*
X100900302Y-83418673D01*
X100721673Y-83597301D01*
X100625000Y-83830690D01*
X87880000Y-83830690D01*
X87880000Y-83440458D01*
X87535935Y-82609813D01*
X86900187Y-81974065D01*
X86069542Y-81630000D01*
X85170458Y-81630000D01*
X84339813Y-81974065D01*
X83704065Y-82609813D01*
X83360000Y-83440458D01*
X78685000Y-83440458D01*
X78685000Y-78599452D01*
X91815000Y-78599452D01*
X91815000Y-79130548D01*
X92018242Y-79621217D01*
X92393783Y-79996758D01*
X92884452Y-80200000D01*
X93415548Y-80200000D01*
X93906217Y-79996758D01*
X94281758Y-79621217D01*
X94485000Y-79130548D01*
X94485000Y-78599452D01*
X94281758Y-78108783D01*
X93906217Y-77733242D01*
X93588698Y-77601721D01*
X93843831Y-77496042D01*
X93905669Y-77260275D01*
X93150000Y-76504605D01*
X92394331Y-77260275D01*
X92456169Y-77496042D01*
X92731987Y-77593153D01*
X92393783Y-77733242D01*
X92018242Y-78108783D01*
X91815000Y-78599452D01*
X78685000Y-78599452D01*
X78685000Y-76132122D01*
X91802581Y-76132122D01*
X91831336Y-76662440D01*
X91978958Y-77018831D01*
X92214725Y-77080669D01*
X92970395Y-76325000D01*
X93329605Y-76325000D01*
X94085275Y-77080669D01*
X94321042Y-77018831D01*
X94497419Y-76517878D01*
X94490462Y-76389561D01*
X106065000Y-76389561D01*
X106065000Y-76960439D01*
X106283466Y-77487862D01*
X106687138Y-77891534D01*
X107214561Y-78110000D01*
X107785439Y-78110000D01*
X108312862Y-77891534D01*
X108644396Y-77560000D01*
X109875604Y-77560000D01*
X110207138Y-77891534D01*
X110734561Y-78110000D01*
X111305439Y-78110000D01*
X111832862Y-77891534D01*
X112236534Y-77487862D01*
X112455000Y-76960439D01*
X112455000Y-76389561D01*
X112236534Y-75862138D01*
X111832862Y-75458466D01*
X111305439Y-75240000D01*
X110734561Y-75240000D01*
X110207138Y-75458466D01*
X109875604Y-75790000D01*
X108644396Y-75790000D01*
X108312862Y-75458466D01*
X107785439Y-75240000D01*
X107214561Y-75240000D01*
X106687138Y-75458466D01*
X106283466Y-75862138D01*
X106065000Y-76389561D01*
X94490462Y-76389561D01*
X94468664Y-75987560D01*
X94321042Y-75631169D01*
X94085275Y-75569331D01*
X93329605Y-76325000D01*
X92970395Y-76325000D01*
X92214725Y-75569331D01*
X91978958Y-75631169D01*
X91802581Y-76132122D01*
X78685000Y-76132122D01*
X78685000Y-75389725D01*
X92394331Y-75389725D01*
X93150000Y-76145395D01*
X93905669Y-75389725D01*
X93843831Y-75153958D01*
X93342878Y-74977581D01*
X92812560Y-75006336D01*
X92456169Y-75153958D01*
X92394331Y-75389725D01*
X78685000Y-75389725D01*
X78685000Y-70046892D01*
X83543514Y-70046892D01*
X83789817Y-70571358D01*
X84218076Y-70961645D01*
X84628110Y-71131476D01*
X84858000Y-71010155D01*
X84858000Y-69817000D01*
X83664181Y-69817000D01*
X83543514Y-70046892D01*
X78685000Y-70046892D01*
X78685000Y-69333108D01*
X83543514Y-69333108D01*
X83664181Y-69563000D01*
X84858000Y-69563000D01*
X84858000Y-68369845D01*
X84628110Y-68248524D01*
X84218076Y-68418355D01*
X83789817Y-68808642D01*
X83543514Y-69333108D01*
X78685000Y-69333108D01*
X78685000Y-64800431D01*
X78940000Y-64800431D01*
X78940000Y-65689569D01*
X79280259Y-66511026D01*
X79908974Y-67139741D01*
X80730431Y-67480000D01*
X81619569Y-67480000D01*
X82441026Y-67139741D01*
X83069741Y-66511026D01*
X83410000Y-65689569D01*
X83410000Y-65130750D01*
X86040000Y-65130750D01*
X86040000Y-65821309D01*
X86136673Y-66054698D01*
X86315301Y-66233327D01*
X86548690Y-66330000D01*
X87239250Y-66330000D01*
X87398000Y-66171250D01*
X87398000Y-64972000D01*
X86198750Y-64972000D01*
X86040000Y-65130750D01*
X83410000Y-65130750D01*
X83410000Y-64800431D01*
X83069741Y-63978974D01*
X82959458Y-63868691D01*
X86040000Y-63868691D01*
X86040000Y-64559250D01*
X86198750Y-64718000D01*
X87398000Y-64718000D01*
X87398000Y-63518750D01*
X87239250Y-63360000D01*
X86548690Y-63360000D01*
X86315301Y-63456673D01*
X86136673Y-63635302D01*
X86040000Y-63868691D01*
X82959458Y-63868691D01*
X82441026Y-63350259D01*
X81619569Y-63010000D01*
X80730431Y-63010000D01*
X79908974Y-63350259D01*
X79280259Y-63978974D01*
X78940000Y-64800431D01*
X78685000Y-64800431D01*
X78685000Y-62685000D01*
X89255198Y-62685000D01*
X88557093Y-63383106D01*
X88557093Y-63383106D01*
G37*
X88557093Y-63383106D02*
X88501310Y-63360000D01*
X87810750Y-63360000D01*
X87652000Y-63518750D01*
X87652000Y-64718000D01*
X87672000Y-64718000D01*
X87672000Y-64972000D01*
X87652000Y-64972000D01*
X87652000Y-66171250D01*
X87810750Y-66330000D01*
X87940002Y-66330000D01*
X87940002Y-66930196D01*
X87040528Y-67829671D01*
X86977072Y-67872071D01*
X86934672Y-67935527D01*
X86934671Y-67935528D01*
X86809097Y-68123463D01*
X86750112Y-68420000D01*
X86750423Y-68421562D01*
X86454375Y-68619375D01*
X86241157Y-68938478D01*
X86180183Y-68808642D01*
X85751924Y-68418355D01*
X85341890Y-68248524D01*
X85112000Y-68369845D01*
X85112000Y-69563000D01*
X85132000Y-69563000D01*
X85132000Y-69817000D01*
X85112000Y-69817000D01*
X85112000Y-71010155D01*
X85341890Y-71131476D01*
X85751924Y-70961645D01*
X86180183Y-70571358D01*
X86241157Y-70441522D01*
X86454375Y-70760625D01*
X86945582Y-71088839D01*
X87378744Y-71175000D01*
X87671256Y-71175000D01*
X88104418Y-71088839D01*
X88595625Y-70760625D01*
X88607816Y-70742381D01*
X88616843Y-70787765D01*
X88757191Y-70997809D01*
X88967235Y-71138157D01*
X89215000Y-71187440D01*
X90915000Y-71187440D01*
X91162765Y-71138157D01*
X91372809Y-70997809D01*
X91513157Y-70787765D01*
X91562440Y-70540000D01*
X91562440Y-68840000D01*
X91513157Y-68592235D01*
X91372809Y-68382191D01*
X91162765Y-68241843D01*
X90915000Y-68192560D01*
X89215000Y-68192560D01*
X88967235Y-68241843D01*
X88757191Y-68382191D01*
X88616843Y-68592235D01*
X88607816Y-68637619D01*
X88595625Y-68619375D01*
X88478612Y-68541190D01*
X89184477Y-67835326D01*
X89247930Y-67792928D01*
X89290328Y-67729475D01*
X89290330Y-67729473D01*
X89415904Y-67541537D01*
X89415905Y-67541536D01*
X89460001Y-67319851D01*
X89460001Y-67319847D01*
X89474889Y-67245000D01*
X89460001Y-67170153D01*
X89460001Y-66226746D01*
X89485582Y-66243839D01*
X89918744Y-66330000D01*
X90211256Y-66330000D01*
X90644418Y-66243839D01*
X91135625Y-65915625D01*
X91335000Y-65617239D01*
X91534375Y-65915625D01*
X92025582Y-66243839D01*
X92458744Y-66330000D01*
X92751256Y-66330000D01*
X93184418Y-66243839D01*
X93675625Y-65915625D01*
X93875000Y-65617239D01*
X94074375Y-65915625D01*
X94565582Y-66243839D01*
X94998744Y-66330000D01*
X95291256Y-66330000D01*
X95724418Y-66243839D01*
X96215625Y-65915625D01*
X96415000Y-65617239D01*
X96614375Y-65915625D01*
X97105582Y-66243839D01*
X97538744Y-66330000D01*
X97831256Y-66330000D01*
X98264418Y-66243839D01*
X98755625Y-65915625D01*
X98955000Y-65617239D01*
X99154375Y-65915625D01*
X99645582Y-66243839D01*
X100078744Y-66330000D01*
X100371256Y-66330000D01*
X100804418Y-66243839D01*
X101295625Y-65915625D01*
X101623839Y-65424418D01*
X101716945Y-64956341D01*
X101952138Y-65191534D01*
X102479561Y-65410000D01*
X103050439Y-65410000D01*
X103577862Y-65191534D01*
X103981534Y-64787862D01*
X104187751Y-64290010D01*
X114528432Y-64290010D01*
X115149991Y-64911570D01*
X115149990Y-69744912D01*
X115132653Y-69832073D01*
X115149990Y-69919234D01*
X115149990Y-69919237D01*
X115201338Y-70177382D01*
X115396941Y-70470122D01*
X115470837Y-70519498D01*
X119650494Y-74699156D01*
X119699868Y-74773049D01*
X119773761Y-74822423D01*
X119773762Y-74822424D01*
X119961493Y-74947862D01*
X119992607Y-74968652D01*
X120250752Y-75020000D01*
X120250756Y-75020000D01*
X120337917Y-75037337D01*
X120425078Y-75020000D01*
X125115604Y-75020000D01*
X125447138Y-75351534D01*
X125974561Y-75570000D01*
X126545439Y-75570000D01*
X127072862Y-75351534D01*
X127476534Y-74947862D01*
X127695000Y-74420439D01*
X127695000Y-73849561D01*
X127476534Y-73322138D01*
X127072862Y-72918466D01*
X126545439Y-72700000D01*
X125974561Y-72700000D01*
X125447138Y-72918466D01*
X125115604Y-73250000D01*
X120704496Y-73250000D01*
X119484496Y-72030000D01*
X125750604Y-72030000D01*
X126082138Y-72361534D01*
X126609561Y-72580000D01*
X127180439Y-72580000D01*
X127707862Y-72361534D01*
X128111534Y-71957862D01*
X128330000Y-71430439D01*
X128330000Y-70859561D01*
X128297045Y-70780000D01*
X137932538Y-70780000D01*
X138000000Y-70793419D01*
X138067461Y-70780000D01*
X138067462Y-70780000D01*
X138267273Y-70740255D01*
X138493857Y-70588857D01*
X138645255Y-70362273D01*
X138698419Y-70095000D01*
X138685000Y-70027538D01*
X138685000Y-64800431D01*
X157680000Y-64800431D01*
X157680000Y-65689569D01*
X158020259Y-66511026D01*
X158648974Y-67139741D01*
X159470431Y-67480000D01*
X160359569Y-67480000D01*
X161181026Y-67139741D01*
X161809741Y-66511026D01*
X162150000Y-65689569D01*
X162150000Y-64800431D01*
X161809741Y-63978974D01*
X161181026Y-63350259D01*
X160359569Y-63010000D01*
X159470431Y-63010000D01*
X158648974Y-63350259D01*
X158020259Y-63978974D01*
X157680000Y-64800431D01*
X138685000Y-64800431D01*
X138685000Y-62685000D01*
X162315000Y-62685000D01*
X162315001Y-136315000D01*
X152970918Y-136315000D01*
X153095000Y-136015439D01*
X153095000Y-135444561D01*
X152876534Y-134917138D01*
X152472862Y-134513466D01*
X151945439Y-134295000D01*
X151374561Y-134295000D01*
X150847138Y-134513466D01*
X150515604Y-134845000D01*
X150005000Y-134845000D01*
X150005000Y-134334396D01*
X150336534Y-134002862D01*
X150555000Y-133475439D01*
X150555000Y-133380431D01*
X157680000Y-133380431D01*
X157680000Y-134269569D01*
X158020259Y-135091026D01*
X158648974Y-135719741D01*
X159470431Y-136060000D01*
X160359569Y-136060000D01*
X161181026Y-135719741D01*
X161809741Y-135091026D01*
X162150000Y-134269569D01*
X162150000Y-133380431D01*
X161809741Y-132558974D01*
X161181026Y-131930259D01*
X160359569Y-131590000D01*
X159470431Y-131590000D01*
X158648974Y-131930259D01*
X158020259Y-132558974D01*
X157680000Y-133380431D01*
X150555000Y-133380431D01*
X150555000Y-132904561D01*
X150336534Y-132377138D01*
X149932862Y-131973466D01*
X149405439Y-131755000D01*
X148834561Y-131755000D01*
X148307138Y-131973466D01*
X147903466Y-132377138D01*
X147685000Y-132904561D01*
X147685000Y-133475439D01*
X147903466Y-134002862D01*
X148235001Y-134334397D01*
X148235000Y-134845000D01*
X146064811Y-134845000D01*
X146107207Y-134742646D01*
X146107207Y-134171768D01*
X145888741Y-133644345D01*
X145485069Y-133240673D01*
X144957646Y-133022207D01*
X144386768Y-133022207D01*
X143859345Y-133240673D01*
X143527811Y-133572207D01*
X89796579Y-133572207D01*
X83330000Y-127105629D01*
X83330000Y-124550000D01*
X85302560Y-124550000D01*
X85302560Y-126300000D01*
X85418449Y-126882613D01*
X85748472Y-127376528D01*
X86242387Y-127706551D01*
X86825000Y-127822440D01*
X88575000Y-127822440D01*
X89157613Y-127706551D01*
X89651528Y-127376528D01*
X89981551Y-126882613D01*
X90097440Y-126300000D01*
X90097440Y-124585750D01*
X153040000Y-124585750D01*
X153040000Y-125176310D01*
X153136673Y-125409699D01*
X153315302Y-125588327D01*
X153548691Y-125685000D01*
X153914250Y-125685000D01*
X154073000Y-125526250D01*
X154073000Y-124427000D01*
X153198750Y-124427000D01*
X153040000Y-124585750D01*
X90097440Y-124585750D01*
X90097440Y-124550000D01*
X89981551Y-123967387D01*
X89651528Y-123473472D01*
X89577024Y-123423690D01*
X153040000Y-123423690D01*
X153040000Y-124014250D01*
X153198750Y-124173000D01*
X154073000Y-124173000D01*
X154073000Y-123960755D01*
X154310000Y-123960755D01*
X154310000Y-124639246D01*
X154327000Y-124724710D01*
X154327000Y-125526250D01*
X154485750Y-125685000D01*
X154851309Y-125685000D01*
X155016016Y-125616776D01*
X155017392Y-125617695D01*
X155470000Y-125707725D01*
X155922609Y-125617695D01*
X156105001Y-125495825D01*
X156287392Y-125617695D01*
X156740000Y-125707725D01*
X157192609Y-125617695D01*
X157576313Y-125361313D01*
X157832695Y-124977608D01*
X157900000Y-124639245D01*
X157900000Y-123960754D01*
X157832695Y-123622391D01*
X157576313Y-123238687D01*
X157192608Y-122982305D01*
X156740000Y-122892275D01*
X156287391Y-122982305D01*
X156105000Y-123104175D01*
X155922608Y-122982305D01*
X155470000Y-122892275D01*
X155017391Y-122982305D01*
X155016016Y-122983224D01*
X154851309Y-122915000D01*
X154485750Y-122915000D01*
X154327000Y-123073750D01*
X154327000Y-123875291D01*
X154310000Y-123960755D01*
X154073000Y-123960755D01*
X154073000Y-123073750D01*
X153914250Y-122915000D01*
X153548691Y-122915000D01*
X153315302Y-123011673D01*
X153136673Y-123190301D01*
X153040000Y-123423690D01*
X89577024Y-123423690D01*
X89157613Y-123143449D01*
X89051994Y-123122440D01*
X92450000Y-123122440D01*
X92697765Y-123073157D01*
X92907809Y-122932809D01*
X93048157Y-122722765D01*
X93097440Y-122475000D01*
X93097440Y-118975000D01*
X93048157Y-118727235D01*
X92907809Y-118517191D01*
X92697765Y-118376843D01*
X92450000Y-118327560D01*
X88950000Y-118327560D01*
X88702235Y-118376843D01*
X88492191Y-118517191D01*
X88351843Y-118727235D01*
X88302560Y-118975000D01*
X88302560Y-122475000D01*
X88351843Y-122722765D01*
X88492191Y-122932809D01*
X88659001Y-123044269D01*
X88575000Y-123027560D01*
X86825000Y-123027560D01*
X86242387Y-123143449D01*
X85748472Y-123473472D01*
X85418449Y-123967387D01*
X85302560Y-124550000D01*
X83330000Y-124550000D01*
X83330000Y-123110000D01*
X84414250Y-123110000D01*
X84573000Y-122951250D01*
X84573000Y-120852000D01*
X84827000Y-120852000D01*
X84827000Y-122951250D01*
X84985750Y-123110000D01*
X86326309Y-123110000D01*
X86559698Y-123013327D01*
X86738327Y-122834699D01*
X86835000Y-122601310D01*
X86835000Y-121010750D01*
X86676250Y-120852000D01*
X84827000Y-120852000D01*
X84573000Y-120852000D01*
X84553000Y-120852000D01*
X84553000Y-120598000D01*
X84573000Y-120598000D01*
X84573000Y-118498750D01*
X84827000Y-118498750D01*
X84827000Y-120598000D01*
X86676250Y-120598000D01*
X86835000Y-120439250D01*
X86835000Y-118848690D01*
X86738327Y-118615301D01*
X86559698Y-118436673D01*
X86326309Y-118340000D01*
X84985750Y-118340000D01*
X84827000Y-118498750D01*
X84573000Y-118498750D01*
X84414250Y-118340000D01*
X83330000Y-118340000D01*
X83330000Y-116316122D01*
X146875825Y-116316122D01*
X146913469Y-116466624D01*
X147248368Y-117057028D01*
X147783712Y-117474330D01*
X148438000Y-117655000D01*
X149338000Y-117655000D01*
X149338000Y-116047000D01*
X149592000Y-116047000D01*
X149592000Y-117655000D01*
X150492000Y-117655000D01*
X151146288Y-117474330D01*
X151681632Y-117057028D01*
X152016531Y-116466624D01*
X152054175Y-116316122D01*
X151936125Y-116047000D01*
X149592000Y-116047000D01*
X149338000Y-116047000D01*
X146993875Y-116047000D01*
X146875825Y-116316122D01*
X83330000Y-116316122D01*
X83330000Y-115523878D01*
X146875825Y-115523878D01*
X146993875Y-115793000D01*
X149338000Y-115793000D01*
X149338000Y-115773000D01*
X149592000Y-115773000D01*
X149592000Y-115793000D01*
X151936125Y-115793000D01*
X152054175Y-115523878D01*
X152016531Y-115373376D01*
X151774819Y-114947255D01*
X152241963Y-114854334D01*
X152815865Y-114470865D01*
X153199334Y-113896963D01*
X153333990Y-113220000D01*
X153199334Y-112543037D01*
X152815865Y-111969135D01*
X152549087Y-111790879D01*
X155730000Y-111790879D01*
X155830666Y-112296962D01*
X156214135Y-112870865D01*
X156788037Y-113254334D01*
X157465000Y-113388990D01*
X158141962Y-113254334D01*
X158715865Y-112870865D01*
X159099334Y-112296963D01*
X159200000Y-111790880D01*
X159200000Y-109649120D01*
X159099334Y-109143037D01*
X158715865Y-108569135D01*
X158141963Y-108185666D01*
X157465000Y-108051010D01*
X156788038Y-108185666D01*
X156214136Y-108569135D01*
X155830667Y-109143037D01*
X155730001Y-109649120D01*
X155730000Y-111790879D01*
X152549087Y-111790879D01*
X152241963Y-111585666D01*
X151735880Y-111485000D01*
X149594120Y-111485000D01*
X149088037Y-111585666D01*
X148514135Y-111969135D01*
X148130666Y-112543037D01*
X147996010Y-113220000D01*
X148130666Y-113896963D01*
X148341020Y-114211779D01*
X147783712Y-114365670D01*
X147248368Y-114782972D01*
X146913469Y-115373376D01*
X146875825Y-115523878D01*
X83330000Y-115523878D01*
X83330000Y-109426578D01*
X83531578Y-109225000D01*
X83758878Y-109225000D01*
X83704065Y-109279813D01*
X83360000Y-110110458D01*
X83360000Y-111009542D01*
X83704065Y-111840187D01*
X84339813Y-112475935D01*
X85170458Y-112820000D01*
X86069542Y-112820000D01*
X86900187Y-112475935D01*
X87535935Y-111840187D01*
X87880000Y-111009542D01*
X87880000Y-110110458D01*
X87684618Y-109638764D01*
X91170841Y-109638764D01*
X91240059Y-109880742D01*
X91762780Y-110067155D01*
X92317049Y-110039341D01*
X92699941Y-109880742D01*
X92769159Y-109638764D01*
X91970000Y-108839605D01*
X91170841Y-109638764D01*
X87684618Y-109638764D01*
X87535935Y-109279813D01*
X86900187Y-108644065D01*
X86438385Y-108452780D01*
X90562845Y-108452780D01*
X90590659Y-109007049D01*
X90749258Y-109389941D01*
X90991236Y-109459159D01*
X91790395Y-108660000D01*
X92149605Y-108660000D01*
X92948764Y-109459159D01*
X93190742Y-109389941D01*
X93377155Y-108867220D01*
X93349341Y-108312951D01*
X93190742Y-107930059D01*
X92948764Y-107860841D01*
X92149605Y-108660000D01*
X91790395Y-108660000D01*
X90991236Y-107860841D01*
X90749258Y-107930059D01*
X90562845Y-108452780D01*
X86438385Y-108452780D01*
X86069542Y-108300000D01*
X85170458Y-108300000D01*
X85033482Y-108356737D01*
X85150000Y-108075439D01*
X85150000Y-107504561D01*
X84981914Y-107098764D01*
X91170841Y-107098764D01*
X91240059Y-107340742D01*
X91367863Y-107386320D01*
X91240059Y-107439258D01*
X91170841Y-107681236D01*
X91970000Y-108480395D01*
X92769159Y-107681236D01*
X92699941Y-107439258D01*
X92572137Y-107393680D01*
X92699941Y-107340742D01*
X92769159Y-107098764D01*
X91970000Y-106299605D01*
X91170841Y-107098764D01*
X84981914Y-107098764D01*
X84931534Y-106977138D01*
X84596853Y-106642457D01*
X84699561Y-106685000D01*
X85270439Y-106685000D01*
X85797862Y-106466534D01*
X86201534Y-106062862D01*
X86263700Y-105912780D01*
X90562845Y-105912780D01*
X90590659Y-106467049D01*
X90749258Y-106849941D01*
X90991236Y-106919159D01*
X91790395Y-106120000D01*
X92149605Y-106120000D01*
X92948764Y-106919159D01*
X93190742Y-106849941D01*
X93377155Y-106327220D01*
X93349341Y-105772951D01*
X93190742Y-105390059D01*
X92948764Y-105320841D01*
X92149605Y-106120000D01*
X91790395Y-106120000D01*
X90991236Y-105320841D01*
X90749258Y-105390059D01*
X90562845Y-105912780D01*
X86263700Y-105912780D01*
X86420000Y-105535439D01*
X86420000Y-104964561D01*
X86201534Y-104437138D01*
X85797862Y-104033466D01*
X85270439Y-103815000D01*
X85073552Y-103815000D01*
X85150000Y-103630439D01*
X85150000Y-103302517D01*
X90575000Y-103302517D01*
X90575000Y-103857483D01*
X90787376Y-104370204D01*
X91179796Y-104762624D01*
X91374859Y-104843422D01*
X91240059Y-104899258D01*
X91170841Y-105141236D01*
X91970000Y-105940395D01*
X92769159Y-105141236D01*
X92699941Y-104899258D01*
X92555069Y-104847594D01*
X92760204Y-104762624D01*
X93152624Y-104370204D01*
X93365000Y-103857483D01*
X93365000Y-103576459D01*
X93502235Y-103668157D01*
X93683049Y-103704123D01*
X93327376Y-104059796D01*
X93115000Y-104572517D01*
X93115000Y-105127483D01*
X93327376Y-105640204D01*
X93719796Y-106032624D01*
X93930740Y-106120000D01*
X93719796Y-106207376D01*
X93327376Y-106599796D01*
X93115000Y-107112517D01*
X93115000Y-107667483D01*
X93327376Y-108180204D01*
X93719796Y-108572624D01*
X94232517Y-108785000D01*
X94787483Y-108785000D01*
X94903630Y-108736890D01*
X100158524Y-108736890D01*
X100328355Y-109146924D01*
X100718642Y-109575183D01*
X101243108Y-109821486D01*
X101473000Y-109700819D01*
X101473000Y-108507000D01*
X101727000Y-108507000D01*
X101727000Y-109700819D01*
X101956892Y-109821486D01*
X102481358Y-109575183D01*
X102871645Y-109146924D01*
X103041476Y-108736890D01*
X102920155Y-108507000D01*
X101727000Y-108507000D01*
X101473000Y-108507000D01*
X100279845Y-108507000D01*
X100158524Y-108736890D01*
X94903630Y-108736890D01*
X95300204Y-108572624D01*
X95692624Y-108180204D01*
X95905000Y-107667483D01*
X95905000Y-107112517D01*
X95744485Y-106725000D01*
X100405344Y-106725000D01*
X100529375Y-106910625D01*
X100848478Y-107123843D01*
X100718642Y-107184817D01*
X100328355Y-107613076D01*
X100158524Y-108023110D01*
X100279845Y-108253000D01*
X101473000Y-108253000D01*
X101473000Y-108233000D01*
X101727000Y-108233000D01*
X101727000Y-108253000D01*
X102920155Y-108253000D01*
X103041476Y-108023110D01*
X102871645Y-107613076D01*
X102588151Y-107302000D01*
X110030560Y-107302000D01*
X110030560Y-109002000D01*
X110079843Y-109249765D01*
X110220191Y-109459809D01*
X110430235Y-109600157D01*
X110678000Y-109649440D01*
X112378000Y-109649440D01*
X112625765Y-109600157D01*
X112835809Y-109459809D01*
X112976157Y-109249765D01*
X112985184Y-109204381D01*
X112997375Y-109222625D01*
X113488582Y-109550839D01*
X113921744Y-109637000D01*
X114214256Y-109637000D01*
X114647418Y-109550839D01*
X115138625Y-109222625D01*
X115338000Y-108924239D01*
X115537375Y-109222625D01*
X116028582Y-109550839D01*
X116461744Y-109637000D01*
X116754256Y-109637000D01*
X117187418Y-109550839D01*
X117678625Y-109222625D01*
X117878000Y-108924239D01*
X118077375Y-109222625D01*
X118568582Y-109550839D01*
X119001744Y-109637000D01*
X119294256Y-109637000D01*
X119727418Y-109550839D01*
X120218625Y-109222625D01*
X120418000Y-108924239D01*
X120617375Y-109222625D01*
X121108582Y-109550839D01*
X121541744Y-109637000D01*
X121834256Y-109637000D01*
X122267418Y-109550839D01*
X122758625Y-109222625D01*
X122958000Y-108924239D01*
X123157375Y-109222625D01*
X123648582Y-109550839D01*
X124081744Y-109637000D01*
X124374256Y-109637000D01*
X124807418Y-109550839D01*
X125298625Y-109222625D01*
X125498000Y-108924239D01*
X125697375Y-109222625D01*
X126188582Y-109550839D01*
X126621744Y-109637000D01*
X126914256Y-109637000D01*
X127347418Y-109550839D01*
X127838625Y-109222625D01*
X128051843Y-108903522D01*
X128112817Y-109033358D01*
X128541076Y-109423645D01*
X128951110Y-109593476D01*
X129181000Y-109472155D01*
X129181000Y-108279000D01*
X129435000Y-108279000D01*
X129435000Y-109472155D01*
X129664890Y-109593476D01*
X130074924Y-109423645D01*
X130503183Y-109033358D01*
X130749486Y-108508892D01*
X130628819Y-108279000D01*
X129435000Y-108279000D01*
X129181000Y-108279000D01*
X129161000Y-108279000D01*
X129161000Y-108025000D01*
X129181000Y-108025000D01*
X129181000Y-106831845D01*
X129435000Y-106831845D01*
X129435000Y-108025000D01*
X130628819Y-108025000D01*
X130749486Y-107795108D01*
X130700538Y-107690879D01*
X144530000Y-107690879D01*
X144630666Y-108196962D01*
X145014135Y-108770865D01*
X145588037Y-109154334D01*
X146265000Y-109288990D01*
X146941962Y-109154334D01*
X147515865Y-108770865D01*
X147899334Y-108196963D01*
X148000000Y-107690880D01*
X148000000Y-105549120D01*
X147899334Y-105043037D01*
X147883942Y-105020000D01*
X150917560Y-105020000D01*
X150917560Y-107220000D01*
X150966843Y-107467765D01*
X151107191Y-107677809D01*
X151317235Y-107818157D01*
X151565000Y-107867440D01*
X155565000Y-107867440D01*
X155812765Y-107818157D01*
X156022809Y-107677809D01*
X156163157Y-107467765D01*
X156212440Y-107220000D01*
X156212440Y-105020000D01*
X156163157Y-104772235D01*
X156022809Y-104562191D01*
X155812765Y-104421843D01*
X155565000Y-104372560D01*
X151565000Y-104372560D01*
X151317235Y-104421843D01*
X151107191Y-104562191D01*
X150966843Y-104772235D01*
X150917560Y-105020000D01*
X147883942Y-105020000D01*
X147515865Y-104469135D01*
X146941963Y-104085666D01*
X146265000Y-103951010D01*
X145588038Y-104085666D01*
X145014136Y-104469135D01*
X144630667Y-105043037D01*
X144530001Y-105549120D01*
X144530000Y-107690879D01*
X130700538Y-107690879D01*
X130503183Y-107270642D01*
X130074924Y-106880355D01*
X129664890Y-106710524D01*
X129435000Y-106831845D01*
X129181000Y-106831845D01*
X128951110Y-106710524D01*
X128541076Y-106880355D01*
X128112817Y-107270642D01*
X128051843Y-107400478D01*
X127838625Y-107081375D01*
X127347418Y-106753161D01*
X126914256Y-106667000D01*
X126621744Y-106667000D01*
X126188582Y-106753161D01*
X125697375Y-107081375D01*
X125498000Y-107379761D01*
X125298625Y-107081375D01*
X124807418Y-106753161D01*
X124374256Y-106667000D01*
X124081744Y-106667000D01*
X123648582Y-106753161D01*
X123157375Y-107081375D01*
X122958000Y-107379761D01*
X122758625Y-107081375D01*
X122267418Y-106753161D01*
X121834256Y-106667000D01*
X121541744Y-106667000D01*
X121108582Y-106753161D01*
X120617375Y-107081375D01*
X120418000Y-107379761D01*
X120218625Y-107081375D01*
X119727418Y-106753161D01*
X119294256Y-106667000D01*
X119001744Y-106667000D01*
X118568582Y-106753161D01*
X118077375Y-107081375D01*
X117878000Y-107379761D01*
X117678625Y-107081375D01*
X117187418Y-106753161D01*
X116754256Y-106667000D01*
X116461744Y-106667000D01*
X116028582Y-106753161D01*
X115537375Y-107081375D01*
X115338000Y-107379761D01*
X115138625Y-107081375D01*
X114647418Y-106753161D01*
X114214256Y-106667000D01*
X113921744Y-106667000D01*
X113488582Y-106753161D01*
X112997375Y-107081375D01*
X112985184Y-107099619D01*
X112976157Y-107054235D01*
X112835809Y-106844191D01*
X112625765Y-106703843D01*
X112378000Y-106654560D01*
X110678000Y-106654560D01*
X110430235Y-106703843D01*
X110220191Y-106844191D01*
X110079843Y-107054235D01*
X110030560Y-107302000D01*
X102588151Y-107302000D01*
X102481358Y-107184817D01*
X102351522Y-107123843D01*
X102670625Y-106910625D01*
X102998839Y-106419418D01*
X103114092Y-105840000D01*
X102998839Y-105260582D01*
X102670625Y-104769375D01*
X102652381Y-104757184D01*
X102697765Y-104748157D01*
X102907809Y-104607809D01*
X103048157Y-104397765D01*
X103097440Y-104150000D01*
X103097440Y-102450000D01*
X103048157Y-102202235D01*
X102907809Y-101992191D01*
X102697765Y-101851843D01*
X102473959Y-101807326D01*
X102433652Y-101604690D01*
X102238049Y-101311951D01*
X102164156Y-101262577D01*
X101342701Y-100441122D01*
X146875825Y-100441122D01*
X146913469Y-100591624D01*
X147248368Y-101182028D01*
X147783712Y-101599330D01*
X148438000Y-101780000D01*
X149338000Y-101780000D01*
X149338000Y-100172000D01*
X149592000Y-100172000D01*
X149592000Y-101780000D01*
X150492000Y-101780000D01*
X151146288Y-101599330D01*
X151681632Y-101182028D01*
X152016531Y-100591624D01*
X152054175Y-100441122D01*
X151936125Y-100172000D01*
X149592000Y-100172000D01*
X149338000Y-100172000D01*
X146993875Y-100172000D01*
X146875825Y-100441122D01*
X101342701Y-100441122D01*
X101237424Y-100335846D01*
X101188048Y-100261950D01*
X100895309Y-100066347D01*
X100637164Y-100014999D01*
X100637160Y-100014999D01*
X100549999Y-99997662D01*
X100462838Y-100014999D01*
X92597162Y-100014999D01*
X92510001Y-99997662D01*
X92422840Y-100014999D01*
X92422836Y-100014999D01*
X92164691Y-100066347D01*
X91871952Y-100261950D01*
X91822576Y-100335846D01*
X91405845Y-100752577D01*
X91331952Y-100801951D01*
X91282578Y-100875844D01*
X91282576Y-100875846D01*
X91136348Y-101094691D01*
X91067663Y-101440000D01*
X91085001Y-101527165D01*
X91085001Y-102492171D01*
X90787376Y-102789796D01*
X90575000Y-103302517D01*
X85150000Y-103302517D01*
X85150000Y-103059561D01*
X84945982Y-102567019D01*
X85170458Y-102660000D01*
X86069542Y-102660000D01*
X86900187Y-102315935D01*
X87535935Y-101680187D01*
X87880000Y-100849542D01*
X87880000Y-99950458D01*
X87755082Y-99648878D01*
X146875825Y-99648878D01*
X146993875Y-99918000D01*
X149338000Y-99918000D01*
X149338000Y-99898000D01*
X149592000Y-99898000D01*
X149592000Y-99918000D01*
X151936125Y-99918000D01*
X152054175Y-99648878D01*
X152016531Y-99498376D01*
X151774819Y-99072255D01*
X152241963Y-98979334D01*
X152815865Y-98595865D01*
X153199334Y-98021963D01*
X153333990Y-97345000D01*
X153199334Y-96668037D01*
X152815865Y-96094135D01*
X152549087Y-95915879D01*
X155730000Y-95915879D01*
X155830666Y-96421962D01*
X156214135Y-96995865D01*
X156788037Y-97379334D01*
X157465000Y-97513990D01*
X158141962Y-97379334D01*
X158715865Y-96995865D01*
X159099334Y-96421963D01*
X159200000Y-95915880D01*
X159200000Y-93774120D01*
X159099334Y-93268037D01*
X158715865Y-92694135D01*
X158141963Y-92310666D01*
X157465000Y-92176010D01*
X156788038Y-92310666D01*
X156214136Y-92694135D01*
X155830667Y-93268037D01*
X155730001Y-93774120D01*
X155730000Y-95915879D01*
X152549087Y-95915879D01*
X152241963Y-95710666D01*
X151735880Y-95610000D01*
X149594120Y-95610000D01*
X149088037Y-95710666D01*
X148514135Y-96094135D01*
X148130666Y-96668037D01*
X147996010Y-97345000D01*
X148130666Y-98021963D01*
X148341020Y-98336779D01*
X147783712Y-98490670D01*
X147248368Y-98907972D01*
X146913469Y-99498376D01*
X146875825Y-99648878D01*
X87755082Y-99648878D01*
X87535935Y-99119813D01*
X86900187Y-98484065D01*
X86069542Y-98140000D01*
X85170458Y-98140000D01*
X84339813Y-98484065D01*
X83704065Y-99119813D01*
X83360000Y-99950458D01*
X83360000Y-100607052D01*
X83330000Y-100577052D01*
X83330000Y-97930275D01*
X137569331Y-97930275D01*
X137631169Y-98166042D01*
X138132122Y-98342419D01*
X138662440Y-98313664D01*
X139018831Y-98166042D01*
X139080669Y-97930275D01*
X138325000Y-97174605D01*
X137569331Y-97930275D01*
X83330000Y-97930275D01*
X83330000Y-96802122D01*
X136977581Y-96802122D01*
X137006336Y-97332440D01*
X137153958Y-97688831D01*
X137389725Y-97750669D01*
X138145395Y-96995000D01*
X138504605Y-96995000D01*
X139260275Y-97750669D01*
X139496042Y-97688831D01*
X139672419Y-97187878D01*
X139643664Y-96657560D01*
X139496042Y-96301169D01*
X139260275Y-96239331D01*
X138504605Y-96995000D01*
X138145395Y-96995000D01*
X137389725Y-96239331D01*
X137153958Y-96301169D01*
X136977581Y-96802122D01*
X83330000Y-96802122D01*
X83330000Y-93600458D01*
X83360000Y-93600458D01*
X83360000Y-94499542D01*
X83704065Y-95330187D01*
X84339813Y-95965935D01*
X85170458Y-96310000D01*
X86069542Y-96310000D01*
X86900187Y-95965935D01*
X87535935Y-95330187D01*
X87880000Y-94499542D01*
X87880000Y-94443452D01*
X103843000Y-94443452D01*
X103843000Y-94974548D01*
X104046242Y-95465217D01*
X104421783Y-95840758D01*
X104912452Y-96044000D01*
X105443548Y-96044000D01*
X105934217Y-95840758D01*
X106130700Y-95644275D01*
X106962331Y-95644275D01*
X107024169Y-95880042D01*
X107525122Y-96056419D01*
X108055440Y-96027664D01*
X108411831Y-95880042D01*
X108473669Y-95644275D01*
X107718000Y-94888605D01*
X106962331Y-95644275D01*
X106130700Y-95644275D01*
X106309758Y-95465217D01*
X106441279Y-95147698D01*
X106546958Y-95402831D01*
X106782725Y-95464669D01*
X107538395Y-94709000D01*
X107897605Y-94709000D01*
X108653275Y-95464669D01*
X108889042Y-95402831D01*
X109065419Y-94901878D01*
X109040563Y-94443452D01*
X109431000Y-94443452D01*
X109431000Y-94974548D01*
X109634242Y-95465217D01*
X110009783Y-95840758D01*
X110500452Y-96044000D01*
X111031548Y-96044000D01*
X111522217Y-95840758D01*
X111718700Y-95644275D01*
X112550331Y-95644275D01*
X112612169Y-95880042D01*
X113113122Y-96056419D01*
X113643440Y-96027664D01*
X113999831Y-95880042D01*
X114061669Y-95644275D01*
X113306000Y-94888605D01*
X112550331Y-95644275D01*
X111718700Y-95644275D01*
X111897758Y-95465217D01*
X112029279Y-95147698D01*
X112134958Y-95402831D01*
X112370725Y-95464669D01*
X113126395Y-94709000D01*
X113485605Y-94709000D01*
X114241275Y-95464669D01*
X114477042Y-95402831D01*
X114653419Y-94901878D01*
X114628563Y-94443452D01*
X114892000Y-94443452D01*
X114892000Y-94974548D01*
X115095242Y-95465217D01*
X115470783Y-95840758D01*
X115961452Y-96044000D01*
X116492548Y-96044000D01*
X116983217Y-95840758D01*
X117179700Y-95644275D01*
X118011331Y-95644275D01*
X118073169Y-95880042D01*
X118574122Y-96056419D01*
X119104440Y-96027664D01*
X119460831Y-95880042D01*
X119522669Y-95644275D01*
X118767000Y-94888605D01*
X118011331Y-95644275D01*
X117179700Y-95644275D01*
X117358758Y-95465217D01*
X117490279Y-95147698D01*
X117595958Y-95402831D01*
X117831725Y-95464669D01*
X118587395Y-94709000D01*
X118946605Y-94709000D01*
X119702275Y-95464669D01*
X119938042Y-95402831D01*
X120114419Y-94901878D01*
X120085664Y-94371560D01*
X120010233Y-94189452D01*
X136990000Y-94189452D01*
X136990000Y-94720548D01*
X137193242Y-95211217D01*
X137568783Y-95586758D01*
X137886302Y-95718279D01*
X137631169Y-95823958D01*
X137569331Y-96059725D01*
X138325000Y-96815395D01*
X139080669Y-96059725D01*
X139018831Y-95823958D01*
X138743013Y-95726847D01*
X139081217Y-95586758D01*
X139456758Y-95211217D01*
X139660000Y-94720548D01*
X139660000Y-94189452D01*
X139456758Y-93698783D01*
X139081217Y-93323242D01*
X138590548Y-93120000D01*
X138059452Y-93120000D01*
X137568783Y-93323242D01*
X137193242Y-93698783D01*
X136990000Y-94189452D01*
X120010233Y-94189452D01*
X119938042Y-94015169D01*
X119702275Y-93953331D01*
X118946605Y-94709000D01*
X118587395Y-94709000D01*
X117831725Y-93953331D01*
X117595958Y-94015169D01*
X117498847Y-94290987D01*
X117358758Y-93952783D01*
X117179700Y-93773725D01*
X118011331Y-93773725D01*
X118767000Y-94529395D01*
X119522669Y-93773725D01*
X119460831Y-93537958D01*
X118959878Y-93361581D01*
X118429560Y-93390336D01*
X118073169Y-93537958D01*
X118011331Y-93773725D01*
X117179700Y-93773725D01*
X116983217Y-93577242D01*
X116492548Y-93374000D01*
X115961452Y-93374000D01*
X115470783Y-93577242D01*
X115095242Y-93952783D01*
X114892000Y-94443452D01*
X114628563Y-94443452D01*
X114624664Y-94371560D01*
X114477042Y-94015169D01*
X114241275Y-93953331D01*
X113485605Y-94709000D01*
X113126395Y-94709000D01*
X112370725Y-93953331D01*
X112134958Y-94015169D01*
X112037847Y-94290987D01*
X111897758Y-93952783D01*
X111718700Y-93773725D01*
X112550331Y-93773725D01*
X113306000Y-94529395D01*
X114061669Y-93773725D01*
X113999831Y-93537958D01*
X113498878Y-93361581D01*
X112968560Y-93390336D01*
X112612169Y-93537958D01*
X112550331Y-93773725D01*
X111718700Y-93773725D01*
X111522217Y-93577242D01*
X111031548Y-93374000D01*
X110500452Y-93374000D01*
X110009783Y-93577242D01*
X109634242Y-93952783D01*
X109431000Y-94443452D01*
X109040563Y-94443452D01*
X109036664Y-94371560D01*
X108889042Y-94015169D01*
X108653275Y-93953331D01*
X107897605Y-94709000D01*
X107538395Y-94709000D01*
X106782725Y-93953331D01*
X106546958Y-94015169D01*
X106449847Y-94290987D01*
X106309758Y-93952783D01*
X106130700Y-93773725D01*
X106962331Y-93773725D01*
X107718000Y-94529395D01*
X108473669Y-93773725D01*
X108411831Y-93537958D01*
X107910878Y-93361581D01*
X107380560Y-93390336D01*
X107024169Y-93537958D01*
X106962331Y-93773725D01*
X106130700Y-93773725D01*
X105934217Y-93577242D01*
X105443548Y-93374000D01*
X104912452Y-93374000D01*
X104421783Y-93577242D01*
X104046242Y-93952783D01*
X103843000Y-94443452D01*
X87880000Y-94443452D01*
X87880000Y-93600458D01*
X87684618Y-93128764D01*
X91170841Y-93128764D01*
X91240059Y-93370742D01*
X91762780Y-93557155D01*
X92317049Y-93529341D01*
X92699941Y-93370742D01*
X92769159Y-93128764D01*
X91970000Y-92329605D01*
X91170841Y-93128764D01*
X87684618Y-93128764D01*
X87535935Y-92769813D01*
X86900187Y-92134065D01*
X86438385Y-91942780D01*
X90562845Y-91942780D01*
X90590659Y-92497049D01*
X90749258Y-92879941D01*
X90991236Y-92949159D01*
X91790395Y-92150000D01*
X92149605Y-92150000D01*
X92948764Y-92949159D01*
X93190742Y-92879941D01*
X93377155Y-92357220D01*
X93349341Y-91802951D01*
X93190742Y-91420059D01*
X92948764Y-91350841D01*
X92149605Y-92150000D01*
X91790395Y-92150000D01*
X90991236Y-91350841D01*
X90749258Y-91420059D01*
X90562845Y-91942780D01*
X86438385Y-91942780D01*
X86069542Y-91790000D01*
X85170458Y-91790000D01*
X84339813Y-92134065D01*
X83704065Y-92769813D01*
X83360000Y-93600458D01*
X83330000Y-93600458D01*
X83330000Y-92281578D01*
X83531578Y-92080000D01*
X84000439Y-92080000D01*
X84527862Y-91861534D01*
X84931534Y-91457862D01*
X85150000Y-90930439D01*
X85150000Y-90588764D01*
X91170841Y-90588764D01*
X91240059Y-90830742D01*
X91367863Y-90876320D01*
X91240059Y-90929258D01*
X91170841Y-91171236D01*
X91970000Y-91970395D01*
X92769159Y-91171236D01*
X92699941Y-90929258D01*
X92572137Y-90883680D01*
X92699941Y-90830742D01*
X92769159Y-90588764D01*
X91970000Y-89789605D01*
X91170841Y-90588764D01*
X85150000Y-90588764D01*
X85150000Y-90359561D01*
X84931534Y-89832138D01*
X84527862Y-89428466D01*
X84465851Y-89402780D01*
X90562845Y-89402780D01*
X90590659Y-89957049D01*
X90749258Y-90339941D01*
X90991236Y-90409159D01*
X91790395Y-89610000D01*
X92149605Y-89610000D01*
X92948764Y-90409159D01*
X93190742Y-90339941D01*
X93377155Y-89817220D01*
X93349341Y-89262951D01*
X93190742Y-88880059D01*
X92948764Y-88810841D01*
X92149605Y-89610000D01*
X91790395Y-89610000D01*
X90991236Y-88810841D01*
X90749258Y-88880059D01*
X90562845Y-89402780D01*
X84465851Y-89402780D01*
X84000439Y-89210000D01*
X83429561Y-89210000D01*
X83083048Y-89353531D01*
X83531579Y-88905000D01*
X84000439Y-88905000D01*
X84527862Y-88686534D01*
X84931534Y-88282862D01*
X85150000Y-87755439D01*
X85150000Y-87184561D01*
X84987610Y-86792517D01*
X90575000Y-86792517D01*
X90575000Y-87347483D01*
X90787376Y-87860204D01*
X91179796Y-88252624D01*
X91374859Y-88333422D01*
X91240059Y-88389258D01*
X91170841Y-88631236D01*
X91970000Y-89430395D01*
X92769159Y-88631236D01*
X92699941Y-88389258D01*
X92555069Y-88337594D01*
X92760204Y-88252624D01*
X93152624Y-87860204D01*
X93365000Y-87347483D01*
X93365000Y-87066459D01*
X93502235Y-87158157D01*
X93683049Y-87194123D01*
X93327376Y-87549796D01*
X93115000Y-88062517D01*
X93115000Y-88617483D01*
X93327376Y-89130204D01*
X93719796Y-89522624D01*
X93930740Y-89610000D01*
X93719796Y-89697376D01*
X93327376Y-90089796D01*
X93115000Y-90602517D01*
X93115000Y-91157483D01*
X93327376Y-91670204D01*
X93719796Y-92062624D01*
X94232517Y-92275000D01*
X94787483Y-92275000D01*
X95300204Y-92062624D01*
X95546949Y-91815879D01*
X144530000Y-91815879D01*
X144630666Y-92321962D01*
X145014135Y-92895865D01*
X145588037Y-93279334D01*
X146265000Y-93413990D01*
X146941962Y-93279334D01*
X147515865Y-92895865D01*
X147899334Y-92321963D01*
X148000000Y-91815880D01*
X148000000Y-89674120D01*
X147899334Y-89168037D01*
X147883942Y-89145000D01*
X150917560Y-89145000D01*
X150917560Y-91345000D01*
X150966843Y-91592765D01*
X151107191Y-91802809D01*
X151317235Y-91943157D01*
X151565000Y-91992440D01*
X155565000Y-91992440D01*
X155812765Y-91943157D01*
X156022809Y-91802809D01*
X156163157Y-91592765D01*
X156212440Y-91345000D01*
X156212440Y-89145000D01*
X156163157Y-88897235D01*
X156022809Y-88687191D01*
X155812765Y-88546843D01*
X155565000Y-88497560D01*
X151565000Y-88497560D01*
X151317235Y-88546843D01*
X151107191Y-88687191D01*
X150966843Y-88897235D01*
X150917560Y-89145000D01*
X147883942Y-89145000D01*
X147515865Y-88594135D01*
X146941963Y-88210666D01*
X146265000Y-88076010D01*
X145588038Y-88210666D01*
X145014136Y-88594135D01*
X144630667Y-89168037D01*
X144530001Y-89674120D01*
X144530000Y-91815879D01*
X95546949Y-91815879D01*
X95692624Y-91670204D01*
X95905000Y-91157483D01*
X95905000Y-90602517D01*
X95692624Y-90089796D01*
X95300204Y-89697376D01*
X95089260Y-89610000D01*
X95300204Y-89522624D01*
X95692624Y-89130204D01*
X95905000Y-88617483D01*
X95905000Y-88062517D01*
X95692624Y-87549796D01*
X95336951Y-87194123D01*
X95517765Y-87158157D01*
X95727809Y-87017809D01*
X95868157Y-86807765D01*
X95917440Y-86560000D01*
X95917440Y-85342750D01*
X100625000Y-85342750D01*
X100625000Y-86283310D01*
X100721673Y-86516699D01*
X100900302Y-86695327D01*
X101133691Y-86792000D01*
X101844250Y-86792000D01*
X102003000Y-86633250D01*
X102003000Y-85184000D01*
X100783750Y-85184000D01*
X100625000Y-85342750D01*
X95917440Y-85342750D01*
X95917440Y-85040000D01*
X95868157Y-84792235D01*
X95727809Y-84582191D01*
X95517765Y-84441843D01*
X95270000Y-84392560D01*
X93750000Y-84392560D01*
X93502235Y-84441843D01*
X93292191Y-84582191D01*
X93151843Y-84792235D01*
X93102560Y-85040000D01*
X93102560Y-86229732D01*
X92760204Y-85887376D01*
X92247483Y-85675000D01*
X91692517Y-85675000D01*
X91179796Y-85887376D01*
X90787376Y-86279796D01*
X90575000Y-86792517D01*
X84987610Y-86792517D01*
X84931534Y-86657138D01*
X84527862Y-86253466D01*
X84000439Y-86035000D01*
X83429561Y-86035000D01*
X82902138Y-86253466D01*
X82498466Y-86657138D01*
X82280000Y-87184561D01*
X82280000Y-87653421D01*
X80610845Y-89322577D01*
X80536952Y-89371951D01*
X80487578Y-89445844D01*
X80487576Y-89445846D01*
X80341348Y-89664691D01*
X80334847Y-89697376D01*
X80290000Y-89922835D01*
X80290000Y-89922839D01*
X80272663Y-90010000D01*
X80290000Y-90097161D01*
X80290000Y-90732164D01*
X80290001Y-90732169D01*
X80290000Y-105162835D01*
X80272662Y-105250000D01*
X80290001Y-105337170D01*
X80290000Y-128022839D01*
X80272663Y-128110000D01*
X80290000Y-128197161D01*
X80290000Y-128197164D01*
X80341348Y-128455309D01*
X80536951Y-128748049D01*
X80610847Y-128797425D01*
X88107577Y-136294156D01*
X88121505Y-136315000D01*
X78685000Y-136315000D01*
X78685000Y-133380431D01*
X78940000Y-133380431D01*
X78940000Y-134269569D01*
X79280259Y-135091026D01*
X79908974Y-135719741D01*
X80730431Y-136060000D01*
X81619569Y-136060000D01*
X82441026Y-135719741D01*
X83069741Y-135091026D01*
X83410000Y-134269569D01*
X83410000Y-133380431D01*
X83069741Y-132558974D01*
X82441026Y-131930259D01*
X81619569Y-131590000D01*
X80730431Y-131590000D01*
X79908974Y-131930259D01*
X79280259Y-132558974D01*
X78940000Y-133380431D01*
X78685000Y-133380431D01*
X78685000Y-83440458D01*
X83360000Y-83440458D01*
X83360000Y-84339542D01*
X83704065Y-85170187D01*
X84339813Y-85805935D01*
X85170458Y-86150000D01*
X86069542Y-86150000D01*
X86900187Y-85805935D01*
X87535935Y-85170187D01*
X87880000Y-84339542D01*
X87880000Y-83830690D01*
X100625000Y-83830690D01*
X100625000Y-84771250D01*
X100783750Y-84930000D01*
X102003000Y-84930000D01*
X102003000Y-83480750D01*
X102257000Y-83480750D01*
X102257000Y-84930000D01*
X102277000Y-84930000D01*
X102277000Y-85184000D01*
X102257000Y-85184000D01*
X102257000Y-86633250D01*
X102415750Y-86792000D01*
X103126309Y-86792000D01*
X103359698Y-86695327D01*
X103538327Y-86516699D01*
X103595364Y-86378999D01*
X104082779Y-86704678D01*
X104670000Y-86821484D01*
X105257222Y-86704678D01*
X105755044Y-86372044D01*
X106087678Y-85874221D01*
X106175000Y-85435225D01*
X106175000Y-84678774D01*
X106087678Y-84239778D01*
X105755044Y-83741956D01*
X105257221Y-83409322D01*
X104670000Y-83292516D01*
X104082778Y-83409322D01*
X103595364Y-83735001D01*
X103538327Y-83597301D01*
X103359698Y-83418673D01*
X103126309Y-83322000D01*
X102415750Y-83322000D01*
X102257000Y-83480750D01*
X102003000Y-83480750D01*
X101844250Y-83322000D01*
X101133691Y-83322000D01*
X100900302Y-83418673D01*
X100721673Y-83597301D01*
X100625000Y-83830690D01*
X87880000Y-83830690D01*
X87880000Y-83440458D01*
X87535935Y-82609813D01*
X86900187Y-81974065D01*
X86069542Y-81630000D01*
X85170458Y-81630000D01*
X84339813Y-81974065D01*
X83704065Y-82609813D01*
X83360000Y-83440458D01*
X78685000Y-83440458D01*
X78685000Y-78599452D01*
X91815000Y-78599452D01*
X91815000Y-79130548D01*
X92018242Y-79621217D01*
X92393783Y-79996758D01*
X92884452Y-80200000D01*
X93415548Y-80200000D01*
X93906217Y-79996758D01*
X94281758Y-79621217D01*
X94485000Y-79130548D01*
X94485000Y-78599452D01*
X94281758Y-78108783D01*
X93906217Y-77733242D01*
X93588698Y-77601721D01*
X93843831Y-77496042D01*
X93905669Y-77260275D01*
X93150000Y-76504605D01*
X92394331Y-77260275D01*
X92456169Y-77496042D01*
X92731987Y-77593153D01*
X92393783Y-77733242D01*
X92018242Y-78108783D01*
X91815000Y-78599452D01*
X78685000Y-78599452D01*
X78685000Y-76132122D01*
X91802581Y-76132122D01*
X91831336Y-76662440D01*
X91978958Y-77018831D01*
X92214725Y-77080669D01*
X92970395Y-76325000D01*
X93329605Y-76325000D01*
X94085275Y-77080669D01*
X94321042Y-77018831D01*
X94497419Y-76517878D01*
X94490462Y-76389561D01*
X106065000Y-76389561D01*
X106065000Y-76960439D01*
X106283466Y-77487862D01*
X106687138Y-77891534D01*
X107214561Y-78110000D01*
X107785439Y-78110000D01*
X108312862Y-77891534D01*
X108644396Y-77560000D01*
X109875604Y-77560000D01*
X110207138Y-77891534D01*
X110734561Y-78110000D01*
X111305439Y-78110000D01*
X111832862Y-77891534D01*
X112236534Y-77487862D01*
X112455000Y-76960439D01*
X112455000Y-76389561D01*
X112236534Y-75862138D01*
X111832862Y-75458466D01*
X111305439Y-75240000D01*
X110734561Y-75240000D01*
X110207138Y-75458466D01*
X109875604Y-75790000D01*
X108644396Y-75790000D01*
X108312862Y-75458466D01*
X107785439Y-75240000D01*
X107214561Y-75240000D01*
X106687138Y-75458466D01*
X106283466Y-75862138D01*
X106065000Y-76389561D01*
X94490462Y-76389561D01*
X94468664Y-75987560D01*
X94321042Y-75631169D01*
X94085275Y-75569331D01*
X93329605Y-76325000D01*
X92970395Y-76325000D01*
X92214725Y-75569331D01*
X91978958Y-75631169D01*
X91802581Y-76132122D01*
X78685000Y-76132122D01*
X78685000Y-75389725D01*
X92394331Y-75389725D01*
X93150000Y-76145395D01*
X93905669Y-75389725D01*
X93843831Y-75153958D01*
X93342878Y-74977581D01*
X92812560Y-75006336D01*
X92456169Y-75153958D01*
X92394331Y-75389725D01*
X78685000Y-75389725D01*
X78685000Y-70046892D01*
X83543514Y-70046892D01*
X83789817Y-70571358D01*
X84218076Y-70961645D01*
X84628110Y-71131476D01*
X84858000Y-71010155D01*
X84858000Y-69817000D01*
X83664181Y-69817000D01*
X83543514Y-70046892D01*
X78685000Y-70046892D01*
X78685000Y-69333108D01*
X83543514Y-69333108D01*
X83664181Y-69563000D01*
X84858000Y-69563000D01*
X84858000Y-68369845D01*
X84628110Y-68248524D01*
X84218076Y-68418355D01*
X83789817Y-68808642D01*
X83543514Y-69333108D01*
X78685000Y-69333108D01*
X78685000Y-64800431D01*
X78940000Y-64800431D01*
X78940000Y-65689569D01*
X79280259Y-66511026D01*
X79908974Y-67139741D01*
X80730431Y-67480000D01*
X81619569Y-67480000D01*
X82441026Y-67139741D01*
X83069741Y-66511026D01*
X83410000Y-65689569D01*
X83410000Y-65130750D01*
X86040000Y-65130750D01*
X86040000Y-65821309D01*
X86136673Y-66054698D01*
X86315301Y-66233327D01*
X86548690Y-66330000D01*
X87239250Y-66330000D01*
X87398000Y-66171250D01*
X87398000Y-64972000D01*
X86198750Y-64972000D01*
X86040000Y-65130750D01*
X83410000Y-65130750D01*
X83410000Y-64800431D01*
X83069741Y-63978974D01*
X82959458Y-63868691D01*
X86040000Y-63868691D01*
X86040000Y-64559250D01*
X86198750Y-64718000D01*
X87398000Y-64718000D01*
X87398000Y-63518750D01*
X87239250Y-63360000D01*
X86548690Y-63360000D01*
X86315301Y-63456673D01*
X86136673Y-63635302D01*
X86040000Y-63868691D01*
X82959458Y-63868691D01*
X82441026Y-63350259D01*
X81619569Y-63010000D01*
X80730431Y-63010000D01*
X79908974Y-63350259D01*
X79280259Y-63978974D01*
X78940000Y-64800431D01*
X78685000Y-64800431D01*
X78685000Y-62685000D01*
X89255198Y-62685000D01*
X88557093Y-63383106D01*
G04 #@! TD*
M02*
