M48
;DRILL file {KiCad 5.0.2-1.fc29} date Sat 19 Jan 2019 10:33:57 PM CET
;FORMAT={-:-/ absolute / inch / decimal}
FMAT,2
INCH,TZ
T1C0.0295
T2C0.0299
T3C0.0315
T4C0.0394
T5C0.0472
T6C0.0512
%
G90
G05
T1
X6.0709Y-4.8937
X6.1209Y-4.8937
X6.1709Y-4.8937
T2
X3.6209Y-4.078
X3.6209Y-4.178
X3.6209Y-4.278
X3.7209Y-4.028
X3.7209Y-4.128
X3.7209Y-4.228
X3.6209Y-3.428
X3.6209Y-3.528
X3.6209Y-3.628
X3.7209Y-3.378
X3.7209Y-3.478
X3.7209Y-3.578
T3
X3.2959Y-3.4437
X3.2959Y-3.5687
X3.2959Y-4.0687
X3.2959Y-4.2437
X3.3459Y-3.0437
X3.3459Y-4.1437
X3.9809Y-3.1487
X4.0459Y-2.5187
X4.1369Y-2.8087
X4.2323Y-3.0187
X4.3254Y-2.5532
X4.3709Y-3.0187
X4.9709Y-2.9187
X4.9959Y-2.801
X5.439Y-3.3805
X5.6958Y-5.2936
X5.8028Y-4.7452
X5.8709Y-5.2437
X5.9709Y-5.3437
X6.0459Y-2.8437
X6.1209Y-5.0687
X6.1459Y-3.0937
X5.4459Y-3.7187
X5.4459Y-3.8187
X4.5759Y-3.7287
X4.6759Y-3.7287
X4.3609Y-3.7287
X4.4609Y-3.7287
X4.1409Y-3.7287
X4.2409Y-3.7287
X3.6673Y-3.0049
X3.6673Y-3.1049
T4
X4.3909Y-4.258
X4.4909Y-4.258
X4.5909Y-4.258
X4.6909Y-4.258
X4.7909Y-4.258
X4.8909Y-4.258
X4.9909Y-4.258
X5.0909Y-4.258
X4.Y-4.0669
X4.Y-4.1669
X4.Y-4.2669
X3.4459Y-2.553
X3.5459Y-2.553
X3.6459Y-2.553
X3.7459Y-2.553
X3.8459Y-2.553
X3.9459Y-2.553
X3.3459Y-2.7437
X3.4459Y-2.7437
X3.5459Y-2.7437
T5
X4.3459Y-4.8437
X4.6709Y-4.8437
X4.9959Y-4.8437
X5.3209Y-4.8437
X5.5209Y-4.775
X4.0209Y-3.3487
X4.1209Y-3.3487
T6
X5.7585Y-3.5726
X5.8844Y-3.9388
X5.9317Y-3.8325
X6.0459Y-3.553
X6.1994Y-3.7341
X5.7585Y-4.1976
X5.8844Y-4.5638
X5.9317Y-4.4575
X6.0459Y-4.178
X6.1994Y-4.3591
T4
X3.3346Y-4.7136G85X3.3346Y-4.7923
G05
X3.4134Y-4.938G85X3.4921Y-4.938
G05
X3.5709Y-4.7136G85X3.5709Y-4.7923
G05
T0
M30
