G04 #@! TF.GenerationSoftware,KiCad,Pcbnew,5.0.2-1.fc29*
G04 #@! TF.CreationDate,2019-01-19T22:33:50+01:00*
G04 #@! TF.ProjectId,esp8266,65737038-3236-4362-9e6b-696361645f70,rev?*
G04 #@! TF.SameCoordinates,Original*
G04 #@! TF.FileFunction,Soldermask,Top*
G04 #@! TF.FilePolarity,Negative*
%FSLAX46Y46*%
G04 Gerber Fmt 4.6, Leading zero omitted, Abs format (unit mm)*
G04 Created by KiCad (PCBNEW 5.0.2-1.fc29) date Sat 19 Jan 2019 10:33:50 PM CET*
%MOMM*%
%LPD*%
G01*
G04 APERTURE LIST*
%ADD10C,0.100000*%
G04 APERTURE END LIST*
D10*
G36*
X142730000Y-135885000D02*
X137730000Y-135885000D01*
X137730000Y-125885000D01*
X142730000Y-125885000D01*
X142730000Y-135885000D01*
X142730000Y-135885000D01*
G37*
G36*
X134475000Y-135885000D02*
X129475000Y-135885000D01*
X129475000Y-125885000D01*
X134475000Y-125885000D01*
X134475000Y-135885000D01*
X134475000Y-135885000D01*
G37*
G36*
X109710000Y-135885000D02*
X104710000Y-135885000D01*
X104710000Y-125885000D01*
X109710000Y-125885000D01*
X109710000Y-135885000D01*
X109710000Y-135885000D01*
G37*
G36*
X117965000Y-135885000D02*
X112965000Y-135885000D01*
X112965000Y-125885000D01*
X117965000Y-125885000D01*
X117965000Y-135885000D01*
X117965000Y-135885000D01*
G37*
G36*
X126220000Y-135885000D02*
X121220000Y-135885000D01*
X121220000Y-125885000D01*
X126220000Y-125885000D01*
X126220000Y-135885000D01*
X126220000Y-135885000D01*
G37*
G36*
X101690001Y-135845001D02*
X96690001Y-135845001D01*
X96690001Y-125845001D01*
X101690001Y-125845001D01*
X101690001Y-135845001D01*
X101690001Y-135845001D01*
G37*
G36*
X81641703Y-132286486D02*
X81932883Y-132407097D01*
X82194944Y-132582201D01*
X82417799Y-132805056D01*
X82592903Y-133067117D01*
X82713514Y-133358297D01*
X82775000Y-133667412D01*
X82775000Y-133982588D01*
X82713514Y-134291703D01*
X82592903Y-134582883D01*
X82417799Y-134844944D01*
X82194944Y-135067799D01*
X81932883Y-135242903D01*
X81641703Y-135363514D01*
X81332588Y-135425000D01*
X81017412Y-135425000D01*
X80708297Y-135363514D01*
X80417117Y-135242903D01*
X80155056Y-135067799D01*
X79932201Y-134844944D01*
X79757097Y-134582883D01*
X79636486Y-134291703D01*
X79575000Y-133982588D01*
X79575000Y-133667412D01*
X79636486Y-133358297D01*
X79757097Y-133067117D01*
X79932201Y-132805056D01*
X80155056Y-132582201D01*
X80417117Y-132407097D01*
X80708297Y-132286486D01*
X81017412Y-132225000D01*
X81332588Y-132225000D01*
X81641703Y-132286486D01*
X81641703Y-132286486D01*
G37*
G36*
X160381703Y-132286486D02*
X160672883Y-132407097D01*
X160934944Y-132582201D01*
X161157799Y-132805056D01*
X161332903Y-133067117D01*
X161453514Y-133358297D01*
X161515000Y-133667412D01*
X161515000Y-133982588D01*
X161453514Y-134291703D01*
X161332903Y-134582883D01*
X161157799Y-134844944D01*
X160934944Y-135067799D01*
X160672883Y-135242903D01*
X160381703Y-135363514D01*
X160072588Y-135425000D01*
X159757412Y-135425000D01*
X159448297Y-135363514D01*
X159157117Y-135242903D01*
X158895056Y-135067799D01*
X158672201Y-134844944D01*
X158497097Y-134582883D01*
X158376486Y-134291703D01*
X158315000Y-133982588D01*
X158315000Y-133667412D01*
X158376486Y-133358297D01*
X158497097Y-133067117D01*
X158672201Y-132805056D01*
X158895056Y-132582201D01*
X159157117Y-132407097D01*
X159448297Y-132286486D01*
X159757412Y-132225000D01*
X160072588Y-132225000D01*
X160381703Y-132286486D01*
X160381703Y-132286486D01*
G37*
G36*
X153209695Y-131631313D02*
X153216620Y-131633414D01*
X153222997Y-131636822D01*
X153228589Y-131641411D01*
X153233178Y-131647003D01*
X153236586Y-131653380D01*
X153238687Y-131660305D01*
X153240000Y-131673638D01*
X153240000Y-131986362D01*
X153238687Y-131999695D01*
X153236586Y-132006620D01*
X153233178Y-132012997D01*
X153228589Y-132018589D01*
X153222997Y-132023178D01*
X153216620Y-132026586D01*
X153209695Y-132028687D01*
X153196362Y-132030000D01*
X152483638Y-132030000D01*
X152470305Y-132028687D01*
X152463380Y-132026586D01*
X152457003Y-132023178D01*
X152451411Y-132018589D01*
X152446822Y-132012997D01*
X152443414Y-132006620D01*
X152441313Y-131999695D01*
X152440000Y-131986362D01*
X152440000Y-131673638D01*
X152441313Y-131660305D01*
X152443414Y-131653380D01*
X152446822Y-131647003D01*
X152451411Y-131641411D01*
X152457003Y-131636822D01*
X152463380Y-131633414D01*
X152470305Y-131631313D01*
X152483638Y-131630000D01*
X153196362Y-131630000D01*
X153209695Y-131631313D01*
X153209695Y-131631313D01*
G37*
G36*
X150309695Y-131631313D02*
X150316620Y-131633414D01*
X150322997Y-131636822D01*
X150328589Y-131641411D01*
X150333178Y-131647003D01*
X150336586Y-131653380D01*
X150338687Y-131660305D01*
X150340000Y-131673638D01*
X150340000Y-131986362D01*
X150338687Y-131999695D01*
X150336586Y-132006620D01*
X150333178Y-132012997D01*
X150328589Y-132018589D01*
X150322997Y-132023178D01*
X150316620Y-132026586D01*
X150309695Y-132028687D01*
X150296362Y-132030000D01*
X149583638Y-132030000D01*
X149570305Y-132028687D01*
X149563380Y-132026586D01*
X149557003Y-132023178D01*
X149551411Y-132018589D01*
X149546822Y-132012997D01*
X149543414Y-132006620D01*
X149541313Y-131999695D01*
X149540000Y-131986362D01*
X149540000Y-131673638D01*
X149541313Y-131660305D01*
X149543414Y-131653380D01*
X149546822Y-131647003D01*
X149551411Y-131641411D01*
X149557003Y-131636822D01*
X149563380Y-131633414D01*
X149570305Y-131631313D01*
X149583638Y-131630000D01*
X150296362Y-131630000D01*
X150309695Y-131631313D01*
X150309695Y-131631313D01*
G37*
G36*
X152005731Y-129633795D02*
X152036882Y-129643245D01*
X152065590Y-129658589D01*
X152090757Y-129679243D01*
X152111411Y-129704410D01*
X152126755Y-129733118D01*
X152136205Y-129764269D01*
X152140000Y-129802807D01*
X152140000Y-131857193D01*
X152136205Y-131895731D01*
X152126755Y-131926882D01*
X152111411Y-131955590D01*
X152090757Y-131980757D01*
X152065590Y-132001411D01*
X152036882Y-132016755D01*
X152005731Y-132026205D01*
X151967193Y-132030000D01*
X150812807Y-132030000D01*
X150774269Y-132026205D01*
X150743118Y-132016755D01*
X150714410Y-132001411D01*
X150689243Y-131980757D01*
X150668589Y-131955590D01*
X150653245Y-131926882D01*
X150643795Y-131895731D01*
X150640000Y-131857193D01*
X150640000Y-129802807D01*
X150643795Y-129764269D01*
X150653245Y-129733118D01*
X150668589Y-129704410D01*
X150689243Y-129679243D01*
X150714410Y-129658589D01*
X150743118Y-129643245D01*
X150774269Y-129633795D01*
X150812807Y-129630000D01*
X151967193Y-129630000D01*
X152005731Y-129633795D01*
X152005731Y-129633795D01*
G37*
G36*
X153209695Y-130631313D02*
X153216620Y-130633414D01*
X153222997Y-130636822D01*
X153228589Y-130641411D01*
X153233178Y-130647003D01*
X153236586Y-130653380D01*
X153238687Y-130660305D01*
X153240000Y-130673638D01*
X153240000Y-130986362D01*
X153238687Y-130999695D01*
X153236586Y-131006620D01*
X153233178Y-131012997D01*
X153228589Y-131018589D01*
X153222997Y-131023178D01*
X153216620Y-131026586D01*
X153209695Y-131028687D01*
X153196362Y-131030000D01*
X152483638Y-131030000D01*
X152470305Y-131028687D01*
X152463380Y-131026586D01*
X152457003Y-131023178D01*
X152451411Y-131018589D01*
X152446822Y-131012997D01*
X152443414Y-131006620D01*
X152441313Y-130999695D01*
X152440000Y-130986362D01*
X152440000Y-130673638D01*
X152441313Y-130660305D01*
X152443414Y-130653380D01*
X152446822Y-130647003D01*
X152451411Y-130641411D01*
X152457003Y-130636822D01*
X152463380Y-130633414D01*
X152470305Y-130631313D01*
X152483638Y-130630000D01*
X153196362Y-130630000D01*
X153209695Y-130631313D01*
X153209695Y-130631313D01*
G37*
G36*
X150309695Y-130631313D02*
X150316620Y-130633414D01*
X150322997Y-130636822D01*
X150328589Y-130641411D01*
X150333178Y-130647003D01*
X150336586Y-130653380D01*
X150338687Y-130660305D01*
X150340000Y-130673638D01*
X150340000Y-130986362D01*
X150338687Y-130999695D01*
X150336586Y-131006620D01*
X150333178Y-131012997D01*
X150328589Y-131018589D01*
X150322997Y-131023178D01*
X150316620Y-131026586D01*
X150309695Y-131028687D01*
X150296362Y-131030000D01*
X149583638Y-131030000D01*
X149570305Y-131028687D01*
X149563380Y-131026586D01*
X149557003Y-131023178D01*
X149551411Y-131018589D01*
X149546822Y-131012997D01*
X149543414Y-131006620D01*
X149541313Y-130999695D01*
X149540000Y-130986362D01*
X149540000Y-130673638D01*
X149541313Y-130660305D01*
X149543414Y-130653380D01*
X149546822Y-130647003D01*
X149551411Y-130641411D01*
X149557003Y-130636822D01*
X149563380Y-130633414D01*
X149570305Y-130631313D01*
X149583638Y-130630000D01*
X150296362Y-130630000D01*
X150309695Y-130631313D01*
X150309695Y-130631313D01*
G37*
G36*
X153209695Y-129631313D02*
X153216620Y-129633414D01*
X153222997Y-129636822D01*
X153228589Y-129641411D01*
X153233178Y-129647003D01*
X153236586Y-129653380D01*
X153238687Y-129660305D01*
X153240000Y-129673638D01*
X153240000Y-129986362D01*
X153238687Y-129999695D01*
X153236586Y-130006620D01*
X153233178Y-130012997D01*
X153228589Y-130018589D01*
X153222997Y-130023178D01*
X153216620Y-130026586D01*
X153209695Y-130028687D01*
X153196362Y-130030000D01*
X152483638Y-130030000D01*
X152470305Y-130028687D01*
X152463380Y-130026586D01*
X152457003Y-130023178D01*
X152451411Y-130018589D01*
X152446822Y-130012997D01*
X152443414Y-130006620D01*
X152441313Y-129999695D01*
X152440000Y-129986362D01*
X152440000Y-129673638D01*
X152441313Y-129660305D01*
X152443414Y-129653380D01*
X152446822Y-129647003D01*
X152451411Y-129641411D01*
X152457003Y-129636822D01*
X152463380Y-129633414D01*
X152470305Y-129631313D01*
X152483638Y-129630000D01*
X153196362Y-129630000D01*
X153209695Y-129631313D01*
X153209695Y-129631313D01*
G37*
G36*
X150309695Y-129631313D02*
X150316620Y-129633414D01*
X150322997Y-129636822D01*
X150328589Y-129641411D01*
X150333178Y-129647003D01*
X150336586Y-129653380D01*
X150338687Y-129660305D01*
X150340000Y-129673638D01*
X150340000Y-129986362D01*
X150338687Y-129999695D01*
X150336586Y-130006620D01*
X150333178Y-130012997D01*
X150328589Y-130018589D01*
X150322997Y-130023178D01*
X150316620Y-130026586D01*
X150309695Y-130028687D01*
X150296362Y-130030000D01*
X149583638Y-130030000D01*
X149570305Y-130028687D01*
X149563380Y-130026586D01*
X149557003Y-130023178D01*
X149551411Y-130018589D01*
X149546822Y-130012997D01*
X149543414Y-130006620D01*
X149541313Y-129999695D01*
X149540000Y-129986362D01*
X149540000Y-129673638D01*
X149541313Y-129660305D01*
X149543414Y-129653380D01*
X149546822Y-129647003D01*
X149551411Y-129641411D01*
X149557003Y-129636822D01*
X149563380Y-129633414D01*
X149570305Y-129631313D01*
X149583638Y-129630000D01*
X150296362Y-129630000D01*
X150309695Y-129631313D01*
X150309695Y-129631313D01*
G37*
G36*
X88795891Y-123691205D02*
X88948200Y-123737407D01*
X89088567Y-123812435D01*
X89211597Y-123913403D01*
X89312565Y-124036433D01*
X89387593Y-124176800D01*
X89433795Y-124329109D01*
X89450000Y-124493640D01*
X89450000Y-126356360D01*
X89433795Y-126520891D01*
X89387593Y-126673200D01*
X89312565Y-126813567D01*
X89211597Y-126936597D01*
X89088567Y-127037565D01*
X88948200Y-127112593D01*
X88795891Y-127158795D01*
X88631360Y-127175000D01*
X86768640Y-127175000D01*
X86604109Y-127158795D01*
X86451800Y-127112593D01*
X86311433Y-127037565D01*
X86188403Y-126936597D01*
X86087435Y-126813567D01*
X86012407Y-126673200D01*
X85966205Y-126520891D01*
X85950000Y-126356360D01*
X85950000Y-124493640D01*
X85966205Y-124329109D01*
X86012407Y-124176800D01*
X86087435Y-124036433D01*
X86188403Y-123913403D01*
X86311433Y-123812435D01*
X86451800Y-123737407D01*
X86604109Y-123691205D01*
X86768640Y-123675000D01*
X88631360Y-123675000D01*
X88795891Y-123691205D01*
X88795891Y-123691205D01*
G37*
G36*
X156842913Y-123557596D02*
X156842916Y-123557597D01*
X156842917Y-123557597D01*
X156941880Y-123587617D01*
X157033086Y-123636367D01*
X157113027Y-123701973D01*
X157113028Y-123701975D01*
X157113030Y-123701976D01*
X157142107Y-123737407D01*
X157178633Y-123781914D01*
X157227383Y-123873119D01*
X157255382Y-123965420D01*
X157257404Y-123972086D01*
X157265000Y-124049208D01*
X157265000Y-124550791D01*
X157257404Y-124627914D01*
X157257403Y-124627917D01*
X157257403Y-124627918D01*
X157227383Y-124726881D01*
X157178633Y-124818086D01*
X157113027Y-124898027D01*
X157033086Y-124963633D01*
X156941881Y-125012383D01*
X156842918Y-125042403D01*
X156842917Y-125042403D01*
X156842914Y-125042404D01*
X156740000Y-125052540D01*
X156637087Y-125042404D01*
X156637084Y-125042403D01*
X156637083Y-125042403D01*
X156538120Y-125012383D01*
X156446915Y-124963633D01*
X156366974Y-124898027D01*
X156324006Y-124845671D01*
X156301366Y-124818084D01*
X156252618Y-124726883D01*
X156224618Y-124634580D01*
X156215240Y-124611941D01*
X156201626Y-124591567D01*
X156184299Y-124574240D01*
X156163925Y-124560626D01*
X156141286Y-124551248D01*
X156117252Y-124546468D01*
X156092748Y-124546468D01*
X156068714Y-124551248D01*
X156046075Y-124560626D01*
X156025701Y-124574240D01*
X156008374Y-124591567D01*
X155994760Y-124611941D01*
X155985382Y-124634579D01*
X155957383Y-124726881D01*
X155908633Y-124818086D01*
X155843027Y-124898027D01*
X155763086Y-124963633D01*
X155671881Y-125012383D01*
X155572918Y-125042403D01*
X155572917Y-125042403D01*
X155572914Y-125042404D01*
X155470000Y-125052540D01*
X155367087Y-125042404D01*
X155367084Y-125042403D01*
X155367083Y-125042403D01*
X155268120Y-125012383D01*
X155176915Y-124963633D01*
X155096974Y-124898027D01*
X155054006Y-124845671D01*
X155031366Y-124818084D01*
X154982617Y-124726882D01*
X154969618Y-124684029D01*
X154960240Y-124661389D01*
X154946626Y-124641015D01*
X154929299Y-124623688D01*
X154908925Y-124610074D01*
X154886286Y-124600696D01*
X154862252Y-124595916D01*
X154837748Y-124595916D01*
X154813715Y-124600696D01*
X154791075Y-124610074D01*
X154770701Y-124623688D01*
X154753374Y-124641015D01*
X154739760Y-124661389D01*
X154730382Y-124684028D01*
X154725602Y-124708062D01*
X154725000Y-124720314D01*
X154725000Y-125050000D01*
X153675000Y-125050000D01*
X153675000Y-123550000D01*
X154725000Y-123550000D01*
X154725000Y-123879687D01*
X154727402Y-123904073D01*
X154734515Y-123927522D01*
X154746066Y-123949133D01*
X154761612Y-123968075D01*
X154780554Y-123983621D01*
X154802165Y-123995172D01*
X154825614Y-124002285D01*
X154850000Y-124004687D01*
X154874386Y-124002285D01*
X154897835Y-123995172D01*
X154919446Y-123983621D01*
X154938388Y-123968075D01*
X154953934Y-123949133D01*
X154965485Y-123927522D01*
X154969618Y-123915972D01*
X154982617Y-123873119D01*
X155009693Y-123822464D01*
X155031367Y-123781914D01*
X155096973Y-123701973D01*
X155096975Y-123701972D01*
X155096976Y-123701970D01*
X155176913Y-123636368D01*
X155176912Y-123636368D01*
X155176914Y-123636367D01*
X155268119Y-123587617D01*
X155367082Y-123557597D01*
X155367083Y-123557597D01*
X155367086Y-123557596D01*
X155470000Y-123547460D01*
X155572913Y-123557596D01*
X155572916Y-123557597D01*
X155572917Y-123557597D01*
X155671880Y-123587617D01*
X155763086Y-123636367D01*
X155843027Y-123701973D01*
X155843028Y-123701975D01*
X155843030Y-123701976D01*
X155872107Y-123737407D01*
X155908633Y-123781914D01*
X155957383Y-123873119D01*
X155985382Y-123965420D01*
X155994760Y-123988059D01*
X156008374Y-124008433D01*
X156025701Y-124025760D01*
X156046075Y-124039374D01*
X156068714Y-124048752D01*
X156092748Y-124053532D01*
X156117252Y-124053532D01*
X156141286Y-124048752D01*
X156163925Y-124039374D01*
X156184299Y-124025760D01*
X156201626Y-124008433D01*
X156215240Y-123988059D01*
X156224617Y-123965420D01*
X156252616Y-123873122D01*
X156279693Y-123822464D01*
X156301367Y-123781914D01*
X156366973Y-123701973D01*
X156366975Y-123701972D01*
X156366976Y-123701970D01*
X156446913Y-123636368D01*
X156446912Y-123636368D01*
X156446914Y-123636367D01*
X156538119Y-123587617D01*
X156637082Y-123557597D01*
X156637083Y-123557597D01*
X156637086Y-123557596D01*
X156740000Y-123547460D01*
X156842913Y-123557596D01*
X156842913Y-123557596D01*
G37*
G36*
X151180523Y-123604039D02*
X151214054Y-123614211D01*
X151244961Y-123630731D01*
X151272044Y-123652957D01*
X151294270Y-123680040D01*
X151310790Y-123710947D01*
X151320962Y-123744478D01*
X151325001Y-123785487D01*
X151325001Y-124814513D01*
X151320962Y-124855522D01*
X151310790Y-124889053D01*
X151294270Y-124919960D01*
X151272044Y-124947043D01*
X151244961Y-124969269D01*
X151214054Y-124985789D01*
X151180523Y-124995961D01*
X151139514Y-125000000D01*
X150360488Y-125000000D01*
X150319479Y-124995961D01*
X150285948Y-124985789D01*
X150255041Y-124969269D01*
X150227958Y-124947043D01*
X150205732Y-124919960D01*
X150189212Y-124889053D01*
X150179040Y-124855522D01*
X150175001Y-124814513D01*
X150175001Y-123785487D01*
X150179040Y-123744478D01*
X150189212Y-123710947D01*
X150205732Y-123680040D01*
X150227958Y-123652957D01*
X150255041Y-123630731D01*
X150285948Y-123614211D01*
X150319479Y-123604039D01*
X150360488Y-123600000D01*
X151139514Y-123600000D01*
X151180523Y-123604039D01*
X151180523Y-123604039D01*
G37*
G36*
X149130523Y-123604039D02*
X149164054Y-123614211D01*
X149194961Y-123630731D01*
X149222044Y-123652957D01*
X149244270Y-123680040D01*
X149260790Y-123710947D01*
X149270962Y-123744478D01*
X149275001Y-123785487D01*
X149275001Y-124814513D01*
X149270962Y-124855522D01*
X149260790Y-124889053D01*
X149244270Y-124919960D01*
X149222044Y-124947043D01*
X149194961Y-124969269D01*
X149164054Y-124985789D01*
X149130523Y-124995961D01*
X149089514Y-125000000D01*
X148310488Y-125000000D01*
X148269479Y-124995961D01*
X148235948Y-124985789D01*
X148205041Y-124969269D01*
X148177958Y-124947043D01*
X148155732Y-124919960D01*
X148139212Y-124889053D01*
X148129040Y-124855522D01*
X148125001Y-124814513D01*
X148125001Y-123785487D01*
X148129040Y-123744478D01*
X148139212Y-123710947D01*
X148155732Y-123680040D01*
X148177958Y-123652957D01*
X148205041Y-123630731D01*
X148235948Y-123614211D01*
X148269479Y-123604039D01*
X148310488Y-123600000D01*
X149089514Y-123600000D01*
X149130523Y-123604039D01*
X149130523Y-123604039D01*
G37*
G36*
X144710000Y-123795000D02*
X143910000Y-123795000D01*
X143910000Y-122995000D01*
X144710000Y-122995000D01*
X144710000Y-123795000D01*
X144710000Y-123795000D01*
G37*
G36*
X146710000Y-123795000D02*
X145910000Y-123795000D01*
X145910000Y-122995000D01*
X146710000Y-122995000D01*
X146710000Y-123795000D01*
X146710000Y-123795000D01*
G37*
G36*
X85646508Y-118988803D02*
X85775363Y-119027891D01*
X85894119Y-119091367D01*
X85998208Y-119176792D01*
X86083633Y-119280881D01*
X86147109Y-119399637D01*
X86186197Y-119528492D01*
X86200000Y-119668640D01*
X86200000Y-121781360D01*
X86186197Y-121921508D01*
X86147109Y-122050363D01*
X86083633Y-122169119D01*
X85998208Y-122273208D01*
X85894119Y-122358633D01*
X85775363Y-122422109D01*
X85646508Y-122461197D01*
X85506360Y-122475000D01*
X83893640Y-122475000D01*
X83753492Y-122461197D01*
X83624637Y-122422109D01*
X83505881Y-122358633D01*
X83401792Y-122273208D01*
X83316367Y-122169119D01*
X83252891Y-122050363D01*
X83213803Y-121921508D01*
X83200000Y-121781360D01*
X83200000Y-119668640D01*
X83213803Y-119528492D01*
X83252891Y-119399637D01*
X83316367Y-119280881D01*
X83401792Y-119176792D01*
X83505881Y-119091367D01*
X83624637Y-119027891D01*
X83753492Y-118988803D01*
X83893640Y-118975000D01*
X85506360Y-118975000D01*
X85646508Y-118988803D01*
X85646508Y-118988803D01*
G37*
G36*
X92450000Y-122475000D02*
X88950000Y-122475000D01*
X88950000Y-118975000D01*
X92450000Y-118975000D01*
X92450000Y-122475000D01*
X92450000Y-122475000D01*
G37*
G36*
X144710000Y-121795000D02*
X143910000Y-121795000D01*
X143910000Y-120995000D01*
X144710000Y-120995000D01*
X144710000Y-121795000D01*
X144710000Y-121795000D01*
G37*
G36*
X146710000Y-121795000D02*
X145910000Y-121795000D01*
X145910000Y-120995000D01*
X146710000Y-120995000D01*
X146710000Y-121795000D01*
X146710000Y-121795000D01*
G37*
G36*
X126770000Y-121065000D02*
X125270000Y-121065000D01*
X125270000Y-119065000D01*
X126770000Y-119065000D01*
X126770000Y-121065000D01*
X126770000Y-121065000D01*
G37*
G36*
X113915000Y-121065000D02*
X112415000Y-121065000D01*
X112415000Y-119065000D01*
X113915000Y-119065000D01*
X113915000Y-121065000D01*
X113915000Y-121065000D01*
G37*
G36*
X118515000Y-121065000D02*
X117015000Y-121065000D01*
X117015000Y-119065000D01*
X118515000Y-119065000D01*
X118515000Y-121065000D01*
X118515000Y-121065000D01*
G37*
G36*
X116215000Y-121065000D02*
X114715000Y-121065000D01*
X114715000Y-119065000D01*
X116215000Y-119065000D01*
X116215000Y-121065000D01*
X116215000Y-121065000D01*
G37*
G36*
X122170000Y-121065000D02*
X120670000Y-121065000D01*
X120670000Y-119065000D01*
X122170000Y-119065000D01*
X122170000Y-121065000D01*
X122170000Y-121065000D01*
G37*
G36*
X124470000Y-121065000D02*
X122970000Y-121065000D01*
X122970000Y-119065000D01*
X124470000Y-119065000D01*
X124470000Y-121065000D01*
X124470000Y-121065000D01*
G37*
G36*
X130425000Y-121065000D02*
X128925000Y-121065000D01*
X128925000Y-119065000D01*
X130425000Y-119065000D01*
X130425000Y-121065000D01*
X130425000Y-121065000D01*
G37*
G36*
X132725000Y-121065000D02*
X131225000Y-121065000D01*
X131225000Y-119065000D01*
X132725000Y-119065000D01*
X132725000Y-121065000D01*
X132725000Y-121065000D01*
G37*
G36*
X105660000Y-121065000D02*
X104160000Y-121065000D01*
X104160000Y-119065000D01*
X105660000Y-119065000D01*
X105660000Y-121065000D01*
X105660000Y-121065000D01*
G37*
G36*
X107960000Y-121065000D02*
X106460000Y-121065000D01*
X106460000Y-119065000D01*
X107960000Y-119065000D01*
X107960000Y-121065000D01*
X107960000Y-121065000D01*
G37*
G36*
X135025000Y-121065000D02*
X133525000Y-121065000D01*
X133525000Y-119065000D01*
X135025000Y-119065000D01*
X135025000Y-121065000D01*
X135025000Y-121065000D01*
G37*
G36*
X110260000Y-121065000D02*
X108760000Y-121065000D01*
X108760000Y-119065000D01*
X110260000Y-119065000D01*
X110260000Y-121065000D01*
X110260000Y-121065000D01*
G37*
G36*
X150580639Y-114835916D02*
X150787986Y-114898815D01*
X150787988Y-114898816D01*
X150979084Y-115000958D01*
X151146581Y-115138419D01*
X151284042Y-115305916D01*
X151386184Y-115497012D01*
X151449084Y-115704362D01*
X151470322Y-115920000D01*
X151449084Y-116135638D01*
X151386184Y-116342988D01*
X151284042Y-116534084D01*
X151146581Y-116701581D01*
X150979084Y-116839042D01*
X150787988Y-116941184D01*
X150787986Y-116941185D01*
X150580639Y-117004084D01*
X150419038Y-117020000D01*
X148510962Y-117020000D01*
X148349361Y-117004084D01*
X148142014Y-116941185D01*
X148142012Y-116941184D01*
X147950916Y-116839042D01*
X147783419Y-116701581D01*
X147645958Y-116534084D01*
X147543816Y-116342988D01*
X147480916Y-116135638D01*
X147459678Y-115920000D01*
X147480916Y-115704362D01*
X147543816Y-115497012D01*
X147645958Y-115305916D01*
X147783419Y-115138419D01*
X147950916Y-115000958D01*
X148142012Y-114898816D01*
X148142014Y-114898815D01*
X148349361Y-114835916D01*
X148510962Y-114820000D01*
X150419038Y-114820000D01*
X150580639Y-114835916D01*
X150580639Y-114835916D01*
G37*
G36*
X125620000Y-114765000D02*
X121820000Y-114765000D01*
X121820000Y-112765000D01*
X125620000Y-112765000D01*
X125620000Y-114765000D01*
X125620000Y-114765000D01*
G37*
G36*
X133875000Y-114765000D02*
X130075000Y-114765000D01*
X130075000Y-112765000D01*
X133875000Y-112765000D01*
X133875000Y-114765000D01*
X133875000Y-114765000D01*
G37*
G36*
X109110000Y-114765000D02*
X105310000Y-114765000D01*
X105310000Y-112765000D01*
X109110000Y-112765000D01*
X109110000Y-114765000D01*
X109110000Y-114765000D01*
G37*
G36*
X117365000Y-114765000D02*
X113565000Y-114765000D01*
X113565000Y-112765000D01*
X117365000Y-112765000D01*
X117365000Y-114765000D01*
X117365000Y-114765000D01*
G37*
G36*
X151780639Y-112135916D02*
X151987986Y-112198815D01*
X151987988Y-112198816D01*
X152179084Y-112300958D01*
X152346581Y-112438419D01*
X152484042Y-112605916D01*
X152586184Y-112797012D01*
X152649084Y-113004362D01*
X152670322Y-113220000D01*
X152649084Y-113435638D01*
X152586184Y-113642988D01*
X152484042Y-113834084D01*
X152346581Y-114001581D01*
X152179084Y-114139042D01*
X151987988Y-114241184D01*
X151987986Y-114241185D01*
X151780639Y-114304084D01*
X151619038Y-114320000D01*
X149710962Y-114320000D01*
X149549361Y-114304084D01*
X149342014Y-114241185D01*
X149342012Y-114241184D01*
X149150916Y-114139042D01*
X148983419Y-114001581D01*
X148845958Y-113834084D01*
X148743816Y-113642988D01*
X148680916Y-113435638D01*
X148659678Y-113220000D01*
X148680916Y-113004362D01*
X148743816Y-112797012D01*
X148845958Y-112605916D01*
X148983419Y-112438419D01*
X149150916Y-112300958D01*
X149342012Y-112198816D01*
X149342014Y-112198815D01*
X149549361Y-112135916D01*
X149710962Y-112120000D01*
X151619038Y-112120000D01*
X151780639Y-112135916D01*
X151780639Y-112135916D01*
G37*
G36*
X157680639Y-108735916D02*
X157887986Y-108798815D01*
X157887988Y-108798816D01*
X158079084Y-108900958D01*
X158246581Y-109038419D01*
X158384042Y-109205916D01*
X158452238Y-109333503D01*
X158486185Y-109397014D01*
X158549084Y-109604361D01*
X158565000Y-109765962D01*
X158565000Y-111674038D01*
X158549084Y-111835639D01*
X158499208Y-112000057D01*
X158486184Y-112042988D01*
X158384042Y-112234084D01*
X158246581Y-112401581D01*
X158079084Y-112539042D01*
X157887987Y-112641184D01*
X157887985Y-112641185D01*
X157680638Y-112704084D01*
X157465000Y-112725322D01*
X157249361Y-112704084D01*
X157042014Y-112641185D01*
X157042012Y-112641184D01*
X156850916Y-112539042D01*
X156683419Y-112401581D01*
X156545958Y-112234084D01*
X156443816Y-112042987D01*
X156430793Y-112000056D01*
X156380916Y-111835638D01*
X156365000Y-111674037D01*
X156365000Y-109765963D01*
X156380917Y-109604361D01*
X156443816Y-109397014D01*
X156477763Y-109333503D01*
X156545959Y-109205916D01*
X156683420Y-109038419D01*
X156850917Y-108900958D01*
X157042013Y-108798816D01*
X157042015Y-108798815D01*
X157249362Y-108735916D01*
X157465000Y-108714678D01*
X157680639Y-108735916D01*
X157680639Y-108735916D01*
G37*
G36*
X86093992Y-108997447D02*
X86093994Y-108997448D01*
X86093995Y-108997448D01*
X86389726Y-109119943D01*
X86554437Y-109230000D01*
X86655880Y-109297782D01*
X86882218Y-109524120D01*
X86882220Y-109524123D01*
X87060057Y-109790274D01*
X87182552Y-110086005D01*
X87245000Y-110399951D01*
X87245000Y-110720049D01*
X87182552Y-111033995D01*
X87060057Y-111329726D01*
X87060056Y-111329727D01*
X86882218Y-111595880D01*
X86655880Y-111822218D01*
X86655877Y-111822220D01*
X86389726Y-112000057D01*
X86093995Y-112122552D01*
X86093994Y-112122552D01*
X86093992Y-112122553D01*
X85780050Y-112185000D01*
X85459950Y-112185000D01*
X85146008Y-112122553D01*
X85146006Y-112122552D01*
X85146005Y-112122552D01*
X84850274Y-112000057D01*
X84584123Y-111822220D01*
X84584120Y-111822218D01*
X84357782Y-111595880D01*
X84179944Y-111329727D01*
X84179943Y-111329726D01*
X84057448Y-111033995D01*
X83995000Y-110720049D01*
X83995000Y-110399951D01*
X84057448Y-110086005D01*
X84179943Y-109790274D01*
X84357780Y-109524123D01*
X84357782Y-109524120D01*
X84584120Y-109297782D01*
X84685563Y-109230000D01*
X84850274Y-109119943D01*
X85146005Y-108997448D01*
X85146006Y-108997448D01*
X85146008Y-108997447D01*
X85459950Y-108935000D01*
X85780050Y-108935000D01*
X86093992Y-108997447D01*
X86093992Y-108997447D01*
G37*
G36*
X92191683Y-107929206D02*
X92329992Y-107986495D01*
X92329995Y-107986497D01*
X92429741Y-108053145D01*
X92454476Y-108069673D01*
X92560327Y-108175524D01*
X92643505Y-108300008D01*
X92700794Y-108438317D01*
X92730000Y-108585145D01*
X92730000Y-108734855D01*
X92700794Y-108881683D01*
X92643505Y-109019992D01*
X92560327Y-109144476D01*
X92454476Y-109250327D01*
X92329992Y-109333505D01*
X92191683Y-109390794D01*
X92044855Y-109420000D01*
X91895145Y-109420000D01*
X91748317Y-109390794D01*
X91610008Y-109333505D01*
X91485524Y-109250327D01*
X91379673Y-109144476D01*
X91296495Y-109019992D01*
X91239206Y-108881683D01*
X91210000Y-108734855D01*
X91210000Y-108585145D01*
X91239206Y-108438317D01*
X91296495Y-108300008D01*
X91379673Y-108175524D01*
X91485524Y-108069673D01*
X91510260Y-108053145D01*
X91610005Y-107986497D01*
X91610008Y-107986495D01*
X91748317Y-107929206D01*
X91895145Y-107900000D01*
X92044855Y-107900000D01*
X92191683Y-107929206D01*
X92191683Y-107929206D01*
G37*
G36*
X101766630Y-107542299D02*
X101926855Y-107590903D01*
X102074520Y-107669831D01*
X102203949Y-107776051D01*
X102310169Y-107905480D01*
X102389097Y-108053145D01*
X102437701Y-108213370D01*
X102454112Y-108380000D01*
X102437701Y-108546630D01*
X102389097Y-108706855D01*
X102310169Y-108854520D01*
X102203949Y-108983949D01*
X102074520Y-109090169D01*
X101926855Y-109169097D01*
X101766630Y-109217701D01*
X101641752Y-109230000D01*
X101558248Y-109230000D01*
X101433370Y-109217701D01*
X101273145Y-109169097D01*
X101125480Y-109090169D01*
X100996051Y-108983949D01*
X100889831Y-108854520D01*
X100810903Y-108706855D01*
X100762299Y-108546630D01*
X100745888Y-108380000D01*
X100762299Y-108213370D01*
X100810903Y-108053145D01*
X100889831Y-107905480D01*
X100996051Y-107776051D01*
X101125480Y-107669831D01*
X101273145Y-107590903D01*
X101433370Y-107542299D01*
X101558248Y-107530000D01*
X101641752Y-107530000D01*
X101766630Y-107542299D01*
X101766630Y-107542299D01*
G37*
G36*
X124394630Y-107314299D02*
X124554855Y-107362903D01*
X124702520Y-107441831D01*
X124831949Y-107548051D01*
X124938169Y-107677480D01*
X125017097Y-107825145D01*
X125065701Y-107985370D01*
X125082112Y-108152000D01*
X125065701Y-108318630D01*
X125017097Y-108478855D01*
X124938169Y-108626520D01*
X124831949Y-108755949D01*
X124702520Y-108862169D01*
X124554855Y-108941097D01*
X124394630Y-108989701D01*
X124269752Y-109002000D01*
X124186248Y-109002000D01*
X124061370Y-108989701D01*
X123901145Y-108941097D01*
X123753480Y-108862169D01*
X123624051Y-108755949D01*
X123517831Y-108626520D01*
X123438903Y-108478855D01*
X123390299Y-108318630D01*
X123373888Y-108152000D01*
X123390299Y-107985370D01*
X123438903Y-107825145D01*
X123517831Y-107677480D01*
X123624051Y-107548051D01*
X123753480Y-107441831D01*
X123901145Y-107362903D01*
X124061370Y-107314299D01*
X124186248Y-107302000D01*
X124269752Y-107302000D01*
X124394630Y-107314299D01*
X124394630Y-107314299D01*
G37*
G36*
X126934630Y-107314299D02*
X127094855Y-107362903D01*
X127242520Y-107441831D01*
X127371949Y-107548051D01*
X127478169Y-107677480D01*
X127557097Y-107825145D01*
X127605701Y-107985370D01*
X127622112Y-108152000D01*
X127605701Y-108318630D01*
X127557097Y-108478855D01*
X127478169Y-108626520D01*
X127371949Y-108755949D01*
X127242520Y-108862169D01*
X127094855Y-108941097D01*
X126934630Y-108989701D01*
X126809752Y-109002000D01*
X126726248Y-109002000D01*
X126601370Y-108989701D01*
X126441145Y-108941097D01*
X126293480Y-108862169D01*
X126164051Y-108755949D01*
X126057831Y-108626520D01*
X125978903Y-108478855D01*
X125930299Y-108318630D01*
X125913888Y-108152000D01*
X125930299Y-107985370D01*
X125978903Y-107825145D01*
X126057831Y-107677480D01*
X126164051Y-107548051D01*
X126293480Y-107441831D01*
X126441145Y-107362903D01*
X126601370Y-107314299D01*
X126726248Y-107302000D01*
X126809752Y-107302000D01*
X126934630Y-107314299D01*
X126934630Y-107314299D01*
G37*
G36*
X129474630Y-107314299D02*
X129634855Y-107362903D01*
X129782520Y-107441831D01*
X129911949Y-107548051D01*
X130018169Y-107677480D01*
X130097097Y-107825145D01*
X130145701Y-107985370D01*
X130162112Y-108152000D01*
X130145701Y-108318630D01*
X130097097Y-108478855D01*
X130018169Y-108626520D01*
X129911949Y-108755949D01*
X129782520Y-108862169D01*
X129634855Y-108941097D01*
X129474630Y-108989701D01*
X129349752Y-109002000D01*
X129266248Y-109002000D01*
X129141370Y-108989701D01*
X128981145Y-108941097D01*
X128833480Y-108862169D01*
X128704051Y-108755949D01*
X128597831Y-108626520D01*
X128518903Y-108478855D01*
X128470299Y-108318630D01*
X128453888Y-108152000D01*
X128470299Y-107985370D01*
X128518903Y-107825145D01*
X128597831Y-107677480D01*
X128704051Y-107548051D01*
X128833480Y-107441831D01*
X128981145Y-107362903D01*
X129141370Y-107314299D01*
X129266248Y-107302000D01*
X129349752Y-107302000D01*
X129474630Y-107314299D01*
X129474630Y-107314299D01*
G37*
G36*
X121854630Y-107314299D02*
X122014855Y-107362903D01*
X122162520Y-107441831D01*
X122291949Y-107548051D01*
X122398169Y-107677480D01*
X122477097Y-107825145D01*
X122525701Y-107985370D01*
X122542112Y-108152000D01*
X122525701Y-108318630D01*
X122477097Y-108478855D01*
X122398169Y-108626520D01*
X122291949Y-108755949D01*
X122162520Y-108862169D01*
X122014855Y-108941097D01*
X121854630Y-108989701D01*
X121729752Y-109002000D01*
X121646248Y-109002000D01*
X121521370Y-108989701D01*
X121361145Y-108941097D01*
X121213480Y-108862169D01*
X121084051Y-108755949D01*
X120977831Y-108626520D01*
X120898903Y-108478855D01*
X120850299Y-108318630D01*
X120833888Y-108152000D01*
X120850299Y-107985370D01*
X120898903Y-107825145D01*
X120977831Y-107677480D01*
X121084051Y-107548051D01*
X121213480Y-107441831D01*
X121361145Y-107362903D01*
X121521370Y-107314299D01*
X121646248Y-107302000D01*
X121729752Y-107302000D01*
X121854630Y-107314299D01*
X121854630Y-107314299D01*
G37*
G36*
X119314630Y-107314299D02*
X119474855Y-107362903D01*
X119622520Y-107441831D01*
X119751949Y-107548051D01*
X119858169Y-107677480D01*
X119937097Y-107825145D01*
X119985701Y-107985370D01*
X120002112Y-108152000D01*
X119985701Y-108318630D01*
X119937097Y-108478855D01*
X119858169Y-108626520D01*
X119751949Y-108755949D01*
X119622520Y-108862169D01*
X119474855Y-108941097D01*
X119314630Y-108989701D01*
X119189752Y-109002000D01*
X119106248Y-109002000D01*
X118981370Y-108989701D01*
X118821145Y-108941097D01*
X118673480Y-108862169D01*
X118544051Y-108755949D01*
X118437831Y-108626520D01*
X118358903Y-108478855D01*
X118310299Y-108318630D01*
X118293888Y-108152000D01*
X118310299Y-107985370D01*
X118358903Y-107825145D01*
X118437831Y-107677480D01*
X118544051Y-107548051D01*
X118673480Y-107441831D01*
X118821145Y-107362903D01*
X118981370Y-107314299D01*
X119106248Y-107302000D01*
X119189752Y-107302000D01*
X119314630Y-107314299D01*
X119314630Y-107314299D01*
G37*
G36*
X116774630Y-107314299D02*
X116934855Y-107362903D01*
X117082520Y-107441831D01*
X117211949Y-107548051D01*
X117318169Y-107677480D01*
X117397097Y-107825145D01*
X117445701Y-107985370D01*
X117462112Y-108152000D01*
X117445701Y-108318630D01*
X117397097Y-108478855D01*
X117318169Y-108626520D01*
X117211949Y-108755949D01*
X117082520Y-108862169D01*
X116934855Y-108941097D01*
X116774630Y-108989701D01*
X116649752Y-109002000D01*
X116566248Y-109002000D01*
X116441370Y-108989701D01*
X116281145Y-108941097D01*
X116133480Y-108862169D01*
X116004051Y-108755949D01*
X115897831Y-108626520D01*
X115818903Y-108478855D01*
X115770299Y-108318630D01*
X115753888Y-108152000D01*
X115770299Y-107985370D01*
X115818903Y-107825145D01*
X115897831Y-107677480D01*
X116004051Y-107548051D01*
X116133480Y-107441831D01*
X116281145Y-107362903D01*
X116441370Y-107314299D01*
X116566248Y-107302000D01*
X116649752Y-107302000D01*
X116774630Y-107314299D01*
X116774630Y-107314299D01*
G37*
G36*
X114234630Y-107314299D02*
X114394855Y-107362903D01*
X114542520Y-107441831D01*
X114671949Y-107548051D01*
X114778169Y-107677480D01*
X114857097Y-107825145D01*
X114905701Y-107985370D01*
X114922112Y-108152000D01*
X114905701Y-108318630D01*
X114857097Y-108478855D01*
X114778169Y-108626520D01*
X114671949Y-108755949D01*
X114542520Y-108862169D01*
X114394855Y-108941097D01*
X114234630Y-108989701D01*
X114109752Y-109002000D01*
X114026248Y-109002000D01*
X113901370Y-108989701D01*
X113741145Y-108941097D01*
X113593480Y-108862169D01*
X113464051Y-108755949D01*
X113357831Y-108626520D01*
X113278903Y-108478855D01*
X113230299Y-108318630D01*
X113213888Y-108152000D01*
X113230299Y-107985370D01*
X113278903Y-107825145D01*
X113357831Y-107677480D01*
X113464051Y-107548051D01*
X113593480Y-107441831D01*
X113741145Y-107362903D01*
X113901370Y-107314299D01*
X114026248Y-107302000D01*
X114109752Y-107302000D01*
X114234630Y-107314299D01*
X114234630Y-107314299D01*
G37*
G36*
X112378000Y-109002000D02*
X110678000Y-109002000D01*
X110678000Y-107302000D01*
X112378000Y-107302000D01*
X112378000Y-109002000D01*
X112378000Y-109002000D01*
G37*
G36*
X146480639Y-104635916D02*
X146687986Y-104698815D01*
X146687988Y-104698816D01*
X146879084Y-104800958D01*
X147046581Y-104938419D01*
X147184042Y-105105916D01*
X147286184Y-105297012D01*
X147286185Y-105297014D01*
X147349084Y-105504361D01*
X147365000Y-105665962D01*
X147365000Y-107574038D01*
X147349084Y-107735639D01*
X147290365Y-107929207D01*
X147286184Y-107942988D01*
X147184042Y-108134084D01*
X147046581Y-108301581D01*
X146879084Y-108439042D01*
X146687987Y-108541184D01*
X146687985Y-108541185D01*
X146480638Y-108604084D01*
X146265000Y-108625322D01*
X146049361Y-108604084D01*
X145842014Y-108541185D01*
X145842012Y-108541184D01*
X145650916Y-108439042D01*
X145483419Y-108301581D01*
X145345958Y-108134084D01*
X145243816Y-107942987D01*
X145239636Y-107929207D01*
X145180916Y-107735638D01*
X145165000Y-107574037D01*
X145165000Y-105665963D01*
X145180917Y-105504361D01*
X145243816Y-105297014D01*
X145243817Y-105297012D01*
X145345959Y-105105916D01*
X145483420Y-104938419D01*
X145650917Y-104800958D01*
X145842013Y-104698816D01*
X145842015Y-104698815D01*
X146049362Y-104635916D01*
X146265000Y-104614678D01*
X146480639Y-104635916D01*
X146480639Y-104635916D01*
G37*
G36*
X94731683Y-106659206D02*
X94869992Y-106716495D01*
X94994476Y-106799673D01*
X95100327Y-106905524D01*
X95183505Y-107030008D01*
X95240794Y-107168317D01*
X95270000Y-107315145D01*
X95270000Y-107464855D01*
X95240794Y-107611683D01*
X95183505Y-107749992D01*
X95100327Y-107874476D01*
X94994476Y-107980327D01*
X94994473Y-107980329D01*
X94994472Y-107980330D01*
X94985245Y-107986495D01*
X94869992Y-108063505D01*
X94731683Y-108120794D01*
X94584855Y-108150000D01*
X94435145Y-108150000D01*
X94288317Y-108120794D01*
X94150008Y-108063505D01*
X94034755Y-107986495D01*
X94025528Y-107980330D01*
X94025527Y-107980329D01*
X94025524Y-107980327D01*
X93919673Y-107874476D01*
X93836495Y-107749992D01*
X93779206Y-107611683D01*
X93750000Y-107464855D01*
X93750000Y-107315145D01*
X93779206Y-107168317D01*
X93836495Y-107030008D01*
X93919673Y-106905524D01*
X94025524Y-106799673D01*
X94150008Y-106716495D01*
X94288317Y-106659206D01*
X94435145Y-106630000D01*
X94584855Y-106630000D01*
X94731683Y-106659206D01*
X94731683Y-106659206D01*
G37*
G36*
X155565000Y-107220000D02*
X151565000Y-107220000D01*
X151565000Y-105020000D01*
X155565000Y-105020000D01*
X155565000Y-107220000D01*
X155565000Y-107220000D01*
G37*
G36*
X92191683Y-105389206D02*
X92329992Y-105446495D01*
X92329995Y-105446497D01*
X92429741Y-105513145D01*
X92454476Y-105529673D01*
X92560327Y-105635524D01*
X92560329Y-105635527D01*
X92560330Y-105635528D01*
X92585615Y-105673370D01*
X92643505Y-105760008D01*
X92700794Y-105898317D01*
X92730000Y-106045145D01*
X92730000Y-106194855D01*
X92700794Y-106341683D01*
X92643505Y-106479992D01*
X92560327Y-106604476D01*
X92454476Y-106710327D01*
X92329992Y-106793505D01*
X92191683Y-106850794D01*
X92044855Y-106880000D01*
X91895145Y-106880000D01*
X91748317Y-106850794D01*
X91610008Y-106793505D01*
X91485524Y-106710327D01*
X91379673Y-106604476D01*
X91296495Y-106479992D01*
X91239206Y-106341683D01*
X91210000Y-106194855D01*
X91210000Y-106045145D01*
X91239206Y-105898317D01*
X91296495Y-105760008D01*
X91354385Y-105673370D01*
X91379670Y-105635528D01*
X91379671Y-105635527D01*
X91379673Y-105635524D01*
X91485524Y-105529673D01*
X91510260Y-105513145D01*
X91610005Y-105446497D01*
X91610008Y-105446495D01*
X91748317Y-105389206D01*
X91895145Y-105360000D01*
X92044855Y-105360000D01*
X92191683Y-105389206D01*
X92191683Y-105389206D01*
G37*
G36*
X101766630Y-105002299D02*
X101926855Y-105050903D01*
X102074520Y-105129831D01*
X102203949Y-105236051D01*
X102310169Y-105365480D01*
X102389097Y-105513145D01*
X102437701Y-105673370D01*
X102454112Y-105840000D01*
X102437701Y-106006630D01*
X102389097Y-106166855D01*
X102310169Y-106314520D01*
X102203949Y-106443949D01*
X102074520Y-106550169D01*
X101926855Y-106629097D01*
X101766630Y-106677701D01*
X101641752Y-106690000D01*
X101558248Y-106690000D01*
X101433370Y-106677701D01*
X101273145Y-106629097D01*
X101125480Y-106550169D01*
X100996051Y-106443949D01*
X100889831Y-106314520D01*
X100810903Y-106166855D01*
X100762299Y-106006630D01*
X100745888Y-105840000D01*
X100762299Y-105673370D01*
X100810903Y-105513145D01*
X100889831Y-105365480D01*
X100996051Y-105236051D01*
X101125480Y-105129831D01*
X101273145Y-105050903D01*
X101433370Y-105002299D01*
X101558248Y-104990000D01*
X101641752Y-104990000D01*
X101766630Y-105002299D01*
X101766630Y-105002299D01*
G37*
G36*
X94731683Y-104119206D02*
X94869992Y-104176495D01*
X94994476Y-104259673D01*
X95100327Y-104365524D01*
X95183505Y-104490008D01*
X95240794Y-104628317D01*
X95270000Y-104775145D01*
X95270000Y-104924855D01*
X95240794Y-105071683D01*
X95183505Y-105209992D01*
X95183503Y-105209995D01*
X95125359Y-105297014D01*
X95100327Y-105334476D01*
X94994476Y-105440327D01*
X94869992Y-105523505D01*
X94731683Y-105580794D01*
X94584855Y-105610000D01*
X94435145Y-105610000D01*
X94288317Y-105580794D01*
X94150008Y-105523505D01*
X94025524Y-105440327D01*
X93919673Y-105334476D01*
X93894642Y-105297014D01*
X93836497Y-105209995D01*
X93836495Y-105209992D01*
X93779206Y-105071683D01*
X93750000Y-104924855D01*
X93750000Y-104775145D01*
X93779206Y-104628317D01*
X93836495Y-104490008D01*
X93919673Y-104365524D01*
X94025524Y-104259673D01*
X94150008Y-104176495D01*
X94288317Y-104119206D01*
X94435145Y-104090000D01*
X94584855Y-104090000D01*
X94731683Y-104119206D01*
X94731683Y-104119206D01*
G37*
G36*
X92191683Y-102849206D02*
X92329992Y-102906495D01*
X92454476Y-102989673D01*
X92560327Y-103095524D01*
X92643505Y-103220008D01*
X92700794Y-103358317D01*
X92730000Y-103505145D01*
X92730000Y-103654855D01*
X92700794Y-103801683D01*
X92643505Y-103939992D01*
X92560327Y-104064476D01*
X92454476Y-104170327D01*
X92329992Y-104253505D01*
X92191683Y-104310794D01*
X92044855Y-104340000D01*
X91895145Y-104340000D01*
X91748317Y-104310794D01*
X91610008Y-104253505D01*
X91485524Y-104170327D01*
X91379673Y-104064476D01*
X91296495Y-103939992D01*
X91239206Y-103801683D01*
X91210000Y-103654855D01*
X91210000Y-103505145D01*
X91239206Y-103358317D01*
X91296495Y-103220008D01*
X91379673Y-103095524D01*
X91485524Y-102989673D01*
X91610008Y-102906495D01*
X91748317Y-102849206D01*
X91895145Y-102820000D01*
X92044855Y-102820000D01*
X92191683Y-102849206D01*
X92191683Y-102849206D01*
G37*
G36*
X102450000Y-104150000D02*
X100750000Y-104150000D01*
X100750000Y-102450000D01*
X102450000Y-102450000D01*
X102450000Y-104150000D01*
X102450000Y-104150000D01*
G37*
G36*
X95270000Y-103070000D02*
X93750000Y-103070000D01*
X93750000Y-101550000D01*
X95270000Y-101550000D01*
X95270000Y-103070000D01*
X95270000Y-103070000D01*
G37*
G36*
X86093992Y-98837447D02*
X86093994Y-98837448D01*
X86093995Y-98837448D01*
X86389726Y-98959943D01*
X86389727Y-98959944D01*
X86655880Y-99137782D01*
X86882218Y-99364120D01*
X86882220Y-99364123D01*
X87060057Y-99630274D01*
X87142521Y-99829361D01*
X87182553Y-99926008D01*
X87245000Y-100239950D01*
X87245000Y-100560050D01*
X87191984Y-100826581D01*
X87182552Y-100873995D01*
X87060057Y-101169726D01*
X87060056Y-101169727D01*
X86882218Y-101435880D01*
X86655880Y-101662218D01*
X86655877Y-101662220D01*
X86389726Y-101840057D01*
X86093995Y-101962552D01*
X86093994Y-101962552D01*
X86093992Y-101962553D01*
X85780050Y-102025000D01*
X85459950Y-102025000D01*
X85146008Y-101962553D01*
X85146006Y-101962552D01*
X85146005Y-101962552D01*
X84850274Y-101840057D01*
X84584123Y-101662220D01*
X84584120Y-101662218D01*
X84357782Y-101435880D01*
X84179944Y-101169727D01*
X84179943Y-101169726D01*
X84057448Y-100873995D01*
X84048017Y-100826581D01*
X83995000Y-100560050D01*
X83995000Y-100239950D01*
X84057447Y-99926008D01*
X84097479Y-99829361D01*
X84179943Y-99630274D01*
X84357780Y-99364123D01*
X84357782Y-99364120D01*
X84584120Y-99137782D01*
X84850273Y-98959944D01*
X84850274Y-98959943D01*
X85146005Y-98837448D01*
X85146006Y-98837448D01*
X85146008Y-98837447D01*
X85459950Y-98775000D01*
X85780050Y-98775000D01*
X86093992Y-98837447D01*
X86093992Y-98837447D01*
G37*
G36*
X150580639Y-98960916D02*
X150787986Y-99023815D01*
X150787988Y-99023816D01*
X150979084Y-99125958D01*
X151146581Y-99263419D01*
X151284042Y-99430916D01*
X151386184Y-99622012D01*
X151386185Y-99622014D01*
X151449084Y-99829361D01*
X151470322Y-100045000D01*
X151451122Y-100239951D01*
X151449084Y-100260638D01*
X151386184Y-100467988D01*
X151284042Y-100659084D01*
X151146581Y-100826581D01*
X150979084Y-100964042D01*
X150787988Y-101066184D01*
X150787986Y-101066185D01*
X150580639Y-101129084D01*
X150419038Y-101145000D01*
X148510962Y-101145000D01*
X148349361Y-101129084D01*
X148142014Y-101066185D01*
X148142012Y-101066184D01*
X147950916Y-100964042D01*
X147783419Y-100826581D01*
X147645958Y-100659084D01*
X147543816Y-100467988D01*
X147480916Y-100260638D01*
X147478879Y-100239951D01*
X147459678Y-100045000D01*
X147480916Y-99829361D01*
X147543815Y-99622014D01*
X147543816Y-99622012D01*
X147645958Y-99430916D01*
X147783419Y-99263419D01*
X147950916Y-99125958D01*
X148142012Y-99023816D01*
X148142014Y-99023815D01*
X148349361Y-98960916D01*
X148510962Y-98945000D01*
X150419038Y-98945000D01*
X150580639Y-98960916D01*
X150580639Y-98960916D01*
G37*
G36*
X151780639Y-96260916D02*
X151987986Y-96323815D01*
X151987988Y-96323816D01*
X152179084Y-96425958D01*
X152346581Y-96563419D01*
X152484042Y-96730916D01*
X152536513Y-96829084D01*
X152586185Y-96922014D01*
X152649084Y-97129361D01*
X152670322Y-97345000D01*
X152649084Y-97560639D01*
X152616486Y-97668100D01*
X152586184Y-97767988D01*
X152484042Y-97959084D01*
X152346581Y-98126581D01*
X152179084Y-98264042D01*
X151987988Y-98366184D01*
X151987986Y-98366185D01*
X151780639Y-98429084D01*
X151619038Y-98445000D01*
X149710962Y-98445000D01*
X149549361Y-98429084D01*
X149342014Y-98366185D01*
X149342012Y-98366184D01*
X149150916Y-98264042D01*
X148983419Y-98126581D01*
X148845958Y-97959084D01*
X148743816Y-97767988D01*
X148713515Y-97668100D01*
X148680916Y-97560639D01*
X148659678Y-97345000D01*
X148680916Y-97129361D01*
X148743815Y-96922014D01*
X148793487Y-96829084D01*
X148845958Y-96730916D01*
X148983419Y-96563419D01*
X149150916Y-96425958D01*
X149342012Y-96323816D01*
X149342014Y-96323815D01*
X149549361Y-96260916D01*
X149710962Y-96245000D01*
X151619038Y-96245000D01*
X151780639Y-96260916D01*
X151780639Y-96260916D01*
G37*
G36*
X138529183Y-96321900D02*
X138656574Y-96374668D01*
X138733336Y-96425958D01*
X138771225Y-96451275D01*
X138868725Y-96548775D01*
X138945332Y-96663426D01*
X138998100Y-96790817D01*
X139025000Y-96926055D01*
X139025000Y-97063945D01*
X138998100Y-97199183D01*
X138945332Y-97326574D01*
X138868726Y-97441224D01*
X138771224Y-97538726D01*
X138656574Y-97615332D01*
X138529183Y-97668100D01*
X138393945Y-97695000D01*
X138256055Y-97695000D01*
X138120817Y-97668100D01*
X137993426Y-97615332D01*
X137878776Y-97538726D01*
X137781274Y-97441224D01*
X137704668Y-97326574D01*
X137651900Y-97199183D01*
X137625000Y-97063945D01*
X137625000Y-96926055D01*
X137651900Y-96790817D01*
X137704668Y-96663426D01*
X137781275Y-96548775D01*
X137878775Y-96451275D01*
X137916665Y-96425958D01*
X137993426Y-96374668D01*
X138120817Y-96321900D01*
X138256055Y-96295000D01*
X138393945Y-96295000D01*
X138529183Y-96321900D01*
X138529183Y-96321900D01*
G37*
G36*
X157680639Y-92860916D02*
X157887986Y-92923815D01*
X157887988Y-92923816D01*
X158079084Y-93025958D01*
X158246581Y-93163419D01*
X158384042Y-93330916D01*
X158486184Y-93522012D01*
X158486185Y-93522014D01*
X158549084Y-93729361D01*
X158559456Y-93834668D01*
X158565000Y-93890964D01*
X158565000Y-95799036D01*
X158549084Y-95960638D01*
X158486184Y-96167988D01*
X158384042Y-96359084D01*
X158246581Y-96526581D01*
X158079084Y-96664042D01*
X157887987Y-96766184D01*
X157887985Y-96766185D01*
X157680638Y-96829084D01*
X157465000Y-96850322D01*
X157249361Y-96829084D01*
X157042014Y-96766185D01*
X157042012Y-96766184D01*
X156850916Y-96664042D01*
X156683419Y-96526581D01*
X156545958Y-96359084D01*
X156443816Y-96167987D01*
X156380917Y-95960639D01*
X156380916Y-95960638D01*
X156365000Y-95799037D01*
X156365000Y-93890963D01*
X156380917Y-93729361D01*
X156443816Y-93522014D01*
X156443817Y-93522012D01*
X156545959Y-93330916D01*
X156683420Y-93163419D01*
X156850917Y-93025958D01*
X157042013Y-92923816D01*
X157042015Y-92923815D01*
X157249362Y-92860916D01*
X157465000Y-92839678D01*
X157680639Y-92860916D01*
X157680639Y-92860916D01*
G37*
G36*
X86093992Y-92487447D02*
X86093994Y-92487448D01*
X86093995Y-92487448D01*
X86389726Y-92609943D01*
X86584859Y-92740327D01*
X86655880Y-92787782D01*
X86882218Y-93014120D01*
X86882220Y-93014123D01*
X87060057Y-93280274D01*
X87160188Y-93522014D01*
X87182553Y-93576008D01*
X87245000Y-93889950D01*
X87245000Y-94210050D01*
X87182563Y-94523944D01*
X87182552Y-94523995D01*
X87060057Y-94819726D01*
X87005601Y-94901225D01*
X86882218Y-95085880D01*
X86655880Y-95312218D01*
X86655877Y-95312220D01*
X86389726Y-95490057D01*
X86093995Y-95612552D01*
X86093994Y-95612552D01*
X86093992Y-95612553D01*
X85780050Y-95675000D01*
X85459950Y-95675000D01*
X85146008Y-95612553D01*
X85146006Y-95612552D01*
X85146005Y-95612552D01*
X84850274Y-95490057D01*
X84584123Y-95312220D01*
X84584120Y-95312218D01*
X84357782Y-95085880D01*
X84234399Y-94901225D01*
X84179943Y-94819726D01*
X84057448Y-94523995D01*
X84057438Y-94523944D01*
X83995000Y-94210050D01*
X83995000Y-93889950D01*
X84057447Y-93576008D01*
X84079812Y-93522014D01*
X84179943Y-93280274D01*
X84357780Y-93014123D01*
X84357782Y-93014120D01*
X84584120Y-92787782D01*
X84655141Y-92740327D01*
X84850274Y-92609943D01*
X85146005Y-92487448D01*
X85146006Y-92487448D01*
X85146008Y-92487447D01*
X85459950Y-92425000D01*
X85780050Y-92425000D01*
X86093992Y-92487447D01*
X86093992Y-92487447D01*
G37*
G36*
X118971183Y-94035900D02*
X119098574Y-94088668D01*
X119213225Y-94165275D01*
X119310725Y-94262775D01*
X119387332Y-94377426D01*
X119440100Y-94504817D01*
X119467000Y-94640055D01*
X119467000Y-94777945D01*
X119440100Y-94913183D01*
X119404666Y-94998726D01*
X119387332Y-95040574D01*
X119310876Y-95155000D01*
X119310725Y-95155225D01*
X119213225Y-95252725D01*
X119098574Y-95329332D01*
X118971183Y-95382100D01*
X118835945Y-95409000D01*
X118698055Y-95409000D01*
X118562817Y-95382100D01*
X118435426Y-95329332D01*
X118320775Y-95252725D01*
X118223275Y-95155225D01*
X118223125Y-95155000D01*
X118146668Y-95040574D01*
X118129334Y-94998726D01*
X118093900Y-94913183D01*
X118067000Y-94777945D01*
X118067000Y-94640055D01*
X118093900Y-94504817D01*
X118146668Y-94377426D01*
X118223275Y-94262775D01*
X118320775Y-94165275D01*
X118435426Y-94088668D01*
X118562817Y-94035900D01*
X118698055Y-94009000D01*
X118835945Y-94009000D01*
X118971183Y-94035900D01*
X118971183Y-94035900D01*
G37*
G36*
X113510183Y-94035900D02*
X113637574Y-94088668D01*
X113752225Y-94165275D01*
X113849725Y-94262775D01*
X113926332Y-94377426D01*
X113979100Y-94504817D01*
X114006000Y-94640055D01*
X114006000Y-94777945D01*
X113979100Y-94913183D01*
X113943666Y-94998726D01*
X113926332Y-95040574D01*
X113849876Y-95155000D01*
X113849725Y-95155225D01*
X113752225Y-95252725D01*
X113637574Y-95329332D01*
X113510183Y-95382100D01*
X113374945Y-95409000D01*
X113237055Y-95409000D01*
X113101817Y-95382100D01*
X112974426Y-95329332D01*
X112859775Y-95252725D01*
X112762275Y-95155225D01*
X112762125Y-95155000D01*
X112685668Y-95040574D01*
X112668334Y-94998726D01*
X112632900Y-94913183D01*
X112606000Y-94777945D01*
X112606000Y-94640055D01*
X112632900Y-94504817D01*
X112685668Y-94377426D01*
X112762275Y-94262775D01*
X112859775Y-94165275D01*
X112974426Y-94088668D01*
X113101817Y-94035900D01*
X113237055Y-94009000D01*
X113374945Y-94009000D01*
X113510183Y-94035900D01*
X113510183Y-94035900D01*
G37*
G36*
X110970183Y-94035900D02*
X111097574Y-94088668D01*
X111212225Y-94165275D01*
X111309725Y-94262775D01*
X111386332Y-94377426D01*
X111439100Y-94504817D01*
X111466000Y-94640055D01*
X111466000Y-94777945D01*
X111439100Y-94913183D01*
X111403666Y-94998726D01*
X111386332Y-95040574D01*
X111309876Y-95155000D01*
X111309725Y-95155225D01*
X111212225Y-95252725D01*
X111097574Y-95329332D01*
X110970183Y-95382100D01*
X110834945Y-95409000D01*
X110697055Y-95409000D01*
X110561817Y-95382100D01*
X110434426Y-95329332D01*
X110319775Y-95252725D01*
X110222275Y-95155225D01*
X110222125Y-95155000D01*
X110145668Y-95040574D01*
X110128334Y-94998726D01*
X110092900Y-94913183D01*
X110066000Y-94777945D01*
X110066000Y-94640055D01*
X110092900Y-94504817D01*
X110145668Y-94377426D01*
X110222275Y-94262775D01*
X110319775Y-94165275D01*
X110434426Y-94088668D01*
X110561817Y-94035900D01*
X110697055Y-94009000D01*
X110834945Y-94009000D01*
X110970183Y-94035900D01*
X110970183Y-94035900D01*
G37*
G36*
X107922183Y-94035900D02*
X108049574Y-94088668D01*
X108164225Y-94165275D01*
X108261725Y-94262775D01*
X108338332Y-94377426D01*
X108391100Y-94504817D01*
X108418000Y-94640055D01*
X108418000Y-94777945D01*
X108391100Y-94913183D01*
X108355666Y-94998726D01*
X108338332Y-95040574D01*
X108261876Y-95155000D01*
X108261725Y-95155225D01*
X108164225Y-95252725D01*
X108049574Y-95329332D01*
X107922183Y-95382100D01*
X107786945Y-95409000D01*
X107649055Y-95409000D01*
X107513817Y-95382100D01*
X107386426Y-95329332D01*
X107271775Y-95252725D01*
X107174275Y-95155225D01*
X107174125Y-95155000D01*
X107097668Y-95040574D01*
X107080334Y-94998726D01*
X107044900Y-94913183D01*
X107018000Y-94777945D01*
X107018000Y-94640055D01*
X107044900Y-94504817D01*
X107097668Y-94377426D01*
X107174275Y-94262775D01*
X107271775Y-94165275D01*
X107386426Y-94088668D01*
X107513817Y-94035900D01*
X107649055Y-94009000D01*
X107786945Y-94009000D01*
X107922183Y-94035900D01*
X107922183Y-94035900D01*
G37*
G36*
X105382183Y-94035900D02*
X105509574Y-94088668D01*
X105624225Y-94165275D01*
X105721725Y-94262775D01*
X105798332Y-94377426D01*
X105851100Y-94504817D01*
X105878000Y-94640055D01*
X105878000Y-94777945D01*
X105851100Y-94913183D01*
X105815666Y-94998726D01*
X105798332Y-95040574D01*
X105721876Y-95155000D01*
X105721725Y-95155225D01*
X105624225Y-95252725D01*
X105509574Y-95329332D01*
X105382183Y-95382100D01*
X105246945Y-95409000D01*
X105109055Y-95409000D01*
X104973817Y-95382100D01*
X104846426Y-95329332D01*
X104731775Y-95252725D01*
X104634275Y-95155225D01*
X104634125Y-95155000D01*
X104557668Y-95040574D01*
X104540334Y-94998726D01*
X104504900Y-94913183D01*
X104478000Y-94777945D01*
X104478000Y-94640055D01*
X104504900Y-94504817D01*
X104557668Y-94377426D01*
X104634275Y-94262775D01*
X104731775Y-94165275D01*
X104846426Y-94088668D01*
X104973817Y-94035900D01*
X105109055Y-94009000D01*
X105246945Y-94009000D01*
X105382183Y-94035900D01*
X105382183Y-94035900D01*
G37*
G36*
X116431183Y-94035900D02*
X116558574Y-94088668D01*
X116673225Y-94165275D01*
X116770725Y-94262775D01*
X116847332Y-94377426D01*
X116900100Y-94504817D01*
X116927000Y-94640055D01*
X116927000Y-94777945D01*
X116900100Y-94913183D01*
X116864666Y-94998726D01*
X116847332Y-95040574D01*
X116770876Y-95155000D01*
X116770725Y-95155225D01*
X116673225Y-95252725D01*
X116558574Y-95329332D01*
X116431183Y-95382100D01*
X116295945Y-95409000D01*
X116158055Y-95409000D01*
X116022817Y-95382100D01*
X115895426Y-95329332D01*
X115780775Y-95252725D01*
X115683275Y-95155225D01*
X115683125Y-95155000D01*
X115606668Y-95040574D01*
X115589334Y-94998726D01*
X115553900Y-94913183D01*
X115527000Y-94777945D01*
X115527000Y-94640055D01*
X115553900Y-94504817D01*
X115606668Y-94377426D01*
X115683275Y-94262775D01*
X115780775Y-94165275D01*
X115895426Y-94088668D01*
X116022817Y-94035900D01*
X116158055Y-94009000D01*
X116295945Y-94009000D01*
X116431183Y-94035900D01*
X116431183Y-94035900D01*
G37*
G36*
X138529183Y-93781900D02*
X138656574Y-93834668D01*
X138771224Y-93911274D01*
X138868726Y-94008776D01*
X138886850Y-94035901D01*
X138945332Y-94123426D01*
X138998100Y-94250817D01*
X139025000Y-94386055D01*
X139025000Y-94523945D01*
X138998100Y-94659183D01*
X138945332Y-94786574D01*
X138868725Y-94901225D01*
X138771225Y-94998725D01*
X138656574Y-95075332D01*
X138529183Y-95128100D01*
X138393945Y-95155000D01*
X138256055Y-95155000D01*
X138120817Y-95128100D01*
X137993426Y-95075332D01*
X137878775Y-94998725D01*
X137781275Y-94901225D01*
X137704668Y-94786574D01*
X137651900Y-94659183D01*
X137625000Y-94523945D01*
X137625000Y-94386055D01*
X137651900Y-94250817D01*
X137704668Y-94123426D01*
X137763150Y-94035901D01*
X137781274Y-94008776D01*
X137878776Y-93911274D01*
X137993426Y-93834668D01*
X138120817Y-93781900D01*
X138256055Y-93755000D01*
X138393945Y-93755000D01*
X138529183Y-93781900D01*
X138529183Y-93781900D01*
G37*
G36*
X92191683Y-91419206D02*
X92329992Y-91476495D01*
X92454476Y-91559673D01*
X92560327Y-91665524D01*
X92560329Y-91665527D01*
X92560330Y-91665528D01*
X92643503Y-91790005D01*
X92643505Y-91790008D01*
X92700794Y-91928317D01*
X92730000Y-92075145D01*
X92730000Y-92224855D01*
X92700794Y-92371683D01*
X92643505Y-92509992D01*
X92560327Y-92634476D01*
X92454476Y-92740327D01*
X92329992Y-92823505D01*
X92191683Y-92880794D01*
X92044855Y-92910000D01*
X91895145Y-92910000D01*
X91748317Y-92880794D01*
X91610008Y-92823505D01*
X91485524Y-92740327D01*
X91379673Y-92634476D01*
X91296495Y-92509992D01*
X91239206Y-92371683D01*
X91210000Y-92224855D01*
X91210000Y-92075145D01*
X91239206Y-91928317D01*
X91296495Y-91790008D01*
X91296497Y-91790005D01*
X91379670Y-91665528D01*
X91379671Y-91665527D01*
X91379673Y-91665524D01*
X91485524Y-91559673D01*
X91610008Y-91476495D01*
X91748317Y-91419206D01*
X91895145Y-91390000D01*
X92044855Y-91390000D01*
X92191683Y-91419206D01*
X92191683Y-91419206D01*
G37*
G36*
X146480639Y-88760916D02*
X146687986Y-88823815D01*
X146687988Y-88823816D01*
X146879084Y-88925958D01*
X147046581Y-89063419D01*
X147184042Y-89230916D01*
X147268173Y-89388316D01*
X147286185Y-89422014D01*
X147349084Y-89629361D01*
X147365000Y-89790962D01*
X147365000Y-91699038D01*
X147349084Y-91860639D01*
X147328554Y-91928317D01*
X147286184Y-92067988D01*
X147184042Y-92259084D01*
X147046581Y-92426581D01*
X146879084Y-92564042D01*
X146687987Y-92666184D01*
X146687985Y-92666185D01*
X146480638Y-92729084D01*
X146265000Y-92750322D01*
X146049361Y-92729084D01*
X145842014Y-92666185D01*
X145842012Y-92666184D01*
X145650916Y-92564042D01*
X145483419Y-92426581D01*
X145345958Y-92259084D01*
X145243816Y-92067987D01*
X145201447Y-91928316D01*
X145180916Y-91860638D01*
X145165000Y-91699037D01*
X145165000Y-89790963D01*
X145180917Y-89629361D01*
X145243816Y-89422014D01*
X145261828Y-89388316D01*
X145345959Y-89230916D01*
X145483420Y-89063419D01*
X145650917Y-88925958D01*
X145842013Y-88823816D01*
X145842015Y-88823815D01*
X146049362Y-88760916D01*
X146265000Y-88739678D01*
X146480639Y-88760916D01*
X146480639Y-88760916D01*
G37*
G36*
X94731683Y-90149206D02*
X94869992Y-90206495D01*
X94994476Y-90289673D01*
X95100327Y-90395524D01*
X95183505Y-90520008D01*
X95240794Y-90658317D01*
X95270000Y-90805145D01*
X95270000Y-90954855D01*
X95240794Y-91101683D01*
X95183505Y-91239992D01*
X95100327Y-91364476D01*
X94994476Y-91470327D01*
X94869992Y-91553505D01*
X94731683Y-91610794D01*
X94584855Y-91640000D01*
X94435145Y-91640000D01*
X94288317Y-91610794D01*
X94150008Y-91553505D01*
X94025524Y-91470327D01*
X93919673Y-91364476D01*
X93836495Y-91239992D01*
X93779206Y-91101683D01*
X93750000Y-90954855D01*
X93750000Y-90805145D01*
X93779206Y-90658317D01*
X93836495Y-90520008D01*
X93919673Y-90395524D01*
X94025524Y-90289673D01*
X94150008Y-90206495D01*
X94288317Y-90149206D01*
X94435145Y-90120000D01*
X94584855Y-90120000D01*
X94731683Y-90149206D01*
X94731683Y-90149206D01*
G37*
G36*
X155565000Y-91345000D02*
X151565000Y-91345000D01*
X151565000Y-89145000D01*
X155565000Y-89145000D01*
X155565000Y-91345000D01*
X155565000Y-91345000D01*
G37*
G36*
X92191683Y-88879206D02*
X92329992Y-88936495D01*
X92454476Y-89019673D01*
X92560327Y-89125524D01*
X92643505Y-89250008D01*
X92700794Y-89388317D01*
X92730000Y-89535145D01*
X92730000Y-89684855D01*
X92700794Y-89831683D01*
X92643505Y-89969992D01*
X92560327Y-90094476D01*
X92454476Y-90200327D01*
X92329992Y-90283505D01*
X92191683Y-90340794D01*
X92044855Y-90370000D01*
X91895145Y-90370000D01*
X91748317Y-90340794D01*
X91610008Y-90283505D01*
X91485524Y-90200327D01*
X91379673Y-90094476D01*
X91296495Y-89969992D01*
X91239206Y-89831683D01*
X91210000Y-89684855D01*
X91210000Y-89535145D01*
X91239206Y-89388317D01*
X91296495Y-89250008D01*
X91379673Y-89125524D01*
X91485524Y-89019673D01*
X91610008Y-88936495D01*
X91748317Y-88879206D01*
X91895145Y-88850000D01*
X92044855Y-88850000D01*
X92191683Y-88879206D01*
X92191683Y-88879206D01*
G37*
G36*
X94731683Y-87609206D02*
X94869992Y-87666495D01*
X94994476Y-87749673D01*
X95100327Y-87855524D01*
X95183505Y-87980008D01*
X95240794Y-88118317D01*
X95270000Y-88265145D01*
X95270000Y-88414855D01*
X95240794Y-88561683D01*
X95183505Y-88699992D01*
X95100327Y-88824476D01*
X94994476Y-88930327D01*
X94869992Y-89013505D01*
X94731683Y-89070794D01*
X94584855Y-89100000D01*
X94435145Y-89100000D01*
X94288317Y-89070794D01*
X94150008Y-89013505D01*
X94025524Y-88930327D01*
X93919673Y-88824476D01*
X93836495Y-88699992D01*
X93779206Y-88561683D01*
X93750000Y-88414855D01*
X93750000Y-88265145D01*
X93779206Y-88118317D01*
X93836495Y-87980008D01*
X93919673Y-87855524D01*
X94025524Y-87749673D01*
X94150008Y-87666495D01*
X94288317Y-87609206D01*
X94435145Y-87580000D01*
X94584855Y-87580000D01*
X94731683Y-87609206D01*
X94731683Y-87609206D01*
G37*
G36*
X110171522Y-86901039D02*
X110205053Y-86911211D01*
X110235960Y-86927731D01*
X110263043Y-86949957D01*
X110285269Y-86977040D01*
X110301789Y-87007947D01*
X110311961Y-87041478D01*
X110316000Y-87082487D01*
X110316000Y-88111513D01*
X110311961Y-88152522D01*
X110301789Y-88186053D01*
X110285269Y-88216960D01*
X110263043Y-88244043D01*
X110235960Y-88266269D01*
X110205053Y-88282789D01*
X110171522Y-88292961D01*
X110130513Y-88297000D01*
X109351487Y-88297000D01*
X109310478Y-88292961D01*
X109276947Y-88282789D01*
X109246040Y-88266269D01*
X109218957Y-88244043D01*
X109196731Y-88216960D01*
X109180211Y-88186053D01*
X109170039Y-88152522D01*
X109166000Y-88111513D01*
X109166000Y-87082487D01*
X109170039Y-87041478D01*
X109180211Y-87007947D01*
X109196731Y-86977040D01*
X109218957Y-86949957D01*
X109246040Y-86927731D01*
X109276947Y-86911211D01*
X109310478Y-86901039D01*
X109351487Y-86897000D01*
X110130513Y-86897000D01*
X110171522Y-86901039D01*
X110171522Y-86901039D01*
G37*
G36*
X112221522Y-86901039D02*
X112255053Y-86911211D01*
X112285960Y-86927731D01*
X112313043Y-86949957D01*
X112335269Y-86977040D01*
X112351789Y-87007947D01*
X112361961Y-87041478D01*
X112366000Y-87082487D01*
X112366000Y-88111513D01*
X112361961Y-88152522D01*
X112351789Y-88186053D01*
X112335269Y-88216960D01*
X112313043Y-88244043D01*
X112285960Y-88266269D01*
X112255053Y-88282789D01*
X112221522Y-88292961D01*
X112180513Y-88297000D01*
X111401487Y-88297000D01*
X111360478Y-88292961D01*
X111326947Y-88282789D01*
X111296040Y-88266269D01*
X111268957Y-88244043D01*
X111246731Y-88216960D01*
X111230211Y-88186053D01*
X111220039Y-88152522D01*
X111216000Y-88111513D01*
X111216000Y-87082487D01*
X111220039Y-87041478D01*
X111230211Y-87007947D01*
X111246731Y-86977040D01*
X111268957Y-86949957D01*
X111296040Y-86927731D01*
X111326947Y-86911211D01*
X111360478Y-86901039D01*
X111401487Y-86897000D01*
X112180513Y-86897000D01*
X112221522Y-86901039D01*
X112221522Y-86901039D01*
G37*
G36*
X92191683Y-86339206D02*
X92329992Y-86396495D01*
X92454476Y-86479673D01*
X92560327Y-86585524D01*
X92643505Y-86710008D01*
X92700794Y-86848317D01*
X92730000Y-86995145D01*
X92730000Y-87144855D01*
X92700794Y-87291683D01*
X92643505Y-87429992D01*
X92560327Y-87554476D01*
X92454476Y-87660327D01*
X92329992Y-87743505D01*
X92191683Y-87800794D01*
X92044855Y-87830000D01*
X91895145Y-87830000D01*
X91748317Y-87800794D01*
X91610008Y-87743505D01*
X91485524Y-87660327D01*
X91379673Y-87554476D01*
X91296495Y-87429992D01*
X91239206Y-87291683D01*
X91210000Y-87144855D01*
X91210000Y-86995145D01*
X91239206Y-86848317D01*
X91296495Y-86710008D01*
X91379673Y-86585524D01*
X91485524Y-86479673D01*
X91610008Y-86396495D01*
X91748317Y-86339206D01*
X91895145Y-86310000D01*
X92044855Y-86310000D01*
X92191683Y-86339206D01*
X92191683Y-86339206D01*
G37*
G36*
X133284000Y-87524000D02*
X132284000Y-87524000D01*
X132284000Y-85724000D01*
X133284000Y-85724000D01*
X133284000Y-87524000D01*
X133284000Y-87524000D01*
G37*
G36*
X131284000Y-87524000D02*
X130284000Y-87524000D01*
X130284000Y-85724000D01*
X131284000Y-85724000D01*
X131284000Y-87524000D01*
X131284000Y-87524000D01*
G37*
G36*
X123284000Y-87524000D02*
X122284000Y-87524000D01*
X122284000Y-85724000D01*
X123284000Y-85724000D01*
X123284000Y-87524000D01*
X123284000Y-87524000D01*
G37*
G36*
X129284000Y-87524000D02*
X128284000Y-87524000D01*
X128284000Y-85724000D01*
X129284000Y-85724000D01*
X129284000Y-87524000D01*
X129284000Y-87524000D01*
G37*
G36*
X127284000Y-87524000D02*
X126284000Y-87524000D01*
X126284000Y-85724000D01*
X127284000Y-85724000D01*
X127284000Y-87524000D01*
X127284000Y-87524000D01*
G37*
G36*
X125284000Y-87524000D02*
X124284000Y-87524000D01*
X124284000Y-85724000D01*
X125284000Y-85724000D01*
X125284000Y-87524000D01*
X125284000Y-87524000D01*
G37*
G36*
X95270000Y-86560000D02*
X93750000Y-86560000D01*
X93750000Y-85040000D01*
X95270000Y-85040000D01*
X95270000Y-86560000D01*
X95270000Y-86560000D01*
G37*
G36*
X153605522Y-84869039D02*
X153639053Y-84879211D01*
X153669960Y-84895731D01*
X153697043Y-84917957D01*
X153719269Y-84945040D01*
X153735789Y-84975947D01*
X153745961Y-85009478D01*
X153750000Y-85050487D01*
X153750000Y-86079513D01*
X153745961Y-86120522D01*
X153735789Y-86154053D01*
X153719269Y-86184960D01*
X153697043Y-86212043D01*
X153669960Y-86234269D01*
X153639053Y-86250789D01*
X153605522Y-86260961D01*
X153564513Y-86265000D01*
X152785487Y-86265000D01*
X152744478Y-86260961D01*
X152710947Y-86250789D01*
X152680040Y-86234269D01*
X152652957Y-86212043D01*
X152630731Y-86184960D01*
X152614211Y-86154053D01*
X152604039Y-86120522D01*
X152600000Y-86079513D01*
X152600000Y-85050487D01*
X152604039Y-85009478D01*
X152614211Y-84975947D01*
X152630731Y-84945040D01*
X152652957Y-84917957D01*
X152680040Y-84895731D01*
X152710947Y-84879211D01*
X152744478Y-84869039D01*
X152785487Y-84865000D01*
X153564513Y-84865000D01*
X153605522Y-84869039D01*
X153605522Y-84869039D01*
G37*
G36*
X155655522Y-84869039D02*
X155689053Y-84879211D01*
X155719960Y-84895731D01*
X155747043Y-84917957D01*
X155769269Y-84945040D01*
X155785789Y-84975947D01*
X155795961Y-85009478D01*
X155800000Y-85050487D01*
X155800000Y-86079513D01*
X155795961Y-86120522D01*
X155785789Y-86154053D01*
X155769269Y-86184960D01*
X155747043Y-86212043D01*
X155719960Y-86234269D01*
X155689053Y-86250789D01*
X155655522Y-86260961D01*
X155614513Y-86265000D01*
X154835487Y-86265000D01*
X154794478Y-86260961D01*
X154760947Y-86250789D01*
X154730040Y-86234269D01*
X154702957Y-86212043D01*
X154680731Y-86184960D01*
X154664211Y-86154053D01*
X154654039Y-86120522D01*
X154650000Y-86079513D01*
X154650000Y-85050487D01*
X154654039Y-85009478D01*
X154664211Y-84975947D01*
X154680731Y-84945040D01*
X154702957Y-84917957D01*
X154730040Y-84895731D01*
X154760947Y-84879211D01*
X154794478Y-84869039D01*
X154835487Y-84865000D01*
X155614513Y-84865000D01*
X155655522Y-84869039D01*
X155655522Y-84869039D01*
G37*
G36*
X104840545Y-83969588D02*
X104840548Y-83969589D01*
X104840549Y-83969589D01*
X105004544Y-84019336D01*
X105004546Y-84019337D01*
X105004549Y-84019338D01*
X105155685Y-84100121D01*
X105288159Y-84208841D01*
X105396878Y-84341314D01*
X105449366Y-84439513D01*
X105477664Y-84492455D01*
X105517567Y-84624000D01*
X105527412Y-84656454D01*
X105540000Y-84784262D01*
X105540000Y-85329737D01*
X105527412Y-85457547D01*
X105477664Y-85621546D01*
X105396878Y-85772686D01*
X105288159Y-85905159D01*
X105155686Y-86013878D01*
X105024913Y-86083777D01*
X105004545Y-86094664D01*
X104840550Y-86144411D01*
X104840549Y-86144411D01*
X104840546Y-86144412D01*
X104670000Y-86161209D01*
X104499455Y-86144412D01*
X104499452Y-86144411D01*
X104499451Y-86144411D01*
X104335456Y-86094664D01*
X104315088Y-86083777D01*
X104184315Y-86013878D01*
X104051842Y-85905159D01*
X103943123Y-85772686D01*
X103862337Y-85621547D01*
X103812588Y-85457546D01*
X103800000Y-85329738D01*
X103800000Y-84784263D01*
X103812588Y-84656455D01*
X103812589Y-84656451D01*
X103862336Y-84492456D01*
X103862337Y-84492454D01*
X103862338Y-84492451D01*
X103943121Y-84341315D01*
X104051841Y-84208841D01*
X104184314Y-84100122D01*
X104335453Y-84019337D01*
X104335455Y-84019336D01*
X104499450Y-83969589D01*
X104499451Y-83969589D01*
X104499454Y-83969588D01*
X104670000Y-83952791D01*
X104840545Y-83969588D01*
X104840545Y-83969588D01*
G37*
G36*
X102870355Y-83960685D02*
X102900431Y-83969808D01*
X102928145Y-83984622D01*
X102952440Y-84004560D01*
X102972378Y-84028855D01*
X102987192Y-84056569D01*
X102996315Y-84086645D01*
X103000000Y-84124059D01*
X103000000Y-85989941D01*
X102996315Y-86027355D01*
X102987192Y-86057431D01*
X102972378Y-86085145D01*
X102952440Y-86109440D01*
X102928145Y-86129378D01*
X102900431Y-86144192D01*
X102870355Y-86153315D01*
X102832941Y-86157000D01*
X101427059Y-86157000D01*
X101389645Y-86153315D01*
X101359569Y-86144192D01*
X101331855Y-86129378D01*
X101307560Y-86109440D01*
X101287622Y-86085145D01*
X101272808Y-86057431D01*
X101263685Y-86027355D01*
X101260000Y-85989941D01*
X101260000Y-84124059D01*
X101263685Y-84086645D01*
X101272808Y-84056569D01*
X101287622Y-84028855D01*
X101307560Y-84004560D01*
X101331855Y-83984622D01*
X101359569Y-83969808D01*
X101389645Y-83960685D01*
X101427059Y-83957000D01*
X102832941Y-83957000D01*
X102870355Y-83960685D01*
X102870355Y-83960685D01*
G37*
G36*
X136634000Y-85624000D02*
X134134000Y-85624000D01*
X134134000Y-84624000D01*
X136634000Y-84624000D01*
X136634000Y-85624000D01*
X136634000Y-85624000D01*
G37*
G36*
X121434000Y-85624000D02*
X118934000Y-85624000D01*
X118934000Y-84624000D01*
X121434000Y-84624000D01*
X121434000Y-85624000D01*
X121434000Y-85624000D01*
G37*
G36*
X86093992Y-82327447D02*
X86093994Y-82327448D01*
X86093995Y-82327448D01*
X86389726Y-82449943D01*
X86588859Y-82583000D01*
X86655880Y-82627782D01*
X86882218Y-82854120D01*
X86882220Y-82854123D01*
X87060057Y-83120274D01*
X87182552Y-83416005D01*
X87182553Y-83416008D01*
X87245000Y-83729950D01*
X87245000Y-84050050D01*
X87187064Y-84341316D01*
X87182552Y-84363995D01*
X87060057Y-84659726D01*
X87060056Y-84659727D01*
X86882218Y-84925880D01*
X86655880Y-85152218D01*
X86655877Y-85152220D01*
X86389726Y-85330057D01*
X86093995Y-85452552D01*
X86093994Y-85452552D01*
X86093992Y-85452553D01*
X85780050Y-85515000D01*
X85459950Y-85515000D01*
X85146008Y-85452553D01*
X85146006Y-85452552D01*
X85146005Y-85452552D01*
X84850274Y-85330057D01*
X84584123Y-85152220D01*
X84584120Y-85152218D01*
X84357782Y-84925880D01*
X84179944Y-84659727D01*
X84179943Y-84659726D01*
X84057448Y-84363995D01*
X84052937Y-84341316D01*
X83995000Y-84050050D01*
X83995000Y-83729950D01*
X84057447Y-83416008D01*
X84057448Y-83416005D01*
X84179943Y-83120274D01*
X84357780Y-82854123D01*
X84357782Y-82854120D01*
X84584120Y-82627782D01*
X84651141Y-82583000D01*
X84850274Y-82449943D01*
X85146005Y-82327448D01*
X85146006Y-82327448D01*
X85146008Y-82327447D01*
X85459950Y-82265000D01*
X85780050Y-82265000D01*
X86093992Y-82327447D01*
X86093992Y-82327447D01*
G37*
G36*
X114877522Y-83479039D02*
X114911053Y-83489211D01*
X114941960Y-83505731D01*
X114969043Y-83527957D01*
X114991269Y-83555040D01*
X115007789Y-83585947D01*
X115017961Y-83619478D01*
X115022000Y-83660487D01*
X115022000Y-84439513D01*
X115017961Y-84480522D01*
X115007789Y-84514053D01*
X114991269Y-84544960D01*
X114969043Y-84572043D01*
X114941960Y-84594269D01*
X114911053Y-84610789D01*
X114877522Y-84620961D01*
X114836513Y-84625000D01*
X113807487Y-84625000D01*
X113766478Y-84620961D01*
X113732947Y-84610789D01*
X113702040Y-84594269D01*
X113674957Y-84572043D01*
X113652731Y-84544960D01*
X113636211Y-84514053D01*
X113626039Y-84480522D01*
X113622000Y-84439513D01*
X113622000Y-83660487D01*
X113626039Y-83619478D01*
X113636211Y-83585947D01*
X113652731Y-83555040D01*
X113674957Y-83527957D01*
X113702040Y-83505731D01*
X113732947Y-83489211D01*
X113766478Y-83479039D01*
X113807487Y-83475000D01*
X114836513Y-83475000D01*
X114877522Y-83479039D01*
X114877522Y-83479039D01*
G37*
G36*
X112216000Y-84483000D02*
X111316000Y-84483000D01*
X111316000Y-83683000D01*
X112216000Y-83683000D01*
X112216000Y-84483000D01*
X112216000Y-84483000D01*
G37*
G36*
X136634000Y-83624000D02*
X134134000Y-83624000D01*
X134134000Y-82624000D01*
X136634000Y-82624000D01*
X136634000Y-83624000D01*
X136634000Y-83624000D01*
G37*
G36*
X121434000Y-83624000D02*
X118934000Y-83624000D01*
X118934000Y-82624000D01*
X121434000Y-82624000D01*
X121434000Y-83624000D01*
X121434000Y-83624000D01*
G37*
G36*
X110216000Y-83533000D02*
X109316000Y-83533000D01*
X109316000Y-82733000D01*
X110216000Y-82733000D01*
X110216000Y-83533000D01*
X110216000Y-83533000D01*
G37*
G36*
X155655522Y-81694039D02*
X155689053Y-81704211D01*
X155719960Y-81720731D01*
X155747043Y-81742957D01*
X155769269Y-81770040D01*
X155785789Y-81800947D01*
X155795961Y-81834478D01*
X155800000Y-81875487D01*
X155800000Y-82904513D01*
X155795961Y-82945522D01*
X155785789Y-82979053D01*
X155769269Y-83009960D01*
X155747043Y-83037043D01*
X155719960Y-83059269D01*
X155689053Y-83075789D01*
X155655522Y-83085961D01*
X155614513Y-83090000D01*
X154835487Y-83090000D01*
X154794478Y-83085961D01*
X154760947Y-83075789D01*
X154730040Y-83059269D01*
X154702957Y-83037043D01*
X154680731Y-83009960D01*
X154664211Y-82979053D01*
X154654039Y-82945522D01*
X154650000Y-82904513D01*
X154650000Y-81875487D01*
X154654039Y-81834478D01*
X154664211Y-81800947D01*
X154680731Y-81770040D01*
X154702957Y-81742957D01*
X154730040Y-81720731D01*
X154760947Y-81704211D01*
X154794478Y-81694039D01*
X154835487Y-81690000D01*
X155614513Y-81690000D01*
X155655522Y-81694039D01*
X155655522Y-81694039D01*
G37*
G36*
X153605522Y-81694039D02*
X153639053Y-81704211D01*
X153669960Y-81720731D01*
X153697043Y-81742957D01*
X153719269Y-81770040D01*
X153735789Y-81800947D01*
X153745961Y-81834478D01*
X153750000Y-81875487D01*
X153750000Y-82904513D01*
X153745961Y-82945522D01*
X153735789Y-82979053D01*
X153719269Y-83009960D01*
X153697043Y-83037043D01*
X153669960Y-83059269D01*
X153639053Y-83075789D01*
X153605522Y-83085961D01*
X153564513Y-83090000D01*
X152785487Y-83090000D01*
X152744478Y-83085961D01*
X152710947Y-83075789D01*
X152680040Y-83059269D01*
X152652957Y-83037043D01*
X152630731Y-83009960D01*
X152614211Y-82979053D01*
X152604039Y-82945522D01*
X152600000Y-82904513D01*
X152600000Y-81875487D01*
X152604039Y-81834478D01*
X152614211Y-81800947D01*
X152630731Y-81770040D01*
X152652957Y-81742957D01*
X152680040Y-81720731D01*
X152710947Y-81704211D01*
X152744478Y-81694039D01*
X152785487Y-81690000D01*
X153564513Y-81690000D01*
X153605522Y-81694039D01*
X153605522Y-81694039D01*
G37*
G36*
X158565522Y-81574039D02*
X158599053Y-81584211D01*
X158629960Y-81600731D01*
X158657043Y-81622957D01*
X158679269Y-81650040D01*
X158695789Y-81680947D01*
X158705961Y-81714478D01*
X158710000Y-81755487D01*
X158710000Y-82534513D01*
X158705961Y-82575522D01*
X158695789Y-82609053D01*
X158679269Y-82639960D01*
X158657043Y-82667043D01*
X158629960Y-82689269D01*
X158599053Y-82705789D01*
X158565522Y-82715961D01*
X158524513Y-82720000D01*
X157495487Y-82720000D01*
X157454478Y-82715961D01*
X157420947Y-82705789D01*
X157390040Y-82689269D01*
X157362957Y-82667043D01*
X157340731Y-82639960D01*
X157324211Y-82609053D01*
X157314039Y-82575522D01*
X157310000Y-82534513D01*
X157310000Y-81755487D01*
X157314039Y-81714478D01*
X157324211Y-81680947D01*
X157340731Y-81650040D01*
X157362957Y-81622957D01*
X157390040Y-81600731D01*
X157420947Y-81584211D01*
X157454478Y-81574039D01*
X157495487Y-81570000D01*
X158524513Y-81570000D01*
X158565522Y-81574039D01*
X158565522Y-81574039D01*
G37*
G36*
X112216000Y-82583000D02*
X111316000Y-82583000D01*
X111316000Y-81783000D01*
X112216000Y-81783000D01*
X112216000Y-82583000D01*
X112216000Y-82583000D01*
G37*
G36*
X114877522Y-81429039D02*
X114911053Y-81439211D01*
X114941960Y-81455731D01*
X114969043Y-81477957D01*
X114991269Y-81505040D01*
X115007789Y-81535947D01*
X115017961Y-81569478D01*
X115022000Y-81610487D01*
X115022000Y-82389513D01*
X115017961Y-82430522D01*
X115007789Y-82464053D01*
X114991269Y-82494960D01*
X114969043Y-82522043D01*
X114941960Y-82544269D01*
X114911053Y-82560789D01*
X114877522Y-82570961D01*
X114836513Y-82575000D01*
X113807487Y-82575000D01*
X113766478Y-82570961D01*
X113732947Y-82560789D01*
X113702040Y-82544269D01*
X113674957Y-82522043D01*
X113652731Y-82494960D01*
X113636211Y-82464053D01*
X113626039Y-82430522D01*
X113622000Y-82389513D01*
X113622000Y-81610487D01*
X113626039Y-81569478D01*
X113636211Y-81535947D01*
X113652731Y-81505040D01*
X113674957Y-81477957D01*
X113702040Y-81455731D01*
X113732947Y-81439211D01*
X113766478Y-81429039D01*
X113807487Y-81425000D01*
X114836513Y-81425000D01*
X114877522Y-81429039D01*
X114877522Y-81429039D01*
G37*
G36*
X121434000Y-81624000D02*
X118934000Y-81624000D01*
X118934000Y-80624000D01*
X121434000Y-80624000D01*
X121434000Y-81624000D01*
X121434000Y-81624000D01*
G37*
G36*
X136634000Y-81624000D02*
X134134000Y-81624000D01*
X134134000Y-80624000D01*
X136634000Y-80624000D01*
X136634000Y-81624000D01*
X136634000Y-81624000D01*
G37*
G36*
X158565522Y-79524039D02*
X158599053Y-79534211D01*
X158629960Y-79550731D01*
X158657043Y-79572957D01*
X158679269Y-79600040D01*
X158695789Y-79630947D01*
X158705961Y-79664478D01*
X158710000Y-79705487D01*
X158710000Y-80484513D01*
X158705961Y-80525522D01*
X158695789Y-80559053D01*
X158679269Y-80589960D01*
X158657043Y-80617043D01*
X158629960Y-80639269D01*
X158599053Y-80655789D01*
X158565522Y-80665961D01*
X158524513Y-80670000D01*
X157495487Y-80670000D01*
X157454478Y-80665961D01*
X157420947Y-80655789D01*
X157390040Y-80639269D01*
X157362957Y-80617043D01*
X157340731Y-80589960D01*
X157324211Y-80559053D01*
X157314039Y-80525522D01*
X157310000Y-80484513D01*
X157310000Y-79705487D01*
X157314039Y-79664478D01*
X157324211Y-79630947D01*
X157340731Y-79600040D01*
X157362957Y-79572957D01*
X157390040Y-79550731D01*
X157420947Y-79534211D01*
X157454478Y-79524039D01*
X157495487Y-79520000D01*
X158524513Y-79520000D01*
X158565522Y-79524039D01*
X158565522Y-79524039D01*
G37*
G36*
X95947522Y-78773039D02*
X95981053Y-78783211D01*
X96011960Y-78799731D01*
X96039043Y-78821957D01*
X96061269Y-78849040D01*
X96077789Y-78879947D01*
X96087961Y-78913478D01*
X96092000Y-78954487D01*
X96092000Y-79983513D01*
X96087961Y-80024522D01*
X96077789Y-80058053D01*
X96061269Y-80088960D01*
X96039043Y-80116043D01*
X96011960Y-80138269D01*
X95981053Y-80154789D01*
X95947522Y-80164961D01*
X95906513Y-80169000D01*
X95127487Y-80169000D01*
X95086478Y-80164961D01*
X95052947Y-80154789D01*
X95022040Y-80138269D01*
X94994957Y-80116043D01*
X94972731Y-80088960D01*
X94956211Y-80058053D01*
X94946039Y-80024522D01*
X94942000Y-79983513D01*
X94942000Y-78954487D01*
X94946039Y-78913478D01*
X94956211Y-78879947D01*
X94972731Y-78849040D01*
X94994957Y-78821957D01*
X95022040Y-78799731D01*
X95052947Y-78783211D01*
X95086478Y-78773039D01*
X95127487Y-78769000D01*
X95906513Y-78769000D01*
X95947522Y-78773039D01*
X95947522Y-78773039D01*
G37*
G36*
X97997522Y-78773039D02*
X98031053Y-78783211D01*
X98061960Y-78799731D01*
X98089043Y-78821957D01*
X98111269Y-78849040D01*
X98127789Y-78879947D01*
X98137961Y-78913478D01*
X98142000Y-78954487D01*
X98142000Y-79983513D01*
X98137961Y-80024522D01*
X98127789Y-80058053D01*
X98111269Y-80088960D01*
X98089043Y-80116043D01*
X98061960Y-80138269D01*
X98031053Y-80154789D01*
X97997522Y-80164961D01*
X97956513Y-80169000D01*
X97177487Y-80169000D01*
X97136478Y-80164961D01*
X97102947Y-80154789D01*
X97072040Y-80138269D01*
X97044957Y-80116043D01*
X97022731Y-80088960D01*
X97006211Y-80058053D01*
X96996039Y-80024522D01*
X96992000Y-79983513D01*
X96992000Y-78954487D01*
X96996039Y-78913478D01*
X97006211Y-78879947D01*
X97022731Y-78849040D01*
X97044957Y-78821957D01*
X97072040Y-78799731D01*
X97102947Y-78783211D01*
X97136478Y-78773039D01*
X97177487Y-78769000D01*
X97956513Y-78769000D01*
X97997522Y-78773039D01*
X97997522Y-78773039D01*
G37*
G36*
X145620000Y-79860000D02*
X143520000Y-79860000D01*
X143520000Y-78460000D01*
X145620000Y-78460000D01*
X145620000Y-79860000D01*
X145620000Y-79860000D01*
G37*
G36*
X154720000Y-79860000D02*
X152620000Y-79860000D01*
X152620000Y-78460000D01*
X154720000Y-78460000D01*
X154720000Y-79860000D01*
X154720000Y-79860000D01*
G37*
G36*
X136634000Y-79624000D02*
X134134000Y-79624000D01*
X134134000Y-78624000D01*
X136634000Y-78624000D01*
X136634000Y-79624000D01*
X136634000Y-79624000D01*
G37*
G36*
X121434000Y-79624000D02*
X118934000Y-79624000D01*
X118934000Y-78624000D01*
X121434000Y-78624000D01*
X121434000Y-79624000D01*
X121434000Y-79624000D01*
G37*
G36*
X93354183Y-78191900D02*
X93481574Y-78244668D01*
X93596225Y-78321275D01*
X93693725Y-78418775D01*
X93770332Y-78533426D01*
X93823100Y-78660817D01*
X93850000Y-78796055D01*
X93850000Y-78933945D01*
X93823100Y-79069183D01*
X93770332Y-79196574D01*
X93735123Y-79249269D01*
X93693725Y-79311225D01*
X93596225Y-79408725D01*
X93481574Y-79485332D01*
X93354183Y-79538100D01*
X93218945Y-79565000D01*
X93081055Y-79565000D01*
X92945817Y-79538100D01*
X92818426Y-79485332D01*
X92703775Y-79408725D01*
X92606275Y-79311225D01*
X92564878Y-79249269D01*
X92529668Y-79196574D01*
X92476900Y-79069183D01*
X92450000Y-78933945D01*
X92450000Y-78796055D01*
X92476900Y-78660817D01*
X92529668Y-78533426D01*
X92606275Y-78418775D01*
X92703775Y-78321275D01*
X92818426Y-78244668D01*
X92945817Y-78191900D01*
X93081055Y-78165000D01*
X93218945Y-78165000D01*
X93354183Y-78191900D01*
X93354183Y-78191900D01*
G37*
G36*
X90250522Y-77884039D02*
X90284053Y-77894211D01*
X90314960Y-77910731D01*
X90342043Y-77932957D01*
X90364269Y-77960040D01*
X90380789Y-77990947D01*
X90390961Y-78024478D01*
X90395000Y-78065487D01*
X90395000Y-79094513D01*
X90390961Y-79135522D01*
X90380789Y-79169053D01*
X90364269Y-79199960D01*
X90342043Y-79227043D01*
X90314960Y-79249269D01*
X90284053Y-79265789D01*
X90250522Y-79275961D01*
X90209513Y-79280000D01*
X89430487Y-79280000D01*
X89389478Y-79275961D01*
X89355947Y-79265789D01*
X89325040Y-79249269D01*
X89297957Y-79227043D01*
X89275731Y-79199960D01*
X89259211Y-79169053D01*
X89249039Y-79135522D01*
X89245000Y-79094513D01*
X89245000Y-78065487D01*
X89249039Y-78024478D01*
X89259211Y-77990947D01*
X89275731Y-77960040D01*
X89297957Y-77932957D01*
X89325040Y-77910731D01*
X89355947Y-77894211D01*
X89389478Y-77884039D01*
X89430487Y-77880000D01*
X90209513Y-77880000D01*
X90250522Y-77884039D01*
X90250522Y-77884039D01*
G37*
G36*
X88200522Y-77884039D02*
X88234053Y-77894211D01*
X88264960Y-77910731D01*
X88292043Y-77932957D01*
X88314269Y-77960040D01*
X88330789Y-77990947D01*
X88340961Y-78024478D01*
X88345000Y-78065487D01*
X88345000Y-79094513D01*
X88340961Y-79135522D01*
X88330789Y-79169053D01*
X88314269Y-79199960D01*
X88292043Y-79227043D01*
X88264960Y-79249269D01*
X88234053Y-79265789D01*
X88200522Y-79275961D01*
X88159513Y-79280000D01*
X87380487Y-79280000D01*
X87339478Y-79275961D01*
X87305947Y-79265789D01*
X87275040Y-79249269D01*
X87247957Y-79227043D01*
X87225731Y-79199960D01*
X87209211Y-79169053D01*
X87199039Y-79135522D01*
X87195000Y-79094513D01*
X87195000Y-78065487D01*
X87199039Y-78024478D01*
X87209211Y-77990947D01*
X87225731Y-77960040D01*
X87247957Y-77932957D01*
X87275040Y-77910731D01*
X87305947Y-77894211D01*
X87339478Y-77884039D01*
X87380487Y-77880000D01*
X88159513Y-77880000D01*
X88200522Y-77884039D01*
X88200522Y-77884039D01*
G37*
G36*
X104102522Y-77249039D02*
X104136053Y-77259211D01*
X104166960Y-77275731D01*
X104194043Y-77297957D01*
X104216269Y-77325040D01*
X104232789Y-77355947D01*
X104242961Y-77389478D01*
X104247000Y-77430487D01*
X104247000Y-78459513D01*
X104242961Y-78500522D01*
X104232789Y-78534053D01*
X104216269Y-78564960D01*
X104194043Y-78592043D01*
X104166960Y-78614269D01*
X104136053Y-78630789D01*
X104102522Y-78640961D01*
X104061513Y-78645000D01*
X103282487Y-78645000D01*
X103241478Y-78640961D01*
X103207947Y-78630789D01*
X103177040Y-78614269D01*
X103149957Y-78592043D01*
X103127731Y-78564960D01*
X103111211Y-78534053D01*
X103101039Y-78500522D01*
X103097000Y-78459513D01*
X103097000Y-77430487D01*
X103101039Y-77389478D01*
X103111211Y-77355947D01*
X103127731Y-77325040D01*
X103149957Y-77297957D01*
X103177040Y-77275731D01*
X103207947Y-77259211D01*
X103241478Y-77249039D01*
X103282487Y-77245000D01*
X104061513Y-77245000D01*
X104102522Y-77249039D01*
X104102522Y-77249039D01*
G37*
G36*
X102052522Y-77249039D02*
X102086053Y-77259211D01*
X102116960Y-77275731D01*
X102144043Y-77297957D01*
X102166269Y-77325040D01*
X102182789Y-77355947D01*
X102192961Y-77389478D01*
X102197000Y-77430487D01*
X102197000Y-78459513D01*
X102192961Y-78500522D01*
X102182789Y-78534053D01*
X102166269Y-78564960D01*
X102144043Y-78592043D01*
X102116960Y-78614269D01*
X102086053Y-78630789D01*
X102052522Y-78640961D01*
X102011513Y-78645000D01*
X101232487Y-78645000D01*
X101191478Y-78640961D01*
X101157947Y-78630789D01*
X101127040Y-78614269D01*
X101099957Y-78592043D01*
X101077731Y-78564960D01*
X101061211Y-78534053D01*
X101051039Y-78500522D01*
X101047000Y-78459513D01*
X101047000Y-77430487D01*
X101051039Y-77389478D01*
X101061211Y-77355947D01*
X101077731Y-77325040D01*
X101099957Y-77297957D01*
X101127040Y-77275731D01*
X101157947Y-77259211D01*
X101191478Y-77249039D01*
X101232487Y-77245000D01*
X102011513Y-77245000D01*
X102052522Y-77249039D01*
X102052522Y-77249039D01*
G37*
G36*
X115650522Y-76614039D02*
X115684053Y-76624211D01*
X115714960Y-76640731D01*
X115742043Y-76662957D01*
X115764269Y-76690040D01*
X115780789Y-76720947D01*
X115790961Y-76754478D01*
X115795000Y-76795487D01*
X115795000Y-77824513D01*
X115790961Y-77865522D01*
X115780789Y-77899053D01*
X115764269Y-77929960D01*
X115742043Y-77957043D01*
X115714960Y-77979269D01*
X115684053Y-77995789D01*
X115650522Y-78005961D01*
X115609513Y-78010000D01*
X114830487Y-78010000D01*
X114789478Y-78005961D01*
X114755947Y-77995789D01*
X114725040Y-77979269D01*
X114697957Y-77957043D01*
X114675731Y-77929960D01*
X114659211Y-77899053D01*
X114649039Y-77865522D01*
X114645000Y-77824513D01*
X114645000Y-76795487D01*
X114649039Y-76754478D01*
X114659211Y-76720947D01*
X114675731Y-76690040D01*
X114697957Y-76662957D01*
X114725040Y-76640731D01*
X114755947Y-76624211D01*
X114789478Y-76614039D01*
X114830487Y-76610000D01*
X115609513Y-76610000D01*
X115650522Y-76614039D01*
X115650522Y-76614039D01*
G37*
G36*
X113600522Y-76614039D02*
X113634053Y-76624211D01*
X113664960Y-76640731D01*
X113692043Y-76662957D01*
X113714269Y-76690040D01*
X113730789Y-76720947D01*
X113740961Y-76754478D01*
X113745000Y-76795487D01*
X113745000Y-77824513D01*
X113740961Y-77865522D01*
X113730789Y-77899053D01*
X113714269Y-77929960D01*
X113692043Y-77957043D01*
X113664960Y-77979269D01*
X113634053Y-77995789D01*
X113600522Y-78005961D01*
X113559513Y-78010000D01*
X112780487Y-78010000D01*
X112739478Y-78005961D01*
X112705947Y-77995789D01*
X112675040Y-77979269D01*
X112647957Y-77957043D01*
X112625731Y-77929960D01*
X112609211Y-77899053D01*
X112599039Y-77865522D01*
X112595000Y-77824513D01*
X112595000Y-76795487D01*
X112599039Y-76754478D01*
X112609211Y-76720947D01*
X112625731Y-76690040D01*
X112647957Y-76662957D01*
X112675040Y-76640731D01*
X112705947Y-76624211D01*
X112739478Y-76614039D01*
X112780487Y-76610000D01*
X113559513Y-76610000D01*
X113600522Y-76614039D01*
X113600522Y-76614039D01*
G37*
G36*
X97997522Y-76233039D02*
X98031053Y-76243211D01*
X98061960Y-76259731D01*
X98089043Y-76281957D01*
X98111269Y-76309040D01*
X98127789Y-76339947D01*
X98137961Y-76373478D01*
X98142000Y-76414487D01*
X98142000Y-77443513D01*
X98137961Y-77484522D01*
X98127789Y-77518053D01*
X98111269Y-77548960D01*
X98089043Y-77576043D01*
X98061960Y-77598269D01*
X98031053Y-77614789D01*
X97997522Y-77624961D01*
X97956513Y-77629000D01*
X97177487Y-77629000D01*
X97136478Y-77624961D01*
X97102947Y-77614789D01*
X97072040Y-77598269D01*
X97044957Y-77576043D01*
X97022731Y-77548960D01*
X97006211Y-77518053D01*
X96996039Y-77484522D01*
X96992000Y-77443513D01*
X96992000Y-76414487D01*
X96996039Y-76373478D01*
X97006211Y-76339947D01*
X97022731Y-76309040D01*
X97044957Y-76281957D01*
X97072040Y-76259731D01*
X97102947Y-76243211D01*
X97136478Y-76233039D01*
X97177487Y-76229000D01*
X97956513Y-76229000D01*
X97997522Y-76233039D01*
X97997522Y-76233039D01*
G37*
G36*
X95947522Y-76233039D02*
X95981053Y-76243211D01*
X96011960Y-76259731D01*
X96039043Y-76281957D01*
X96061269Y-76309040D01*
X96077789Y-76339947D01*
X96087961Y-76373478D01*
X96092000Y-76414487D01*
X96092000Y-77443513D01*
X96087961Y-77484522D01*
X96077789Y-77518053D01*
X96061269Y-77548960D01*
X96039043Y-77576043D01*
X96011960Y-77598269D01*
X95981053Y-77614789D01*
X95947522Y-77624961D01*
X95906513Y-77629000D01*
X95127487Y-77629000D01*
X95086478Y-77624961D01*
X95052947Y-77614789D01*
X95022040Y-77598269D01*
X94994957Y-77576043D01*
X94972731Y-77548960D01*
X94956211Y-77518053D01*
X94946039Y-77484522D01*
X94942000Y-77443513D01*
X94942000Y-76414487D01*
X94946039Y-76373478D01*
X94956211Y-76339947D01*
X94972731Y-76309040D01*
X94994957Y-76281957D01*
X95022040Y-76259731D01*
X95052947Y-76243211D01*
X95086478Y-76233039D01*
X95127487Y-76229000D01*
X95906513Y-76229000D01*
X95947522Y-76233039D01*
X95947522Y-76233039D01*
G37*
G36*
X136634000Y-77624000D02*
X134134000Y-77624000D01*
X134134000Y-76624000D01*
X136634000Y-76624000D01*
X136634000Y-77624000D01*
X136634000Y-77624000D01*
G37*
G36*
X121434000Y-77624000D02*
X118934000Y-77624000D01*
X118934000Y-76624000D01*
X121434000Y-76624000D01*
X121434000Y-77624000D01*
X121434000Y-77624000D01*
G37*
G36*
X93354183Y-75651900D02*
X93480611Y-75704269D01*
X93481574Y-75704668D01*
X93520925Y-75730961D01*
X93596225Y-75781275D01*
X93693725Y-75878775D01*
X93770332Y-75993426D01*
X93823100Y-76120817D01*
X93850000Y-76256055D01*
X93850000Y-76393945D01*
X93823100Y-76529183D01*
X93770332Y-76656574D01*
X93693725Y-76771225D01*
X93596225Y-76868725D01*
X93481574Y-76945332D01*
X93354183Y-76998100D01*
X93218945Y-77025000D01*
X93081055Y-77025000D01*
X92945817Y-76998100D01*
X92818426Y-76945332D01*
X92703775Y-76868725D01*
X92606275Y-76771225D01*
X92529668Y-76656574D01*
X92476900Y-76529183D01*
X92450000Y-76393945D01*
X92450000Y-76256055D01*
X92476900Y-76120817D01*
X92529668Y-75993426D01*
X92606275Y-75878775D01*
X92703775Y-75781275D01*
X92779076Y-75730961D01*
X92818426Y-75704668D01*
X92819389Y-75704269D01*
X92945817Y-75651900D01*
X93081055Y-75625000D01*
X93218945Y-75625000D01*
X93354183Y-75651900D01*
X93354183Y-75651900D01*
G37*
G36*
X88160000Y-75855000D02*
X87360000Y-75855000D01*
X87360000Y-74955000D01*
X88160000Y-74955000D01*
X88160000Y-75855000D01*
X88160000Y-75855000D01*
G37*
G36*
X90060000Y-75855000D02*
X89260000Y-75855000D01*
X89260000Y-74955000D01*
X90060000Y-74955000D01*
X90060000Y-75855000D01*
X90060000Y-75855000D01*
G37*
G36*
X85540522Y-74589039D02*
X85574053Y-74599211D01*
X85604960Y-74615731D01*
X85632043Y-74637957D01*
X85654269Y-74665040D01*
X85670789Y-74695947D01*
X85680961Y-74729478D01*
X85685000Y-74770487D01*
X85685000Y-75549513D01*
X85680961Y-75590522D01*
X85670789Y-75624053D01*
X85654269Y-75654960D01*
X85632043Y-75682043D01*
X85604960Y-75704269D01*
X85574053Y-75720789D01*
X85540522Y-75730961D01*
X85499513Y-75735000D01*
X84470487Y-75735000D01*
X84429478Y-75730961D01*
X84395947Y-75720789D01*
X84365040Y-75704269D01*
X84337957Y-75682043D01*
X84315731Y-75654960D01*
X84299211Y-75624053D01*
X84289039Y-75590522D01*
X84285000Y-75549513D01*
X84285000Y-74770487D01*
X84289039Y-74729478D01*
X84299211Y-74695947D01*
X84315731Y-74665040D01*
X84337957Y-74637957D01*
X84365040Y-74615731D01*
X84395947Y-74599211D01*
X84429478Y-74589039D01*
X84470487Y-74585000D01*
X85499513Y-74585000D01*
X85540522Y-74589039D01*
X85540522Y-74589039D01*
G37*
G36*
X136634000Y-75624000D02*
X134134000Y-75624000D01*
X134134000Y-74624000D01*
X136634000Y-74624000D01*
X136634000Y-75624000D01*
X136634000Y-75624000D01*
G37*
G36*
X121434000Y-75624000D02*
X118934000Y-75624000D01*
X118934000Y-74624000D01*
X121434000Y-74624000D01*
X121434000Y-75624000D01*
X121434000Y-75624000D01*
G37*
G36*
X102963000Y-75511000D02*
X102313000Y-75511000D01*
X102313000Y-74451000D01*
X102963000Y-74451000D01*
X102963000Y-75511000D01*
X102963000Y-75511000D01*
G37*
G36*
X103913000Y-75511000D02*
X103263000Y-75511000D01*
X103263000Y-74451000D01*
X103913000Y-74451000D01*
X103913000Y-75511000D01*
X103913000Y-75511000D01*
G37*
G36*
X102013000Y-75511000D02*
X101363000Y-75511000D01*
X101363000Y-74451000D01*
X102013000Y-74451000D01*
X102013000Y-75511000D01*
X102013000Y-75511000D01*
G37*
G36*
X115650522Y-74074039D02*
X115684053Y-74084211D01*
X115714960Y-74100731D01*
X115742043Y-74122957D01*
X115764269Y-74150040D01*
X115780789Y-74180947D01*
X115790961Y-74214478D01*
X115795000Y-74255487D01*
X115795000Y-75284513D01*
X115790961Y-75325522D01*
X115780789Y-75359053D01*
X115764269Y-75389960D01*
X115742043Y-75417043D01*
X115714960Y-75439269D01*
X115684053Y-75455789D01*
X115650522Y-75465961D01*
X115609513Y-75470000D01*
X114830487Y-75470000D01*
X114789478Y-75465961D01*
X114755947Y-75455789D01*
X114725040Y-75439269D01*
X114697957Y-75417043D01*
X114675731Y-75389960D01*
X114659211Y-75359053D01*
X114649039Y-75325522D01*
X114645000Y-75284513D01*
X114645000Y-74255487D01*
X114649039Y-74214478D01*
X114659211Y-74180947D01*
X114675731Y-74150040D01*
X114697957Y-74122957D01*
X114725040Y-74100731D01*
X114755947Y-74084211D01*
X114789478Y-74074039D01*
X114830487Y-74070000D01*
X115609513Y-74070000D01*
X115650522Y-74074039D01*
X115650522Y-74074039D01*
G37*
G36*
X113600522Y-74074039D02*
X113634053Y-74084211D01*
X113664960Y-74100731D01*
X113692043Y-74122957D01*
X113714269Y-74150040D01*
X113730789Y-74180947D01*
X113740961Y-74214478D01*
X113745000Y-74255487D01*
X113745000Y-75284513D01*
X113740961Y-75325522D01*
X113730789Y-75359053D01*
X113714269Y-75389960D01*
X113692043Y-75417043D01*
X113664960Y-75439269D01*
X113634053Y-75455789D01*
X113600522Y-75465961D01*
X113559513Y-75470000D01*
X112780487Y-75470000D01*
X112739478Y-75465961D01*
X112705947Y-75455789D01*
X112675040Y-75439269D01*
X112647957Y-75417043D01*
X112625731Y-75389960D01*
X112609211Y-75359053D01*
X112599039Y-75325522D01*
X112595000Y-75284513D01*
X112595000Y-74255487D01*
X112599039Y-74214478D01*
X112609211Y-74180947D01*
X112625731Y-74150040D01*
X112647957Y-74122957D01*
X112675040Y-74100731D01*
X112705947Y-74084211D01*
X112739478Y-74074039D01*
X112780487Y-74070000D01*
X113559513Y-74070000D01*
X113600522Y-74074039D01*
X113600522Y-74074039D01*
G37*
G36*
X154720000Y-75360000D02*
X152620000Y-75360000D01*
X152620000Y-73960000D01*
X154720000Y-73960000D01*
X154720000Y-75360000D01*
X154720000Y-75360000D01*
G37*
G36*
X145620000Y-75360000D02*
X143520000Y-75360000D01*
X143520000Y-73960000D01*
X145620000Y-73960000D01*
X145620000Y-75360000D01*
X145620000Y-75360000D01*
G37*
G36*
X107820000Y-75201000D02*
X106380000Y-75201000D01*
X106380000Y-74461000D01*
X107820000Y-74461000D01*
X107820000Y-75201000D01*
X107820000Y-75201000D01*
G37*
G36*
X97997522Y-73693039D02*
X98031053Y-73703211D01*
X98061960Y-73719731D01*
X98089043Y-73741957D01*
X98111269Y-73769040D01*
X98127789Y-73799947D01*
X98137961Y-73833478D01*
X98142000Y-73874487D01*
X98142000Y-74903513D01*
X98137961Y-74944522D01*
X98127789Y-74978053D01*
X98111269Y-75008960D01*
X98089043Y-75036043D01*
X98061960Y-75058269D01*
X98031053Y-75074789D01*
X97997522Y-75084961D01*
X97956513Y-75089000D01*
X97177487Y-75089000D01*
X97136478Y-75084961D01*
X97102947Y-75074789D01*
X97072040Y-75058269D01*
X97044957Y-75036043D01*
X97022731Y-75008960D01*
X97006211Y-74978053D01*
X96996039Y-74944522D01*
X96992000Y-74903513D01*
X96992000Y-73874487D01*
X96996039Y-73833478D01*
X97006211Y-73799947D01*
X97022731Y-73769040D01*
X97044957Y-73741957D01*
X97072040Y-73719731D01*
X97102947Y-73703211D01*
X97136478Y-73693039D01*
X97177487Y-73689000D01*
X97956513Y-73689000D01*
X97997522Y-73693039D01*
X97997522Y-73693039D01*
G37*
G36*
X95947522Y-73693039D02*
X95981053Y-73703211D01*
X96011960Y-73719731D01*
X96039043Y-73741957D01*
X96061269Y-73769040D01*
X96077789Y-73799947D01*
X96087961Y-73833478D01*
X96092000Y-73874487D01*
X96092000Y-74903513D01*
X96087961Y-74944522D01*
X96077789Y-74978053D01*
X96061269Y-75008960D01*
X96039043Y-75036043D01*
X96011960Y-75058269D01*
X95981053Y-75074789D01*
X95947522Y-75084961D01*
X95906513Y-75089000D01*
X95127487Y-75089000D01*
X95086478Y-75084961D01*
X95052947Y-75074789D01*
X95022040Y-75058269D01*
X94994957Y-75036043D01*
X94972731Y-75008960D01*
X94956211Y-74978053D01*
X94946039Y-74944522D01*
X94942000Y-74903513D01*
X94942000Y-73874487D01*
X94946039Y-73833478D01*
X94956211Y-73799947D01*
X94972731Y-73769040D01*
X94994957Y-73741957D01*
X95022040Y-73719731D01*
X95052947Y-73703211D01*
X95086478Y-73693039D01*
X95127487Y-73689000D01*
X95906513Y-73689000D01*
X95947522Y-73693039D01*
X95947522Y-73693039D01*
G37*
G36*
X109920000Y-74251000D02*
X108480000Y-74251000D01*
X108480000Y-73511000D01*
X109920000Y-73511000D01*
X109920000Y-74251000D01*
X109920000Y-74251000D01*
G37*
G36*
X89110000Y-73855000D02*
X88310000Y-73855000D01*
X88310000Y-72955000D01*
X89110000Y-72955000D01*
X89110000Y-73855000D01*
X89110000Y-73855000D01*
G37*
G36*
X85540522Y-72539039D02*
X85574053Y-72549211D01*
X85604960Y-72565731D01*
X85632043Y-72587957D01*
X85654269Y-72615040D01*
X85670789Y-72645947D01*
X85680961Y-72679478D01*
X85685000Y-72720487D01*
X85685000Y-73499513D01*
X85680961Y-73540522D01*
X85670789Y-73574053D01*
X85654269Y-73604960D01*
X85632043Y-73632043D01*
X85604960Y-73654269D01*
X85574053Y-73670789D01*
X85540522Y-73680961D01*
X85499513Y-73685000D01*
X84470487Y-73685000D01*
X84429478Y-73680961D01*
X84395947Y-73670789D01*
X84365040Y-73654269D01*
X84337957Y-73632043D01*
X84315731Y-73604960D01*
X84299211Y-73574053D01*
X84289039Y-73540522D01*
X84285000Y-73499513D01*
X84285000Y-72720487D01*
X84289039Y-72679478D01*
X84299211Y-72645947D01*
X84315731Y-72615040D01*
X84337957Y-72587957D01*
X84365040Y-72565731D01*
X84395947Y-72549211D01*
X84429478Y-72539039D01*
X84470487Y-72535000D01*
X85499513Y-72535000D01*
X85540522Y-72539039D01*
X85540522Y-72539039D01*
G37*
G36*
X136634000Y-73624000D02*
X134134000Y-73624000D01*
X134134000Y-72624000D01*
X136634000Y-72624000D01*
X136634000Y-73624000D01*
X136634000Y-73624000D01*
G37*
G36*
X121434000Y-73624000D02*
X118934000Y-73624000D01*
X118934000Y-72624000D01*
X121434000Y-72624000D01*
X121434000Y-73624000D01*
X121434000Y-73624000D01*
G37*
G36*
X102013000Y-73311000D02*
X101363000Y-73311000D01*
X101363000Y-72251000D01*
X102013000Y-72251000D01*
X102013000Y-73311000D01*
X102013000Y-73311000D01*
G37*
G36*
X103913000Y-73311000D02*
X103263000Y-73311000D01*
X103263000Y-72251000D01*
X103913000Y-72251000D01*
X103913000Y-73311000D01*
X103913000Y-73311000D01*
G37*
G36*
X107820000Y-73301000D02*
X106380000Y-73301000D01*
X106380000Y-72561000D01*
X107820000Y-72561000D01*
X107820000Y-73301000D01*
X107820000Y-73301000D01*
G37*
G36*
X113600522Y-71534039D02*
X113634053Y-71544211D01*
X113664960Y-71560731D01*
X113692043Y-71582957D01*
X113714269Y-71610040D01*
X113730789Y-71640947D01*
X113740961Y-71674478D01*
X113745000Y-71715487D01*
X113745000Y-72744513D01*
X113740961Y-72785522D01*
X113730789Y-72819053D01*
X113714269Y-72849960D01*
X113692043Y-72877043D01*
X113664960Y-72899269D01*
X113634053Y-72915789D01*
X113600522Y-72925961D01*
X113559513Y-72930000D01*
X112780487Y-72930000D01*
X112739478Y-72925961D01*
X112705947Y-72915789D01*
X112675040Y-72899269D01*
X112647957Y-72877043D01*
X112625731Y-72849960D01*
X112609211Y-72819053D01*
X112599039Y-72785522D01*
X112595000Y-72744513D01*
X112595000Y-71715487D01*
X112599039Y-71674478D01*
X112609211Y-71640947D01*
X112625731Y-71610040D01*
X112647957Y-71582957D01*
X112675040Y-71560731D01*
X112705947Y-71544211D01*
X112739478Y-71534039D01*
X112780487Y-71530000D01*
X113559513Y-71530000D01*
X113600522Y-71534039D01*
X113600522Y-71534039D01*
G37*
G36*
X115650522Y-71534039D02*
X115684053Y-71544211D01*
X115714960Y-71560731D01*
X115742043Y-71582957D01*
X115764269Y-71610040D01*
X115780789Y-71640947D01*
X115790961Y-71674478D01*
X115795000Y-71715487D01*
X115795000Y-72744513D01*
X115790961Y-72785522D01*
X115780789Y-72819053D01*
X115764269Y-72849960D01*
X115742043Y-72877043D01*
X115714960Y-72899269D01*
X115684053Y-72915789D01*
X115650522Y-72925961D01*
X115609513Y-72930000D01*
X114830487Y-72930000D01*
X114789478Y-72925961D01*
X114755947Y-72915789D01*
X114725040Y-72899269D01*
X114697957Y-72877043D01*
X114675731Y-72849960D01*
X114659211Y-72819053D01*
X114649039Y-72785522D01*
X114645000Y-72744513D01*
X114645000Y-71715487D01*
X114649039Y-71674478D01*
X114659211Y-71640947D01*
X114675731Y-71610040D01*
X114697957Y-71582957D01*
X114725040Y-71560731D01*
X114755947Y-71544211D01*
X114789478Y-71534039D01*
X114830487Y-71530000D01*
X115609513Y-71530000D01*
X115650522Y-71534039D01*
X115650522Y-71534039D01*
G37*
G36*
X98769000Y-72195000D02*
X97869000Y-72195000D01*
X97869000Y-70995000D01*
X98769000Y-70995000D01*
X98769000Y-72195000D01*
X98769000Y-72195000D01*
G37*
G36*
X95469000Y-72195000D02*
X94569000Y-72195000D01*
X94569000Y-70995000D01*
X95469000Y-70995000D01*
X95469000Y-72195000D01*
X95469000Y-72195000D01*
G37*
G36*
X121434000Y-71624000D02*
X118934000Y-71624000D01*
X118934000Y-70624000D01*
X121434000Y-70624000D01*
X121434000Y-71624000D01*
X121434000Y-71624000D01*
G37*
G36*
X136634000Y-71624000D02*
X134134000Y-71624000D01*
X134134000Y-70624000D01*
X136634000Y-70624000D01*
X136634000Y-71624000D01*
X136634000Y-71624000D01*
G37*
G36*
X104093522Y-69629039D02*
X104127053Y-69639211D01*
X104157960Y-69655731D01*
X104185043Y-69677957D01*
X104207269Y-69705040D01*
X104223789Y-69735947D01*
X104233961Y-69769478D01*
X104238000Y-69810487D01*
X104238000Y-70839513D01*
X104233961Y-70880522D01*
X104223789Y-70914053D01*
X104207269Y-70944960D01*
X104185043Y-70972043D01*
X104157960Y-70994269D01*
X104127053Y-71010789D01*
X104093522Y-71020961D01*
X104052513Y-71025000D01*
X103273487Y-71025000D01*
X103232478Y-71020961D01*
X103198947Y-71010789D01*
X103168040Y-70994269D01*
X103140957Y-70972043D01*
X103118731Y-70944960D01*
X103102211Y-70914053D01*
X103092039Y-70880522D01*
X103088000Y-70839513D01*
X103088000Y-69810487D01*
X103092039Y-69769478D01*
X103102211Y-69735947D01*
X103118731Y-69705040D01*
X103140957Y-69677957D01*
X103168040Y-69655731D01*
X103198947Y-69639211D01*
X103232478Y-69629039D01*
X103273487Y-69625000D01*
X104052513Y-69625000D01*
X104093522Y-69629039D01*
X104093522Y-69629039D01*
G37*
G36*
X102043522Y-69629039D02*
X102077053Y-69639211D01*
X102107960Y-69655731D01*
X102135043Y-69677957D01*
X102157269Y-69705040D01*
X102173789Y-69735947D01*
X102183961Y-69769478D01*
X102188000Y-69810487D01*
X102188000Y-70839513D01*
X102183961Y-70880522D01*
X102173789Y-70914053D01*
X102157269Y-70944960D01*
X102135043Y-70972043D01*
X102107960Y-70994269D01*
X102077053Y-71010789D01*
X102043522Y-71020961D01*
X102002513Y-71025000D01*
X101223487Y-71025000D01*
X101182478Y-71020961D01*
X101148947Y-71010789D01*
X101118040Y-70994269D01*
X101090957Y-70972043D01*
X101068731Y-70944960D01*
X101052211Y-70914053D01*
X101042039Y-70880522D01*
X101038000Y-70839513D01*
X101038000Y-69810487D01*
X101042039Y-69769478D01*
X101052211Y-69735947D01*
X101068731Y-69705040D01*
X101090957Y-69677957D01*
X101118040Y-69655731D01*
X101148947Y-69639211D01*
X101182478Y-69629039D01*
X101223487Y-69625000D01*
X102002513Y-69625000D01*
X102043522Y-69629039D01*
X102043522Y-69629039D01*
G37*
G36*
X87691630Y-68852299D02*
X87851855Y-68900903D01*
X87999520Y-68979831D01*
X88128949Y-69086051D01*
X88235169Y-69215480D01*
X88314097Y-69363145D01*
X88362701Y-69523370D01*
X88379112Y-69690000D01*
X88362701Y-69856630D01*
X88314097Y-70016855D01*
X88235169Y-70164520D01*
X88128949Y-70293949D01*
X87999520Y-70400169D01*
X87851855Y-70479097D01*
X87691630Y-70527701D01*
X87566752Y-70540000D01*
X87483248Y-70540000D01*
X87358370Y-70527701D01*
X87198145Y-70479097D01*
X87050480Y-70400169D01*
X86921051Y-70293949D01*
X86814831Y-70164520D01*
X86735903Y-70016855D01*
X86687299Y-69856630D01*
X86670888Y-69690000D01*
X86687299Y-69523370D01*
X86735903Y-69363145D01*
X86814831Y-69215480D01*
X86921051Y-69086051D01*
X87050480Y-68979831D01*
X87198145Y-68900903D01*
X87358370Y-68852299D01*
X87483248Y-68840000D01*
X87566752Y-68840000D01*
X87691630Y-68852299D01*
X87691630Y-68852299D01*
G37*
G36*
X90915000Y-70540000D02*
X89215000Y-70540000D01*
X89215000Y-68840000D01*
X90915000Y-68840000D01*
X90915000Y-70540000D01*
X90915000Y-70540000D01*
G37*
G36*
X85151630Y-68852299D02*
X85311855Y-68900903D01*
X85459520Y-68979831D01*
X85588949Y-69086051D01*
X85695169Y-69215480D01*
X85774097Y-69363145D01*
X85822701Y-69523370D01*
X85839112Y-69690000D01*
X85822701Y-69856630D01*
X85774097Y-70016855D01*
X85695169Y-70164520D01*
X85588949Y-70293949D01*
X85459520Y-70400169D01*
X85311855Y-70479097D01*
X85151630Y-70527701D01*
X85026752Y-70540000D01*
X84943248Y-70540000D01*
X84818370Y-70527701D01*
X84658145Y-70479097D01*
X84510480Y-70400169D01*
X84381051Y-70293949D01*
X84274831Y-70164520D01*
X84195903Y-70016855D01*
X84147299Y-69856630D01*
X84130888Y-69690000D01*
X84147299Y-69523370D01*
X84195903Y-69363145D01*
X84274831Y-69215480D01*
X84381051Y-69086051D01*
X84510480Y-68979831D01*
X84658145Y-68900903D01*
X84818370Y-68852299D01*
X84943248Y-68840000D01*
X85026752Y-68840000D01*
X85151630Y-68852299D01*
X85151630Y-68852299D01*
G37*
G36*
X110326000Y-70417000D02*
X109426000Y-70417000D01*
X109426000Y-69217000D01*
X110326000Y-69217000D01*
X110326000Y-70417000D01*
X110326000Y-70417000D01*
G37*
G36*
X107026000Y-70417000D02*
X106126000Y-70417000D01*
X106126000Y-69217000D01*
X107026000Y-69217000D01*
X107026000Y-70417000D01*
X107026000Y-70417000D01*
G37*
G36*
X115650522Y-68994039D02*
X115684053Y-69004211D01*
X115714960Y-69020731D01*
X115742043Y-69042957D01*
X115764269Y-69070040D01*
X115780789Y-69100947D01*
X115790961Y-69134478D01*
X115795000Y-69175487D01*
X115795000Y-70204513D01*
X115790961Y-70245522D01*
X115780789Y-70279053D01*
X115764269Y-70309960D01*
X115742043Y-70337043D01*
X115714960Y-70359269D01*
X115684053Y-70375789D01*
X115650522Y-70385961D01*
X115609513Y-70390000D01*
X114830487Y-70390000D01*
X114789478Y-70385961D01*
X114755947Y-70375789D01*
X114725040Y-70359269D01*
X114697957Y-70337043D01*
X114675731Y-70309960D01*
X114659211Y-70279053D01*
X114649039Y-70245522D01*
X114645000Y-70204513D01*
X114645000Y-69175487D01*
X114649039Y-69134478D01*
X114659211Y-69100947D01*
X114675731Y-69070040D01*
X114697957Y-69042957D01*
X114725040Y-69020731D01*
X114755947Y-69004211D01*
X114789478Y-68994039D01*
X114830487Y-68990000D01*
X115609513Y-68990000D01*
X115650522Y-68994039D01*
X115650522Y-68994039D01*
G37*
G36*
X113600522Y-68994039D02*
X113634053Y-69004211D01*
X113664960Y-69020731D01*
X113692043Y-69042957D01*
X113714269Y-69070040D01*
X113730789Y-69100947D01*
X113740961Y-69134478D01*
X113745000Y-69175487D01*
X113745000Y-70204513D01*
X113740961Y-70245522D01*
X113730789Y-70279053D01*
X113714269Y-70309960D01*
X113692043Y-70337043D01*
X113664960Y-70359269D01*
X113634053Y-70375789D01*
X113600522Y-70385961D01*
X113559513Y-70390000D01*
X112780487Y-70390000D01*
X112739478Y-70385961D01*
X112705947Y-70375789D01*
X112675040Y-70359269D01*
X112647957Y-70337043D01*
X112625731Y-70309960D01*
X112609211Y-70279053D01*
X112599039Y-70245522D01*
X112595000Y-70204513D01*
X112595000Y-69175487D01*
X112599039Y-69134478D01*
X112609211Y-69100947D01*
X112625731Y-69070040D01*
X112647957Y-69042957D01*
X112675040Y-69020731D01*
X112705947Y-69004211D01*
X112739478Y-68994039D01*
X112780487Y-68990000D01*
X113559513Y-68990000D01*
X113600522Y-68994039D01*
X113600522Y-68994039D01*
G37*
G36*
X154720000Y-69700000D02*
X152620000Y-69700000D01*
X152620000Y-68300000D01*
X154720000Y-68300000D01*
X154720000Y-69700000D01*
X154720000Y-69700000D01*
G37*
G36*
X145620000Y-69700000D02*
X143520000Y-69700000D01*
X143520000Y-68300000D01*
X145620000Y-68300000D01*
X145620000Y-69700000D01*
X145620000Y-69700000D01*
G37*
G36*
X95469000Y-69020000D02*
X94569000Y-69020000D01*
X94569000Y-67820000D01*
X95469000Y-67820000D01*
X95469000Y-69020000D01*
X95469000Y-69020000D01*
G37*
G36*
X98769000Y-69020000D02*
X97869000Y-69020000D01*
X97869000Y-67820000D01*
X98769000Y-67820000D01*
X98769000Y-69020000D01*
X98769000Y-69020000D01*
G37*
G36*
X115650522Y-66454039D02*
X115684053Y-66464211D01*
X115714960Y-66480731D01*
X115742043Y-66502957D01*
X115764269Y-66530040D01*
X115780789Y-66560947D01*
X115790961Y-66594478D01*
X115795000Y-66635487D01*
X115795000Y-67664513D01*
X115790961Y-67705522D01*
X115780789Y-67739053D01*
X115764269Y-67769960D01*
X115742043Y-67797043D01*
X115714960Y-67819269D01*
X115684053Y-67835789D01*
X115650522Y-67845961D01*
X115609513Y-67850000D01*
X114830487Y-67850000D01*
X114789478Y-67845961D01*
X114755947Y-67835789D01*
X114725040Y-67819269D01*
X114697957Y-67797043D01*
X114675731Y-67769960D01*
X114659211Y-67739053D01*
X114649039Y-67705522D01*
X114645000Y-67664513D01*
X114645000Y-66635487D01*
X114649039Y-66594478D01*
X114659211Y-66560947D01*
X114675731Y-66530040D01*
X114697957Y-66502957D01*
X114725040Y-66480731D01*
X114755947Y-66464211D01*
X114789478Y-66454039D01*
X114830487Y-66450000D01*
X115609513Y-66450000D01*
X115650522Y-66454039D01*
X115650522Y-66454039D01*
G37*
G36*
X113600522Y-66454039D02*
X113634053Y-66464211D01*
X113664960Y-66480731D01*
X113692043Y-66502957D01*
X113714269Y-66530040D01*
X113730789Y-66560947D01*
X113740961Y-66594478D01*
X113745000Y-66635487D01*
X113745000Y-67664513D01*
X113740961Y-67705522D01*
X113730789Y-67739053D01*
X113714269Y-67769960D01*
X113692043Y-67797043D01*
X113664960Y-67819269D01*
X113634053Y-67835789D01*
X113600522Y-67845961D01*
X113559513Y-67850000D01*
X112780487Y-67850000D01*
X112739478Y-67845961D01*
X112705947Y-67835789D01*
X112675040Y-67819269D01*
X112647957Y-67797043D01*
X112625731Y-67769960D01*
X112609211Y-67739053D01*
X112599039Y-67705522D01*
X112595000Y-67664513D01*
X112595000Y-66635487D01*
X112599039Y-66594478D01*
X112609211Y-66560947D01*
X112625731Y-66530040D01*
X112647957Y-66502957D01*
X112675040Y-66480731D01*
X112705947Y-66464211D01*
X112739478Y-66454039D01*
X112780487Y-66450000D01*
X113559513Y-66450000D01*
X113600522Y-66454039D01*
X113600522Y-66454039D01*
G37*
G36*
X107622522Y-66073039D02*
X107656053Y-66083211D01*
X107686960Y-66099731D01*
X107714043Y-66121957D01*
X107736269Y-66149040D01*
X107752789Y-66179947D01*
X107762961Y-66213478D01*
X107767000Y-66254487D01*
X107767000Y-67283513D01*
X107762961Y-67324522D01*
X107752789Y-67358053D01*
X107736269Y-67388960D01*
X107714043Y-67416043D01*
X107686960Y-67438269D01*
X107656053Y-67454789D01*
X107622522Y-67464961D01*
X107581513Y-67469000D01*
X106802487Y-67469000D01*
X106761478Y-67464961D01*
X106727947Y-67454789D01*
X106697040Y-67438269D01*
X106669957Y-67416043D01*
X106647731Y-67388960D01*
X106631211Y-67358053D01*
X106621039Y-67324522D01*
X106617000Y-67283513D01*
X106617000Y-66254487D01*
X106621039Y-66213478D01*
X106631211Y-66179947D01*
X106647731Y-66149040D01*
X106669957Y-66121957D01*
X106697040Y-66099731D01*
X106727947Y-66083211D01*
X106761478Y-66073039D01*
X106802487Y-66069000D01*
X107581513Y-66069000D01*
X107622522Y-66073039D01*
X107622522Y-66073039D01*
G37*
G36*
X109672522Y-66073039D02*
X109706053Y-66083211D01*
X109736960Y-66099731D01*
X109764043Y-66121957D01*
X109786269Y-66149040D01*
X109802789Y-66179947D01*
X109812961Y-66213478D01*
X109817000Y-66254487D01*
X109817000Y-67283513D01*
X109812961Y-67324522D01*
X109802789Y-67358053D01*
X109786269Y-67388960D01*
X109764043Y-67416043D01*
X109736960Y-67438269D01*
X109706053Y-67454789D01*
X109672522Y-67464961D01*
X109631513Y-67469000D01*
X108852487Y-67469000D01*
X108811478Y-67464961D01*
X108777947Y-67454789D01*
X108747040Y-67438269D01*
X108719957Y-67416043D01*
X108697731Y-67388960D01*
X108681211Y-67358053D01*
X108671039Y-67324522D01*
X108667000Y-67283513D01*
X108667000Y-66254487D01*
X108671039Y-66213478D01*
X108681211Y-66179947D01*
X108697731Y-66149040D01*
X108719957Y-66121957D01*
X108747040Y-66099731D01*
X108777947Y-66083211D01*
X108811478Y-66073039D01*
X108852487Y-66069000D01*
X109631513Y-66069000D01*
X109672522Y-66073039D01*
X109672522Y-66073039D01*
G37*
G36*
X81641703Y-63706486D02*
X81932883Y-63827097D01*
X82194944Y-64002201D01*
X82417799Y-64225056D01*
X82592903Y-64487117D01*
X82713514Y-64778297D01*
X82775000Y-65087412D01*
X82775000Y-65402588D01*
X82713514Y-65711703D01*
X82592903Y-66002883D01*
X82417799Y-66264944D01*
X82194944Y-66487799D01*
X81932883Y-66662903D01*
X81641703Y-66783514D01*
X81332588Y-66845000D01*
X81017412Y-66845000D01*
X80708297Y-66783514D01*
X80417117Y-66662903D01*
X80155056Y-66487799D01*
X79932201Y-66264944D01*
X79757097Y-66002883D01*
X79636486Y-65711703D01*
X79575000Y-65402588D01*
X79575000Y-65087412D01*
X79636486Y-64778297D01*
X79757097Y-64487117D01*
X79932201Y-64225056D01*
X80155056Y-64002201D01*
X80417117Y-63827097D01*
X80708297Y-63706486D01*
X81017412Y-63645000D01*
X81332588Y-63645000D01*
X81641703Y-63706486D01*
X81641703Y-63706486D01*
G37*
G36*
X160381703Y-63706486D02*
X160672883Y-63827097D01*
X160934944Y-64002201D01*
X161157799Y-64225056D01*
X161332903Y-64487117D01*
X161453514Y-64778297D01*
X161515000Y-65087412D01*
X161515000Y-65402588D01*
X161453514Y-65711703D01*
X161332903Y-66002883D01*
X161157799Y-66264944D01*
X160934944Y-66487799D01*
X160672883Y-66662903D01*
X160381703Y-66783514D01*
X160072588Y-66845000D01*
X159757412Y-66845000D01*
X159448297Y-66783514D01*
X159157117Y-66662903D01*
X158895056Y-66487799D01*
X158672201Y-66264944D01*
X158497097Y-66002883D01*
X158376486Y-65711703D01*
X158315000Y-65402588D01*
X158315000Y-65087412D01*
X158376486Y-64778297D01*
X158497097Y-64487117D01*
X158672201Y-64225056D01*
X158895056Y-64002201D01*
X159157117Y-63827097D01*
X159448297Y-63706486D01*
X159757412Y-63645000D01*
X160072588Y-63645000D01*
X160381703Y-63706486D01*
X160381703Y-63706486D01*
G37*
G36*
X90231630Y-64007299D02*
X90391855Y-64055903D01*
X90539520Y-64134831D01*
X90668949Y-64241051D01*
X90775169Y-64370480D01*
X90854097Y-64518145D01*
X90902701Y-64678370D01*
X90919112Y-64845000D01*
X90902701Y-65011630D01*
X90854097Y-65171855D01*
X90775169Y-65319520D01*
X90668949Y-65448949D01*
X90539520Y-65555169D01*
X90391855Y-65634097D01*
X90231630Y-65682701D01*
X90106752Y-65695000D01*
X90023248Y-65695000D01*
X89898370Y-65682701D01*
X89738145Y-65634097D01*
X89590480Y-65555169D01*
X89461051Y-65448949D01*
X89354831Y-65319520D01*
X89275903Y-65171855D01*
X89227299Y-65011630D01*
X89210888Y-64845000D01*
X89227299Y-64678370D01*
X89275903Y-64518145D01*
X89354831Y-64370480D01*
X89461051Y-64241051D01*
X89590480Y-64134831D01*
X89738145Y-64055903D01*
X89898370Y-64007299D01*
X90023248Y-63995000D01*
X90106752Y-63995000D01*
X90231630Y-64007299D01*
X90231630Y-64007299D01*
G37*
G36*
X92771630Y-64007299D02*
X92931855Y-64055903D01*
X93079520Y-64134831D01*
X93208949Y-64241051D01*
X93315169Y-64370480D01*
X93394097Y-64518145D01*
X93442701Y-64678370D01*
X93459112Y-64845000D01*
X93442701Y-65011630D01*
X93394097Y-65171855D01*
X93315169Y-65319520D01*
X93208949Y-65448949D01*
X93079520Y-65555169D01*
X92931855Y-65634097D01*
X92771630Y-65682701D01*
X92646752Y-65695000D01*
X92563248Y-65695000D01*
X92438370Y-65682701D01*
X92278145Y-65634097D01*
X92130480Y-65555169D01*
X92001051Y-65448949D01*
X91894831Y-65319520D01*
X91815903Y-65171855D01*
X91767299Y-65011630D01*
X91750888Y-64845000D01*
X91767299Y-64678370D01*
X91815903Y-64518145D01*
X91894831Y-64370480D01*
X92001051Y-64241051D01*
X92130480Y-64134831D01*
X92278145Y-64055903D01*
X92438370Y-64007299D01*
X92563248Y-63995000D01*
X92646752Y-63995000D01*
X92771630Y-64007299D01*
X92771630Y-64007299D01*
G37*
G36*
X88375000Y-65695000D02*
X86675000Y-65695000D01*
X86675000Y-63995000D01*
X88375000Y-63995000D01*
X88375000Y-65695000D01*
X88375000Y-65695000D01*
G37*
G36*
X97851630Y-64007299D02*
X98011855Y-64055903D01*
X98159520Y-64134831D01*
X98288949Y-64241051D01*
X98395169Y-64370480D01*
X98474097Y-64518145D01*
X98522701Y-64678370D01*
X98539112Y-64845000D01*
X98522701Y-65011630D01*
X98474097Y-65171855D01*
X98395169Y-65319520D01*
X98288949Y-65448949D01*
X98159520Y-65555169D01*
X98011855Y-65634097D01*
X97851630Y-65682701D01*
X97726752Y-65695000D01*
X97643248Y-65695000D01*
X97518370Y-65682701D01*
X97358145Y-65634097D01*
X97210480Y-65555169D01*
X97081051Y-65448949D01*
X96974831Y-65319520D01*
X96895903Y-65171855D01*
X96847299Y-65011630D01*
X96830888Y-64845000D01*
X96847299Y-64678370D01*
X96895903Y-64518145D01*
X96974831Y-64370480D01*
X97081051Y-64241051D01*
X97210480Y-64134831D01*
X97358145Y-64055903D01*
X97518370Y-64007299D01*
X97643248Y-63995000D01*
X97726752Y-63995000D01*
X97851630Y-64007299D01*
X97851630Y-64007299D01*
G37*
G36*
X95311630Y-64007299D02*
X95471855Y-64055903D01*
X95619520Y-64134831D01*
X95748949Y-64241051D01*
X95855169Y-64370480D01*
X95934097Y-64518145D01*
X95982701Y-64678370D01*
X95999112Y-64845000D01*
X95982701Y-65011630D01*
X95934097Y-65171855D01*
X95855169Y-65319520D01*
X95748949Y-65448949D01*
X95619520Y-65555169D01*
X95471855Y-65634097D01*
X95311630Y-65682701D01*
X95186752Y-65695000D01*
X95103248Y-65695000D01*
X94978370Y-65682701D01*
X94818145Y-65634097D01*
X94670480Y-65555169D01*
X94541051Y-65448949D01*
X94434831Y-65319520D01*
X94355903Y-65171855D01*
X94307299Y-65011630D01*
X94290888Y-64845000D01*
X94307299Y-64678370D01*
X94355903Y-64518145D01*
X94434831Y-64370480D01*
X94541051Y-64241051D01*
X94670480Y-64134831D01*
X94818145Y-64055903D01*
X94978370Y-64007299D01*
X95103248Y-63995000D01*
X95186752Y-63995000D01*
X95311630Y-64007299D01*
X95311630Y-64007299D01*
G37*
G36*
X100391630Y-64007299D02*
X100551855Y-64055903D01*
X100699520Y-64134831D01*
X100828949Y-64241051D01*
X100935169Y-64370480D01*
X101014097Y-64518145D01*
X101062701Y-64678370D01*
X101079112Y-64845000D01*
X101062701Y-65011630D01*
X101014097Y-65171855D01*
X100935169Y-65319520D01*
X100828949Y-65448949D01*
X100699520Y-65555169D01*
X100551855Y-65634097D01*
X100391630Y-65682701D01*
X100266752Y-65695000D01*
X100183248Y-65695000D01*
X100058370Y-65682701D01*
X99898145Y-65634097D01*
X99750480Y-65555169D01*
X99621051Y-65448949D01*
X99514831Y-65319520D01*
X99435903Y-65171855D01*
X99387299Y-65011630D01*
X99370888Y-64845000D01*
X99387299Y-64678370D01*
X99435903Y-64518145D01*
X99514831Y-64370480D01*
X99621051Y-64241051D01*
X99750480Y-64134831D01*
X99898145Y-64055903D01*
X100058370Y-64007299D01*
X100183248Y-63995000D01*
X100266752Y-63995000D01*
X100391630Y-64007299D01*
X100391630Y-64007299D01*
G37*
G36*
X154720000Y-65200000D02*
X152620000Y-65200000D01*
X152620000Y-63800000D01*
X154720000Y-63800000D01*
X154720000Y-65200000D01*
X154720000Y-65200000D01*
G37*
G36*
X145620000Y-65200000D02*
X143520000Y-65200000D01*
X143520000Y-63800000D01*
X145620000Y-63800000D01*
X145620000Y-65200000D01*
X145620000Y-65200000D01*
G37*
M02*
